<?xml version="1.0" encoding="UTF-8"?>
<svg id="Layer_1" data-name="Layer 1" xmlns="http://www.w3.org/2000/svg" viewBox="0 0 1291.5 1297.13">
  <defs>
    <style>
      .cls-1 {
        fill: #fff;
      }

      .cls-2 {
        fill: #6862d1;
      }

      .cls-3 {
        fill: #333e44;
      }
    </style>
  </defs>
  <path class="cls-3" d="m899.98,591.59c-19.83,6.97-39.62,14.07-59.53,20.81-3.79,1.28-5.03,2.85-5.02,6.92.15,65.21-.74,130.45.49,195.64.51,27.18-11.07,46-31.16,61.76-27.17,21.32-58.42,34.16-91.01,44.3-23.4,7.28-47.32,12.26-71.51,16.08-13.91,2.2-27.86,3.95-41.91,5.07-20.65,1.65-41.33,2.27-62.03,2.27-12.22,0-24.51.41-36.66-.59-13.53-1.12-27.09-1.86-40.61-3.67-17.3-2.32-34.6-4.83-51.63-8.42-19.27-4.06-38.34-9.19-56.93-15.99-25.85-9.45-50.65-20.78-72.69-37.49-12.53-9.5-23.24-20.69-29.74-35.24-2.65-5.92-2.85-12.43-2.84-18.9.02-67.38-.07-134.76.12-202.13.02-5.86-1.3-8.34-7.46-10.06-13.48-3.75-26.55-8.95-39.78-13.57-19.79-6.91-39.6-13.78-59.37-20.75-12.92-4.55-25.85-9.09-38.67-13.92-10.93-4.11-18.81-15.01-17.24-29.14,1.08-9.68,9.29-19.11,20.09-22.91,33.28-11.69,66.45-23.68,99.69-35.48,23.45-8.32,47-16.38,70.42-24.78,24.89-8.93,49.64-18.24,74.52-27.17,28.73-10.31,57.53-20.39,86.31-30.56,27.33-9.65,54.61-19.46,82.04-28.85,10.87-3.72,22.13-3.46,33.56-2.15,19.3,2.22,36.45,10.84,54.42,17.01,12.97,4.45,25.99,8.75,38.92,13.31,14.14,4.98,28.21,10.17,42.32,15.25,14.57,5.25,29.15,10.48,43.72,15.73,16.69,6.02,33.36,12.11,50.08,18.06,16.92,6.02,33.92,11.84,50.85,17.84,18.97,6.72,37.95,13.41,56.84,20.36,16.65,6.13,33.5,11.68,50.04,18.16,13.3,5.21,26.88,9.78,40.51,14.09,9.67,3.06,18.28,12.37,17.93,24.48-.47,16.12-5.09,22.91-20.35,28.24-19.48,6.81-39.02,13.46-58.53,20.17-.08-3.31-.42-6.63-.18-9.91.38-5.17-1.53-8.98-5.83-11.71.92-.38,1.82-.82,2.76-1.15,18.15-6.39,36.29-12.78,54.46-19.12,2.59-.9,5.08-1.76,5.15-5.06.07-3.48-2.51-4.36-5.19-5.39-5.93-2.28-12.09-3.85-18.05-6.11-18.6-7.05-37.39-13.57-56.15-20.19-12.92-4.56-26.08-8.47-38.81-13.51-15.37-6.09-31.11-11.12-46.57-16.95-14.76-5.56-29.72-10.56-44.57-15.87-16.72-5.98-33.37-12.13-50.11-18.04-15.99-5.64-32.1-10.93-48.07-16.63-16.01-5.71-31.86-11.83-47.85-17.57-18.57-6.67-37.21-13.16-55.85-19.65-12.56-4.37-25.65-6.01-38.26-1.83-33.25,11.01-66.26,22.74-99.26,34.46-41.26,14.65-82.41,29.62-123.63,44.38-38.53,13.8-77.1,27.52-115.64,41.29-24.44,8.73-48.89,17.47-73.31,26.27-2.4.87-5.29,1.36-5.55,4.88-.25,3.55,2.27,4.45,4.84,5.35,11.35,3.96,22.73,7.84,34.07,11.85,22.81,8.08,45.57,16.3,68.41,24.31,14.17,4.97,28.47,9.53,42.65,14.47,17.09,5.96,34.09,12.15,51.16,18.18,10.91,3.85,21.88,7.55,32.8,11.37,14.14,4.95,28.19,10.17,42.42,14.85,10.22,3.36,20.3,7.06,30.32,10.95,3.81,1.48,7.96,2.04,11.82,3.4,16.33,5.78,32.57,11.8,48.91,17.53,14.81,5.2,29.78,9.98,44.56,15.27,12.8,4.58,25.68,5.75,38.59,1.33,33.15-11.34,66.24-22.88,99.31-34.48,39.49-13.86,78.8-28.25,118.43-41.69,32.13-10.9,64-22.51,96.14-33.34,5.48-1.75,10.61.96,15.93,1.23,12.21.63,12.21.59,11.98,13Zm-158.13,121.83h.05c0-19.79-.01-39.59,0-59.38,0-7.18.04-7.18-7.1-4.87-.15.05-.29.15-.44.21-15.25,5.34-30.49,10.68-45.74,16.02-25.53,8.95-50.96,18.19-76.61,26.77-19.68,6.58-38.73,15.11-59.28,19.12-8.93,1.74-17.66,1.23-26.39-.33-10.69-1.9-20.71-6.07-30.89-9.72-16.29-5.84-32.89-10.85-49.1-16.91-20.32-7.6-40.8-14.7-61.37-21.56-13.34-4.45-26.24-10.17-39.94-13.63-3.7-.93-4.72-.68-4.56,3.17.26,6.14.26,12.3.27,18.45.03,34.76.1,69.53-.04,104.29-.02,4.12,1.08,5.46,5.3,5.31,4.72-.17,9.54.51,14.2,1.14,22.58,3.05,44.93,7.46,66.52,14.85,32.51,11.13,63.38,24.93,87.84,50.52,9.46,9.9,17.78,20.22,24.4,32.07.6,1.07.71,2.93,2.32,2.88,1.55-.05,1.63-1.85,2.17-2.96,7.42-15.21,18.21-27.91,30.76-38.9,15.93-13.96,34.16-24.53,53.59-33.05,34.83-15.29,71.27-23.89,109.15-26.63,3.58-.26,4.99-1.59,4.95-5.47-.2-20.46-.09-40.92-.09-61.38Zm66.92-90.11c-13.68,4.86-26.49,9.61-39.46,13.88-3.76,1.24-5.03,2.78-5.01,6.82.19,47.42.05,94.84.28,142.26.05,10.54-4.88,15.55-15.83,15.84-11.91.31-23.66,1.7-35.35,3.48-32.57,4.96-63.76,14.71-92.98,29.92-18.65,9.7-35.01,22.7-47.83,39.62-8.58,11.32-14.25,23.96-17.3,37.94-1.11,5.07.78,5.35,4.42,4.93,13.12-1.5,26.33-1.4,39.49-2.67,16.5-1.59,32.96-3.41,49.24-6.48,26.45-4.99,52.62-11.12,77.84-20.77,25.06-9.58,49.29-20.64,69.16-39.31,8.35-7.85,13.59-16.84,13.49-29.04-.36-45.59-.15-91.18-.15-136.77,0-19.62,0-39.23,0-59.66Zm-534.74.74c-.12.62-.25.95-.25,1.27.01,66.05.01,132.11.09,198.16,0,4.08.35,8.13,2.45,11.92,7.21,13.01,18.89,21.25,30.96,28.97,18.51,11.84,38.69,20.14,59.32,27.5,21.61,7.72,43.9,12.84,66.37,16.95,16.1,2.94,32.39,5.1,48.79,6.4,13.87,1.1,27.69,1.87,41.59,1.9,3.85.01,4.7-1.45,3.84-4.61-1.33-4.92-2.53-9.92-4.39-14.65-6.77-17.24-17.99-31.24-32.18-42.97-14.6-12.08-30.98-21.19-48.3-28.66-16.85-7.27-34.5-11.96-52.29-16.32-18.29-4.49-36.78-7-55.54-7.57-11.24-.34-16.1-4.97-16.22-16.38-.52-47.52.81-95.05-.64-142.57-.11-3.52-1.34-4.99-4.41-5.95-4.82-1.51-9.54-3.35-14.33-4.99-8.26-2.83-16.55-5.6-24.86-8.41Z"/>
  <path class="cls-2" d="m912.14,563.79c4.31,2.73,6.21,6.55,5.83,11.71-.24,3.28.1,6.61.18,9.91-.07,25.61-.15,51.23-.21,76.84-.02,7.65.09,15.31-.04,22.96-.05,2.79.56,4.33,3.53,5.49,15.86,6.22,24.33,20.14,22.49,37.07-.82,7.5-4.01,14.19-9.42,19.62-2,2.01-3.15,3.16-.93,6.47,7.67,11.43,11.44,24.49,13.5,37.98,2.47,16.15,3.11,32.47,4.2,48.76.96,14.34,2.92,28.74,8.78,42.2,3.44,7.9,8.03,14.93,14.96,20.24,2.26,1.73,4.65,3.39,7.5,3.78,3.74.51,6.68-.88,7.43-4.88.73-3.87-1.56-5.87-5.05-6.73-.8-.2-1.67-.08-2.48-.23-2.48-.44-3.91-1.91-3.69-4.47.2-2.38,1.82-3.29,4.1-3.51,7.57-.71,14.56,5,15.32,12.6.79,7.9-4.96,14.83-12.89,15.41-6.42.47-11.68-2.46-16.34-6.35-12.19-10.19-18.03-24.03-21.65-38.98-2.83-11.72-3.63-23.7-4.34-35.73-1.09-18.41-1.76-36.94-7-54.83-2.12-7.25-5.18-14.1-9.53-20.39,3.06,11.41,5.62,22.89,7.1,34.53,1.68,13.25,3.04,26.53,3.65,39.9,1.03,22.62,2.66,45.21,11.84,66.4,4.13,9.53,9.14,18.52,17.29,25.3,4.7,3.91,4.53,9.68,3.09,15.16-1.16,4.4-7.36,8.34-12.26,7.89-4.79-.44-8.47-3.36-11.61-7-11.25-13.02-19.83-27.46-23.93-44.33-.26-1.09-.73-2.13-1.54-4.42-1.76,8.51-4.07,15.77-4.58,23.16-.63,9.22.18,18.55,1.63,27.74.7,4.42,3.81,6.84,7.1,5.52,3.91-1.56,4.47-4.58,2.84-8.18-1.03-2.27-2.09-4.52-3.22-6.75-1.09-2.16-.66-3.99,1.35-5.15,1.99-1.15,3.85-.69,5.17,1.34,3.56,5.5,6.07,11.24,4.74,18.05-.88,4.54-5.62,8.26-11.81,9.02-5.22.64-11.16-2.87-12.91-8.16-1.29-3.89-1.88-8-2.88-12.48-2.29,4.55-4.41,8.97-6.72,13.29-2.82,5.27-8.79,8.33-13.93,7.35-4.69-.9-10.17-7.39-10.79-12.59-.26-2.18.72-3.89,1.73-5.56,11.78-19.59,16.99-41.15,20.49-63.53,5.44-34.74,4.93-69.7,5.13-104.73-.76,4.51-1.57,9.02-2.28,13.55-.72,4.57-1.73,9.14-1.95,13.73-.85,18.07-1.09,36.18-2.24,54.22-1.11,17.51-2.98,34.96-9.95,51.4-3.85,9.07-8.43,17.7-14.17,25.71-1.81,2.52-3.91,4.51-6.99,2.18-3-2.27-1.23-4.68.37-6.92,10.94-15.31,17.43-32.4,20.5-50.87.05-.33.19-.66.17-.98-.84-10.29,2.56-20.23,2.26-30.52-.55-18.91,1.52-37.68,3.54-56.47.92-8.57,3.23-16.84,4.61-26.81-4.45,6.93-6.31,13.38-7.83,19.79-3.5,14.82-5.57,29.81-6.61,45.1-1.47,21.67-1.37,43.71-9.51,64.5-6.26,15.99-15.62,29.27-30.93,37.77-3.14,1.74-4.31,4.14-2.37,7.41,2.24,3.78,5.05,2.81,7.86.69.79-.6,1.43-1.41,2.22-2.01,1.77-1.35,3.69-1.68,5.45-.12,2.03,1.8,1.61,3.89.12,5.78-3.41,4.29-8.03,6.67-13.39,6.25-5.28-.41-10.36-5.77-11.15-10.79-.92-5.81.88-10.79,6.02-13.72,24.96-14.21,32.23-38.01,34.84-64.18,2.01-20.15,2.65-40.47,5.41-60.51,1.79-13.04,5.04-26.1,11.39-37.97,1.32-2.47,1.2-3.75-1.14-5.71-23.32-19.43-13.92-51.19,8.93-60.04,2.39-.93,4.24-1.67,4.21-5.09-.28-30.61-.32-61.21-.46-91.82,0-.82-.22-1.64-.33-2.46.23-12.4.22-12.37-11.98-13-5.32-.27-10.45-2.98-15.94-1.23-.87-1.43-2.2-1.72-3.79-1.87-6.22-.59-12.44-1.21-18.62-2.08-10.83-1.51-21.62-3.33-32.46-4.8-11.07-1.49-22.19-2.56-33.25-4.09-15.74-2.18-31.44-4.67-47.17-6.91-14.78-2.1-29.57-4.12-44.37-6.04-10.91-1.42-21.92-2.14-32.74-4.04-16.4-2.89-32.99-4.34-49.38-7.11-6.29-1.06-12.81-.48-18.91-2.81,2.49-5.39,1.73-11.21,2.26-16.86.83.03,1.68-.05,2.49.11,14.91,2.93,30.07,4.3,45.09,6.42,15.49,2.18,30.98,4.59,46.57,6.2,10.61,1.09,21.17,2.71,31.75,4.14,9.44,1.27,18.88,2.58,28.32,3.93,6.8.97,13.57,2.1,20.38,3.02,11.08,1.5,22.18,2.81,33.25,4.34,10.75,1.49,21.52,2.82,32.24,4.6,10.96,1.83,22.08,2.67,33.09,4.25,15.09,2.17,30.15,4.56,45.33,6.05Zm.13,208.75c-.53,35.79-.32,71.36-6.1,106.58-3.35,20.41-8.38,40.29-18.33,58.65-1.71,3.16-5.27,6.6-.46,9.91,2.9,2,5.69-.29,8.48-6.12,9.37-19.6,15.01-40.12,17.38-61.79,1.96-17.9,3.25-35.78,3.69-53.76.27-11.3-.98-22.52-2.08-33.7-.64-6.49-.14-13.22-2.57-19.77Zm9.95,7.01c.3,5.13.38,10.28.94,15.38,1.92,17.51,2.69,35.09,1.54,52.63-1.04,15.77.47,31.12,4.41,46.33,4.17,16.11,12.41,30.01,23.17,42.53,2.48,2.89,5.54,4.18,8.59,1.2,2.48-2.42,1.67-5.29-.8-7.4-9.27-7.91-14.8-18.28-19.28-29.28-10.21-25.1-11.69-51.71-12.64-78.27-.53-14.71-3.6-28.97-5.92-43.12Zm-12.48-75.13c-11.91-.01-20.55,8.03-20.66,19.14-.11,11.1,9.81,20.8,20.15,20.48,10.66-.34,20.02-7.84,19.95-20.49-.06-11.37-7.91-19.11-19.44-19.12Zm11.76,71.89h.09v-1.9s-.06,0-.09,0v1.9Z"/>
  <path class="cls-1" d="m912.14,563.79c-15.18-1.49-30.24-3.88-45.33-6.05-11.01-1.58-22.13-2.43-33.09-4.25-10.72-1.79-21.49-3.12-32.24-4.6-11.07-1.53-22.18-2.84-33.25-4.34-6.8-.92-13.58-2.05-20.38-3.02-9.43-1.34-18.87-2.65-28.32-3.93-10.58-1.43-21.14-3.04-31.75-4.14-15.59-1.61-31.08-4.01-46.57-6.2-15.02-2.12-30.18-3.49-45.09-6.42-.81-.16-1.66-.08-2.49-.11-1.51-7.98-5.59-14.28-12-19.28-5.83-4.55-12.94-6.04-19.55-8.69-8.54-3.42-17.64-1.88-26.52-2.05-11.56-.22-22.26,2.99-32.1,8.89-18.8,11.26-20.34,34.3-3.2,47.92,6.09,4.84,13.01,8.2,20.63,10.08,9.06,2.24,18,3.49,27.52,2.25,17.22-2.23,32.37-7.63,42.96-22.25,6.09,2.32,12.62,1.74,18.91,2.81,16.4,2.77,32.99,4.23,49.38,7.11,10.81,1.9,21.83,2.62,32.74,4.04,14.8,1.92,29.59,3.94,44.37,6.04,15.73,2.24,31.43,4.73,47.17,6.91,11.06,1.53,22.19,2.6,33.25,4.09,10.84,1.46,21.63,3.28,32.46,4.8,6.18.86,12.4,1.48,18.62,2.08,1.59.15,2.92.44,3.79,1.87-32.14,10.83-64.01,22.45-96.14,33.34-39.63,13.44-78.94,27.83-118.43,41.69-33.06,11.6-66.15,23.14-99.31,34.48-12.92,4.42-25.8,3.26-38.59-1.33-14.78-5.3-29.74-10.07-44.56-15.27-16.34-5.74-32.58-11.76-48.91-17.53-3.86-1.37-8.01-1.93-11.82-3.4-10.03-3.89-20.1-7.58-30.32-10.95-14.23-4.68-28.28-9.91-42.42-14.85-10.92-3.82-21.89-7.52-32.8-11.37-17.06-6.02-34.07-12.22-51.16-18.18-14.17-4.94-28.48-9.51-42.65-14.47-22.84-8.01-45.6-16.23-68.41-24.31-11.33-4.01-22.71-7.9-34.07-11.85-2.57-.9-5.09-1.8-4.84-5.35.25-3.52,3.14-4.01,5.55-4.88,24.42-8.8,48.86-17.54,73.31-26.27,38.55-13.77,77.11-27.48,115.64-41.29,41.22-14.77,82.37-29.73,123.63-44.38,33.01-11.72,66.02-23.45,99.26-34.46,12.61-4.18,25.7-2.54,38.26,1.83,18.64,6.48,37.27,12.98,55.85,19.65,15.99,5.74,31.85,11.87,47.85,17.57,15.97,5.69,32.08,10.98,48.07,16.63,16.74,5.91,33.4,12.06,50.11,18.04,14.85,5.31,29.82,10.31,44.57,15.87,15.46,5.83,31.2,10.85,46.57,16.95,12.72,5.04,25.89,8.95,38.81,13.51,18.76,6.62,37.55,13.14,56.15,20.19,5.96,2.26,12.11,3.83,18.05,6.11,2.68,1.03,5.26,1.91,5.19,5.39-.07,3.3-2.56,4.16-5.15,5.06-18.17,6.34-36.31,12.73-54.46,19.12-.94.33-1.84.76-2.76,1.15Z"/>
  <path class="cls-1" d="m741.85,713.42c0,20.46-.11,40.92.09,61.38.04,3.88-1.37,5.21-4.95,5.47-37.88,2.74-74.32,11.34-109.15,26.63-19.43,8.53-37.66,19.09-53.59,33.05-12.54,10.99-23.34,23.69-30.76,38.9-.54,1.11-.62,2.91-2.17,2.96-1.61.05-1.72-1.81-2.32-2.88-6.63-11.84-14.94-22.17-24.4-32.07-24.46-25.59-55.33-39.39-87.84-50.52-21.59-7.39-43.94-11.8-66.52-14.85-4.67-.63-9.48-1.3-14.2-1.14-4.22.15-5.32-1.19-5.3-5.31.14-34.76.07-69.53.04-104.29,0-6.15-.01-12.3-.27-18.45-.16-3.84.86-4.1,4.56-3.17,13.7,3.46,26.6,9.19,39.94,13.63,20.57,6.85,41.05,13.96,61.37,21.56,16.21,6.06,32.8,11.08,49.1,16.91,10.18,3.65,20.2,7.82,30.89,9.72,8.73,1.55,17.45,2.07,26.39.33,20.55-4.01,39.6-12.53,59.28-19.12,25.65-8.58,51.08-17.82,76.61-26.77,15.24-5.35,30.49-10.68,45.74-16.02.15-.05.29-.16.44-.21,7.13-2.3,7.1-2.3,7.1,4.87-.02,19.79,0,39.59,0,59.38h-.05Z"/>
  <path class="cls-1" d="m808.77,623.31c0,20.43,0,40.04,0,59.66,0,45.59-.21,91.18.15,136.77.09,12.2-5.14,21.19-13.49,29.04-19.87,18.67-44.1,29.73-69.16,39.31-25.22,9.64-51.39,15.78-77.84,20.77-16.28,3.07-32.73,4.89-49.24,6.48-13.15,1.27-26.37,1.17-39.49,2.67-3.64.42-5.53.14-4.42-4.93,3.05-13.98,8.72-26.62,17.3-37.94,12.83-16.92,29.19-29.92,47.83-39.62,29.22-15.21,60.41-24.96,92.98-29.92,11.68-1.78,23.44-3.17,35.35-3.48,10.95-.28,15.88-5.3,15.83-15.84-.23-47.42-.09-94.84-.28-142.26-.02-4.04,1.25-5.58,5.01-6.82,12.97-4.27,25.77-9.02,39.46-13.88Z"/>
  <path class="cls-1" d="m274.03,624.05c8.31,2.81,16.59,5.58,24.86,8.41,4.78,1.64,9.5,3.48,14.33,4.99,3.07.96,4.31,2.43,4.41,5.95,1.45,47.52.12,95.05.64,142.57.12,11.41,4.98,16.04,16.22,16.38,18.76.57,37.25,3.09,55.54,7.57,17.8,4.36,35.44,9.06,52.29,16.32,17.32,7.47,33.71,16.58,48.3,28.66,14.18,11.73,25.41,25.73,32.18,42.97,1.86,4.73,3.05,9.73,4.39,14.65.86,3.15.01,4.62-3.84,4.61-13.9-.04-27.72-.81-41.59-1.9-16.4-1.3-32.69-3.45-48.79-6.4-22.47-4.11-44.75-9.24-66.37-16.95-20.64-7.37-40.82-15.67-59.32-27.5-12.07-7.72-23.75-15.96-30.96-28.97-2.1-3.79-2.45-7.84-2.45-11.92-.07-66.05-.08-132.11-.09-198.16,0-.32.12-.65.25-1.27Z"/>
  <path class="cls-3" d="m591.36,537.62c-10.59,14.62-25.74,20.01-42.96,22.25-9.53,1.24-18.47,0-27.52-2.25-7.61-1.88-14.53-5.24-20.63-10.08-17.14-13.62-15.6-36.65,3.2-47.92,9.84-5.89,20.55-9.1,32.1-8.89,8.88.17,17.98-1.36,26.52,2.05,6.61,2.64,13.72,4.14,19.55,8.69,6.41,5,10.5,11.3,12,19.28-.54,5.65.23,11.48-2.26,16.87Zm-50.78.17c9.05-.47,17.16-2.02,24.71-5.92,2.75-1.42,5.28-3.52,5.52-6.53.27-3.33-2.27-5.57-5.19-7.07-1.33-.68-2.62-1.48-4.02-1.97-14.83-5.21-29.68-5.03-44.11,1.05-8.05,3.39-8,9.48-.51,14.4,7.38,4.84,15.86,5.14,23.6,6.04Z"/>
  <path class="cls-1" d="m912.26,772.54c2.43,6.55,1.93,13.28,2.57,19.77,1.1,11.18,2.35,22.4,2.08,33.7-.43,17.98-1.73,35.86-3.69,53.76-2.37,21.67-8.02,42.19-17.38,61.79-2.79,5.83-5.57,8.12-8.48,6.12-4.81-3.31-1.25-6.76.46-9.91,9.96-18.36,14.98-38.24,18.33-58.65,5.78-35.22,5.57-70.8,6.1-106.58Z"/>
  <path class="cls-1" d="m922.21,779.55c2.31,14.16,5.39,28.41,5.92,43.12.96,26.56,2.43,53.17,12.64,78.27,4.48,11,10.01,21.37,19.28,29.28,2.47,2.11,3.28,4.97.8,7.4-3.05,2.99-6.1,1.7-8.59-1.2-10.76-12.52-18.99-26.42-23.17-42.53-3.94-15.21-5.44-30.57-4.41-46.33,1.15-17.55.38-35.12-1.54-52.63-.56-5.1-.64-10.25-.94-15.38Z"/>
  <path class="cls-1" d="m909.73,704.42c11.52.01,19.37,7.76,19.44,19.12.07,12.65-9.29,20.15-19.95,20.49-10.33.33-20.25-9.38-20.15-20.48.11-11.11,8.74-19.15,20.66-19.14Zm.02,8.92c-6.88,0-11.66,4.04-11.72,9.94-.06,5.84,5.1,11.06,11.07,11.19,6.08.14,11.13-4.91,11.03-11-.1-6.16-4.16-10.12-10.37-10.13Z"/>
  <path class="cls-1" d="m921.48,776.32v-1.9s.06,0,.09,0v1.9h-.09Z"/>
  <path class="cls-1" d="m540.58,537.79c-7.74-.89-16.22-1.2-23.6-6.04-7.49-4.92-7.54-11.01.51-14.4,14.43-6.09,29.28-6.26,44.11-1.05,1.4.49,2.69,1.29,4.02,1.97,2.92,1.5,5.46,3.74,5.19,7.07-.25,3.01-2.78,5.11-5.52,6.53-7.54,3.91-15.66,5.45-24.71,5.92Z"/>
  <path class="cls-2" d="m909.74,713.34c6.21,0,10.27,3.97,10.37,10.13.1,6.1-4.95,11.14-11.03,11-5.96-.13-11.13-5.36-11.07-11.19.06-5.9,4.84-9.95,11.72-9.94Z"/>
</svg>