<?xml version="1.0" encoding="UTF-8"?>
<svg id="Layer_1" data-name="Layer 1" xmlns="http://www.w3.org/2000/svg" viewBox="0 0 1977.37 1906.18">
  <defs>
    <style>
      .cls-1 {
        fill: #fff;
      }

      .cls-2 {
        fill: #2b313a;
      }

      .cls-3 {
        fill: #683bdc;
      }
    </style>
  </defs>
  <path class="cls-2" d="m482.73,926.67c5.99-.15,11.97-.42,17.96-.42,156.11-.03,312.22,0,468.34-.08,27.05-.01,51.52,8.02,73.05,23.93,12.24,9.05,21.51,20.87,28.45,35,9.99,20.33,13.87,41.31,13.84,63.74-.24,158.11-.18,316.22-.09,474.33.01,24.02-5.36,46.68-18.99,66.35-19.24,27.78-46.3,43.62-80.12,47.33-1.61-.21-3.24-.59-4.86-.59-161,.01-322.01.05-483.01.15-5.94,0-11.93-.86-17.83.54-8.37-1.73-17.14-.13-25.38-3.37-7.1-2.79-14.09-5.42-20.5-9.9-10.64-7.43-20.54-15.57-29.06-25.33-7.6-8.71-13.95-17.95-18.3-29.06-6.54-16.72-7.74-33.79-7.74-51.27.01-157.13.07-314.26-.07-471.39-.01-16.76,1.2-33.25,6.37-49.23,4.76-14.74,14.13-26.66,24.84-37.39,15.33-15.37,33.02-26.69,55.15-29.93,3.04-.45,6.18-1.95,9.39-2.44,2.93.5,5.86.76,8.57-.97Zm-30.3,215.63c1.15,1.36,2.64,1.57,4.28,1.29,15.07,5.03,28.41,12.98,39.97,23.87,20.94,19.72,31.13,44.81,31.56,72.77,1,65.5.68,131.03.25,196.54-.1,15.14,5.83,26.48,16.02,36.64,7.22,7.2,15.73,11.52,25.76,13,6.99,2.38,13.89,1.65,20.74-.61,3.42-1.9,6.76-3.96,10.28-5.65,6.07-2.91,10.98-7.04,14.93-12.49,7.52-10.4,10.95-21.91,10.94-34.77-.1-84.54-.01-169.08-.01-253.62,0-8.99.53-17.95,1.24-26.91,1.25-15.86,7.27-30.15,16.13-42.76,12.07-17.17,27.14-31.33,48.19-37.43,12.48-3.62,24.5-8.85,37.99-8.3,10.28.42,19.84,2.82,29.72,5.72,14.92,4.37,27,13.2,38.91,21.91,11.37,8.31,19.32,21.15,23.97,34.04,5.22,14.44,10.3,29.62,9.15,45.78-.61,8.61-.1,17.3-.1,25.95,0,78.55-.03,157.1.03,235.65,0,11.97,1.91,23.04,10.05,33.07,16.47,20.3,31.09,22.77,53.05,18.59,22.92-4.36,38.52-28.37,38.35-48.92-.27-33.28-.1-66.57-.08-99.85.03-34.28.04-68.57.17-102.85.1-26.36,9.92-48.81,29.41-66.29,17.54-15.72,38.51-24.88,62.1-27.56,1.7.84,3.36,1.36,4.73-.57,1-.97,1.47-2.16,1.47-3.55,0-34.82.36-69.64-.23-104.45-.18-10.69-3.7-20.91-10.1-30.13-9.49-13.67-23.74-18.62-38.55-22.95-4.78-2.06-9.81-1.07-14.72-1.07-158.47-.08-316.94-.09-475.41-.06-3.61,0-7.31-.71-10.85.7-9.96,3.19-20.17,5.69-28.54,12.65-12.78,10.63-22.6,23.08-22.82,40.45-.44,34.55-.31,69.11-.4,103.67,0,2,0,4.03,1.96,5.31,1.57,1.26,3.23,1.04,4.93.32,1.79.35,3.57.7,5.36,1.05,2,1.36,4.2,1.5,6.49,1.07,1.22.25,2.43.5,3.65.75Zm284.4-26.44c-4.37-2.03-8.78-1.89-13.2-.21-1.78.81-3.48,1.97-5.35,2.39-24.24,5.39-39.09,23.72-39.09,47.52-.03,90.46-.24,180.93-.37,271.39-.01,8.58-1.83,16.96-3.89,25.11-4.34,17.16-13.14,31.69-25.8,44.56-10.72,10.89-23.21,18.08-36.79,23.79-6.83,2.87-13.97,5.78-21.74,5.54-9.48.04-18.96.08-28.44.12-8.26-.22-15.94-2.54-23.42-6-16.23-7.5-30.24-18.17-40.78-32.32-8.71-11.69-16.68-24.17-18.49-39.64-1.4-11.94-2.17-23.82-2.14-35.81.11-59.58.93-119.18-.06-178.74-.53-31.73-15.73-45.39-40.91-53.17-4.54-1.4-5.92-.23-6.19,4.54-.15,2.65-.05,5.32-.05,7.99.01,64.24.04,128.49.04,192.73,0,42.61-.13,85.21.05,127.82.03,7.17-.57,14.37,1.9,21.52,8.49,24.57,30.52,41.02,56.28,41.17,20.64.12,41.28-.06,61.91-.06,139.14.02,278.28.01,417.41.16,13.85.01,26.91-1.49,38.44-10.27,6.42-4.89,12.75-10.08,16.55-16.92,6.25-11.23,9.81-23.19,9.77-36.7-.35-106.18-.09-212.37,0-318.55.01-16.39-.39-16.7-15.85-11.07-.91.33-1.74.91-2.65,1.26-11.05,4.29-19.36,11.54-24.93,22.13-4.06,7.72-3.52,15.97-3.53,24.11-.14,64.58-.26,129.15-.04,193.73.07,18.54-4.09,36.16-12.98,51.91-16.88,29.92-42.99,47.11-77.54,50.7-7.74-.14-15.48-.29-23.23-.43-11.76.45-22.24-4.36-32.55-8.85-12.18-5.3-21.95-14.3-31.05-23.87-12.14-12.76-20.43-27.67-24.64-44.83-2.39-9.71-3.02-19.57-3.02-29.52.01-84.46-.01-168.93,0-253.39,0-7.26.01-14.48-2.2-21.54-5.01-16.02-12.83-29.4-30.51-34.13-3.75-1-7.29-2.75-10.93-4.15Z"/>
  <path class="cls-2" d="m1753.75,182.56c22.29,3.84,40.51,14.59,56.25,30.85,12.51,12.93,18.57,28.39,24.05,44.97,3.42,10.33,5.02,20.42,5.03,30.96.08,158.11-.04,316.23.24,474.34.04,22.78-4.94,43.87-16.26,63.48-9.13,15.8-21.67,28.03-38.02,36.52-15.36,7.98-31.23,13.64-48.71,13.81-2.86-1.26-5.89-.64-8.84-.64-159.58-.06-319.17-.09-478.75-.08-3.28,0-6.65-.69-9.85.65-4.19-.4-8.38-.79-12.55-1.19-3.44-2.02-7.22-2.28-11.1-2.02-5.56.81-10.08-2.27-14.7-4.34-15.99-7.18-30.17-17.21-42.1-29.99-9.21-9.87-15.45-21.86-20.74-34.26-.25-.58-.77-1.04-1.16-1.55,0,0,.15-.32.15-.32l-.39.07c-.28-2.64-.22-5.36-.9-7.89-3.05-11.35-4-22.89-4-34.6.04-157.13,0-314.27.12-471.4.01-15.15,1.55-29.76,7.83-44.36,11.88-27.62,31.56-46.19,58.24-58.61,6.52-3.03,13.89-2.8,20.1-6.37,2.23.43,4.46.74,6.32-1.1,3.87-.31,7.73-.62,11.57-.92,2.61.15,5.25.43,7.89.43,160.39-.01,320.78-.04,481.17-.1,4.3,0,8.6-.26,12.89-.4,3.21.31,6.42.61,9.6.92,2.19,1.05,4.41,2.09,6.62,3.14Zm-129.93,537.75c1.14.19,2.29.38,3.43.57,6.08,2.22,12.19,2.29,18.33.26,19.23-4.51,33.1-15.09,38.85-34.67,1.85-6.3,2.87-12.7,2.86-19.36-.11-60.5-.08-121-.1-181.5,0-10.6.65-21.08,3.5-31.41,5.16-18.68,16.62-33.07,30.38-46,13.53-12.72,29.77-19.38,48.03-21.54,2.14-1,4.28-2.01,6.41-3.01,1.64-.23,3.27-.51,4.92-.69,8.57-.94,8.63-.93,8.65-9.26.04-29.18-.05-58.35.11-87.53.07-12.08-4.53-22.52-11.32-31.9-9.79-13.52-25.09-18.39-39.99-23.62-4.07-2.12-8.45-1.07-12.66-1.07-160.47-.09-320.93-.12-481.4-.08-2.89,0-5.98-1.03-8.69.93-15.39,1.88-27.8,8.89-38.42,20.32-7.91,8.51-12.74,17.74-12.84,29.27-.28,32.17-.39,64.34-.67,96.51-.03,3.97.94,6.42,5.47,6.21,1.64-.08,3.29.33,4.94.51,1.89,1.76,4.14,1.53,6.41,1.17,8.19,2.77,16.65,4.94,24.52,8.42,38.82,17.15,57.38,48.23,60.47,89.58.4,5.29.15,10.64.14,15.96-.01,57.87,0,115.74-.08,173.61-.02,13.58,2.38,26.31,12.3,36.43,7.87,8.03,16.65,14.65,28.2,16.44,6.76,2.18,13.51,2.34,20.25-.06,9.07-2.22,17.16-6.49,23.91-12.81,11.2-10.49,16.2-23.76,16.19-39.03-.02-48.94,0-97.89.02-146.83,0-12.27,1.51-24.25,4.79-36.21,5.19-18.89,16.91-32.95,31.14-45.34,15.3-13.31,33.88-19.15,53.5-22.32,10.77.34,21.57.25,32.25,2.03,1.19.25,2.38.51,3.57.76.22,1.18.81.77,1.4.32,9.59,4.83,20.26,7.5,29.15,13.65,29.66,20.51,45.02,49.49,45.76,85.03,1.07,51.53.36,103.1.41,154.66,0,1.64-.52,3.45,0,4.91,6.13,17.49,16.77,30.75,35.04,36.67l.42.33.44-.31Zm-308.97,54.01l-.06-.45-.04.45c-13.33-1.48-24.35-8.05-35.32-15.23-19.59-12.83-32.38-31.04-41.12-52.05-4.68-11.25-5.1-23.78-5.1-36.05,0-54.93-.03-109.87-.06-164.8,0-7.32.43-14.69-.22-21.96-1.16-12.96-5.05-24.97-14.47-34.61-6.85-7.01-15.77-10.35-24.61-13.49-9.14-3.25-10.67-1.73-10.66,8.31.02,106.54.03,213.08.09,319.62,0,5.32.8,10.64.61,15.94-.14,3.84.95,7.22,2.72,10.27,12.93,22.37,30.71,35.92,58.21,35.78,98.55-.48,197.09-.17,295.64-.18,62.26,0,124.52-.02,186.77-.09,21.4-.02,39.06-7.91,51.55-25.7,7.62-10.86,10.18-23.45,10.19-36.41.09-106.87.03-213.74-.04-320.61,0-2.92.8-6.02-1.08-8.74-3.11-1.9-6.16-1.48-9.17.24-3.83,2.72-8.75,1.82-12.84,4.11-16.53,9.25-27.69,21.72-27.01,42.02.25,7.29.03,14.6.02,21.9-.05,54.42-.1,108.84-.15,163.26,0,7.3,0,14.61-1.35,21.83-1.18.53-1.45,1.18-.28,2.03-.09,7.07-3.45,13.27-5.59,19.73-5.49,16.5-15.03,30.11-28.62,41.39-13.99,11.61-29.89,18.06-47.24,21.92-14.15.18-28.31.46-42.34-1.95-7.36-.17-14.26-2.53-20.21-6.39-10.96-7.11-22.32-13.85-30.66-24.38-7.69-9.71-15.18-19.35-19.29-31.4-3.78-11.06-5.79-22.25-5.89-33.84-.11-13.62-.07-27.25-.08-40.88-.02-33.9.1-67.8-.13-101.69-.05-8.15.67-16.68-4.81-23.83l.16-.33-.4.08c-4.61-24.22-40.71-45.46-71.07-27.21-15.98,9.61-23.95,23.95-23.68,43.53.66,47.89-.11,95.79.43,143.68.21,18.92-3.94,36.74-12.33,53.08-16.33,31.83-43.03,49.92-78.73,54.33-9.63-.33-19.27-.66-28.9-.99-.94-.08-1.89-.15-2.83-.23Z"/>
  <path class="cls-2" d="m1752.45,928.84c14.66,4.9,29.04,10.14,41.84,19.36,19.76,14.24,32.25,33.18,39.06,56.24.27.92.76,1.77,1.13,2.65-.43,1-.26,1.78.88,2.15.45,1.89.91,3.79,1.36,5.66-.18.24-.56.59-.49.75.22.54.59,1.02.91,1.53,1.86,8.16,2.19,16.44,2.2,24.78.03,157.3.09,314.59.14,471.89,0,2.99-.24,6,0,8.98,1.22,14.47-2.11,28.35-6.94,41.62-8.3,22.83-22.07,41.54-42.81,55.31-15.78,10.48-33.04,14.84-51.21,17.3-2.18-1.14-4.54-.68-6.84-.68-163.71-.05-327.42-.09-491.14-.11-2.63,0-5.33-.57-7.85.7-7.29-2.12-14.92-.96-22.44-2.9-5.48-1.41-10.27-3.81-14.92-6.25-20.4-10.69-37.04-25.65-49.38-45.33-4.68-7.47-7.49-15.46-10.17-23.81-4.97-15.54-4.42-31.35-4.43-47.19-.03-157.1,0-314.21.05-471.31,0-5.65.43-11.3.65-16.94.24-.14.59-.23.71-.45.4-.71.2-1.21-.48-1.44,2.02-30.21,17.86-53.11,39.9-71.87,11.68-9.94,26.14-15.93,40.91-20.5,1.74,1.17,3.38,1.01,4.88-.47,1.21-.23,2.42-.46,3.6-.68,2.87.24,5.76.36,8.41-1.17,4.98-.19,9.97-.55,14.95-.55,159.1,0,318.2.02,477.31.08,5.65,0,11.3.35,16.92.53,4.25,1.75,8.78,1.86,13.29,2.12Zm-20.5,48.33c-2.52-1.32-5.23-.65-7.83-.65-160.77-.07-321.54-.1-482.31-.08-2.91,0-5.99-.85-8.72,1-25.22,3.56-52.18,28.2-49.97,60.79.47,6.96.04,13.98.04,20.97.05,92.22.11,184.44.15,276.66.02,61.59-.05,123.18.05,184.77.01,7.61-.76,15.71,1.5,22.72,6.1,19,28.3,45.74,58.11,42.76,1.98-.2,3.99-.01,5.99,0,158.47.08,316.94.15,475.41.21,3.66,0,7.34.03,10.98-.29,18.72-1.62,33.72-10.45,43.38-26.17,7.18-11.69,10.44-25.13,10.43-39.32-.2-160.47-.24-320.94-.23-481.4,0-5.03-.41-10-1.84-14.71-5.21-17.17-13.45-32.15-30.99-39.77-7.76-3.37-15.93-5.48-24.13-7.48Z"/>
  <path class="cls-2" d="m980.31,178.39c3.86.36,7.71.72,11.55,1.07,1.84,1.71,4.02,1.51,6.25,1.05,4.13,3.7,9.79,2.17,14.57,4.44,12.81,6.09,26.41,11.36,36.44,21.38,15.36,15.36,25.45,33.88,31.45,55.3,4.98,17.79,3.77,35.4,3.79,53.09.21,150.32.07,300.64.01,450.96,0,4.65-.32,9.3-.49,13.94-.24.15-.59.25-.71.48-.38.73-.16,1.25.54,1.48-4.32,24.98-13.12,47.77-31.8,65.83-15.16,14.66-33.85,22.76-53.58,28.84-3.06.94-6.57.41-9.85.55-6.28,0-12.59,0-18.9,0-149.32,0-298.64-.01-447.96.02-13.94,0-27.88.28-41.82.44-4.17-.58-8.35-1.17-12.5-1.75-.76-1.27-1.89-1.1-3.07-.77-1.01-.22-2.02-.44-3.01-.66-.72-1.55-1.94-1.51-3.31-1.02-13.04-.9-23.32-8.34-33.11-15.57-20.6-15.2-35.75-34.79-42.6-60.01-2.97-10.93-3.65-22.11-3.65-33.38.02-92.17.03-184.34.02-276.51,0-63.89.09-127.77-.16-191.66-.05-12.36.7-24.66,2.59-36.74,1.28-8.19,5.14-16.07,9.53-23.28,15.95-26.15,37.73-45.22,67.71-53.6,7.79-2.18,15.8-3.96,24-3.98,1.94.16,3.9.47,5.87.47,162.11.06,324.21.1,486.32.11,1.96,0,3.93-.35,5.89-.54Zm3.91,646.78c16.72-2.44,29.77-11.56,38.32-25.26,6.84-10.97,11.49-23.64,9.93-37.43-.37-3.28-.02-6.64-.01-9.97.03-148.97.06-297.95.09-446.92,0-7.65.11-15.3-.14-22.94-.29-9.26-3.29-17.9-8.01-25.68-9.89-16.3-25.33-23.93-43.75-26.35-3.75-2.03-7.8-.94-11.69-.94-159.14-.13-318.28-.18-477.43-.18-3.21,0-6.63-1.04-9.62,1.13-11.21,1.09-21.22,5.85-29.63,12.66-7.72,6.26-14.59,13.65-18.7,23.51-3.35,8.03-3.53,16.02-3.57,24.15-.21,37.61-.15,75.21-.15,112.82,0,118.48-.02,236.95.06,355.43,0,7.63-1.11,15.95,1.45,22.76,8.53,22.7,23.33,39.33,48.94,43.17,3.67,2.27,7.74,1.21,11.61,1.22,160.23.1,320.47.14,480.7.12,3.87,0,7.94.98,11.6-1.29Z"/>
  <path class="cls-3" d="m479.79,877.26c13.94-.15,27.88-.43,41.82-.44,149.32-.03,298.64-.02,447.96-.02,6.31,0,12.61,0,18.9,0-4.46,1.81-9.15,1.42-13.77,1.42-161.05.04-322.11.06-483.16.02-3.92,0-7.97.85-11.76-.98Z"/>
  <path class="cls-3" d="m1232.68,1636.97c2.52-1.27,5.23-.7,7.85-.7,163.71.02,327.42.06,491.14.11,2.3,0,4.67-.45,6.84.68-4.23,1.44-8.59.74-12.87.74-160.04.02-320.08-.02-480.12-.1-4.28,0-8.63.67-12.85-.73Z"/>
  <path class="cls-3" d="m479.46,1636.97c5.9-1.4,11.89-.54,17.83-.54,161-.1,322.01-.13,483.01-.15,1.63,0,3.26.38,4.86.59-3.85,1.65-7.89.88-11.82.88-159.69.06-319.37.08-479.06.04-4.94,0-9.96.7-14.83-.82Z"/>
  <path class="cls-3" d="m1737.53,178.5c-4.3.14-8.6.4-12.89.4-160.39.05-320.78.09-481.17.1-2.64,0-5.28-.28-7.89-.43,3.54-1.46,7.23-.73,10.81-.73,160.78-.09,321.56-.13,482.34-.12,2.93,0,5.97-.62,8.8.78Z"/>
  <path class="cls-3" d="m980.31,178.39c-1.96.19-3.93.54-5.89.54-162.11-.01-324.21-.05-486.32-.11-1.97,0-3.93-.31-5.87-.47,2.85-1.44,5.89-.77,8.82-.77,159.15,0,318.31.03,477.46.12,3.93,0,7.94-.75,11.8.69Z"/>
  <path class="cls-3" d="m1238.88,877.43c3.21-1.35,6.57-.65,9.85-.65,159.58,0,319.17.02,478.75.08,2.95,0,5.98-.62,8.84.64-3.2,1.44-6.57.72-9.84.72-159.59,0-319.18-.04-478.77-.13-2.94,0-5.98.66-8.84-.66Z"/>
  <path class="cls-3" d="m1752.45,928.84c-4.51-.26-9.04-.37-13.29-2.12,4.64-.47,9.1-.06,13.29,2.12Z"/>
  <path class="cls-3" d="m1215.23,874.22c3.87-.26,7.66,0,11.1,2.02-3.9.35-7.51-.77-11.1-2.02Z"/>
  <path class="cls-3" d="m1753.75,182.56c-2.21-1.05-4.43-2.1-6.62-3.14,2.65.16,6.19-1.63,6.62,3.14Z"/>
  <path class="cls-3" d="m482.73,926.67c-2.7,1.74-5.64,1.48-8.57.97,2.74-1.5,5.64-1.33,8.57-.97Z"/>
  <path class="cls-3" d="m1229.98,926.66c-2.65,1.53-5.53,1.41-8.41,1.17,2.65-1.63,5.5-1.58,8.41-1.17Z"/>
  <path class="cls-3" d="m1223.99,179.5c-1.86,1.84-4.09,1.54-6.32,1.1,1.92-1.53,4.09-1.46,6.32-1.1Z"/>
  <path class="cls-3" d="m998.11,180.51c-2.23.46-4.41.67-6.25-1.05,2.23-.4,4.4-.63,6.25,1.05Z"/>
  <path class="cls-3" d="m1217.97,928.52c-1.51,1.49-3.14,1.64-4.88.47,1.64-.16,3.26-.32,4.88-.47Z"/>
  <path class="cls-3" d="m1835.35,1009.24c-1.13-.38-1.31-1.15-.88-2.15,1.25.34,1.56,1.05.88,2.15Z"/>
  <path class="cls-3" d="m1837.13,1017.18c-.32-.5-.69-.99-.91-1.53-.07-.16.31-.51.49-.75.87.64,1.41,1.32.42,2.28Z"/>
  <path class="cls-3" d="m1132.28,1021.36c.68.22.88.72.48,1.44-.12.22-.47.31-.71.45-.14-.49-.32-.96-.38-1.45-.01-.12.39-.29.6-.44Z"/>
  <path class="cls-3" d="m1083.71,781.58c-.69-.23-.91-.74-.54-1.48.12-.23.47-.33.71-.48.15.5.34.98.41,1.48.02.13-.38.32-.58.48Z"/>
  <path class="cls-3" d="m464.22,874.74c1.18-.33,2.31-.51,3.07.77-1.26.66-2.3.47-3.07-.77Z"/>
  <path class="cls-3" d="m457.9,873.07c1.36-.49,2.59-.53,3.31,1.02-1.35.41-2.52.32-3.31-1.02Z"/>
  <path class="cls-3" d="m1136.29,803.83l.39-.07s-.15.33-.15.32c0,0-.24-.25-.24-.25Z"/>
  <path class="cls-1" d="m982.77,977.48c14.82,4.33,29.06,9.28,38.55,22.95,6.4,9.22,9.92,19.44,10.1,30.13.59,34.81.22,69.63.23,104.45,0,1.39-.47,2.58-1.45,3.54-1.62-.26-3.26-.48-4.75.58-23.59,2.67-44.57,11.84-62.1,27.56-19.49,17.48-29.31,39.92-29.41,66.29-.13,34.28-.15,68.56-.17,102.85-.02,33.28-.2,66.57.08,99.85.17,20.54-15.44,44.56-38.35,48.92-21.95,4.18-36.58,1.71-53.05-18.59-8.14-10.03-10.04-21.11-10.05-33.07-.06-78.55-.03-157.1-.03-235.65,0-8.65-.51-17.34.1-25.95,1.15-16.15-3.93-31.33-9.15-45.78-4.66-12.89-12.61-25.73-23.97-34.04-11.91-8.71-23.99-17.54-38.91-21.91-9.88-2.9-19.44-5.3-29.72-5.72-13.49-.55-25.51,4.68-37.99,8.3-21.05,6.1-36.12,20.26-48.19,37.43-8.86,12.61-14.88,26.9-16.13,42.76-.71,8.97-1.24,17.92-1.24,26.91,0,84.54-.08,169.08.01,253.62.01,12.87-3.41,24.37-10.94,34.77-3.95,5.46-8.86,9.59-14.93,12.49-3.52,1.69-6.86,3.76-10.25,5.65-6.91.2-13.84.41-20.77.61-10.02-1.48-18.54-5.8-25.76-13-10.19-10.16-16.12-21.5-16.02-36.64.43-65.51.74-131.04-.25-196.54-.43-27.96-10.62-53.05-31.56-72.77-11.56-10.89-24.9-18.84-39.95-23.86-1.06-1.63-2.66-1.52-4.3-1.3-1.22-.25-2.43-.5-3.63-.74-1.92-1.79-4.2-1.53-6.52-1.07-1.79-.35-3.57-.7-5.34-1.05-1.56-1.3-3.24-1.05-4.95-.32-1.97-1.28-1.97-3.31-1.96-5.31.1-34.56-.04-69.11.4-103.67.22-17.37,10.04-29.82,22.82-40.45,8.36-6.96,18.57-9.46,28.52-12.64,1.27.18,2.57.5,3.86.5,95.51.04,191.02.09,286.53.07,70.2,0,140.4-.09,210.6-.14Z"/>
  <path class="cls-1" d="m590.6,1535.96c7.77.24,14.9-2.67,21.74-5.54,13.58-5.7,26.07-12.89,36.79-23.79,12.66-12.87,21.46-27.4,25.8-44.56,2.06-8.15,3.88-16.53,3.89-25.11.13-90.46.34-180.93.37-271.39,0-23.8,14.86-42.14,39.09-47.52,1.87-.41,3.57-1.58,5.33-2.39,4.4.07,8.81.14,13.22.21,3.64,1.4,7.19,3.15,10.93,4.15,17.68,4.73,25.5,18.11,30.51,34.13,2.21,7.06,2.2,14.28,2.2,21.54,0,84.46.01,168.93,0,253.39,0,9.95.63,19.81,3.02,29.52,4.22,17.16,12.51,32.07,24.64,44.83,9.1,9.57,18.87,18.57,31.05,23.87,10.31,4.48,20.79,9.3,32.53,8.85,7.7,2.04,15.46,2.18,23.25.43,34.55-3.59,60.65-20.78,77.54-50.7,8.89-15.75,13.04-33.37,12.98-51.91-.23-64.58-.1-129.15.04-193.73.02-8.14-.53-16.39,3.53-24.11,5.58-10.59,13.88-17.84,24.93-22.13.91-.35,1.74-.93,2.65-1.26,15.46-5.63,15.87-5.32,15.85,11.07-.09,106.18-.35,212.37,0,318.55.04,13.52-3.52,25.47-9.77,36.7-3.81,6.84-10.13,12.04-16.55,16.92-11.53,8.77-24.59,10.28-38.44,10.27-139.14-.14-278.28-.14-417.41-.16-20.64,0-41.28.18-61.91.06-25.76-.15-47.79-16.6-56.28-41.17-2.47-7.16-1.87-14.36-1.9-21.52-.18-42.61-.05-85.21-.05-127.82,0-64.24-.03-128.49-.04-192.73,0-2.66-.1-5.33.05-7.99.27-4.77,1.66-5.94,6.19-4.54,25.17,7.77,40.38,21.44,40.91,53.17.99,59.56.16,119.16.06,178.74-.02,11.99.75,23.87,2.14,35.81,1.81,15.47,9.78,27.95,18.49,39.64,10.54,14.14,24.56,24.82,40.78,32.32,7.48,3.46,15.16,5.78,23.4,5.99,9.48,2.35,18.97,2.37,28.46-.12Z"/>
  <path class="cls-3" d="m982.77,977.48c-70.2.05-140.4.13-210.6.14-95.51.01-191.02-.03-286.53-.07-1.29,0-2.59-.32-3.86-.5,3.56-1.42,7.25-.71,10.87-.71,158.47-.03,316.94-.02,475.41.06,4.9,0,9.94-.99,14.72,1.07Z"/>
  <path class="cls-3" d="m590.6,1535.96c-9.48,2.49-18.98,2.47-28.46.12,9.5-.04,18.98-.08,28.46-.12Z"/>
  <path class="cls-3" d="m570.28,1486.42c6.93-.2,13.86-.41,20.77-.61-6.88,2.26-13.78,2.99-20.77.61Z"/>
  <path class="cls-3" d="m894.97,1536.58c-7.79,1.75-15.55,1.61-23.25-.43,7.76.14,15.51.29,23.25.43Z"/>
  <path class="cls-3" d="m736.83,1115.87c-4.41-.07-8.83-.14-13.22-.21,4.45-1.67,8.85-1.82,13.22.21Z"/>
  <path class="cls-3" d="m442.29,1140.49c2.32-.46,4.6-.72,6.52,1.07-2.32.43-4.52.29-6.52-1.07Z"/>
  <path class="cls-3" d="m432,1139.12c1.71-.72,3.4-.97,4.95.32-1.72.71-3.38.93-4.95-.32Z"/>
  <path class="cls-3" d="m1025.44,1139.12c1.48-1.05,3.12-.84,4.75-.58-1.39,1.94-3.05,1.41-4.75.58Z"/>
  <path class="cls-3" d="m452.43,1142.31c1.64-.22,3.25-.33,4.3,1.3-1.66.27-3.16.06-4.3-1.3Z"/>
  <path class="cls-1" d="m1769.1,386.67c-18.26,2.17-34.5,8.82-48.03,21.54-13.76,12.94-25.23,27.33-30.38,46-2.85,10.32-3.5,20.8-3.5,31.41.03,60.5-.01,121,.1,181.5.01,6.65-1.01,13.06-2.86,19.36-5.75,19.58-19.61,30.15-38.82,34.66-6.1-.09-12.23-.17-18.36-.25-1.14-.19-2.29-.38-3.42-.58-.27-.85-.57-.69-.87-.02-18.27-5.92-28.91-19.18-35.04-36.67-.51-1.46,0-3.26,0-4.91-.04-51.55.67-103.12-.41-154.66-.74-35.53-16.1-64.51-45.76-85.03-8.89-6.15-19.56-8.82-29.14-13.64.01.01-.57-.57-.57-.57l-.84.23c-1.19-.25-2.38-.51-3.55-.75-10.55-3.75-21.34-3.97-32.28-2.04-19.61,3.17-38.2,9.01-53.5,22.32-14.23,12.38-25.95,26.45-31.14,45.34-3.28,11.95-4.78,23.93-4.79,36.21-.03,48.94-.04,97.89-.02,146.83,0,15.28-4.99,28.55-16.19,39.03-6.75,6.32-14.84,10.59-23.88,12.81-6.74.02-13.51.04-20.27.06-11.55-1.79-20.34-8.4-28.2-16.44-9.92-10.12-12.31-22.85-12.3-36.43.07-57.87.07-115.74.08-173.61,0-5.32.25-10.67-.14-15.96-3.09-41.35-21.66-72.43-60.47-89.58-7.88-3.48-16.33-5.65-24.5-8.41-1.9-1.64-4.1-1.8-6.44-1.18-1.65-.18-3.3-.59-4.94-.51-4.53.21-5.5-2.24-5.47-6.21.28-32.17.39-64.34.67-96.51.1-11.53,4.94-20.76,12.84-29.27,10.62-11.42,23.02-18.43,38.4-20.31,3.29.15,6.6.43,9.9.43,152.33.05,304.66.09,456.99.09,11.96,0,23.91-.2,35.87-.31,14.9,5.23,30.2,10.1,39.99,23.62,6.79,9.37,11.39,19.81,11.32,31.9-.16,29.18-.06,58.35-.11,87.53-.01,8.33-.07,8.32-8.65,9.26-1.65.18-3.28.46-4.9.69-2.57.06-5.79-1.22-6.44,3.01Z"/>
  <path class="cls-1" d="m1346.58,775.53c35.7-4.41,62.39-22.5,78.73-54.33,8.38-16.34,12.54-34.16,12.33-53.08-.54-47.89.24-95.79-.43-143.68-.27-19.58,7.7-33.92,23.68-43.53,30.37-18.26,66.46,2.98,71.07,27.2,0,0,.25.26.25.26,5.48,7.15,4.76,15.68,4.81,23.83.23,33.9.11,67.79.13,101.69,0,13.63-.03,27.25.08,40.88.1,11.59,2.1,22.78,5.89,33.84,4.12,12.04,11.6,21.69,19.29,31.4,8.34,10.53,19.7,17.27,30.66,24.38,5.95,3.86,12.85,6.22,20.18,6.39,13.94,4.27,28.08,4.65,42.36,1.95,17.34-3.86,33.25-10.31,47.24-21.92,13.59-11.28,23.14-24.88,28.62-41.39,2.15-6.46,5.5-12.66,5.59-19.72.22-.16.63-.34.62-.49-.03-.52-.21-1.03-.34-1.55,1.34-7.22,1.34-14.52,1.35-21.83.05-54.42.1-108.84.15-163.26,0-7.3.22-14.61-.02-21.9-.68-20.3,10.48-32.77,27.01-42.02,4.09-2.29,9.01-1.39,12.82-4.1,3.05-.08,6.12-.16,9.19-.24,1.87,2.72,1.08,5.82,1.08,8.74.06,106.87.13,213.74.04,320.61-.01,12.96-2.57,25.56-10.19,36.41-12.49,17.79-30.15,25.67-51.55,25.7-62.26.07-124.52.09-186.77.09-98.55.01-197.1-.3-295.64.18-27.5.13-45.28-13.42-58.21-35.78-1.77-3.06-2.86-6.44-2.72-10.27.19-5.3-.61-10.63-.61-15.94-.06-106.54-.07-213.08-.09-319.62,0-10.04,1.52-11.55,10.66-8.31,8.85,3.14,17.76,6.49,24.61,13.49,9.42,9.64,13.31,21.65,14.47,34.61.65,7.27.22,14.64.22,21.96.03,54.93.05,109.87.06,164.8,0,12.27.43,24.8,5.1,36.05,8.74,21.01,21.53,39.23,41.12,52.05,10.97,7.18,21.99,13.75,35.32,15.23,0,0,.1,0,.1,0,.94.08,1.89.15,2.81.23,9.55,2.5,19.2,2.97,28.92.99Z"/>
  <path class="cls-3" d="m1737.88,230.66c-11.96.11-23.91.31-35.87.31-152.33,0-304.66-.04-456.99-.09-3.31,0-6.61-.28-9.9-.43,2.73-1.96,5.82-.93,8.71-.93,160.47-.03,320.93,0,481.4.08,4.21,0,8.6-1.06,12.66,1.07Z"/>
  <path class="cls-3" d="m1655.61,772.72c-14.28,2.69-28.42,2.32-42.36-1.95,14.05,2.42,28.21,2.13,42.36,1.95Z"/>
  <path class="cls-3" d="m1475.39,422.27c10.93-1.93,21.73-1.71,32.28,2.04-10.71-1.78-21.5-1.7-32.28-2.04Z"/>
  <path class="cls-3" d="m1346.58,775.53c-9.73,1.98-19.37,1.51-28.92-.99,9.66.33,19.29.66,28.92.99Z"/>
  <path class="cls-3" d="m1325.59,724.87c6.77-.02,13.53-.04,20.27-.06-6.77,2.4-13.52,2.24-20.27.06Z"/>
  <path class="cls-3" d="m1627.25,720.88c6.13.08,12.26.17,18.36.25-6.17,2.03-12.28,1.97-18.36-.25Z"/>
  <path class="cls-3" d="m1769.1,386.67c.65-4.23,3.87-2.95,6.44-3.01-2.16,1.01-4.3,2.01-6.44,3.01Z"/>
  <path class="cls-3" d="m1787.85,434.3c-3.07.08-6.14.16-9.19.24,3.03-1.72,6.08-2.14,9.19-.24Z"/>
  <path class="cls-3" d="m1193.61,383.26c2.34-.63,4.54-.47,6.44,1.18-2.3.35-4.55.58-6.44-1.18Z"/>
  <path class="cls-3" d="m1737.35,687.65c.12.52.31,1.03.34,1.55,0,.15-.4.33-.62.49-1.16-.86-.89-1.51.28-2.04Z"/>
  <path class="cls-3" d="m1511.21,425.06l.84-.23s.58.58.57.57c-.61.43-1.19.85-1.41-.33Z"/>
  <path class="cls-3" d="m1622.96,720.29c.31-.67.6-.83.87.02-.01,0-.45.31-.45.31l-.42-.33Z"/>
  <path class="cls-3" d="m1314.85,774.31s-.1,0-.1,0c0,0,.04-.45.04-.45l.06.45Z"/>
  <path class="cls-3" d="m1532.2,508.36s-.26-.27-.25-.26c0,0,.41-.07.41-.07l-.16.33Z"/>
  <path class="cls-1" d="m1731.95,977.17c8.2,2,16.36,4.11,24.13,7.48,17.54,7.62,25.78,22.6,30.99,39.77,1.43,4.71,1.84,9.68,1.84,14.71,0,160.47.03,320.94.23,481.4.02,14.19-3.24,27.63-10.43,39.32-9.66,15.72-24.66,24.55-43.38,26.17-3.64.32-7.32.29-10.98.29-158.47-.06-316.94-.14-475.41-.21-2,0-4.01-.19-5.99,0-29.8,2.99-52.01-23.76-58.11-42.76-2.25-7.02-1.48-15.12-1.5-22.72-.1-61.59-.03-123.18-.05-184.77-.03-92.22-.1-184.44-.15-276.66,0-6.99.43-14.01-.04-20.97-2.21-32.59,24.75-57.23,49.95-60.79.63.14,1.28.38,1.92.38,163.03,0,326.06,0,489.09-.04,2.62,0,5.32.59,7.87-.61Zm-499.81,303.7c0,54.94-.17,109.89.1,164.83.09,18.35,3.29,36.03,14.85,51.31,19.3,25.51,44,40.09,76.72,40.05,107.89-.11,215.77.03,323.66-.04,9.91,0,19.61-1.53,29.27-4.42,36.4-10.9,62.81-48.04,61.97-85.75-.81-36.28-.5-72.58-.61-108.87-.07-22.98,0-45.95-.04-68.93,0-4.65.76-9.84-1.97-13.64-4.6-6.41-8.36-13.38-14.09-19.08-67.07-66.65-134.03-133.42-200.91-200.26-6.53-6.53-13.76-9.63-23.1-9.6-56.94.22-113.88.2-170.82.06-47.9-.12-96.56,37.61-95.27,95.53,1.18,52.92.25,105.88.26,158.83Z"/>
  <path class="cls-3" d="m1731.95,977.17c-2.54,1.19-5.24.61-7.87.61-163.03.04-326.06.05-489.09.04-.65,0-1.29-.25-1.92-.38,2.75-1.85,5.83-1,8.74-1,160.77-.02,321.54.01,482.31.08,2.6,0,5.32-.67,7.83.65Z"/>
  <path class="cls-1" d="m480.33,825.12c-25.61-3.83-40.41-20.47-48.94-43.17-2.56-6.81-1.44-15.13-1.45-22.76-.08-118.48-.06-236.95-.06-355.43,0-37.61-.06-75.21.15-112.82.05-8.13.22-16.13,3.57-24.15,4.11-9.86,10.98-17.25,18.7-23.51,8.41-6.82,18.42-11.57,29.61-12.66.97.1,1.95.29,2.93.29,162.97.06,325.93.11,488.9.14,2.31,0,4.61-.29,6.92-.44,18.42,2.42,33.86,10.05,43.75,26.35,4.72,7.77,7.71,16.42,8.01,25.68.24,7.64.14,15.29.14,22.94-.02,148.97-.06,297.95-.09,446.92,0,3.33-.36,6.69.01,9.97,1.56,13.8-3.09,26.46-9.93,37.43-8.54,13.7-21.6,22.82-38.29,25.26-13.26.02-26.56.08-39.85.07-154.69-.03-309.39-.07-464.08-.11Zm66.92-50.84c.99.16,1.98.32,2.97.48,3.44,1.75,7.08,1.94,10.82,1.38,5.99.16,11.97.44,17.96.45,94.89.03,189.78.03,284.67.01,11.32,0,22.63-.18,33.95-.27,5,.57,9.9.25,14.62-1.64,15.1-2.79,28.81-8.97,40.49-18.76,20.77-17.4,31.67-40.02,31.82-67.14.33-57.92.16-115.84.19-173.76.03-48.93-.16-97.87.16-146.8.13-19.86-6.19-37.73-16.79-53.73-16.01-24.16-40.84-34.48-68.5-34.67-111.84-.76-223.69-.35-335.54-.32-13.61,0-26.76,2.18-39.32,8-18.5,8.57-30.9,23.03-40.04,40.57-6.26,12-6.87,25.37-6.99,38.57-.93,107.18-.54,214.37-.07,321.55.03,7.29-.24,14.87,1.55,21.81,4.72,18.33,14.94,33.71,29.57,45.58,10.83,8.79,22.23,17.26,36.98,18.63l.73.4.75-.36Z"/>
  <path class="cls-3" d="m480.33,825.12c154.69.04,309.39.08,464.08.11,13.29,0,26.58-.05,39.85-.07-3.68,2.27-7.75,1.29-11.62,1.29-160.23.02-320.47-.02-480.7-.12-3.87,0-7.94,1.06-11.61-1.22Z"/>
  <path class="cls-3" d="m980.66,230.61c-2.31.15-4.61.44-6.92.44-162.97-.03-325.93-.08-488.9-.14-.98,0-1.97-.19-2.93-.29,3.01-2.17,6.44-1.13,9.64-1.13,159.14,0,318.28.05,477.43.18,3.88,0,7.94-1.09,11.69.94Z"/>
  <path class="cls-3" d="m1232.13,1280.86c0-52.94.93-105.91-.25-158.83-1.29-57.92,47.37-95.65,95.27-95.53,56.94.14,113.88.16,170.82-.06,9.34-.04,16.57,3.07,23.1,9.6,66.88,66.85,133.84,133.61,200.91,200.26,5.74,5.7,9.49,12.67,14.09,19.08,2.73,3.8,1.96,9,1.97,13.64.04,22.98-.03,45.95.04,68.93.11,36.29-.2,72.6.61,108.87.84,37.7-25.56,74.84-61.97,85.75-9.66,2.89-19.36,4.42-29.27,4.42-107.89.08-215.77-.07-323.66.04-32.72.03-57.42-14.54-76.72-40.05-11.55-15.28-14.76-32.96-14.85-51.31-.27-54.94-.1-109.88-.1-164.83Zm51.19.15h.04c0,54.91.65,109.84-.35,164.73-.36,19.59,21.26,42.93,40.15,40.51,2.61-.34,5.32.05,7.98.05,102.84,0,205.68,0,308.51-.02,3.66,0,7.35.17,10.98-.18,12.93-1.26,23.68-6.68,30.18-18.22,4.4-7.81,6.12-16.42,6.08-25.68-.23-53.25-.13-106.5.21-159.75.04-6.92-2.06-11.73-6.93-16.54-61.35-60.54-122.55-121.23-183.66-182.02-4.08-4.06-8.22-5.88-13.99-5.86-51.25.15-102.5.21-153.76-.05-16.8-.09-29.47,7.27-39.2,20.11-3.45,4.55-6.29,9.81-5.91,16.19.31,5.29-.32,10.64-.32,15.96-.03,50.25-.02,100.51-.02,150.76Z"/>
  <path class="cls-2" d="m545.77,774.24c-14.75-1.38-26.16-9.85-36.98-18.63-14.62-11.87-24.85-27.25-29.57-45.58-1.79-6.95-1.52-14.52-1.55-21.81-.46-107.18-.86-214.37.07-321.55.11-13.2.73-26.57,6.99-38.57,9.14-17.53,21.54-32,40.04-40.57,12.56-5.82,25.7-7.99,39.32-8,111.85-.03,223.7-.44,335.54.32,27.65.19,52.49,10.51,68.5,34.67,10.6,16,16.92,33.87,16.79,53.73-.32,48.93-.14,97.86-.16,146.8-.03,57.92.14,115.84-.19,173.76-.15,27.12-11.06,49.74-31.82,67.14-11.68,9.79-25.39,15.97-40.47,18.76-4.92.05-9.9-.17-14.64,1.64-11.32.1-22.63.27-33.95.27-94.89.02-189.78.02-284.67-.01-5.99,0-11.97-.29-17.94-.45-3.4-2.01-7.17-1.31-10.84-1.38-.99-.16-1.98-.32-2.96-.48-.46-1-.96-1.02-1.49-.04Zm356.42-49c19.28-4.61,32-19.67,31.97-41.36-.07-39.29.06-78.58.06-117.87,0-64.93-.02-129.86-.11-194.79-.02-13.87-4.78-25.81-16.58-33.73-6.85-4.6-14.74-6.47-23.3-6.46-109.21.12-218.43.39-327.64-.28-22.52-.14-38.73,17.15-38.17,38.74,1.08,42.26.37,84.57.4,126.85.04,65.26.08,130.52.16,195.78,0,2.22-.58,4.31.71,6.7,6.91,12.75,14.97,23.96,30.62,26.55,3.4,1.87,7.11,1.07,10.67,1.07,107.21.03,214.42.01,321.63-.06,3.2,0,6.61.93,9.6-1.14Z"/>
  <path class="cls-3" d="m897.62,776.32c4.75-1.81,9.72-1.59,14.64-1.64-4.75,1.88-9.64,2.21-14.64,1.64Z"/>
  <path class="cls-3" d="m550.22,774.75c3.67.07,7.44-.62,10.84,1.38-3.76.55-7.4.37-10.84-1.38Z"/>
  <path class="cls-3" d="m545.77,774.24c.53-.98,1.03-.96,1.49.04-.01,0-.76.36-.76.36l-.73-.4Z"/>
  <path class="cls-1" d="m1283.32,1281.01c0-50.25-.01-100.51.02-150.76,0-5.32.64-10.66.32-15.96-.38-6.38,2.47-11.64,5.91-16.19,9.73-12.84,22.4-20.2,39.2-20.11,51.25.26,102.5.2,153.76.05,5.77-.02,9.91,1.8,13.99,5.86,61.11,60.79,122.31,121.48,183.66,182.02,4.87,4.81,6.97,9.61,6.93,16.54-.34,53.25-.44,106.5-.21,159.75.04,9.26-1.68,17.87-6.08,25.68-6.5,11.55-17.25,16.96-30.18,18.22-3.63.35-7.32.18-10.98.18-102.84.01-205.68.02-308.51.02-2.66,0-5.37-.39-7.98-.05-18.9,2.42-40.51-20.92-40.15-40.51,1-54.9.35-109.82.35-164.73h-.04Zm199.81,160.88v.02c25.29,0,50.59.21,75.87-.07,17.56-.2,34.21-3.57,48.65-14.82,20.48-15.96,29.95-37.36,31.11-62.57.78-16.93-.09-33.94.12-50.91.14-11.55-3.74-20.92-12.05-29.13-44.03-43.51-87.81-87.25-131.68-130.92-5.66-5.63-11.3-11.29-16.98-16.91-5.69-5.63-12.28-8.57-20.58-8.36-15.3.38-30.63-.27-45.92.23-33.05,1.08-58.35,15.68-74.92,44.57-5.04,8.79-10.21,18.11-10.29,28.24-.44,55.23-.27,110.47-.09,165.71.03,9.27,1.69,18.49,5.76,26.92,15.55,32.22,41.32,48.17,77.13,48.02,24.63-.1,49.25-.02,73.88-.02Z"/>
  <path class="cls-1" d="m560.31,725.36c-15.65-2.58-23.71-13.8-30.62-26.55-1.29-2.39-.71-4.48-.71-6.7-.08-65.26-.11-130.52-.16-195.78-.03-42.29.68-84.59-.4-126.85-.55-21.6,15.66-38.88,38.17-38.74,109.21.68,218.43.4,327.64.28,8.55,0,16.45,1.86,23.3,6.46,11.8,7.92,16.56,19.86,16.58,33.73.1,64.93.11,129.86.11,194.79,0,39.29-.13,78.58-.06,117.87.04,21.7-12.69,36.76-31.94,41.36-7.61-.03-15.24-.09-22.88-.08-106.35.07-212.69.14-319.04.21Zm91.83-347.05c-17.72,1.05-34.23,7.14-47.45,18.07-18.88,15.61-29.39,36.35-29.2,61.9.34,46.5-.03,93,.13,139.5.02,7.18.3,14.39,2.1,21.53,4.26,16.86,13.59,30.56,26.43,41.67,11.33,9.81,23.75,18.26,39.84,18.05,4.68,2.33,9.73,1.5,14.62,1.51,48.15.08,96.31.05,144.46,0,4.59,0,9.27.5,13.69-1.37,3.27-.3,6.35-1.77,9.44-2.25,29.89-4.7,55.74-37.57,59.78-67.34,1.04-1.14,1.29-2.36.39-3.71.17-2.99.49-5.97.5-8.96.07-46.26.07-92.52.17-138.78.01-6.68-1.04-13.16-2.98-19.47-5.51-17.96-13.63-34.3-30.08-44.89-7.9-5.08-16.58-8.58-25.64-11.07-.12-2.63-2.05-3.2-4.1-3.39-6.61-.6-13.22-1.54-19.84-1.57-48.16-.18-96.33-.17-144.49-.15-2.57,0-5.3-.8-7.76.71Z"/>
  <path class="cls-3" d="m560.31,725.36c106.35-.07,212.69-.15,319.04-.21,7.64,0,15.27.05,22.88.08-3.02,2.07-6.42,1.14-9.63,1.14-107.21.08-214.42.1-321.63.06-3.56,0-7.27.8-10.67-1.07Z"/>
  <path class="cls-3" d="m1483.13,1441.9c-24.63,0-49.25-.08-73.88.02-35.81.15-61.58-15.81-77.13-48.02-4.07-8.43-5.73-17.65-5.76-26.92-.18-55.24-.35-110.47.09-165.71.08-10.14,5.25-19.45,10.29-28.24,16.57-28.89,41.87-43.49,74.92-44.57,15.29-.5,30.62.15,45.92-.23,8.3-.21,14.88,2.73,20.58,8.36,5.68,5.61,11.32,11.27,16.98,16.91,43.87,43.67,87.65,87.41,131.68,130.92,8.31,8.21,12.19,17.58,12.05,29.13-.21,16.97.67,33.97-.12,50.91-1.16,25.21-10.63,46.61-31.11,62.57-14.43,11.25-31.09,14.62-48.65,14.82-25.29.28-50.58.07-75.87.07v-.02Zm-2.45-50.53v.04c25.95,0,51.9.23,77.85-.08,17.79-.21,28.26-11.1,28.52-28.93.19-13.31-.1-26.62.25-39.92.13-5.11-1.56-8.7-5.18-12.22-23.62-22.95-47.09-46.06-70.55-69.18-18.48-18.21-36.89-36.51-55.31-54.78-3.33-3.3-6.49-6.33-11.89-6.2-12.3.3-24.62.03-36.93.08-9.75.04-17.24,4.6-22.83,12.26-4.82,6.6-7.23,13.99-7.21,22.36.14,48.91.01,97.81.09,146.72.03,19.11,11,29.81,30.32,29.83,24.29.03,48.57,0,72.86,0Z"/>
  <path class="cls-2" d="m643.98,679.03c-16.09.21-28.5-8.24-39.84-18.05-12.84-11.12-22.17-24.82-26.43-41.67-1.8-7.13-2.08-14.35-2.1-21.53-.15-46.5.21-93-.13-139.5-.19-25.55,10.33-46.29,29.2-61.9,13.22-10.93,29.73-17.02,47.42-18.07,2.93.16,5.89.44,8.85.44,46.75.05,93.51.1,140.26.06,9.24,0,18.42.09,27.1,3.89,9.07,2.49,17.75,5.99,25.64,11.07,16.45,10.59,24.57,26.93,30.08,44.89,1.94,6.31,2.99,12.8,2.98,19.47-.1,46.26-.1,92.52-.17,138.78,0,2.99-.33,5.97-.5,8.95-1.51,1.08-1.65,2.33-.39,3.72-4.03,29.76-29.89,62.63-59.78,67.34-3.09.49-6.17,1.96-9.42,2.25-8.9-.02-17.83-.06-26.75-.07-48.68-.03-97.36-.05-146.04-.07Zm85.31-49.98c25.29,0,50.58.04,75.86-.03,7.44-.02,13.77-2.26,19.66-7.5,8.45-7.52,10.93-17.06,11.01-27.31.32-43.92.22-87.84.26-131.76,0-1.66.18-3.39-.19-4.98-2.12-9.17-5.12-18.32-13.79-23.07-6.17-3.38-12.94-5.87-20.6-5.83-46.58.25-93.16.08-139.75.06-1.66,0-3.34-.06-4.99.13-17.97,2.02-30.92,12.64-30.82,32.64.24,45.25-.02,90.5.08,135.76.04,17.87,13.57,31.67,31.4,31.85,23.95.24,47.91.06,71.87.05Z"/>
  <path class="cls-3" d="m828.32,382.7c-8.67-3.8-17.85-3.89-27.1-3.89-46.75.04-93.51,0-140.26-.06-2.96,0-5.92-.29-8.85-.44,2.49-1.51,5.21-.71,7.79-.71,48.16-.02,96.33-.02,144.49.15,6.62.02,13.23.97,19.84,1.57,2.05.19,3.98.75,4.1,3.39Z"/>
  <path class="cls-3" d="m643.98,679.03c48.68.02,97.36.04,146.04.07,8.93,0,17.85.04,26.75.07-4.44,1.88-9.12,1.37-13.71,1.38-48.15.05-96.31.08-144.46,0-4.89,0-9.94.82-14.62-1.51Z"/>
  <path class="cls-3" d="m885.96,609.58c-1.26-1.39-1.11-2.64.39-3.72.9,1.36.65,2.58-.39,3.72Z"/>
  <path class="cls-1" d="m1480.68,1391.37c-24.29,0-48.57.03-72.86,0-19.32-.03-30.29-10.72-30.32-29.83-.07-48.91.05-97.81-.09-146.72-.02-8.38,2.38-15.76,7.21-22.36,5.6-7.66,13.08-12.22,22.83-12.26,12.31-.05,24.62.23,36.93-.08,5.39-.13,8.56,2.9,11.89,6.2,18.42,18.28,36.83,36.57,55.31,54.78,23.46,23.12,46.93,46.23,70.55,69.18,3.62,3.52,5.31,7.1,5.18,12.22-.34,13.3-.05,26.62-.25,39.92-.26,17.83-10.73,28.72-28.52,28.93-25.95.31-51.9.08-77.85.08v-.04Z"/>
  <path class="cls-1" d="m729.29,629.07c-23.96,0-47.92.18-71.87-.06-17.83-.18-31.36-13.97-31.4-31.85-.1-45.25.16-90.5-.08-135.76-.11-20,12.84-30.62,30.82-32.64,1.65-.19,3.32-.13,4.99-.13,46.58.02,93.17.19,139.75-.06,7.66-.04,14.43,2.45,20.6,5.83,8.67,4.75,11.67,13.9,13.79,23.07.37,1.59.19,3.31.19,4.98-.04,43.92.07,87.84-.26,131.76-.08,10.25-2.56,19.79-11.01,27.31-5.89,5.24-12.22,7.48-19.66,7.5-25.29.07-50.58.03-75.86.04Z"/>
</svg>