<?xml version="1.0" encoding="UTF-8"?>
<svg id="Layer_1" data-name="Layer 1" xmlns="http://www.w3.org/2000/svg" viewBox="0 0 1334.9 1056.61">
  <defs>
    <style>
      .cls-1 {
        fill: #202f3e;
      }

      .cls-2 {
        fill: #7040fa;
      }
    </style>
  </defs>
  <path class="cls-1" d="m888.94,586.39c-.66.02-1.32.04-1.99.06-1.49-.07-2.98-.2-4.47-.2-42.01-.03-84.02-.08-126.04-.07-17.76,0-35.52.13-53.28.21-1,0-2,0-3,0-3.67,0-7.33,0-11,0-1.66,0-3.33,0-4.99,0-32.63,0-65.25-.02-97.88-.02-2,0-4,0-6,0-1.97-.06-3.94-.11-5.91-.17-.72,0-1.44,0-2.17,0-16.62.07-33.23.14-49.85.21-4.33-.01-8.66-.02-12.99-.04-9.32,0-18.65,0-27.97,0-1.33,0-2.66,0-3.99-.01-18.62-.07-37.25-.14-55.87-.21-.71,0-1.42,0-2.13,0-2.14-.01-4.3-.22-6.41,0-7.7.8-12.4-3.78-16.72-9.1-1.96-3.72-2.3-7.69-2.28-11.84.05-8.38-.19-16.77-.31-25.15,0-.31,0-.62,0-.94.51-1.67.53-3.34,0-5.01.31-.69,1.3-1.41-.06-2.05.31-1.31.63-2.63.94-3.94,3.1-5.89,7.39-10.41,14.06-12.18,103.65-.04,207.31-.09,310.96-.11,57.73-.01,115.46,0,173.19.02,2.05,1.03,4.09,2.07,6.13,3.1,1.62,1.41,3.24,2.81,4.86,4.22-.16,1.27.81,2.02,1.35,2.96-.17.65.17.96.73,1.13-.04.32.04.6.23.85.35,1.67.7,3.33,1.04,5,0,.67,0,1.33,0,2,0,7.66.02,15.31.02,22.97,0,1.33,0,2.67,0,4-.67,4.74.04,9.7-2.67,14.11-3.62,5.88-8.82,9.16-15.56,10.2Z"/>
  <path class="cls-1" d="m658.21,446.83c-15.13-.1-30.27-.27-45.4-.27-65.74-.01-131.49-.21-197.23.25-13.27.09-22.63-10.07-21.61-21.89.81-9.41.04-18.96,0-28.44-.06-12.57,8.2-20.89,20.84-20.89,123.33.01,246.66.04,369.99.07,12.97,0,21.05,8.09,21.03,20.94-.02,9.15-.29,18.32.07,27.46.47,11.85-6.08,21.43-19.82,22.71-9.33-.36-18.67-.5-28,.1-4.98-.56-9.96-.55-14.95-.03-5.94-.09-11.88-.17-17.83-.26-2.11-.56-4.23-.56-6.34,0-8.59.09-17.18.17-25.78.26-2.01-.49-4.02-.49-6.03.02-9.65-.5-19.31-.47-28.96-.04Z"/>
  <path class="cls-1" d="m802.98,715.88c-1.86,2.16-3.44,4.59-5.94,6.13-.67-.12-.98.24-1.12.84-2.71.32-4.81,2.61-7.69,2.37-.45.02-.91.05-1.36.07-3.87,0-7.73,0-11.6,0-.8,0-1.59,0-2.39,0-5.92.1-11.84.19-17.76.29-4.68-.55-9.35-.51-14.03.02-9.64-.66-19.28-.53-28.93-.07-9.34-.6-18.67-.37-28.01.06-15.7-.13-31.4-.31-47.09-.37-7.59-.02-15.19.2-22.78.32-1.35-.47-2.69-.47-4.03.01-4.59-.08-9.18-.17-13.76-.25-1.13-.48-2.27-.48-3.4,0-11.58.05-23.16-.47-34.74.31-5.34-.54-10.68-.57-16.03.02-1.92-.1-3.84-.21-5.76-.31-1.47-.55-2.94-.55-4.41-.02-3.25.09-6.51.18-9.76.27-5.34-.62-10.68-.56-16.02-.05-2.98-.53-5.97-.53-8.96-.03-2.34-.48-4.68-.48-7.02,0-12.97-.51-25.95-.55-38.92.06-4.67-.52-9.34-.56-14.02.04-1.32-.49-2.64-.49-3.96.01-5.34-.57-10.68-.65-16.03,0-2.65-.11-5.31-.22-7.96-.34l-4-.27c-.47-.45-.93-.9-1.4-1.35-4.5-2.88-7.89-6.69-9.72-11.77-.6-14.97-.7-29.95.15-44.91.46-.18.94-.34.74-1,.08-.34.17-.69.25-1.03,5.89-9.24,14.78-11.15,24.85-10.19.74,0,1.48,0,2.22.01,14.25,0,28.49,0,42.74,0,1.4.42,2.8.42,4.2,0l1.9-.18c.66,0,1.33,0,1.99,0,22.64,0,45.28-.01,67.91-.02,1.64.06,3.27.11,4.91.17,1.39.44,2.78.45,4.17.01,1.31-.06,2.61-.12,3.92-.17,21.55.08,43.09.2,64.64.21,16.41,0,32.81-.13,49.22-.21,1.33,0,2.66,0,4,0,13.65.01,27.31.02,40.96.04,9.99,0,19.97-.01,29.96-.02,5,0,9.99-.01,14.99-.02,6.33.01,12.65.02,18.98.03,4.63.18,9.26.37,13.89.55-.02,2.55,1.73,1.7,3.08,1.61.34,0,.68-.01,1.03-.02,1.99,1.41,3.98,2.82,5.97,4.22,2.81,3.88,4.27,8.28,4.99,12.96,0,2,0,4-.01,5.99,0,1.66,0,3.33,0,4.99-.42,2-.4,4,.02,5.99-1.01,7.23,1.29,14.71-1.68,21.79l-1.37,3.16Z"/>
  <path class="cls-2" d="m892.8,515.87c-57.73,0-115.46-.03-173.19-.01-103.65.03-207.31.07-310.96.11-.09-3.54,1.31-7.08-.01-10.61,1.66-.05,3.33-.16,4.99-.16,159.75-.02,319.49-.04,479.24-.05.08,1,.17,2,.25,3,0,1,0,2,0,2.99,0,1,0,2,0,3-.1.58-.19,1.15-.29,1.73Z"/>
</svg>