<?xml version="1.0" encoding="UTF-8"?>
<svg id="Layer_1" data-name="Layer 1" xmlns="http://www.w3.org/2000/svg" viewBox="0 0 1445.64 1380.94">
  <defs>
    <style>
      .cls-1 {
        fill: #1e2638;
      }

      .cls-2 {
        fill: #9096a6;
      }

      .cls-3 {
        fill: #fefefe;
      }
    </style>
  </defs>
  <path class="cls-1" d="m776.22,923.54c-17.79-.09-35.57-.28-53.36-.27-101.63.03-203.26.1-304.89.15-.5,0-1,.02-1.5,0-1.64-.04-3.66.25-3.68-2.18-.01-2.21,1.76-2.55,3.54-2.55,5.49,0,10.98.04,16.47.07,1.52,0,2.65.17,2.88-2.17.97-9.99,1.1-9.97,10.87-10.17.78.09,1.14-.2.91-1.02-.06-52.25-.14-104.5-.18-156.75-.02-29.45.03-58.91.02-88.36,0-1.31.88-3.45-1.59-3.35-4.27.17-4.35-2.45-4.3-5.54.1-5.16.01-10.32.06-15.47.02-1.71.32-3.42-2.37-3.11-3.03.35-3.61-1.73-3.67-4.09-.05-2.33.07-4.66.05-6.99-.02-2.92,1.21-6.53-4.15-6.18-1.22.08-2.88-1.55-2.74-3.58.03-.5,0-1,0-1.5.32-12.91-2.52-11.66,11.5-11.71,27.29-.08,54.58-.05,81.87-.04,3.07,0,6.22.37,5.46-4.45-.32-2.02,1.25-2.8,3.01-3.3,16.04-4.57,31.11-11.64,46.51-17.9,22.21-9.02,44.66-17.46,66.96-26.27,24.3-9.61,48.53-19.36,72.79-29.05,13.96-5.58,28.04-10.86,41.81-16.88,5.69-2.49,9.49,1.22,13.72,2.75,13.79,5.01,27.27,10.86,40.92,16.25,20.47,8.08,41.03,15.95,61.48,24.1,23.87,9.52,47.63,19.32,71.5,28.84,16.2,6.47,32.48,12.76,48.82,18.87,1.85.69,3.26,1.17,2.94,3.07-.77,4.59,2.14,4.1,5.03,4.1,28.62-.06,57.24.02,85.86-.22,4.73-.04,6.86,1.17,6.12,6.1-.24,1.63-.18,3.34-.01,4.98.33,3.17-.19,5.52-4.06,5.66-2.4.09-3.24,1.42-3.02,3.84.23,2.48-.06,4.99.09,7.48.19,3.22-.16,5.73-4.39,5.28-2.56-.27-1.87,1.8-1.89,3.11-.05,5.49-.09,10.99.08,16.47.11,3.49-1.14,5.39-4.81,5.26-.79-.1-1.13.21-.93,1.02.1,58,.2,116.01.31,174.01.02,12.13.08,24.26.12,36.4-.49.84-.49,1.69-.03,2.55,0,1.49-.02,2.97-.03,4.46,0,.51,0,1.02,0,1.52.04,8.98.29,17.97,0,26.94-.1,3.25.79,3.88,3.79,3.84,6.67-.1,6.9.06,6.63,6.81-.15,3.59.98,4.5,4.42,4.33,5.14-.26,10.31-.03,15.46.1,1.79.04,4.39-.89,4.18,2.53-.19,3.05-2.6,2.02-4.17,2.02-33.27.02-66.54-.04-99.81-.07-36.26-.02-72.53-.03-108.79-.03-.99,0-1.98.16-2.97.24-.34,0-.69,0-1.03,0-24.5-.09-48.99-.19-73.49-.25-3.47,0-6.93.17-10.4.27-1.67-1.18-3.34-1.17-4.99.04-8.99,0-17.98-.02-26.97-.03-.68-1.04-1.34-.99-2,.02Zm17.09-112.84c.24-.11.48-.21.72-.32-.22-.3-.45-.59-.67-.89-1.59-15.47-12.46-25.45-26.06-27.65-17.05-2.76-31.56,8.6-35.25,23.73-1.2,4.93.24,5.3,4.17,5.28,18.62-.08,37.24-.03,55.86-.03.46.55.86.57,1.2-.12h.03Zm-169-154.77c-8.29.06-16.57.15-24.86.14-1.97,0-3.06.39-3.02,2.71.04,2.57,1.8,1.89,3.12,1.9,7.46.05,14.92-.17,22.37.14,3.44.14,3.95-1.26,3.46-4.01.06-.78-.28-1.1-1.06-.88Zm186.98.03c-.76-.23-1.14.03-1.07.85-.68,3.21.51,4.25,3.84,4.12,7.26-.28,14.54-.11,21.81-.19,1.42-.02,3.42.94,3.4-2.02-.01-2.95-1.9-2.49-3.69-2.51-8.1-.08-16.2-.17-24.29-.25Zm143.96.2c-1.39-.04-1.28.8-1.02,1.73-.02.6-.04,1.19-.06,1.79-.2.77.05,1.15.88,1.06,9.32.02,18.63.03,27.95.05.82,0,1.05-.39.76-1.14.1-2.23-.23-3.7-3.2-3.62-8.43.22-16.87.11-25.31.13Zm-97.26,100.26c-2.66,0-5.32.03-7.98.01-1.59,0-2.93-.02-2.89,2.28.04,2.52,1.7,1.93,3.08,1.93,11.13.01,22.27.02,33.4-.02,1.51,0,3.44.71,3.5-2.11.06-2.83-1.87-2.2-3.39-2.2-8.14,0-16.29.04-24.43.07-.44-.59-.88-.56-1.3.02Zm-7.7,118.43c-.9-.36-1.77-.61-2.08.72-.67,3.05.45,3.97,3.61,3.92,10.62-.17,21.25-.04,31.87.05,1.94.02,3.64.29,3.48-2.61-.15-2.78-1.95-2.02-3.52-2.02-11.12-.01-22.24-.04-33.36-.06Zm-194.75.23c-.8-.56-1.58-.58-2.36.04-4.87-.06-9.74-.11-14.61-.17-.45,0-.91,0-1.36-.01-.51.02-1.03.04-1.54.06-1.27-.1-1.39.61-1.12,1.59-.21,1.96.23,3.01,2.64,2.98,11.15-.13,22.3-.1,33.45-.06,1.69,0,2.74-.05,2.77-2.28.03-2.41-1.37-2.23-2.88-2.23-4.99.01-9.98.04-14.97.06Zm12.7-54.58c.62-6.33-.39-12.08-5.64-16.4-1.69-1.39-4.04-2.71-5.69-2.18-2.04.64-.72,3.47-1.05,5.32-.14.8-.02,1.65,0,2.48q.11,11.27,11.33,11.44c.74.39,1.06.11,1.06-.67Zm201.04-1.01c-.25.82.13,1.09.9,1,2.82.03,5.67-.2,8.45.14,3.46.42,3.79-1.3,3.56-4.02-.7-8.38-4.76-14.16-12.9-14.53v17.4Zm.07-135.62c0,2.13,0,4.26,0,6.39q-.03,12,11.64,12.26c.74.28,1.16.07,1.15-.77.23-11.49-1.86-14.81-12-18.99-.86-.05-1.04.38-.79,1.11Zm-.04,23.95c0,6.25,0,12.5,0,18.75l.03.81c.29-.18.58-.36.87-.54,1.16-.05,2.32-.13,3.48-.14q8.47-.05,8.52-8.52.06-11.57-12.04-11.37c-.8-.09-1.15.19-.87,1.02Zm-211.82,116.98c-.96-.31-1.77-.36-1.76,1.02,0,5.14.29,10.31-.1,15.42-.31,4.11,1.22,4.97,5.02,4.84,7.94-.27,7.95-.06,7.96-8.16,0-1,.14-2.01,0-2.98-.47-3.31,1.61-6.89-1.04-9.96-2.43-.71-4.87-.66-7.33-.16-.92,0-1.84-.01-2.76-.02Zm212.69,45.64q12.03.31,11.99-11.79c0-1.82-.09-3.65,0-5.46.08-1.74-.66-2.07-2.27-2.84-3.57-1.71-6.94,1.77-10.59-1.04v20.11c-.23.79.1,1.09.87,1.02Zm-4.28-13.02c-.99-2.86,2.87-8.08-4.38-7.87-8.3.24-8.31-.08-8.35,8.26,0,.33,0,.66,0,1q-.06,11.8,11.89,11.61c.78.1,1.11-.2.92-.99.01-.61.02-1.21.03-1.82.37-1.39.39-2.78-.04-4.17-.01-1.59-.02-3.19-.03-4.78,0-.41-.02-.82-.03-1.23Zm3.49-31.66c-.02,4.16-.05,8.32-.07,12.48-.04,7.3-.02,7.05,7.24,7.39,4.36.21,6.48-.83,5.66-5.55-.25-1.45-.03-2.99-.03-4.49q.01-10.71-10.93-10.72c-.93-.36-1.8-.57-1.88.88Zm-413.95-173.39c.45.01.89.03,1.34.04,23.54.05,47.09.1,70.63.15.51.32.97.3,1.37-.18-.13-1.65-.66-3.39-.29-4.92.72-3.02-.7-3.16-3.06-3.15-25.19.12-50.39.19-75.58.16-2.96,0-4.37.38-4.38,3.95,0,3.68,1.59,4.17,4.5,3.96,1.81-.13,3.65-.03,5.47-.03Zm78.89-18.47c.28-.94.46-1.84-.99-1.85-28.87-.03-57.74-.05-86.61-.08-.81-.26-1.08.11-1.02.87,1.08,2.38-3.01,7.11,3.42,7.08,28.1-.14,56.19-.19,84.29-.26,1.39-.16,1.23-1.03.91-1.97,0-1.26,0-2.53,0-3.79Zm553.42-30.81c-.58,0-1.15.01-1.73.02-.43,0-.86,0-1.29,0-27.54,0-55.08,0-82.63-.01-1.48-.33-3.02-1.04-4.12.73-.77,2.26-2.63,1.94-4.46,2.09-1.72.14-3.66.4-3.54,3.04.14,3.03,2.38,1.71,3.68,1.72,29.62.09,59.23.11,88.85.11,7.14,0,7.14-.05,7.48-7.12-.47-1.29-1.36-.94-2.25-.58Zm-564.28-.15c-29.9.05-59.79.09-89.69.14-.79-.29-1.09.04-1.04.81q-.2,6.89,6.55,6.87c12.44-.01,24.88-.19,37.31.04,17.66.33,35.35-1,52.99.85.93.1,1.97-.14,2.86-.49,1.24-.49,2.26-1.27,2.04-2.92-.23-1.78-1.63-1.58-2.63-1.36-2.9.63-4.12-1.13-5.19-3.26-.79-1.53-2.03-.96-3.2-.68Zm316.44,187.54l-.02-10.72c.6-5.41.61-10.83,0-16.25-.24-31.46-.48-62.91-.77-94.37-.02-1.71,1.09-4.34-2.46-4.17-3.09.14-2.14,2.43-2.14,4.04,0,9.65.12,19.31.14,28.96.18,68.08.34,136.15.58,204.23,0,1.57-1.37,4.3,2.25,4.29,3.32-.01,2.94-2.22,3.09-4.45.9-13.18-1.54-26.23-.6-39.51,1.19-16.89.18-33.93.13-50.91.37-7.05.45-14.1-.2-21.14Zm-218.45-124.65c-.17-.17-.22-.91-.6-.13.21,0,.42,0,.63.01-.13.81-.37,1.61-.37,2.42.12,78.18.26,156.35.42,234.53,0,1.83-.76,4.08,2.71,3.91,3.57-.18,2.32-2.62,2.32-4.27.03-15.97,0-31.93-.08-47.9-.33-61.54-.71-123.08-.97-184.62-.01-3.14-.71-4.68-4.07-3.95Zm93.86-.08c-1.3-1.91-2.7-1.41-4.14-.18-1.1,16.95-.33,33.91-.31,50.86.07,61.86.23,123.73.43,185.59,0,1.75-1.38,4.49,2.52,4.61,4.02.12,2.6-2.64,2.59-4.41-.33-78.83-.72-157.65-1.1-236.48Zm-120.64,214.64c-.53,1.75-.49,3.49.03,5.23-.02,6.58-.03,13.16-.05,19.74-.3.75-.07,1.16.76,1.16,3.75.82,4.91-.69,4.75-4.45-.25-6.14.02-12.3.07-18.45.52-2.07.5-4.15-.01-6.22.22-69.06.45-138.12.54-207.18,0-1.39,1.96-4.22-1.79-4.49-3.44-.24-2.57,2.19-2.58,4-.59,70.22-1.15,140.44-1.72,210.66Zm303.35-214.71c-.24,18.8-.53,37.59-.7,56.39-.33,34.94-.61,69.88-.86,104.82-.18,25.46-.29,50.92-.38,76.38,0,1.13-.88,2.96,1.19,3.19,1.19.13,2.98.81,3.63-.56.59-1.25.4-2.91.41-4.38.24-42.93.49-85.86.67-128.79.14-34.61.18-69.22.29-103.84,0-2.19.5-4.6-3.06-3.97-.69-.21-1.14-.05-1.17.76Zm21.04,240.79c.81-.02,1.01-.42.71-1.14-.05-3.33-.12-6.65-.13-9.98-.18-75.01-.34-150.01-.59-225.02,0-1.67,1.61-4.52-2.39-4.63-3.42-.1-2.69,2.08-2.69,3.94-.02,77.5.01,155-.14,232.5,0,4.42,1.7,5.06,5.24,4.33Zm33.41-.23c-.05.24-.1.47-.14.71.24-.15.49-.3.73-.44,4.17.81,5.13-.91,5.1-5.03-.2-21.81-.08-43.63,0-65.45.2-55.6.45-111.2.67-166.8,0-.67-.06-1.34.03-2,.37-2.66-1.46-2.45-3.14-2.42-1.92.03-2.44.72-1.87,2.76.48,1.7.17,3.63.16,5.46-.23,30.46-.5,60.92-.7,91.38-.31,47.28-.56,94.55-.83,141.83Zm-138.43-41.8c.08-48.27.17-96.53.25-144.8.03-16.98.04-33.95.1-50.93,0-2.25.31-4.68-3.17-3.8-2.19.55-1.17,2.5-1.18,3.79-.58,72.56-1.1,145.13-1.62,217.69-.44,1.4-.44,2.8-.02,4.21.01,4.92.02,9.84.03,14.76-.24.73-.02,1.13.79,1.1,1.65-.58,4.51,1.94,4.88-1.91-.02-.71-.03-1.43-.05-2.14-.02-8.59-.04-17.18-.07-25.77.53-4.06.44-8.12.06-12.18Zm-129.49-.03c0,1.07-.02,2.14-.02,3.21-.06,11.65-.14,23.3-.16,34.96,0,1.81-.87,4.02,2.62,3.99,3.48-.03,2.45-2.35,2.64-4.08.16-1.48.09-2.99.09-4.49.18-37.95.39-75.91.53-113.86.14-38.45.19-76.91.33-115.36,0-2.33.3-4.51-3.14-3.87-.69-.2-1.14-.02-1.15.78-.58,66.24-1.15,132.48-1.73,198.72Zm300.29,40.97c-.17-21.96-.38-43.91-.5-65.87-.3-56.9-.58-113.79-.78-170.69,0-2.65-.34-4.26-3.42-3.8-.7-.28-1.13-.11-1.18.7-.05,1.66-.13,3.32-.13,4.98.06,38.79.12,77.57.21,116.36.09,37.95.2,75.91.31,113.86,0,3.12-.54,6.78,4.67,5.58.84.04,1.03-.39.82-1.12Zm-429.31-239.53l-.29-.21s.31.15.31.15c-.09,1.32-.26,2.64-.26,3.96,0,36.45,0,72.9.01,109.35,0,41.11.07,82.22-.09,123.33-.02,3.87,1.45,4.73,4.55,3.98,3-.73,1.41-3.37,1.41-5.03-.14-76.89-.42-153.78-.5-230.67,0-4.24-1.05-5.76-5.16-4.86Zm405.67,240.5c.01.28-.08.72.05.81.52.32.74-.07.89-.52,3.94.47,5.19-.93,5.1-5.18-.33-16.48-.15-32.96-.15-49.45.01-45.27.04-90.53.04-135.8,0-15.64-.03-31.29-.13-46.93,0-1.23.98-3.31-1.49-3.45-1.17-.06-2.91-.84-3.45.9-.38,1.22-.12,2.64-.12,3.97-.25,78.54-.5,157.09-.74,235.63Zm-253.12-12.74c0-.74.01-1.49.02-2.23-.06-26.95-.1-53.9-.17-80.86-.12-47.08-.25-94.17-.42-141.25,0-1.86,1.07-4.54-2.76-4.48-3.5.06-2.49,2.46-2.49,4.19-.08,77.36-.09,154.73-.2,232.09,0,3.84.3,6.68,5.23,5.36.79.06,1.1-.28.87-1.06-.03-3.92-.05-7.85-.08-11.77Zm-90.24-130.18c-.07-31.29-.14-62.59-.22-93.88,0-1.87.67-4.06-2.74-3.91-3.04.13-2.42,2.06-2.43,3.77-.03,7.16-.02,14.32-.02,21.47-.02,70.41-.05,140.83-.06,211.24,0,2.21-.71,4.64,3.26,4.48,3.9-.16,2.62-2.72,2.62-4.51.05-20.14,0-40.28-.04-60.43.46-2.07.46-4.15-.03-6.21-.1-23.54-.2-47.09-.29-70.63.44-.47.4-.93-.05-1.37Zm-65.57,97.94c-.02-5.88-.05-11.76-.07-17.64.46-1.12.46-2.25,0-3.37-.05-56.89-.09-113.78-.2-170.67,0-1.8,1.35-4.69-2.46-4.74-3.69-.05-2.68,2.69-2.7,4.61-.12,12.81-.16,25.62-.19,38.42-.17,64.71-.34,129.42-.45,194.12,0,1.82-1.19,4.38,2.69,4.47,3.85.09,3.27-2.17,3.27-4.48.02-12.81.07-25.62.1-38.43,0-.77,0-1.54,0-2.31Zm423.52-148.79c0-14.91,0-29.82,0-44.72.72-2.62,0-3.84-2.88-2.95-.59.04-1.18.08-1.77.12-.78-.25-1.09.05-.98.84,0,78.87,0,157.73-.03,236.6,0,2.19-.43,4.18,3.08,4.21,3.62.04,2.98-2.06,2.97-4.18-.14-62.89-.27-125.78-.41-188.68v-1.23Zm-282.66,121.81c-2.4,3.77-2.67,7.55-.05,11.34-.12,19.85-.23,39.71-.35,59.56-.36.56-.6,1.14-.04,1.7.04.04.42-.28.64-.43,4.37.66,5.78-.93,5.73-5.58-.28-22.12-.14-44.24-.14-66.36,0-56.22.03-112.44.04-168.66.05-1.33-.72-1.37-1.7-1.11-4.44-.62-3.71,2.55-3.72,5.12-.12,46.17-.23,92.33-.34,138.5-2.29,2.06-2.41,4.14-.03,6.22,0,.58,0,1.16,0,1.75-2.13,3.27-2.15,11.14-.04,14.26,0,1.23,0,2.46,0,3.68Zm71.8-7.64c-.07,9.87-.14,19.74-.21,29.61-.59,1.12-.58,2.23.02,3.33.14,5.3.27,10.59.41,15.89-.32.28-.32.56,0,.84-.06,8.95-.05,17.9-.2,26.85-.04,2.57.81,3.39,3.43,3.32,7.13-.17,14.27-.22,21.4.04,3.31.12,4.28-.97,4.24-4.18-.13-10.95-.01-21.9,0-32.85.46-1.4.49-2.8,0-4.19-.02-5.92-.04-11.84-.06-17.76.47-1.41.5-2.83,0-4.24-.02-5.57-.03-11.14-.05-16.71,0-.43-.02-.87-.03-1.3,0-.9.01-1.79.02-2.69.02-.43.04-.85.06-1.28,1-4.76-.75-6.54-5.71-6.04-4.61.46-9.3.15-13.96.19q-9.44.08-9.36,9.8c-.64.45-.65.91-.01,1.37Zm142.26-161.8c-.92-.26-1.84-.5-1.87.96-.28,79.79-.56,159.59-.84,239.38-.34.71-.1,1.07.67,1.11,4.12.84,5.72-.26,5.56-5-.39-11.8-.05-23.62-.04-35.43.08-65.72.12-131.45.29-197.17,0-3.01-.57-4.44-3.76-3.85Zm-58.22,204.46c.02-18.46-.11-36.93.12-55.39.13-10.32,11.71-19.27,23.94-16.02,7.59,2.02,10.96,7.7,13.16,14.52.06.39.11.79.17,1.18.06,15.96.09,31.92.19,47.88.03,4.21-1.49,9.25,4.91,10.53.26.05.54-.05,1.35-.14v-108.15c.66-3.33.6-6.68.13-10.02.25-31.96.49-63.91.74-95.87.37-.56.35-1.02-.31-1.34-5.64-2.22-7.11-5.18-5.73-11.61.04-.34.08-.68.12-1.01h-.76c-12.26-.05-24.52-.08-36.78-.12-.83-.2-1.11.17-1.01.96,2.02,3.78,1.55,7.73-2.11,9.44-3.66,1.71-3.66,4.05-3.63,7.09.19,19.61.33,39.22.48,58.83.07,9.47.11,18.95.2,28.42.01,1.51-.59,3.31,2.29,3.2,2.64-.1,2.44-1.59,2.42-3.29-.02-1.16-.03-2.33-.02-3.49.09-16.78.05-33.56.34-50.34.11-6.72,4.22-11.56,9.9-14.19,11.86-5.49,26.93.15,27.36,17.16.4,15.95.13,31.91,0,47.86-.03,3.83-.43,7.49,4.76,8.07-.01,3.36-.03,6.72-.04,10.08-1.56,2.13-3.89,1.47-5.93,1.48-12.47.02-24.94.16-37.4-.25-3.79-.13-3.87,1.33-3.83,4.17.22,18.79.32,37.57.46,56.36,0,.43,0,.86,0,1.29.04,14.21.07,28.42.11,42.63-.33.72-.05,1.04.7,1.04l2.85.06c.78.08,1.11-.23.87-1.02Zm83.28-5.02c0,.42,0,.84,0,1.26-.02,13.24-.03,26.48-.05,39.73-.28.76-.04,1.17.8,1.15,3.49.01,7.01-.26,10.46.12,3.98.44,4.95-1.05,4.96-4.87.07-29.09.43-58.19.55-87.28.14-32.9.13-65.8.19-98.69.58-.24.91-.59.56-1.25.09-18.12.15-36.25.31-54.37.02-2.45-.32-3.94-2.94-5.25-4.59-2.31-5.15-5.78-2.71-11.02h-7.29c1.92,4.59.91,8.62-2.95,10.99-2.64,1.62-3,3.36-2.98,5.99.39,67.84.73,135.67,1.08,203.51Zm-359.69-207.58c.47,79.52.92,159.04,1.42,238.56.07,11.17.17,10.97,11.47,11.34,4.07.13,5.21-.78,5.23-5.04.16-53.4.53-106.8.9-160.2.19-26.95.51-53.9.69-80.85.01-1.76.86-3.67-1.81-5.03-4.61-2.34-6.4-6.32-4.02-11.49-2.81-.46-5.26-.49-7.74-.07,1.65,6.98.9,8.67-5.21,11.75-.78-.08-1.11.25-.93,1.03Zm62.65,108.47c-3.96-1.14-4.94.09-4.9,4.37.31,33.24.28,66.48.36,99.73-.31.7-.18,1.15.67,1.21,3.5.7,3.98-1.11,3.96-4.14-.12-17.24-.21-34.49.01-51.74.13-9.68,8.25-16.89,17.88-17.18,10.23-.31,16.03,4.94,19.22,14.01-.06.14-.19.31-.15.42.08.28.23.54.36.8.16,2.14.46,4.28.46,6.42.02,15.56-.04,31.12.01,46.68,0,1.52-.72,3.29.96,4.54,3.64,2.72,4.48,7.15,2.34,12.14-.89-.23-1.75-.4-2.04.83-13.95.1-27.9.2-41.85.31-.79-.25-1.75-.89-1.69.75.05,5.98.27,11.97.09,17.94-.09,3.08.5,4.3,3.98,4.25,13.79-.22,27.59-.21,41.39,0,3.43.05,4.05-1.12,4.07-4.23.17-39.89.45-79.78.73-119.67.28-40.56.6-81.11.86-121.67.01-1.98,1.07-4.47-1.9-5.52-4.76-1.69-5.25-5.38-4.48-9.64.95-.82,1.84-1.64-.28-2.04-12.92.03-25.83.06-38.75.09-.35.09-.7.18-1.05.28.1.25.21.49.31.74,1.57,3.94.72,7.62-2.82,9.58-2.98,1.65-3.22,3.68-3.19,6.46.18,17.13.32,34.25.41,51.38.06,13.12.01,26.24.01,39.24,4.66.9,5.24-1.13,5.2-4.84-.2-16.96-.36-33.93.05-50.88.28-11.77,10.93-20,24.11-16.64,7.9,2.02,13.73,11.39,13.7,18.9-.07,15.96-.16,31.93-.02,47.89.02,2.51-2.26,6.83,3.5,6.74.74-.01.61,1.38.61,2.2,0,1.83-.2,3.69.05,5.48.51,3.59-1.06,4.68-4.43,4.6-7.15-.17-14.3-.11-21.45-.15-4.43-.51-8.85-.65-13.27.09-.56.04-1.11.08-1.67.12-.51-.41-.96-.34-1.37.15Zm170.75-107.39c.56-3.08-2.34-2.25-3.64-3.22-4.11-2.78-3.54-6.59-1.9-10.6h-75.24c2.32,4.81,1.13,8.69-3,10.97-2.43,1.35-2.62,2.83-2.61,5.14.33,55.76.6,111.51.87,167.27.12,24.96.2,49.93.38,74.89.01,1.61-1.19,4.05,2.4,4.25,3.47.19,4.02-1.13,4.02-4.22-.07-31.46-.2-62.92.15-94.37.1-9.4,5.5-16.7,12.4-22.74,7.19-6.3,15.64-8.26,25.13-7.75,11.03.59,19.63,5.19,26.2,13.82,5.25,6.9,7.15,14.95,7.16,23.47.05,29.13.03,58.25.06,87.38,0,2.24-.58,4.66,3.3,4.47,3.92-.19,2.52-2.87,2.53-4.63.41-62.07.73-124.14,1.12-186.21.12-19.31.45-38.61.68-57.91Zm-272.46-1.1c-25.46.06-50.92.21-76.38.09-4.2-.02-5.55.84-5.54,5.42.17,79.87.15,159.75.01,239.63,0,4.1,1.29,4.8,5.03,4.77,23.8-.18,47.59-.22,71.39-.02,4.23.03,5.59-.81,5.56-5.38-.14-25.62.1-51.25.24-76.88.31-55.73.65-111.47.97-167.2-.29-.58-.71-.73-1.29-.43Zm443.97-66.21c.07-.19.14-.37.21-.56-5.75-2.3-11.49-4.62-17.24-6.9-21.8-8.61-43.63-17.14-65.4-25.81-26.85-10.7-53.64-21.56-80.49-32.26-15.75-6.27-31.61-12.27-47.33-18.6-3.42-1.38-6.41-1.59-9.84-.18-15.97,6.58-31.98,13.08-48.05,19.44-19.35,7.66-38.82,15.03-58.15,22.75-28.55,11.4-57.04,22.95-85.52,34.54-5.78,2.35-12.02,3.64-18.16,7.59h429.98Zm94.38,191.54h-.13c0-40.26-.03-80.53.06-120.79,0-3.26-.53-4.6-4.26-4.57-25.29.19-50.58.17-75.87.05-3.1-.02-3.88.78-3.86,3.87.46,80.52.84,161.05,1.12,241.58.01,3.34.65,4.53,4.31,4.51,24.79-.17,49.58-.16,74.37,0,3.47.02,4.36-.82,4.35-4.35-.14-40.1-.09-80.2-.09-120.29Zm-309.54-154.31c69.08,0,138.17,0,207.25-.01,5.3,0,12.26,1.83,15.44-.81,3.32-2.76.42-9.99,1-15.22.45-4.05-.69-5.32-5.01-5.31-36.62.14-73.24,0-109.86-.04-46.44-.05-92.88-.12-139.32-.11-57.76.02-115.52.11-173.29.17-5.66,0-11.31-.04-16.97-.02-1.26,0-3.01-.29-2.86,1.77.38,5.16-1.5,10.11-.47,15.51.78,4.06,2.27,4.12,5.34,4.11,72.91-.05,145.83-.04,218.74-.05Zm-.58,290.86s0,.05,0,.07c83.9,0,167.8,0,251.7,0,21.64,0,43.28-.03,64.92.02,2.72,0,4.5.06,4.63-3.77.16-4.64-2.64-3.64-5.1-3.65-46.28-.04-92.56-.08-138.83-.08-121.53,0-243.05.04-364.58.06-43.12,0-86.23.07-129.34-.08-3.93-.01-4.69,1.21-4.53,4.79.19,4.35,3.23,2.56,5.01,2.56,105.37.08,210.75.07,316.12.07Zm.52-286.52v-.05c-73.07,0-146.14,0-219.21-.03-2.75,0-4.67-.08-4.56,3.79.1,3.51,1.4,3.9,4.44,3.9,87.38-.07,174.77-.02,262.15-.03,58.76,0,117.51-.08,176.27-.05,3.03,0,4.81-.12,4.85-4.09.04-4.17-2.2-3.46-4.73-3.46-73.07.03-146.14.02-219.21.02Zm.51-37.1s0-.08,0-.13c-27.97,0-55.93,0-83.9,0-47.44,0-94.89-.04-142.33,0-1.73,0-4.36-1.31-4.19,2.72.14,3.4.9,4.51,4.48,4.42,10.37-.26,20.75-.08,31.13-.09,128.35,0,256.7-.02,385.04-.03,11.99,0,23.97-.09,35.96.01,2.78.02,4.23-.41,4.22-3.73-.01-4.38-2.96-3.16-5.18-3.16-75.08-.03-150.15-.03-225.23-.03Zm-31.39,265.45h.08c0,13.97.07,27.94-.05,41.91-.03,3.19.92,4.35,4.26,4.21,6.81-.27,13.64-.24,20.45-.06,3.31.08,4.34-1.21,4.33-4.39-.09-27.61-.12-55.22,0-82.83.01-3.21-1.11-3.89-4.04-3.81-6.98.18-13.98.22-20.95-.05-3.29-.13-4.19.81-4.14,4.1.19,13.64.08,27.28.08,40.91Zm91.74-74.38h-.05c0-15.64,0-31.28,0-46.93,0-23.46.03-46.93-.01-70.39,0-1.45.94-3.65-1.77-3.82-1.21-.08-2.94-.71-3.43,1.03-.4,1.4-.23,2.97-.23,4.46-.16,58.57-.31,117.15-.46,175.72-.05,18.8-.07,37.61-.15,56.41,0,2.24-.37,4.02,3.1,4.02,4.15,0,2.97-2.68,2.97-4.69.05-38.61.03-77.21.03-115.82Zm-213.76-.52h-.13c0-5.83,0-11.65,0-17.48.05-32.79.12-65.58.13-98.37,0-1.72,1.08-4.07-2.48-4.1-3.37-.03-2.71,2.06-2.73,3.95-.03,2.83,0,5.66-.01,8.49-.25,74.57-.52,149.13-.72,223.7,0,1.97-1.27,4.74,2.9,4.8,4.11.06,3.02-2.57,3.02-4.64.03-38.78.02-77.56.02-116.35Zm222.74-.51c-.25,0-.49,0-.74,0,0-38.94,0-77.89-.03-116.83,0-1.18.82-2.92-.99-3.38-1.19-.3-2.82-.52-3.75.57-1.04,1.21-.47,2.87-.47,4.33-.03,45.6-.04,91.21-.04,136.81,0,31.96.07,63.91,0,95.87,0,3.06.55,4.65,4.03,4.12,3.44-.52,1.91-3.05,1.92-4.65.09-38.94.07-77.89.07-116.83Zm-289,1c.19,0,.37,0,.56,0,0-38.76.01-77.52-.04-116.28,0-1.65,1.21-4.07-2.41-4.14-3.46-.07-2.68,2.11-2.66,3.94.04,3.64.34,7.28.32,10.91-.41,74.03-.85,148.05-1.25,222.07,0,1.76-.93,3.98,2.57,4.05,3.75.07,2.9-2.26,2.9-4.28.01-38.76,0-77.52,0-116.28Zm384.97-.49c-.35,0-.7,0-1.05,0,0-38.29,0-76.57,0-114.86,0-1.17-.06-2.33.01-3.49.14-2.15-1.14-2.34-2.84-2.39-1.98-.06-2.11,1.05-2.07,2.53.06,2.33.07,4.66.07,6.99.23,75.91.45,151.82.73,227.72,0,1.82-1.23,4.5,2.67,4.46,3.58-.04,2.43-2.4,2.43-4.11.04-38.95.03-77.9.03-116.85Zm-440.47-170.39s0-.08,0-.12c-13.8,0-27.6.02-41.4-.01-6.31-.02-6.31-.07-6.38,6.46,0,.5.07,1.02-.03,1.49-.88,4.15,1.1,4.8,4.83,4.77,26.77-.15,53.54-.07,80.31-.07,2.49,0,5.43.81,7.37-.22,2.61-1.39.67-4.76,1.19-7.21.07-.32.05-.68.18-.97,1.72-3.53.02-4.19-3.19-4.17-14.3.09-28.6.04-42.89.04Zm82.11,170.93h-1.05c0-20.13.03-40.27-.01-60.4-.04-18.64-.15-37.27-.3-55.91-.01-1.65,1.22-4.2-2.42-4.1-3.63.1-1.99,2.68-2.26,4.29-.22,1.29-.05,2.66-.05,3.99.21,53.41.44,106.83.63,160.24.08,22.8.15,45.6.02,68.39-.02,3.55,1.42,4.65,4.29,3.66,2.15-.75,1.1-3.2,1.1-4.84.07-38.44.05-76.88.05-115.32Zm466.22-158.35v-.08c14.31,0,28.61.03,42.92-.05,1.38,0,3.6,1.2,3.99-1.49.37-2.57.47-5.18.74-7.77.26-2.48-.53-3.47-3.3-3.46-28.61.1-57.22.1-85.83.01-3.19,0-4.54,1.18-4.44,4.28.05,1.5.16,3.01-.02,4.49-.4,3.17.62,4.22,4.02,4.16,13.97-.22,27.94-.09,41.92-.09Zm-143.87,253.49c-3.27,2.79-6.55,2.52-9.84,2.5-11.3-.08-22.6-.03-33.9-.06-1.87,0-3.59-.33-3.48,2.63.21,5.81.15,11.63.04,17.44-.04,2.15.67,2.83,2.85,2.82,13.79-.09,27.58-.08,41.37-.02,2.02,0,3.02-.47,2.99-2.74-.1-7.28-.04-14.56-.04-22.56Zm141.38-241.45v.09c13.14,0,26.29-.12,39.42.09,3.27.05,4.12-.81,4.16-4.06.04-3.44-1.18-4.03-4.29-4.01-26.28.15-52.57.19-78.85.09-3.01-.01-3.99.57-4,3.74-.02,3.24.84,4.19,4.14,4.15,13.14-.19,26.28-.08,39.42-.08Zm1.84,12.65s0-.09,0-.14c12.48,0,24.96-.09,37.43.06,3.03.04,4.37-.37,4.36-3.95-.01-3.43-1.09-4.01-4.21-3.99-25.12.11-50.24.14-75.36-.09-3.69-.03-3.47,1.62-3.49,4.12-.02,2.44-.4,4.19,3.35,4.1,12.64-.31,25.28-.12,37.93-.12Zm-424.88-.71c0-.06,0-.11,0-.17,5.81,0,11.62.05,17.42-.03,2.25-.03,3.65-.96,3.65-3.64,0-2.54-.97-3.75-3.44-3.74-11.28.06-22.57.09-33.85.26-2.48.04-4.04,1.5-3.79,4.19.22,2.41,1.66,3.24,4.07,3.18,5.31-.14,10.62-.04,15.93-.04Zm-56.4-7.46c0,.05,0,.11,0,.16-5.63,0-11.27.04-16.9-.02-2.56-.03-4.3,1.05-4.4,3.61-.11,2.78,1.95,3.58,4.35,3.58,11.27.03,22.54.04,33.8.03,2.22,0,3.7-.65,3.72-3.45.02-2.76-.91-3.96-3.67-3.93-5.63.06-11.27.02-16.9.02Zm271.14,7.42c5.48,0,10.96-.03,16.45.01,2.55.02,4.31-1.15,4.51-3.64.21-2.75-1.74-3.67-4.22-3.68-11.13-.06-22.26-.18-33.39-.15-2.7,0-5.24,1.4-5.08,4.24.15,2.65,2.76,3.27,5.28,3.25,5.48-.05,10.96-.02,16.45-.03Zm87.17-.03v.08c5.47,0,10.95.02,16.42,0,2.3-.01,4.31-.31,4.37-3.42.06-3.09-1.63-4.12-4.32-4.11-10.95.05-21.89.14-32.84.23-2.66.02-4.77,1.23-4.68,3.94.09,2.99,2.63,3.32,5.13,3.3,5.31-.05,10.62-.02,15.93-.02Zm-211.51-.05c4.99,0,9.98.04,14.97-.02,2.57-.03,5.67.68,5.58-3.62-.09-4.24-3.27-3.52-5.76-3.54-10.14-.09-20.29,0-30.43-.07-2.98-.02-5.77.81-5.6,4.05.16,3.06,3.17,3.24,5.78,3.21,5.15-.05,10.31-.01,15.47-.01Zm268.71-7.15s0-.06,0-.09c-5.8,0-11.59.01-17.39,0-2.67,0-4.03,1.45-3.96,3.94.07,2.46,1.9,3.36,4.11,3.36,11.26,0,22.53,0,33.79-.07,2.58-.01,4.08-1.52,4.04-4.04-.05-2.59-2.05-3.08-4.19-3.09-5.47-.01-10.93,0-16.4,0Zm-317.12,97.05q-.06-11.59-10.19-10.85c-.16.01-.33.02-.5,0-1.73-.19-2.32.62-2.3,2.3.05,5.45.03,10.91-.02,16.37-.01,1.63.63,2.2,2.31,2.42,9.95,1.34,10.75.69,10.7-9.25,0-.33,0-.66,0-.99Zm213.67-.32c-.09-11.24-.09-11.16-10.06-10.6-2.12.12-2.93.64-2.87,2.83.12,4.48.3,8.98-.1,13.43-.37,4.06,1.15,4.94,4.93,4.82,8.17-.27,8.17-.07,8.1-8.49,0-.66,0-1.33,0-1.99Zm16.18.14h-.02c0-2.66,0-5.31,0-7.97,0-1.36.05-2.39-1.89-2.77-8.88-1.76-10.98-.18-10.97,8.65,0,3.15.04,6.31-.09,9.46-.09,2.09.58,2.79,2.79,2.95,10.16.72,10.15.81,10.19-9.32,0-.33,0-.66,0-1Zm-229.89,118.78q-.06-11.35-9.97-10.53c-.17.01-.33.03-.5.01-2.06-.19-2.51.95-2.48,2.74.09,5.15.09,10.31.11,15.46,0,1.43.26,2.34,2.09,2.66,9.23,1.63,10.81.41,10.76-8.85,0-.5,0-1,0-1.5Zm.05-24.58c-.04-10.12-.04-9.91-8.92-10.09-3.69-.07-4.46,1.23-4.19,4.52.28,3.46.42,7,.02,10.43-.58,4.91.94,6.59,6.08,6.23,7.01-.5,7.04-.11,7-7.12,0-1.33,0-2.65,0-3.98Zm16.19,24.61c0-11.09,0-11.01-9.76-10.69-2.3.07-3.27.58-3.18,3.04.18,4.96.08,9.93.17,14.89.03,1.4-.17,2.76,2.13,3.11,9.37,1.45,10.67.47,10.64-8.86,0-.5,0-.99,0-1.49Zm.2-118.91c-.1-10.94-.09-10.83-9.55-10.63-2.56.05-3.54.72-3.43,3.32.21,4.95.29,9.91.25,14.86-.02,2.12.7,2.7,2.83,2.83,10.07.63,10.06.71,9.91-9.4,0-.33,0-.66,0-.99Zm184.35,94.33h.05c0,2.49.06,4.99-.02,7.48-.05,1.56.33,2.25,2.12,2.52,9.59,1.4,10.71.54,10.76-8.97,0-1.66-.22-3.36.06-4.98.86-4.94-.85-6.57-5.99-6.2-6.94.5-6.97.11-6.98,7.16,0,1,0,1.99,0,2.99Zm12.84-118.63q-.1-10.75-9.71-10.24c-.17,0-.33.02-.5,0-1.92-.24-2.6.56-2.56,2.52.1,4.98.02,9.96-.04,14.94-.02,1.48.16,2.27,2.04,2.53,9.95,1.39,10.87.68,10.76-9.25,0-.17,0-.33,0-.5Zm-213.63-.12c.01-10.13,0-9.81-7.34-10.23-4.65-.27-6.08,1.26-5.58,5.69.33,2.95.34,6,.02,8.95-.45,4.17.61,5.8,5.26,5.53,7.62-.45,7.64-.1,7.64-7.95,0-.66,0-1.33,0-1.99Zm16.28-.14c.19-10.56.17-10.22-6.82-10.64-4.91-.29-6.53,1.36-5.9,6.08.31,2.28.04,4.63.03,6.95-.02,8.21-.02,8.01,8.04,8.12,3.55.05,5.29-.64,4.7-4.56-.29-1.94-.05-3.97-.05-5.96Zm-16.3-24.66h.07c0-2.15-.11-4.3.03-6.44.17-2.73-.49-3.61-3.33-2.36-6.82,2.99-10.92,10.34-9.68,17.51.26,1.5.85,1.75,2.17,1.95,9.71,1.43,10.76.56,10.75-9.17,0-.5,0-.99,0-1.49Zm.06,119.24c0-2.49-.08-4.99.02-7.48.09-2.15-.62-2.56-2.64-1.89-5.67,1.87-9.86,7.2-10.31,13.41q-.45,6.21,5.72,6.22,7.22.02,7.2-7.28c0-1,0-1.99.01-2.99Zm213.69-118.95c0-2.15-.15-4.32.04-6.46.29-3.2-.69-3.73-3.61-2.44-6.47,2.87-10.72,10.71-9.35,17.5.25,1.23.71,1.52,1.84,1.75,9.07,1.82,11.13.21,11.07-8.85,0-.5,0-.99,0-1.49Zm-.08,119.2c0-2.48-.09-4.97.03-7.45.11-2.33-.53-2.91-2.85-2.02-6.74,2.59-11.17,10.26-10.04,17.44.22,1.43.65,1.84,2.05,2.07,9.49,1.55,10.86.45,10.81-9.04,0-.33,0-.66,0-.99Zm-210.19-119.45s.05,0,.07,0c0,2.64-.07,5.28.03,7.92.04,1.05-.17,2.65,1.52,2.59,3.4-.12,7.84,1.67,9.92-.87,2.24-2.72,1.75-7.12.1-10.76-1.27-2.81-3.66-4.66-5.98-6.42-1.3-.99-3.54-1.95-4.81-1.47-1.4.52-.73,2.95-.84,4.55-.1,1.48-.02,2.97-.02,4.46Zm-1.95,68.51s0,.02,0,.03c5.66,0,11.31-.01,16.97,0,1.44,0,2.53-.06,2.57-2.04.04-2.02-.74-2.56-2.62-2.54-11.14.11-22.29.16-33.43.18-1.63,0-2.9,0-2.94,2.25-.04,2.44,1.51,2.1,2.98,2.11,5.49,0,10.98,0,16.47,0Zm-99.91-99.78c3.98,0,7.96-.01,11.94,0,1.35,0,2.69.23,2.61-1.88-.07-1.67-.23-2.86-2.39-2.85-7.96.04-15.92,0-23.88-.11-2.17-.03-2.87.8-2.84,2.92.03,2.56,1.79,1.86,3.12,1.88,3.81.06,7.63.02,11.44.03Zm146.98,0v-.1c3.99,0,7.97-.03,11.96.02,1.49.02,2.48-.13,2.48-2.08,0-1.97-.69-2.6-2.61-2.59-7.97.06-15.94.05-23.91-.03-2.1-.02-2.39,1.05-2.45,2.79-.08,2.07,1.21,1.99,2.58,1.99,3.99,0,7.97,0,11.96,0Zm211.31-.12s0,.07,0,.11c4.16,0,8.32-.05,12.48.03,1.69.03,2.38-.55,2.33-2.29-.04-1.46,0-2.62-1.99-2.6-8.15.09-16.3.15-24.45.12-2.04,0-2.46.96-2.5,2.75-.04,2.14,1.34,1.87,2.65,1.88,3.83,0,7.65,0,11.48,0Z"/>
  <path class="cls-1" d="m847.2,482.04c.04,11.32.17,22.63.06,33.95-.03,3.4.78,4.99,4.42,6.33,12.64,4.67,24.96,10.17,37.48,15.17,10.69,4.27,21.53,8.17,32.24,12.41,20.02,7.92,39.99,15.96,59.97,23.98,9.54,3.83,19.08,7.69,28.58,11.62,1.27.52,3.96.18,2.8,2.84-.77,1.77-2.27,1.59-4.19.95-11.54-3.85-22.69-8.68-33.97-13.19-18.58-7.42-37.2-14.75-55.78-22.16-16.14-6.44-32.14-13.25-48.4-19.37-20.66-7.78-40.94-16.48-61.51-24.45-14.41-5.58-28.75-11.3-42.97-17.33-5.27-2.23-9.46,1.03-13.54,2.74-17.9,7.5-36.1,14.2-54.09,21.47-17.12,6.91-34.22,13.89-51.39,20.68-21.65,8.56-43.41,16.86-65.04,25.47-20.96,8.35-41.79,17-62.74,25.38-2.26.9-5.81,3.08-7.13.03-1.58-3.68,2.99-3.54,4.97-4.34,18.93-7.65,37.97-15.02,56.95-22.53,21.53-8.52,43.02-17.12,64.53-25.68,12.38-4.93,24.71-9.96,37.16-14.68,2.35-.89,2.93-1.96,2.91-4.24-.09-10.65-.1-21.3.01-31.95.02-2.24-.32-3.34-2.91-3.2-3.09.17-4.36-1.74-4.33-4.69.03-2.33.14-4.67-.04-6.99-.25-3.3.41-5.44,4.42-5.34,3.02.08,2.56-2.47,2.53-4.4-.07-4.26-.73-8.87,6.13-7.49,1.45.29,1.8-1.05,2.35-2.1,11.91-22.5,30.32-36.74,55-42.74,3.83-.93,5.04-2.69,4.53-6.29-.55-3.86.13-6.64,5.1-5.85,1.65.26,2.8-.57,2.93-2.52.65-10.17,1.9-20.28,2.13-30.51.33-14.28,1.25-28.56,2.77-42.78.33-3.07,2.25-3.34,4.43-3.29,2.33.06,2.57,1.75,2.73,3.77,1.14,14.5,1.7,29.01,2.13,43.54.28,9.33,2.15,18.62,1.76,28.03-.13,3.27,1.54,4.15,4.31,3.75,3.81-.55,5.3,1.1,4.66,4.74-.87,4.99,1.43,6.15,6.14,7.56,22.94,6.85,41.57,19.75,53.15,41.35,1.23,2.3,2.17,3.82,5.11,3.37,2.59-.39,4.12.71,3.63,3.74-.26,1.62.05,3.33-.08,4.98-.18,2.22.37,3.53,2.95,3.16,3.49-.5,4.32,1.42,4.04,4.46-.16,1.82-.27,3.69,0,5.48.72,4.79-1.12,6.87-5.97,6.12-.78-.11-1.15.17-.96,1Zm-95.88-81.84c-.81-.2-1.1.16-.99.93-.74,4,.96,5.23,4.9,5,5.44-.31,10.91-.14,16.37-.03,1.73.03,2.73-.04,2.69-2.25-.03-2.11-.63-2.62-2.78-2.89-6.72-.82-13.46-.63-20.19-.77Zm92.14,58.63c-.19-1.76-1.4-1.38-2.59-1.36-6.66.12-13.31.23-19.97.24-44.94.05-89.89.11-134.83.03-3.21,0-3.93.94-3.83,3.93.09,2.51.58,3.34,3.34,3.33,51.11-.11,102.21-.15,153.32.03,4.13.01,4.8-1.56,4.51-4.84.62-.43.66-.88.05-1.35Zm5.6,11.23c.1-.78-.19-1.14-1.01-.91-2.16.07-4.33.19-6.49.19-52.93.07-105.87.13-158.8.2-6.53,0-6.53.05-6.3,6.63.02.48.23.95.35,1.44,1.56-1.03,3.25-.62,4.86-.62,53.6-.04,107.2-.07,160.81-.09q6.72,0,6.57-6.85Zm-6.06,46.81c-.02-10.65-.14-21.29-.01-31.94.03-2.77-.59-3.62-3.57-3.6-34.76.15-69.53.13-104.29.16-15.97.01-31.94,0-47.91.1-1.52,0-4.01-1.12-4.02,2.06-.02,11.4,0,22.81,0,34.74,25.78-10.28,50.94-20.27,76.04-30.4,1.83-.74,3.1-.79,4.96-.16,7.92,2.71,15.61,5.95,23.35,9.11,15.67,6.39,31.36,12.71,47.19,18.69,2.33.88,4.51,2.94,7.38,2.27.8.09,1.13-.22.89-1.03Zm-8.39-63.76c-.25-1.01-.26-1.9-.65-2.55-6.44-10.54-14.29-19.86-24.8-26.52-19.72-12.49-41.04-16.77-64.06-12-22.84,4.74-39.96,17.47-52.33,37.02-2.18,3.44-1.66,4.25,2.42,4.22,23.96-.17,47.93-.15,71.9-.16,22.45-.02,44.9,0,67.53,0Zm-71.6-105.7c-2.37,1.14-1.7,2.82-1.74,4.21-.08,2.99.22,6.01-.09,8.97-1.1,10.46-1.69,20.94-2.05,31.45-.12,3.55,1.57,4.07,4.54,4.12,4.02.06,2.66-2.96,2.38-4.5-.44-2.43-.78-4.81-.87-7.28-.46-12.3-.81-24.61-2.17-36.96Z"/>
  <path class="cls-2" d="m805.19,923.55c1.66-1.2,3.32-1.22,4.99-.04-1.65,1.75-3.32,1.72-4.99.04Z"/>
  <path class="cls-2" d="m776.22,923.54c.66-1.01,1.32-1.06,2-.02-.65,1.49-1.32,1.5-2,.02Z"/>
  <path class="cls-2" d="m1076.37,870.81c-.46-.86-.45-1.71.03-2.55.83.17,1.55.6,1.28,1.51-.13.44-.86.7-1.32,1.04Z"/>
  <path class="cls-2" d="m1076.35,876.79c0-.51,0-1.02,0-1.52.57.08,1.24.18,1.08.93-.06.26-.7.4-1.07.59Z"/>
  <path class="cls-2" d="m894.07,923.49c.34,0,.69,0,1.03,0-.23.25-.46.5-.69.76-.11-.25-.22-.51-.33-.76Z"/>
  <path class="cls-2" d="m1075.98,657.85c-.2-.81.14-1.12.93-1.02-.31.34-.62.68-.93,1.02Z"/>
  <path class="cls-2" d="m847.2,482.04c-.19-.83.18-1.11.96-1-.32.33-.64.67-.96,1Z"/>
  <path class="cls-2" d="m447.46,905.41c.23.82-.13,1.1-.91,1.02.3-.34.61-.68.91-1.02Z"/>
  <path class="cls-3" d="m977.45,590.6h-429.98c6.14-3.95,12.39-5.24,18.16-7.59,28.48-11.59,56.97-23.14,85.52-34.54,19.33-7.72,38.8-15.08,58.15-22.75,16.06-6.36,32.07-12.86,48.05-19.44,3.44-1.42,6.42-1.2,9.84.18,15.73,6.33,31.58,12.33,47.33,18.6,26.85,10.7,53.64,21.56,80.49,32.26,21.77,8.67,43.6,17.21,65.4,25.81,5.76,2.27,11.5,4.6,17.24,6.9-.07.19-.14.37-.21.56Zm-135.28-12.75c-.85-1.73-2.21-2.51-4.7-2.69,1.23,2.33,2.73,2.88,4.59,2.83,4.38,1.42,9.15,0,9.91-3.35.87-3.83-2.02-5.51-4.88-7.14-1.93-1.1-5.35-.85-5.5-3.55-.18-3.21,4.09-.86,5.3-3.02-3.66-1.53-7.24-.77-8.35,1.95-1.34,3.27.18,5.4,3.18,6.74,1.5.68,3.04,1.3,4.48,2.1,2.7,1.51,2.45,3.34.18,4.98-1.18.86-2.61,1.45-4.2,1.15Zm-143.86-24.28c-.4.07-.8.14-1.19.2,0,5.11.13,10.22-.04,15.32-.16,5.06-3,7.73-7.81,7.73-4.24,0-6.89-2.93-6.96-7.9-.06-4.32.03-8.65.1-12.97.02-1.67-.21-3.04-2.36-2.91-1.95.12-1.83,1.57-1.83,2.9,0,4.99-.13,9.98.11,14.96.2,4.22,3.81,7.83,7.54,8.07,6.49.42,11.89-2.13,12.29-6.68.55-6.2.14-12.48.14-18.73Zm5.07,15.84h.1c0,2.33-.02,4.66,0,6.99.02,1.23.27,2.55,1.83,2.38,1.43-.16,1.4-1.22,1.27-2.6-.29-2.97-.46-6.02-.07-8.96.41-3.07,2.6-5.3,5.76-5.12,3.14.18,2.88,3.12,2.92,5.43.05,2.83.03,5.65.03,8.48,0,1.28.44,2.5,1.76,2.57,1.67.09,2.13-1.14,2.1-2.7-.06-3.16.1-6.32-.02-9.48-.2-5.46-3.94-7.92-9.21-6.22-1.06.34-2,1.81-3.1,1.07-4.18-2.82-3.41.31-3.39,2.67.02,1.83,0,3.66,0,5.49Zm116.9-7.03c1.44,1.12,2.6.23,3.84.08,2.31-.27,5.45-2.14,6.02,2.39.55,4.38-2.69,2.65-4.57,2.88-4.1.49-6.95,4.1-5.6,7.51.65,1.63,1.69,3.97,3.6,3.4,2.85-.85.23-2.5-.11-3.82-.38-1.49-.56-3.07.83-4.11,1.74-1.3,3.89-.93,5.75-.49,1.71.41,1.34,2.44.81,3.38-2.77,4.92,1.62,3.76,3.43,4.9,0-4.57-.11-8.82.04-13.06.1-2.94-1.06-4.92-3.89-5.47-3.63-.7-7.19-.55-10.12,2.42Zm-30.15-1.78c-4.41-1.14-7.62-.31-8.69,2.37-1.51,3.78,1.51,5.33,3.88,7.01,1.19.84,2.68,1.27,4.05,1.83,1.4.57,2.18,1.5,1.89,3.05-.3,1.59-1.51,1.93-2.91,2.17-2.42.43-4.18-1.52-6.73-2.03,2.86,4.1,7.82,5.2,11.13,2.82,3.45-2.48,3.34-6.01-.34-8.34-1.8-1.14-3.72-2.08-5.6-3.09-1.1-.59-1.92-1.35-1.6-2.73.25-1.12,1.07-1.56,2.15-1.69.91-.11,2.04.25,2.77-1.38Zm-60.23-.05c4.06,6.38,5.74,12.61,9.35,19.44,2.91-7.12,5.41-13.22,7.9-19.32-.5-.23-1.01-.46-1.51-.69-1.77,4.02-3.54,8.03-5.28,11.99-4.37-3.09-2.39-10.86-10.46-11.43Zm26.39,17.09c-2.02-2.35-4.53-5.01-3.26-7.48,1.25-2.43,4.79-.66,7.3-1,.33-.04.67.05.99,0,1.34-.25,3.24.85,3.85-1.16.58-1.93-.78-3.01-2.57-3.88-.91,5.83-5.37,3-8.48,3.52-1.27.21-1.93-.71-1.61-1.82,1.54-5.41,5.86-3.75,9.96-3.17-2.78-3.1-5.85-3.66-8.9-2.02-3.84,2.07-6.47,7.18-5.03,10.79,1.27,3.2,2.29,7.22,7.75,6.22Zm60.77-17.55c-3.25.14-5.51-.37-4.8-3.97.18-.94-.16-2.29-1.59-1.54-2.46,1.29-.89,5.25-3.93,6.28,2.7,3.4,1.1,7.35,1.3,11.04.34,6.24,2.82,7.91,9.11,4.93-3.76.76-5.71-.64-4.75-4.04,1.13-4.05-3.37-9.98,4.66-12.7Zm-36.82,1.06c-2.94-2.79-5.75-.05-8.33-.85-2.02-.63-2.66.62-2.66,2.38,0,4.29.04,8.57.06,12.86,0,1.22.13,2.43,1.79,2.26,1.4-.15,1.16-1.36,1.19-2.29.05-1.48.01-2.97,0-4.45-.02-7.41.3-7.84,7.93-9.91Zm-56.12,8.65h-.1c0,1.98-.09,3.96.03,5.92.07,1.15-.55,3.04,1.54,2.91,1.15-.07,1.83-1.24,1.82-2.58-.04-4.44-.04-8.89-.06-13.33,0-1.04-.17-2.09-1.45-2.17-1.6-.1-1.79,1.11-1.79,2.33-.01,2.3,0,4.61,0,6.91Zm78.24-.8s.04,0,.05,0c0-2.14.03-4.28-.01-6.42-.02-.84-.27-1.62-1.33-1.7-1.19-.09-1.9.46-1.92,1.65-.06,4.44-.09,8.88-.1,13.33,0,1.07.34,1.96,1.64,1.98,1.32.03,1.65-.86,1.67-1.93.03-2.3,0-4.61,0-6.91Z"/>
  <path class="cls-3" d="m1071.83,782.14c0,40.1-.05,80.2.09,120.29.01,3.53-.88,4.37-4.35,4.35-24.79-.16-49.58-.17-74.37,0-3.66.03-4.29-1.17-4.31-4.51-.28-80.53-.66-161.05-1.12-241.58-.02-3.09.76-3.88,3.86-3.87,25.29.12,50.58.14,75.87-.05,3.73-.03,4.27,1.3,4.26,4.57-.1,40.26-.06,80.53-.06,120.79h.13Zm-41.76,101.62c5.65-.01,11.31-.2,16.96.03,3.76.15,5.19-1.33,4.85-4.97-.15-1.65-.04-3.32-.06-4.99-.02-1.29-.43-2.45-1.95-2.27-3.76.44-3.38-2.07-3.38-4.44,0-16.46.35-32.94-.15-49.38-.46-15.23-11.13-23.44-25.47-19.12-7.41,2.23-12.1,9.81-12.11,18.77-.01,16.13.05,32.26.06,48.39,0,2.32.62,4.27-3.12,5.29-3.99,1.1-2.76,5.74-2.64,9.02.1,2.74,2,3.77,4.77,3.72,6.32-.13,12.64-.05,18.96-.06,1.09,2.23,2.18,2.25,3.28,0Zm-21.2-133.14c-.32.33-.64.66-.96.99-6.25-.39-4.65,4.15-5.04,7.71-.45,4.17,1.15,5.69,5.25,5.65,12.81-.12,25.61-.01,38.42-.09,1.63-.01,4.41.7,4.23-2.03-.22-3.41,2.23-8.03-1.24-9.98-3.23-1.83-3.33-3.74-3.31-6.58.1-16.3.28-32.6.1-48.9-.1-9.3-6.53-17.12-14.68-18.72-9.51-1.86-17.03,2.21-21.5,11.38-1.53,3.14-1.39,6.41-1.4,9.67-.01,16.96.07,33.93.13,50.89Z"/>
  <path class="cls-3" d="m534.77,657.25c-.33,55.73-.66,111.47-.97,167.2-.14,25.63-.38,51.25-.24,76.88.02,4.56-1.33,5.41-5.56,5.38-23.79-.19-47.59-.16-71.39.02-3.74.03-5.04-.67-5.03-4.77.14-79.88.15-159.75-.01-239.63,0-4.58,1.33-5.44,5.54-5.42,25.46.12,50.92-.03,76.38-.09.43.14.86.29,1.29.43Zm-20.63,65.91h-.08c0-8.48.29-16.98-.08-25.45-.34-7.85-3.34-14.82-11.2-17.66-7.73-2.79-16.02-2.69-21.87,4.98-2.94,3.85-4.41,8.03-4.4,12.82.03,16.3.01,32.61.07,48.91,0,2.66.38,4.48-3.52,5.5-4.65,1.21-2.08,6.25-2.44,9.61-.28,2.63,2.05,3.23,4.1,3.23,13.64.01,27.28-.09,40.92-.14,2.01,0,3.07-.75,2.92-2.98-.16-2.32-.01-4.66-.06-6.98-.02-.91.33-2.35-1.15-2.24-3.93.31-3.16-2.54-3.18-4.65-.08-8.32-.03-16.63-.03-24.95Zm-.22,119.27c.09,0,.18,0,.27,0,0-4.66.04-9.32-.01-13.98-.05-4.66.25-9.37-.34-13.96-1.95-15.01-15-20.56-27.14-15.23-6.94,3.05-10.38,9.35-10.33,17.26.11,16.64.13,33.29.08,49.93,0,1.47,1.3,3.78-1.94,4.11-6.62.68-3.54,5.91-3.82,9.21-.33,3.89,2.78,4.15,5.85,4.12,10.98-.1,21.97-.08,32.96-.15,9.86-.07,9.86-.1,9.03-9.77-.09-1.05.44-2.64-1.5-2.42-3.53.39-3.1-2.04-3.1-4.16-.01-8.32,0-16.64,0-24.97Z"/>
  <path class="cls-3" d="m805.94,657.92c-.23,19.3-.55,38.61-.68,57.91-.4,62.07-.71,124.14-1.12,186.21-.01,1.76,1.39,4.44-2.53,4.63-3.88.19-3.3-2.23-3.3-4.47-.03-29.13-.01-58.25-.06-87.38-.01-8.53-1.91-16.57-7.16-23.47-6.56-8.63-15.16-13.23-26.2-13.82-9.49-.5-17.94,1.45-25.13,7.75-6.9,6.04-12.3,13.35-12.4,22.74-.35,31.45-.22,62.91-.15,94.37,0,3.09-.55,4.41-4.02,4.22-3.59-.19-2.38-2.63-2.4-4.25-.19-24.96-.26-49.93-.38-74.89-.27-55.76-.54-111.51-.87-167.27-.01-2.31.18-3.8,2.61-5.14,4.13-2.29,5.32-6.17,3-10.97h75.24c-1.64,4.02-2.2,7.83,1.9,10.6.18,2.24,2.93,1.59,3.64,3.22Zm-61.7,25.83c-.1.1-.29.21-.28.3.02.26.12.52.18.78-.02,18.26-.03,36.52-.05,54.77-.3.68-.6,1.35-.9,2.03-5.95-.53-4.77,3.78-4.99,7.25-.25,3.82.98,5.97,5.24,5.94,12.48-.1,24.96-.04,37.44-.03,6.3,0,6.41.03,6.22-6.35-.07-2.28,1.31-5.93-1.95-6.39-3.62-.51-3.18-2.37-3.17-4.7.04-16.31-.04-32.61.08-48.92.06-7.7-3.06-14.26-9.61-17.33-12.3-5.77-24.45-2.19-28.22,12.66Z"/>
  <path class="cls-3" d="m762.29,627.84c-72.91,0-145.83-.01-218.74.04-3.07,0-4.57-.05-5.34-4.11-1.03-5.4.85-10.35.47-15.51-.15-2.06,1.6-1.76,2.86-1.77,5.66-.03,11.31.02,16.97.02,57.76-.06,115.52-.15,173.29-.17,46.44-.01,92.88.06,139.32.11,36.62.04,73.24.18,109.86.04,4.32-.02,5.46,1.26,5.01,5.31-.58,5.23,2.32,12.46-1,15.22-3.18,2.64-10.14.81-15.44.81-69.08.02-138.17.01-207.25.02Z"/>
  <path class="cls-3" d="m672.39,811.57c-3.19-9.08-8.99-14.32-19.22-14.01-9.63.29-17.76,7.51-17.88,17.18-.22,17.24-.13,34.49-.01,51.74.02,3.02-.45,4.83-3.96,4.14-.22-.4-.45-.81-.67-1.21-.08-33.24-.04-66.49-.36-99.73-.04-4.28.94-5.5,4.9-4.37.5.36.96.31,1.37-.15.56-.04,1.11-.08,1.67-.12,4.43.79,8.85.85,13.27-.09,7.15.04,14.3-.02,21.45.15,3.37.08,4.95-1.01,4.43-4.6-.26-1.79-.04-3.65-.05-5.48,0-.81.13-2.21-.61-2.2-5.76.09-3.48-4.23-3.5-6.74-.14-15.96-.05-31.93.02-47.89.03-7.5-5.79-16.88-13.7-18.9-13.18-3.36-23.83,4.88-24.11,16.64-.41,16.95-.24,33.92-.05,50.88.04,3.71-.54,5.73-5.2,4.84,0-13,.05-26.12-.01-39.24-.08-17.13-.22-34.25-.41-51.38-.03-2.77.21-4.81,3.19-6.46,3.54-1.96,4.39-5.64,2.82-9.57.24-.34.49-.68.73-1.01,12.92-.03,25.83-.06,38.75-.09.09.68.19,1.36.28,2.04-.77,4.27-.28,7.96,4.48,9.64,2.96,1.05,1.91,3.54,1.9,5.52-.26,40.56-.58,81.11-.86,121.67-.28,39.89-.56,79.78-.73,119.67-.01,3.12-.64,4.29-4.07,4.23-13.79-.21-27.59-.22-41.39,0-3.48.06-4.08-1.17-3.98-4.25.18-5.97-.03-11.96-.09-17.94.56-.25,1.13-.5,1.69-.75,13.95-.1,27.9-.2,41.85-.31,1.44,1.6,1.44-.35,2.04-.83,2.14-4.99,1.3-9.43-2.34-12.14-1.68-1.25-.96-3.03-.96-4.54-.05-15.56.01-31.12-.01-46.68,0-2.14-.3-4.28-.46-6.42.07-.14.23-.31.19-.41-.09-.28-.26-.54-.4-.81Z"/>
  <path class="cls-3" d="m573.47,655.81c6.11-3.08,6.86-4.77,5.21-11.75,2.48-.41,4.93-.39,7.74.07-2.38,5.18-.59,9.15,4.02,11.49,2.67,1.36,1.83,3.27,1.81,5.03-.19,26.95-.51,53.9-.69,80.85-.37,53.4-.73,106.8-.9,160.2-.01,4.26-1.15,5.18-5.23,5.04-11.3-.37-11.41-.17-11.47-11.34-.5-79.52-.95-159.04-1.42-238.56.31-.34.62-.69.93-1.03Z"/>
  <path class="cls-3" d="m761.71,918.69c-105.37,0-210.75,0-316.12-.07-1.79,0-4.83,1.79-5.01-2.56-.15-3.58.61-4.81,4.53-4.79,43.11.15,86.23.09,129.34.08,121.53-.02,243.05-.05,364.58-.06,46.28,0,92.56.03,138.83.08,2.45,0,5.26-1,5.1,3.65-.13,3.83-1.91,3.78-4.63,3.77-21.64-.05-43.28-.02-64.92-.02-83.9,0-167.8,0-251.7,0,0-.02,0-.05,0-.07Z"/>
  <path class="cls-3" d="m932.19,905.4c.02-13.24.03-26.48.05-39.73.38-.21.75-.42,1.13-.63-.38-.21-.76-.42-1.13-.63-.35-67.84-.69-135.67-1.08-203.51-.02-2.63.34-4.37,2.98-5.99,3.86-2.37,4.87-6.39,2.95-10.99h7.29c-2.44,5.23-1.88,8.71,2.71,11.02,2.62,1.32,2.96,2.81,2.94,5.25-.16,18.12-.22,36.25-.31,54.37-.19.42-.38.84-.56,1.25-.06,32.9-.05,65.8-.19,98.69-.12,29.09-.48,58.19-.55,87.28,0,3.82-.98,5.31-4.96,4.87-3.45-.38-6.97-.1-10.46-.12-.27-.38-.53-.77-.8-1.15Z"/>
  <path class="cls-3" d="m762.22,632.17c73.07,0,146.14,0,219.21-.02,2.53,0,4.77-.71,4.73,3.46-.04,3.97-1.82,4.09-4.85,4.09-58.76-.03-117.51.05-176.27.05-87.38,0-174.77-.04-262.15.03-3.04,0-4.34-.38-4.44-3.9-.11-3.87,1.82-3.79,4.56-3.79,73.07.04,146.14.03,219.21.03v.05Z"/>
  <path class="cls-2" d="m762.73,595.07c75.08,0,150.15,0,225.23.03,2.22,0,5.17-1.22,5.18,3.16,0,3.32-1.44,3.76-4.22,3.73-11.99-.1-23.97-.01-35.96-.01-128.35.01-256.7.02-385.04.03-10.38,0-20.76-.18-31.13.09-3.58.09-4.34-1.02-4.48-4.42-.16-4.04,2.46-2.72,4.19-2.72,47.44-.04,94.89-.02,142.33,0,27.97,0,55.93,0,83.9,0,0,.04,0,.08,0,.13Z"/>
  <path class="cls-3" d="m893.66,657.96c-.25,31.96-.49,63.91-.74,95.87-.58-.07-1.17-.14-1.75-.21-5.19-.58-4.79-4.25-4.76-8.07.14-15.95.41-31.92,0-47.86-.43-17.02-15.49-22.65-27.36-17.16-5.68,2.63-9.79,7.47-9.9,14.19-.28,16.78-.25,33.56-.34,50.34,0,1.16,0,2.33.02,3.49.02,1.7.22,3.19-2.42,3.29-2.88.11-2.28-1.69-2.29-3.2-.09-9.47-.13-18.95-.2-28.42-.15-19.61-.29-39.22-.48-58.83-.03-3.04-.03-5.37,3.63-7.09,3.66-1.71,4.13-5.66,2.11-9.44.34-.32.67-.64,1.01-.96,12.26.03,24.52.07,36.78.1.21.34.43.69.64,1.03-1.37,6.43.09,9.39,5.73,11.61.1.45.21.89.31,1.34Z"/>
  <path class="cls-3" d="m844.42,825.45c-.14-18.79-.24-37.57-.46-56.36-.03-2.84.04-4.3,3.83-4.17,12.46.41,24.93.27,37.4.25,2.04,0,4.37.65,5.93-1.48.56.05,1.11.1,1.67.15v108.15c-.81.09-1.1.19-1.35.14-6.4-1.28-4.88-6.31-4.91-10.53-.1-15.96-.13-31.92-.19-47.88.08-.13.25-.29.22-.38-.09-.28-.25-.53-.39-.8-2.2-6.82-5.57-12.5-13.16-14.52-12.24-3.25-23.82,5.7-23.94,16.02-.23,18.46-.1,36.92-.12,55.39-.29.34-.58.68-.87,1.02-.95-.02-1.9-.04-2.85-.06-.23-.35-.46-.69-.7-1.04-.04-14.21-.07-28.42-.11-42.63.65-.43.63-.86,0-1.29Z"/>
  <path class="cls-3" d="m731.34,860.52c0-13.64.11-27.28-.08-40.91-.04-3.29.86-4.23,4.14-4.1,6.98.27,13.97.23,20.95.05,2.93-.07,4.06.6,4.04,3.81-.11,27.61-.08,55.22,0,82.83,0,3.18-1.02,4.47-4.33,4.39-6.81-.17-13.64-.21-20.45.06-3.34.13-4.29-1.03-4.26-4.21.12-13.97.05-27.94.05-41.91h-.08Zm23.07-20.9s.05,0,.08,0c0-3.32-.02-6.64,0-9.96q.04-6.92-7.01-7.16c-1.31-.04-2.52-.47-3.76-.73-5.06-1.04-6.81.67-6.73,5.87.08,5.31.09,10.62.1,15.93q.02,13.76,13.64,12.81c.17-.01.33,0,.5,0,2.27.05,3.27-.96,3.21-3.32-.11-4.48-.03-8.96-.03-13.44Zm-17.2,47.1q-.01,14.63,13.22,13.76c.17-.01.33-.02.5-.01,2.22.08,3.41-.88,3.41-3.2,0-6.63.21-13.26.03-19.88-.08-2.87-1.6-4.48-5.03-4.48-12.16-.02-12.16-.16-12.12,11.83,0,.66,0,1.33,0,1.99Zm12.11-22.21c-.11,2.27,1.18,2.97,3.36,3.08,2.46.13,3.3-1.57,3.33-3.27.04-1.9-1.73-2.82-3.49-2.62-1.47.16-3.45.28-3.2,2.81Z"/>
  <path class="cls-3" d="m904.45,905.32c.28-79.79.56-159.59.84-239.38.62-.32,1.25-.64,1.87-.96,3.19-.59,3.76.84,3.76,3.85-.17,65.72-.21,131.45-.29,197.17-.01,11.81-.35,23.64.04,35.43.16,4.74-1.44,5.84-5.56,5-.22-.37-.45-.74-.67-1.11Z"/>
  <path class="cls-3" d="m764.93,825.41q-.07-9.71,9.36-9.8c4.66-.04,9.35.27,13.96-.19,4.96-.5,6.71,1.29,5.71,6.04-.61.4-.71.82-.06,1.28,0,.9-.01,1.79-.02,2.69-.66.45-.61.88.03,1.3.02,5.57.03,11.14.05,16.71-.88,1.41-.87,2.83,0,4.24.02,5.92.04,11.84.06,17.76-.71,1.4-.78,2.8,0,4.19-.02,10.95-.13,21.9,0,32.85.04,3.21-.93,4.3-4.24,4.18-7.12-.26-14.27-.21-21.4-.04-2.62.06-3.48-.75-3.43-3.32.15-8.95.15-17.9.2-26.85.42.02.87,0,.74-.58-.03-.14-.48-.18-.73-.26-.14-5.3-.27-10.59-.41-15.89.72-1.12.74-2.23-.02-3.33.07-9.87.14-19.74.21-29.61,0-.46,0-.91.01-1.37Zm7.36,47.61c-2.24.65-1.77,2.56-1.79,4.11-.07,3.82.04,7.64,0,11.45-.16,14.79-1.3,12.69,13.54,12.93,3.06.05,4.18-1.14,4.15-4.04-.07-6.81-.09-13.61-.01-20.42.03-3-1.43-4.17-4.24-4.15-3.15.02-6.31,0-9.46,0-.76-.49-1.49-.58-2.18.13Zm-1.01-17.51c.24.56.61.81,1.21.51,3.97.12,7.96.1,11.92.41,3.25.25,3.87-1.29,3.82-4.13-.14-8.62-.21-17.25,0-25.87.1-3.97-1.48-5.08-5.25-5.15-12.44-.24-12.6-.36-12.44,12.01.1,7.41-.99,14.87.73,22.23Zm.76,6.07c-1.82.39-3.58,1.17-3.73,3.26-.18,2.46,1.64,2.73,3.67,2.79,2.12.07,3.15-.83,3.17-2.83.02-1.96-1.07-3.02-3.11-3.22Z"/>
  <path class="cls-3" d="m692.72,905.32c.12-19.85.23-39.71.35-59.56.58-3.78.61-7.56.05-11.34,0-1.23,0-2.46,0-3.68.58-4.75.56-9.51.04-14.26,0-.58,0-1.16,0-1.75.49-2.07.49-4.15.03-6.22.11-46.17.22-92.33.34-138.5,0-2.57-.72-5.74,3.72-5.12.57.37,1.13.74,1.7,1.11-.01,56.22-.03,112.44-.04,168.66,0,22.12-.14,44.25.14,66.36.06,4.64-1.35,6.24-5.73,5.58-.2-.42-.4-.85-.6-1.27Z"/>
  <path class="cls-3" d="m823.09,786.14c0,38.61.01,77.21-.03,115.82,0,2,1.18,4.69-2.97,4.69-3.47,0-3.11-1.78-3.1-4.02.08-18.8.1-37.61.15-56.41.15-58.57.3-117.15.46-175.72,0-1.49-.16-3.06.23-4.46.49-1.74,2.23-1.1,3.43-1.03,2.71.17,1.77,2.38,1.77,3.82.04,23.46.02,46.93.01,70.39,0,15.64,0,31.28,0,46.93h.05Z"/>
  <path class="cls-3" d="m975.79,667.88c0,14.91,0,29.82,0,44.72-.51.41-.49.82,0,1.23.13,62.89.27,125.78.41,188.68,0,2.11.64,4.21-2.97,4.18-3.51-.03-3.08-2.03-3.08-4.21.02-78.87.02-157.73.03-236.6.33-.28.65-.56.98-.84.59-.04,1.18-.08,1.77-.12,1.62.34,2.37,1.53,2.88,2.95Z"/>
  <path class="cls-3" d="m552.18,843.76c.02,5.88.05,11.76.07,17.64-1.96.76-1.99,1.53,0,2.31-.04,12.81-.08,25.62-.1,38.43,0,2.31.58,4.57-3.27,4.48-3.88-.09-2.69-2.65-2.69-4.47.11-64.71.28-129.42.45-194.12.03-12.81.07-25.62.19-38.42.02-1.92-.99-4.67,2.7-4.61,3.81.06,2.46,2.94,2.46,4.74.11,56.89.15,113.78.2,170.67-2.3,1.12-2.3,2.24,0,3.37Z"/>
  <path class="cls-3" d="m609.33,785.63c0,38.78,0,77.56-.02,116.35,0,2.07,1.09,4.7-3.02,4.64-4.17-.06-2.91-2.83-2.9-4.8.2-74.57.47-149.13.72-223.7,0-2.83-.01-5.66.01-8.49.02-1.89-.64-3.98,2.73-3.95,3.57.03,2.48,2.38,2.48,4.1-.01,32.79-.08,65.58-.13,98.37,0,5.83,0,11.65,0,17.48h.13Z"/>
  <path class="cls-3" d="m792.08,810.83c-18.62,0-37.24-.05-55.86.03-3.93.02-5.38-.35-4.17-5.28,3.69-15.13,18.2-26.5,35.25-23.73,13.61,2.2,24.47,12.18,26.06,27.65-.02.4-.03.8-.05,1.21h-.03c-.4.05-.8.09-1.2.13Z"/>
  <path class="cls-3" d="m618.2,841.68c.03,20.14.08,40.28.04,60.43,0,1.79,1.27,4.36-2.62,4.51-3.97.16-3.26-2.27-3.26-4.48.01-70.41.04-140.83.06-211.24,0-7.16-.01-14.32.02-21.47,0-1.71-.61-3.64,2.43-3.77,3.42-.15,2.74,2.04,2.74,3.91.08,31.29.15,62.59.22,93.88-.42.47-.39.93.05,1.37.1,23.54.2,47.09.29,70.63-.85,2.08-.84,4.15.03,6.21Z"/>
  <path class="cls-3" d="m832.08,785.11c0,38.94.02,77.89-.07,116.83,0,1.6,1.52,4.13-1.92,4.65-3.49.53-4.04-1.06-4.03-4.12.07-31.96,0-63.91,0-95.87,0-45.6,0-91.21.04-136.81,0-1.46-.57-3.12.47-4.33.94-1.09,2.56-.87,3.75-.57,1.81.46.99,2.21.99,3.38.04,38.94.03,77.89.03,116.83.25,0,.49,0,.74,0Z"/>
  <path class="cls-3" d="m707.28,906.46c-4.94,1.31-5.24-1.52-5.23-5.36.11-77.36.12-154.73.2-232.09,0-1.72-1.02-4.13,2.49-4.19,3.82-.06,2.75,2.61,2.76,4.48.18,47.08.3,94.17.42,141.25.07,26.95.11,53.9.17,80.86-.66.74-.68,1.48-.02,2.23.03,3.92.05,7.85.08,11.77-.29.35-.58.71-.87,1.06Z"/>
  <path class="cls-3" d="m961.18,906.37c.25-78.54.49-157.09.74-235.63,0-1.33-.26-2.75.12-3.97.54-1.74,2.28-.97,3.45-.9,2.47.14,1.48,2.21,1.49,3.45.1,15.64.13,31.29.13,46.93,0,45.27-.03,90.53-.04,135.8,0,16.48-.18,32.97.15,49.45.08,4.25-1.16,5.64-5.1,5.18-.3-.15-.61-.25-.94-.29Z"/>
  <path class="cls-3" d="m555.52,665.87c4.11-.91,5.16.62,5.16,4.86.08,76.89.36,153.78.5,230.67,0,1.66,1.59,4.29-1.41,5.03-3.1.76-4.57-.1-4.55-3.98.16-41.11.1-82.22.09-123.33,0-36.45-.02-72.9-.01-109.35,0-1.32.17-2.64.26-3.96l-.03.06Z"/>
  <path class="cls-3" d="m543.08,786.12c0,38.76,0,77.52,0,116.28,0,2.02.85,4.35-2.9,4.28-3.5-.07-2.58-2.29-2.57-4.05.4-74.03.84-148.05,1.25-222.07.02-3.64-.27-7.27-.32-10.91-.02-1.83-.8-4,2.66-3.94,3.62.07,2.4,2.49,2.41,4.14.05,38.76.04,77.52.04,116.28-.19,0-.37,0-.56,0Z"/>
  <path class="cls-3" d="m984.01,906.52c-5.21,1.2-4.66-2.46-4.67-5.58-.11-37.95-.22-75.91-.31-113.86-.09-38.79-.15-77.57-.21-116.36,0-1.66.08-3.32.13-4.98.39-.23.78-.47,1.18-.7,3.07-.46,3.41,1.16,3.42,3.8.2,56.9.48,113.79.78,170.69.12,21.96.33,43.92.5,65.87-.27.37-.54.75-.82,1.12Z"/>
  <path class="cls-3" d="m928.05,785.63c0,38.95,0,77.9-.03,116.85,0,1.7,1.15,4.07-2.43,4.11-3.91.04-2.67-2.64-2.67-4.46-.28-75.91-.5-151.82-.73-227.72,0-2.33,0-4.66-.07-6.99-.04-1.48.09-2.59,2.07-2.53,1.7.05,2.98.25,2.84,2.39-.08,1.16-.01,2.33-.01,3.49,0,38.29,0,76.57,0,114.86.35,0,.7,0,1.05,0Z"/>
  <path class="cls-3" d="m687.42,664.93c3.44-.64,3.15,1.54,3.14,3.87-.14,38.45-.19,76.91-.33,115.36-.14,37.95-.35,75.91-.53,113.86,0,1.5.07,3.01-.09,4.49-.19,1.73.84,4.05-2.64,4.08-3.49.03-2.62-2.19-2.62-3.99.02-11.65.1-23.3.16-34.96.75-1.06.78-2.13.02-3.21.58-66.24,1.15-132.48,1.73-198.72.38-.26.77-.52,1.15-.78Z"/>
  <path class="cls-3" d="m813.96,876.65c.02,8.59.04,17.18.07,25.77-.49.73-.5,1.44.05,2.14-.37,3.85-3.23,1.33-4.88,1.91-.26-.37-.53-.73-.79-1.1-.01-4.92-.02-9.84-.03-14.76.78-1.4.81-2.8.02-4.21.53-72.56,1.05-145.13,1.62-217.69.01-1.29-1.01-3.24,1.18-3.79,3.48-.87,3.18,1.55,3.17,3.8-.05,16.98-.07,33.95-.1,50.93-.08,48.27-.17,96.53-.25,144.8-.86,4.06-.97,8.12-.06,12.18Z"/>
  <path class="cls-3" d="m952.45,906.26c.28-47.28.53-94.55.83-141.83.2-30.46.47-60.92.7-91.38.01-1.83.32-3.76-.16-5.46-.57-2.03-.05-2.72,1.87-2.76,1.68-.03,3.5-.24,3.14,2.42-.09.65-.02,1.33-.03,2-.23,55.6-.47,111.2-.67,166.8-.08,21.82-.2,43.63,0,65.45.04,4.12-.93,5.84-5.1,5.03l-.2-.33s-.38.07-.38.07Z"/>
  <path class="cls-3" d="m487.58,615.24c14.3,0,28.6.05,42.89-.04,3.21-.02,4.91.64,3.19,4.17-.14.28-.12.64-.18.97-.52,2.45,1.42,5.82-1.19,7.21-1.95,1.03-4.88.22-7.37.22-26.77,0-53.54-.08-80.31.07-3.73.02-5.71-.63-4.83-4.77.1-.48.02-.99.03-1.49.07-6.53.07-6.48,6.38-6.46,13.8.04,27.6.01,41.4.01,0,.04,0,.08,0,.12Z"/>
  <path class="cls-3" d="m569.69,786.17c0,38.44.01,76.88-.05,115.32,0,1.65,1.05,4.1-1.1,4.84-2.87,1-4.31-.11-4.29-3.66.13-22.8.06-45.59-.02-68.39-.19-53.41-.42-106.83-.63-160.24,0-1.33-.17-2.69.05-3.99.27-1.61-1.37-4.19,2.26-4.29,3.64-.1,2.4,2.45,2.42,4.1.15,18.64.26,37.27.3,55.91.05,20.13.01,40.27.01,60.4h1.05Z"/>
  <path class="cls-3" d="m919.04,906.48c-3.54.73-5.25.1-5.24-4.33.15-77.5.12-155,.14-232.5,0-1.86-.73-4.03,2.69-3.94,4.01.12,2.39,2.97,2.39,4.63.25,75.01.41,150.01.59,225.02,0,3.33.09,6.65.13,9.98-.24.38-.48.76-.71,1.14Z"/>
  <path class="cls-3" d="m1035.91,627.82c-13.97,0-27.95-.13-41.92.09-3.4.05-4.42-1-4.02-4.16.19-1.47.07-2.99.02-4.49-.1-3.1,1.24-4.29,4.44-4.28,28.61.09,57.22.09,85.83-.01,2.77,0,3.55.98,3.3,3.46-.27,2.59-.37,5.2-.74,7.77-.38,2.69-2.61,1.48-3.99,1.49-14.3.09-28.61.05-42.92.05v.08Z"/>
  <path class="cls-3" d="m899.18,664.94c3.56-.63,3.07,1.78,3.06,3.97-.11,34.61-.15,69.22-.29,103.84-.18,42.93-.43,85.86-.67,128.79,0,1.48.18,3.13-.41,4.38-.65,1.37-2.43.69-3.63.56-2.06-.22-1.19-2.06-1.19-3.19.09-25.46.19-50.92.38-76.38.25-34.94.54-69.88.86-104.82.18-18.8.47-37.59.7-56.39.39-.25.78-.51,1.17-.76Z"/>
  <path class="cls-3" d="m594.63,905.38c.02-6.58.03-13.16.05-19.74.86-1.75.84-3.49-.03-5.23.57-70.22,1.13-140.44,1.72-210.66.02-1.81-.85-4.24,2.58-4,3.74.27,1.79,3.1,1.79,4.49-.09,69.06-.32,138.12-.54,207.18-.88,2.07-.87,4.15.01,6.22-.05,6.15-.31,12.31-.07,18.45.15,3.75-1,5.27-4.75,4.45-.25-.39-.51-.77-.76-1.16Z"/>
  <path class="cls-3" d="m715.29,665.77c.38,78.83.77,157.65,1.1,236.48,0,1.77,1.43,4.54-2.59,4.41-3.89-.12-2.51-2.86-2.52-4.61-.2-61.86-.36-123.73-.43-185.59-.02-16.95-.79-33.92.31-50.86,1.38.06,2.76.12,4.14.18Z"/>
  <path class="cls-3" d="m621.44,665.85c3.36-.73,4.05.81,4.07,3.95.26,61.54.64,123.08.97,184.62.09,15.97.12,31.93.08,47.9,0,1.65,1.25,4.1-2.32,4.27-3.48.17-2.71-2.09-2.71-3.91-.16-78.18-.3-156.35-.42-234.53,0-.81.24-1.61.37-2.42l-.04.12Z"/>
  <path class="cls-3" d="m840.09,811.65c.06,16.98,1.07,34.02-.13,50.91-.94,13.29,1.5,26.34.6,39.51-.15,2.23.23,4.44-3.09,4.45-3.62.01-2.25-2.72-2.25-4.29-.24-68.08-.4-136.15-.58-204.23-.03-9.65-.15-19.31-.14-28.96,0-1.61-.95-3.9,2.14-4.04,3.54-.16,2.44,2.47,2.46,4.17.29,31.46.52,62.91.77,94.37-.79,5.41-.85,10.83,0,16.25,0,3.57.02,7.15.02,10.72-.9,7.06-.54,14.1.2,21.14Z"/>
  <path class="cls-3" d="m892.04,881.31c0,8.01-.06,15.29.04,22.56.03,2.28-.97,2.75-2.99,2.74-13.79-.05-27.58-.07-41.37.02-2.18.01-2.88-.66-2.85-2.82.1-5.81.17-11.64-.04-17.44-.11-2.96,1.61-2.64,3.48-2.63,11.3.03,22.6-.02,33.9.06,3.29.02,6.57.29,9.84-2.5Z"/>
  <path class="cls-3" d="m433.76,603.1c29.9-.05,59.79-.09,89.69-.14,1.07.23,2.13.45,3.2.68,1.07,2.14,2.29,3.89,5.19,3.26,1-.22,2.4-.42,2.63,1.36.21,1.65-.81,2.42-2.04,2.92-.88.35-1.93.59-2.86.49-17.64-1.85-35.33-.52-52.99-.85-12.43-.23-24.87-.05-37.31-.04q-6.75,0-6.55-6.87c.35-.27.69-.54,1.04-.81Z"/>
  <path class="cls-3" d="m1089.98,603.69c-.34,7.07-.34,7.12-7.48,7.12-29.62,0-59.23-.02-88.85-.11-1.29,0-3.54,1.31-3.68-1.72-.12-2.64,1.81-2.9,3.54-3.04,1.83-.15,3.69.17,4.46-2.09,1.37-.28,2.89.29,4.12-.73,27.54,0,55.08,0,82.63.01.43.65.86.63,1.29,0,.58,0,1.15-.01,1.73-.02.75.19,1.5.39,2.25.58Z"/>
  <path class="cls-3" d="m446.71,632c28.87.03,57.74.05,86.61.08.33.62.66,1.23.99,1.85,0,1.26,0,2.53,0,3.79-.3.66-.61,1.32-.91,1.97-28.1.08-56.19.12-84.29.26-6.43.03-2.34-4.7-3.42-7.08.34-.29.68-.58,1.02-.88Z"/>
  <path class="cls-3" d="m1033.42,639.85c-13.14,0-26.29-.11-39.42.08-3.29.05-4.15-.91-4.14-4.15.01-3.17.99-3.75,4-3.74,26.28.1,52.57.06,78.85-.09,3.11-.02,4.33.58,4.29,4.01-.04,3.25-.88,4.11-4.16,4.06-13.14-.21-26.28-.09-39.42-.09v-.09Z"/>
  <path class="cls-3" d="m1035.25,652.51c-12.64,0-25.29-.19-37.93.12-3.75.09-3.36-1.66-3.35-4.1.02-2.5-.2-4.15,3.49-4.12,25.12.23,50.24.2,75.36.09,3.13-.01,4.2.57,4.21,3.99.01,3.57-1.33,3.98-4.36,3.95-12.48-.15-24.95-.06-37.43-.06,0,.05,0,.09,0,.14Z"/>
  <path class="cls-3" d="m527.39,652.58c-23.54-.05-47.09-.1-70.63-.15-.43-.64-.87-.66-1.34-.04-1.82,0-3.65-.1-5.47.03-2.91.2-4.51-.28-4.5-3.96,0-3.58,1.42-3.96,4.38-3.95,25.19.03,50.39-.05,75.58-.16,2.35-.01,3.78.13,3.06,3.15-.36,1.53.17,3.27.29,4.92-.46.06-.92.12-1.38.18Z"/>
  <path class="cls-3" d="m610.37,651.8c-5.31,0-10.62-.1-15.93.04-2.41.06-3.85-.76-4.07-3.18-.25-2.69,1.31-4.15,3.79-4.19,11.28-.17,22.57-.2,33.85-.26,2.47-.01,3.44,1.2,3.44,3.74,0,2.68-1.4,3.61-3.65,3.64-5.81.08-11.62.03-17.42.03,0,.06,0,.11,0,.17Z"/>
  <path class="cls-3" d="m553.97,644.33c5.63,0,11.27.04,16.9-.02,2.76-.03,3.69,1.17,3.67,3.93-.02,2.79-1.5,3.44-3.72,3.45-11.27.02-22.54,0-33.8-.03-2.4,0-4.46-.8-4.35-3.58.1-2.56,1.84-3.64,4.4-3.61,5.63.06,11.27.02,16.9.02,0-.05,0-.11,0-.16Z"/>
  <path class="cls-3" d="m825.11,651.77c-5.48,0-10.96-.04-16.45.02-2.52.02-5.13-.6-5.28-3.25-.16-2.84,2.37-4.23,5.08-4.24,11.13-.03,22.26.09,33.39.15,2.48.01,4.43.93,4.22,3.68-.19,2.49-1.95,3.66-4.51,3.64-5.48-.04-10.96-.01-16.45,0Z"/>
  <path class="cls-3" d="m912.28,651.72c-5.31,0-10.62-.04-15.93.02-2.5.02-5.04-.31-5.13-3.3-.08-2.71,2.03-3.92,4.68-3.94,10.95-.08,21.89-.17,32.84-.23,2.69-.01,4.38,1.01,4.32,4.11-.06,3.1-2.07,3.4-4.37,3.42-5.47.03-10.95,0-16.42,0v-.08Z"/>
  <path class="cls-3" d="m700.78,651.68c-5.16,0-10.31-.03-15.47.01-2.61.02-5.62-.15-5.78-3.21-.17-3.24,2.62-4.07,5.6-4.05,10.14.06,20.29-.02,30.43.07,2.49.02,5.68-.7,5.76,3.54.09,4.29-3.01,3.59-5.58,3.62-4.99.06-9.98.02-14.97.02Z"/>
  <path class="cls-3" d="m969.48,644.53c5.47,0,10.93,0,16.4,0,2.14,0,4.15.49,4.19,3.09.05,2.53-1.45,4.03-4.04,4.04-11.26.06-22.53.08-33.79.07-2.22,0-4.05-.9-4.11-3.36-.07-2.48,1.29-3.95,3.96-3.94,5.8.02,11.59,0,17.39,0,0,.03,0,.06,0,.09Z"/>
  <path class="cls-3" d="m652.37,741.58c0,.33,0,.66,0,.99.05,9.94-.75,10.59-10.7,9.25-1.68-.23-2.32-.79-2.31-2.42.04-5.46.07-10.91.02-16.37-.02-1.68.58-2.49,2.3-2.3.16.02.33.01.5,0q10.13-.73,10.2,10.85Z"/>
  <path class="cls-3" d="m866.03,741.26c0,.66,0,1.33,0,1.99.07,8.42.07,8.22-8.1,8.49-3.78.12-5.3-.76-4.93-4.82.4-4.44.22-8.95.1-13.43-.06-2.19.75-2.71,2.87-2.83,9.97-.56,9.97-.64,10.06,10.6Z"/>
  <path class="cls-3" d="m882.21,741.4c0,.33,0,.66,0,1-.03,10.13-.03,10.04-10.19,9.32-2.21-.16-2.88-.86-2.79-2.95.14-3.15.1-6.31.09-9.46-.01-8.83,2.09-10.41,10.97-8.65,1.94.38,1.9,1.42,1.89,2.77,0,2.66,0,5.31,0,7.97h.02Z"/>
  <path class="cls-3" d="m652.33,860.18c0,.5,0,1,0,1.5.06,9.25-1.52,10.48-10.76,8.85-1.83-.32-2.08-1.23-2.09-2.66-.03-5.15-.02-10.31-.11-15.46-.03-1.79.42-2.93,2.48-2.74.16.02.33,0,.5-.01q9.92-.82,9.98,10.53Z"/>
  <path class="cls-3" d="m652.37,835.6c0,1.33,0,2.65,0,3.98.04,7,.01,6.62-7,7.12-5.14.37-6.66-1.32-6.08-6.23.4-3.43.27-6.97-.02-10.43-.27-3.29.5-4.6,4.19-4.52,8.87.18,8.88-.03,8.92,10.09Z"/>
  <path class="cls-3" d="m871.25,824.89q10.94,0,10.93,10.72c0,1.5-.22,3.03.03,4.49.82,4.72-1.29,5.76-5.66,5.55-7.27-.34-7.28-.09-7.24-7.39.02-4.16.05-8.32.07-12.48.63-.29,1.25-.59,1.88-.88Z"/>
  <path class="cls-3" d="m668.56,860.21c0,.5,0,.99,0,1.49.02,9.34-1.27,10.31-10.64,8.86-2.3-.36-2.1-1.71-2.13-3.11-.1-4.96.01-9.93-.17-14.89-.09-2.46.88-2.97,3.18-3.04,9.76-.32,9.75-.4,9.77,10.69Z"/>
  <path class="cls-3" d="m668.77,741.3c0,.33,0,.66,0,.99.16,10.1.16,10.02-9.91,9.4-2.13-.13-2.85-.71-2.83-2.83.04-4.95-.04-9.91-.25-14.86-.11-2.6.87-3.27,3.43-3.32,9.46-.19,9.45-.3,9.56,10.63Z"/>
  <path class="cls-3" d="m865.99,867.62c-.01.61-.02,1.21-.03,1.82-.31.33-.61.66-.92.99q-11.95.18-11.89-11.61c0-.33,0-.66,0-1,.04-8.34.05-8.03,8.35-8.26,7.25-.21,3.39,5.02,4.38,7.87-.1.13-.29.27-.27.38.05.29.19.57.3.86.01,1.59.02,3.19.03,4.78-.68,1.4-.64,2.78.04,4.17Z"/>
  <path class="cls-3" d="m869.3,869.43v-20.11c3.64,2.8,7.01-.68,10.59,1.04,1.61.77,2.36,1.1,2.27,2.84-.09,1.82,0,3.64,0,5.46q.04,12.11-11.99,11.79c-.29-.34-.58-.68-.87-1.02Z"/>
  <path class="cls-3" d="m667.57,824.99c2.64,3.08.56,6.65,1.04,9.96.14.97,0,1.99,0,2.98-.01,8.09-.02,7.89-7.96,8.16-3.8.13-5.33-.73-5.02-4.84.39-5.11.1-10.28.1-15.42.59-.34,1.17-.68,1.76-1.02.92,0,1.84.01,2.76.02,2.42.9,4.87.95,7.33.16Z"/>
  <path class="cls-3" d="m853.11,835.63c0-1,0-1.99,0-2.99.01-7.05.04-6.66,6.98-7.16,5.13-.37,6.85,1.26,5.99,6.2-.28,1.61-.05,3.32-.06,4.98-.04,9.5-1.16,10.37-10.76,8.97-1.79-.26-2.17-.96-2.12-2.52.08-2.49.02-4.98.02-7.48h-.05Z"/>
  <path class="cls-3" d="m865.95,717c0,.17,0,.33,0,.5.11,9.93-.81,10.65-10.76,9.25-1.88-.26-2.06-1.06-2.04-2.53.06-4.98.13-9.96.04-14.94-.04-1.96.64-2.75,2.56-2.52.16.02.33,0,.5,0q9.6-.51,9.71,10.24Z"/>
  <path class="cls-3" d="m652.31,716.88c0,.66,0,1.33,0,1.99,0,7.84-.02,7.49-7.64,7.95-4.65.28-5.71-1.36-5.26-5.53.32-2.95.31-6-.02-8.95-.5-4.43.93-5.96,5.58-5.69,7.34.43,7.36.1,7.34,10.23Z"/>
  <path class="cls-3" d="m869.31,726.58c0-6.25,0-12.5,0-18.75l.87-1.02q12.1-.19,12.04,11.37-.05,8.48-8.52,8.52c-1.16,0-2.32.09-3.48.14-.28-.17-.58-.26-.9-.27Z"/>
  <path class="cls-3" d="m668.6,716.74c0,1.99-.24,4.01.05,5.96.59,3.92-1.16,4.61-4.7,4.56-8.06-.11-8.06.08-8.04-8.12,0-2.32.28-4.67-.03-6.95-.64-4.72.98-6.37,5.9-6.08,7,.41,7.02.07,6.82,10.64Z"/>
  <path class="cls-3" d="m652.3,692.08c0,.5,0,.99,0,1.49.02,9.73-1.04,10.6-10.75,9.17-1.32-.19-1.91-.45-2.17-1.95-1.23-7.17,2.87-14.52,9.68-17.51,2.84-1.25,3.5-.37,3.33,2.36-.13,2.14-.03,4.29-.03,6.44h-.07Z"/>
  <path class="cls-3" d="m652.35,811.32c0,1,0,1.99,0,2.99q.02,7.3-7.2,7.28-6.17-.01-5.72-6.22c.45-6.22,4.64-11.55,10.31-13.41,2.03-.67,2.74-.26,2.64,1.89-.11,2.49-.02,4.98-.04,7.48Z"/>
  <path class="cls-3" d="m866.04,692.37c0,.5,0,.99,0,1.49.06,9.06-2,10.68-11.07,8.85-1.13-.23-1.59-.51-1.84-1.75-1.37-6.78,2.88-14.62,9.35-17.5,2.92-1.3,3.89-.76,3.61,2.44-.19,2.14-.04,4.31-.04,6.46Z"/>
  <path class="cls-3" d="m870.13,682.77c10.14,4.19,12.24,7.5,12,18.99-.38.26-.76.51-1.15.77q-11.68-.26-11.64-12.26c0-2.13,0-4.26,0-6.39.26-.37.52-.74.79-1.11Z"/>
  <path class="cls-3" d="m865.97,811.57c0,.33,0,.66,0,.99.05,9.49-1.32,10.59-10.81,9.04-1.4-.23-1.83-.64-2.05-2.07-1.13-7.18,3.3-14.84,10.04-17.44,2.32-.89,2.96-.3,2.85,2.02-.12,2.48-.03,4.97-.02,7.45Z"/>
  <path class="cls-3" d="m655.78,692.12c0-1.49-.08-2.98.02-4.46.11-1.6-.57-4.03.84-4.55,1.28-.47,3.51.48,4.81,1.47,2.32,1.76,4.71,3.61,5.98,6.42,1.64,3.64,2.13,8.04-.1,10.76-2.08,2.53-6.52.74-9.92.87-1.69.06-1.48-1.54-1.52-2.59-.1-2.64-.03-5.28-.03-7.92-.02,0-.05,0-.07,0Z"/>
  <path class="cls-3" d="m869.27,819.5v-17.4c8.15.37,12.2,6.15,12.9,14.53.23,2.72-.1,4.44-3.56,4.02-2.78-.34-5.63-.12-8.45-.14-.3-.33-.6-.67-.9-1Z"/>
  <path class="cls-3" d="m667.17,821.18q-11.21-.16-11.33-11.44c0-.83-.13-1.68,0-2.48.33-1.85-.99-4.68,1.05-5.32,1.65-.52,4,.79,5.69,2.18,5.24,4.32,6.26,10.07,5.64,16.4-.35.22-.7.44-1.06.67Z"/>
  <path class="cls-3" d="m653.83,760.64c-5.49,0-10.98,0-16.47,0-1.47,0-3.02.34-2.98-2.11.04-2.25,1.31-2.25,2.94-2.25,11.14-.03,22.29-.07,33.43-.18,1.88-.02,2.66.52,2.62,2.54-.04,1.98-1.14,2.05-2.57,2.04-5.66-.02-11.31,0-16.97,0,0-.01,0-.02,0-.03Z"/>
  <path class="cls-3" d="m635.66,875.03c.51-.02,1.03-.04,1.54-.06.45.64.9.63,1.36.01,4.87.06,9.74.11,14.61.17.8.53,1.58.55,2.36-.04,4.99-.02,9.98-.05,14.97-.06,1.51,0,2.92-.18,2.88,2.23-.03,2.23-1.08,2.28-2.77,2.28-11.15-.04-22.3-.07-33.45.06-2.41.03-2.85-1.02-2.64-2.98.37-.53.75-1.06,1.12-1.59Z"/>
  <path class="cls-3" d="m850.28,874.86c11.12.02,22.24.05,33.36.06,1.57,0,3.37-.76,3.52,2.02.16,2.9-1.54,2.63-3.48,2.61-10.62-.09-21.25-.22-31.87-.05-3.16.05-4.29-.88-3.61-3.92.69-.24,1.39-.48,2.08-.72Z"/>
  <path class="cls-3" d="m859.28,756.41c8.14-.03,16.29-.08,24.43-.07,1.53,0,3.45-.63,3.39,2.2-.06,2.82-1.99,2.1-3.5,2.11-11.13.03-22.27.03-33.4.02-1.38,0-3.04.59-3.08-1.93-.04-2.3,1.3-2.29,2.89-2.28,2.66.02,5.32,0,7.98-.01.43,0,.86-.02,1.3-.02Z"/>
  <path class="cls-3" d="m982.99,660.79c-9.32-.02-18.63-.03-27.95-.05-.29-.35-.59-.7-.88-1.06.02-.6.04-1.19.06-1.79.34-.58.68-1.15,1.02-1.73,8.44-.02,16.88.09,25.31-.13,2.97-.08,3.3,1.39,3.2,3.62l-.76,1.14Z"/>
  <path class="cls-3" d="m553.91,660.84c-3.81,0-7.63.04-11.44-.02-1.33-.02-3.08.68-3.12-1.88-.03-2.12.66-2.95,2.84-2.92,7.96.12,15.92.15,23.88.11,2.16-.01,2.32,1.18,2.39,2.85.09,2.11-1.26,1.89-2.61,1.88-3.98-.02-7.96,0-11.94-.02Z"/>
  <path class="cls-3" d="m700.89,660.85c-3.99,0-7.97,0-11.96,0-1.37,0-2.66.08-2.58-1.99.07-1.73.35-2.81,2.45-2.79,7.97.08,15.94.09,23.91.03,1.91-.01,2.6.62,2.61,2.59,0,1.96-.99,2.1-2.48,2.08-3.98-.04-7.97-.02-11.96-.02v.1Z"/>
  <path class="cls-3" d="m912.2,660.73c-3.83,0-7.65,0-11.48,0-1.31,0-2.7.27-2.65-1.88.03-1.79.45-2.76,2.5-2.75,8.15.03,16.3-.03,24.45-.12,2-.02,1.95,1.14,1.99,2.6.05,1.74-.64,2.32-2.33,2.29-4.16-.08-8.32-.03-12.48-.03,0-.04,0-.07,0-.11Z"/>
  <path class="cls-3" d="m811.28,655.96c8.1.09,16.2.17,24.29.25,1.79.02,3.68-.44,3.69,2.51.01,2.96-1.99,2-3.4,2.02-7.27.08-14.55-.09-21.81.19-3.33.13-4.52-.91-3.84-4.12.36-.28.71-.57,1.07-.85Z"/>
  <path class="cls-3" d="m625.36,656.81c.5,2.76-.02,4.16-3.46,4.01-7.44-.31-14.91-.09-22.37-.14-1.32,0-3.07.67-3.12-1.9-.04-2.32,1.05-2.71,3.02-2.71,8.29,0,16.57-.09,24.86-.14.35.29.7.59,1.06.88Z"/>
  <path class="cls-2" d="m693.17,816.48c.52,4.75.54,9.51-.04,14.26-2.11-3.12-2.09-10.99.04-14.26Z"/>
  <path class="cls-2" d="m693.12,834.42c.56,3.78.53,7.56-.05,11.34-2.62-3.79-2.34-7.57.05-11.34Z"/>
  <path class="cls-2" d="m840.09,811.65c-.74-7.04-1.11-14.08-.2-21.14.66,7.04.58,14.09.2,21.14Z"/>
  <path class="cls-2" d="m892.79,763.84c-.56-.05-1.11-.1-1.67-.15.01-3.36.03-6.72.04-10.08.58.07,1.17.14,1.75.21.47,3.35.54,6.69-.13,10.02Z"/>
  <path class="cls-2" d="m839.86,779.78c-.84-5.42-.79-10.83,0-16.25.6,5.42.6,10.83,0,16.25Z"/>
  <path class="cls-2" d="m651.5,764.95c-4.42.94-8.84.88-13.27.09,4.42-.74,8.84-.6,13.27-.09Z"/>
  <path class="cls-2" d="m813.96,876.65c-.91-4.07-.8-8.13.06-12.18.38,4.06.47,8.13-.06,12.18Z"/>
  <path class="cls-2" d="m693.2,808.51c.46,2.08.46,4.15-.03,6.22-2.38-2.09-2.26-4.16.03-6.22Z"/>
  <path class="cls-2" d="m805.94,657.92c-.72-1.64-3.46-.98-3.64-3.22,1.31.97,4.2.14,3.64,3.22Z"/>
  <path class="cls-2" d="m667.57,824.99c-2.46.79-4.9.73-7.33-.16,2.45-.49,4.9-.55,7.33.16Z"/>
  <path class="cls-2" d="m618.2,841.68c-.87-2.07-.88-4.14-.03-6.21.49,2.07.49,4.14.03,6.21Z"/>
  <path class="cls-2" d="m552.18,843.76c-2.3-1.13-2.29-2.25,0-3.37.46,1.13.45,2.25,0,3.37Z"/>
  <path class="cls-2" d="m600.21,883.64c-.88-2.07-.9-4.14-.01-6.22.52,2.07.53,4.14.01,6.22Z"/>
  <path class="cls-2" d="m594.65,880.41c.87,1.74.89,3.48.03,5.23-.52-1.74-.56-3.49-.03-5.23Z"/>
  <path class="cls-2" d="m975.79,667.88c-.51-1.42-1.26-2.61-2.88-2.95,2.88-.88,3.6.33,2.88,2.95Z"/>
  <path class="cls-2" d="m794.01,869.64c-.78-1.4-.7-2.8,0-4.19.49,1.4.45,2.8,0,4.19Z"/>
  <path class="cls-2" d="m676.38,882.59c-.6.47-.6,2.42-2.04.83.3-1.23,1.16-1.06,2.04-.83Z"/>
  <path class="cls-2" d="m793.95,847.69c-.86-1.41-.87-2.83,0-4.24.49,1.41.47,2.83,0,4.24Z"/>
  <path class="cls-2" d="m715.29,665.77c-1.38-.06-2.76-.12-4.14-.18,1.43-1.23,2.84-1.73,4.14.18Z"/>
  <path class="cls-2" d="m808.39,886.41c.79,1.41.76,2.81-.02,4.21-.42-1.4-.42-2.81.02-4.21Z"/>
  <path class="cls-2" d="m552.25,863.7c-1.98-.77-1.95-1.54,0-2.31,0,.77,0,1.54,0,2.31Z"/>
  <path class="cls-2" d="m1002.09,603.12c-1.24,1.02-2.76.45-4.12.73,1.1-1.78,2.65-1.06,4.12-.73Z"/>
  <path class="cls-2" d="m865.99,867.62c-.68-1.38-.73-2.77-.04-4.17.43,1.38.42,2.77.04,4.17Z"/>
  <path class="cls-2" d="m764.71,856.38c.76,1.11.75,2.22.02,3.33-.61-1.11-.62-2.22-.02-3.33Z"/>
  <path class="cls-2" d="m526.65,603.65c-1.07-.23-2.13-.45-3.2-.68,1.18-.28,2.41-.85,3.2.68Z"/>
  <path class="cls-2" d="m684.53,864.43c.75,1.08.72,2.15-.02,3.21,0-1.07.02-2.14.02-3.21Z"/>
  <path class="cls-2" d="m932.23,864.42c.38.21.76.42,1.13.63-.38.21-.75.42-1.13.63,0-.42,0-.84,0-1.26Z"/>
  <path class="cls-2" d="m534.31,633.92c-.33-.62-.66-1.23-.99-1.85,1.46,0,1.27.9.99,1.85Z"/>
  <path class="cls-2" d="m1089.98,603.69c-.75-.19-1.5-.39-2.25-.58.89-.36,1.78-.7,2.25.58Z"/>
  <path class="cls-2" d="m635.66,875.03c-.37.53-.75,1.06-1.12,1.59-.27-.98-.15-1.69,1.12-1.59Z"/>
  <path class="cls-2" d="m655.53,875.1c-.78.59-1.56.57-2.36.04.78-.62,1.56-.6,2.36-.04Z"/>
  <path class="cls-2" d="m533.4,639.68c.3-.66.61-1.32.91-1.97.32.95.48,1.82-.91,1.97Z"/>
  <path class="cls-2" d="m907.17,664.97c-.62.32-1.25.64-1.87.96.04-1.46.95-1.22,1.87-.96Z"/>
  <path class="cls-2" d="m850.28,874.86c-.69.24-1.39.48-2.08.72.31-1.34,1.18-1.08,2.08-.72Z"/>
  <path class="cls-2" d="m675.54,645.94c-.09-.68-.19-1.36-.28-2.04,2.12.4,1.23,1.22.28,2.04Z"/>
  <path class="cls-2" d="m632.49,883.72c-.56.25-1.13.5-1.69.75-.06-1.65.9-1,1.69-.75Z"/>
  <path class="cls-2" d="m708.07,893.64c-.66-.75-.64-1.49.02-2.23,0,.74-.01,1.49-.02,2.23Z"/>
  <path class="cls-2" d="m657.48,824.81c-.59.34-1.17.68-1.76,1.02-.02-1.38.79-1.33,1.76-1.02Z"/>
  <path class="cls-2" d="m698.95,665.99c-.57-.37-1.13-.74-1.7-1.11.98-.27,1.76-.22,1.7,1.11Z"/>
  <path class="cls-2" d="m814.08,904.56c-.55-.7-.55-1.42-.05-2.14.02.71.03,1.43.05,2.14Z"/>
  <path class="cls-2" d="m692.72,905.32c.2.42.4.85.6,1.27-.22.15-.61.46-.64.43-.56-.56-.32-1.14.04-1.7Z"/>
  <path class="cls-2" d="m955.24,656.17c-.34.58-.68,1.15-1.02,1.73-.26-.93-.38-1.77,1.02-1.73Z"/>
  <path class="cls-2" d="m871.25,824.89c-.63.29-1.25.59-1.88.88.08-1.45.95-1.24,1.88-.88Z"/>
  <path class="cls-2" d="m527.39,652.58c.46-.06.92-.12,1.38-.18-.41.48-.87.5-1.38.18Z"/>
  <path class="cls-2" d="m982.99,660.79l.76-1.14c.29.74.06,1.14-.76,1.14Z"/>
  <path class="cls-2" d="m954.16,659.69c.29.35.59.7.88,1.06-.83.1-1.08-.29-.88-1.06Z"/>
  <path class="cls-2" d="m893.66,657.96c-.1-.45-.21-.89-.31-1.34.66.32.69.78.31,1.34Z"/>
  <path class="cls-2" d="m764.93,825.41c0,.46,0,.91-.01,1.37-.64-.46-.63-.92.01-1.37Z"/>
  <path class="cls-2" d="m793.91,826.74c-.64-.42-.69-.85-.03-1.3,0,.43.02.87.03,1.3Z"/>
  <path class="cls-2" d="m844.42,825.45c.64.43.66.85,0,1.29,0-.43,0-.86,0-1.29Z"/>
  <path class="cls-2" d="m534.77,657.25c-.43-.14-.86-.29-1.29-.43.58-.3,1.01-.14,1.29.43Z"/>
  <path class="cls-2" d="m621.47,665.74c-.21,0-.42,0-.63-.01.37-.79.42-.04.6.13,0,0,.04-.12.04-.12Z"/>
  <path class="cls-2" d="m811.28,655.96c-.36.28-.71.57-1.07.85-.07-.82.31-1.08,1.07-.85Z"/>
  <path class="cls-2" d="m687.42,664.93c-.38.26-.77.52-1.15.78.01-.8.46-.98,1.15-.78Z"/>
  <path class="cls-2" d="m793.9,822.74c-.65-.46-.55-.88.06-1.28-.02.43-.04.85-.06,1.28Z"/>
  <path class="cls-2" d="m899.18,664.94c-.39.25-.78.51-1.17.76.03-.81.48-.97,1.17-.76Z"/>
  <path class="cls-2" d="m625.36,656.81c-.35-.29-.7-.59-1.06-.88.78-.22,1.11.1,1.06.88Z"/>
  <path class="cls-2" d="m573.47,655.81c-.31.34-.62.69-.93,1.03-.18-.79.15-1.11.93-1.03Z"/>
  <path class="cls-2" d="m455.42,652.39c.46-.62.91-.6,1.34.04-.45-.01-.89-.03-1.34-.04Z"/>
  <path class="cls-2" d="m887.61,645.01c-.21-.34-.43-.69-.64-1.03h.76c-.04.35-.08.69-.12,1.03Z"/>
  <path class="cls-2" d="m850.19,643.87c-.34.32-.67.64-1.01.96-.11-.78.18-1.16,1.01-.96Z"/>
  <path class="cls-2" d="m667.17,821.18c.35-.22.7-.44,1.06-.67,0,.78-.32,1.06-1.06.67Z"/>
  <path class="cls-2" d="m865.91,858.67c-.11-.28-.25-.56-.3-.86-.02-.11.17-.25.27-.38,0,.41.02.82.03,1.23Z"/>
  <path class="cls-2" d="m869.27,819.5c.3.33.6.67.9,1-.77.09-1.15-.18-.9-1Z"/>
  <path class="cls-2" d="m636.51,643.99c-.24.34-.49.68-.73,1.01-.1-.25-.21-.49-.31-.74.35-.09.7-.18,1.05-.28Z"/>
  <path class="cls-2" d="m971.14,665.05c-.33.28-.65.56-.98.84-.11-.79.2-1.08.98-.84Z"/>
  <path class="cls-2" d="m886.17,812.55c.14.26.3.52.39.8.03.1-.14.25-.22.38-.06-.39-.11-.79-.17-1.18Z"/>
  <path class="cls-2" d="m672.39,811.57c.14.27.31.53.4.81.03.11-.12.27-.19.41-.12-.27-.28-.52-.36-.8-.03-.12.1-.28.15-.42Z"/>
  <path class="cls-2" d="m792.08,810.83c.4-.04.8-.08,1.2-.12-.33.69-.74.67-1.2.12Z"/>
  <path class="cls-2" d="m793.31,810.7c.02-.4.03-.8.05-1.21.22.3.45.59.67.89-.24.11-.48.21-.72.32Z"/>
  <path class="cls-2" d="m980.13,665.04c-.39.23-.78.47-1.18.7.05-.81.48-.99,1.18-.7Z"/>
  <path class="cls-2" d="m870.13,682.77c-.26.37-.52.74-.79,1.11-.26-.74-.08-1.17.79-1.11Z"/>
  <path class="cls-2" d="m630.65,869.4c.22.4.45.81.67,1.21-.85-.06-.98-.51-.67-1.21Z"/>
  <path class="cls-2" d="m844.54,869.36c.23.35.46.69.7,1.04-.75,0-1.03-.31-.7-1.04Z"/>
  <path class="cls-2" d="m848.08,870.46c.29-.34.58-.68.87-1.02.24.79-.09,1.1-.87,1.02Z"/>
  <path class="cls-2" d="m865.04,870.43c.31-.33.61-.66.92-.99.19.79-.14,1.1-.92.99Z"/>
  <path class="cls-2" d="m869.3,869.43c.29.34.58.68.87,1.02-.77.07-1.1-.24-.87-1.02Z"/>
  <path class="cls-2" d="m446.71,632c-.34.29-.68.58-1.02.88-.07-.76.2-1.13,1.02-.88Z"/>
  <path class="cls-2" d="m1086.01,603.13c-.43.64-.86.65-1.29,0,.43,0,.86,0,1.29,0Z"/>
  <path class="cls-2" d="m638.56,874.97c-.46.62-.91.62-1.36-.01.45,0,.91,0,1.36.01Z"/>
  <path class="cls-2" d="m880.98,702.53c.38-.26.76-.51,1.15-.77,0,.84-.4,1.05-1.15.77Z"/>
  <path class="cls-2" d="m870.17,706.81l-.87,1.02c-.29-.83.07-1.11.87-1.02Z"/>
  <path class="cls-2" d="m975.78,713.84c-.5-.41-.51-.82,0-1.23v1.23Z"/>
  <path class="cls-2" d="m433.76,603.1c-.35.27-.69.54-1.04.81-.05-.78.25-1.11,1.04-.81Z"/>
  <path class="cls-2" d="m765.14,875.61c.26.08.7.12.73.26.13.59-.32.6-.74.58-.32-.28-.32-.56,0-.84Z"/>
  <path class="cls-2" d="m949.16,715.83c.19-.42.38-.84.56-1.25.35.66.01,1.01-.56,1.25Z"/>
  <path class="cls-2" d="m869.31,726.58c.32,0,.62.1.9.27-.29.18-.58.36-.87.54l-.03-.81Z"/>
  <path class="cls-2" d="m636.56,765.16c-.41.46-.87.51-1.37.15.41-.49.86-.56,1.37-.15Z"/>
  <path class="cls-2" d="m617.88,764.83c-.43-.44-.47-.9-.05-1.37.45.44.49.9.05,1.37Z"/>
  <path class="cls-2" d="m594.63,905.38c.25.39.51.77.76,1.16-.84,0-1.06-.41-.76-1.16Z"/>
  <path class="cls-2" d="m707.28,906.46c.29-.35.58-.71.87-1.06.23.78-.08,1.12-.87,1.06Z"/>
  <path class="cls-2" d="m808.4,905.37c.26.37.53.73.79,1.1-.82.03-1.03-.37-.79-1.1Z"/>
  <path class="cls-2" d="m904.45,905.32c.22.37.45.74.67,1.11-.77-.04-1.01-.4-.67-1.11Z"/>
  <path class="cls-2" d="m919.04,906.48c.24-.38.48-.76.71-1.14.3.72.09,1.12-.71,1.14Z"/>
  <path class="cls-2" d="m932.19,905.4c.27.38.53.77.8,1.15-.84.01-1.08-.39-.8-1.15Z"/>
  <path class="cls-2" d="m984.01,906.52c.27-.37.54-.75.82-1.12.21.73.02,1.16-.82,1.12Z"/>
  <path class="cls-2" d="m952.45,906.26l.38-.07.2.33c-.24.15-.49.3-.73.44.05-.24.1-.47.14-.71Z"/>
  <path class="cls-2" d="m961.18,906.37c.33.04.64.14.94.29-.14.44-.37.84-.89.52-.13-.08-.04-.53-.05-.81Z"/>
  <path class="cls-2" d="m859.28,756.41c-.43,0-.86.02-1.3.02.42-.58.85-.62,1.3-.02Z"/>
  <polygon class="cls-2" points="555.55 665.81 555.23 665.66 555.52 665.87 555.55 665.81"/>
  <path class="cls-3" d="m834.61,453.11c-22.63,0-45.08-.01-67.53,0-23.97.02-47.93-.01-71.9.16-4.08.03-4.6-.78-2.42-4.22,12.37-19.55,29.48-32.28,52.33-37.02,23.02-4.77,44.34-.49,64.06,12,10.52,6.66,18.36,15.98,24.8,26.52.4.65.41,1.54.65,2.55Z"/>
  <path class="cls-3" d="m842.11,517.89c-2.87.67-5.05-1.39-7.38-2.27-15.82-5.98-31.52-12.3-47.19-18.69-7.74-3.16-15.43-6.4-23.35-9.11-1.87-.64-3.13-.58-4.96.16-25.1,10.14-50.25,20.12-76.04,30.4,0-11.93,0-23.33,0-34.74,0-3.17,2.5-2.05,4.02-2.06,15.97-.09,31.94-.08,47.91-.1,34.76-.03,69.53,0,104.29-.16,2.98-.01,3.6.83,3.57,3.6-.12,10.64-.01,21.29.01,31.94-.3.34-.59.69-.89,1.03Z"/>
  <path class="cls-3" d="m849.06,470.06q.16,6.85-6.57,6.85c-53.6.02-107.2.05-160.81.09-1.61,0-3.3-.42-4.86.62-.13-.49-.34-.96-.35-1.44-.24-6.59-.23-6.62,6.3-6.63,52.93-.07,105.87-.13,158.8-.2,2.16,0,4.33-.12,6.49-.19.34.3.67.61,1.01.91Z"/>
  <path class="cls-3" d="m843.41,460.18c.28,3.28-.38,4.86-4.51,4.84-51.11-.18-102.21-.14-153.32-.03-2.76,0-3.25-.82-3.34-3.33-.1-2.99.62-3.93,3.83-3.93,44.94.09,89.89.03,134.83-.03,6.66,0,13.31-.12,19.97-.24,1.19-.02,2.4-.4,2.59,1.36-.02.45-.03.9-.05,1.35Z"/>
  <path class="cls-3" d="m763.02,347.41c1.37,12.35,1.71,24.66,2.17,36.96.09,2.47.43,4.85.87,7.28.28,1.54,1.64,4.55-2.38,4.5-2.97-.04-4.66-.56-4.54-4.12.37-10.51.95-20.99,2.05-31.45.31-2.96,0-5.98.09-8.97.04-1.39-.63-3.07,1.74-4.21Z"/>
  <path class="cls-3" d="m751.32,400.19c6.73.14,13.47-.05,20.19.77,2.15.26,2.74.78,2.78,2.89.04,2.21-.97,2.28-2.69,2.25-5.46-.1-10.93-.28-16.37.03-3.94.23-5.64-1-4.9-5,.33-.31.66-.62.99-.93Z"/>
  <path class="cls-2" d="m842.11,517.89c.3-.34.59-.69.89-1.03.24.81-.09,1.12-.89,1.03Z"/>
  <path class="cls-2" d="m849.06,470.06c-.34-.3-.67-.61-1.01-.91.81-.23,1.11.13,1.01.91Z"/>
  <path class="cls-2" d="m751.32,400.19c-.33.31-.66.62-.99.93-.11-.77.18-1.13.99-.93Z"/>
  <path class="cls-2" d="m843.41,460.18c.02-.45.03-.9.05-1.35.61.47.57.92-.05,1.35Z"/>
  <path class="cls-2" d="m698.31,553.57c0,6.25.41,12.53-.14,18.73-.4,4.55-5.81,7.09-12.29,6.68-3.74-.24-7.34-3.85-7.54-8.07-.24-4.98-.1-9.97-.11-14.96,0-1.33-.12-2.78,1.83-2.9,2.15-.13,2.38,1.24,2.36,2.91-.06,4.32-.15,8.65-.1,12.97.06,4.97,2.72,7.91,6.96,7.9,4.81,0,7.64-2.67,7.81-7.73.17-5.1.04-10.21.04-15.32.4-.07.8-.14,1.19-.2Z"/>
  <path class="cls-2" d="m703.38,569.42c0-1.83.01-3.66,0-5.49-.02-2.35-.79-5.49,3.39-2.67,1.09.74,2.04-.73,3.1-1.07,5.27-1.7,9.02.76,9.21,6.22.11,3.16-.04,6.32.02,9.48.03,1.56-.44,2.79-2.1,2.7-1.32-.07-1.76-1.3-1.76-2.57,0-2.83.02-5.66-.03-8.48-.04-2.31.22-5.24-2.92-5.43-3.16-.18-5.35,2.04-5.76,5.12-.39,2.94-.23,5.99.07,8.96.14,1.38.17,2.43-1.27,2.6-1.56.18-1.81-1.15-1.83-2.38-.03-2.33,0-4.66,0-6.99h-.1Z"/>
  <path class="cls-2" d="m820.28,562.38c2.93-2.97,6.49-3.12,10.12-2.42,2.83.55,3.99,2.53,3.89,5.47-.14,4.24-.04,8.49-.04,13.06-1.81-1.14-6.2.02-3.43-4.9.53-.94.89-2.97-.81-3.38-1.85-.44-4-.82-5.75.49-1.39,1.04-1.21,2.62-.83,4.11.34,1.32,2.96,2.97.11,3.82-1.9.57-2.95-1.77-3.6-3.4-1.35-3.41,1.51-7.01,5.6-7.51,1.88-.23,5.13,1.51,4.57-2.88-.57-4.53-3.71-2.66-6.02-2.39-1.24.14-2.39,1.04-3.84-.08Z"/>
  <path class="cls-2" d="m790.12,560.6c-.73,1.63-1.85,1.27-2.77,1.38-1.09.13-1.9.57-2.15,1.69-.31,1.39.51,2.14,1.6,2.73,1.88,1.01,3.8,1.95,5.6,3.09,3.69,2.33,3.8,5.86.34,8.34-3.32,2.38-8.27,1.28-11.13-2.82,2.55.51,4.31,2.45,6.73,2.03,1.4-.25,2.62-.58,2.91-2.17.29-1.56-.49-2.48-1.89-3.05-1.38-.56-2.86-.99-4.05-1.83-2.36-1.68-5.38-3.23-3.88-7.01,1.07-2.69,4.28-3.52,8.69-2.37Z"/>
  <path class="cls-2" d="m842.17,577.85c1.58.3,3.02-.3,4.2-1.15,2.26-1.64,2.52-3.47-.18-4.98-1.44-.8-2.97-1.42-4.48-2.1-2.99-1.35-4.52-3.48-3.18-6.74,1.11-2.72,4.69-3.48,8.35-1.95-1.21,2.16-5.48-.19-5.3,3.02.15,2.7,3.58,2.46,5.5,3.55,2.87,1.63,5.75,3.31,4.88,7.14-.76,3.34-5.53,4.76-9.91,3.35l.11-.14Z"/>
  <path class="cls-2" d="m729.89,560.54c8.07.57,6.09,8.33,10.46,11.43,1.74-3.96,3.51-7.97,5.28-11.99.5.23,1.01.46,1.51.69-2.49,6.1-4.99,12.19-7.9,19.32-3.61-6.83-5.29-13.07-9.35-19.44Z"/>
  <path class="cls-2" d="m756.28,577.64c-5.46,1.01-6.48-3.02-7.75-6.22-1.43-3.61,1.19-8.72,5.03-10.79,3.05-1.64,6.12-1.08,8.9,2.02-4.11-.58-8.42-2.24-9.96,3.17-.32,1.12.34,2.03,1.61,1.82,3.11-.52,7.57,2.31,8.48-3.52,1.79.86,3.15,1.94,2.57,3.88-.6,2.01-2.51.91-3.85,1.16-.32.06-.67-.03-.99,0-2.5.34-6.04-1.44-7.3,1-1.27,2.47,1.24,5.13,3.26,7.48Z"/>
  <path class="cls-2" d="m817.05,560.09c-8.03,2.72-3.53,8.64-4.66,12.7-.95,3.4.99,4.8,4.75,4.04-6.28,2.98-8.77,1.32-9.11-4.93-.2-3.68,1.4-7.64-1.3-11.04,3.04-1.04,1.47-4.99,3.93-6.28,1.43-.75,1.78.6,1.59,1.54-.71,3.6,1.55,4.1,4.8,3.97Z"/>
  <path class="cls-2" d="m780.23,561.15c-7.63,2.07-7.95,2.5-7.93,9.91,0,1.48.04,2.97,0,4.45-.03.93.2,2.14-1.19,2.29-1.66.18-1.78-1.03-1.79-2.26-.02-4.29-.05-8.57-.06-12.86,0-1.77.64-3.02,2.66-2.38,2.58.81,5.38-1.93,8.33.85Z"/>
  <path class="cls-2" d="m724.1,569.81c0-2.3,0-4.61,0-6.91,0-1.23.19-2.43,1.79-2.33,1.27.08,1.44,1.13,1.45,2.17.02,4.44.02,8.89.06,13.33.01,1.34-.67,2.5-1.82,2.58-2.09.13-1.47-1.76-1.54-2.91-.13-1.97-.03-3.95-.03-5.92h.1Z"/>
  <path class="cls-2" d="m802.34,569.01c0,2.3.02,4.61,0,6.91-.01,1.07-.35,1.96-1.67,1.93-1.29-.03-1.64-.92-1.64-1.98.01-4.44.04-8.88.1-13.33.02-1.19.72-1.74,1.92-1.65,1.07.08,1.32.85,1.33,1.7.04,2.14.01,4.28.01,6.42-.02,0-.04,0-.05,0Z"/>
  <path class="cls-2" d="m842.05,577.99c-1.86.06-3.35-.5-4.59-2.83,2.49.18,3.86.96,4.7,2.69,0,0-.11.14-.11.14Z"/>
  <path class="cls-1" d="m1008.87,750.62c-.05-16.96-.14-33.93-.13-50.89,0-3.26-.14-6.52,1.4-9.67,4.47-9.17,12-13.25,21.5-11.38,8.15,1.6,14.58,9.41,14.68,18.72.17,16.3,0,32.6-.1,48.9-.02,2.84.08,4.76,3.31,6.58,3.47,1.96,1.03,6.58,1.24,9.98.17,2.73-2.6,2.02-4.23,2.03-12.81.08-25.61-.03-38.42.09-4.09.04-5.7-1.49-5.25-5.65.39-3.55-1.21-8.1,5.04-7.71.78.12,1.12-.2.96-.99Zm33-48.92c.38-11.62-2.97-16.65-12.62-18.35,0,2.55.04,5.02,0,7.49q-.2,11.62,11.55,11.69c.77.25,1.12-.04,1.07-.84Zm-12.66,39.45c-.02,11.11-.02,11.01,9.84,10.53,2.47-.12,3.06-.92,3-3.2-.13-4.96-.04-9.93-.02-14.89,0-1.53.08-2.69-2.16-2.99-9.64-1.28-10.66-.52-10.66,9.05,0,.5,0,.99,0,1.49Zm-16.26-.25c0,11.31-.01,11.17,9.69,10.9,2.84-.08,3.24-1.19,3.16-3.56-.15-3.96-.36-7.97.04-11.9.47-4.54-1.06-5.95-5.62-5.73-7.27.34-7.28.05-7.27,7.31,0,.99,0,1.98,0,2.98Zm16.21-24.37c-.03,10.65-.04,10.57,9.78,10.23,2.29-.08,3.24-.54,3.12-3.02-.19-3.96-.41-7.98.03-11.91.55-4.93-1.21-6.16-5.99-5.8-7.95.6-6.63-.75-6.93,7.01-.04,1.16,0,2.32-.02,3.48Zm-3.35.45c.08-11.13.09-11.08-10.27-10.28-1.84.14-2.65.5-2.61,2.51.1,4.98.02,9.96-.03,14.94-.02,1.47.18,2.29,2.04,2.58,9.52,1.46,10.8.51,10.85-8.76,0-.33,0-.66,0-1Zm-.05-24.46h.04c0-2.16-.2-4.33.04-6.46.46-4.02-1.4-3.63-3.97-2.34-4.59,2.3-9.65,6.7-8.99,16.07.17,2.44.88,3.01,3.17,2.98,11.7-.19,9.49,1.17,9.71-9.24,0-.33,0-.66,0-1Zm1.49,63.65s0,.08,0,.12c-5.63,0-11.27.04-16.9-.03-1.59-.02-2.53.29-2.48,2.12.03,1.35.29,2.14,1.92,2.14,11.44-.01,22.87.05,34.31.08,1.77,0,2.81-.82,2.86-2.66.05-2.11-1.56-1.75-2.8-1.76-5.63-.03-11.27-.01-16.9-.01Z"/>
  <path class="cls-1" d="m1026.79,883.75c-6.32,0-12.64-.07-18.96.06-2.77.06-4.66-.97-4.77-3.72-.12-3.28-1.35-7.92,2.64-9.02,3.74-1.03,3.12-2.97,3.12-5.29-.01-16.13-.07-32.26-.06-48.39,0-8.96,4.7-16.54,12.11-18.77,14.34-4.32,25.01,3.89,25.47,19.12.5,16.45.15,32.92.15,49.38,0,2.37-.37,4.88,3.38,4.44,1.52-.18,1.93.98,1.95,2.27.03,1.66-.09,3.34.06,4.99.34,3.63-1.09,5.11-4.85,4.97-5.64-.22-11.31-.04-16.96-.03-1.09-.42-2.19-.42-3.28,0Zm2.83-62.94c3.26.87,6.56.19,9.84.28,1.89.05,2.59-.63,2.58-2.58-.04-7.97-3.46-15.91-12.89-16.37v17.33c-.33.62-.25,1.09.47,1.33Zm1.42,3.98c-.95-.3-1.85-.52-1.87.96,0,3.49,0,6.98.02,10.46.03,9.88.02,9.79,9.72,9.39,2.32-.09,3.17-.63,3.1-3.07-.18-5.64-.09-11.29-.1-16.94.05-.82-.33-1.07-1.09-.83-3.25,0-6.51,0-9.76.01Zm-1.09,45.76c3.79-.07,8.76,1.29,11.08-.6,2.75-2.24.81-7.43.88-11.32.19-9.48.07-9.48-9.47-9.1-.17,0-.33.01-.5,0-2.25-.31-2.83.81-2.78,2.88.14,5.96.14,11.93.19,17.89-.04.24-.09.48-.13.72.24-.15.48-.31.72-.46Zm-16.91-10.76h-.03c0,2.66-.01,5.31,0,7.97,0,1.33-.05,2.41,1.89,2.79,8.96,1.74,11.03.16,10.95-8.73-.02-2.49-.31-5.01-.01-7.47.49-4-1.08-5.03-4.94-4.92-7.84.23-7.84.02-7.87,7.86,0,.83,0,1.66,0,2.49Zm-.02-24.69h-.03c0,2.15.22,4.34-.05,6.46-.42,3.36.95,4.12,4.12,4.08,8.75-.09,8.75.06,8.76-8.89,0-1.82-.26-3.69.06-5.46.91-5.02-1.31-6.03-5.91-5.77-6.93.39-6.94.09-6.94,7.1,0,.83,0,1.66,0,2.49Zm12.83-33.5c-4.07.76-6.81,2.36-9.06,4.86-2.78,3.09-5.54,12.18-3.68,14.1,2.38,2.45,5.92.56,8.91.99,2.69.39,3.95-.74,3.87-3.63-.14-5.3-.04-10.6-.04-16.32Zm1.08,77.86s0,.06,0,.08c5.8,0,11.59-.07,17.38.04,1.8.03,2.8-.21,2.64-2.33-.11-1.52-.32-2.46-2.19-2.45-11.42.11-22.85.13-34.27.18-1.77,0-2.69.6-2.63,2.63.06,2.11,1.36,1.85,2.68,1.85,5.46,0,10.93,0,16.39,0Z"/>
  <path class="cls-2" d="m1026.79,883.75c1.1-.41,2.19-.41,3.28,0-1.1,2.24-2.19,2.22-3.28,0Z"/>
  <path class="cls-2" d="m1008.87,750.62c.17.8-.17,1.11-.96.99.32-.33.64-.66.96-.99Z"/>
  <path class="cls-1" d="m514.15,723.16c0,8.32-.05,16.64.03,24.95.02,2.11-.75,4.96,3.18,4.65,1.48-.12,1.13,1.33,1.15,2.24.05,2.33-.1,4.67.06,6.98.15,2.23-.91,2.97-2.92,2.98-13.64.05-27.28.15-40.92.14-2.05,0-4.38-.6-4.1-3.23.36-3.36-2.21-8.39,2.44-9.61,3.9-1.02,3.53-2.84,3.52-5.5-.05-16.3-.04-32.61-.07-48.91,0-4.79,1.47-8.97,4.4-12.82,5.85-7.66,14.14-7.77,21.87-4.98,7.86,2.84,10.86,9.81,11.2,17.66.37,8.47.08,16.96.08,25.45h.08Zm-4.8,33.16c-9.8,0-19.61-.06-29.41.06-1.58.02-4.38-1.44-4.26,2.24.11,3.26,2.59,1.92,4.05,1.94,10.3.1,20.61.09,30.91-.02,1.47-.02,3.95,1.31,4-1.98.05-3.25-2.41-1.83-3.92-2.19-.43-.63-.88-.66-1.35-.05Zm-11.69-53.75c3.14.05,6.28.12,9.42.12.9,0,1.86.24,2.42-1.05,2.55-5.92-3-16.34-9.44-17.96-2.13-.54-3.16-.78-3.07,1.99.14,4.3-.03,8.6-.07,12.9.01.45.02.89.03,1.34.04.54.07,1.09.11,1.63-.29.63-.03.94.6,1.03Zm-.71,17.3c0,.89,0,1.78-.01,2.68.01.46.02.92.03,1.38-.09,1.64.17,2.6,2.3,2.84,9.99,1.15,10.46.83,10.47-9.04,0-2.81.01-5.62-.04-8.42-.02-.92.29-2.35-1.01-2.41-3.62-.15-7.47-.74-10.81.27-1.96.59-.58,4.17-.88,6.39-.69,2.1-.65,4.21-.06,6.32Zm-3.43,21.39c0-10.69,0-10.45-8.49-10.68-3.92-.11-4.79,1.25-4.48,4.8.31,3.62.34,7.31,0,10.92-.4,4.25.8,5.79,5.39,5.53,7.58-.43,7.59-.09,7.58-7.59,0-.99,0-1.99,0-2.98Zm16.16.05c-.08-10.86-.08-10.67-8.96-10.67-3.27,0-3.91,1.29-3.82,4.08.14,4.47.22,8.95.04,13.42-.11,2.85.93,3.57,3.71,3.6,9.11.08,9.11.21,9.04-8.93,0-.5,0-.99-.01-1.49Zm-29.04-24.9c-.04,10.52-.04,10.4,9.27,10.34,2.77-.02,3.77-.7,3.63-3.56-.2-4.14-.22-8.32.09-12.45.25-3.29-.85-4.13-4.09-4.08-8.86.15-8.87,0-8.9,8.74,0,.33,0,.66,0,1Zm12.86-24.21c0-.66.07-1.33-.01-1.98-.31-2.49,1.39-6.39-.9-7.15-2.77-.92-5.65,1.78-7.86,4.05-.46.47-.93.94-1.35,1.45-3.19,3.87-3.9,8.8-2.36,12.93,1.07,2.86,5.6.75,8.55,1.2,3.1.47,4.14-1.13,3.96-4.04-.14-2.14-.03-4.3-.01-6.44Z"/>
  <path class="cls-1" d="m513.93,842.43c0,8.32,0,16.64,0,24.97,0,2.13-.43,4.56,3.1,4.16,1.93-.21,1.4,1.37,1.5,2.42.83,9.67.83,9.7-9.03,9.77-10.98.08-21.97.05-32.96.15-3.07.03-6.19-.23-5.85-4.12.28-3.3-2.8-8.54,3.82-9.21,3.24-.33,1.93-2.64,1.94-4.11.05-16.64.02-33.29-.08-49.93-.05-7.91,3.39-14.21,10.33-17.26,12.14-5.33,25.19.22,27.14,15.23.6,4.59.3,9.3.34,13.96.05,4.66.01,9.32.01,13.98-.09,0-.18,0-.27,0Zm-36.57,32.66c-2.3.25-1.88,1.98-1.67,3.38.28,1.8,1.83.97,2.81.97,10.94.08,21.89.08,32.83.11,1.59,0,3.36.55,3.25-2.25-.11-2.84-2.08-2.06-3.52-2.07-10.77-.09-21.55-.1-32.33-.13-.45-.47-.91-.44-1.37,0Zm19.41-31.4c0,.82-.14,1.97.82,2.12,3.77.59,7.92,1.35,11.23-.17,2.21-1.02.53-4.88.78-7.45.11-1.15,0-2.33,0-3.49,0-9.49,0-9.36-9.42-9.16-2.69.06-3.43.92-3.37,3.43.12,4.49-.01,8.98-.04,13.48,0,.41,0,.83,0,1.24Zm-3.28,16.48q0-10.61-5.89-10.6-7.01.01-6.98,7.12c.01,2.65.32,5.34-.02,7.94-.6,4.66.81,6.37,5.8,6.03,7.12-.48,7.15-.12,7.09-7.51,0-.99,0-1.99-.01-2.98Zm-12.93-24.46c0,.83,0,1.65,0,2.48-.02,8.86-.02,8.77,9.1,8.44,2.71-.1,3.93-.91,3.86-3.74-.12-4.8-.09-9.6.01-14.4.04-1.99-.36-2.81-2.67-2.96-10.35-.65-10.34-.75-10.31,9.68,0,.17,0,.33,0,.5Zm29.09,24.7c-.05-10.98-.05-10.86-8.86-10.89-2.92,0-4.21.6-4,3.81.28,4.29.28,8.61.05,12.9-.19,3.51,1.14,4.41,4.54,4.35,8.33-.15,8.33.03,8.28-8.2,0-.66,0-1.32,0-1.99Zm-16.16-50.02c-.45-2.61,1.44-7.6-.72-8.28-3.52-1.11-6.82,2.32-9.33,5.24-3.29,3.82-3.88,8.79-2.51,12.94.97,2.93,5.52.83,8.43,1.27,3.31.5,4.45-1.15,4.17-4.32-.19-2.13-.04-4.3-.04-6.86Zm3.35-8.74c0,3.7-.08,7.01.01,10.31.31,11.2-2.07,9,9.89,9.43,2.69.1,2.86-1.13,2.92-3.24.27-8.68-3.37-13.62-12.83-16.5Z"/>
  <path class="cls-1" d="m744.1,739.6c.02-18.26.03-36.52.05-54.77.03-.36.07-.72.1-1.08,3.78-14.85,15.93-18.43,28.22-12.66,6.55,3.07,9.67,9.64,9.61,17.33-.13,16.3-.04,32.61-.08,48.92,0,2.33-.45,4.19,3.17,4.7,3.26.46,1.88,4.11,1.95,6.39.19,6.38.08,6.36-6.22,6.35-12.48-.02-24.96-.07-37.44.03-4.26.03-5.49-2.12-5.24-5.94.22-3.46-.96-7.77,4.99-7.25,1.43-.17,1.19-1.09.9-2.03Zm37.03,10.96c.83.24,1.14-.1,1.03-.92.65-3.06-1.35-2.77-3.41-2.98-11.45-1.19-22.94-.67-34.41-.85-.78-.27-1.17,0-1.13.84.01,1.02.02,2.04.03,3.05-.04.84.36,1.07,1.12.82,12.26.01,24.51.03,36.77.04Zm-16.65-13.99c.01.42.03.85.04,1.27.31,1.61-.52,4.07,2.45,3.85,3.47-.25,7.31,1.27,10.22-1.78.44-.46.21-1.58.23-2.4.03-1.65.03-3.3.02-4.95q-.05-11.96-12.14-11.74c-.83-.09-1.07.28-.8,1.04l-.02,14.71Zm.11-21.02c-.31.74-.02,1.05.73,1.05q12.17.44,12.16-11.83,0-9.17-9.17-9.07c-.33,0-.67.03-1,0-2.23-.25-2.8.81-2.75,2.92.12,5.64.03,11.29.03,16.94Zm-3.39-8.32c-.06-12.31-.06-12.23-10.08-11.45-2.12.17-2.94.77-2.87,2.92.11,3.64.01,7.29.01,10.94,0,8.12.01,7.86,7.89,8.18,4.14.17,5.74-.95,5.1-5.13-.28-1.78-.05-3.64-.05-5.46Zm-12.91,23.6c.11,10.89.11,10.69,8.93,10.8,3.51.05,4.18-1.26,4-4.32-.21-3.65-.32-7.35.04-10.97.44-4.47-.97-6.05-5.65-5.81-7.36.39-7.38.08-7.32,7.3,0,1,0,2,0,3Zm12.89-48.7h-.03c0-2.15-.05-4.3.01-6.45.07-2.47-.07-3.59-3.27-2.33-6.76,2.67-11.69,11.38-9.68,17.95.4,1.32,1.16,1.27,2.14,1.42,9.87,1.47,10.85.65,10.82-9.1,0-.5,0-.99,0-1.49Zm3.52,0q-.04,11.09,9.88,10.05c.16-.02.33,0,.49.01,1.42.12,2.11-.44,2.17-1.95.17-4.76-1.28-12.78-6.93-15.73-1.58-.82-3.22-2.44-4.97-1.41-1.59.94-.45,3.01-.61,4.56-.15,1.47-.03,2.97-.03,4.46Z"/>
  <path class="cls-2" d="m744.1,739.6c.29.94.53,1.85-.9,2.03.3-.68.6-1.35.9-2.03Z"/>
  <path class="cls-2" d="m744.24,683.75c-.03.36-.07.72-.1,1.08-.07-.26-.16-.52-.18-.78,0-.09.18-.2.28-.3Z"/>
  <path class="cls-1" d="m754.41,839.62c0,4.48-.08,8.97.03,13.44.06,2.36-.95,3.37-3.21,3.32-.17,0-.33,0-.5,0q-13.62.95-13.64-12.81c0-5.31-.02-10.62-.1-15.93-.08-5.2,1.67-6.91,6.73-5.87,1.24.26,2.45.68,3.76.73q7.06.24,7.01,7.16c-.02,3.32,0,6.64,0,9.96-.03,0-.05,0-.08,0Zm-3.13-1.01c0-3.82-.07-7.64.03-11.46.05-1.91-.56-2.73-2.56-2.54-1.48.14-3.01.16-4.48-.05-3.21-.45-4.3.69-4.17,4.03.27,6.97.27,13.96.04,20.92-.11,3.25.82,4.67,4.09,4.02,2.77-.55,7.28,2.03,7.09-3.96-.12-3.65-.02-7.31-.03-10.96Z"/>
  <path class="cls-1" d="m737.21,886.72c0-.66,0-1.33,0-1.99-.03-11.99-.03-11.86,12.12-11.83,3.43,0,4.95,1.62,5.03,4.48.19,6.62-.02,13.26-.03,19.88,0,2.33-1.19,3.28-3.41,3.2-.17,0-.33,0-.5.01q-13.23.87-13.22-13.76Zm3.03.09c0,2.32.13,4.64-.04,6.94-.17,2.45-.01,4.35,3.23,3.76,2.97-.54,7.46,1.7,7.73-3.86.24-4.78.06-9.59.04-14.39,0-1.29.18-2.41-1.82-2.78-7.5-1.41-9.2-.14-9.14,7.34,0,.99,0,1.98-.01,2.98Z"/>
  <path class="cls-1" d="m749.31,864.51c-.25-2.53,1.73-2.65,3.2-2.81,1.76-.19,3.53.72,3.49,2.62-.04,1.7-.87,3.4-3.33,3.27-2.18-.11-3.46-.81-3.36-3.08Z"/>
  <path class="cls-1" d="m771.27,855.51c-1.73-7.36-.63-14.82-.73-22.23-.16-12.37,0-12.25,12.44-12.01,3.76.07,5.35,1.18,5.25,5.15-.22,8.62-.14,17.25,0,25.87.04,2.85-.57,4.38-3.82,4.13-3.96-.3-7.94-.29-11.92-.41-.4-.17-.81-.34-1.21-.51Zm13.72-4.07c.04-7.65-.06-15.3.17-22.94.09-3.05-.78-4.33-3.9-3.93-1.31.17-2.67.17-3.98,0-2.74-.34-3.83.56-3.68,3.51.24,4.98.1,9.97.07,14.96q-.05,10.42,10.68,9.63c.8-.11.92-.57.64-1.24Z"/>
  <path class="cls-1" d="m774.46,872.9c3.15,0,6.31.03,9.46,0,2.81-.02,4.27,1.15,4.24,4.15-.08,6.81-.05,13.61.01,20.42.03,2.9-1.1,4.09-4.15,4.04-14.84-.24-13.7,1.87-13.54-12.93.04-3.82-.07-7.64,0-11.45.03-1.56-.44-3.47,1.79-4.11-.02.72.27,1.39,1.02,1.2.47-.13.78-.86,1.16-1.32Zm-.67,13.68h.03c0,2.82,0,5.64,0,8.46,0,1.19.02,2.08,1.64,2.47,7.06,1.71,9.53-.07,9.57-7.18.01-2.49-.27-5.02.08-7.46.73-5.14-1.13-6.69-6.36-6.54-4.22.12-5.6,1.23-5,5.27.24,1.62.04,3.31.04,4.97Z"/>
  <path class="cls-1" d="m772.03,861.58c2.03.2,3.13,1.26,3.11,3.22-.02,2-1.05,2.89-3.17,2.83-2.02-.06-3.85-.33-3.67-2.79.15-2.09,1.91-2.87,3.73-3.26Z"/>
  <path class="cls-2" d="m774.46,872.9c-.38.46-.69,1.2-1.16,1.32-.75.2-1.04-.48-1.02-1.2.69-.71,1.42-.61,2.18-.13Z"/>
  <path class="cls-2" d="m771.27,855.51c.4.17.81.34,1.21.51-.6.3-.97.05-1.21-.51Z"/>
  <path class="cls-3" d="m1029.21,741.15c0-.5,0-.99,0-1.49,0-9.57,1.02-10.34,10.66-9.05,2.24.3,2.17,1.46,2.16,2.99-.02,4.96-.11,9.93.02,14.89.06,2.27-.53,3.08-3,3.2-9.86.47-9.86.58-9.84-10.53Z"/>
  <path class="cls-3" d="m1012.95,740.9c0-.99,0-1.98,0-2.98-.01-7.26,0-6.97,7.27-7.31,4.56-.21,6.09,1.19,5.62,5.73-.41,3.93-.19,7.93-.04,11.9.09,2.37-.32,3.48-3.16,3.56-9.7.27-9.69.41-9.69-10.9Z"/>
  <path class="cls-3" d="m1029.17,716.53c0-1.16-.04-2.32,0-3.48.3-7.76-1.03-6.41,6.93-7.01,4.78-.36,6.54.87,5.99,5.8-.44,3.92-.23,7.94-.03,11.91.12,2.48-.83,2.94-3.12,3.02-9.82.34-9.81.42-9.77-10.23Z"/>
  <path class="cls-3" d="m1025.81,716.99c0,.33,0,.66,0,1-.06,9.27-1.33,10.22-10.85,8.76-1.86-.29-2.06-1.1-2.04-2.58.05-4.98.13-9.96.03-14.94-.04-2.01.77-2.37,2.61-2.51,10.35-.8,10.35-.85,10.26,10.28Z"/>
  <path class="cls-3" d="m1025.76,692.53c0,.33,0,.66,0,1-.21,10.41,2,9.06-9.71,9.24-2.29.04-3-.54-3.17-2.98-.66-9.36,4.4-13.77,8.99-16.07,2.57-1.29,4.43-1.68,3.97,2.34-.24,2.13-.04,4.31-.04,6.46h-.04Z"/>
  <path class="cls-3" d="m1040.79,702.54q-11.76-.07-11.55-11.69c.04-2.47,0-4.94,0-7.49,9.65,1.69,12.99,6.72,12.62,18.35-.36.28-.71.56-1.07.84Z"/>
  <path class="cls-3" d="m1027.25,756.18c5.63,0,11.27-.02,16.9.01,1.24,0,2.85-.35,2.8,1.76-.04,1.83-1.09,2.66-2.86,2.66-11.44-.03-22.87-.09-34.31-.08-1.63,0-1.89-.79-1.92-2.14-.04-1.83.89-2.14,2.48-2.12,5.63.07,11.27.03,16.9.03,0-.04,0-.08,0-.12Z"/>
  <path class="cls-2" d="m1040.79,702.54c.36-.28.71-.56,1.07-.84.04.79-.3,1.09-1.07.84Z"/>
  <path class="cls-3" d="m1029.35,870.31c-.05-5.96-.05-11.93-.19-17.89-.05-2.07.53-3.19,2.78-2.88.16.02.33.01.5,0,9.54-.37,9.66-.37,9.47,9.1-.08,3.89,1.87,9.08-.88,11.32-2.32,1.89-7.29.52-11.08.6l-.21-.33s-.38.08-.38.08Z"/>
  <path class="cls-3" d="m1013.03,859.79c0-.83,0-1.66,0-2.49.02-7.84.03-7.63,7.87-7.86,3.86-.11,5.43.92,4.94,4.92-.3,2.45-.01,4.98.01,7.47.08,8.89-1.99,10.46-10.95,8.73-1.94-.38-1.89-1.46-1.89-2.79-.02-2.66,0-5.31,0-7.97h.03Z"/>
  <path class="cls-3" d="m1041.89,825.61c.02,5.65-.08,11.3.1,16.94.08,2.44-.77,2.98-3.1,3.07-9.69.39-9.69.48-9.72-9.39,0-3.49-.01-6.98-.02-10.46.62-.32,1.25-.64,1.87-.96,3.25,0,6.51,0,9.76-.01l1.09.83Z"/>
  <path class="cls-3" d="m1013.01,835.11c0-.83,0-1.66,0-2.49,0-7.01.01-6.71,6.94-7.1,4.6-.26,6.82.75,5.91,5.77-.32,1.77-.06,3.64-.06,5.46,0,8.95,0,8.81-8.76,8.89-3.17.03-4.54-.73-4.12-4.08.27-2.12.05-4.3.05-6.46h.03Z"/>
  <path class="cls-3" d="m1025.85,801.6c0,5.72-.1,11.02.04,16.32.08,2.89-1.18,4.02-3.87,3.63-3-.43-6.54,1.46-8.91-.99-1.86-1.92.9-11.01,3.68-14.1,2.25-2.5,5-4.1,9.06-4.86Z"/>
  <path class="cls-3" d="m1029.15,819.48v-17.33c9.43.46,12.85,8.4,12.89,16.37.01,1.95-.69,2.63-2.58,2.58-3.28-.09-6.58.59-9.84-.28-.16-.44-.31-.89-.47-1.33Z"/>
  <path class="cls-3" d="m1026.92,879.46c-5.46,0-10.93,0-16.39,0-1.32,0-2.62.27-2.68-1.85-.06-2.03.86-2.62,2.63-2.63,11.42-.04,22.85-.07,34.27-.18,1.88-.02,2.08.93,2.19,2.45.16,2.13-.83,2.37-2.64,2.33-5.79-.11-11.59-.04-17.38-.04,0-.03,0-.06,0-.08Z"/>
  <path class="cls-2" d="m1031.04,824.79c-.62.32-1.25.64-1.87.96.03-1.49.93-1.27,1.87-.96Z"/>
  <path class="cls-2" d="m1041.89,825.61c-.36-.28-.73-.55-1.09-.83.76-.24,1.14.01,1.09.83Z"/>
  <path class="cls-2" d="m1029.15,819.48c.16.44.31.89.47,1.33-.73-.24-.81-.71-.47-1.33Z"/>
  <path class="cls-2" d="m1029.35,870.31l.38-.08.21.33c-.24.15-.48.31-.72.46.04-.24.09-.48.13-.72Z"/>
  <path class="cls-3" d="m493.52,741.26c0,.99,0,1.99,0,2.98.01,7.5,0,7.16-7.58,7.59-4.59.26-5.79-1.28-5.39-5.53.34-3.61.31-7.3,0-10.92-.3-3.55.56-4.91,4.48-4.8,8.48.23,8.48-.01,8.49,10.68Z"/>
  <path class="cls-3" d="m509.69,741.32c0,.5,0,.99,0,1.49.07,9.13.07,9.01-9.04,8.93-2.78-.03-3.82-.74-3.71-3.6.18-4.47.1-8.95-.04-13.42-.09-2.79.54-4.08,3.82-4.08,8.87,0,8.87-.18,8.97,10.67Z"/>
  <path class="cls-3" d="m480.64,716.42c0-.33,0-.66,0-1,.04-8.75.04-8.59,8.9-8.74,3.24-.06,4.34.78,4.09,4.08-.31,4.13-.29,8.31-.09,12.45.14,2.86-.86,3.54-3.63,3.56-9.31.05-9.31.17-9.27-10.34Z"/>
  <path class="cls-3" d="m497,713.55c.29-2.22-1.09-5.8.88-6.39,3.33-1,7.18-.42,10.81-.27,1.3.06,1,1.49,1.01,2.41.05,2.81.04,5.62.04,8.42,0,9.87-.48,10.19-10.47,9.04-2.13-.25-2.39-1.2-2.3-2.84.48-.47.44-.93-.03-1.38,0-.89,0-1.78.01-2.68.91-2.1.9-4.2.06-6.32Z"/>
  <path class="cls-3" d="m493.48,692.2c0,2.15-.11,4.3.03,6.44.19,2.91-.86,4.51-3.96,4.04-2.95-.45-7.48,1.67-8.55-1.2-1.54-4.13-.83-9.05,2.36-12.93.42-.51.89-.98,1.35-1.45,2.21-2.27,5.09-4.97,7.86-4.05,2.3.76.59,4.67.9,7.15.08.65.01,1.32,0,1.98Z"/>
  <path class="cls-3" d="m496.91,698.57c.04-4.3.22-8.61.07-12.9-.09-2.77.94-2.53,3.07-1.99,6.44,1.62,11.99,12.04,9.44,17.96-.56,1.29-1.52,1.05-2.42,1.05-3.14,0-6.28-.07-9.42-.12-.2-.34-.4-.69-.6-1.03-.04-.54-.07-1.09-.11-1.63.63-.46.6-.91-.03-1.34Z"/>
  <path class="cls-3" d="m510.7,756.36c1.51.35,3.97-1.06,3.92,2.19-.05,3.29-2.52,1.96-4,1.98-10.3.11-20.61.12-30.91.02-1.46-.01-3.94,1.32-4.05-1.94-.12-3.68,2.68-2.22,4.26-2.24,9.8-.13,19.61-.06,29.41-.06.45.02.9.03,1.35.05Z"/>
  <path class="cls-2" d="m497,713.55c.84,2.11.86,4.22-.06,6.32-.59-2.11-.64-4.22.06-6.32Z"/>
  <path class="cls-2" d="m510.7,756.36c-.45-.02-.9-.03-1.35-.05.48-.61.93-.58,1.35.05Z"/>
  <path class="cls-2" d="m496.91,698.57c.64.43.67.87.03,1.34-.01-.45-.02-.89-.03-1.34Z"/>
  <path class="cls-2" d="m497.05,701.53c.2.34.4.69.6,1.03-.64-.09-.89-.4-.6-1.03Z"/>
  <path class="cls-2" d="m496.93,722.55c.47.45.51.91.03,1.38-.01-.46-.02-.92-.03-1.38Z"/>
  <path class="cls-3" d="m493.5,860.17c0,.99,0,1.99,0,2.98.05,7.39.03,7.02-7.09,7.51-4.99.34-6.41-1.37-5.8-6.03.34-2.61.03-5.29.02-7.94q-.04-7.1,6.98-7.12,5.89-.01,5.9,10.6Z"/>
  <path class="cls-3" d="m480.56,835.7c0-.17,0-.33,0-.5-.03-10.42-.04-10.33,10.31-9.68,2.3.14,2.71.97,2.67,2.96-.1,4.8-.13,9.6-.01,14.4.07,2.83-1.15,3.64-3.86,3.74-9.12.33-9.12.42-9.1-8.44,0-.83,0-1.65,0-2.48Z"/>
  <path class="cls-3" d="m496.77,842.45c.03-4.49.15-8.99.04-13.48-.06-2.51.68-3.37,3.37-3.43,9.42-.21,9.41-.33,9.42,9.16,0,1.16.12,2.34,0,3.49-.25,2.57,1.43,6.43-.78,7.45-3.3,1.52-7.46.76-11.23.17-.96-.15-.82-1.3-.82-2.12.55-.42.55-.83,0-1.24Z"/>
  <path class="cls-3" d="m509.66,860.4c0,.66,0,1.32,0,1.99.05,8.22.05,8.05-8.28,8.2-3.4.06-4.73-.84-4.54-4.35.23-4.29.23-8.62-.05-12.9-.21-3.22,1.08-3.82,4-3.81,8.81.03,8.81-.09,8.87,10.89Z"/>
  <path class="cls-3" d="m493.5,810.38c0,2.56-.15,4.72.04,6.86.28,3.17-.86,4.82-4.17,4.32-2.91-.44-7.46,1.66-8.43-1.27-1.37-4.15-.78-9.12,2.51-12.94,2.52-2.92,5.81-6.35,9.33-5.24,2.16.68.27,5.67.72,8.28Z"/>
  <path class="cls-3" d="m496.84,801.65c9.46,2.88,13.1,7.82,12.83,16.5-.06,2.11-.24,3.33-2.92,3.24-11.96-.43-9.58,1.77-9.89-9.43-.09-3.3-.01-6.61-.01-10.31Z"/>
  <path class="cls-3" d="m478.74,875.1c10.78.03,21.55.04,32.33.13,1.44.01,3.41-.77,3.52,2.07.11,2.8-1.66,2.25-3.25,2.25-10.94-.02-21.89-.03-32.83-.11-.98,0-2.53.83-2.81-.97-.22-1.39-.63-3.12,1.67-3.38.45.45.91.43,1.37,0Z"/>
  <path class="cls-2" d="m496.77,842.45c.55.41.56.83,0,1.24,0-.41,0-.83,0-1.24Z"/>
  <path class="cls-2" d="m478.74,875.1c-.46.42-.92.44-1.37,0,.46-.43.92-.46,1.37,0Z"/>
  <path class="cls-3" d="m761.2,707.22c0,1.82-.23,3.68.05,5.46.65,4.18-.96,5.3-5.1,5.13-7.88-.32-7.89-.06-7.89-8.18,0-3.65.1-7.3-.01-10.94-.07-2.15.75-2.75,2.87-2.92,10.03-.78,10.02-.86,10.08,11.45Z"/>
  <path class="cls-3" d="m748.29,730.83c0-1,0-2,0-3-.06-7.22-.05-6.91,7.32-7.3,4.68-.25,6.09,1.33,5.65,5.81-.36,3.63-.25,7.33-.04,10.97.18,3.06-.49,4.36-4,4.32-8.82-.12-8.82.08-8.93-10.8Z"/>
  <path class="cls-3" d="m764.59,715.54c0-5.65.09-11.3-.03-16.94-.05-2.11.52-3.17,2.75-2.92.33.04.66.01,1,0q9.17-.1,9.17,9.07,0,12.27-12.16,11.83c-.24-.35-.49-.7-.73-1.05Z"/>
  <path class="cls-3" d="m765.3,720.81q12.08-.22,12.14,11.74c0,1.65,0,3.3-.02,4.95-.02.82.21,1.94-.23,2.4-2.92,3.06-6.75,1.53-10.22,1.78-2.97.22-2.14-2.24-2.45-3.85.63-.45.54-.87-.04-1.27,0-4.9.02-9.81.02-14.71.27-.35.54-.69.8-1.04Z"/>
  <path class="cls-3" d="m761.18,682.13c0,.5,0,.99,0,1.49.03,9.76-.95,10.57-10.82,9.1-.98-.15-1.74-.1-2.14-1.42-2.02-6.57,2.92-15.29,9.68-17.95,3.2-1.26,3.34-.15,3.27,2.33-.06,2.15-.01,4.3-.01,6.45h.03Z"/>
  <path class="cls-3" d="m764.7,682.13c0-1.49-.12-2.99.03-4.46.16-1.55-.98-3.62.61-4.56,1.75-1.03,3.39.59,4.97,1.41,5.66,2.95,7.11,10.97,6.93,15.73-.06,1.51-.75,2.07-2.17,1.95-.16-.01-.33-.03-.49-.01q-9.92,1.03-9.88-10.05Z"/>
  <path class="cls-3" d="m744.33,745.8c11.47.18,22.96-.33,34.41.85,2.07.21,4.06-.08,3.41,2.98-.34.31-.69.61-1.03.92-12.26-.01-24.51-.03-36.77-.04-.37-.27-.75-.54-1.12-.82-.01-1.02-.02-2.04-.03-3.05.38-.28.75-.56,1.13-.84Z"/>
  <path class="cls-2" d="m764.59,715.54c.24.35.49.7.73,1.05-.75,0-1.05-.31-.73-1.05Z"/>
  <path class="cls-2" d="m765.3,720.81c-.27.35-.54.69-.8,1.04-.27-.76-.02-1.12.8-1.04Z"/>
  <path class="cls-2" d="m764.48,736.56c.58.4.67.83.04,1.27-.01-.42-.03-.85-.04-1.27Z"/>
  <path class="cls-2" d="m744.33,745.8c-.38.28-.75.56-1.13.84-.04-.84.35-1.11,1.13-.84Z"/>
  <path class="cls-2" d="m743.24,749.69c.37.27.75.54,1.12.82-.76.26-1.16.03-1.12-.82Z"/>
  <path class="cls-2" d="m781.13,750.55c.34-.31.69-.61,1.03-.92.11.82-.2,1.16-1.03.92Z"/>
  <path class="cls-3" d="m751.29,838.61c0,3.65-.09,7.31.02,10.96.19,5.99-4.32,3.42-7.09,3.96-3.27.65-4.2-.77-4.09-4.02.24-6.97.23-13.96-.04-20.92-.13-3.34.96-4.47,4.17-4.03,1.47.2,3,.19,4.48.05,2-.2,2.61.62,2.56,2.54-.1,3.82-.03,7.64-.02,11.46Z"/>
  <path class="cls-3" d="m740.25,886.81c0-.99,0-1.98,0-2.98-.06-7.48,1.64-8.75,9.14-7.34,2,.38,1.82,1.49,1.82,2.78.01,4.8.19,9.6-.04,14.39-.27,5.55-4.76,3.32-7.73,3.86-3.24.58-3.4-1.32-3.23-3.76.16-2.3.04-4.63.05-6.94Z"/>
  <path class="cls-3" d="m784.35,852.68q-10.75.79-10.68-9.63c.03-4.99.17-9.98-.07-14.96-.14-2.95.94-3.84,3.68-3.51,1.31.16,2.68.16,3.98,0,3.11-.41,3.99.88,3.9,3.93-.24,7.64-.14,15.29-.17,22.94-.21.41-.43.83-.64,1.24Z"/>
  <path class="cls-2" d="m784.35,852.68c.21-.41.43-.83.64-1.24.28.67.17,1.13-.64,1.24Z"/>
  <path class="cls-3" d="m773.79,886.58c0-1.66.2-3.35-.04-4.97-.6-4.04.78-5.14,5-5.27,5.23-.15,7.09,1.4,6.36,6.54-.35,2.44-.06,4.97-.08,7.46-.04,7.11-2.51,8.88-9.57,7.18-1.62-.39-1.65-1.29-1.64-2.47,0-2.82,0-5.64,0-8.46h-.03Z"/>
</svg>