<?xml version="1.0" encoding="UTF-8"?>
<svg id="Layer_1" data-name="Layer 1" xmlns="http://www.w3.org/2000/svg" viewBox="0 0 1533.71 1501.1">
  <defs>
    <style>
      .cls-1 {
        fill: #7269d9;
      }

      .cls-2 {
        fill: #3f4a59;
      }

      .cls-3 {
        fill: #878d91;
      }

      .cls-4 {
        fill: #fcfdfc;
      }

      .cls-5 {
        fill: #cad2d9;
      }
    </style>
  </defs>
  <path class="cls-2" d="m1075.83,551.07c-1.83-.53-2.62,1.33-4.03,1.77-3.99.11-7.99.22-11.98.32-3.86-.97-7.87-1.56-11.53-3.02-3.81-1.53-6.22-.46-8.66,2.4-13.14,15.39-26.31,30.77-39.6,46.03-16.74,19.22-33.22,38.69-50.64,57.27-6.39,6.82-9.13,12.53-3.82,20.76.86,1.33.94,3.17,2.46,4.15-.18.66-.09,1.29.28,1.88.06,4.64.12,9.27.17,13.91-.7,2.01-1.41,4.02-2.11,6.03-.26.64-.22,1.27.13,1.87-.22.64-.44,1.28-.65,1.92-1.16.23-1.93.75-1.56,2.11-.5,1.87-1.01,3.74-1.51,5.61-7.59,11.16-17.53,19.1-30.85,22.39-4.02.15-8.04.3-12.06.45-2.97-.34-6.22-.01-8.85-1.14-6.09-2.61-10.03-.37-13.75,4.28-6.23,7.78-12.65,15.4-19.1,23-23.4,27.62-46.74,55.3-70.36,82.74-5.13,5.96-7.06,11.62-2.63,18.62.87,1.38,1.21,3.11,2.75,4.03.24,5.28.48,10.57.71,15.85-.41,4.09-3.05,7.66-2.83,11.9,0,0,.08-.06.08-.06-1.16.24-1.9.78-1.53,2.12-.16,1.29-.31,2.58-.47,3.87-5.34,7.99-12.05,14.61-19.98,20.01,0,0-.06.02-.06.02-3.95,1.37-7.9,2.73-11.85,4.1-6.03.09-12.07.18-18.1.27-3.62.68-6.33-2.08-9.64-2.53,0,0-.05.03-.05.03-2.42-1.58-4.89-3.1-7.27-4.74-9.07-6.24-15.64-14.39-18.91-25.03.1-.24.32-.51.26-.7-.14-.46-.41-.88-.62-1.32-2.31-5.41-1.69-11.11-1.43-16.71.15-3.13.26-5.84-2.95-7.71-10.6-6.15-20.09-14.09-31.16-19.49,0,0-.1-.06-.1-.06-13.75-10.42-28.96-18.64-43.06-28.53-4.7-3.3-8.56-3.93-13.31-.03-2.68,2.21-6.4,3.15-9.66,4.66-8.62.02-17.25.05-25.87.07-1.31-.03-2.97.45-3.88-.17-3.67-2.53-6.08-1.65-8.78,1.72-6.56,8.17-14.23,15.42-20.26,24.06-1.54.97-2.8,2.17-3.25,4.02-7.44,7.54-14.49,15.43-20.82,23.94-.88.19-1.32.72-1.3,1.62-14.92,16.95-29.65,34.07-44.87,50.75-4.33,4.74-4.67,8.87-1.7,13.99,4.99,8.6,4.32,17.67,2.48,26.98-2.45,12.42-9.95,21.25-19.45,28.83-1.72.15-3.01,1.08-4.15,2.28-3.49.83-6.9,1.83-9.98,3.74-7.35.04-14.69.09-22.04.13q-9.68-2.8-14.57,3.58c-1.05.21-1.5.9-1.53,1.92-1.17.38-1.82,1.19-2.01,2.39-.71.48-1.42.96-2.12,1.45-12.89,15.06-25.87,30.05-38.67,45.2-15.37,18.19-31.53,35.72-45.97,54.69-3.49,3.2-6.58,6.89-11.1,8.8-2.55-.31-5.1-.61-7.65-.92-.72-1.28-1.97-1.55-3.28-1.7-7.12-10.6-6.89-13.36,1.54-23.28,2.75-3.23,6.01-6.07,7.87-10.01,0,0-.05.04-.05.04,3.25-1.9,5.19-5.1,7.55-7.85,25.55-29.83,50.89-59.84,76.69-89.46,4.04-4.63,5.33-8.04.91-12.47-1.35-1.36-1.19-2.91-1.58-4.47-1.96-7.85-2.12-15.77-1.32-23.76,1.14-1.22,1.35-2.65,1-4.22,7.54-18.15,20.73-29.31,40.35-32.46,3.31.48,6.63.63,9.94.03,1.81.75,3.57,1.69,5.44,2.22,9.79,2.73,9.86,2.75,16.63-5.07,17.21-19.89,34.47-39.73,51.5-59.77,10.97-12.92,23.04-24.9,32.88-38.77.77-.07,1.17-.49,1.19-1.26q7.39-7.39,2.41-12.9c-.16-1.27-.33-2.55-.49-3.82.01-.66.18-1.35.02-1.96-7.48-27.86,10.64-55.07,40.4-58.43,2.65.51,5.29.56,7.92-.09,16.56,2.11,28.95,10.6,37.68,24.66.13,1.56.43,3.04,1.79,4.06,1.24,3.86-.71,8.54,3,11.78-.03,4-.05,7.99-.08,11.99-3.73,4.22-3.04,7.21,1.88,10.26,15.83,9.82,31.43,20.01,47.12,30.06,9.24,5.92,18.5,11.82,27.72,17.78,2.35,1.52,4.35,2.55,7.12.32,9.94-8,21.44-11.44,34.17-10.88,10.77,5.27,18.25,2.49,26.01-7.1,26.96-33.32,54.89-65.85,82.49-98.66q9.18-10.92,2.7-23.76c-.24-.69-.48-1.38-.72-2.07-.4-1.95-.8-3.9-1.2-5.84-.02-2.66-.03-5.33-.05-7.99,1.64-8.8,3.22-17.61,8.75-25.05,3.27-3.3,6.55-6.6,9.82-9.9,4.56-2.35,9.12-4.7,13.68-7.04,1.25-.07,2.51-.15,3.76-.22,6.11.11,12.22.61,18.3-.52,2.51.83,4.98,1.81,7.54,2.46,4.19,1.07,7.51.04,10.54-3.48,29.14-33.91,58.29-67.8,87.77-101.41,6.13-6.99,9.3-13.3,2.62-21.41-.56-.67-.44-1.9-.64-2.87.39-1.63.48-3.2-.84-4.51-6.36-26.11,15.82-49.17,34.53-52.16,6.21,0,12.43.54,18.6-.61,2.57.68,5.42.86,7.64,2.14,4.62,2.68,7.25,1.2,10.78-2.42,13.95-14.29,26.33-29.95,39.85-44.6,13.97-15.13,27.77-30.43,41.45-45.83,8.02-9.03,7.87-11.65.21-22.31-.06-3.31-.09-6.63-.18-9.94-.65-24.37,19.74-44.43,39.54-46.24,4.89.65,9.77.64,14.66.03,2.12.76,4.18,1.76,6.36,2.25,25.6,5.69,35.46,33.01,30.99,53.28-3.81,17.24-14.8,29.01-31.85,34.66-6.52.27-13.04.54-19.56.81-2.85-.88-5.94-1.33-8.51-2.74-4.94-2.7-7.8-.57-11.03,3.09-25.29,28.66-50.94,56.99-76.04,85.81-14.2,16.3-12.45,11.04-5.54,29.28-.34.64-.25,1.21.28,1.7-1.34,6.43-.27,13.12-2.39,19.51-5.14,15.53-15.59,25.57-30.93,30.79Zm-340.05,311.1c-2.59,1.93-5.64,3.03-8.07,5.4-8.23,8.04-7.66,21.08,1.49,28.16,6.94,5.36,14.3,6.38,22.29,2.55,7.4-3.55,10.81-9.68,10.82-17.58.02-8.78-3.85-15.24-12.47-18.3-4.64-2.85-9.32-3.29-14.06-.22Zm186.16-165.63c.25-.18.71-.37.7-.54-.02-.54-.21-1.07-.34-1.61.59-10.05-2.77-17.78-12.67-21.71-5.12-3.14-10.23-3.21-15.33.03-7.45,3.43-11.86,8.98-12.42,17.38-.7,10.57,5.51,16.24,14.14,20.27,3.92,2.99,7.9,2.88,11.93.23,6.86-2.5,11.88-6.83,13.99-14.05Zm275.42-364.12c-.94.66-1.27,1.52-.85,2.61-.98,10.63,3.33,18.04,13.41,21.91,4.55,2.82,9.11,2.91,13.67,0,9.11-3.13,13.1-9.94,12.88-19.11-.24-9.71-5.43-16.1-14.71-19.11-3.33-2.54-6.67-2.56-10.03-.07-7.01,2.26-12.75,5.85-14.36,13.74Zm-607.34,466.04c9.43-4.72,13.49-11.66,12.36-21.11-1.04-8.67-7.22-14.87-16.89-16.94-11.23-2.4-23.07,7.02-23.38,18.37-.26,9.38,4.11,15.63,12.35,19.55.98,1.03,2.05,1.79,3.59,1.32,2.7.77,5.4.68,8.12.09,1.6.53,2.85-.01,3.86-1.27Zm-161.79,181.86c5.06-2.29,10.23-4.14,12.59-10.13,3.78-9.62,2.91-17.67-3.32-23.97-5.63-5.69-16.29-7.35-24.52-3.47-9.64,4.54-14.85,19.8-7.42,28.67,3.08,3.67,6.43,6.66,10.71,8.67,3.93,2.85,7.92,3.18,11.96.23Zm632.65-453.51c9.93,1.3,21.28-6.18,21.49-19.33.19-12.31-7.56-19.97-21.35-20.51-9.49-.37-18.7,9.19-18.73,19.45-.04,10.76,8.53,20.16,18.59,20.39Z"/>
  <path class="cls-2" d="m242.91,320.99c-.15,15.95-.42,31.9-.42,47.85-.01,256.07.01,512.14.05,768.21,0,3.65.26,7.29.4,10.94-.58,2.01-.58,4.01.01,6.01-.09,2.48-.18,4.97-.26,7.45,2.98,4.1,7.35,2.25,11.04,2.25,330.04.11,660.08.13,990.13.12,3.29,0,6.67.67,9.85-.83,11.77,7.69,11.79,16.26.05,25.16-3.32-.08-6.65-.22-9.97-.22-237.65,0-475.3-.01-712.95,0-101.51,0-203.03.07-304.54.11-9.29-3.7-9.79-11.85-10.15-20.06.7-5.99.73-11.99-.02-17.98.68-2.66.68-5.33,0-7.99.77-5.33.76-10.65,0-15.98.16-3.31.46-6.62.47-9.93.02-268.07.03-536.15-.03-804.22,0-5.06.4-9.94,2.38-14.62,1.2-1.2,2.4-2.4,3.6-3.6,1.25-.41,2.51-.82,3.76-1.23,2.65.09,5.31.19,7.96.28,3.13,1.44,5.01,4.26,7.35,6.59l1.36,11.68c-.66,3.33-.72,6.67-.08,10.01Z"/>
  <path class="cls-2" d="m1055.74,921.62c2.19-1.31,1.47-3.5,1.47-5.36.04-64.52.04-129.03.04-193.55,0-.66-.17-1.32-.26-1.98.47-1.26-.02-1.83-1.31-1.83-20.52-.15-41.05-.3-61.57-.48-2.96-.03-6.01.56-8.83-.72-3.75-1.7-5.25-4-1.58-7.34,21.25.02,42.5.13,63.76-.04,3.3-.03,7.46,1.88,9.76-2.53,0-35.24-.02-70.48,0-105.71,0-2.65.04-5.32.43-7.93.32-2.14,1.82-3.5,4.13-3.55,2.34-.05,3.87,1.31,4.24,3.41.46,2.59.55,5.27.55,7.91.02,24.93-.03,49.86.02,74.8,0,3.96-.6,7.98.74,11.87-1.59,6.31-.41,12.75-.86,19.11,1.78,4.44,5.67,2.62,8.66,2.62,61.61.05,123.23-.02,184.84-.06,3.87,4.1,1.34,6.46-2.31,8.52-4.65-.12-9.31-.35-13.96-.36-54.95-.02-109.91,0-164.86,0q-12.94,0-11.82,13.16c.03.32.21.63.32.94-.24,1.95-.69,3.9-.69,5.85-.05,38.68-.06,77.36-.02,116.04,0,1.95.46,3.9.7,5.85-1.69,18.89-.26,37.83-.83,56.74-.11,3.79,1.36,5.52,5.25,5.27,2.65-.17,5.32,0,7.98,0,56.54,0,113.09,0,169.63,0,2.66,0,5.47-.43,7.94.28,4.25,1.21,6.12,3.84,2.54,7.89-60.51,0-121.02-.02-181.52.07-3.5,0-7.36-1.36-10.46,1.63-2.33,8.66-1.4,17.39-.54,26.11-1.24,9.95-1.17,19.91-.04,29.86-1.16,7.36-1.13,14.72.03,22.07-1.18,11.95-1.13,23.9.02,35.85-1.15,6.03-1.14,12.06,0,18.09-1.53,14.06-.32,28.16-.74,42.23-.16,5.24-.33,10.48-.5,15.72-6.75,2.13-8.17,1.56-8.73-4.13-.36-3.62-.15-7.3-.15-10.95.02-55.14.08-110.28.01-165.42,0-3.14,1.41-6.65-1.36-9.46-2.13-2.28-4.93-1.64-7.52-1.65-44.3-.04-88.6-.04-132.89,0-2.57,0-5.41-.73-7.42,1.78-1.74,7.96-1.03,15.96-.36,23.96-.94,5.99-.93,11.98.02,17.97-1.01,7.32-.95,14.65-.02,21.98-.91,7.33-.91,14.65.02,21.97-.83,3.33-.9,6.65-.02,9.99-.71,29.96-1.46,59.93,0,89.89-.36,1.18-.71,2.36-1.07,3.54-.59.16-.86.54-.82,1.15-.51.44-1.02.88-1.52,1.33,0,0-.31.15-.31.15-4.63-.06-6.39-2.7-6.39-7.01,0-7.29-.07-14.57-.08-21.86-.05-53.66-.1-107.31-.15-160.97.49-1.39-.06-1.97-1.47-1.88l.06-.36c-3.51-2.83-7.66-1.54-11.5-1.56-24.19-.15-48.37-.09-72.56-.11-4.08-3.06-1.28-5.46.77-7.93,3.79-.21,7.57-.43,11.36-.64,21.9.13,43.8.31,65.71.37,7.75.02,7.81-.1,7.83-8.47.04-16.59,0-33.18,0-49.77,0-26.54.08-53.09-.03-79.63-.02-4.71.05-8.8,6.44-8.27,4.9,2.83,3.1,7.7,3.12,11.66.17,31.13.07,62.26.02,93.39-.02,10.93-.22,21.86-.18,32.78.01,2.52-1,5.32,1.16,7.56.61.14,1.22.28,1.83.42,31.45.14,62.91.34,94.36.38,16.55.02,33.1-.23,49.65-.35.62-.11,1.24-.21,1.86-.32Z"/>
  <path class="cls-2" d="m977.66,496.91c3.2,2.51,2.17,5.06.08,7.62-4.33.09-8.65.26-12.98.26-197.87.03-395.73.03-593.6.07-28.97,0-57.95.19-86.92.29-3.57-2.13-6.12-4.51-2.09-8.51,4.66.02,9.32.05,13.98.05,171.88,0,343.77-.02,515.65,0,55.29,0,110.59.14,165.88.21Z"/>
  <path class="cls-2" d="m521.89,930.63c-2.67-6.33-2.1-7.93,3.7-8.21,6.95-.33,13.92-.09,20.89-.1,8.29-.01,16.59-.31,24.86.06,5.39.24,6.75-1.92,6.65-6.92-.26-13.91-.12-27.83-.08-41.75,0-3.57-.81-7.41,2.68-10.08,1.05-.11,2.09-.23,3.14-.34,2.84,1.49,3.27,4.43,4.25,7.05-.68,2-.69,4,.03,5.99-1.19,12.95-.35,25.93-.52,38.9-.09,6.87.14,7.02,7.25,7.05,20.65.09,41.31.04,61.96.06,2.33,0,4.8-.39,6.95.26,4.28,1.29,5.96,3.96,2.62,8-23.22-.05-46.43-.14-69.65-.13-2.9,0-6.02-.81-8.59,1.39-1.21,19.55-.49,39.11-.51,58.67-.04,43.14.2,86.27.32,129.41-.69,1.15-1.37,2.29-2.06,3.44-5.06,1.56-7.75-.34-7.86-5.59-.13-6.31-.12-12.63-.12-18.94-.04-54.84-.07-109.68-.1-164.51.45-.59.49-1.2.11-1.84-1.86-2.69-4.71-1.97-7.26-1.97-16.22,0-32.43.07-48.65.11Z"/>
  <path class="cls-1" d="m948.03,680.76c-1.52-.98-1.6-2.82-2.46-4.15-5.31-8.23-2.57-13.94,3.82-20.76,17.42-18.59,33.9-38.06,50.64-57.27,13.29-15.26,26.45-30.64,39.6-46.03,2.45-2.86,4.85-3.93,8.66-2.4,3.66,1.47,7.67,2.05,11.53,3.02.02.49.02.98.02,1.46-1.08.3-1.67,1.04-1.88,2.12-6.71,6.7-13.35,13.47-18.5,21.5,0,0,0,.05,0,.05-2.31.88-3.51,2.97-5.04,4.69-15.51,17.34-30.49,35.13-45.72,52.7-11.5,13.27-23.66,26.08-33.75,40.56-.44.53-.89,1.05-1.33,1.58-1.21,1-2.41,2-3.62,3-.66-.08-1.31-.11-1.97-.07Z"/>
  <path class="cls-1" d="m787.94,868.44c-1.54-.93-1.87-2.65-2.75-4.03-4.43-6.99-2.51-12.65,2.63-18.62,23.61-27.44,46.95-55.11,70.36-82.74,6.44-7.6,12.87-15.22,19.1-23,3.72-4.65,7.66-6.89,13.75-4.28,2.63,1.13,5.88.8,8.85,1.14-.04.48-.1.96-.18,1.44-3.73,3.03-6.74,6.62-8.57,11.12,0,0-.18.23-.16.23-4.72,2.02-7.08,6.19-9.4,10.4,0,0,.04,0,.04,0-7.73,7.7-15.51,15.36-20.58,25.24,0,0-.21.26-.19.26-1.46-.01-2.47.86-3.31,1.89-16.65,20.26-34.25,39.73-50.13,60.62-.52.61-1.05,1.22-1.57,1.84-5.59,4.63-9.64,10.56-13.85,16.35-1.34.71-2.68,1.43-4.02,2.14Z"/>
  <path class="cls-1" d="m857.65,704.44q6.53,12.87-2.7,23.76c-27.59,32.81-55.53,65.34-82.49,98.66-7.76,9.59-15.24,12.37-26.02,7.1,10.49-13.35,22.4-25.56,32.13-39.54,1.15-.51,1.75-1.43,1.96-2.63,10.57-9.2,18.5-20.73,27.62-31.21,16.13-18.53,30.97-38.16,47.65-56.23l.92.09h.92Z"/>
  <path class="cls-1" d="m1017.83,519.09c.2.97.08,2.19.64,2.87,6.68,8.11,3.51,14.43-2.62,21.41-29.48,33.61-58.63,67.5-87.77,101.41-3.03,3.52-6.35,4.55-10.54,3.48-2.56-.65-5.03-1.63-7.54-2.45-.02-.8-.04-1.6-.06-2.4,6.63-9.96,15.1-18.39,22.83-27.43,27.77-32.45,55.82-64.66,83.76-96.97,0,0,.65,0,.65,0l.64.09Z"/>
  <path class="cls-1" d="m1108.87,499.07c-6.92-18.24-8.66-12.98,5.54-29.28,25.1-28.82,50.75-57.15,76.04-85.81,3.23-3.66,6.09-5.79,11.03-3.09,2.57,1.4,5.66,1.86,8.51,2.73-.06.83-.12,1.66-.18,2.49-1.45,1.94-2.9,3.88-4.35,5.83-25.18,28.15-50.4,56.25-75.47,84.49-2.57,2.89-6.12,5.21-6.95,9.44,0,0-.14.17-.13.18-6.03,2.67-8.32,8.98-12.8,13.16-.41-.09-.82-.14-1.24-.15Z"/>
  <path class="cls-1" d="m1170.05,348.79c7.66,10.66,7.81,13.28-.21,22.31-13.68,15.4-27.47,30.7-41.45,45.83-13.53,14.65-25.91,30.31-39.85,44.6-3.53,3.62-6.17,5.1-10.78,2.42-2.22-1.28-5.07-1.46-7.64-2.14-.1-.46-.19-.92-.29-1.38,30.32-34.27,60.6-68.57,91-102.78,2.82-3.17,5.11-7,9.22-8.87Z"/>
  <path class="cls-3" d="m752.01,1161.52h12c22.65,0,45.3,0,67.95-.01,1.34,0,2.68,0,4.02,0,25.31,0,50.63,0,75.94,0,26.65,0,53.3.01,79.95.02,4,0,7.99,0,11.99,0,1.34,0,2.67,0,4.01,0,5.3.1,10.61.28,15.91.28,72.33.03,144.67.04,217,.04,2.98,0,5.96-.18,8.94-.28,1.33.47,2.66.95,3.98,1.42-3.18,1.49-6.56.83-9.85.83-330.04.01-660.08,0-990.13-.12-3.7,0-8.07,1.86-11.04-2.25,25.85.69,51.7.49,77.55.08,2.01,0,4.01,0,6.02,0,32.64,0,65.29,0,97.93,0,12.66,0,25.32,0,37.98,0,16.65,0,33.31,0,49.96,0,9.33,0,18.67,0,28-.01,15.99,0,31.98,0,47.96.01h31.99c43.97,0,87.95,0,131.92,0Z"/>
  <path class="cls-2" d="m527.77,710.73c.6,2.87.94,5.68-1.66,7.87-19.98-.06-39.96-.18-59.95-.17-60.62.03-121.24.11-181.85.18-2.67-2.26-6.8-4.12-2.27-8.33,71.93.01,143.85,0,215.78.05,9.99,0,19.97.27,29.96.41Z"/>
  <path class="cls-2" d="m737.28,1056.1c.61-2,.58-3.99,0-5.99.79-6.65.72-13.31,0-19.96.73-4.67.72-9.34.01-14.01.76-7.32.72-14.63,0-21.95.66-2.67.63-5.35,0-8.02.71-3.32.7-6.64.04-9.96-.01-1.34-.02-2.68-.03-4.02.26-1.94.53-3.89.79-5.83,1.98-.16,3.95-.32,5.93-.47.62.21,1.22.47,1.8.78.34.6.69,1.19,1.03,1.79,0,0,.83-.06.83-.06-.48,5.27-.74,10.54.14,15.8-.99,12.65-.81,25.3,0,37.95-.92,7.33-.73,14.65.03,21.98-.81,3.33-.81,6.66,0,9.98-.83,4-.84,7.99,0,11.99-.56,1.33-.56,2.66,0,3.99-.91,7.33-.79,14.65,0,21.98-.8,4.66-.81,9.32-.02,13.98-.78,2.66-.78,5.33,0,7.99-.74,3.07-.53,6.36-2.22,9.19-7.3-.05-7.7-.24-7.79-7.52-.16-13.91-.04-27.82-.11-41.73-.02-3.96-.29-7.92-.45-11.88.6-2,.6-4,0-6.01Z"/>
  <path class="cls-3" d="m977.66,496.91c-55.29-.07-110.59-.21-165.88-.21-171.88-.03-343.77,0-515.65,0-4.66,0-9.32-.03-13.98-.05,4.13-3.26,8.98-1.84,13.49-1.84,123.44-.08,246.89-.06,370.33-.05,99.82,0,199.64-.03,299.46.08,4.09,0,8.72-1.84,12.23,2.08Z"/>
  <path class="cls-5" d="m284.24,505.15c28.97-.1,57.95-.28,86.92-.29,197.87-.04,395.73-.04,593.6-.07,4.33,0,8.66-.17,12.98-.26-3.11,3.86-7.44,2.15-11.19,2.15-76.86.12-153.72.11-230.58.11-146.4,0-292.8,0-439.2-.09-4.18,0-8.67,1.42-12.53-1.56Z"/>
  <path class="cls-2" d="m805.58,710.75c.64,2.88,1.08,5.72-1.64,7.91-55.27,0-110.54,0-165.82,0-2.68-2.26-6.85-4.12-2.24-8.33,52.25,0,104.49-.02,156.74,0,4.32,0,8.64.28,12.96.42Z"/>
  <path class="cls-2" d="m1057.29,356.85c0-17.6,0-35.2,0-52.8,0-2.32-.05-4.65.11-6.97.19-2.72,1.61-4.12,4.51-4.08,2.91.03,4.23,1.58,4.51,4.19.22,1.97.22,3.97.22,5.96.02,36.19.03,72.39,0,108.58,0,2.63-.24,5.29-.68,7.88-.3,1.76-1.82,2.89-3.53,3-2.13.14-4.07-.92-4.51-3.09-.52-2.57-.62-5.25-.63-7.89-.05-18.26-.03-36.53-.03-54.79h.02Z"/>
  <path class="cls-2" d="m1145.83,496.81c.57-.06,1.13-.19,1.67-.38,37.43.08,74.87.17,112.3.25.52.18,1.05.26,1.59.24,1.11,2.99.77,5.66-1.69,7.88-37.31.06-74.62.12-111.94.17-3.03-2.16-2.72-5.11-1.94-8.17Z"/>
  <path class="cls-2" d="m424.19,1124.31c-5-.36-6.32-3.44-6.3-7.95.03-7.43-.26-14.87-.42-22.3.7-4.65.66-9.31,0-13.97.15-9.75.18-19.5.51-29.25.22-6.6.93-6.94,8.6-5.62,0,0,.34.54.34.54,1.17,25.3.88,50.61.18,75.92-.97.87-1.94,1.75-2.91,2.62Z"/>
  <path class="cls-2" d="m279.86,928.26c.59-6.11,5.1-5.98,9.53-5.97,13.96,0,27.93.03,41.89,0,3.65,0,7.3-.19,10.95-.29,3.32,1.77,4.75,4.43,3.83,8.18-.55.05-1.08.19-1.58.43-20.8-.04-41.61-.07-62.41-.11-1.2-.29-1.83-1.13-2.21-2.23Z"/>
  <path class="cls-3" d="m527.77,710.73c-9.99-.14-19.97-.41-29.96-.41-71.93-.05-143.85-.04-215.78-.05,2.7-2.85,6.22-1.83,9.42-1.83,75.77-.06,151.54-.07,227.31,0,3.06,0,6.78-1.49,9,2.29Z"/>
  <path class="cls-4" d="m284.3,718.61c60.62-.06,121.24-.14,181.85-.18,19.98-.01,39.96.11,59.95.17-2.66,2.94-6.19,1.86-9.38,1.86-74.35.06-148.69.06-223.04,0-3.19,0-6.72,1.08-9.38-1.86Z"/>
  <path class="cls-3" d="m1259.96,710.26c-61.61.05-123.23.12-184.84.06-2.99,0-6.88,1.82-8.66-2.62.51-.09,1.02-.1,1.54-.03,0,0,.81.54.81.54l.97-.08c8.68-.02,17.36-.03,26.04-.05,3.33,0,6.66,0,9.99,0,37.62.1,75.23.21,112.85.29,10.99.03,21.97-.08,32.96.03,2.85.03,6.08-1.07,8.34,1.85Z"/>
  <path class="cls-3" d="m805.58,710.75c-4.32-.15-8.64-.42-12.96-.42-52.25-.03-104.49-.01-156.74,0,2.32-2.67,5.48-1.93,8.38-1.93,51.11-.03,102.21-.04,153.32.02,2.8,0,6.13-1.1,8.01,2.34Z"/>
  <path class="cls-4" d="m638.12,718.65c55.27,0,110.55,0,165.82,0-2.69,2.87-6.2,1.8-9.39,1.8-49.02.06-98.03.06-147.05,0-3.18,0-6.7,1.07-9.38-1.81Z"/>
  <path class="cls-5" d="m1259.7,504.81c-2.58,3.07-6.12,1.87-9.28,1.92-12.89.17-25.78.17-38.67.23-6.67,0-13.33,0-20,0-4.66,0-9.31,0-13.97.01-7.34,0-14.67,0-22.01-.01-2.69-.58-5.85.77-8.02-1.96,37.31-.06,74.62-.12,111.94-.17Z"/>
  <path class="cls-3" d="m1259.8,496.68c-37.43-.08-74.87-.17-112.3-.25,3.09-2.99,6.95-1.6,10.45-1.63,30.6-.22,61.2-.28,91.79-.39,3.27.26,6.54.52,9.81.78.12.49.2.99.25,1.49Z"/>
  <path class="cls-3" d="m983.7,710.36c.16-.44.29-.9.39-1.36,15.59-1.36,31.21-.28,46.81-.61,4.98-.1,9.96-.18,14.94-.27,3.81.5,7.6.49,11.37-.33-2.3,4.41-6.46,2.5-9.76,2.53-21.25.17-42.5.06-63.76.04Z"/>
  <path class="cls-3" d="m344.49,930.6c-2.59,3.15-6.17,1.79-9.31,1.82-16.97.16-33.94.13-50.91.17-.73-.7-1.46-1.4-2.19-2.1,20.8.04,41.61.07,62.41.11Z"/>
  <path class="cls-3" d="m1209.81,386.11c.06-.83.12-1.66.18-2.49,6.53-.26,13.05-.53,19.57-.8-3.7,2.18-7.93,1.88-11.95,2.56-2.4-.32-4.85-.88-6.8,1.24-.33-.17-.66-.33-.99-.51Z"/>
  <path class="cls-3" d="m909.94,643.41c.02.8.04,1.6.06,2.4-6.07,1.13-12.19.63-18.3.52,5.6-3.99,12.45-.13,18.24-2.92Z"/>
  <path class="cls-3" d="m1069.83,460.43c.09.46.19.93.29,1.38-6.17,1.15-12.39.61-18.6.61,5.78-3.66,12.25-.97,18.31-1.99Z"/>
  <path class="cls-3" d="m1224.07,292.64c-4.89.6-9.78.61-14.66-.03,4.89-2.33,9.78-2.29,14.66.03Z"/>
  <path class="cls-4" d="m649.53,775.2c.55.24,1.41.37,1.57.77.16.39-.4,1.07-.64,1.62-.55-.24-1.41-.36-1.57-.76-.16-.39.39-1.07.64-1.62Z"/>
  <path class="cls-4" d="m1210.8,386.62c1.96-2.12,4.4-1.56,6.8-1.24-1.97,2.07-4.44,1.36-6.8,1.24Z"/>
  <path class="cls-3" d="m1017.83,519.09l-.64-.09s-.65,0-.65,0c.15-1.47.3-2.95.45-4.43,1.32,1.31,1.23,2.88.84,4.51Z"/>
  <path class="cls-4" d="m946.5,704.44c-.35-.6-.39-1.22-.13-1.87.23.43.51.84.66,1.29.04.13-.34.38-.53.58Z"/>
  <path class="cls-4" d="m944.29,708.48c-.37-1.36.39-1.88,1.56-2.11-.52.7-1.04,1.41-1.56,2.11Z"/>
  <path class="cls-4" d="m1069.78,708.13l-.97.08s-.81-.54-.81-.54c.8-.66,1.36-.37,1.78.46Z"/>
  <path class="cls-4" d="m904.24,1124.04c.51-.44,1.02-.88,1.52-1.33-.51.44-1.02.88-1.52,1.33Z"/>
  <path class="cls-4" d="m1055.74,921.62c-.62.11-1.24.21-1.86.32.48-.91,1.08-1.14,1.86-.32Z"/>
  <path class="cls-4" d="m909.87,921.91c-.61-.14-1.22-.28-1.83-.42.81-.74,1.39-.46,1.83.42Z"/>
  <path class="cls-5" d="m1055.33,720.56c.17-.54.28-1.09.36-1.65,1.29,0,1.78.57,1.31,1.83,0,0-.84.03-.84.03l-.82-.2Z"/>
  <path class="cls-3" d="m746.85,968.45c-.34-.6-.69-1.19-1.03-1.79,1.17.12,1.6.67,1.03,1.79Z"/>
  <path class="cls-4" d="m394.05,1014.2c.19-1.2.84-2.01,2.01-2.39-.67.8-1.34,1.59-2.01,2.39Z"/>
  <path class="cls-4" d="m416.26,980.09c-4.28-2.02-7.63-5-10.71-8.67-7.42-8.87-2.21-24.13,7.42-28.67,8.23-3.88,18.89-2.22,24.52,3.47,6.23,6.3,7.1,14.35,3.32,23.97-2.35,5.99-7.52,7.85-12.59,10.13-3.99-.08-7.98-.15-11.96-.23Z"/>
  <path class="cls-4" d="m574.45,798.32c-8.24-3.91-12.6-10.16-12.35-19.55.31-11.35,12.15-20.77,23.38-18.37,9.67,2.07,15.85,8.27,16.89,16.94,1.13,9.45-2.93,16.39-12.36,21.11-1.54-.33-2.9-.12-3.86,1.28-2.71.59-5.42.68-8.12-.09-.85-1.38-2.13-1.58-3.59-1.33Z"/>
  <path class="cls-4" d="m1221.75,318.74c9.28,3,14.47,9.39,14.71,19.11.22,9.17-3.76,15.98-12.87,19.11-4.56,0-9.11,0-13.67,0-10.08-3.88-14.38-11.28-13.41-21.91.97-.65,1.24-1.53.85-2.61,1.62-7.89,7.35-11.49,14.36-13.74,3.34.02,6.69.04,10.03.07Z"/>
  <path class="cls-4" d="m1060.87,526.81c-10.06-.23-18.63-9.63-18.59-20.39.03-10.26,9.24-19.82,18.73-19.45,13.79.53,21.54,8.2,21.35,20.51-.2,13.15-11.55,20.63-21.49,19.33Z"/>
  <path class="cls-4" d="m909.63,672.69c9.9,3.93,13.27,11.66,12.67,21.71-.12.71-.24,1.43-.36,2.14-2.11,7.22-7.13,11.55-13.99,14.05-3.98-.08-7.95-.15-11.93-.23-8.63-4.03-14.84-9.69-14.14-20.27.55-8.4,4.97-13.95,12.42-17.38,5.11-.01,10.22-.02,15.33-.03Z"/>
  <path class="cls-4" d="m749.84,862.4c8.62,3.06,12.49,9.52,12.47,18.3-.02,7.91-3.42,14.03-10.82,17.58-7.98,3.83-15.35,2.81-22.29-2.55-9.15-7.07-9.73-20.12-1.49-28.16,2.43-2.37,5.48-3.47,8.07-5.4,4.69.07,9.37.15,14.06.22Z"/>
  <path class="cls-5" d="m909.63,672.69c-5.11.01-10.22.02-15.33.03,5.1-3.24,10.21-3.18,15.33-.03Z"/>
  <path class="cls-5" d="m1209.92,356.95c4.56,0,9.11,0,13.67,0-4.56,2.9-9.12,2.81-13.67,0Z"/>
  <path class="cls-5" d="m749.84,862.4c-4.69-.07-9.37-.15-14.06-.22,4.74-3.07,9.42-2.63,14.06.22Z"/>
  <path class="cls-3" d="m416.26,980.09c3.99.08,7.98.15,11.96.23-4.05,2.95-8.03,2.62-11.96-.23Z"/>
  <path class="cls-3" d="m896.02,710.37c3.98.08,7.95.15,11.93.23-4.03,2.65-8.01,2.76-11.93-.23Z"/>
  <path class="cls-3" d="m1221.75,318.74c-3.34-.02-6.69-.04-10.03-.07,3.36-2.5,6.7-2.48,10.03.07Z"/>
  <path class="cls-5" d="m574.45,798.32c1.46-.26,2.74-.05,3.59,1.33-1.53.47-2.61-.29-3.59-1.33Z"/>
  <path class="cls-5" d="m586.15,799.74c.97-1.4,2.33-1.61,3.86-1.28-1.01,1.26-2.26,1.81-3.86,1.28Z"/>
  <path class="cls-3" d="m855.81,704.36c.37-.66.75-1.33,1.13-1.99.24.69.48,1.38.72,2.07,0,0-.92,0-.92,0l-.92-.09Z"/>
  <path class="cls-3" d="m698.05,894.26c-.23-.44-.52-.87-.68-1.34-.06-.18.2-.46.32-.69.22.44.49.86.62,1.32.06.19-.17.46-.26.7Z"/>
  <path class="cls-3" d="m921.93,696.54c.12-.71.24-1.43.36-2.14.13.53.32,1.07.34,1.61,0,.17-.46.36-.7.54Z"/>
  <path class="cls-5" d="m950.01,680.83c-.56.6-1.13,1.2-1.69,1.8-.37-.59-.46-1.21-.28-1.88.66-.03,1.32,0,1.97.07Z"/>
  <path class="cls-5" d="m1197.36,332.42c.39,1.09.13,1.97-.85,2.61-.42-1.1-.09-1.96.85-2.61Z"/>
  <path class="cls-5" d="m1110.11,499.22c-.05.7-.38,1.22-.97,1.55-.53-.5-.62-1.06-.28-1.7.42.01.83.06,1.24.15Z"/>
  <path class="cls-5" d="m1253.76,1188.14c-3.79,3.19-8.32,1.7-12.49,1.7-250.3.08-500.6.08-750.9.08-84.21,0-168.42.01-252.63-.07-3.84,0-8.05,1.35-11.45-1.81,101.51-.04,203.03-.1,304.54-.11,237.65-.02,475.3-.01,712.95,0,3.32,0,6.65.14,9.97.22Z"/>
  <path class="cls-3" d="m1259.82,930.46c-1.51,2.46-4,2.02-6.26,2.02-61.91-.09-123.81-.21-185.72-.32,3.09-2.99,6.96-1.62,10.46-1.63,60.51-.09,121.02-.07,181.52-.07Z"/>
  <path class="cls-3" d="m1055.83,932.14c-33.3.12-66.59.27-99.89.33-15.98.03-31.97-.13-47.95-.21,2.01-2.5,4.85-1.78,7.42-1.78,44.3-.03,88.6-.03,132.89,0,2.59,0,5.4-.63,7.52,1.65Z"/>
  <path class="cls-3" d="m895.91,932.1c-25.89.12-51.78.24-77.67.36-2.34.01-4.68-.03-6.39-2.02,24.19.01,48.38-.04,72.56.11,3.84.02,7.99-1.27,11.5,1.56Z"/>
  <path class="cls-5" d="m897.32,934.34c-.49-.63-.98-1.25-1.47-1.88,1.41-.09,1.95.49,1.47,1.88Z"/>
  <path class="cls-3" d="m521.89,930.63c16.22-.05,32.43-.12,48.65-.11,2.55,0,5.4-.72,7.26,1.97-.63-.07-1.25,0-1.86.21-14.91-.08-29.82-.07-44.72-.29-3.14-.05-6.7,1.24-9.33-1.78Z"/>
  <path class="cls-5" d="m575.95,932.69c.6-.21,1.22-.28,1.86-.21.38.64.34,1.25-.11,1.84-.58-.54-1.16-1.09-1.75-1.63Z"/>
  <path class="cls-3" d="m666.26,930.59c-.78,1.18-1.91,1.81-3.29,1.79-24.99-.21-49.98.73-74.96-.53,2.58-2.2,5.69-1.39,8.59-1.39,23.22,0,46.43.07,69.65.13Z"/>
</svg>