<?xml version="1.0" encoding="UTF-8"?>
<svg id="Layer_1" data-name="Layer 1" xmlns="http://www.w3.org/2000/svg" viewBox="0 0 2249.64 1886.28">
  <defs>
    <style>
      .cls-1 {
        fill: #fff;
      }

      .cls-2 {
        fill: #2c3944;
      }

      .cls-3 {
        fill: #7f6fd5;
      }
    </style>
  </defs>
  <path class="cls-2" d="m1343.45,1748.11c-7.07.36-13.47-2.75-19.88-4.72-32.04-9.85-58.62-28.52-81.65-52.56-5.62-5.87-5.6-5.73-11.56.51-23.72,24.83-51.56,43.14-84.77,52.57-4.97,1.41-9.67,4.09-15.03,4.05-.35-.79-.71-.96-1.08-.01-.34.08-.69.12-1.03.14-3.15-.33-6.27-.51-8.93,1.72-3.52.35-7.04.71-10.55,1.06-12.44-.21-24.89-.42-37.34-.63-25.31-1.32-47.73-10.92-69.46-23.27-17.72-10.07-33.04-23.01-46.59-37.84-9.51-10.4-17.47-22.33-24.14-34.86-8.24-15.46-14.95-31.54-18.5-48.85-1.79-8.71-4.18-17.27-4.14-26.26,0-1.4-.71-2.51-1.98-3.18-3.27-2.47-7.07-1.25-10.6-1.25-138.04-.11-276.09-.13-414.13-.17-14.01-3.64-16.5-12.07-16.17-22.53.49-15.13,1.46-30.18,4.41-45.25,2.93-14.95,8.05-29.15,12.4-43.54,3.45-11.42,9.33-22.5,16.01-32.47,12.73-18.99,26.62-37.12,43.9-52.52,18.81-16.76,40.22-28.76,63.4-38.07,12.9-5.19,26.61-8.1,39.05-14.68,26.5-14.03,47.08-33.97,60.3-60.85,12.33-25.06,18.39-51.53,18.25-79.82-.48-100.87-.16-201.75-.19-302.63,0-24.65.72-49.26,3.94-73.73,1.24-1.11,1.32-2.36.39-3.71,4.07-23.26,6.95-46.75,13.68-69.48,5.48-18.5,11.49-36.76,18.44-54.82,6.12-15.88,13.07-31.22,21.09-46.1,11.97-22.19,25.5-43.44,39.95-64.12,10.79-15.44,22.76-29.95,34.97-44.19,9.48-11.06,20.37-20.94,30.88-31.08,25.67-24.74,53.95-46.29,84.51-64.41,35.26-20.9,72.48-38.01,111.86-49.89,12-3.62,24.24-6.42,36.37-9.6,8.24-2.16,8.82-3.19,5.32-10.73-4.04-8.7-5.87-17.96-7.35-27.32,1.46-1.29.8-2.25-.48-3.12-1.55-11.51-.4-22.88.22-34.45,1.98-36.8,32.97-71.92,57.86-86.77,11.29-6.73,23.52-12.57,37.28-13.31,1.84-.1,3.63-1.28,5.42-1.95,10.82-.13,21.66-.27,32.49-.4,1.82.21,3.64.42,5.45.63,2.53,1.79,5.35,2.15,8.35,1.66.57.09,1.14.2,1.7.33.56,1.22,1.58,1.3,2.72,1.09,14.34,5.56,28.92,10.52,41.21,20.34,17.29,13.81,30.1,30.52,38.02,51.49,5.89,15.6,9.86,31.17,9.24,47.85-.43,11.51-3.31,22.62-6.32,33.58-1.43,5.21-2.83,10.59-4.95,15.66-1.47,2.78-.42,3.74,2.45,3.39,3.13,2.13,6.93,1.61,10.28,2.57,19.03,5.44,38.16,10.69,56.76,17.36,14.04,5.03,27.56,11.57,41.07,18.06,13.78,6.62,27.65,13.08,40.93,20.59,26.31,14.89,50.58,32.74,73.57,52.35,14.67,12.52,28.52,25.87,41.53,40.1,22.78,24.93,43.62,51.37,61.12,80.29,21.16,34.98,37.97,71.98,51.09,110.73,6.49,19.16,10.16,39.01,15.67,58.4-1.28,1.27-.83,2.24.53,3.06.44,2.1.89,4.19,1.33,6.28-.95,1.36-.76,2.57.51,3.63,1.22,8.33,2.44,16.66,3.66,24.98-1.28,1.17-.8,2.14.35,3.03,2.99,24.12,3.66,48.35,3.63,72.64-.15,101.72-.14,203.44-.21,305.16,0,9.65.29,19.28,2.08,28.79-1.28,1.23-.79,2.19.47,3.03.91,7.56,3.15,14.9,4.67,22.31,1.72,8.32,5.88,16.47,10.43,23.79,6.42,10.35,13.75,20.21,21.46,29.65,9.1,11.13,21.52,18.45,33.06,26.75,14.58,10.48,32.17,13.48,48.43,19.67,30.83,11.72,56.29,30.29,78.14,54.92,11.06,12.47,20.54,25.88,28.31,40.23,9.26,17.11,15.92,35.51,21.49,54.31,5.69,19.19,8.07,38.74,9.33,58.54.76,11.96-4.75,20.11-15.88,24.48-12.3.02-24.6.07-36.91.07-127.15-.06-254.29-.14-381.44-.15-2.83,0-6.02-1.25-8.47,1.39-1.75,4.02-1.36,8.43-2.33,12.59-1.32.89-1.56,1.92-.4,3.13-3.8,19.88-9.67,39.28-18.44,57.37-12.5,25.8-30.14,47.64-53.52,65.07-21.42,15.97-45.23,26.07-70.48,33.3-7.49,2.15-15.59,2.18-23.4,3.18-11.86.03-23.73.05-35.6.08-2.89-.32-5.78-.63-8.67-.95-2.64-2.19-5.74-2.08-8.88-1.73Zm-31.94-1340.69c-.37-.05-.74-.15-1.08-.3-3.28-2.6-7.09-2.03-10.85-1.8-1.03-.1-2.06-.2-3.09-.3-2.91-2.11-6.1-1.85-9.34-1.07-4.22-.31-8.44-.62-12.66-.93-4.26-2.33-8.77-1.76-13.29-1.16-14.19-.03-28.39-.06-42.58-.09-18.63-.52-37.08.8-55.21,5.38-.35.1-.71.15-1.07.16-10.61.26-21.07,1.35-30.9,5.79-.34.13-.68.21-1.04.25-1.34-.42-2.59-.59-3.19,1.12-38.16,8.05-73.95,22.8-108.33,40.6-19.42,10.06-38.46,21.19-55.98,34.72-12.4,9.58-25.21,18.45-36.59,29.45-23.66,22.88-46.46,46.36-65.91,73.04-14.97,20.54-28.18,42.17-40.62,64.25-7.63,13.55-12.78,28.39-18.65,42.82-11.15,27.41-19.67,55.47-24.65,84.72-5.49,32.26-8.35,64.63-8.29,97.34.14,77.22.06,154.44.1,231.66.01,20.64.09,41.27.22,61.91.11,17.97-1.11,35.82-4.78,53.45-1.16,1.08-1.83,2.24-.52,3.67-3.95,19.02-10.57,37.16-19.26,54.45-17.67,35.13-44.03,61.67-79.38,79.31-12.69,6.33-26.23,9.98-39.5,14.5-28.83,9.82-52.42,26.98-71.47,50.53-12.4,15.33-23.1,31.52-30.08,50.34-5.94,16.01-10.28,32.04-10.83,49.07,2.74,2.92,6.29,1.47,9.42,1.49,27.29.18,54.58.23,81.87.23,323.18-.03,646.35-.08,969.53-.11,126.47-.01,252.95.03,379.42-.05,2.71,0,6.03,1.64,8.15-1.68-1.52-13.28-4.09-26.3-8.72-38.91-7.95-21.65-17.52-42.25-32.81-59.99-18.84-21.85-40.88-38.91-68.14-48.72-5.26-1.89-9.85-5.23-15.48-6.28-22.48-4.18-41.05-16.37-58.31-30.28-20.51-16.53-36.9-36.67-49.32-60.2-8.09-15.31-14.07-31.38-17.4-48-4.03-20.13-5.22-40.75-5.16-61.47.29-99.46.08-198.93.02-298.39-.02-29.97-1.45-59.84-6.94-89.4,1.32-1.46.49-2.58-.58-3.67-.45-2.1-.9-4.19-1.35-6.29,1.23-1.31.58-2.26-.61-3.1-1.66-7.08-3.91-14.03-5.61-21.06-6.11-25.36-14.59-49.82-25.36-73.54-3.24-7.14-5.64-14.69-9.23-21.64-21.83-42.24-49.21-80.56-82.02-115-14.83-15.56-31.17-29.34-47.84-42.87-15.65-12.7-32.13-24.24-49.62-33.91-20.52-11.34-41.44-22.19-63.41-30.67-21.45-8.28-42.57-17.67-65.52-21.32-2.11-.34-3.44-1.9-5.4-2.25-2.57-2.39-5.68-2.17-8.81-1.82-4.57.46-8.78-.93-12.96-2.49-2.69-2.39-5.88-1.78-9.01-1.49Zm-63.03-170.06c-7.02-2.72-14.07-2.9-21.16-.27-20.78,2.8-38.26,12.05-50.98,28.62-5.84,7.6-11.76,15.48-13.66,25.78-1.88,10.19-2.52,20.24-1.89,30.47-1.19,1.14-.87,2.12.33,3,1.61,7.56,2.58,15.1,6.81,22.1,9.32,15.44,6.52,12.8,21.84,12.1,7.5.22,15,.47,22.32-1.68,3.2-.14,6.41-.28,9.61-.42,11.47.81,22.95.82,34.43.1,2.56.11,5.12.22,7.68.33,6.04,1.91,12.22,2.06,18.45,1.46,2.98.24,5.99.25,8.92.77,4.98.88,8.09-1.02,10.38-5.45,6.36-12.33,10.18-25.38,10.99-39.18.83-14.1-3.62-26.88-10.29-39.19-10.43-19.28-26.33-31.15-47.43-36.16-2.31-.55-4.14-1.85-6.34-2.38Zm152.99,1468.3c3.01.67,5.86.42,8.42-1.48,22.58-5.55,42.54-16.19,60.43-30.94,24.84-20.47,38.46-47.73,46.02-78.15,1.43-5.77,5.71-12.26,1.78-18.91-2.93-2.34-6.41-1.32-9.61-1.33-73.84-.11-147.67-.14-221.51-.12-2.51,0-5.37-1.05-7.47,1.42-.84,4.17-1.67,8.35-2.51,12.52-1.17.92-1.49,1.93-.33,3.1-.5,2.77-.99,5.53-1.49,8.3-1.36,1.3-1.73,2.75-.65,4.41-3.63,12.1-6.87,24.33-12.67,35.65-1.4,2.73-.74,4.39,1.18,6.89,22.32,29.11,50.18,49.68,86.67,57.28,13.89,4.45,28,4.86,42.27,2.32l9.48-.97Zm-337.5-1.44c3.03,2.53,6.88,2.2,10.36,2.54,16.04,1.54,32.11,2.92,47.81-2.47,9.05-1.79,17.78-4.67,26.23-8.3,22.96-9.87,42.58-24.27,57.52-44.43,13.29-17.93,20.96-38.51,26.14-60.01,1.2-4.96,3.04-10.24.41-15.45-2.58-2.28-5.73-1.27-8.6-1.28-87.17-.09-174.33-.13-261.5-.09-2.83,0-6.03-1.2-8.48,1.43-1.57,3.59-.5,7.23.08,10.76,1.47,8.96,3.97,17.59,6.74,26.31,5.9,18.6,16.87,33.66,29.26,48.02,11.98,13.88,27.06,23.93,42.9,32.67,9.59,5.29,20.04,9,31.13,10.29Z"/>
  <path class="cls-3" d="m1565.16,1576.06c2.45-2.65,5.64-1.39,8.47-1.39,127.15,0,254.29.08,381.44.15,12.3,0,24.61-.04,36.91-.07-4.52,3.17-9.68,1.73-14.52,1.73-114.48.03-228.96-.04-343.44-.13-22.95-.02-45.91-.19-68.86-.29Z"/>
  <path class="cls-3" d="m482.07,1574.57c138.04.04,276.09.06,414.13.17,3.53,0,7.32-1.22,10.6,1.25-2.65.15-5.3.44-7.95.44-134.09.01-268.17.02-402.26-.07-4.85,0-10.01,1.37-14.53-1.79Z"/>
  <path class="cls-3" d="m1071.62,1750.24c12.45.21,24.9.42,37.34.63-12.5,2.4-24.94,2.37-37.34-.63Z"/>
  <path class="cls-3" d="m1361,1750.79c11.87-.03,23.73-.06,35.6-.08-11.86,2.57-23.73,2.39-35.6.08Z"/>
  <path class="cls-3" d="m1250.31,193.03c-10.83.13-21.67.27-32.49.4,10.8-2.89,21.63-3.26,32.49-.4Z"/>
  <path class="cls-3" d="m1264.11,195.32c-2.99.5-5.82.14-8.35-1.66,3.01-.54,5.88-.48,8.35,1.66Z"/>
  <path class="cls-3" d="m1119.51,1749.81c2.66-2.23,5.79-2.05,8.93-1.72-2.72,1.92-5.75,2.22-8.93,1.72Z"/>
  <path class="cls-3" d="m1343.45,1748.11c3.14-.36,6.24-.46,8.88,1.73-3.19.57-6.18.17-8.88-1.73Z"/>
  <path class="cls-3" d="m1752.53,1220.1c-1.26-.84-1.75-1.8-.47-3.03,1.31.83,1.59,1.82.47,3.03Z"/>
  <path class="cls-3" d="m1746.56,810.49c-1.15-.89-1.63-1.86-.35-3.03,1.23.89,1.36,1.89.35,3.03Z"/>
  <path class="cls-3" d="m1742.55,782.47c-1.27-1.06-1.46-2.27-.51-3.63,1.19,1.07,1.76,2.23.51,3.63Z"/>
  <path class="cls-3" d="m1117.03,329.92c1.28.87,1.94,1.83.48,3.12-1.42-.85-1.56-1.89-.48-3.12Z"/>
  <path class="cls-3" d="m1562.43,1591.78c-1.16-1.21-.92-2.24.4-3.13,1.07,1.2.78,2.22-.4,3.13Z"/>
  <path class="cls-3" d="m1740.71,772.56c-1.36-.82-1.81-1.79-.53-3.06,1.33.83,1.66,1.82.53,3.06Z"/>
  <path class="cls-3" d="m727.77,804.78c.92,1.35.84,2.6-.39,3.71-1.29-1.39-.73-2.58.39-3.71Z"/>
  <path class="cls-3" d="m1348.17,369.04c-2.87.35-3.93-.61-2.45-3.39.82,1.14,1.63,2.26,2.45,3.39Z"/>
  <path class="cls-3" d="m1268.53,196.73c-1.14.21-2.16.13-2.72-1.09,1.25-.47,2.3-.49,2.72,1.09Z"/>
  <path class="cls-3" d="m1129.47,1747.95c.37-.94.73-.78,1.08.01,0,0-.55.31-.55.31l-.53-.32Z"/>
  <path class="cls-1" d="m1232.46,1576.1c2.62,5.21.78,10.49-.41,15.45-5.19,21.5-12.86,42.08-26.14,60.01-14.94,20.16-34.55,34.55-57.52,44.43-8.45,3.63-17.18,6.51-26.22,8.3-12.49.96-24.92,2.53-37.54,1.95-6.95-.32-13.65-2.7-20.65-2.02-11.08-1.29-21.54-5-31.13-10.29-15.83-8.74-30.92-18.79-42.9-32.67-12.39-14.36-23.36-29.42-29.26-48.02-2.76-8.71-5.26-17.35-6.74-26.31-.58-3.53-1.65-7.17-.09-10.76,1.65.09,3.31.25,4.97.25,88.89.04,177.78.07,266.67.07,2.32,0,4.64-.26,6.95-.39Z"/>
  <path class="cls-1" d="m1518.12,1576.18c3.93,6.65-.35,13.14-1.78,18.91-7.56,30.42-21.18,57.69-46.02,78.15-17.89,14.74-37.85,25.39-60.42,30.94-2.94-.27-5.89-.59-8.43,1.48-3.16.32-6.32.64-9.46.97-14.11-.29-28.24-.48-42.28-2.32-36.49-7.6-64.35-28.16-86.67-57.28-1.92-2.5-2.58-4.16-1.18-6.89,5.79-11.32,9.04-23.56,12.66-35.64,1.26-1.31,1.67-2.76.65-4.42.5-2.77.99-5.53,1.49-8.29,1.19-.92,1.33-1.95.33-3.11.84-4.17,1.67-8.35,2.5-12.52,3.65.1,7.3.29,10.95.29,70.23.02,140.47.03,210.7.01,5.65,0,11.29-.19,16.94-.29Z"/>
  <path class="cls-1" d="m1221.69,357.06c-3.2.14-6.41.28-9.6.42-7.5-.31-15.04-.93-22.33,1.68-15.32.7-12.52,3.35-21.84-12.1-4.22-7-5.2-14.54-6.81-22.09,1-1.12.85-2.12-.33-3.01-.63-10.24,0-20.28,1.89-30.47,1.9-10.3,7.82-18.18,13.66-25.78,12.73-16.57,30.21-25.81,50.98-28.61,7.05.09,14.11.18,21.16.27,2.2.53,4.03,1.83,6.34,2.38,21.1,5.01,37,16.88,47.43,36.16,6.66,12.31,11.11,25.09,10.29,39.19-.81,13.8-4.63,26.85-10.99,39.18-2.29,4.43-5.39,6.33-10.38,5.45-2.93-.52-5.94-.53-8.91-.77-6-2.37-12.23-1.92-18.46-1.46-2.56-.11-5.12-.22-7.67-.33-11.47-2.04-22.95-2.13-34.44-.1Z"/>
  <path class="cls-3" d="m512.71,1530.3c105.88,0,211.76-.01,317.64,0,350.29.01,700.57.04,1050.86.04,26.64,0,53.27-.11,79.9-.16-2.13,3.33-5.45,1.69-8.16,1.69-126.47.08-252.95.04-379.42.05-323.18.03-646.35.08-969.53.11-27.29,0-54.58-.05-81.87-.23-3.14-.02-6.68,1.44-9.42-1.49Z"/>
  <path class="cls-3" d="m1232.46,1576.1c-2.32.14-4.64.39-6.95.39-88.89,0-177.78-.03-266.67-.07-1.66,0-3.32-.16-4.97-.25,2.46-2.63,5.65-1.44,8.48-1.44,87.17-.04,174.33,0,261.5.09,2.88,0,6.02-1.01,8.6,1.28Z"/>
  <path class="cls-3" d="m1518.12,1576.18c-5.65.1-11.29.28-16.94.29-70.23.02-140.47.01-210.7-.01-3.65,0-7.31-.19-10.95-.29,2.11-2.48,4.96-1.43,7.48-1.43,73.84-.02,147.67,0,221.51.12,3.2,0,6.68-1.01,9.61,1.33Z"/>
  <path class="cls-3" d="m1218.63,401.76c-7.02,2.41-14.41,1.39-21.6,2.28-11.16,1.38-22.41,2.1-33.61,3.1,18.14-4.58,36.59-5.9,55.22-5.38Z"/>
  <path class="cls-3" d="m1063.97,1704.21c7.01-.68,13.71,1.71,20.65,2.02,12.61.58,25.05-1,37.54-1.95-15.71,5.39-31.79,4.01-47.82,2.47-3.49-.34-7.33,0-10.36-2.54Z"/>
  <path class="cls-3" d="m1349.73,1704.31c14.04,1.84,28.17,2.03,42.28,2.32-14.28,2.54-28.39,2.13-42.28-2.32Z"/>
  <path class="cls-3" d="m1162.34,407.31c-10.15,2.77-20.47,4.63-30.91,5.79,9.84-4.44,20.29-5.54,30.91-5.79Z"/>
  <path class="cls-3" d="m1221.69,357.06c11.49-2.03,22.97-1.95,34.44.1-11.49.72-22.97.71-34.44-.1Z"/>
  <path class="cls-3" d="m1189.76,359.16c7.29-2.6,14.83-1.99,22.33-1.68-7.33,2.14-14.83,1.9-22.33,1.68Z"/>
  <path class="cls-3" d="m1248.48,237.36c-7.06-.09-14.11-.18-21.16-.27,7.09-2.63,14.14-2.45,21.16.27Z"/>
  <path class="cls-3" d="m1263.8,357.49c6.23-.46,12.47-.91,18.46,1.46-6.25.6-12.43.45-18.46-1.46Z"/>
  <path class="cls-3" d="m1274.49,403.02c-4.52.56-9.01.87-13.3-1.16,4.52-.59,9.04-1.16,13.3,1.16Z"/>
  <path class="cls-3" d="m1310.43,407.12c-3.75.2-7.48.26-10.85-1.81,3.76-.23,7.57-.8,10.85,1.81Z"/>
  <path class="cls-3" d="m1342.3,413.22c-3.13.3-6.19.27-8.82-1.82,3.14-.35,6.25-.57,8.82,1.82Z"/>
  <path class="cls-3" d="m1320.53,408.91c-3.19.58-6.16-.15-9.02-1.5,3.14-.28,6.33-.9,9.02,1.5Z"/>
  <path class="cls-3" d="m1401.47,1705.66c2.54-2.07,5.5-1.74,8.43-1.48-2.57,1.9-5.42,2.15-8.43,1.48Z"/>
  <path class="cls-3" d="m1296.5,405.02c-3.23.6-6.43.93-9.35-1.07,3.25-.78,6.44-1.04,9.35,1.07Z"/>
  <path class="cls-3" d="m763.75,1228.43c.81,1.37.63,2.59-.52,3.68-1.31-1.44-.64-2.59.52-3.68Z"/>
  <path class="cls-3" d="m1698.84,788.54c-1.22-1.07-1.35-2.3-.58-3.67,1.06,1.09,1.9,2.21.58,3.67Z"/>
  <path class="cls-3" d="m1696.91,778.59c-1.3-.82-1.59-1.85-.61-3.11,1.18.85,1.84,1.8.61,3.11Z"/>
  <path class="cls-3" d="m1160.79,321.96c1.18.89,1.33,1.89.33,3.01-1.2-.89-1.52-1.87-.33-3.01Z"/>
  <path class="cls-3" d="m1277.01,1588.67c1,1.16.86,2.19-.33,3.11-1.16-1.18-.84-2.19.33-3.11Z"/>
  <path class="cls-3" d="m1275.2,1600.07c1.02,1.66.61,3.1-.65,4.42-1.08-1.67-.7-3.12.65-4.42Z"/>
  <path class="cls-3" d="m1130.4,413.35c-.75,1.28-2.15.7-3.19,1.12.6-1.71,1.85-1.54,3.19-1.12Z"/>
  <path class="cls-2" d="m1390.08,536.81c18.17,6.85,34.74,16.71,50.49,27.82,16.43,11.59,32.06,24.27,46.36,38.47,23.64,23.46,44.45,49.22,61.13,78.08,9.8,16.96,18.02,34.7,25.61,52.85,5.04,12.05,8.15,24.76,13.76,36.55,1.24,2.61,1.42,5.72,2.08,8.6-.04.72.3,1.06,1.02,1.02,10.42,40.53,15.56,81.59,15.31,123.55-.54,89.88-.04,179.76-.15,269.64-.02,17.34,1.85,34.52,3.22,51.74.3,3.81,2.19,7.5,3.34,11.24-.88,1.39-.7,2.62.57,3.69.45,10.88,5.53,20.45,8.79,30.5,8.71,26.84,25.47,49.07,41.83,71.48,1.76,2.41,3.67,4.7,5.51,7.03-.27,1.38.39,2.02,1.72,2.13.3.47.65.91,1.03,1.31,0,0-.08.82-.08.82,0,0,.78.35.78.35.39.96.78,1.92,1.16,2.88,0,0,.15.8.15.8l.79.22c3.82,13.81.65,21.01-12.69,28.79-4.86.02-9.72.04-14.58.07-9.45-3.1-14.14-11.77-19.7-18.62-13.86-17.1-25.92-35.67-35.76-55.39-11.3-22.62-19.53-46.61-24.4-71.34-2.24-11.39-5.64-23.01-4.59-34.99,1.37-1.77,1.18-3.45-.34-5.04-2.44-27.23-1.49-54.54-1.58-81.81-.26-77.86-.19-155.72-.05-233.58.04-22.06-2.07-43.87-6.42-65.43-2.05-10.17-5.15-20.13-7.82-30.17-5.95-22.36-15.29-43.48-25.07-64.3-9.86-20.99-22.74-40.32-37.29-58.41-10.35-12.88-21.51-25.06-33.4-36.59-16.5-15.99-34.7-29.68-54.32-41.5-7.02-4.23-14.57-7.62-21.5-11.98-13.61-8.56-14.84-25.57-2.97-35.84,3.35-2.9,7.49-3.59,11.5-4.67,2.18.76,4.38.74,6.58.04Z"/>
  <path class="cls-2" d="m872.36,823.04c3.98-10.23,4.5-21.23,6.77-31.83,2.65-12.42,6.51-24.46,10.24-36.52,7.34-23.71,18.24-46,30.18-67.63,9.18-16.63,20.52-32.01,32.09-47.16,24.77-32.46,55.25-58.73,89.15-80.97,11.9-7.81,24.17-15.43,37.77-20.51,13.54-5.06,27.82,2.95,29.83,19.12,1.23,9.88-5.21,16.54-12.96,21.56-4.68,3.04-9.81,5.38-14.73,8.05-31.99,17.35-59.52,40.32-83.43,67.54-11.06,12.59-21.76,25.55-30.23,40.24-6.01,10.41-12.96,20.3-18.08,31.22-8.96,19.14-16.91,38.58-22.46,59.12-3.14,11.62-6.47,23.09-8.12,35.03-.35,2.51-.21,5.43-2.66,7.26-1.06,1-.96,2.04-.1,3.11.08,1.97.45,3.98.19,5.9-3,21.46-3.12,43.06-3.11,64.66.03,82.74.06,165.48.11,248.22.01,21.28-.39,42.53-3.47,63.63-1.2,1.12-1.39,2.36-.43,3.73-.39,2.07-.78,4.14-1.17,6.2-1.81,1.44-2.3,3.11-.83,5.1-7.52,37.16-20.86,72.22-38.93,105.43-9,16.55-20.06,31.81-32.54,45.98-2.87,3.25-6.17,6.03-10.55,7.09-4.23-.09-8.47-.18-12.7-.26-11.85-5.07-16.87-14.21-14.92-26.52.36-2.24,1.77-3.34,2.89-4.89,10.54-14.61,22.01-28.59,30.42-44.67,11.96-22.88,22.71-46.11,29.21-71.37,3.31-12.88,5.53-25.75,7.37-38.79,1.62-2.23,2.01-4.54.43-6.97,1.58-24.94.96-49.92.97-74.88.02-74.57.02-149.14.08-223.72.02-21.64.32-43.28,3.97-64.69.39-2.31-1.56-3.55-1.12-5.51.65-.21.94-.65.9-1.3Z"/>
  <path class="cls-3" d="m1235.8,607.22c-42.1,1.37-78.82-36.89-78.8-78.8.01-43.23,37.46-79.46,81.08-78.42,43.29,1.03,75.97,34.76,76.74,79.13.72,41.32-34.26,79.01-79.01,78.09Z"/>
  <path class="cls-3" d="m1647.22,1386.45c4.86-.02,9.73-.05,14.58-.07-4.85,2.97-9.71,3.04-14.58.07Z"/>
  <path class="cls-3" d="m867.57,1193.13c1.58,2.43,1.19,4.74-.43,6.97-1.29-2.42-1.06-4.73.43-6.97Z"/>
  <path class="cls-3" d="m812.18,1386.35c4.24.09,8.47.18,12.7.26-4.3,2.84-8.53,2.42-12.7-.26Z"/>
  <path class="cls-3" d="m1562.42,1201.07c1.52,1.59,1.7,3.27.34,5.04-1.35-1.6-1.57-3.27-.34-5.04Z"/>
  <path class="cls-3" d="m906.9,1228.11c-1.47-1.99-.97-3.65.83-5.1,1.34,1.97.75,3.62-.83,5.1Z"/>
  <path class="cls-3" d="m1612.81,1240.06c-1.27-1.07-1.44-2.3-.57-3.69,1.12,1.09,1.93,2.22.57,3.69Z"/>
  <path class="cls-3" d="m908.9,1216.81c-.96-1.37-.78-2.61.43-3.73,1.18,1.4.69,2.6-.43,3.73Z"/>
  <path class="cls-3" d="m915.62,830.68c-.86-1.07-.96-2.11.1-3.11,2.49,1.07,2.48,1.11-.1,3.11Z"/>
  <path class="cls-3" d="m1390.08,536.81c-2.2.7-4.4.72-6.58-.04,2.21-1.69,4.4-1.67,6.58.04Z"/>
  <path class="cls-3" d="m1670.65,1351.21c-1.33-.11-1.99-.75-1.72-2.13,1.33.1,1.84.86,1.72,2.13Z"/>
  <path class="cls-3" d="m1672.39,1353.69l-.78-.35s.07-.82.08-.82c0,0,.78.34.78.34l-.07.83Z"/>
  <path class="cls-3" d="m1674.49,1357.59l-.79-.22s-.16-.81-.15-.8c0,0,.83.19.83.19l.11.83Z"/>
  <path class="cls-3" d="m1590.52,780.2c-.72.05-1.06-.29-1.02-1.02,0,0,.86.18.86.18l.15.84Z"/>
  <path class="cls-3" d="m872.36,823.04c.05.65-.25,1.09-.9,1.3-.32-.87.01-1.28.9-1.3Z"/>
</svg>