<?xml version="1.0" encoding="UTF-8"?>
<svg id="Layer_1" data-name="Layer 1" xmlns="http://www.w3.org/2000/svg" viewBox="0 0 1150.78 1580.47">
  <defs>
    <style>
      .cls-1 {
        fill: #e9ebee;
      }

      .cls-2 {
        fill: #fdfdfd;
      }

      .cls-3 {
        fill: #e5e7ea;
      }

      .cls-4 {
        fill: #536472;
      }

      .cls-5 {
        fill: #9f74eb;
      }
    </style>
  </defs>
  <path class="cls-4" d="m130.69,1251.32c-13.13-1.85-26.26-3.74-39.4-5.54-10.24-1.41-20.53-2.54-30.74-4.13-6.81-1.06-10.12-5.3-8.89-11.8,2.84-15.1,4.91-30.34,8.12-45.38,2.15-10.1,3.15-20.45,4.76-30.68,1.36-8.58,2.85-17.13,4.3-25.69,1.56-9.21,2.82-18.48,4.78-27.6,2.84-13.3,3.87-26.86,6.58-40.19,2.66-13.06,4.7-26.26,6.47-39.5,1.99-14.88,5.47-29.56,7.48-44.45,2.36-17.5,6.65-34.66,8.5-52.26.99-9.42,3.41-18.68,4.95-28.04,2.07-12.62,3.87-25.29,5.88-37.92,1.26-7.91,2.8-15.77,4.06-23.67,1.73-10.87,3.29-21.77,4.97-32.64,2.1-13.61,4.42-27.19,6.35-40.82,2.15-15.23,5.91-30.18,5.88-45.77-.15-93.79-.02-187.58.03-281.37.02-43.31.14-86.61.09-129.92-.02-13.17,2.86-15.47,18.22-17.71,4.52-.66,9.1-1.88,13.77-1.22,1.05-.04,2.1-.07,3.15-.11,4.44-1.87,9.18-1.04,13.77-1.56,2.86.28,5.89,1.81,8.31-1.15,5.22.8,6.84-1.5,7.5-6.68,1.25-9.73,3.1-19.42,5.9-28.88,1.41-4.78,4.3-7.27,9.54-6.55,11.03,1.52,22.08,2.88,33.11,4.41,10.54,1.46,21.06,3.02,31.59,4.6,10.87,1.63,21.78,2.95,32.65,4.57,12.95,1.93,25.9,4.13,38.96,5.54,12.04,1.31,23.98,3.57,35.99,5.25,8.61,1.2,17.29,1.92,25.89,3.23,17.21,2.63,34.43,5.27,51.57,8.34,35.84,6.42,71.99,6.54,108.21,6.26,42.94-.33,85.88,0,128.82-.47,12.18-.13,21.76,3.53,30.11,12.53,18.44,19.89,37.42,39.28,56.12,58.94,1.7,1.79,3.36,2.68,5.94,2.75,12.67.33,25.04,3.17,37.55,4.79,10.88,1.41,21.78,2.69,32.65,4.15,9.58,1.29,19.13,2.74,28.69,4.15,11,1.62,22,3.28,33,4.91,9.07,1.35,18.15,2.63,27.21,4.07,3.84.61,5.94,2.44,5.88,7-.13,10.1-1.66,20-3.1,29.94-1.33,9.25-2.17,18.57-3.08,27.87-.56,5.67-2.63,11.2-1.62,17.02-2.5,7.06-2.44,14.55-3.33,21.84-.7,5.74-1.5,11.49-1.61,17.38-.1,5.31-1.96,10.77-2.67,16.27-.71,5.54-1.41,11.08-2.01,16.64-1.31,12.06-3.28,24.04-4.79,36.07-1.49,11.89-2.65,23.83-4.12,35.72-1.88,15.14-4.01,30.24-5.87,45.38-1.21,9.79-2.17,19.6-3.75,29.35-1.44,8.9-2.57,17.89-3.16,26.89-.6,9.24-3.05,18.18-3.64,27.39-.45,7.05-2.45,13.93-2.32,21.04-.76,6.31-1.52,12.62-2.28,18.93-1.26.79-.76,1.98-.7,3.06-.09,1.32-.17,2.63-.26,3.95-1.33.76-.77,1.96-.72,3.05-.4,3.41-.8,6.82-1.2,10.24-1.03,8.93-1.94,17.88-3.11,26.8-1.45,11-3.12,21.98-4.69,32.96-1.46,10.23-2.36,20.55-4.67,30.64-.42,1.85-.56,3.56-.27,5.37-.58.96-.58,1.93,0,2.89-.33,7.04.26,14.04.76,21.05-.55,3.99-.57,7.96.34,11.91.58,17.96,1.18,35.92,1.72,53.88.21,7,.56,14.04-4.53,19.92-.73.85-.7,2.53-.7,3.82.13,28.96.31,57.93.5,86.89,0,.49.17.98.27,1.47-.53,1.39-.57,2.78.1,4.14.03,14.31.04,28.61.1,42.92.09,21.32.25,42.63.29,63.95.02,9.63-3.53,13.01-13.29,13.06-.67,0-1.35.1-1.99,0-4.72-.81-6.29.88-6.06,5.86.44,9.47.16,18.98.07,28.47-.09,9.59-3.22,12.74-12.81,13.21-2.32.11-4.64.24-6.96.36-16.09-1.31-32.23.04-48.3-.94-5.51-.34-7.02,2.21-7.54,6.48-1.61,13.42-3.07,26.86-4.59,40.29-2.23,4.75-1.99,9.95-2.45,14.97-.67,7.44-3.52,10.69-11.02,11.4-13.19-1.75-26.38-3.5-39.57-5.25-8.47-1.12-16.94-2.22-25.4-3.39-13.21-1.82-26.36-4.29-39.62-5.37-12.49-1.02-24.8-3.24-37.27-4.41-14.54-1.37-28.97-3.92-43.48-5.67-14.69-1.77-29.43-3.34-44.06-5.42-19.16-2.72-38.41-4.63-57.58-7.29-17.89-2.48-35.91-4.52-53.88-6.65-15.46-1.83-30.94-3.89-46.37-6.21-14.13-2.13-28.38-3.81-42.61-5.38-19.29-2.12-38.5-4.83-57.74-7.3-14.25-1.83-28.55-3.21-42.81-4.92-15.66-1.88-31.31-3.89-46.96-5.88-10.78-1.37-21.61-2.41-32.3-4.27-13.15-2.29-26.32-4.36-39.53-6.21Zm751.53-267.52c3.45,1,5.11.05,4.13-3.79-.28-4.05-.55-8.09-.83-12.14.11-6.35.15-12.69-.74-19-.11-4-.23-7.99-.34-11.99-.64-16.66-1.27-33.33-1.91-49.99.33-2.01.31-4-.18-5.99-.16-17.01-.4-34.02-1.53-50.99-.02-.67-.03-1.33-.05-2,.04-1.49.15-2.98.12-4.46-.47-26.89-.93-53.78-1.44-80.68-.23-11.94-.57-23.89-.87-35.83.42-3.34.34-6.67-.11-9.99.35-18-.14-36-.64-53.99.42-3.67.35-7.34-.12-11-.05-30.21-.06-60.42-.18-90.63-.07-17.42-.33-34.84-.5-52.26.43-5.62,1.22-11.25-.42-16.81.98-4.87-.63-8.62-4.41-11.88-8.29-7.16-15.95-15-23.22-23.18-8.69-9.77-17.96-19-26.63-28.81-15.22-17.22-31.53-33.46-47.34-50.16-9.01-9.52-17.88-19.16-26.9-28.68-8.8-9.28-17.69-18.47-26.57-27.67-.77-.8-1.55-2.05-2.85-1.61-1.68.57-1.06,2.22-1.14,3.46-.17,2.97-.24,5.95-.36,8.93,0-4.13,0-8.26.02-12.38,0-1.75-.25-3.64-2.2-3.93-3.35-.5-6.51-2.57-10.08-1.36-1.16-.08-2.31-.23-3.47-.23-43.09,0-86.17.04-129.26.04-98.65,0-197.3-.04-295.95,0-20.29,0-40.57.3-60.86.45-3.11-.04-6.21-.08-9.31-.12-2.49-1.47-4.92.22-7.38.14-4.2.2-8.4.39-12.6.59-3.23-.69-6.45-1.21-9.48.73-7.85.83-15.68,2.13-23.55,2.33-4.97.13-5.57,2.12-5.56,6.33.13,55.62.19,111.25.11,166.87-.25,164.03-.48,328.07-.9,492.1-.2,77.77.15,155.54-.88,233.31-.03,2.11-.49,4.32.95,6.72,5.84-4.21,11.92-7.89,18.63-10.42,22.03-8.31,45.04-10.98,68.33-12.08,3.12-.29,6.33.23,9.31-1.15,12.13-.5,24.27-1.35,36.4-1.44,40.44-.31,80.88-.35,121.32-.51,17.8-.07,35.59-.19,53.39-.29,1.32.4,2.65.4,3.97,0,.82.09,1.64.27,2.47.27,47.62-.02,95.24-.04,142.86-.09,1.48,0,2.97-.25,4.45-.38,1.69.69,3.41.66,5.14.19.33,0,.67.01,1,.02.63,0,1.25.02,1.88.02,24.95.04,49.89.13,74.84.08,3.91,0,7.43-1.52,10.48-4.11,7.55-6.42,10.31-15.27,11.46-24.48.84-6.67,1.98-13.3,2.62-20,.7-7.34,2.29-14.59,2.39-22,.64-4.86,1.65-9.7,1.85-14.58.33-8.2,2.8-16.19,2.17-24.45,1.69-3.44.84-7.17,1.23-10.75,1.24-11.23,2.77-22.43,3.84-33.67,1.1-11.52,7.71-18.44,17.66-19.74,16.08-2.11,32.19-4.29,48.13-7.14,14.59-2.6,29.36-3.79,43.86-6.73,5.75-1.17,11.76-.75,17.29-3.03.66-.06,1.33-.12,1.99-.18,3.86.66,7.34-1.11,10.99-1.76,1-.1,1.99-.2,2.99-.31,1.08.27,2.08.07,3.01-.53,1.66-.09,3.33-.18,4.99-.27,1.58.14,3.22.59,4.47-.91Zm14.33-198.89c1.03-3.51.71-7.24,1.39-10.72,2.73-14.07,3.64-28.37,5.76-42.52,2.49-16.58,4.35-33.26,6.5-49.9.93-7.17,1.42-14.38,2.26-21.57.99-8.47,2.5-16.86,3.34-25.35.72-7.33,1.72-14.63,2.59-21.95,1.18-10.11,2.16-20.25,3.58-30.32,1.37-9.75,2.9-19.47,3.8-29.29.61-6.67,2.2-13.27,2.6-19.95.56-9.24,3.02-18.19,3.43-27.46.3-6.88,1.46-13.72,2.4-20.56,1.1-7.97,2.92-15.88,3.43-23.88.63-9.86,2.31-19.58,3.44-29.34,1.55-13.39,3.37-26.76,4.85-40.17.27-2.44-.59-2.95-2.46-2.95-10.61.01-20.78-3.13-31.27-4.26-18.23-1.97-36.3-5.48-54.42-8.42-8.46-1.37-17.02-1.99-25.51-3.07-9.25-1.18-18.44-3.29-27.9-3.25.07,1.92.98,3.2,2.17,4.41,26.01,26.49,50.83,54.1,76.42,81,2.69,2.83,4.44,6.07,5.51,9.81,2.51,8.8.81,17.85,1.69,26.74-.11,1.98-.31,3.97-.31,5.95-.03,77.88.48,155.77,1.65,233.64.26,17.46-.35,34.95,1.2,52.38v22.45c.54.02,1.09.04,1.63.06,1.7-7.04,1.41-14.36,2.24-21.52ZM108.68,966.9c-.6,4.73-1.03,9.5-1.84,14.2-1.29,7.43-3.46,14.75-4.16,22.23-1.29,13.81-4.63,27.25-6.52,40.94-2.01,14.55-5.12,28.95-7.58,43.45-2.24,13.22-3.94,26.53-6.44,39.69-2.84,15.02-4.3,30.25-7.53,45.21-1.96,9.08-3.31,18.3-4.77,27.48-1.31,8.27-2.42,16.57-4.23,24.77-.57,2.56-.28,4.72,3.53,5.05,5.05.44,10.05,1.43,15.12,2,13.74,1.54,27.31,4.45,41.11,5.57,5.16,2.76,11.09,1.64,16.49,3.22,1.03.3,2.58.59,3.27-.43.92-1.37-.29-2.49-1.23-3.43-8.17-8.23-10.41-18.44-10.35-29.62.28-48.65.48-97.29.59-145.94.16-65.14.22-130.29.31-195.43.02-16.27,0-32.53,0-48.8-.73.54-.92,1.14-1.01,1.76-2,13.73-4.62,27.37-6.8,41.07-3.12,19.6-6.59,39.15-9.88,58.72-2.7,16.09-5.32,32.21-8.09,48.3Zm704.13,247.98c-1.65-.08-3.31-.22-4.96-.22-56.51-.01-113.01-.03-169.52,0-22.43.01-44.86.16-67.29.25-13.32,0-26.63.02-39.95.03-3-.42-6-.4-9,.04-1.49-.09-2.98-.25-4.47-.25-100.18.01-200.37.05-300.55.02-5.27,0-10.48-.91-15.14-3.66-2.22-1.31-3.3-3.32-2.68-5.91.58-2.39,2.75-2.13,4.49-2.22,3.32-.17,6.65-.2,9.98-.2,182.24.02,364.48.05,546.72.06,9.48,0,18.95-.22,28.43-.33.49.08.98.22,1.48.22,29.47,0,58.94-.09,88.41.02,3.95.02,4.12-1.9,4.08-4.94-.3-24.32-.45-48.64-.71-72.97-.21-19.65-.49-39.3-.73-58.95v-52.66c-2.11.16-2.62,1.57-3.46,2.48-32.13,34.94-64.24,69.89-96.32,104.88-8.3,9.05-16.47,18.23-24.71,27.35-1.54.86-2.43,2.31-3.36,3.72-7.22,7.3-14.39,14.66-21.68,21.89-5.71,5.66-12.22,10.07-19.69,13.33-10.61,4.62-21.7,4.02-32.77,4.04-113.19.21-226.38.36-339.57.56-31.61.05-63.25-.38-94.82,1.63-8.85.57-17.72,1.27-26.55,2.51-7.63,1.07-15.27,2.07-22.91,3.12-3.6.5-8.18-.02-9.77,3.18-1.87,3.77,1.26,7.51,3.56,10.79,1.96,2.8,4.64,4.71,7.6,6.33,5.53,3.02,11.57,4.06,17.72,4.71.45.7.94.71,1.45.07,4.82.21,9.64.58,14.46.6,53.41.21,106.81.4,160.22.52,25.45.06,50.9-.02,76.35-.03,9.66.35,19.31.47,28.97.02,1.33,0,2.67,0,4,0,.66,0,1.33,0,1.99,0,1.33,0,2.67,0,4,0,12.71.17,25.43.4,38.14.48,3.61.02,7.26.54,10.85-.39,1.3.55,2.61.56,3.92.02h2.07c.64,0,1.28,0,1.92,0,2.6.86,5.28.44,7.92.44,71.18.04,142.35.07,213.53.06,20.11,0,40.23-.15,60.34-.23.8.22,1.6.42,2.4.65,3.23.96,5.28,2.78,4.59,6.49-.65,3.51-2.97,5.02-6.37,5.14-1.83.06-3.66.07-5.49.07-55.77.03-111.54.1-167.31.07-98.22-.05-196.44-.78-294.64,1.46-47.53,1.09-95.08,2.1-142.54,5.43-12.4.87-24.94.08-37.39-.38-7.07-.26-13.94-1.77-20.75-4.16-6.5-2.28-11.98-6.04-17.79-9.4-2.14-4.24-5.6-7.72-7.08-12.35-.44-1.38-.44-3.84-2.71-2.87-1.72.74-3.2,2.69-1.96,4.93,2.23,4.01,3.63,8.62,7.69,11.4,3.2,4.4,7.81,7.46,12.38,9.67,13.34,6.45,27.68,9.34,42.56,9.31,42.6-.08,85.21-.35,127.81-.72,59.09-.52,118.18-.5,177.27-.48,89.22.03,178.44.24,267.66.39,24.64.04,49.27.12,73.91.18,2.17,0,4.49.39,4.48-3.01-.02-9.82.01-19.64.09-29.46.02-2.06-.67-3.02-2.88-3-15.31.12-30.61.15-45.92.22Zm-393.68,61.05c.45.95,1.26.82,2.06.67,1.65.1,3.3.19,4.94.29,1.13,1.48,2.66.71,4.05.72.35-.03.71-.05,1.06-.08,2.36.08,4.44,1.86,6.93,1.09,3.66.38,7.33.77,10.99,1.15,1.45,1.73,3.28.85,5,.74,1.31.13,2.62.26,3.93.39.44.98,1.26.8,2.06.67,1.66.07,3.32.15,4.98.22.71,1.39,1.92.84,3.01.78l5.96.27c.74,1.35,1.94.82,3.03.76l1.06-.07c2.06-.08,3.77,1.77,5.94,1.06,1.65.09,3.3.19,4.95.28,9.58,1.93,19.28,2.97,29.02,3.67.98.11,1.96.22,2.95.32.76,1.3,1.95.81,3.04.72,4.04-.15,7.92,2.13,12.04.77,3.48,1.01,7.07,1.31,10.64,1.79,13.3,1.76,26.55,3.84,39.86,5.52,12.36,1.56,24.83,2.33,37.13,4.26,14.9,2.33,29.92,3.64,44.83,5.85,9.06,1.34,18.12,2.63,27.2,3.84,8.44,1.12,16.87,2.6,25.35,3.02,9.42.47,18.53,2.77,27.84,3.75,8.32.87,16.59,2.3,24.89,3.33,2.12.26,4.52.14,4.9-2.75,1.34-10.39,2.58-20.79,3.86-31.18,1.12-7.13,2.11-14.28,3.42-21.38.75-4.07-1.02-4.74-4.58-4.73-73.57.31-147.15-.7-220.71.94-4.14-.82-8.26-.94-12.37.23-14.09.4-28.18.81-42.27,1.21-5.69-.21-11.38-.5-17.03.54-6.31.16-12.62.31-18.93.47-8.02-.45-16,.36-23.99.73-9.33.04-18.67-.34-27.97.77-1.03-.53-2.04-.58-3.03.1-11.66-.11-23.3,0-34.92,1.04h-11.19c0,.41,0,.82,0,1.24,3.65.85,7.18,2.42,11.13,1.49,4.59,1.29,9.32,1.63,14.04,2.02.88.71,1.7,1.54,3,1.11,1.99.08,3.98.15,5.97.23.72,1.37,1.94.81,3.02.77,4.31.44,8.61.89,12.92,1.33Zm302.69-110.42c2.75-.91,4.31-2.68,5.91-4.35,11.24-11.74,20.97-24.85,32.63-36.21,2.73-2.66,5.38-5.4,7.95-8.22,11.38-12.51,22.69-25.1,34.1-37.59,4.25-4.65,8.89-8.96,13.03-13.7,13.46-15.38,27.06-30.63,41.5-45.11,6.67-6.69,12.86-13.88,19.25-20.86.65-.71,1.67-1.5,1.03-2.55-.76-1.27-2.06-.59-3.16-.4-11.82,2.1-23.59,4.47-35.45,6.24-30.45,4.55-60.95,8.81-91.42,13.27-4.05.59-7.15,2.4-7.52,7.23-.56,7.28-.71,14.7-2.29,21.78-3.15,14.08-3.34,28.47-5.39,42.65-1.93,13.38-2.7,26.93-4.42,40.35-1.6,12.43-3.78,24.79-5.74,37.47ZM413.61,282.08c-1.02-1.87-2.27-1.82-3.36-1.97-13.91-1.85-27.81-3.63-41.65-6.02-12.95-2.24-26.1-3.32-39.13-5.16-17.69-2.5-35.34-5.29-53.02-7.87-18.37-2.68-36.77-5.2-55.13-7.94-3.79-.56-5.36.98-5.9,4.48-.98,6.3-1.99,12.61-3.19,18.87-1.1,5.75-1.15,5.77,4.74,5.76,45.93-.06,91.86-.11,137.79-.15,19.46-.02,38.92,0,58.86,0Z"/>
  <path class="cls-3" d="m130.69,1251.32c13.21,1.85,26.38,3.93,39.53,6.21,10.69,1.86,21.53,2.9,32.3,4.27,15.65,1.98,31.3,4,46.96,5.88,14.26,1.71,28.57,3.09,42.81,4.92,19.24,2.47,38.45,5.18,57.74,7.3,14.23,1.57,28.47,3.24,42.61,5.38,15.43,2.33,30.9,4.38,46.37,6.21,17.97,2.13,35.99,4.17,53.88,6.65,19.16,2.66,38.42,4.56,57.58,7.29,14.62,2.08,29.37,3.65,44.06,5.42,14.51,1.75,28.94,4.31,43.48,5.67,12.46,1.17,24.78,3.39,37.27,4.41,13.26,1.08,26.41,3.55,39.62,5.37,8.46,1.17,16.93,2.26,25.4,3.39,13.19,1.75,26.38,3.5,39.57,5.25-.86,2.83-1.95,5.52-2.28,8.58-.55,5.26-3.31,7.47-8.91,7.18-12.05-.62-23.93-2.74-35.85-4.46-14.7-2.12-29.39-4.3-44.08-6.49-11.92-1.78-23.82-3.65-35.74-5.44-14.69-2.2-29.39-4.28-44.06-6.57-15.32-2.39-30.55-5.47-45.93-7.32-15.56-1.87-30.75-7.2-46.51-6.46-18.55.87-37.1,1.52-55.65,2.11-8.44.27-16.93.05-25.33.79-12.43,1.1-24.88.76-37.32.98-2.77-.57-5.3.88-7.99.93-21.45-.54-42.86.91-64.29,1.34-12.77.25-25.59-.17-38.33.8-15.56,1.18-31.17-.04-46.66,1.1-13.97,1.03-27.9.71-41.84.66-13.82-.05-26.93-2.95-39.81-8.87-10.32-4.74-17.28-12.12-23.1-20.9-3.66-5.51-6.06-11.99-5.78-19.08.3-7.48.19-14.98.27-22.47Z"/>
  <path class="cls-1" d="m793.33,1308.55c1.52-13.43,2.97-26.87,4.59-40.29.51-4.27,2.02-6.82,7.54-6.48,16.07.98,32.21-.37,48.3.94.72,10.21-1.71,20.1-3.25,30.05-1.25,8.1-9.95,14.65-18.12,15.05-13.02.63-26.02,1.31-39.06.74Z"/>
  <path class="cls-5" d="m717.19,312.64c.11-2.97.19-5.95.36-8.92.07-1.24-.54-2.89,1.14-3.46,1.3-.44,2.08.81,2.85,1.61,8.88,9.21,17.77,18.39,26.57,27.67,9.02,9.51,17.89,19.16,26.9,28.68,15.81,16.7,32.12,32.95,47.34,50.16,8.68,9.81,17.94,19.04,26.63,28.81,7.27,8.18,14.93,16.02,23.22,23.18,3.78,3.26,5.39,7.01,4.41,11.88-14.3-.04-28.61-.1-42.91-.11-29.44-.03-58.89-.11-88.33-.02-6.91.02-13.43-1.54-18.45-6.03-7.31-6.54-9.95-15.3-9.93-25.13.06-41.28-.09-82.57-.15-123.85,0-1.49.23-2.97.35-4.46Z"/>
  <path class="cls-5" d="m721.82,1165.51c1.97-12.67,4.15-25.03,5.74-37.47,1.72-13.42,2.49-26.97,4.42-40.35,2.05-14.18,2.24-28.57,5.39-42.65,1.58-7.08,1.73-14.49,2.29-21.78.37-4.83,3.47-6.63,7.52-7.23,30.47-4.46,60.97-8.72,91.42-13.27,11.86-1.77,23.64-4.15,35.45-6.24,1.1-.2,2.4-.87,3.16.4.63,1.05-.39,1.85-1.03,2.55-6.39,6.98-12.58,14.16-19.25,20.86-14.44,14.49-28.04,29.73-41.5,45.11-4.15,4.74-8.78,9.05-13.03,13.7-11.41,12.49-22.71,25.08-34.1,37.59-2.56,2.82-5.22,5.56-7.95,8.22-11.67,11.36-21.39,24.47-32.63,36.21-1.6,1.67-3.15,3.44-5.91,4.35Z"/>
  <path class="cls-2" d="m788.86,1202.49c.35-6.51,6.33-9.42,9.24-14.31,4.49-7.54,9.66-14.66,14.25-22.16,3.28-5.37,7.8-9.95,11.2-15.33.97-1.53,2.23-2.84,2.66-4.66,1.38-5.8,6.77-8.74,9.58-13.59,10.19-17.58,22.83-33.52,34-50.45,2.69-4.08,5.1-8.45,7.69-12.66.98-1.59,1.82-3.2,3.92-3.46.25,19.65.53,39.3.73,58.95.25,24.32.41,48.64.71,72.97.04,3.04-.13,4.96-4.08,4.94-29.47-.11-58.94-.03-88.41-.02-.49,0-.98-.14-1.48-.22Z"/>
  <path class="cls-3" d="m721.9,490.99c-2.07-2.9-5.56-3.94-8.1-6.4-7.51-7.29-10.44-16.2-10.92-26.32-.7-14.81-1.68-29.67-.76-44.43,1.45-23.25-.17-46.51.95-69.72.79-16.38,1.89-32.74,1.87-49.15,3.57-1.21,6.73.86,10.08,1.36,1.95.29,2.21,2.18,2.2,3.93-.02,4.13-.02,8.26-.02,12.38-.12,1.48-.35,2.97-.35,4.45.05,41.28.21,82.57.15,123.85-.02,9.84,2.62,18.59,9.93,25.13,5.02,4.49,11.54,6.05,18.45,6.03,29.44-.09,58.89-.01,88.33.02,14.3.02,28.61.07,42.91.11,1.64,5.57.85,11.2.42,16.82-.78.2-1.87.14-2.31.64-4.45,5.06-10.36,5.34-16.45,5.33-32.46-.03-64.91.01-97.37-.03-12.41-.02-24.92,1.12-37-3.03-.44-.79-1.2-.95-2.01-.98Z"/>
  <path class="cls-2" d="m536.13,1290.37c.34-1.49,1.47-1.53,2.7-1.59,8.61-.43,17.19-1.11,25.84-1.06,26.96.17,53.95.78,80.89-.13,37.25-1.25,74.49-.46,111.74-.77,8.45-.07,16.94-.7,25.33.98-1.28,10.4-2.51,20.8-3.86,31.18-.37,2.9-2.78,3.01-4.9,2.75-8.31-1.04-16.57-2.46-24.89-3.33-9.32-.98-18.42-3.28-27.84-3.75-8.48-.42-16.91-1.9-25.35-3.02-9.07-1.21-18.14-2.5-27.2-3.84-14.91-2.21-29.92-3.52-44.83-5.85-12.3-1.92-24.77-2.69-37.13-4.26-13.31-1.68-26.56-3.75-39.86-5.52-3.58-.47-7.16-.77-10.64-1.79Z"/>
  <path class="cls-4" d="m528.08,778.2c-1.99.02-3.99.03-5.98.05-15.12-.09-30.24-.31-45.36-.2-5.24.04-9.8-.78-13.08-5.23.07-.3-.05-.47-.37-.5-.33-3.63-.95-7.27-.94-10.9.07-29.08.29-58.16.41-87.24.1-23.1.09-46.2.24-69.3.05-8.01,3.34-11.45,11.21-12.31,1.97-.22,3.95-.39,5.93-.58.67,0,1.33,0,2,0,4.33.46,8.66.52,12.99.04,4.66.43,9.32.43,13.99,0,10.96.33,21.92.66,32.87.98.12.61.45.9,1.1.74,30.15,1.65,52.88,14.91,66.31,42.58,6.23,12.84,7.53,26.81,8.71,40.74.81,9.61-.91,19.08-1.87,28.63-1.38,13.85-6.38,26.21-13.43,37.76-9.77,16.02-25,24.92-42.42,30.73-10.55,3.52-21.43,3.54-32.3,4.01Zm42.41-116.9c-3.01-9.88-6.98-18.86-16.83-24.23-9.04-4.93-18.8-4.94-28.52-5.73-1.03-.41-2.07-.42-3.11-.02-3.32-.08-6.65-.01-9.95-.29-3.59-.3-4.87.81-4.84,4.69.18,23.46.09,46.91.07,70.37,0,9.98-.07,19.96-.08,29.94,0,1.77-.47,3.9,2.48,3.8,8.46-.29,16.96.67,25.37-.91.71.49,1.35.41,1.95-.2,14.4-1.98,25.03-9.29,30.68-22.82,6.31-15.1,6.45-30.94,4.44-46.9.42-.74.29-1.4-.25-2.02l-.65-2.97c.36-1.08.07-1.97-.75-2.72Z"/>
  <path class="cls-4" d="m301.3,676.95c.49-11.33.27-22.66-.03-33.99.46-6,.51-12,.05-17.99.02-1,.04-2,.05-3,.43-2.67.44-5.33,0-8,0-2.33,0-4.66,0-7,.46-2.6.5-5.38,1.47-7.77,2.6-6.38,8.39-6.89,14.21-6.9,18.79-.03,37.58-.05,56.37.03,9.76.04,19.35,1.22,28.92,3.49,27.96,6.64,40.53,26.46,43.72,48.44-.63.55-.47,1.01.17,1.41,1.01,7.52,1.09,15.05-.03,22.57-.7.4-.87.87-.2,1.45-.23,1.09-.45,2.18-.68,3.28-.69.46-.83,1.13-.7,1.9-2.27,10.71-6.54,20.32-14.56,28.1-3.72,3.61-8.06,6.37-11.99,9.68-1.31.69-2.63,1.39-3.94,2.08-13.49,5.3-27.4,7.89-41.96,7.15-7.61-.38-15.26.04-22.89.09-.91-.21-1.75-.3-1.83,1.01-.08,13.29-.13,26.59-.25,39.88-.12,12.19-3.09,15.05-15.45,15.15-2.15.02-4.3.17-6.45.27-1.33.01-2.65.02-3.98.03-2.98-.13-5.96-.23-8.94-.41-6.2-.39-9.28-2.97-10.37-9.1-.49-2.76-.5-5.62-.54-8.44-.13-8.14-.16-16.27-.24-24.41,0-1.33,0-2.67,0-4,.03-18.33.06-36.66.09-54.98Zm46.97,6.89c8.64.05,17.28.26,25.91.11,15.28-.25,23.05-4.86,27.54-19.24,4.94-15.84-.83-30.47-19.29-32.77-10.42-1.3-20.92-.54-31.38-.66-2.71-.03-3.82.88-3.8,3.76.15,15.96.14,31.93.18,47.89-.12.68.14.99.84.9Z"/>
  <path class="cls-4" d="m750.21,675.11c.31,2,.62,4.01.94,6.01-.15,3.82-.34,7.63-.45,11.45-.35,11.84-3.95,15.5-15.65,15.55-16.3.07-32.6.15-48.9-.07-4.09-.05-5.36,1.04-5.3,5.25.23,17.31.13,34.62.05,51.93-.05,9.68-3.21,12.69-13.01,12.76-5.82.04-11.64.08-17.46.02-11.88-.12-15.42-3.71-15.47-15.63-.06-16.81-.08-33.61-.12-50.42,0-1.01.01-2.02.02-3.04.07-16.96.09-33.93.21-50.89.1-13.63-.77-27.31.83-40.88,1.27-10.77,7.41-18.1,17.56-22.12,6.18-2.44,12.63-2.61,19.08-2.69,15.78-.19,31.57-.26,47.35-.37,1.67,0,3.33.01,5,.02,9.45.18,18.92.16,28.36.61,6.58.31,9.44,3.53,9.71,10.18.16,3.98-.06,7.98.03,11.96.23,10.76-2.76,17.32-17.34,17.19-19.93-.17-39.86.04-59.78-.09-3.56-.02-5.05.79-4.94,4.69.29,10.46.18,20.93.23,31.39-.17.67.09,1.01.78,1.01,19.05.1,38.09.26,57.14.28,4.84,0,8.81,1.28,11.14,5.87Z"/>
  <path class="cls-3" d="m713.9,865.88c1.33,0,2.66,0,4,0,27.64,0,55.28,0,82.92.01,3.66,0,7.32.01,10.98.02,1.99,1.33,3.98,2.67,5.96,4l.04,2.98c-1.63,4.24-4.62,6.07-9.24,6.06-54.61-.07-109.22-.04-163.83-.04-42.92,0-85.83,0-128.75,0-98.04,0-196.09-.01-294.13.04-2.47,0-4.56-.53-6.43-2.07q-.13-10.92,13.96-11c12.32,0,24.64,0,36.96,0,4-.52,7.99-.51,11.99,0,1.33,0,2.66,0,4,0,1,0,2,0,3,0,1,0,2,0,3,0,1.33,0,2.66,0,4,0,14.98,0,29.97,0,44.95,0,1,0,2,0,3,0,23.31,0,46.62,0,69.93,0,3,0,5.99,0,8.99,0,26.97,0,53.95,0,80.92,0,5.99,0,11.99,0,17.98-.01,19.65,0,39.3,0,58.94.01,1.66,0,3.33,0,4.99,0,43.96,0,87.91,0,131.87,0Z"/>
  <path class="cls-3" d="m787.83,919.82c1.33,0,2.66,0,3.99,0,6.16.02,12.32.08,18.48.05,3.66-.02,6.24,1.25,6.46,5.26.2,3.67-.79,6.36-5.16,7.11-2.49.42-4.92.62-7.4.62-169.63.02-339.25.02-508.88.03-1,0-2,0-3,0-7.99,0-15.98,0-23.98,0-3.66,0-7.33,0-10.99,0-7.65,0-15.31.11-22.96-.05-4.62-.09-9.22.28-13.89-.59-5.11-.96-5.41-4.1-5.08-8.02.34-4.13,3.28-4.37,6.5-4.36,12.81.03,25.63,0,38.44-.02,9.32,0,18.65,0,27.97,0,20.31,0,40.63,0,60.94-.01,6.66,0,13.32,0,19.98,0,23.21.02,46.42.03,69.63.06,1.84,0,3.65,0,5.3-.97,7.37-.64,14.61,1.62,21.98.91,1.33,0,2.66,0,3.99,0,.67,0,1.33,0,2,0,3,0,6,0,9,0,2.33,0,4.66,0,6.99,0,10.99,0,21.98,0,32.97,0,3.33,0,6.66,0,9.99,0,85.58,0,171.17,0,256.75,0Z"/>
  <path class="cls-3" d="m425.19,988.84c-3.66-.32-7.32-.92-10.98-.92-63.63-.06-127.27-.06-190.91,0-4.1,0-7.31-.82-7.89-5.52-.79-6.38.97-9.41,5.98-10.56,10.65-.01,21.31-.02,31.96-.03,5.66,0,11.33-.02,16.99-.02,7.99,0,15.98.01,23.97.02,5,0,9.99,0,14.99,0,1,0,1.99,0,2.99,0,1.67,0,3.33,0,5,0,2,0,3.99,0,5.99,0,1,0,2,0,2.99,0,8.32-.34,16.71,1.03,24.98-.9,1.87,1.14,3.94,1.01,5.99.92,2.66,0,5.32,0,7.99,0,4.06.61,7.97-.75,11.98-.91,7.67,1.71,15.33,1.36,22.99-.01,3.69,0,7.24,1.6,10.99.9,7.32,0,14.65,0,21.97.01,4,0,8-.01,11.99-.02.66,0,1.33,0,1.99,0,1,0,2,0,3,0,12.32,0,24.64,0,36.96,0,.67,0,1.34,0,2,0,5.33,0,10.65,0,15.98,0,15.89.02,31.77.03,47.66.07,1.84,0,3.64,0,5.29-.97,1.65.96,3.45.97,5.29.97,14.22-.04,28.44-.05,42.67-.06,3.81.02,7.62-.02,11.43.09,5.7.15,7.57,2.16,7.56,7.95,0,5.57-2.13,7.89-7.58,8.01-5.14.11-10.27.06-15.41.07-.67,0-1.33,0-2,0-3.33,0-6.66,0-9.99,0-.67,0-1.33,0-2,0-30.3,0-60.61.01-90.91.02-1.33,0-2.66,0-3.99,0-16.65.41-33.33-1.12-49.95.91-.99,0-1.99-.01-2.98-.02-4.67-1.66-9.34-1.37-14,.02h-.5s-.5,0-.5,0Z"/>
  <path class="cls-3" d="m291.32,483.05c-22.64-.01-45.28-.01-67.91-.04-6.34,0-8.01-1.18-8.02-5.51-.01-4.39,2.48-6.48,8.08-6.48,78.57-.02,157.13-.02,235.7.04,2.12,0,4.23.67,6.35,1,2.88.45,2.75,3.05,3.42,4.96.71,2.03-.53,3.47-2.13,4.61-2.19,1.57-4.71,1.39-7.2,1.39-54.76,0-109.53.03-164.29.04-1.33,0-2.66,0-3.99,0Z"/>
  <path class="cls-5" d="m214.9,1022.85c.59-3.72,3.05-5.32,6.53-5.7,1.32-.14,2.66-.16,3.99-.16,55.23.02,110.46.04,165.7.07,2,0,3.96.02,5.91.67,2.7.89,4.29,2.55,4.14,5.47-.16,3.07-1.93,4.89-4.89,5.46-1.29.25-2.65.18-3.98.19-55.92.02-111.84.01-167.76.07-3.45,0-6.64-.31-9.08-3.07-.18-.99-.36-1.99-.55-2.98Z"/>
  <path class="cls-5" d="m215.01,371.04c1.39-5.09,5.4-5.08,9.55-5.08,49.11.01,98.22-.01,147.32-.03,8.16,0,16.31-.06,24.47-.01,3.75.02,7.71.04,7.9,5.32.15,4.14-2.18,5.86-7.96,5.87-51.77.03-103.54.04-155.31.05-5.99,0-11.99-.13-17.98.03-3.5.09-6.2-.87-7.8-4.15-.07-.67-.14-1.33-.2-2Z"/>
  <path class="cls-3" d="m305.62,400.04c25.95,0,51.91.02,77.86-.03,3.5,0,6.92.38,10.36.95,3.33.55,4.52,2.4,4.36,5.51-.17,3.37-2.17,4.36-5.28,4.6-11.16.86-22.3.28-33.46.03-11.44-.25-22.88.2-34.33.73-10.24.48-20.54-.53-30.82-.78-7.96-.19-15.84,1.51-23.84.97-15.5-1.04-31,.42-46.51,0-6.06-.16-8.47-1.66-8.58-5.83-.11-4.23,2.63-6.16,8.87-6.16,27.12-.01,54.24,0,81.36,0Z"/>
  <path class="cls-3" d="m300.86,447.03c-26.12,0-52.24,0-78.36,0-3.24,0-6.5.25-7.1-4.25-.63-4.67,1.56-6.85,5.99-7.26,1.81-.17,3.62-.48,5.42-.48,48.91-.03,97.82,0,146.74-.06,2.69,0,5.25.52,7.86.99,3.88.7,5.27,2.91,4.83,6.71-.44,3.75-2.87,4.35-6.02,4.35-26.45-.04-52.9-.02-79.36-.02Z"/>
</svg>