<?xml version="1.0" encoding="UTF-8"?>
<svg id="Layer_1" data-name="Layer 1" xmlns="http://www.w3.org/2000/svg" viewBox="0 0 1255.33 1164.51">
  <defs>
    <style>
      .cls-1 {
        fill: #fff;
      }

      .cls-2 {
        fill: #4b4d5a;
      }

      .cls-3 {
        fill: #fefefe;
      }
    </style>
  </defs>
  <path class="cls-2" d="m247.13,779.61c0-1.66,0-3.33,0-4.99.09-1.49.25-2.98.25-4.46.04-105.23.07-210.47.08-315.7,0-1.49-.17-2.97-.25-4.46.41-3.33.43-6.66,0-9.99.09-1.82.25-3.63.25-5.45,0-27.7,0-55.4-.04-83.1-.02-11.11-.16-22.21-.25-33.32,0-1.33.02-2.66.03-4-.24-17.36,16.33-37.86,34.83-40.07,16.58-1.98,33.18-.59,49.76-.96,4.01-.09,5.39-.95,5.4-5.15.03-8.76,9.85-17.83,18.66-17.77,5.26.03,10.52-.67,15.38,2.7,6,4.16,9.52,9.51,9.75,16.79.07,2.31.62,3.26,3.08,3.19,4.49-.13,8.99-.09,13.48.09,2.5.1,3.33-.61,3.54-3.29.8-10.01,8.12-18.38,17.7-20.08,9.84-1.75,19.57,2.62,24.8,11.8,1.53,2.69,1.72,5.71,2.2,8.54.48,2.84,1.7,3.04,3.91,3.04,25.97,0,51.93,0,77.9.13,2.74.01,3.34-.97,3.31-3.47-.1-7.65.31-15.33-.04-22.97-.65-14.56,18.31-35.44,35.07-34.66,20.23.94,35.09,10.79,39.25,28.82,1.94,8.43,1.84,17.18,1.35,25.78-.3,5.32,1.45,6.52,6.55,6.48,27.46-.25,54.93-.17,82.39-.06,3.44.01,4.92-.64,5.11-4.52.54-10.93,15.69-23.86,30.09-17.98,9.15,3.74,14.1,10.01,14.97,19.61.21,2.35,1.28,2.65,3.18,2.65,4.66,0,9.33-.04,13.98.2,2.67.14,3.23-.88,3.42-3.41.93-12.4,10.06-20.41,22.92-20.38,11.49.02,20.58,8.59,21.32,20.51.19,3.05,1.75,3.04,3.85,3.05,9.49.05,18.99-.2,28.46.25,16.12.78,28.6,8.12,36.1,22.54,3.95,7.59,4.94,16.13,4.94,24.71-.05,61.59-.16,123.18-.1,184.76.09,100.54.42,201.07.35,301.61-.01,22.85-16.33,42.74-41.28,43.36-9.65.24-19.31.08-28.96.08-54.3,0-108.61-.01-162.91,0-119.94,0-239.88-.16-359.82.19-21.91.06-38.06-15.72-42.31-30.45-1.2-4.15-1.37-8.47-1.43-12.78-.1-6.82-.15-13.63-.22-20.45v-4c0-1,.01-2,.01-3Zm294.92-484.44c-.35,5.33-.39,10.65.1,15.98-1.06,13.82,15.2,27.93,28.27,25.77,16.67-2.75,26.64-13.82,25.16-30.76,0-1.33,0-2.66,0-3.99,0-8.99-.01-17.98-.02-26.97l-.07-15.98c.8-4.45-.15-8.83-.7-13.19-1.37-10.81-11.11-22.63-24.02-22.58h-3.99c-11.91-1.57-24.55,12.21-24.76,21.35-.4,16.78-.03,33.58.02,50.38Zm-283.83,410.52c-.09.99-.27,1.98-.27,2.97-.03,34.26-.12,68.53-.02,102.79.02,7.79,4.03,15,9.1,19.6,5.75,5.22,13.49,8.69,22.38,8.68,184.57-.22,369.13-.24,553.7-.32,11.78,0,23.53-8.5,27.67-19.83,2.53-4.92,2.48-10.25,2.48-15.57,0-140.99,0-281.98-.01-422.96,0-1.66-.14-3.32-.22-4.97,0-.67,0-1.34,0-2,.4-18.64.46-37.28-.02-55.93.84-2.04-.68-3.78-.67-5.78.06-14.31-11.6-26.41-24.87-28.32-10.92-1.57-21.83-.41-32.73-.99-3.35-.18-4.22.96-4.14,4.19.24,9.14.75,18.33.06,27.42-1.01,13.35-9.54,19.99-20.79,21.36-10.07,1.23-23.02-10.12-23.47-20.24-.43-9.62-.29-19.28-.25-28.92.01-2.63-.49-3.96-3.54-3.79-4.47.26-8.99.28-13.46.02-3.24-.19-3.86,1.12-3.78,4.03.21,8.14.16,16.29.18,24.44.03,14.18-5.65,20.93-19.82,23.62-11.81,2.24-24.49-7.44-24.96-19.39-.34-8.63-.19-17.28-.21-25.93-.01-6.96.02-6.96-6.93-6.48-3.99,0-7.99.02-11.98.03-1,0-2,0-3,0-4.99,0-9.99-.01-14.98-.02-.33,0-.67,0-1,0-14.65,0-29.3,0-43.95.01-2.49-.06-4.99.05-7.45-.21-3.59-.39-4.77.73-4.77,4.6,0,9.58.91,19.17-.62,28.77-1.52,9.58-6.27,16.94-13.73,22.78-7.37,5.77-16.2,8.34-25.13,8.48-9.01.14-17.22-3.92-23.92-10.19-6.8-6.37-11.32-14.28-12.15-23.55-.72-8.07-.09-16.25-.07-24.38q.02-6.77-7.06-6.32c-22.97,0-45.94.01-68.92.02-.99-.07-2-.06-2.98-.21-4.28-.62-6.22.61-5.85,5.51.51,6.79.08,13.64.26,20.45.11,4.13-.49,8.19-1.8,11.96-4.15,11.92-16,16.31-24.6,14.87-8.85-1.48-18.96-10.5-18.83-22.76.07-6.49-.03-12.98-.06-19.47q-.04-10.53-10.7-10.52c-8.59.01-8.32.02-8.68,8.63-.4,9.69,1.31,19.42-1.5,29.11-2.74,9.47-13.56,16.51-23.89,15.07-9.86-1.37-19.04-12.03-19.06-21.65-.02-9.15-.25-18.3-.08-27.45.06-3.15-.91-4.02-3.94-3.86-5.64.28-11.3.21-16.95.29-3.48,0-6.95,0-10.43.01-.97,0-1.95,0-2.92,0-1.88,0-3.77,0-5.65,0-5.61-.23-11.16-.6-16.63,1.6-15.57,6.28-22.87,16.57-22.87,33.17.04,125.84.11,251.69.19,377.54,0,1.32.17,2.64.26,3.97-.42,2-.42,3.99,0,5.99Zm476.64-413.08h-.17c0-6.97.1-13.95-.03-20.92-.12-6.43-4.52-11.34-10-11.51-8.96-.27-13.32,3.03-13.57,11.12-.44,14.01-.08,28.04-.2,42.07-.06,6.48,5.31,12.01,12.46,11.85,6.69-.15,11.42-5.09,11.49-12.2.07-6.81.01-13.61.01-20.42Zm41.88-.67c.15,0,.29,0,.44,0,0,7.31-.12,14.63.04,21.93.14,6.56,5.51,11.22,11.35,11.21,5.97,0,11.63-5.44,11.7-11.75.14-13.96.11-27.93-.08-41.89-.09-6.53-4.93-11.3-10.84-11.27-8.74.05-12.38,3.23-12.56,11.32-.15,6.81-.03,13.63-.03,20.44Zm-340.9,2.94c0-8.49.12-14.8-.03-21.11-.22-9.11-4.82-13.71-13.27-13.53-6.82.15-10.8,5.19-10.76,13.75.07,13.46.18,26.91.25,40.37.01,2.17.23,4.22,1.82,5.9,3.22,3.4,6.97,6.02,11.81,4.74,4.59-1.22,8.13-3.89,9.36-9.05,1.84-7.72.24-15.51.82-21.06Zm-88.24-2.26s.06,0,.09,0c0,3.32-.02,6.64,0,9.96.03,3.49,0,6.98.16,10.46.34,7.58,4.22,11.6,10.71,12.19,6.82.62,12.14-4.54,12.34-11.63.4-14.1.49-28.24-.12-42.32-.33-7.53-4.72-10.85-12.48-11.07-6.19-.18-10.53,5.01-10.66,11.99-.13,6.8-.03,13.61-.03,20.42Z"/>
  <path class="cls-1" d="m873.03,318.15c.48,18.64.41,37.28.02,55.93-.6.11-1.25.26-1.25,1,0,.74.65.89,1.25,1,.08,1.66.22,3.32.22,4.97.01,140.99.01,281.98.01,422.96,0,5.32.04,10.65-2.49,15.57-4.49,0-9.02-1.21-10.52,5.69-.85,3.92-5.28,7.68-8.83,8.7-6.53,1.87-13.75,2.5-20.55,1.95-7-.57-14.03-.94-21.03-1.27-9.46-.44-18.96.14-28.42-.25-3.3-.14-6.59-.57-9.72.37-3.96,1.18-8.03,1.24-11.86.62-9.8-1.59-19.5.46-29.22.55-4.43.04-8.2-2.27-12.51-1.62-1.15.17-1.3-1.19-1.49-2.21-.29-1.6.96-4.05-1.87-4.4-2.39-.29-3.77,1.5-4.31,3.44-.86,3.1-2.82,3.53-5.6,3.44-8.29-.26-16.49,1.12-24.72,1.72-9.85.72-19.73,2.47-29.7.27-7.46-1.65-14.87-1.38-22.55.45-6.65,1.58-14.01,1.56-20.76-.15-4.85-1.23-9.5-1.74-14.42-1.51-8.86.41-17.79,1.77-26.5,1.84-68.91.61-137.82.41-206.73.24-8.23-.02-16.34-2.65-24.71-1.93-4.85.42-9.66,1.41-14.59-.05-6.42-1.9-13.12-.93-19.68-1.01-3.62-.05-5.95-.85-7.58-4.08-2.05-4.04-4.11-4.27-7.25-1.08-3.05,3.11-4.79,2.7-6.99-1.32-.91-1.67-1.83-3.4-4.38-3.5-3.23-.13-3.68-1.75-1.48-4.14.53-.58,1.27-1.56,1.1-2.1-2.1-6.79,2.33-16.64-8.87-19.21-.31-.07-.59-.31-.87-.49-.8-.52-1.19-1.29-.65-2.09.68-1.01,1.57-.39,2.07.21,1.59,1.89,3.29,2.07,5.17.55,2.69-2.18,3.07-9,1.39-12.18-1.86-3.54-4.33-7.34-.24-11.31,1.53-1.49,1.1-2.53-1.37-3.25-8.25-2.4-8.62-3.15-8.39-11.86.04-1.62-.36-3.42,1.41-4.49.8-.48,1.85-.47,2.18.35.66,1.63,1.92,3.23.88,5.18-.24.44-.42.91-.64,1.35-1.66,3.38,1.44,4.6,3.18,5.79,1.51,1.03,4.61,1.33,5.64-.4,1.41-2.37-.52-4.18-2.76-5.51-1.01-.6-3.01-1.18-2.42-2.73,1.39-3.66-1.11-8.18,2.66-11.27.99-.81,1.02-2.08.18-3.15-.67-.86-1.65-1.08-2.69-.96-1.41.16-1.95,1.28-2.21,2.39-.18.74.26,1.61.24,2.41-.02,1.18-.86,1.83-1.9,1.94-.95.09-2.77-.12-2.78-.25-.1-2.58-.06-5.16.09-7.74.12-2.07,1.49-2.77,3.4-2.84,2.75-.1,3.35-1.23,3.13-4.19-.36-4.73-2.84-10.49,4.7-12.92,2.36-.76,2.93-4.41,2.54-7.08-.4-2.76-3.08-2.33-5.13-2.89-4.65-1.27-2.74-5.29-2.47-7.96.32-3.06,2.7-1.94,4.48-.74,1.56,1.06,2.51.31,3.07-1.14.4-1.05.1-2.41,1.39-3.03,3.8-1.83,3.26-4.24,1.31-7.26-2.58-4-2.86-9.2-3.39-13.39-.44-3.48.38-8.3.9-12.49.34-2.72-.36-4.69-5.02-4.57,4.18-1.68,4.67-3.72,3.51-6.15-4.26-8.95-2.84-18.47-.46-27.07,1.82-6.57,1.52-12.45,1.24-18.85-.15-3.57-3.31-5.35-3.27-8.6.03-2.74,1.71-5.88-2.25-7.61-.98-.43-.38-1.94.58-2.44,3.59-1.86,3.05-4.81,2.03-7.74-3.03-8.73.74-17.76-1.27-26.54-.18-.79.53-1.86,1.02-2.7.51-.9,1.29-2.06.54-2.73-5.12-4.59-4.51-8.97.08-13.47.37-.36.01-1.38.31-1.92,1.64-2.98.12-6.11-.72-8.47-1.39-3.9,5.8-8.16-.83-11.51-.8-.41.91-1.62,1.83-2.32,3.7-2.8,5.11-10.49,1.65-11.98-6.02-2.6-5.26-6.99-5.46-11.68-.06-1.34-.43-2.47.42-3.73,2.26-3.34-.21-4.03-2.71-4.33-1.08-.13-2.23.58-3.37.65-1.21.08-1.75-.81-1.78-1.93-.03-1.13-.42-2.42.6-3.26.29-.24,1.21.09,1.75.35,5.85,2.85,10.07,1.09,10.26-5.4.17-5.57,2.27-10.92,1.37-16.56-.3-1.9-.42-4.14,2.18-4.94,1.52-.47,3.11-1.14,2.39-3.04-.62-1.65-2.18-.8-3.47-.66-3.25.35-9.02-7.09-7.51-9.91,2.22-4.13,2.8-8.78,4.58-12.95,2.28-5.35,1.76-9.45-2.44-13.41-1.77-1.67-2.91-5.45-1.53-6.3,5.83-3.6,3.43-7.74,1.77-12.05-.11-.29-.11-.7,0-.99,1.79-4.65,1.46-8.99.64-14.06-.71-4.39-.76-9.82-1.33-14.27-1.08-8.44,3.7-16.74-.23-24.97-.69-1.43.95-2.7,1.67-3.98,1.73-3.1,1.69-6.36.55-9.62-.98-2.82-3.16-3.15-5.67-2.45-2.54.71-2.89,2.3-1.88,4.6.38.86.22,1.96.23,2.96.02,1.85-.02,4.34-2.03,4.5-2.38.2-2.95-2.16-2.95-4.32,0-2.66.1-5.33-.03-7.99-.15-3.03.33-4.44,3.84-2.79,2.22,1.04,4.94.21,5.82-2.18.9-2.44,1.12-5.58-1.27-7.39-1.71-1.3-4.06-1.32-5.7.89-.85,1.14-2.2,2.11-3.24.58-.93-1.37.48-2.24,1.53-3.16,2.67-2.37,5.56-4.65,7.58-7.52,1.2-1.71,1.68-2.44,3.64-1.41,2.52,1.32,3.95.8,3.18-2.4-.25-1.04-.37-2.03.91-2.42,1.28-.39,2.37.02,2.87,1.28.42,1.06.74,2.2.84,3.33.22,2.28,1.7,3.89,3.54,2.91,2.41-1.28,7.07-.04,6.91-4.34-.09-2.4.01-3.77,2.2-4.71,1.12-.48,2.26-1,3.14.21,1.26,1.73,1.76,3.58.28,5.51-.63.82-1.08,1.55.08,2.48,3.62,2.87,8.92.88,9.86-3.72.88-4.27,3.39-8.77-2.04-11.97-.2-.12-.17-.62-.25-.95,3.48,0,6.95,0,10.43-.01.15,2.19-1.46,5.2,1.08,6.32,2.44,1.08,5.28.84,7.94-1.12,5.36-3.95,8.46-2.34,8.73,4.38.31,7.62-.17,15.2-1.23,22.78-1.12,8.04,1.23,15.27,6.98,21.16.96.98,1.95,2.56,3.73,2.08,4.68-1.27,9.48-.47,13.5,1.29,5.44,2.39,11.95-3.67,16.52,2.64.15.21,1.23.15,1.39-.1,1.71-2.68,4.85-2.54,7.26-3.83,1.31-.7,2.04-1.76,1.57-3.27-1.14-3.72-1.3-6.19,3.54-3.1,1.14.73,2.35.51,3.04-.64.97-1.62-.65-1.94-1.55-2.46-3.21-1.87-4.3-3.07.32-4.86,3.36-1.29,4.91-8.64,3.16-11.87-2.32-4.27-3.78,1.26-6.6.44,2.15-4.67.2-10.49,5.61-14.04,2.53-1.66,2-4.22.88-6.72-.46-1.01-2.72-1.66-1.03-3.2,1.29-1.18,3.02-1.34,4.72-.94,1.53.37,2.38,1.54,2.04,2.96-1.79,7.39-.38,14.9-.96,22.32-.6,7.75-3.56,16.11,5.41,21.46.26.15.44.52.54.82.86,2.64,2.78,2.99,5.35,3.34,5.26.71,10.9-.96,15.79,2.32,1.16.78,2.39.04,3.22-.66,2.73-2.33,5.84-1.72,8.99-1.6,3.74.13,8.49-.14,9.86-3.49,1.28-3.14,5.62-5.93,4.47-8.28-2.31-4.69,1.01-5.15,3.17-7.05.6-.53.15-2.23.23-3.39.2-3.3-.51-6.65.5-9.91.73-2.37.51-4.13-1.45-6.22-4.08-4.34-3.95-7.78-.36-12.81,1.05-1.47,2.62-2.62,2.31-4.73,22.97,0,45.94-.01,68.92-.02-.56,3.27,3.39,4.64,3.1,8.1-.77,9.08.91,18.25-.99,27.32-.19.91-.17,2.25.36,2.88,3.38,4.02,4.25,9.66,7.49,13.33,4.02,4.55,6.03,11.67,13.65,12.65,1.87.24,2.26,2.5,2.46,4.47.29,2.85,2.45,4.4,4.91,3.31,9.22-4.09,17.46,1.51,26.06,2.66,3.24.43,7.11,2,10.19,1.57,3.08-.43,5.89-4.2,7.82-6.55,2.27-2.77,4.16-3.16,6.83-2.96,3.98.29,4.62-1.81,3.79-4.92-1.1-4.09.05-5.6,4.1-4.98,7.26,1.11,8.14.02,6.16-7.03-.59-2.09-1.4-2.4-3.13-1.32-.83.52-1.06,2.63-2.58,1.32-1.15-1-1.6-2.53-1.06-4.11.36-1.06,2.66-2.08.64-3.12-1.56-.8-2.31,1.36-3.36,2.3-.73.66-.14,2.57-2.02,2.17q-.93-5.99,4.34-6.49c4-.38,9.67-6.16,8.15-8.65-1.67-2.71-.73-4.69.43-6.91.51-.97,2.13-2.25.94-2.96-7.84-4.66-3.79-3.82,1.61-5.41,7.68-2.26,14.85-4.26,22.64-1.24,2.27.88,4.59.46,6.69-.86.89-.56,1.62-1.29,1.43-2.41-.22-1.26-1.32-1.47-2.31-1.33-6.22.85-11.78-3.01-17.96-2.45-1.45.13-1.48-1.08-1.16-2.08.43-1.32.48-2.33-1.26-2.46-1.67-.13-2.63.29-3.12,2.27-.96,3.92-4.12,4.81-7.24,2.35-2.79-2.2-4.15-4.86-2.68-8.42,14.65,0,29.3,0,43.95-.01.17.39.33.77.5,1.16.17-.39.33-.77.5-1.16,4.99,0,9.99.01,14.98.02,1,2.39,2,2.39,3,0l11.98-.03c-.12,3.04,4.81,3.34,3.88,6.41-1.68,5.54-1.34,11.33-1.18,16.76.21,7.05-5.69,15.33,2.85,21.33.3.21.33.91.37,1.38.61,7.2,2.28,8.84,9.51,9.87,3.1.44,6.14,1.25,8.21,3.98,1.6,2.11,2.76,2,4.57-.23,3.48-4.27,8.22-3.87,11.65.53,3.25,4.16,8.09,3.68,10.17-1.07.52-1.19,1.24-1.77,2.42-2.22,3.29-1.27,7.18-9.68,4.98-12.3-3.34-3.99-1.31-6.96.33-10.3.68-1.39.86-2.64.43-4.25-1.87-7.05-3.25-14.14-1.34-21.5.5-1.92.91-3.84,2.83-4.24,2.82-.58,5.77-.53,8.67-.75,0,2.89,2.86,5.13,1.75,8.33-1.45,4.15-1.18,8.5-1.2,12.81-.02,4.57.99,9.41-3.16,13.04-1.11.97-.29,2.19.08,3.24,1.92,5.43,3.01,11.56,10.64,12.05,1,.06,1.95,1.12,2.89,1.76,1.36.94,2.62,2.1,4.49,1.6,4.26-1.12,8.6-.25,12.9-.53,1.9-.13,4.66.26,5.08,1.37,1.99,5.22,5.55,2.56,7.79,1.34,3.26-1.77,7.84-.67,9.76-2.81,2.57-2.85,5.29-4.67,8.61-6.07.96-.4,1.83-1.06,1.44-2.25-.35-1.08-1.25-1.53-2.38-1.15-1.6.54-2.22-.23-2.15-1.67.13-2.45-.31-4.16-2.86-5.58-1.76-.98-2.15-3.28,1.07-4.18,5.08-1.43,7.33-9.35,3-11.81-6.33-3.6-4.6-7.99-3.34-13.04.73-2.91,1.93-4.54,5.03-4.07,4.1.61,8.15.79,12.16-.53,1.41-.47,2.45.23,2.65,1.48.7,4.28,2.2,3.17,4.2.84.96-1.12,2.5-.58,3.78-.83,3.7-.72,6.79,2.68,9.61,2.35,4.12-.48,5.35.87,6.4,4.08.34,1.04,1.12,2.2,2.03,2.74,5.18,3.05,6.28,8.19,7.17,13.46.39,2.34.77,4.65,3.58,5.37Zm-83.5,297.68c.39,3.16,1.42,5.47,5.3,3.99.06,1.32.13,2.64.19,3.97-5.35.12-3.22,4.68-3.91,7.19-2.24,8.24-2.05,8.89,5.69,11.54,3.38,1.16,1.67,5.57,4.51,5.71,3.14.15,2.05-5.35,5.6-5.34,3.78,0,7.72-1.06,11.28.8,3.42,1.78,6.44,1.14,8.34-1.74,1.79-2.72,2.71-6.11-.08-9.07-.77-.82-2.13-1.35-1.38-2.77.78-1.46,2.1-1.36,3.46-.81,1.45.59,2.7.51,2.9-1.4.34-3.2.25-7.01-1.87-8.96-3.56-3.28-3.08-6.75-2.37-10.51.42-2.24.09-3.28-2.45-3.69-5.3-.85-10.74-1.49-15.11-5.17-.96-.81-1.92-.46-2.64.34-2.62,2.96-6.09,2.72-9.61,3.02-4.02.34-9.49-.77-9.21,6.26.02.52-.74,1.06-1.12,1.59-.81,1.15-2.78,1.83-1.98,3.63.85,1.91,2.84,1.28,4.43,1.41h.02Zm-223.59-166.83c.55,1.65.6,3.31.06,4.98-2.22.79-2.67,2.52-1.85,4.4.65,1.5,1.62,2.77,1.72,4.56.2,3.42,3.39,4.02,4.97,2.63,3.21-2.83,6.91-3.54,10.72-4.4,1.22-.28,2.18-.8,2.14-2.29-.03-1.31-.62-2.21-1.82-2.69-3.49-1.41-6.99-2.8-10.49-4.21-.03-.66-.05-1.32-.08-1.98,5.64-3.66,7.1-14.18,2.26-18.49-2.05-1.82-5.52-4.36-7.71-2.4-2.31,2.08-4.85,3.21-7.4,4.54-3.39,1.77-4.06,4.69-3.49,7.98.45,2.61,2.73,3.82,5.05,4.13,2.54.33,2.76-1.78,2.79-3.71.35-1.11,1.26-.74,2.02-.77.36.24.73.48,1.09.73,0,1.65,0,3.29,0,4.94-1.27.7-1.25,1.38.03,2.04Zm-137.98,256.68c1.85,4.3,4.73,1.39,7.01.77,2.59-.7,3.46-3,2.8-5.53-.59-2.25-1.32-4.48-.47-6.74,1.69-4.51-.83-4.73-4.15-4.27-.2-.31-.21-.62-.03-.94,1.54-1.08,5.84-11.07,5.3-12.36-.11-.27-.43-.66-.64-.66-3.95.09-7.31-3.56-11.5-1.83-2.4.99-5.16,1.22-7.32.45-5.77-2.06-11.27-1.1-16.91.13-2.87.62-8.02,9.84-6.67,12.46.28.55.86,1.31,1.35,1.35,4.89.39,8.19,2.94,10.34,7.21,0,1,.01,2,.02,3-2.49.26-2.17,2.07-1.97,3.71.21,1.79.77,3.55.83,5.33.09,2.93,1.61,3.52,3.88,2.43,5.76-2.76,12.11-2.97,18.15-4.5h-.01Zm373.61-142.95c.98.11,1.97.21,2.95.32.36,2.16,2.05,1.79,3.5,1.8,1.69.01,3.11.2,4.4,1.7,2.49,2.89,8.1,2.38,10.59-.5,2.04-2.36,1.76-4.46-.85-5.66-4.75-2.18-2.31-3.13.43-4.43,5.56-2.64,6.43-9.48,1.59-12.72-1.3-.87-1.61-1.9-1.72-3.3-.59-7.43-7.75-8.78-12.03-12.79-.29-.27-1.35-.02-1.86.3-2.4,1.47-5.04,1.31-7.69,1.52-6.62.53-9.52,5.41-9.78,11.9-.21,5.17.69,10.73-1.51,15.62-1.93,4.3-.56,7.73,2.84,9.3,3.07,1.42,6.95.52,9.15-3.07Zm-72.47-16.84c.03,2.33.06,4.66.1,6.99-3.03-.01-3.52,2.21-3.52,4.42,0,2.71-1.29,6.56,1.91,7.64,3.73,1.25,6.13,3.72,8.81,6.12.99.88,2.85,1.09,3.04.1.71-3.6,4.84-5.6,4.5-9.36-.29-3.29,1.19-3.82,3.73-3.33,1.87.36,4.97.36,4.26-1.33-1.14-2.71,1.16-7.1-2.84-8.11-4.74-1.19-5.29-3.44-2.99-7.11,2.48-3.95,2.36-7.61-.21-11.54-1.46-2.23-2.62-2.95-4.49-.75-2.45,2.89-4.73,2.93-6.63-.45-1.45-2.58-2.98-2.58-5.22-.92-1.29.96-2.95,1.57-4.54,1.94-4.46,1.02-6.65,4.23-8,8.12-1.61,4.65,2.27,8.79,7.13,7.9,1.62-.3,3.3-.23,4.96-.33Zm-12.51,71.81c-1.07,4.95.14,10.03-1.29,15.05-1.23,4.29,2,9.46,6.26,9.67,6.02.29,12.11,2.09,18.13.16,1.98-.63,3.77-1.23,5.59.33,1.64,1.4,3.05.71,4.3-.71,1.44-1.62-.03-2.22-1-3.1-1.16-1.06-1.43-2.81-.14-3.44,5.02-2.48,3.71-6.56,3.16-10.57-.28-2.02.11-3.97,1.2-5.75,1.51-2.46,2.42-4.88-.74-6.81-3.22-1.97.35-5.02-1.21-7.18-.31-.42-1.29-.27-1.81-.62-4.28-2.89-9.36-1.94-14.01-2.65-10.12-1.54-19.22.62-25.27,10.06-1.22,1.9-1.68,3.73-.45,5.51,1.07,1.54,2.52,1.42,3.54-.35,1.19.66,2.43.84,3.73.4Zm-370.54,87.36c2.33-.04,4.66-.08,6.99-.12,1.58,4.3,4.54,5.94,8.75,4.26,4.71-1.88,9.61-2.2,14.53-2.46,4.47-.24,7.55-3.29,6.46-7.6-.84-3.31-.54-6.05.85-9.07.9-1.96,1.06-5-.74-6.04-3.49-2.02-3.9-3.96-2.15-7.38.86-1.69-.33-3.82-2.48-2.27-2.56,1.85-4.17.83-6.17-.55-1.56-1.08-3.27-.94-5.21-.65-4.2.64-9,2.09-12.63.73-5.57-2.09-10.46,0-15.6.22-3.21.14-5.2,1.49-6.08,5.59-.83,3.89-1.4,6.99.33,10.75,1.68,3.67-.07,7.79.16,11.72.25,4.37,4.13,5.67,6.93,6.91,1.62.72,5.84.05,6.06-4.03Zm61.73-82.26c0,.67,0,1.33,0,2-2.06.24-2.73,1.53-2.81,3.44-.12,2.81.27,5.62-.41,8.44-1.02,4.22,1.99,6.9,6.28,5.58,1.73-.53,3.18-1.59,5.16-.63,3.09,1.5,6.48,1.21,9.8,1.14,9.32-.18,13.41-2.61,13.17-12.91-.08-3.37.45-6.47,3.72-8.65,3.12-2.08-.22-5.17.65-7.93.68-2.13-2.12-1.16-3.34-1.6-2.33-.83-3.86-1.9-4.19-4.82-.42-3.71-3.37-5.84-6.77-4.41-5.39,2.26-10.47.34-15.62-.12-3.3-.29-5.56.02-6.43,3.48-.29,1.13-.63,1.8-1.97,1.48-4.31-1.02-5.91,2.6-7.56,5.12-2.04,3.11-1.04,6.81.65,9.91,1.86,3.41,3.51-.73,5.33-.45,1.46.22,2.9.6,4.34.91Zm224.94,76.91c-.41,3.74-3.86,4.12-6.26,5.65-1.01.64-2.18,1.29-1.23,2.65.71,1.01,1.87.68,2.6-.05,3.95-3.96,5.78-1.77,7.33,2.27.45,1.18,1.79,3.24,3.27,1.54,2.01-2.32,5.64-3.11,6.29-6.66,3.3-.2,6.6-.4,9.9-.6.06,1.59,1.24,2.94,2.42,2.68,5.72-1.26,10.87,2.45,16.96.85,7.75-2.04,11.07-3.89,10.48-11.88-.39-5.27-2.42-10.23-2.69-15.86-.33-7.05-7.96-10.13-15.19-8.37-1.28.31-2.57.66-3.87.78-1.32.13-2.79.12-3.49-1.33-.65-1.37.42-2.53.76-3.77.31-1.14,3.2-.69,2.02-2.65-1.22-2.03-2.51-.15-3.75.4-2.72,1.2-4.78-.5-5.98-2.3-1.47-2.21,1.14-1.93,2.31-2.51,1.3-.66.72-1.78.17-2.53-2.88-3.9-1.37-5.7,2.8-6.87,1.66-.47,3.01-2.02,4.54-3.01,2.9-1.88,5.41-4.44,8.95-5.25,3.79-.88,7.26-5,6.37-8.76-.84-3.56.81-5.23,3.36-6.09,3.18-1.07,2.37-2.54,1.71-4.9-.87-3.1-2.31-7.18-1.04-9.48,1.96-3.53-1.33-8.13,2.94-10.81.69-.44-.39-1.56-1.41-2.07-8.24-4.08-7.94-9.61-5.63-15.36.71-1.77.8-2.31-.58-3.57-4.47-4.07-4.1-10.39.63-14.38,5.48-4.62,5.91-6.59,2.33-12.92-.97-1.71-1.37-3.01.35-4.29,1.8-1.34,2.19-2.29-.25-3.51-2.87-1.44-3.29-3.78-.61-5.74,1.82-1.33,1.55-2.4.36-3.6-2.45-2.49-3.75-6.2-7.83-7.02-1.61-.32-2.87-1.44-3.07-3.47-.45-4.45-4.22-5.44-7.26-4.73-5.47,1.28-6.49-2.09-7.68-5.74-.35-1.07,0-2.31-1.96-1.93-7.31,1.42-9.83-1.3-8.38-8.98.44-2.32.34-4.53-2.17-5.37-2.07-.69-3.7.04-4.64,2.47-1.11,2.87-3.73,3.58-4.98.6-1.92-4.6-5.19-6.08-9.64-6.3-2.19-.11-2.37-1.3-1.67-3.07.56-1.42,2.26-3.04.12-4.35-1.64-1-3.65-.97-5.1.49-3.3,3.34-5.96,1.11-7.07-1.59-2.18-5.28-7.17-5.94-10.68-5.04-5.79,1.48-11.07-.23-16.24-1.01-8.57-1.3-16.96-1.77-25.37-.12-3.69.72-6.54.95-8.26-2.95-.72-1.64-2.18-1.47-3.42-1.14-2.03.54-.82,1.7-.26,2.63,1.16,1.91-.45,2.66-1.59,2.76-4.56.4-8.46,2.17-12.65,3.85-3.75,1.5-7.79,4.54-12.54,3.76-.58-.09-1.75.7-1.91,1.29-1.29,4.69-5.03,5.21-8.95,5.55-3.34.29-5.72,1.47-5.56,5.49.11,2.76-1.52,4.28-4.3,4.46-1.64.1-3.39-.21-3.68,2.27-.33,2.85-2.11,4.43-4.94,4.76-1.45.17-1.6,1.16-2.06,2.33-2.85,7.27-7.99,12.19-15.58,14.36-2.58.74-6.41-.75-6.43,4.19,0,3.01-3.08,5.59-1.17,9.04.75,1.36.4,3.18,2.43,3.93,5.8,2.13,5.91,2.57,3.23,8.25-4.23,8.98-6.65,18.64-6.13,28.35.52,9.78,1.31,19.24-2.74,28.5-1.28,2.93-.98,5.37,3.16,6.16,2.76.53,4.39,2.79,4.29,5.92-.08,2.66-.17,5.34.03,7.99.26,3.59,2.06,6.93,5.56,7.35,4.47.53,5.98,2.78,6.39,6.63.13,1.25.71,2.26,1.69,2.93,3.01,2.05,3.79,5.07,4.51,8.46.75,3.52-.18,8.27,5.2,9.52.98.23,1.72,1.59,1.36,2.93-.42,1.56-1.71,1.72-3.08,2.01-7.58,1.64-15.14-.27-22.71-.22-7.31.05-4.89,6.36-7.35,9.42-1.71,2.13.22,3.54,1.89,4.8,3.24,2.44,4.56,5.12,3.74,9.7-1.34,7.42.8,9.17,8.25,9.26,2.79.03,5.57-.33,8.35.83,5.79,2.43,15.43-1.14,18.2-6.89,1.62-3.36,4.61-3.01,7.2-3.39,2.82-.41,1.21,2.43,1.96,3.64.86,1.4,1.36,3.82,2.48,4.13,4.77,1.32,5.61,6.13,8.45,8.63,6.46,5.71,6.6,14.59,12.39,20.43,4.14,4.18,6.61,9.81,8.59,15.33,2.77,7.7,10.88,12.19,12.01,20.76.06.49.81,1.21,1.3,1.26,2.86.29,4.05,2.57,5.78,4.34,3.74,3.84,12.51,2.3,14.96-2.45.62-1.2,1.58-2.81,2.88-2.3,5.34,2.08,7.9-.92,10.39-4.86.72-1.13,2.43-1.67,3.74-2.38,2.54-1.36,5.88-2.08,4.1-6.35-.22-.54.86-2.34,1.38-2.36,4.76-.14,6.74-5.14,11.14-6.07,3.26-.69,4.47-4.01,2.29-6.14-4.51-4.41-.62-5.54,3.29-7.55-4.03-.66-5.44-2.34-4.12-5.29.8-1.78.28-3.25-.56-4.72-1.84-3.19-.05-6.24.74-9.1.57-2.06,3.48-2.65,5.56-2.2,2.3.5,2.04,2.79,1.66,4.59-.3,1.44-.77,2.96-1.59,4.15-1.67,2.45-1.38,4.81-.61,8.05,2-2.06,3.79-4.64,5.02-.32.1.36,1.29.81,1.63.62.83-.47.82-1.47.26-2.17-2.28-2.82-.93-5.97.02-8.42,1.96-5.05.64-7.86-5-8.19-1.77-.1-2.35-1.02-2.43-2.48-.08-1.42.73-2.12,2.14-2.14,1-.02,2.09.2,2.98-.13,2.15-.79,6.88-.34,2.57-4.8-1.67-1.72-.22-3.5.8-4.93,1.3-1.81,3.01-1.04,4.42-.1,1.84,1.23,3.65,2.31,5.97,1.93Zm-186.79,59.11c.86-2.52-.83-5.49-1.07-8.62-.33-4.15-3.32-5.84-7.3-4.31-1.45.55-2.85.79-4.37.78-8.24-.01-16.47.04-24.71-.03-3.33-.03-6.48-.53-6.55-4.98-.01-.65-.16-1.49-.98-1.44-.54.03-1.52.64-1.5.92.37,4.72-2.65,7.63-5.2,11.02-1.17,1.56-1.37,4.17-3.87,3.21-2.64-1.02-2.78-3.15-1.15-5.66,1.48-2.28-.12-4.84-2.17-3.66-5.83,3.35-4.09-1.22-4.76-3.75-.44-1.66.6-2.88.65-4.35.04-1.26-.29-2.34-1.49-2.91-1.25-.59-2.69-.17-3.04.88-1.59,4.73-4.48,2.83-7.26,1.64-1.89-.81-3.85-.82-5.86-.92-6.58-.33-12.98,1.26-19.76.49-9.84-1.13-14.05,4.94-11.53,14.74,1.12,4.35-.09,8.17-1.63,11.99-.76,1.88-1.38,3.68-1.34,5.75.09,4.95.53,5.29,4.88,2.78,1.31-.76,2.23-.22,3.22.31,1.28.68,2.39.61,3.76.05,4.92-1.99,9.58-1.13,13.8,1.92,1.22.88,2.08.45,3.19.03,7.77-2.91,7.83-2.95,13.01,2.92,2.4,2.73,4.16,2.9,5.04-.92.46-2.01,1.61-3.11,3.19-4.17,2.26-1.52,4.99-2.57,5.21-6.09.09-1.51,1.62-2.04,3.04-.88,1.26,1.03,2.55,2.18,3.81,3.06,2.45,1.73,3.26,5.6,6.38,5.82,3.1.22,7.17,1.88,8.88-3.03.42-1.19,2.22-.22,3.13-.54,5.76-2.04,14.06,3.72,17.49-5.59.12-.33.87-.4,1.31-.63,3.04-1.63,5.54-.62,8.34,1.05,5.25,3.14,7.11,1.92,7.21-4.17.01-.67,0-1.33,0-2.72Zm-89.11-113.6c3.86-2.8,8.79-2.78,13.47-3.25,4.7-.47,6.52-2.71,5.6-6.75-1.06-4.61-.03-6.87,4.88-7.29,3.03-.26,3.8-2.3,2.73-5.06-2.29-5.92-2.29-11.89-.25-17.86.42-1.22.18-2.31-1.02-2.03-4.78,1.08-9.08-1.61-13.84-1.5-2.91.07-9.64,3.73-8.7-4.79.15-1.37-1.65-1.93-3.11-1.75-1.65.2-3.41,1.46-3.18,2.68,1.07,5.62-2.88,3.81-5.59,4.29-2.39.43-5.98-.4-6.56,2.94-.56,3.19-2.15,4.46-4.9,5.44-3.03,1.08-3.06,4.01-3.28,6.66-.18,2.26.88,3.8,2.95,4.69q8.8,3.78,6.57,13.1c-.3,1.28-.46,2.61-.51,3.92-.04,1.12-.23,2.6,1.28,2.88,4.38.83,8.76,1.61,13.45,3.69Zm366.66,28.53c-1.33,0-2.68-.15-3.99.03-3.08.43-8.39.33-8.81,1.68-1.42,4.59-6.09,8.96-2.84,14.37,1.9,3.16,1.62,6.2.74,9.51-1.14,4.29.35,6.98,4.62,7.21,10.67.59,21.36.94,32.04.9,2.27,0,4.09-.06,5.95,1.28,1.39,1,2.81,2.59,4.83.97,2.06-1.65,1.37-3.4.43-5.32-1.38-2.83-1.58-5.38,2.56-5.62,2.9-.17,3.61-1.76,3.56-4.28-.04-2.33.42-4.65-3.12-5.02-2-.21-7.96-9.07-7.8-10.95.05-.63.29-1.32.65-1.84,2.15-3.04-.23-3.67-2.23-3.48-8.87.82-17.69,2.4-26.61.57Zm-373.53-113.73c.09,8.54.46,9.27,6.64,10.49,3.04.6,6.1.59,9.03,2.14,1.66.88,5.2-.08,4.9-1.83-.82-4.74-.39-8.31,4.16-10.78.49-.26.26-1.87.34-2.85.43-4.98,2.61-6.31,7.14-4.11,2.09,1.02,3.77,1.22,3.75-1.59-.03-3.67.62-7.23,1.05-10.84.13-1.1.03-2.44-.5-3.37-.97-1.71-3.01-1.94-4.36-1.02-1.8,1.22.1,2.56.66,3.76.58,1.23,2.7,1.88,1.59,3.72-.85,1.41-2.18.92-3.55.65-1.93-.38-3.94-.39-5.91-.49-1.41-.07-3.23-.37-2.66-2.02,1.2-3.5.31-5.86-2.49-8.07-1.27-1.01-.58-2.74-.12-4.21.54-1.74,1.2-3.96-.38-5.12-1.95-1.43-1.91,1.64-3.15,2.09-.75.28-1.68.09-2.42.38-3.44,1.31-7.1-1.02-10.91,2.58-3.35,3.15-6.84,6.35-9.7,9.88-2.6,3.21-1.12,6.85,2.02,7.45,6.55,1.25,6.5,1.25,5.28,7.72-.34,1.78-.27,3.63-.39,5.44Zm448.27,111.88c-4.54,1.99-9.37,3.74-13.82,6.19-2.66,1.46-2.07,4.82-1.87,7.35.46,5.89-5.36,12.74,2.52,17.59.35.22.44,1.29.28,1.86-1.14,3.95,1.86,3.91,3.97,3.59,4.91-.74,10.14.58,14.74-2.41,1.54-1,3.12-.05,4.56,1.01,1.01.74,2.39,2.02,3.57,1.08,5.14-4.1,10.55-2.64,15.99-1.11,2.59.73,2.92-1.52,2.03-2.34-4.49-4.13-.69-9.03-1.57-13.45-.5-2.51-.82-5.55,1.06-7.69,3.59-4.08-.91-5.85-2.32-8.24-1.37-2.31-3.32-3.52-6.98-2.95-6.71,1.05-13.7,4.05-20.52.07-.41-.24-.93-.31-1.64-.54Zm-144.01-209.83c2.78-.08,6.15-1.66,7.92-5.5,1.44-3.13,1.17-6.21-1.78-8.52-1.12-.88-1.27-1.4-.32-2.7,2.39-3.27,3-6.7-.78-9.51-3.98-2.96-9.67-2.71-12.74.45-1.43,1.48-3.05,3.5-1.43,5.21,1.78,1.87,3.04-.58,4.34-1.7.74-.63,1.56-1.32,2.47-1.58,1.86-.53,3.98-.46,4.6,1.69.59,2.05.61,4.48-2.42,5.02-1.65.29-3.68.36-3.53,2.57.14,1.95,2.15,2.42,3.73,2.49,3.43.15,2.31,2.69,2.39,4.39.11,2.22-1.72,2.57-3.44,2.72-2.5.22-3.99-1.14-5.08-3.24-.8-1.54-2.3-1.27-3.51-.71-1.66.77-1.17,2.26-.56,3.44,1.82,3.55,4.72,5.49,10.15,5.47Zm149.7-.07c6.16-.08,10.35-3.25,9.49-8.36-.78-4.58-1.14-8.93-1.07-13.58.08-5.08-6.13-7.01-13.02-5.23-2.37.61-3.41,1.76-3.82,3.86-.24,1.23.1,2.28,1.36,2.9,2.11,1.04,2.77-.74,4.02-1.78,1.77-1.48,4.13-.95,6.15-.46.63.15,1.43,2.15,1.16,2.97-.63,1.86-2.39,2.61-4.39,2.6-.49,0-.99.13-1.49.16-.9.06-1.63.35-1.74,1.36-.13,1.15.49,2.01,1.47,2.32.91.3,1.96.1,2.93.26,2.81.48,3.74,2.22,3.59,4.99-.16,2.93-1.99,2.96-4.13,2.94-1.68-.02-3.29.11-4.41-1.58-1.38-2.1-3.85-2.24-5.1-.78-1.64,1.93.41,3.51,2,4.74,2.12,1.65,4.3,3.15,7.01,2.65Zm-77.43-5.8c2.56-3.04,4.97-5.72,7.18-8.56,2.86-3.68,3.21-9.22.55-11.31-3.34-2.63-8.69-3.88-13.04.47-1.04,1.04-3.77,2.16-1.81,4.18,1.32,1.36,3.53,1.98,5.06-.48,1.33-2.14,3.89-2.01,5.36-1.18,1.93,1.09,1,3.67.43,5.4-.49,1.48-1.86,2.71-2.95,3.95-2.52,2.87-5.16,5.64-7.63,8.54-2.09,2.46-1.3,3.99,1.82,4.07,4.48.11,8.98-.05,13.46,0,1.76.02,2.85-.42,2.91-2.42.07-2.56-1.8-1.8-3.14-1.93-2.56-.24-5.23.5-8.19-.73Zm-278.94,33.71c.83,0,1.69.14,2.49-.03,2.21-.48,5.21-5.66,3.9-6.75-1.76-1.47-3.67-2.93-5.77-3.81-2.29-.97-3.57.26-2.99,2.75.38,1.61,1.31,3.2.19,4.76-2.34,3.26.03,3.08,2.18,3.09Zm272.38,107.92c.09-3.46.07-3.48,2.69-6.04.95-.93,2.22-2.05,1.41-3.26-.96-1.43-2.36-.12-3.49.37-6.09,2.65-6.19,3.6-.62,8.93Zm-366.82-84.64c-.42-1.64.71-4.97-1.97-4.54-2.91.47-1.99,4.38-2.89,6.72-.56,1.44.38,2.48,2.09,2.51,3.63.07,2.44-2.69,2.76-4.69Zm-39.97-217.35c-.29,2.21.46,3.89,2.68,4.64.74.25,1.96.66,2.28.33,1.72-1.75-1.26-2.67-.96-4.28.09-.47.07-1.01-.06-1.47-.33-1.22.91-3.49-1.54-3.35-2.29.13-2.62,2.13-2.41,4.13Zm-26.05,71.77c-.4-2.09-2.05-3.09-3.87-3.11-2.01-.02-2.71,2.01-2.67,3.58.05,1.82,1.59,2.84,3.43,2.92,2.2.09,2.56-1.69,3.1-3.39Zm169.93,131.49c-2.34.8-2.48,3.02-2.64,4.83-.14,1.54,1.33,2.87,2.88,2.75,2.29-.18,2.84-2.22,2.36-4.01-.35-1.32-.16-3.53-2.59-3.58Zm-79.97,27.53c-1.66-.44-3.78-1-3.79,1.79-.01,2.46,2.12,2.4,3.97,2.49,2.28.11,3.58-1.24,3.54-3.15-.07-3-2.22-1.23-3.72-1.13Zm295.65,135.6c-.01-2.3-1.15-3.93-3.59-4.37-1.22-.22-2.84.44-2.09,1.73,1.14,1.97.91,5.19,3.8,5.68,1.55.26,1.8-1.54,1.88-3.04Zm-295.91-66.46c2.09-.08,2.24-1.36,2.21-2.76-.05-1.95-.98-3.11-3-3.09-1.7.02-3.01.83-2.74,2.66.29,1.98,1.75,3.03,3.53,3.19Zm95.32-298.58c-3.11-1.65-5.28-.8-7.46-.07-1.28.43-2.85.81-2.22,2.58.63,1.77,2.02,1.21,3.3.56,1.89-.95,3.82-1.85,6.37-3.08Zm-82.09,226.56c-.09-1.5,0-3.31-1.98-3.39-1.62-.06-2.68,1.3-2.83,2.86-.21,2.11,1.55,2.87,3.12,3.16,2.19.4,1.44-1.55,1.69-2.63Zm-40.46.03c-2.42-.05-4.67-2.88-6.94-.55-.93.95-.57,2.36.54,3.03,2.92,1.74,4.11-1.81,6.4-2.48Zm20.3,260.02c-.41-1.5-1.34-2.7-2.91-2.93-1.99-.29-2.47,1.45-2.65,2.85-.27,1.97,1.38,1.88,2.68,1.87,1.27,0,2.76.22,2.88-1.8Zm77.4-2.15c1.25-.29,3.27.66,3.42-1.66.1-1.61-1.19-2.25-2.67-2.27-1.88-.02-3.46.98-3.57,2.74-.1,1.57,1.7,1.03,2.82,1.2Zm63.65-292.53c-.47-1.31.91-3.73-1.69-3.76-1.79-.02-1.37,1.97-1.29,3.15.1,1.46-.91,3.85,1.38,4.05,2.16.19,1.29-2.11,1.6-3.45Zm-131.07,175.88c-.62-1.5-2.11-2.31-3.6-2.83-1.04-.37-1.98.62-1.98,1.67,0,2.66,2.51,2.08,3.99,2.71.82.34,1.52-.33,1.59-1.54Zm431.5-4.46c-.06-1.72-1.27-1.73-2.42-1.73-1.34,0-2.81.19-2.94,1.83-.13,1.7,1.28,2.06,2.66,2.05,1.45,0,2.45-.68,2.69-2.15Zm-56.07-83.57c-.11-1.39-1.08-1.92-2.29-2.01-1.36-.11-2.76.15-2.95,1.79-.17,1.44,1.02,1.93,2.22,2.04,1.37.12,2.6-.2,3.03-1.82Zm-63.7,39.21c-.46-1.32-.61-3.08-2.52-3.11-1.26-.02-1.35,1.22-1.36,2.23,0,1.36.13,2.82,1.76,3.09,1.46.25,1.92-.92,2.12-2.21Zm-314.83,114.38c-.4-1.09-1.04-2.16-2.17-2.37-1.93-.35-2.2,1.65-2.91,2.73-.77,1.17.28,1.73,1.39,1.7,1.49-.05,2.85-.47,3.69-2.06Zm423.86-223.65c1.29-.1,2.49-.46,2.53-1.84.05-1.7-1.32-2.05-2.71-2.04-1.22,0-2.41.43-2.45,1.81-.06,1.72,1.34,1.97,2.63,2.07Zm-39.72,23.84c.13,1.39,1.03,2.07,2.26,2.01,1.48-.07,2.38-1.01,2.27-2.55-.09-1.29-.94-2.13-2.21-2.11-1.63.02-1.91,1.44-2.32,2.65Zm-473.73,147.42c-.25-1.01.49-2.74-1.07-2.82-2.06-.1-1.92,1.82-1.91,3.24.01,1.2-.36,3.04,1.65,2.8,1.81-.22,1.11-2.03,1.32-3.23Zm146.94-137.95c-1.23.13-1.92.84-1.93,1.93-.02,1.97,1.64,2.25,3.06,2.56.93.2,1.64-.43,1.56-1.4-.15-1.64-1.22-2.6-2.69-3.09Zm-20.21,128.86c.05-1.76-.84-2.3-2.2-2.29-.95.01-2.34-.17-2.21,1.22.14,1.52,1.71,1.93,2.97,2.28,1.1.31,1.38-.56,1.44-1.22Zm-12.11,63.46c-.3-.73-.77-1.54-1.88-1.68-1.29-.17-2.32.34-2.5,1.68-.16,1.15.7,1.78,1.74,1.95,1.29.21,2.18-.38,2.64-1.95Zm-53.15-65.31c-.62-1.16-1.44-2.21-2.93-2.29-.98-.06-1.56.58-1.44,1.55.2,1.59,1.32,2.2,2.81,2.19.89,0,1.64-.25,1.56-1.44Zm233.5-225.2c-.75.11-1.91.03-2.04,1.33-.13,1.32.9,1.58,1.94,1.59,1.14.02,2.51.11,2.49-1.53-.01-1.3-1.19-1.33-2.39-1.39Zm108.19,126.19c.04-1.3-1.05-1.54-1.91-1.9-1.13-.47-2.04.09-2.3,1.14-.35,1.43.65,2.1,1.92,2.25,1.09.13,1.86-.46,2.29-1.49Zm142.06,27.07c-.15-1.25-.78-2.1-2.09-2.26-.97-.12-1.6.43-1.59,1.35.01,1.27.75,2.11,2.05,2.27.97.12,1.47-.42,1.63-1.35Zm-367.59-67.1c-.12-.95-.58-1.81-1.7-1.9-1.12-.09-1.84.63-1.77,1.75.07,1.11.92,1.65,1.97,1.71.94.05,1.45-.5,1.49-1.55Zm292.66-12.1c-.25-1-.74-1.87-1.89-1.8-1.1.07-1.78.86-1.55,1.96.22,1.04,1.1,1.59,2.16,1.51.93-.07,1.37-.71,1.28-1.68Zm-477.44,304.04c-.07-1.33-.73-2.15-2.03-2.35-.97-.15-1.61.36-1.62,1.32,0,1.19,1.01,1.57,1.9,1.95.93.4,1.54.09,1.75-.91Zm336.44-475.16c-.4-.61-1.21-.89-2.28-.69-.76.14-1.2.68-1.16,1.34.08,1.3,1.09,1.5,2.13,1.39.89-.1,1.51-.58,1.31-2.04Zm148.04,293.53c-1.97-.81-3.33-1.16-4.57.59,1.65.8,2.94,1.17,4.57-.59Zm-317.75,130.21c-2.24.64-3.33,1.45-3.38,3.55,2.13-.12,3-1.11,3.38-3.55Zm201.82-270.84c.08-.7,0-1.39-.84-1.48-.98-.11-1.5.62-1.73,1.42-.24.84-.12,1.78,1.03,1.72.87-.04,1.38-.78,1.55-1.66Zm108.21,26.47c.05.73.41,1.38,1.14,1.19.52-.14,1.14-.75,1.28-1.27.2-.72-.43-1.18-1.16-1.15-.72.03-1.14.52-1.26,1.23Zm67.04,141.62c-.78.12-1.06.67-1.07,1.36,0,.82.58,1.24,1.24.96.49-.2,1.02-.84,1.12-1.36.16-.86-.62-.94-1.29-.97Zm-200.58,69.82c-.48.41-1.09.79-1.04.93.2.54.5,1.18.96,1.45.59.35,1.36.14,1.18-.76-.1-.53-.65-.98-1.1-1.61Zm-230-181.87c-.27.42-.73.84-.65,1.08.11.32.61.7.97.72.68.04,1.22-.4.95-1.13-.11-.3-.73-.4-1.26-.67Zm281.3-261.63c-.49-.39-.79-.82-1.13-.85-.39-.03-1.07.2-1.16.47-.24.75.33,1.14,1,1.11.36-.02.71-.39,1.28-.73Zm-295.63,243.66c-.53-.38-.85-.79-1.19-.8-.38-.01-1.04.26-1.11.54-.22.79.41,1.1,1.07,1.04.36-.03.69-.42,1.24-.78Zm359.56-14.11c-.58-.33-.94-.7-1.31-.71-.68-.02-1.22.4-.94,1.14.1.27.78.49,1.16.45.33-.04.62-.47,1.09-.87Zm-460.3-129.9c.38-.53.79-.85.8-1.19.01-.38-.26-1.04-.54-1.11-.79-.22-1.1.41-1.04,1.07.03.36.42.69.78,1.24Zm313.01,83.05c-.34.38-.84.69-.83.99.01.29.5.76.84.81.63.09,1.32-.15,1.11-.99-.08-.31-.66-.49-1.12-.81Zm91.36-183.89c-.58-.33-.94-.7-1.31-.71-.68-.02-1.22.4-.94,1.14.1.27.78.49,1.16.45.33-.04.62-.47,1.09-.87Zm-100.08,158.66c-.28-.12-.61-.4-.81-.32-.2.08-.26.51-.38.79.28.12.61.4.81.32.2-.08.26-.51.38-.79Zm47.05,276.37c-.12.28-.24.55-.36.83.28.12.61.39.81.31.2-.08.26-.51.38-.78-.28-.12-.55-.24-.83-.36Zm13.88-439.19c-.28-.12-.61-.4-.81-.32-.2.08-.26.51-.38.79.28.12.61.4.81.32.2-.08.26-.51.38-.79Zm94.9,218.3c-.11-.28-.15-.71-.35-.8-.2-.09-.54.17-.82.28.11.28.15.71.35.8.19.09.54-.17.83-.28Zm39.06,1.11c-.12.28-.4.62-.32.81.08.2.51.26.79.38.12-.28.4-.61.32-.81-.08-.2-.51-.26-.79-.38Zm-139.94-201.87c-.11-.28-.15-.71-.35-.8-.2-.09-.54.17-.82.28.11.28.15.71.35.8.19.09.54-.17.83-.28Zm-365.48-.89c-.12.28-.4.61-.32.81.08.2.51.26.79.38.12-.28.4-.61.32-.81-.08-.2-.51-.26-.79-.38Zm193.68-16.09c-.11-.28-.15-.71-.35-.8-.2-.09-.54.17-.82.28.11.28.15.71.35.8.19.09.54-.17.83-.28Z"/>
  <path class="cls-3" d="m305.84,283.42c.08.32.05.83.25.95,5.43,3.2,2.92,7.7,2.04,11.97-.95,4.6-6.25,6.59-9.86,3.72-1.16-.92-.71-1.66-.08-2.48,1.47-1.93.97-3.78-.28-5.51-.88-1.21-2.02-.69-3.14-.21-2.19.95-2.29,2.32-2.2,4.71.16,4.3-4.49,3.06-6.91,4.34-1.85.98-3.32-.64-3.54-2.91-.11-1.13-.42-2.27-.84-3.33-.5-1.26-1.59-1.67-2.87-1.28-1.28.39-1.16,1.38-.91,2.42.77,3.2-.66,3.72-3.18,2.4-1.96-1.03-2.43-.3-3.64,1.41-2.02,2.87-4.91,5.15-7.58,7.52-1.04.93-2.46,1.8-1.53,3.16,1.04,1.53,2.39.56,3.24-.58,1.65-2.21,3.99-2.19,5.7-.89,2.39,1.82,2.17,4.96,1.27,7.39-.88,2.39-3.6,3.22-5.82,2.18-3.51-1.65-3.98-.24-3.84,2.79.13,2.66.04,5.33.03,7.99,0,2.16.57,4.52,2.95,4.32,2.01-.17,2.05-2.66,2.03-4.5,0-.99.15-2.1-.23-2.96-1.01-2.3-.66-3.89,1.88-4.6,2.51-.7,4.69-.37,5.67,2.45,1.13,3.27,1.18,6.52-.55,9.62-.72,1.29-2.36,2.55-1.67,3.98,3.93,8.23-.85,16.53.23,24.97.57,4.45.61,9.88,1.33,14.27.82,5.07,1.16,9.41-.64,14.06-.11.29-.12.7,0,.99,1.66,4.32,4.06,8.45-1.77,12.05-1.37.85-.23,4.63,1.53,6.3,4.2,3.96,4.72,8.06,2.44,13.41-1.78,4.17-2.36,8.82-4.58,12.95-1.51,2.81,4.26,10.25,7.51,9.91,1.29-.14,2.85-.99,3.47.66.71,1.9-.87,2.57-2.39,3.04-2.61.8-2.49,3.04-2.18,4.94.9,5.64-1.2,10.99-1.37,16.56-.2,6.48-4.42,8.25-10.26,5.4-.54-.26-1.46-.59-1.75-.35-1.01.84-.63,2.13-.6,3.26.03,1.12.57,2.01,1.78,1.93,1.14-.07,2.29-.78,3.37-.65,2.5.3,4.97.99,2.71,4.33-.85,1.25-.48,2.39-.42,3.73.2,4.68-.56,9.07,5.46,11.68,3.46,1.5,2.04,9.19-1.65,11.98-.93.7-2.64,1.91-1.83,2.32,6.64,3.35-.56,7.61.83,11.51.84,2.37,2.36,5.5.72,8.47-.3.54.06,1.56-.31,1.92-4.59,4.49-5.2,8.88-.08,13.47.75.67-.03,1.83-.54,2.73-.48.84-1.2,1.91-1.02,2.7,2.01,8.78-1.76,17.81,1.27,26.54,1.02,2.94,1.56,5.88-2.03,7.74-.96.5-1.56,2.01-.58,2.44,3.95,1.73,2.28,4.87,2.25,7.61-.04,3.25,3.12,5.03,3.27,8.6.28,6.4.58,12.28-1.24,18.85-2.38,8.6-3.8,18.12.46,27.07,1.16,2.43.68,4.47-3.51,6.15,4.65-.12,5.35,1.85,5.02,4.57-.52,4.19-1.34,9.01-.9,12.49.53,4.19.81,9.39,3.39,13.39,1.95,3.03,2.5,5.43-1.31,7.26-1.28.62-.99,1.98-1.39,3.03-.56,1.45-1.51,2.2-3.07,1.14-1.78-1.2-4.16-2.32-4.48.74-.28,2.67-2.19,6.69,2.47,7.96,2.04.56,4.73.12,5.13,2.89.39,2.67-.18,6.32-2.54,7.08-7.54,2.43-5.06,8.19-4.7,12.92.22,2.96-.37,4.08-3.13,4.19-1.91.07-3.28.78-3.4,2.84-.14,2.58-.19,5.17-.09,7.74,0,.14,1.83.35,2.78.25,1.05-.1,1.88-.76,1.9-1.94.01-.81-.42-1.67-.24-2.41.27-1.11.81-2.23,2.21-2.39,1.04-.12,2.02.1,2.69.96.84,1.07.81,2.33-.18,3.15-3.77,3.1-1.27,7.62-2.66,11.27-.59,1.55,1.42,2.13,2.42,2.73,2.23,1.33,4.17,3.14,2.76,5.51-1.03,1.73-4.13,1.43-5.64.4-1.74-1.19-4.84-2.41-3.18-5.79.22-.45.4-.92.64-1.35,1.04-1.95-.22-3.55-.88-5.18-.33-.83-1.38-.83-2.18-.35-1.77,1.07-1.37,2.87-1.41,4.49-.23,8.71.15,9.46,8.39,11.86,2.47.72,2.9,1.76,1.37,3.25-4.09,3.97-1.62,7.77.24,11.31,1.67,3.18,1.3,10-1.39,12.18-1.88,1.52-3.58,1.33-5.17-.55-.5-.59-1.39-1.21-2.07-.21-.54.8-.15,1.57.65,2.09.28.18.56.42.87.49,11.2,2.57,6.77,12.43,8.87,19.21.17.54-.57,1.52-1.1,2.1-2.2,2.39-1.76,4.02,1.48,4.14,2.55.1,3.47,1.83,4.38,3.5,2.2,4.02,3.94,4.43,6.99,1.32,3.14-3.2,5.2-2.97,7.25,1.08,1.64,3.23,3.96,4.03,7.58,4.08,6.56.09,13.26-.89,19.68,1.01,4.93,1.46,9.75.47,14.59.05,8.37-.72,16.48,1.91,24.71,1.93,68.91.18,137.82.37,206.73-.24,8.71-.08,17.64-1.43,26.5-1.84,4.92-.23,9.57.28,14.42,1.51,6.75,1.71,14.12,1.73,20.76.15,7.68-1.83,15.09-2.1,22.55-.45,9.98,2.2,19.85.45,29.7-.27,8.24-.6,16.43-1.98,24.72-1.72,2.78.09,4.74-.35,5.6-3.44.54-1.94,1.92-3.73,4.31-3.44,2.83.35,1.58,2.8,1.87,4.4.19,1.02.34,2.38,1.49,2.21,4.31-.65,8.08,1.66,12.51,1.62,9.73-.09,19.42-2.14,29.22-.55,3.83.62,7.9.57,11.86-.62,3.13-.93,6.42-.5,9.72-.37,9.46.39,18.97-.19,28.42.25,7,.33,14.03.71,21.03,1.27,6.8.55,14.02-.08,20.55-1.95,3.55-1.02,7.98-4.79,8.83-8.7,1.5-6.9,6.03-5.69,10.52-5.69-4.14,11.33-15.9,19.82-27.67,19.83-184.57.08-369.13.1-553.7.32-8.89.01-16.63-3.46-22.38-8.68-5.07-4.6-9.07-11.82-9.1-19.6-.11-34.26-.02-68.53.02-102.79,0-.99.18-1.98.27-2.97,2.63-.23,3.63,1.47,3.8,3.61.19,2.47.19,5-.13,7.44-.23,1.77-1.39,3.47.2,5.11.63.65,1.56.96,2.23.33,1.53-1.46.66-3.44.8-5.19.87-10.47-2.14-20.97.25-31.41.36-1.59.87-3.17-1.15-3.58-2.29-.46-3.03,1.73-2.88,3.17.41,3.8-1.93,7.38-.5,11.24.74,2.01-.64,3.05-2.61,3.29-.09-1.32-.26-2.64-.26-3.97-.08-125.84-.15-251.69-.19-377.54,0-16.6,7.3-26.9,22.87-33.17,5.47-2.21,11.01-1.83,16.63-1.6-.3,2.2.93,2.75,2.83,2.75,1.91,0,3.13-.55,2.82-2.76.97,0,1.95,0,2.92,0Z"/>
  <path class="cls-1" d="m595.51,259.21l.07,15.98c-2.39.26-3.17,1.95-2.76,3.9,1.37,6.42-.08,12.78-.06,19.17,0,2.03.46,3.64,2.84,3.9,0,1.33,0,2.66,0,3.99-1.79-.03-3.69.33-3.67,2.42.09,7.71-2.77,12.85-9.24,17.98-7.29,5.77-21.6,7.83-27.74-1.46-3.44-5.2-6.73-10.95-12.78-13.94-.48-5.32-.45-10.65-.1-15.98,3.56-.92,3.79-3.8,3.73-6.68-.06-2.84.23-5.6,1.01-8.33.3-1.06.64-2.03,1.9-1.69,1.07.29.76,1.24.49,2.05-.27.79-.46,1.59.87,2.26,1.06-1.46,2.37-3.4,2.78-4.71.95-3.04,4.22-6.83.37-9.73-3.43-2.58-7.15-4.21-5.87-9.73.42-1.81-1.4-4.08,1.11-5.66,2.31-1.46,3.63.19,5.19,1.43,1.58,1.25,3.5,1.14,5.21.45,1.27-.51,1.2-2.06.85-3.09-1.34-3.82.57-7.4.63-10.88.13-6.91,1.42-12.67,6.49-17.41h3.99c.07,1.48.88,2.75,2.1,3.17,5.06,1.73,9.01,5.35,12.85,8.6,3.94,3.33,6.03,8.47,6.64,14.03.38,3.42.81,7.05,3.13,9.97Zm-44.49,51.97c-.67-.58,1.81-2.51-.73-2.73-1.66-.14-1.43,1.48-1.45,2.58-.02,1.11-.29,2.67,1.2,2.84,2.01.23,1.34-1.25.97-2.69Z"/>
  <path class="cls-3" d="m873.03,318.15c-2.81-.72-3.18-3.03-3.58-5.37-.89-5.27-1.99-10.41-7.17-13.46-.91-.54-1.69-1.7-2.03-2.74-1.05-3.21-2.28-4.57-6.4-4.08-2.82.33-5.91-3.07-9.61-2.35-1.27.25-2.82-.29-3.78.83-2,2.33-3.5,3.44-4.2-.84-.2-1.25-1.24-1.95-2.65-1.48-4,1.33-8.06,1.14-12.16.53-3.11-.46-4.3,1.17-5.03,4.07-1.27,5.05-2.99,9.45,3.34,13.04,4.32,2.46,2.07,10.38-3,11.81-3.21.9-2.83,3.2-1.07,4.18,2.55,1.42,2.99,3.13,2.86,5.58-.08,1.44.55,2.21,2.15,1.67,1.13-.38,2.03.07,2.38,1.15.39,1.19-.49,1.84-1.44,2.25-3.32,1.4-6.04,3.22-8.61,6.07-1.92,2.14-6.5,1.04-9.76,2.81-2.24,1.21-5.81,3.88-7.79-1.34-.42-1.11-3.17-1.5-5.08-1.37-4.29.29-8.64-.59-12.9.53-1.87.49-3.13-.67-4.49-1.6-.94-.65-1.89-1.7-2.89-1.76-7.63-.49-8.73-6.61-10.64-12.05-.37-1.05-1.19-2.28-.08-3.24,4.15-3.62,3.14-8.46,3.16-13.04.02-4.31-.25-8.66,1.2-12.81,1.12-3.2-1.75-5.44-1.75-8.33-2.9.22-5.85.17-8.67.75-1.92.39-2.33,2.32-2.83,4.24-1.91,7.36-.53,14.45,1.34,21.5.43,1.61.25,2.86-.43,4.25-1.64,3.35-3.67,6.31-.33,10.3,2.19,2.62-1.69,11.02-4.98,12.3-1.18.46-1.9,1.04-2.42,2.22-2.08,4.75-6.92,5.23-10.17,1.07-3.43-4.4-8.18-4.8-11.65-.53-1.82,2.23-2.97,2.33-4.57.23-2.07-2.73-5.12-3.54-8.21-3.98-7.22-1.03-8.9-2.67-9.51-9.87-.04-.48-.06-1.17-.37-1.38-8.54-6-2.64-14.28-2.85-21.33-.16-5.43-.5-11.22,1.18-16.76.93-3.07-4-3.37-3.88-6.41,6.96-.48,6.92-.48,6.93,6.48.02,8.64-.13,17.3.21,25.93.47,11.95,13.15,21.63,24.96,19.39,14.17-2.69,19.84-9.44,19.82-23.62-.02-8.15.04-16.3-.18-24.44-.08-2.92.54-4.22,3.78-4.03,4.47.26,8.98.24,13.46-.02,3.05-.18,3.55,1.15,3.54,3.79-.04,9.64-.18,19.29.25,28.92.45,10.12,13.39,21.46,23.47,20.24,11.26-1.37,19.78-8.01,20.79-21.36.69-9.09.18-18.28-.06-27.42-.09-3.23.79-4.37,4.14-4.19,10.9.58,21.81-.58,32.73.99,13.26,1.9,24.92,14,24.87,28.32,0,2,1.51,3.75.67,5.78Z"/>
  <path class="cls-3" d="m618.74,283.42c-1.47,3.56-.11,6.22,2.68,8.42,3.12,2.46,6.28,1.57,7.24-2.35.48-1.98,1.45-2.39,3.12-2.27,1.74.13,1.69,1.14,1.26,2.46-.33,1.01-.29,2.22,1.16,2.08,6.19-.57,11.75,3.3,17.96,2.45,1-.14,2.1.08,2.31,1.33.19,1.12-.54,1.85-1.43,2.41-2.1,1.31-4.42,1.73-6.69.86-7.79-3.02-14.96-1.02-22.64,1.24-5.4,1.59-9.45.75-1.61,5.41,1.19.71-.43,1.99-.94,2.96-1.17,2.22-2.1,4.2-.43,6.91,1.53,2.49-4.14,8.27-8.15,8.65q-5.27.5-4.34,6.49c1.88.4,1.29-1.52,2.02-2.17,1.05-.94,1.8-3.1,3.36-2.3,2.02,1.04-.28,2.06-.64,3.12-.53,1.58-.09,3.11,1.06,4.11,1.51,1.31,1.74-.8,2.58-1.32,1.73-1.08,2.54-.76,3.13,1.32,1.98,7.05,1.1,8.14-6.16,7.03-4.05-.62-5.2.89-4.1,4.98.84,3.1.19,5.21-3.79,4.92-2.67-.2-4.56.19-6.83,2.96-1.93,2.35-4.74,6.13-7.82,6.55-3.08.43-6.95-1.14-10.19-1.57-8.6-1.15-16.84-6.75-26.06-2.66-2.45,1.09-4.62-.46-4.91-3.31-.2-1.97-.59-4.23-2.46-4.47-7.62-.98-9.63-8.09-13.65-12.65-3.24-3.66-4.11-9.31-7.49-13.33-.53-.63-.55-1.96-.36-2.88,1.9-9.06.22-18.24.99-27.32.29-3.46-3.66-4.82-3.1-8.1q7.06-.45,7.06,6.32c-.02,8.13-.64,16.32.07,24.38.82,9.27,5.35,17.17,12.15,23.55,6.7,6.28,14.91,10.33,23.92,10.19,8.93-.14,17.76-2.72,25.13-8.48,7.46-5.84,12.21-13.2,13.73-22.78,1.52-9.6.61-19.19.62-28.77,0-3.87,1.18-4.99,4.77-4.6,2.46.27,4.97.16,7.45.21Z"/>
  <path class="cls-3" d="m454.92,283.42c.3,2.11-1.26,3.25-2.31,4.73-3.59,5.04-3.71,8.47.36,12.81,1.96,2.09,2.18,3.85,1.45,6.22-1.01,3.26-.29,6.61-.5,9.91-.07,1.16.38,2.85-.23,3.39-2.16,1.91-5.47,2.37-3.17,7.05,1.15,2.35-3.19,5.14-4.47,8.28-1.37,3.35-6.12,3.63-9.86,3.49-3.15-.11-6.25-.73-8.99,1.6-.82.7-2.05,1.44-3.22.66-4.89-3.28-10.53-1.61-15.79-2.32-2.57-.35-4.49-.7-5.35-3.34-.1-.3-.29-.67-.54-.82-8.98-5.35-6.02-13.71-5.41-21.46.58-7.43-.82-14.93.96-22.32.34-1.42-.51-2.59-2.04-2.96-1.7-.41-3.42-.24-4.72.94-1.69,1.54.57,2.19,1.03,3.2,1.13,2.49,1.65,5.06-.88,6.72-5.41,3.55-3.46,9.37-5.61,14.04,2.82.82,4.29-4.71,6.6-.44,1.75,3.23.19,10.58-3.16,11.87-4.63,1.78-3.53,2.98-.32,4.86.9.53,2.52.85,1.55,2.46-.69,1.15-1.9,1.37-3.04.64-4.83-3.08-4.68-.61-3.54,3.1.47,1.52-.27,2.57-1.57,3.27-2.4,1.29-5.55,1.15-7.26,3.83-.16.25-1.23.31-1.39.1-4.57-6.31-11.08-.24-16.52-2.64-4.02-1.77-8.82-2.56-13.5-1.29-1.78.48-2.77-1.09-3.73-2.08-5.75-5.89-8.1-13.12-6.98-21.16,1.06-7.59,1.54-15.16,1.23-22.78-.27-6.72-3.37-8.32-8.73-4.38-2.66,1.96-5.5,2.2-7.94,1.12-2.55-1.12-.93-4.13-1.08-6.32,5.65-.08,11.31,0,16.95-.29,3.03-.15,4,.71,3.94,3.86-.17,9.15.05,18.3.08,27.45.02,9.61,9.2,20.27,19.06,21.65,10.33,1.44,21.15-5.6,23.89-15.07,2.8-9.69,1.1-19.41,1.5-29.11.36-8.6.08-8.61,8.68-8.63q10.65-.01,10.7,10.52c.03,6.49.13,12.98.06,19.47-.13,12.26,9.98,21.28,18.83,22.76,8.6,1.44,20.45-2.95,24.6-14.87,1.31-3.78,1.92-7.83,1.8-11.96-.18-6.82.25-13.67-.26-20.45-.37-4.9,1.57-6.13,5.85-5.51.98.14,1.98.14,2.98.21Z"/>
  <path class="cls-3" d="m734.86,292.61c0,6.81.05,13.61-.01,20.42-.07,7.11-4.8,12.05-11.49,12.2-7.15.16-12.52-5.37-12.46-11.85.12-14.02-.24-28.05.2-42.07.25-8.09,4.62-11.39,13.57-11.12,5.48.16,9.88,5.08,10,11.51.13,6.97.03,13.94.03,20.92h.17Z"/>
  <path class="cls-3" d="m776.74,291.94c0-6.81-.12-13.63.03-20.44.18-8.09,3.82-11.27,12.56-11.32,5.91-.03,10.76,4.74,10.84,11.27.19,13.96.22,27.93.08,41.89-.06,6.31-5.73,11.75-11.7,11.75-5.83,0-11.21-4.65-11.35-11.21-.15-7.31-.04-14.62-.04-21.93-.15,0-.29,0-.44,0Z"/>
  <path class="cls-3" d="m435.84,294.88c-.57,5.56,1.03,13.35-.82,21.06-1.23,5.15-4.78,7.83-9.36,9.05-4.84,1.29-8.59-1.34-11.81-4.74-1.59-1.68-1.81-3.73-1.82-5.9-.07-13.46-.19-26.91-.25-40.37-.04-8.56,3.94-13.6,10.76-13.75,8.44-.18,13.05,4.42,13.27,13.53.15,6.31.03,12.62.03,21.11Z"/>
  <path class="cls-3" d="m347.6,292.62c0-6.81-.1-13.62.03-20.42.13-6.98,4.48-12.17,10.66-11.99,7.76.22,12.16,3.54,12.48,11.07.61,14.09.52,28.22.12,42.32-.2,7.09-5.51,12.26-12.34,11.63-6.49-.59-10.37-4.61-10.71-12.19-.15-3.48-.13-6.97-.16-10.46-.02-3.32,0-6.64,0-9.96-.03,0-.06,0-.09,0Z"/>
  <path class="cls-3" d="m566.79,223.45c-5.07,4.74-6.36,10.51-6.49,17.41-.07,3.49-1.97,7.06-.63,10.88.36,1.03.43,2.58-.85,3.09-1.71.68-3.63.8-5.21-.45-1.56-1.23-2.87-2.89-5.19-1.43-2.51,1.58-.69,3.85-1.11,5.66-1.28,5.52,2.44,7.16,5.87,9.73,3.86,2.9.59,6.69-.37,9.73-.41,1.31-1.72,3.25-2.78,4.71-1.33-.67-1.14-1.48-.87-2.26.28-.81.58-1.75-.49-2.05-1.25-.34-1.59.63-1.9,1.69-.78,2.73-1.07,5.49-1.01,8.33.06,2.88-.16,5.75-3.73,6.68-.05-16.79-.42-33.6-.02-50.38.22-9.14,12.85-22.91,24.76-21.34Zm-18.3,23.75c-.1-.92-.63-1.5-1.53-1.54-.83-.04-1.02.69-1.06,1.33-.05.81.01,1.77,1.09,1.77.87,0,1.42-.63,1.49-1.57Z"/>
  <path class="cls-3" d="m542.15,311.14c6.05,2.99,9.34,8.74,12.78,13.94,6.14,9.29,20.45,7.24,27.74,1.46,6.48-5.13,9.33-10.27,9.24-17.98-.02-2.09,1.88-2.45,3.67-2.42,1.48,16.95-8.5,28.01-25.16,30.76-13.07,2.16-29.33-11.96-28.27-25.77Z"/>
  <path class="cls-1" d="m258.22,699.7c1.97-.23,3.36-1.28,2.61-3.29-1.43-3.87.91-7.45.5-11.24-.15-1.44.59-3.63,2.88-3.17,2.03.41,1.51,1.99,1.15,3.58-2.39,10.44.62,20.94-.25,31.41-.15,1.75.73,3.73-.8,5.19-.66.63-1.6.32-2.23-.33-1.59-1.64-.43-3.35-.2-5.11.32-2.45.33-4.98.13-7.44-.17-2.14-1.17-3.84-3.8-3.61-.42-2-.42-3.99,0-5.99Z"/>
  <path class="cls-3" d="m595.51,259.21c-2.32-2.92-2.75-6.55-3.13-9.97-.61-5.56-2.7-10.7-6.64-14.03-3.84-3.25-7.79-6.87-12.85-8.6-1.23-.42-2.04-1.69-2.1-3.17,12.91-.06,22.65,11.76,24.02,22.58.55,4.36,1.5,8.74.7,13.19Z"/>
  <path class="cls-3" d="m595.6,302.16c-2.38-.26-2.84-1.87-2.84-3.9-.01-6.39,1.43-12.75.06-19.17-.42-1.95.37-3.64,2.76-3.9,0,8.99.01,17.98.02,26.97Z"/>
  <path class="cls-1" d="m302.92,283.42c.31,2.2-.91,2.76-2.82,2.76-1.9,0-3.14-.54-2.83-2.75,1.88,0,3.77,0,5.65,0Z"/>
  <path class="cls-3" d="m681.66,283.43c-1,2.39-2,2.39-3,0,1,0,2,0,3,0Z"/>
  <path class="cls-3" d="m873.04,376.08c-.6-.11-1.25-.26-1.25-1,0-.74.65-.89,1.25-1,0,.67,0,1.34,0,2Z"/>
  <path class="cls-3" d="m663.68,283.41c-.17.39-.33.77-.5,1.16-.17-.39-.33-.77-.5-1.16.33,0,.67,0,1,0Z"/>
  <path class="cls-3" d="m644.71,705.07c-.65,3.55-4.28,4.35-6.29,6.66-1.48,1.7-2.81-.36-3.27-1.54-1.55-4.04-3.38-6.23-7.33-2.27-.73.73-1.89,1.07-2.6.05-.95-1.36.22-2.01,1.23-2.65,2.41-1.52,5.86-1.9,6.26-5.64,1.64-.2,2.96-.75,2.77-2.73-.03-.32-.69-.88-.95-.83-2,.42-1.73,2.09-1.83,3.56-2.32.38-4.13-.71-5.97-1.94-1.41-.95-3.13-1.71-4.42.1-1.03,1.44-2.47,3.21-.8,4.93,4.31,4.45-.42,4-2.57,4.8-.89.33-1.98.11-2.98.13-1.41.03-2.22.72-2.14,2.14.09,1.46.66,2.38,2.43,2.48,5.64.33,6.96,3.14,5,8.19-.95,2.45-2.3,5.61-.02,8.42.56.69.57,1.69-.26,2.17-.34.19-1.53-.26-1.63-.62-1.23-4.31-3.02-1.74-5.02.32-.77-3.24-1.06-5.61.61-8.05.81-1.2,1.29-2.71,1.59-4.15.38-1.8.64-4.09-1.66-4.59-2.07-.45-4.98.13-5.56,2.2-.79,2.85-2.58,5.9-.74,9.1.84,1.47,1.36,2.94.56,4.72-1.32,2.95.08,4.63,4.12,5.29-3.92,2.01-7.8,3.14-3.29,7.55,2.18,2.13.97,5.45-2.29,6.14-4.39.93-6.37,5.93-11.14,6.07-.51.01-1.6,1.82-1.38,2.36,1.78,4.27-1.55,4.99-4.1,6.35-1.31.7-3.02,1.25-3.74,2.38-2.49,3.93-5.05,6.94-10.39,4.86-1.3-.51-2.26,1.1-2.88,2.3-2.45,4.75-11.22,6.29-14.96,2.45-1.73-1.77-2.92-4.06-5.78-4.34-.49-.05-1.23-.77-1.3-1.26-1.14-8.57-9.25-13.06-12.01-20.76-1.98-5.52-4.45-11.15-8.59-15.33-5.79-5.84-5.93-14.73-12.39-20.43-2.84-2.5-3.68-7.31-8.45-8.63-1.12-.31-1.62-2.73-2.48-4.13-.74-1.21.86-4.05-1.96-3.64-2.59.38-5.58.03-7.2,3.39-2.77,5.74-12.42,9.31-18.2,6.89-2.78-1.17-5.56-.8-8.35-.83-7.45-.09-9.58-1.84-8.25-9.26.83-4.58-.49-7.26-3.74-9.7-1.67-1.26-3.6-2.67-1.89-4.8,2.46-3.07.04-9.38,7.35-9.42,7.57-.05,15.13,1.87,22.71.22,1.37-.3,2.65-.45,3.08-2.01.36-1.34-.37-2.7-1.36-2.93-5.38-1.25-4.45-6-5.2-9.52-.72-3.39-1.5-6.4-4.51-8.46-.98-.67-1.56-1.68-1.69-2.93-.41-3.85-1.92-6.1-6.39-6.63-3.5-.41-5.3-3.76-5.56-7.35-.19-2.65-.11-5.33-.03-7.99.09-3.13-1.54-5.4-4.29-5.92-4.14-.8-4.44-3.23-3.16-6.16,4.04-9.26,3.26-18.72,2.74-28.5-.52-9.71,1.89-19.37,6.13-28.35,2.68-5.68,2.56-6.12-3.23-8.25-2.03-.75-1.68-2.57-2.43-3.93-1.91-3.45,1.17-6.03,1.17-9.04.01-4.93,3.85-3.45,6.43-4.19,7.59-2.18,12.73-7.09,15.58-14.36.46-1.17.6-2.16,2.06-2.33,2.83-.33,4.61-1.91,4.94-4.76.29-2.48,2.04-2.16,3.68-2.27,2.78-.18,4.4-1.7,4.3-4.46-.16-4.02,2.22-5.2,5.56-5.49,3.93-.34,7.66-.86,8.95-5.55.16-.59,1.34-1.38,1.91-1.29,4.76.78,8.8-2.26,12.54-3.76,4.19-1.68,8.09-3.45,12.65-3.85,1.14-.1,2.75-.85,1.59-2.76-.57-.93-1.77-2.09.26-2.63,1.23-.33,2.69-.5,3.42,1.14,1.72,3.9,4.58,3.67,8.26,2.95,8.41-1.64,16.8-1.18,25.37.12,5.17.79,10.45,2.5,16.24,1.01,3.51-.9,8.49-.24,10.68,5.04,1.12,2.7,3.77,4.93,7.07,1.59,1.45-1.46,3.46-1.49,5.1-.49,2.14,1.31.44,2.93-.12,4.35-.7,1.77-.52,2.96,1.67,3.07,4.45.22,7.71,1.7,9.64,6.3,1.25,2.98,3.87,2.28,4.98-.6.94-2.43,2.57-3.16,4.64-2.47,2.51.84,2.61,3.05,2.17,5.37-1.45,7.68,1.06,10.4,8.38,8.98,1.96-.38,1.61.85,1.96,1.93,1.18,3.65,2.21,7.02,7.68,5.74,3.04-.71,6.81.28,7.26,4.73.21,2.03,1.46,3.15,3.07,3.47,4.07.82,5.38,4.53,7.83,7.02,1.18,1.2,1.45,2.27-.36,3.6-2.68,1.96-2.26,4.3.61,5.74,2.44,1.22,2.05,2.17.25,3.51-1.72,1.28-1.32,2.59-.35,4.29,3.58,6.33,3.15,8.3-2.33,12.92-4.74,3.99-5.1,10.3-.63,14.38,1.38,1.26,1.3,1.8.58,3.57-2.32,5.75-2.61,11.28,5.63,15.36,1.03.51,2.11,1.63,1.41,2.07-4.27,2.68-.98,7.28-2.94,10.81-1.27,2.29.16,6.38,1.04,9.48.66,2.36,1.47,3.83-1.71,4.9-2.55.86-4.2,2.53-3.36,6.09.89,3.76-2.58,7.89-6.37,8.76-3.54.82-6.04,3.37-8.95,5.25-1.53.99-2.88,2.55-4.54,3.01-4.16,1.17-5.68,2.98-2.8,6.87.56.75,1.13,1.88-.17,2.53-1.17.59-3.78.3-2.31,2.51,1.2,1.8,3.26,3.51,5.98,2.3,1.25-.55,2.53-2.44,3.75-.4,1.18,1.96-1.71,1.51-2.02,2.65-.34,1.24-1.42,2.41-.76,3.77.69,1.45,2.16,1.46,3.49,1.33,1.3-.13,2.59-.47,3.87-.78,7.23-1.76,14.86,1.31,15.19,8.37.26,5.63,2.3,10.59,2.69,15.86.59,7.99-2.73,9.84-10.48,11.88-6.09,1.6-11.24-2.11-16.96-.85-1.18.26-2.36-1.1-2.42-2.68,1.01-4.65-2.38-3.59-4.87-3.8-1.26-.11-3.02.66-3.67-.57-.91-1.71,1.2-2.44,2.02-3.53,1.49-1.98,3.34-3.7,4.74-5.74,2.38-3.48,3.1-7.1-.65-10.19-3.63-2.98-8.27-2.65-11.51.82-1.12,1.2-3.29,2.71-1.3,4.51,1.82,1.65,3.57.84,4.75-1.42,1.38-2.65,3.52-2.61,5.05-.37,1.34,1.96.54,4.13-1.07,5.87-2.81,3.05-5.62,6.11-8.43,9.15-1.1,1.18-2.76,2.21-1.83,4.15.89,1.84,2.76,1.49,4.4,1.53.82.02,1.65.13,2.47.19Zm-172.01-82.03c.85,1.58,1.63,3.21,2.57,4.73,1.62,2.63,1.87,4.33-2.13,3.8-.89-.12-2.1-.4-2.25,1.13-.13,1.39,0,2.84,1.43,3.42,1.18.48,2.61.78,3.85.63,2.49-.31,3.85.47,5.02,2.8,9.33,18.61,20.94,35.89,31.71,53.66,14.75,24.32,29.98,48.34,45.72,72.03,4.94,7.43,9.63,7.21,14.73-.14.38-.55.74-1.11,1.09-1.67,25.62-40.87,50.99-81.89,75.07-123.69,1.23-2.13,4.22-3.31,4.02-5.94-.41-5.54,3.56-9.65,4.3-14.82.38-2.67,3.12-3.16,5.46-3.09,3.11.08,1.83,2.65,1.9,4.17.21,4.32.14,8.65.2,12.98.02,1.34-.02,2.72,1.94,2.8,2.24.09,2.29-1.37,2.28-2.96-.05-5.66-.07-11.32-.14-16.98-.09-6.73-.37-6.92-6.67-4.67-1.66.59-3.79,1.33-2.99-1.61.99-3.65,1.19-7.39,2-11.01,3.01-13.52.23-26.52-2.87-39.54-.24-1.01-2.63-2.2-.35-3,2.43-.85,1.96,1.44,1.95,2.81-.01,1.43.53,2.16,1.99,2.23,1.8.09,1.83-1.1,2.34-2.46,1.4-3.76,4.43-7.6-2.11-9.56-.17-.05.06-1.01-.14-1.42-1.56-3.15-.82-6.49-.99-9.76-.07-1.32,2.24-3.31-.73-3.99-2.09-.47-3.85.07-5.1,2.12-1.17,1.92-1.45,4.42-3.69,5.84-.74-1.21-1.46-2.32-2.13-3.47-21.73-37.68-54.78-54.19-97.53-50.12-19.83,1.89-37.36,10.97-52.25,24.58-6.68,6.11-12.11,13.24-17.5,20.44-1.18,1.58-2.07,4.11-4.91,3.01-3.56-1.38-5.93.38-8.3,2.71-1.3,1.28-2.56,2.42-.97,4.07,1.62,1.68,2.8.91,3.76-1.02.85-1.71,2.8-1.58,3.92-.85,1.66,1.07.45,2.63-.29,3.87-.57.97-1.69,1.78-1.88,2.79-1.15,6.14-3.4,11.98-4.63,18.13-2.15,10.68-1.59,21.27-.89,32,.37,5.66,5.11,12.89-3.8,16.71-1.38.59-1.02,1.96-.27,2.97.79,1.06,1.68,1.4,2.9.32.78-.69,1.92-.97,3.42-1.69v9.13c1.7-.34.82-1.8,1.92-2.43Zm182.91,70.12c-.71,1.41.37,3.52,1.17,5.35,1.66,3.78,4.4,6.64,9.08,6.41,4-.2,6.59-2.54,7.71-6.08,1.45-4.56.9-9.37-.13-13.91-1.43-6.27-8.88-8.62-13.29-4.3-3.18,3.11-4.43,7.24-4.54,12.54Zm-161.61,3.28c.03-5.04-2.71-6.89-7.82-5.37-1.38.41-2.47.95-3.54-.17-1.19-1.24-.88-2.77-.34-4.18,1.37-3.54,3.95-3.95,7.26-1.11.75.65,1.35,1.67,2.47,1.19,1.42-.61.93-2.04.81-3.07-.38-3.31-3.94-4.8-9.34-4.04-4.02.56-7.48,6.17-6.63,10.71.74,3.92,5.08,6.66,9.18,5.66.99-.24,2.06-.77,2.62.24.59,1.05.2,2.25-.67,3.19-1.82,1.95-3.86,1.36-5.96.6-1.07-.39-2.35-.91-3.06.47-.64,1.26.39,2.12,1.11,3.03,2.69,3.45,6.09,1.35,8.83.62,3.77-1,4.62-4.72,5.07-7.77Zm-25.14-11.61c0,5.92-.02,11.54.01,17.17,0,1.4-.46,3.06,2.08,2.89,1.98-.13,2.61-1.07,2.6-2.81-.03-6.97-.06-13.94-.12-20.9-.02-2.23-1.43-3.01-3.32-2.41-2.34.74-4.56,1.86-6.43,3.53-.66.59-1.03,1.35-.72,2.2.38,1.05,1.25,1.58,2.35,1.37,1.1-.21,2.16-.63,3.55-1.04Z"/>
  <path class="cls-3" d="m445.93,758.81c0,1.39,0,2.06,0,2.72-.11,6.09-1.97,7.31-7.21,4.17-2.8-1.68-5.3-2.68-8.34-1.05-.44.23-1.19.31-1.31.63-3.43,9.3-11.73,3.54-17.49,5.59-.91.32-2.71-.65-3.13.54-1.71,4.91-5.78,3.25-8.88,3.03-3.12-.22-3.93-4.1-6.38-5.82-1.26-.88-2.54-2.03-3.81-3.06-1.42-1.16-2.94-.64-3.04.88-.22,3.52-2.95,4.57-5.21,6.09-1.58,1.06-2.73,2.16-3.19,4.17-.87,3.82-2.63,3.65-5.04.92-5.18-5.87-5.24-5.83-13.01-2.92-1.11.42-1.97.85-3.19-.03-4.22-3.05-8.88-3.91-13.8-1.92-1.37.55-2.48.63-3.76-.05-.99-.52-1.91-1.07-3.22-.31-4.35,2.51-4.79,2.17-4.88-2.78-.04-2.07.58-3.87,1.34-5.75,1.54-3.83,2.75-7.65,1.63-11.99-2.52-9.8,1.69-15.87,11.53-14.74,6.78.77,13.18-.82,19.76-.49,2,.1,3.97.12,5.86.92,2.78,1.19,5.68,3.08,7.26-1.64.35-1.05,1.8-1.48,3.04-.88,1.2.57,1.53,1.66,1.49,2.91-.05,1.47-1.09,2.69-.65,4.35.67,2.52-1.07,7.1,4.76,3.75,2.05-1.18,3.66,1.38,2.17,3.66-1.63,2.51-1.49,4.64,1.15,5.66,2.49.97,2.7-1.65,3.87-3.21,2.55-3.39,5.57-6.3,5.2-11.02-.02-.29.96-.89,1.5-.92.82-.05.97.8.98,1.44.07,4.45,3.23,4.95,6.55,4.98,8.24.07,16.47.02,24.71.03,1.51,0,2.92-.23,4.37-.78,3.98-1.53,6.97.16,7.3,4.31.25,3.14,1.93,6.1,1.07,8.62Zm-89.87-2.76c0,1.16-.04,2.32,0,3.48.18,4.74,3.33,8.57,7.44,9.1,4.62.6,7.93-2.24,9.73-7.13,1.73-4.7.62-9.11-.49-13.48-.7-2.76-2.82-4.92-5.97-5.35-3.47-.47-6.49.15-8.72,3.35-2.17,3.12-2.12,6.53-2,10.02Zm-11.85,7.55c2.84-2.93,5.82-5.36,7.8-8.62,2.11-3.48,1.47-8.5-1.16-10.47-3.13-2.35-9-1.95-11.63.97-1.1,1.22-3.17,2.67-1.01,4.53,1.76,1.52,3.33.71,4.56-1.09,1.26-1.84,2.82-2.95,4.94-1.15,1.87,1.6,1.72,3.5.41,5.32-.96,1.34-2.1,2.57-3.22,3.78-2.26,2.44-4.54,4.85-6.86,7.24-1.69,1.74-1.67,3.82.61,4.21,4.54.77,9.22.81,13.81-.14,1.06-.22,1.76-.91,1.65-2.11-.16-1.69-1.41-1.42-2.58-1.51-2.25-.18-4.63.65-7.31-.95Zm83.44-5.71c0,.06,0,.12,0,.18,2.31,0,4.62.02,6.93,0,1.51-.02,2.47-.56,2.44-2.34-.03-1.86-1.16-2.1-2.61-2.1-4.9,0-9.79-.17-14.63.9-1.05.23-1.87.17-1.87,1.54,0,1.29.77,1.78,1.84,1.81,2.63.06,5.27.02,7.91.02Zm-21.52-4.3c-.61.05-2.15-.09-3.52.34-1.2.38-3.18.49-2.66,2.7.42,1.81,1.82,2.27,3.4,2.04,2.4-.35,4.79-.82,7.14-1.4.98-.24,1.6-1.08,1.56-2.24-.06-1.43-1.09-1.41-2.08-1.44-.99-.03-1.97,0-3.83,0Z"/>
  <path class="cls-3" d="m356.82,645.21c-4.7-2.08-9.08-2.86-13.45-3.69-1.51-.29-1.32-1.77-1.28-2.88.05-1.31.21-2.64.51-3.92q2.22-9.32-6.57-13.1c-2.07-.89-3.13-2.42-2.95-4.69.22-2.65.25-5.58,3.28-6.66,2.75-.98,4.34-2.25,4.9-5.44.58-3.33,4.17-2.51,6.56-2.94,2.7-.49,6.66,1.33,5.59-4.29-.23-1.22,1.53-2.48,3.18-2.68,1.46-.17,3.26.39,3.11,1.75-.94,8.52,5.79,4.86,8.7,4.79,4.76-.11,9.06,2.58,13.84,1.5,1.2-.27,1.43.81,1.02,2.03-2.04,5.97-2.04,11.94.25,17.86,1.07,2.75.3,4.8-2.73,5.06-4.92.42-5.94,2.68-4.88,7.29.93,4.04-.89,6.28-5.6,6.75-4.68.47-9.62.46-13.47,3.25Zm12.04-21.81h-.09c0-1.33,0-2.66,0-3.99,0-1.33,0-2.66-.02-3.99-.11-4.72-2.29-6.11-6.61-4.12-1.19.55-2.3,1.36-3.29,2.23-1.17,1.04-4.02,1.25-2.5,3.87,1.29,2.22,2.95,1.3,4.63.21,2.62-1.71,2.95-.3,2.86,2.09-.14,3.81-.18,7.65.05,11.45.12,2.01-1.38,5.43,2.31,5.46,4.01.02,2.4-3.57,2.6-5.75.23-2.47.05-4.98.05-7.47Zm-17.69.66h.03c0-2.49.11-4.99-.04-7.48-.11-1.88,1.06-4.37-1.08-5.48-2.19-1.14-4.52-.21-6.53,1.21-.81.58-1.73,1.01-2.53,1.59-1.31.94-3.2,1.8-1.63,3.85,1.23,1.61,2.71,1.51,4.3.21,2.96-2.43,3.11-.37,3.1,2.01-.02,4.32-.04,8.65.11,12.97.05,1.3-.84,3.59,1.24,3.65,2.13.07,3.31-1.53,3.09-4.04-.25-2.8-.06-5.65-.06-8.47Z"/>
  <path class="cls-3" d="m723.47,673.74c8.92,1.83,17.74.25,26.61-.57,2-.19,4.38.44,2.23,3.48-.36.51-.6,1.21-.65,1.84-.16,1.88,5.8,10.74,7.8,10.95,3.54.38,3.08,2.69,3.12,5.02.05,2.52-.66,4.11-3.56,4.28-4.14.25-3.94,2.79-2.56,5.62.94,1.92,1.63,3.67-.43,5.32-2.02,1.62-3.44.03-4.83-.97-1.86-1.34-3.68-1.29-5.95-1.28-10.68.04-21.37-.31-32.04-.9-4.27-.24-5.76-2.93-4.62-7.21.88-3.31,1.16-6.35-.74-9.51-3.25-5.4,1.42-9.78,2.84-14.37.42-1.35,5.72-1.25,8.81-1.68,1.31-.18,2.66-.03,3.99-.03Zm13.57,25.79c2.29-2.64,4.61-5.18,6.76-7.85,3.65-4.54,3.74-7.82.45-10.92-3.28-3.1-8.46-3.12-12.06.2-1.16,1.07-3.91,2.18-2.25,4.16,1.19,1.41,3.72,1.25,5.35-.43,1.65-1.7,3.54-3.05,5.53-1.03,2.3,2.32.11,4.3-1.29,6.01-2.73,3.33-5.75,6.42-8.47,9.76-2.6,3.2-2.02,4.76,1.87,5.02,3.63.24,7.29.1,10.93.1,1.38,0,2.71-.1,2.77-2,.08-2.5-1.73-1.73-3.1-1.91-2.17-.29-4.64.97-6.51-1.1Zm-18.27,1.13c3.14-3.92,5.68-6.72,7.79-9.81,2.53-3.71,1.74-8.78-1.36-10.97-3.37-2.38-8.58-1.68-11.21,1.67-1.04,1.33-2.93,2.94-.57,4.58,1.87,1.31,3.37.53,4.38-1.53.93-1.92,2.57-2.8,4.47-1.45,1.98,1.4,1.88,3.4.62,5.28-.83,1.23-1.83,2.36-2.84,3.46-2.35,2.58-4.79,5.08-7.12,7.68-2.42,2.7-1.87,4.58,1.81,4.83,3.64.24,7.31.02,10.97.05,1.37,0,2.2-.3,2.05-1.97-.13-1.54-.9-1.91-2.28-1.85-1.81.07-3.62.02-6.72.02Z"/>
  <path class="cls-3" d="m407.78,622.79c-1.45-.31-2.88-.69-4.34-.91-1.82-.28-3.47,3.86-5.33.45-1.69-3.11-2.69-6.8-.65-9.91,1.65-2.52,3.25-6.14,7.56-5.12,1.34.32,1.69-.35,1.97-1.48.87-3.46,3.13-3.77,6.43-3.48,5.14.45,10.22,2.38,15.62.12,3.39-1.42,6.35.7,6.77,4.41.33,2.92,1.86,3.98,4.19,4.82,1.22.44,4.01-.53,3.34,1.6-.87,2.75,2.47,5.84-.65,7.93-3.27,2.18-3.79,5.28-3.72,8.65.24,10.3-3.85,12.72-13.17,12.91-3.32.07-6.71.36-9.8-1.14-1.98-.96-3.44.1-5.16.63-4.29,1.32-7.3-1.36-6.28-5.58.68-2.82.29-5.63.41-8.44.08-1.91.76-3.21,2.81-3.44.02,2.97.07,5.93.05,8.9-.01,1.79.08,3.39,2.51,3.3,2.3-.08,2.54-1.61,2.54-3.42.02-6.28.09-12.56.09-18.84,0-1.06.45-2.53-1.14-2.88-2.78-.62-5.16.17-7.2,2.24-.79.8-2.01,1.17-1.71,2.65.16.78.64,1.18,1.35,1.08,4.33-.55,3.9,2.21,3.51,4.97Zm18.49-7.28c0,3.92.01,7.22,0,10.52-.02,3.45.68,7.41-5.13,6.22-1.11-.23-2.55.65-2.19,2.03.41,1.56,2.19,1.11,2.92.56,1.82-1.38,2.42-1.35,3.61.9.96,1.82,3.59,1.24,5.52.72,1.16-.31,1.34-1.53,1-2.48-2.09-5.82-.61-11.84-1.1-17.75-.14-1.74.87-4.06-1.03-5.04-2.11-1.09-4.64-.82-6.52.87-1.65,1.49-5.88,1.99-4.06,5.05,1.78,2.99,4.1-.71,6.97-1.59Z"/>
  <path class="cls-3" d="m789.51,615.81c-1.6-.14-3.59.5-4.43-1.41-.8-1.8,1.18-2.48,1.98-3.63.38-.54,1.14-1.08,1.12-1.59-.28-7.03,5.19-5.92,9.21-6.26,3.52-.29,6.99-.06,9.61-3.02.71-.81,1.68-1.15,2.64-.34,4.37,3.68,9.81,4.32,15.11,5.17,2.54.41,2.87,1.44,2.45,3.69-.71,3.76-1.19,7.24,2.37,10.51,2.12,1.95,2.21,5.76,1.87,8.96-.2,1.9-1.44,1.98-2.9,1.4-1.36-.55-2.68-.65-3.46.81-.76,1.42.6,1.95,1.38,2.77,2.79,2.96,1.87,6.36.08,9.07-1.9,2.88-4.92,3.52-8.34,1.74-3.56-1.85-7.5-.79-11.28-.8-3.55,0-2.46,5.5-5.6,5.34-2.84-.14-1.13-4.55-4.51-5.71-7.74-2.65-7.93-3.3-5.69-11.54.68-2.51-1.45-7.07,3.91-7.19.05,3.15.01,6.3.2,9.44.08,1.28-.53,3.48,1.67,3.32,1.43-.11,3.03-1,3-3.25-.09-6.63.05-13.27.07-19.91,0-1.76-.75-2.65-2.72-2.66-3.78-.02-6.78.91-7.72,5.09Zm25.92,9.7c-.64,3.96-2.73,5.06-5.64,5.52-1.79.28-3.78,1.04-3.02,3.57.75,2.49,2.57,2.69,4.72,1.75,5.11-2.23,9.73-5.32,9.16-15.76-.4-7.25-1.87-9.68-8.75-10.6-3.6-.48-6.21,1.48-8.15,4.56-1.73,2.73-1.57,5.05.21,7.71,2.82,4.23,6.66,5.03,11.48,3.25Z"/>
  <path class="cls-3" d="m346.05,705.05c-.23,4.08-4.44,4.75-6.06,4.03-2.8-1.25-6.69-2.55-6.93-6.91-.22-3.93,1.53-8.05-.16-11.72-1.73-3.76-1.16-6.86-.33-10.75.88-4.1,2.87-5.45,6.08-5.59,5.15-.22,10.03-2.31,15.6-.22,3.63,1.36,8.43-.09,12.63-.73,1.93-.3,3.64-.44,5.21.65,2,1.38,3.61,2.41,6.17.55,2.15-1.56,3.35.58,2.48,2.27-1.75,3.43-1.34,5.37,2.15,7.38,1.8,1.04,1.64,4.08.74,6.04-1.39,3.01-1.69,5.75-.85,9.07,1.09,4.31-1.98,7.36-6.46,7.6-4.92.26-9.82.58-14.53,2.46-4.21,1.68-7.17.04-8.75-4.26,3.17-4.76-.42-4.23-3.33-4.3-1.43-.04-3.26.6-4.05-1.02-.75-1.52,1.11-2.12,1.84-3.08,1.41-1.83,3.24-3.38,4.45-5.32,2.51-4.03,1.35-9.05-2.35-11.43-3.57-2.29-8.8-1.16-11.4,2.52-.85,1.21-1.99,2.58-.11,3.8,1.35.88,2.86,1.1,3.85-.62,1.29-2.26,2.91-4.08,5.43-1.88,2.31,2,1.19,4.6-.2,6.54-1.82,2.54-4.27,4.64-6.22,7.1-1.47,1.85-4.6,3.27-3.53,6.06,1.17,3.07,4.37,1.23,6.67,1.56.65.09,1.32.13,1.97.19Zm8.96-11.09c-.65,3.16.74,6.12,3.07,8.61,2.85,3.04,6.1,4.09,10.11,1.8,4.53-2.59,4.83-6.42,3.93-10.88-.85-4.18-3.77-4.92-7.41-4.89-1.24,0-3.48.91-3.53-1.29-.04-1.79,1.27-3.4,3.48-3.54,1.65-.11,3.38.09,4.92-.36.85-.25,2.47-.5,2.35-2.07-.1-1.33-1.14-1.91-2.29-2.33-4.24-1.55-9.28,0-11.93,3.82-2.24,3.21-2.76,6.9-2.7,11.13Z"/>
  <path class="cls-3" d="m712.86,617.29c-1.02,1.77-2.47,1.9-3.54.35-1.24-1.78-.77-3.61.45-5.51,6.04-9.44,15.15-11.59,25.27-10.06,4.65.71,9.73-.25,14.01,2.65.51.35,1.5.2,1.81.62,1.57,2.15-2.01,5.21,1.21,7.18,3.16,1.93,2.25,4.35.74,6.81-1.09,1.77-1.48,3.73-1.2,5.75.55,4.02,1.86,8.09-3.16,10.57-1.29.64-1.02,2.38.14,3.44.96.88,2.43,1.48,1,3.1-1.25,1.41-2.66,2.1-4.3.71-1.83-1.56-3.62-.97-5.59-.33-6.02,1.93-12.12.14-18.13-.16-4.26-.21-7.49-5.37-6.26-9.67,1.44-5.02.22-10.1,1.29-15.05,1.29-1.92,2.22-2.19,2.24.57.03,4.8-.02,9.6-.07,14.4-.02,1.78,0,3.23,2.51,3.23,2.4,0,2.66-1.33,2.64-3.15-.06-6.45-.13-12.91-.14-19.36,0-1.48-.41-2.38-1.96-2.93-3.2-1.13-8.92,3.14-8.95,6.85Zm24.91-7.52c-7.81-.02-7.97-.05-9,7.01-.34,2.33-1.18,5.08.58,7.19,1.69,2.02,3.6-.81,5.49-.23.45.14.99.01,1.49-.01,1.91-.09,3.13.87,3.87,2.55.65,1.49.6,2.93-.6,4.14-1.44,1.44-3.2,1.74-5.05,1.07-1.21-.44-2.27-1.41-3.5-1.67-.99-.21-2.46-.64-3.13.65-.49.96.17,1.92.8,2.72,2.06,2.64,4.74,4.32,8.09,3.52,3.15-.75,6.31-1.85,7.77-5.35,2.06-4.94.58-10.89-7.84-11.88-1.91-.22-3.09-.44-2.99-2.8.1-2.39,1.42-2.68,3.28-2.59.83.04,1.7.15,2.48-.05,1.84-.46,5.02,1.23,5.16-2.1.15-3.69-3.16-1.61-4.9-2.13-.61-.18-1.32-.03-1.98-.04Z"/>
  <path class="cls-3" d="m349.94,560.01c.12-1.82.06-3.67.39-5.44,1.22-6.48,1.27-6.47-5.28-7.72-3.14-.6-4.63-4.24-2.02-7.45,2.86-3.53,6.36-6.73,9.7-9.88,3.81-3.59,7.48-1.26,10.91-2.58.75-.29,1.67-.1,2.42-.38,1.23-.46,1.2-3.52,3.15-2.09,1.58,1.16.92,3.38.38,5.12-.46,1.47-1.14,3.2.12,4.21,2.8,2.22,3.69,4.58,2.49,8.07-.56,1.65,1.25,1.94,2.66,2.02,1.98.1,3.98.11,5.91.49,1.37.27,2.7.76,3.55-.65,1.11-1.84-1.01-2.49-1.59-3.72-.57-1.2-2.46-2.54-.66-3.76,1.35-.91,3.39-.69,4.36,1.02.53.93.63,2.26.5,3.37-.43,3.6-1.08,7.16-1.05,10.84.02,2.8-1.66,2.6-3.75,1.59-4.53-2.2-6.71-.87-7.14,4.11-.08.98.15,2.59-.34,2.85-4.55,2.47-4.98,6.04-4.16,10.78.3,1.75-3.24,2.71-4.9,1.83-2.92-1.55-5.99-1.54-9.03-2.14-6.18-1.21-6.54-1.95-6.64-10.49Zm5.24-17.26c0,5.98-.05,11.57.03,17.16.02,1.72-.35,4.07,2.46,3.93,2.3-.12,2.75-1.89,2.71-3.92-.11-6.47-.07-12.94-.23-19.41-.11-4.44-1.99-5.58-6.03-3.66-1.63.78-3.11,1.89-4.59,2.95-.94.68-1.82,1.53-1.19,2.91.6,1.32,1.76,1.41,2.95,1.17,1.1-.22,2.16-.62,3.88-1.14Z"/>
  <path class="cls-3" d="m798.22,671.89c.71.23,1.22.3,1.64.54,6.82,3.98,13.81.99,20.52-.07,3.66-.57,5.61.64,6.98,2.95,1.41,2.39,5.91,4.16,2.32,8.24-1.89,2.14-1.57,5.18-1.06,7.69.89,4.43-2.92,9.32,1.57,13.45.9.83.56,3.07-2.03,2.34-5.44-1.54-10.85-2.99-15.99,1.11-1.18.94-2.56-.33-3.57-1.08-1.43-1.05-3.01-2.01-4.56-1.01-4.6,2.98-9.83,1.66-14.74,2.41-2.11.32-5.11.36-3.97-3.59.16-.57.08-1.64-.28-1.86-7.88-4.86-2.06-11.7-2.52-17.59-.2-2.54-.79-5.89,1.87-7.35,4.45-2.45,9.29-4.2,13.82-6.19Zm5.7,19.6c-2.38-1.49-1.1-3.9-1.42-5.89-.59-3.72-1.83-6.75-6.33-6.92-5.31-.2-9.6,4.93-9.74,11.98-.13,6.6,5,3.31,7.96,4.08.47.12.99,0,1.49.04,1.28.08,2.86-.24,2.67,1.9-.14,1.61-.57,2.96-2.59,2.96-1.82,0-3.65.07-5.47.1-1.87.03-2.73,1.59-1.55,2.46,2.38,1.75,4.26,4.66,8.54,2.67,4.13-1.92,4.81-5.61,6.42-8.73,1.47.52,1.4,1.55,1.74,2.48,1.06,2.89,3.44,6.02,6.01,5.74,3.26-.35,7.94.42,9.51-4.45,1.72-5.35,2.05-10.72.15-16.04-1.14-3.18-3.28-5.13-7.05-5.24-3.91-.11-6.37,1.6-7.75,4.98-1.04,2.55-1.73,5.23-2.59,7.88Z"/>
  <path class="cls-3" d="m407.06,695.7c-2.14-4.27-5.45-6.82-10.34-7.21-.49-.04-1.07-.8-1.35-1.35-1.35-2.62,3.8-11.84,6.67-12.46,5.65-1.22,11.14-2.19,16.91-.13,2.17.77,4.92.54,7.32-.45,4.19-1.73,7.55,1.92,11.5,1.83.21,0,.52.39.64.66.55,1.29-3.76,11.28-5.3,12.36-.08-.65-.21-1.3-.24-1.96-.27-7.91-2.7-9.41-10.06-6.19-1.05.46-2.1.94-3.08,1.53-1.13.69-3.24.81-2.31,2.98.82,1.93,2.28,1.82,4.27,1.61,2.17-.22,4-3.96,5.9-1.36,1.13,1.54.5,4.47.42,6.76-.08,2.45.48,4.96-.53,7.33-.89,2.08-.95,4.09.46,6-6.04,1.53-12.4,1.75-18.15,4.5-2.27,1.09-3.79.5-3.88-2.43-.06-1.78-.61-3.55-.83-5.33-.2-1.64-.52-3.45,1.97-3.71.09.82.15,1.65.29,2.46.29,1.75-.88,4.6,2.4,4.37,2.95-.21,2.17-2.84,2.19-4.71.06-5.49.05-10.98.03-16.47-.02-4.7-1.72-5.92-6.11-4.24-1.38.53-2.54,1.59-3.9,2.2-1.29.58-2.65,1.09-1.84,2.78.71,1.48,2.01,2.28,3.68,1.26.97-.59,1.82-1.42,3.24-.98v10.35Z"/>
  <path class="cls-3" d="m729.1,545.88c-1.65.1-3.34.03-4.96.33-4.86.89-8.74-3.25-7.13-7.9,1.35-3.9,3.54-7.11,8-8.12,1.59-.36,3.25-.98,4.54-1.94,2.24-1.66,3.76-1.65,5.22.92,1.9,3.38,4.18,3.33,6.63.45,1.87-2.2,3.03-1.48,4.49.75,2.57,3.93,2.69,7.59.21,11.54-2.3,3.66-1.75,5.91,2.99,7.11,4,1.01,1.7,5.41,2.84,8.11.71,1.69-2.39,1.69-4.26,1.33-2.54-.49-4.02.03-3.73,3.33.33,3.76-3.79,5.77-4.5,9.36-.19.98-2.05.78-3.04-.1-2.68-2.4-5.08-4.86-8.81-6.12-3.2-1.08-1.91-4.93-1.91-7.64,0-2.21.49-4.43,3.52-4.42.09,1.98.19,3.96.27,5.94.07,1.64-.09,3.86,2.04,3.86,2.3,0,2.46-2.21,2.44-4.1-.04-4.97.06-9.94-.16-14.9-.12-2.88,1.46-6.92-1.05-8.39-3.55-2.08-6.75,1.36-9.78,3.25-1.05.66-3.33,1.2-1.92,3.13.94,1.29,2.71,2.27,4.38,1.02,6.42-4.79,3.09,1.4,3.66,3.2Z"/>
  <path class="cls-3" d="m801.57,562.72c-2.2,3.59-6.08,4.49-9.15,3.07-3.4-1.57-4.77-5-2.84-9.3,2.2-4.89,1.3-10.46,1.51-15.62.26-6.49,3.16-11.37,9.78-11.9,2.65-.21,5.29-.05,7.69-1.52.51-.31,1.57-.57,1.86-.3,4.28,4.01,11.44,5.36,12.03,12.79.11,1.4.42,2.42,1.72,3.3,4.84,3.24,3.97,10.07-1.59,12.72-2.74,1.31-5.18,2.25-.43,4.43,2.61,1.2,2.88,3.3.85,5.66-2.49,2.89-8.11,3.39-10.59.5-1.29-1.5-2.7-1.69-4.4-1.7-1.45-.01-3.14.36-3.5-1.8,1.34-.57,2.71-1.08,4.02-1.72,4.55-2.22,6.57-7.73,3.8-11.64-1.67-2.35-1.9-3.78-.41-6.42,1.68-3,1.24-6.46-1.96-8.82-3.22-2.39-8.54-2.18-11.52.61-2.69,2.52-4.67,5.36-1.57,8.9,1.69,1.93,1.17,3.47-.44,5.05-3.13,3.08-2.38,6.23.15,9.15,1.47,1.69,3.3,3.06,4.97,4.57Z"/>
  <path class="cls-2" d="m801.57,562.72c-1.67-1.51-3.51-2.88-4.97-4.57-2.53-2.91-3.28-6.07-.15-9.15,1.61-1.58,2.13-3.12.44-5.05-3.1-3.55-1.12-6.39,1.57-8.9,2.98-2.79,8.29-3,11.52-.61,3.2,2.37,3.65,5.83,1.96,8.82-1.48,2.64-1.26,4.07.41,6.42,2.77,3.91.75,9.42-3.8,11.64-1.31.64-2.68,1.15-4.02,1.72-.98-.11-1.97-.21-2.95-.32Zm7.11-8.61c-.13-3.72-2.1-4.22-4.75-4.23-2.62,0-4.42,1.09-4.21,3.63.23,2.72,2.13,4.44,5.09,4.25,2.54-.16,3.86-1.65,3.87-3.65Zm-4.36-10.19c2.14-.31,4.09-1.1,4.05-3.79-.03-2.09-1.19-3.19-3.47-3.2-2.58-.01-4.18,1.16-4.22,3.62-.04,1.99,1.4,3.19,3.64,3.37Z"/>
  <path class="cls-2" d="m654.2,462.06c-5.42.01-8.33-1.92-10.15-5.47-.6-1.18-1.09-2.67.56-3.44,1.21-.56,2.71-.82,3.51.71,1.1,2.11,2.58,3.46,5.08,3.24,1.72-.15,3.55-.5,3.44-2.72-.08-1.71,1.04-4.25-2.39-4.39-1.58-.07-3.6-.54-3.73-2.49-.16-2.21,1.88-2.27,3.53-2.57,3.04-.54,3.01-2.97,2.42-5.02-.61-2.15-2.73-2.22-4.6-1.69-.9.25-1.73.94-2.47,1.58-1.3,1.12-2.56,3.57-4.34,1.7-1.62-1.7,0-3.73,1.43-5.21,3.06-3.17,8.75-3.41,12.74-.45,3.78,2.81,3.17,6.24.78,9.51-.95,1.3-.81,1.82.32,2.7,2.95,2.31,3.22,5.39,1.78,8.52-1.77,3.84-5.13,5.42-7.92,5.5Z"/>
  <path class="cls-2" d="m803.9,461.99c-2.72.5-4.89-1-7.01-2.65-1.59-1.24-3.64-2.82-2-4.74,1.24-1.46,3.72-1.32,5.1.78,1.11,1.69,2.72,1.56,4.41,1.58,2.14.02,3.97-.01,4.13-2.94.15-2.78-.79-4.51-3.59-4.99-.97-.16-2.02.03-2.93-.26-.98-.32-1.6-1.18-1.47-2.32.11-1.02.84-1.31,1.74-1.36.5-.03.99-.16,1.49-.16,2,0,3.76-.74,4.39-2.6.28-.81-.53-2.82-1.16-2.97-2.01-.48-4.38-1.01-6.15.46-1.25,1.04-1.91,2.82-4.02,1.78-1.26-.62-1.6-1.67-1.36-2.9.42-2.1,1.45-3.25,3.82-3.86,6.89-1.78,13.1.14,13.02,5.23-.07,4.65.29,9.01,1.07,13.58.87,5.1-3.32,8.28-9.49,8.36Z"/>
  <path class="cls-2" d="m726.47,456.19c2.96,1.23,5.63.49,8.19.73,1.34.13,3.21-.64,3.14,1.93-.06,2-1.14,2.44-2.91,2.42-4.49-.05-8.98.12-13.46,0-3.12-.08-3.91-1.61-1.82-4.07,2.47-2.91,5.12-5.67,7.63-8.54,1.09-1.25,2.47-2.47,2.95-3.95.57-1.73,1.5-4.31-.43-5.4-1.47-.83-4.02-.96-5.36,1.18-1.53,2.46-3.74,1.83-5.06.48-1.96-2.02.77-3.14,1.81-4.18,4.35-4.34,9.7-3.09,13.04-.47,2.66,2.09,2.31,7.64-.55,11.31-2.21,2.84-4.62,5.53-7.18,8.56Z"/>
  <path class="cls-2" d="m346.05,705.05c-.66-.06-1.32-.1-1.97-.19-2.31-.33-5.5,1.51-6.67-1.56-1.07-2.79,2.06-4.21,3.53-6.06,1.96-2.46,4.4-4.55,6.22-7.1,1.39-1.93,2.51-4.54.2-6.54-2.53-2.19-4.14-.38-5.43,1.88-.98,1.72-2.5,1.5-3.85.62-1.87-1.22-.74-2.59.11-3.8,2.6-3.68,7.83-4.82,11.4-2.52,3.7,2.38,4.86,7.39,2.35,11.43-1.21,1.94-3.04,3.49-4.45,5.32-.73.95-2.59,1.56-1.84,3.08.8,1.61,2.63.98,4.05,1.02,2.92.07,6.5-.46,3.33,4.3-2.33.04-4.66.08-6.99.12Z"/>
  <path class="cls-2" d="m644.71,705.07c-.82-.07-1.64-.17-2.47-.19-1.64-.04-3.52.31-4.4-1.53-.93-1.94.73-2.97,1.83-4.15,2.82-3.04,5.62-6.1,8.43-9.15,1.61-1.74,2.41-3.91,1.07-5.87-1.53-2.25-3.67-2.28-5.05.37-1.18,2.26-2.93,3.07-4.75,1.42-1.99-1.8.18-3.31,1.3-4.51,3.24-3.47,7.88-3.8,11.51-.82,3.75,3.09,3.03,6.71.65,10.19-1.39,2.04-3.25,3.76-4.74,5.74-.82,1.1-2.93,1.82-2.02,3.53.65,1.23,2.41.46,3.67.57,2.48.21,5.87-.84,4.87,3.8-3.3.2-6.6.4-9.9.6Z"/>
  <path class="cls-3" d="m562.81,442.05c-.03,1.93-.25,4.04-2.79,3.71-2.33-.3-4.6-1.51-5.05-4.13-.57-3.29.1-6.21,3.49-7.98,2.55-1.33,5.09-2.47,7.4-4.54,2.18-1.96,5.66.57,7.71,2.4,4.85,4.31,3.38,14.82-2.26,18.49-.08-3.14-.19-6.28-.24-9.42-.1-6.13-1.67-7.14-7.09-4.48-.89.44-1.71,1.01-2.6,1.43-1.6.73-3.12,1.74-2.43,3.67.67,1.85,2.58.46,3.87.86Z"/>
  <path class="cls-2" d="m427.97,705.68c-1.41-1.9-1.35-3.91-.46-6,1.02-2.38.45-4.89.53-7.33.08-2.3.7-5.22-.42-6.76-1.9-2.6-3.73,1.14-5.9,1.36-1.99.2-3.45.32-4.27-1.61-.93-2.17,1.18-2.3,2.31-2.98.98-.59,2.03-1.07,3.08-1.53,7.35-3.23,9.79-1.72,10.06,6.19.02.65.15,1.31.24,1.96-.18.32-.17.63.03.94-.07,3.61-.21,7.23-.21,10.84,0,3.4-1.28,5.35-4.98,4.93h.01Z"/>
  <path class="cls-2" d="m407.06,695.7v-10.35c-1.42-.44-2.27.39-3.24.98-1.67,1.02-2.97.22-3.68-1.26-.81-1.69.55-2.2,1.84-2.78,1.36-.6,2.52-1.67,3.9-2.2,4.39-1.67,6.09-.46,6.11,4.24.02,5.49.03,10.98-.03,16.47-.02,1.87.76,4.5-2.19,4.71-3.29.23-2.11-2.61-2.4-4.37-.14-.81-.2-1.64-.29-2.46,0-1-.01-2-.02-3Z"/>
  <path class="cls-2" d="m712.86,617.29c.04-3.71,5.75-7.98,8.95-6.85,1.55.55,1.96,1.45,1.96,2.93.01,6.45.08,12.91.14,19.36.02,1.83-.24,3.15-2.64,3.15-2.51,0-2.53-1.45-2.51-3.23.06-4.8.1-9.6.07-14.4-.02-2.76-.96-2.49-2.24-.57-1.31.44-2.54.26-3.73-.4Z"/>
  <path class="cls-2" d="m729.1,545.88c-.57-1.8,2.76-8-3.66-3.2-1.67,1.25-3.44.28-4.38-1.02-1.41-1.94.87-2.48,1.92-3.13,3.02-1.89,6.23-5.33,9.78-3.25,2.5,1.47.92,5.51,1.05,8.39.21,4.96.12,9.94.16,14.9.01,1.89-.14,4.1-2.44,4.1-2.14,0-1.97-2.22-2.04-3.86-.09-1.98-.18-3.96-.27-5.94-.03-2.33-.06-4.66-.1-6.99Z"/>
  <path class="cls-2" d="m562.81,442.05c-1.29-.4-3.2.99-3.87-.86-.69-1.93.83-2.93,2.43-3.67.9-.41,1.72-.99,2.6-1.43,5.42-2.66,6.99-1.65,7.09,4.48.05,3.14.16,6.28.24,9.42.03.66.05,1.32.08,1.98-.12,2.31-.3,4.62-.34,6.93-.03,1.8-1.02,2.17-2.57,2.15-1.5-.03-2.01-.75-2.07-2.15-.06-1.64-.26-3.28-.4-4.92.54-1.67.49-3.33-.06-4.98.41-.69.4-1.37-.03-2.04,0-1.65,0-3.29,0-4.94.07-.9-.37-1.02-1.09-.73-.76.03-1.67-.34-2.02.77Z"/>
  <path class="cls-2" d="m407.78,622.79c.39-2.76.82-5.52-3.51-4.97-.72.09-1.2-.3-1.35-1.08-.3-1.48.92-1.86,1.71-2.65,2.04-2.06,4.42-2.85,7.2-2.24,1.59.35,1.14,1.82,1.14,2.88,0,6.28-.07,12.56-.09,18.84,0,1.81-.25,3.34-2.54,3.42-2.43.09-2.52-1.52-2.51-3.3.02-2.97-.03-5.93-.05-8.9,0-.67,0-1.33,0-2Z"/>
  <path class="cls-3" d="m566,453.97c.14,1.64.34,3.28.4,4.92.05,1.4.57,2.12,2.07,2.15,1.55.03,2.54-.35,2.57-2.15.04-2.31.22-4.62.34-6.93,3.5,1.4,7,2.8,10.49,4.21,1.2.48,1.79,1.39,1.82,2.69.04,1.49-.91,2.01-2.14,2.29-3.81.87-7.5,1.57-10.72,4.4-1.58,1.4-4.77.79-4.97-2.63-.11-1.79-1.07-3.06-1.72-4.56-.82-1.89-.37-3.61,1.85-4.4Z"/>
  <path class="cls-2" d="m789.51,615.81c.95-4.18,3.94-5.1,7.72-5.09,1.97,0,2.72.9,2.72,2.66-.02,6.64-.15,13.27-.07,19.91.03,2.26-1.57,3.15-3,3.25-2.2.17-1.59-2.04-1.67-3.32-.19-3.14-.15-6.29-.2-9.44-.06-1.32-.13-2.64-.19-3.97,1.83-6.1-3-3.37-5.3-3.99h-.02Z"/>
  <path class="cls-3" d="m427.96,705.67c3.7.42,4.99-1.53,4.98-4.93,0-3.61.13-7.23.21-10.84,3.32-.46,5.84-.24,4.15,4.27-.85,2.26-.13,4.49.47,6.74.67,2.53-.21,4.82-2.8,5.53-2.28.62-5.16,3.53-7.01-.77Z"/>
  <path class="cls-3" d="m447.53,489.89c-2.15,0-4.52.17-2.18-3.09,1.12-1.56.18-3.15-.19-4.76-.58-2.48.7-3.71,2.99-2.75,2.09.88,4,2.34,5.77,3.81,1.31,1.09-1.69,6.28-3.9,6.75-.79.17-1.66.03-2.49.03Z"/>
  <path class="cls-3" d="m719.91,597.82c-5.58-5.33-5.47-6.27.62-8.93,1.12-.49,2.53-1.8,3.49-.37.81,1.2-.46,2.33-1.41,3.26-2.62,2.56-2.6,2.58-2.69,6.04Z"/>
  <path class="cls-3" d="m353.08,513.18c-.32,2,.86,4.75-2.76,4.69-1.71-.03-2.65-1.07-2.09-2.51.9-2.33-.02-6.25,2.89-6.72,2.68-.43,1.55,2.9,1.97,4.54Z"/>
  <path class="cls-3" d="m313.11,295.83c-.21-2,.12-3.99,2.41-4.13,2.45-.14,1.21,2.13,1.54,3.35.12.46.15,1,.06,1.47-.3,1.61,2.68,2.52.96,4.28-.32.33-1.54-.08-2.28-.33-2.22-.75-2.97-2.43-2.68-4.64Z"/>
  <path class="cls-3" d="m287.06,367.6c-.54,1.69-.91,3.47-3.1,3.39-1.84-.07-3.38-1.1-3.43-2.92-.04-1.56.66-3.59,2.67-3.58,1.82.01,3.47,1.02,3.87,3.11Z"/>
  <path class="cls-3" d="m456.99,499.09c2.43.04,2.24,2.25,2.59,3.58.47,1.78-.08,3.83-2.36,4.01-1.55.12-3.02-1.21-2.88-2.75.17-1.8.3-4.03,2.64-4.83Z"/>
  <path class="cls-3" d="m377.02,526.62c1.5-.1,3.65-1.87,3.72,1.13.04,1.91-1.26,3.26-3.54,3.15-1.85-.09-3.98-.03-3.97-2.49.01-2.8,2.13-2.23,3.79-1.79Z"/>
  <path class="cls-3" d="m672.67,662.22c-.09,1.51-.33,3.31-1.88,3.04-2.88-.49-2.66-3.71-3.8-5.68-.74-1.29.88-1.95,2.09-1.73,2.43.44,3.57,2.07,3.59,4.37Z"/>
  <path class="cls-3" d="m376.77,595.75c-1.78-.16-3.24-1.21-3.53-3.19-.27-1.82,1.04-2.64,2.74-2.66,2.02-.02,2.95,1.14,3,3.09.04,1.4-.12,2.68-2.21,2.76Z"/>
  <path class="cls-3" d="m472.09,297.17c-2.56,1.23-4.48,2.13-6.37,3.08-1.28.64-2.67,1.21-3.3-.56-.63-1.78.94-2.15,2.22-2.58,2.18-.73,4.35-1.59,7.46.07Z"/>
  <path class="cls-3" d="m390,523.73c-.25,1.08.5,3.03-1.69,2.63-1.57-.29-3.33-1.05-3.12-3.16.15-1.56,1.21-2.92,2.83-2.86,1.98.08,1.89,1.89,1.98,3.39Z"/>
  <path class="cls-3" d="m349.54,523.76c-2.29.66-3.48,4.21-6.4,2.48-1.11-.66-1.47-2.08-.54-3.03,2.27-2.32,4.52.5,6.94.55Z"/>
  <path class="cls-3" d="m789.53,615.82c2.3.62,7.13-2.1,5.3,3.99-3.88,1.47-4.91-.83-5.3-3.99Z"/>
  <path class="cls-3" d="m369.84,783.77c-.12,2.02-1.61,1.79-2.88,1.8-1.3,0-2.94.1-2.68-1.87.19-1.4.66-3.14,2.65-2.85,1.56.22,2.49,1.43,2.91,2.93Z"/>
  <path class="cls-3" d="m447.25,781.62c-1.11-.17-2.92.37-2.82-1.2.11-1.76,1.69-2.76,3.57-2.74,1.47.02,2.77.66,2.67,2.27-.15,2.32-2.17,1.37-3.42,1.66Z"/>
  <path class="cls-3" d="m510.9,489.1c-.31,1.34.56,3.64-1.6,3.45-2.3-.2-1.29-2.59-1.38-4.05-.08-1.18-.5-3.17,1.29-3.15,2.61.02,1.23,2.45,1.69,3.76Z"/>
  <path class="cls-3" d="m379.83,664.98c-.06,1.21-.77,1.88-1.59,1.54-1.49-.62-3.99-.04-3.99-2.71,0-1.05.94-2.04,1.98-1.67,1.49.52,2.98,1.33,3.6,2.83Z"/>
  <path class="cls-3" d="m811.32,660.51c-.24,1.46-1.24,2.14-2.69,2.15-1.38,0-2.79-.35-2.66-2.05.12-1.64,1.59-1.83,2.94-1.83,1.15,0,2.36.01,2.42,1.73Z"/>
  <path class="cls-3" d="m755.25,576.94c-.43,1.62-1.65,1.94-3.03,1.82-1.2-.11-2.38-.6-2.22-2.04.19-1.64,1.59-1.9,2.95-1.79,1.21.09,2.18.62,2.29,2.01Z"/>
  <path class="cls-3" d="m691.56,616.15c-.2,1.3-.66,2.46-2.12,2.21-1.63-.28-1.76-1.73-1.76-3.09,0-1.01.09-2.25,1.36-2.23,1.9.03,2.06,1.79,2.52,3.11Z"/>
  <path class="cls-3" d="m376.72,730.53c-.84,1.58-2.2,2.01-3.69,2.06-1.11.04-2.17-.52-1.39-1.7.71-1.08.98-3.07,2.91-2.73,1.13.2,1.78,1.28,2.17,2.37Z"/>
  <path class="cls-3" d="m800.58,506.88c-1.29-.1-2.68-.35-2.63-2.07.04-1.38,1.24-1.8,2.45-1.81,1.39,0,2.76.34,2.71,2.04-.04,1.37-1.24,1.74-2.53,1.84Z"/>
  <path class="cls-3" d="m760.86,530.73c.41-1.21.7-2.63,2.32-2.65,1.27-.01,2.12.82,2.21,2.11.11,1.54-.79,2.48-2.27,2.55-1.24.06-2.13-.62-2.26-2.01Z"/>
  <path class="cls-3" d="m287.13,678.16c-.22,1.18.49,2.99-1.32,3.21-2.01.24-1.64-1.61-1.65-2.8-.02-1.42-.15-3.34,1.91-3.24,1.55.08.82,1.81,1.07,2.83Z"/>
  <path class="cls-3" d="m434.07,540.2c1.47.49,2.54,1.45,2.69,3.09.09.96-.63,1.6-1.56,1.4-1.41-.3-3.07-.59-3.06-2.56,0-1.08.7-1.8,1.93-1.93Z"/>
  <path class="cls-3" d="m413.86,669.06c-.06.66-.33,1.52-1.44,1.22-1.26-.35-2.83-.76-2.97-2.28-.13-1.39,1.26-1.21,2.21-1.22,1.35-.02,2.25.53,2.2,2.29Z"/>
  <path class="cls-3" d="m401.75,732.52c-.46,1.57-1.35,2.16-2.64,1.95-1.04-.17-1.9-.8-1.74-1.95.19-1.34,1.21-1.85,2.5-1.68,1.11.15,1.58.95,1.88,1.68Z"/>
  <path class="cls-3" d="m348.6,667.21c.08,1.19-.67,1.44-1.56,1.44-1.49,0-2.61-.6-2.81-2.19-.12-.97.45-1.61,1.44-1.55,1.48.09,2.3,1.13,2.93,2.29Z"/>
  <path class="cls-3" d="m582.1,442.02c1.2.06,2.38.09,2.39,1.39.02,1.64-1.35,1.55-2.49,1.53-1.04-.01-2.06-.27-1.94-1.59.13-1.31,1.29-1.23,2.04-1.33Z"/>
  <path class="cls-3" d="m690.29,568.22c-.42,1.02-1.19,1.61-2.28,1.48-1.27-.15-2.27-.82-1.92-2.25.26-1.05,1.17-1.6,2.3-1.14.86.36,1.95.6,1.9,1.91Z"/>
  <path class="cls-3" d="m832.34,595.28c-.14.93-.65,1.47-1.62,1.35-1.31-.16-2.04-1-2.05-2.27-.01-.92.62-1.47,1.59-1.35,1.31.16,1.94,1.01,2.08,2.26Z"/>
  <path class="cls-3" d="m464.76,528.17c-.04,1.05-.55,1.6-1.49,1.55-1.05-.05-1.9-.6-1.97-1.71-.07-1.12.64-1.83,1.77-1.75,1.12.09,1.57.95,1.7,1.9Z"/>
  <path class="cls-3" d="m757.4,516.08c.09.95-.34,1.6-1.27,1.67-1.06.08-1.94-.48-2.16-1.51-.23-1.1.45-1.89,1.55-1.96,1.15-.08,1.64.79,1.88,1.81Z"/>
  <path class="cls-3" d="m279.97,820.11c-.21,1-.83,1.32-1.75.91-.89-.38-1.91-.77-1.9-1.95,0-.96.65-1.47,1.62-1.32,1.3.2,1.96,1.02,2.03,2.35Z"/>
  <path class="cls-3" d="m616.41,344.95c.2,1.47-.42,1.95-1.31,2.04-1.04.11-2.05-.09-2.13-1.39-.04-.67.4-1.2,1.16-1.34,1.06-.2,1.88.08,2.28.69Z"/>
  <path class="cls-3" d="m764.45,638.47c-1.63,1.76-2.93,1.39-4.57.59,1.24-1.75,2.61-1.4,4.57-.59Z"/>
  <path class="cls-3" d="m446.7,768.68c-.38,2.43-1.25,3.43-3.38,3.55.05-2.1,1.13-2.91,3.38-3.55Z"/>
  <path class="cls-3" d="m648.52,497.84c-.17.88-.68,1.62-1.55,1.66-1.14.06-1.27-.88-1.03-1.72.23-.8.75-1.53,1.73-1.42.83.09.92.78.85,1.48Z"/>
  <path class="cls-3" d="m756.73,524.31c.12-.72.54-1.2,1.26-1.23.73-.03,1.36.43,1.16,1.15-.15.52-.76,1.14-1.28,1.27-.73.19-1.09-.46-1.14-1.19Z"/>
  <path class="cls-3" d="m823.76,665.92c.66.03,1.45.12,1.29.97-.1.52-.63,1.15-1.12,1.36-.66.27-1.25-.14-1.24-.96,0-.69.29-1.24,1.07-1.37Z"/>
  <path class="cls-3" d="m623.18,735.75c.45.63,1,1.08,1.1,1.61.17.9-.59,1.11-1.18.76-.46-.27-.76-.91-.96-1.45-.05-.13.56-.52,1.04-.93Z"/>
  <path class="cls-3" d="m393.17,553.88c.53.26,1.15.37,1.26.67.28.74-.27,1.17-.95,1.13-.35-.02-.86-.4-.97-.72-.08-.24.38-.66.65-1.08Z"/>
  <path class="cls-3" d="m674.47,292.25c-.57.34-.91.71-1.28.73-.68.04-1.24-.36-1-1.11.09-.27.77-.5,1.16-.47.33.03.63.45,1.13.85Z"/>
  <path class="cls-3" d="m378.85,535.91c-.55.37-.88.75-1.24.78-.66.06-1.29-.25-1.07-1.04.08-.28.73-.55,1.11-.54.34.01.66.42,1.19.8Z"/>
  <path class="cls-3" d="m738.41,521.79c-.47.4-.76.84-1.09.87-.38.04-1.06-.17-1.16-.45-.28-.73.26-1.16.94-1.14.37.01.73.38,1.31.71Z"/>
  <path class="cls-3" d="m278.1,391.9c-.37-.55-.75-.88-.78-1.24-.06-.66.25-1.29,1.04-1.07.28.08.55.73.54,1.11-.01.34-.42.66-.8,1.19Z"/>
  <path class="cls-3" d="m591.12,474.95c.46.32,1.04.5,1.12.81.21.84-.49,1.07-1.11.99-.33-.05-.82-.52-.84-.81-.01-.29.49-.61.83-.99Z"/>
  <path class="cls-3" d="m682.47,291.06c-.47.4-.76.84-1.09.87-.38.04-1.06-.17-1.16-.45-.28-.73.26-1.16.94-1.14.37.01.73.38,1.31.71Z"/>
  <path class="cls-3" d="m565.91,446.95c.43.68.43,1.36.03,2.04-1.28-.66-1.3-1.35-.03-2.04Z"/>
  <path class="cls-3" d="m582.39,449.72c-.12.28-.18.7-.38.78-.2.08-.53-.2-.81-.32.12-.28.18-.71.38-.79.2-.08.54.2.81.32Z"/>
  <path class="cls-3" d="m629.45,726.09c.28.12.55.24.83.36-.12.28-.18.71-.38.78-.2.08-.54-.19-.81-.31.12-.28.24-.55.36-.83Z"/>
  <path class="cls-3" d="m643.32,286.91c-.12.28-.18.7-.38.78-.2.08-.53-.2-.81-.32.12-.28.18-.71.38-.79.2-.08.54.2.81.32Z"/>
  <path class="cls-3" d="m738.22,505.2c-.28.11-.63.37-.82.28-.2-.09-.24-.52-.35-.8.28-.11.63-.37.82-.28.2.09.24.52.35.8Z"/>
  <path class="cls-3" d="m777.28,506.31c.28.12.7.18.78.38.08.2-.2.53-.32.81-.28-.12-.71-.18-.79-.38-.08-.2.2-.54.32-.81Z"/>
  <path class="cls-3" d="m637.34,304.44c-.28.11-.63.37-.82.28-.2-.09-.24-.52-.35-.8.28-.11.63-.37.82-.28.2.09.24.52.35.8Z"/>
  <path class="cls-3" d="m271.86,303.54c.28.12.7.18.78.38.08.2-.2.53-.32.81-.28-.12-.71-.18-.79-.38-.08-.2.2-.54.32-.81Z"/>
  <path class="cls-3" d="m465.53,287.45c-.28.11-.63.37-.82.28-.2-.09-.24-.52-.35-.8.28-.11.63-.37.82-.28.2.09.24.52.35.8Z"/>
  <path class="cls-3" d="m564.83,441.28c.72-.29,1.17-.17,1.09.73-.36-.24-.73-.48-1.09-.73Z"/>
  <path class="cls-3" d="m551.02,311.18c.37,1.44,1.03,2.92-.97,2.69-1.49-.17-1.22-1.73-1.2-2.84.02-1.1-.22-2.72,1.45-2.58,2.54.22.06,2.16.73,2.73Z"/>
  <path class="cls-1" d="m548.5,247.2c-.07.93-.63,1.57-1.49,1.56-1.08,0-1.14-.96-1.09-1.77.04-.64.23-1.38,1.06-1.33.89.04,1.43.62,1.53,1.54Z"/>
  <path class="cls-2" d="m472.7,623.04c-1.1.63-.21,2.09-1.92,2.43v-9.13c-1.5.72-2.64,1-3.42,1.69-1.22,1.08-2.11.74-2.9-.32-.75-1.01-1.11-2.38.27-2.97,8.91-3.82,4.17-11.05,3.8-16.71-.7-10.74-1.26-21.32.89-32,1.24-6.14,3.48-11.98,4.63-18.13.19-1.01,1.31-1.82,1.88-2.79.74-1.24,1.95-2.81.29-3.87-1.12-.72-3.08-.85-3.92.85-.96,1.93-2.14,2.7-3.76,1.02-1.6-1.65-.33-2.8.97-4.07,2.37-2.33,4.74-4.09,8.3-2.71,2.84,1.1,3.73-1.43,4.91-3.01,5.39-7.2,10.82-14.33,17.5-20.44,14.89-13.61,32.42-22.69,52.25-24.58,42.75-4.08,75.79,12.44,97.53,50.12.66,1.15,1.38,2.26,2.13,3.47,2.24-1.42,2.52-3.92,3.69-5.84,1.25-2.05,3.02-2.6,5.1-2.12,2.97.67.66,2.67.73,3.99.17,3.28-.57,6.61.99,9.76.2.41-.02,1.37.14,1.42,6.54,1.96,3.51,5.8,2.11,9.56-.5,1.36-.53,2.55-2.34,2.46-1.46-.07-2-.8-1.99-2.23.01-1.37.48-3.65-1.95-2.81-2.28.79.11,1.99.35,3,3.1,13.02,5.88,26.01,2.87,39.54-.81,3.62-1,7.36-2,11.01-.8,2.94,1.33,2.2,2.99,1.61,6.3-2.25,6.58-2.06,6.67,4.67.07,5.66.09,11.32.14,16.98.01,1.59-.04,3.05-2.28,2.96-1.96-.08-1.93-1.46-1.94-2.8-.06-4.33,0-8.66-.2-12.98-.07-1.52,1.21-4.08-1.9-4.17-2.35-.06-5.08.43-5.46,3.09-.74,5.16-4.72,9.28-4.3,14.82.2,2.62-2.79,3.8-4.02,5.94-24.08,41.8-49.45,82.82-75.07,123.69-.35.56-.71,1.13-1.09,1.67-5.1,7.35-9.79,7.57-14.73.14-15.74-23.69-30.97-47.7-45.72-72.03-10.77-17.77-22.38-35.05-31.71-53.66-1.17-2.33-2.53-3.11-5.02-2.8-1.25.16-2.67-.14-3.85-.63-1.42-.58-1.56-2.03-1.43-3.42.14-1.53,1.36-1.25,2.25-1.13,4,.53,3.76-1.17,2.13-3.8-.94-1.52-1.72-3.15-2.57-4.73Zm171.18,2.04c.99-.8,1.08-1.98,1.34-3.1,7-18.63,9.46-37.34,3.8-57.03-6.48-22.53-18.98-40.32-38.3-53.32-11.14-7.5-23.44-12.02-36.95-12.9-4.96-1.18-9.95-.98-14.95-.26-10.93.56-21.1,3.88-30.79,8.72-23.46,11.72-38.01,30.8-46.34,55.36-4.46,13.15-4.75,26.51-2.46,39.72,2.59,14.9,9,28.65,16.62,41.72,21.46,36.77,44.3,72.7,67.04,108.68,2.32,3.67,3.44,3.71,5.81-.08,20.99-33.56,41.23-67.56,61.47-101.57,5-8.4,10.43-16.61,13.7-25.94Zm16.39-81.75c-1.38,2.44-5,3.73-3.89,7.21.31.97,1.78.89,2.66.41,3.49-1.88.6-5.07,1.23-7.63Z"/>
  <path class="cls-2" d="m655.61,693.16c.12-5.3,1.36-9.42,4.54-12.54,4.41-4.31,11.85-1.97,13.29,4.3,1.04,4.54,1.58,9.35.13,13.91-1.12,3.54-3.71,5.88-7.71,6.08-4.68.23-7.42-2.63-9.08-6.41-.8-1.82-1.88-3.94-1.17-5.35Zm13.09-1.57s.05,0,.08,0c0-1.81.17-3.65-.05-5.43-.21-1.69-1.1-3.23-3-3.46-1.92-.22-3.31,1.31-3.7,2.7-.82,2.94-2.08,6.01-1.19,9.11.71,2.49,1.09,6.11,4.53,5.97,3.87-.15,3.44-3.61,3.34-6.41-.03-.83,0-1.65,0-2.48Z"/>
  <path class="cls-2" d="m494,696.43c-.45,3.05-1.3,6.77-5.07,7.77-2.74.73-6.14,2.83-8.83-.62-.72-.92-1.75-1.78-1.11-3.03.71-1.38,1.99-.86,3.06-.47,2.1.76,4.15,1.35,5.96-.6.87-.93,1.26-2.14.67-3.19-.56-1.01-1.64-.48-2.62-.24-4.1,1-8.44-1.73-9.18-5.66-.86-4.54,2.61-10.15,6.63-10.71,5.39-.76,8.95.73,9.34,4.04.12,1.03.61,2.46-.81,3.07-1.12.48-1.71-.55-2.47-1.19-3.31-2.84-5.9-2.43-7.26,1.11-.55,1.42-.85,2.94.34,4.18,1.07,1.11,2.16.58,3.54.17,5.11-1.52,7.85.33,7.82,5.37Z"/>
  <path class="cls-2" d="m468.86,684.82c-1.39.42-2.45.83-3.55,1.04-1.1.21-1.96-.32-2.35-1.37-.31-.86.06-1.61.72-2.2,1.87-1.67,4.09-2.79,6.43-3.53,1.89-.6,3.3.18,3.32,2.41.06,6.97.09,13.94.12,20.9,0,1.74-.62,2.68-2.6,2.81-2.54.17-2.08-1.5-2.08-2.89-.03-5.62-.01-11.25-.01-17.17Z"/>
  <path class="cls-1" d="m632.71,699.71c.1-1.47-.16-3.14,1.83-3.56.26-.05.92.51.95.83.19,1.97-1.14,2.53-2.78,2.74Z"/>
  <path class="cls-2" d="m356.07,756.05c-.12-3.49-.17-6.9,2-10.02,2.23-3.2,5.24-3.82,8.72-3.35,3.14.43,5.27,2.59,5.97,5.35,1.11,4.37,2.22,8.78.49,13.48-1.79,4.89-5.1,7.72-9.73,7.13-4.11-.53-7.26-4.37-7.44-9.1-.04-1.16,0-2.32,0-3.48Zm12.96-.28c.09,0,.18-.01.27-.02-.24-1.8-.27-3.67-.78-5.39-.57-1.94-1.65-3.94-4.07-3.66-2.07.24-2.97,2.17-3.16,4.02-.28,2.8-.4,5.66-.15,8.45.2,2.18.45,5.31,3.35,5.15,2.77-.15,4.55-2.44,4.53-5.56,0-1,0-1.99,0-2.99Z"/>
  <path class="cls-2" d="m344.21,763.59c2.68,1.61,5.06.78,7.31.95,1.17.09,2.42-.18,2.58,1.51.11,1.2-.58,1.89-1.65,2.11-4.59.96-9.27.91-13.81.14-2.27-.38-2.3-2.47-.61-4.21,2.32-2.38,4.6-4.8,6.86-7.24,1.13-1.21,2.26-2.44,3.22-3.78,1.31-1.83,1.46-3.73-.41-5.32-2.11-1.8-3.68-.69-4.94,1.15-1.23,1.8-2.8,2.61-4.56,1.09-2.16-1.86-.08-3.31,1.01-4.53,2.63-2.93,8.5-3.33,11.63-.97,2.63,1.98,3.26,7,1.16,10.47-1.98,3.26-4.95,5.69-7.8,8.62Z"/>
  <path class="cls-2" d="m427.65,757.89c-2.64,0-5.27.04-7.91-.02-1.07-.03-1.84-.51-1.84-1.81,0-1.37.82-1.31,1.87-1.54,4.84-1.07,9.74-.9,14.63-.9,1.45,0,2.57.24,2.61,2.1.03,1.78-.93,2.32-2.44,2.34-2.31.03-4.62,0-6.93,0,0-.06,0-.12,0-.18Z"/>
  <path class="cls-2" d="m406.13,753.58c1.85,0,2.84-.02,3.83,0,.99.03,2.03,0,2.08,1.44.05,1.16-.58,1.99-1.56,2.24-2.35.59-4.74,1.05-7.14,1.4-1.58.23-2.97-.23-3.4-2.04-.52-2.22,1.46-2.33,2.66-2.7,1.37-.43,2.92-.3,3.52-.34Z"/>
  <path class="cls-2" d="m368.85,623.4c0,2.49.17,5-.05,7.47-.2,2.18,1.41,5.78-2.6,5.75-3.69-.02-2.19-3.44-2.31-5.46-.23-3.81-.19-7.64-.05-11.45.09-2.39-.24-3.8-2.86-2.09-1.67,1.09-3.34,2.01-4.63-.21-1.52-2.62,1.33-2.83,2.5-3.87.98-.88,2.1-1.68,3.29-2.23,4.32-1.99,6.5-.6,6.61,4.12.03,1.33.02,2.66.02,3.99,0,1.33,0,2.66,0,3.99h.09Z"/>
  <path class="cls-2" d="m351.17,624.06c0,2.83-.19,5.67.06,8.47.23,2.52-.96,4.11-3.09,4.04-2.08-.07-1.2-2.35-1.24-3.65-.15-4.32-.13-8.64-.11-12.97,0-2.38-.14-4.44-3.1-2.01-1.59,1.3-3.06,1.41-4.3-.21-1.57-2.05.32-2.91,1.63-3.85.81-.58,1.72-1.01,2.53-1.59,2.01-1.42,4.34-2.35,6.53-1.21,2.14,1.11.97,3.6,1.08,5.48.15,2.49.04,4.99.04,7.48h-.03Z"/>
  <path class="cls-2" d="m737.04,699.52c1.87,2.07,4.34.81,6.51,1.1,1.37.18,3.18-.59,3.1,1.91-.06,1.9-1.4,2-2.77,2-3.65,0-7.3.14-10.93-.1-3.89-.26-4.47-1.82-1.87-5.02,2.72-3.34,5.74-6.43,8.47-9.76,1.4-1.71,3.58-3.69,1.29-6.01-1.99-2.01-3.89-.66-5.53,1.03-1.63,1.68-4.16,1.85-5.35.43-1.66-1.98,1.08-3.08,2.25-4.16,3.61-3.33,8.78-3.3,12.06-.2,3.28,3.1,3.2,6.38-.45,10.92-2.15,2.67-4.48,5.21-6.76,7.85Z"/>
  <path class="cls-2" d="m718.77,700.66c3.1,0,4.91.06,6.72-.02,1.37-.06,2.14.31,2.28,1.85.15,1.67-.68,1.98-2.05,1.97-3.66-.02-7.33.2-10.97-.05-3.68-.25-4.24-2.13-1.81-4.83,2.33-2.6,4.77-5.1,7.12-7.68,1-1.1,2.01-2.23,2.84-3.46,1.26-1.88,1.36-3.88-.62-5.28-1.91-1.35-3.54-.48-4.47,1.45-1,2.06-2.5,2.84-4.38,1.53-2.36-1.65-.48-3.25.57-4.58,2.63-3.35,7.83-4.05,11.21-1.67,3.1,2.19,3.9,7.25,1.36,10.97-2.11,3.09-4.65,5.89-7.79,9.81Z"/>
  <path class="cls-2" d="m426.26,615.51c-2.87.88-5.19,4.58-6.97,1.59-1.82-3.06,2.41-3.56,4.06-5.05,1.88-1.7,4.41-1.97,6.52-.87,1.9.98.88,3.31,1.03,5.04.49,5.91-1,11.93,1.1,17.75.34.95.16,2.17-1,2.48-1.93.52-4.55,1.11-5.52-.72-1.19-2.25-1.8-2.27-3.61-.9-.73.55-2.51,1-2.92-.56-.36-1.38,1.08-2.26,2.19-2.03,5.81,1.19,5.11-2.78,5.13-6.22.01-3.3,0-6.6,0-10.52Z"/>
  <path class="cls-2" d="m815.43,625.51c-4.82,1.78-8.66.97-11.48-3.25-1.77-2.66-1.93-4.98-.21-7.71,1.95-3.07,4.55-5.04,8.15-4.56,6.87.92,8.35,3.35,8.75,10.6.57,10.44-4.05,13.53-9.16,15.76-2.14.94-3.97.74-4.72-1.75-.76-2.53,1.24-3.29,3.02-3.57,2.91-.46,5-1.56,5.64-5.52Zm-3.16-3.82c2.39.51,3.3-.63,3.26-3.22-.04-2.73-1.14-3.77-3.86-3.72-2.3.04-3.32.98-3.32,3.19,0,2.46.72,4.23,3.92,3.74Z"/>
  <path class="cls-2" d="m355.01,693.96c-.07-4.23.46-7.92,2.7-11.13,2.66-3.81,7.69-5.37,11.93-3.82,1.14.42,2.19,1,2.29,2.33.11,1.57-1.5,1.82-2.35,2.07-1.54.45-3.27.25-4.92.36-2.21.14-3.52,1.75-3.48,3.54.05,2.19,2.29,1.3,3.53,1.29,3.65-.03,6.56.71,7.41,4.89.91,4.46.61,8.29-3.93,10.88-4.01,2.29-7.26,1.24-10.11-1.8-2.33-2.49-3.72-5.45-3.07-8.61Zm9.11-1.22c-2.49-.41-3.81,1.1-3.96,3.55-.16,2.67,1.17,4.41,4.02,4.43,2.61.02,3.84-1.49,3.91-4.01.07-2.53-.93-4.1-3.97-3.96Z"/>
  <path class="cls-2" d="m737.77,609.78c.66,0,1.37-.15,1.98.03,1.75.53,5.06-1.56,4.9,2.13-.14,3.32-3.32,1.64-5.16,2.1-.78.2-1.65.09-2.48.05-1.86-.09-3.18.2-3.28,2.59-.1,2.36,1.07,2.57,2.99,2.8,8.42.99,9.9,6.95,7.84,11.88-1.46,3.49-4.61,4.6-7.77,5.35-3.35.8-6.03-.88-8.09-3.52-.62-.8-1.29-1.76-.8-2.72.67-1.29,2.13-.86,3.13-.65,1.23.26,2.29,1.23,3.5,1.67,1.85.67,3.62.38,5.05-1.07,1.2-1.21,1.25-2.64.6-4.14-.73-1.68-1.96-2.64-3.87-2.55-.5.02-1.03.15-1.49.01-1.89-.57-3.8,2.25-5.49.23-1.77-2.11-.93-4.86-.58-7.19,1.03-7.06,1.19-7.03,9-7.01Z"/>
  <path class="cls-2" d="m355.18,542.74c-1.72.51-2.78.91-3.88,1.14-1.19.24-2.34.15-2.95-1.17-.63-1.38.25-2.23,1.19-2.91,1.47-1.06,2.96-2.18,4.59-2.95,4.03-1.92,5.92-.79,6.03,3.66.15,6.47.12,12.94.23,19.41.03,2.04-.41,3.8-2.71,3.92-2.81.15-2.44-2.21-2.46-3.93-.08-5.59-.03-11.18-.03-17.16Z"/>
  <path class="cls-2" d="m803.92,691.49c.86-2.65,1.55-5.33,2.59-7.88,1.38-3.38,3.84-5.09,7.75-4.98,3.77.11,5.91,2.06,7.05,5.24,1.9,5.32,1.57,10.69-.15,16.04-1.56,4.86-6.25,4.1-9.51,4.45-2.58.28-4.95-2.86-6.01-5.74-.34-.93-.26-1.96-1.74-2.48-1.6,3.12-2.28,6.81-6.42,8.73-4.28,1.99-6.16-.92-8.54-2.67-1.18-.87-.32-2.43,1.55-2.46,1.82-.03,3.65-.09,5.47-.1,2.02,0,2.45-1.35,2.59-2.96.19-2.14-1.39-1.82-2.67-1.9-.5-.03-1.02.08-1.49-.04-2.96-.77-8.09,2.52-7.96-4.08.14-7.06,4.43-12.18,9.74-11.98,4.5.17,5.74,3.19,6.33,6.92.32,2-.96,4.4,1.42,5.89Zm13.57-.39c0-.5,0-1,0-1.5-.06-2.86-.02-6.66-3.5-6.62-3.09.04-4.42,3.43-4.44,6.68,0,.5.04,1-.02,1.49-.47,3.88.55,8.97,3.9,8.98,4.59.01,3.99-5.33,4.06-9.04Zm-23.05-.42c2.1.09,4.25,0,4.03-2.86-.15-2.03-.55-4.89-2.94-4.84-2.99.06-3.2,3.32-3.81,5.61-.64,2.43,1.31,2.04,2.72,2.09Z"/>
  <path class="cls-3" d="m808.68,554.1c0,2-1.32,3.48-3.87,3.65-2.96.19-4.87-1.53-5.09-4.25-.21-2.53,1.59-3.63,4.21-3.63,2.65,0,4.63.51,4.75,4.23Z"/>
  <path class="cls-3" d="m804.32,543.92c-2.24-.18-3.67-1.38-3.64-3.37.05-2.46,1.65-3.63,4.22-3.62,2.28,0,3.44,1.11,3.47,3.2.04,2.69-1.92,3.48-4.05,3.79Z"/>
  <path class="cls-1" d="m558.82,498.46c5-.72,9.98-.92,14.95.26-.05,2.18.39,3.67,3.04,4.26,9.34,2.06,19.43,2,27.04,9.28,1.52,1.45,4.18.24,5.92,2.11,6.67,7.16,14.93,12.59,20.12,21.5,2.61,4.49,6.24,8.55,9.14,13.22,8.16,13.16,8.95,27.29,8.83,41.91-.08,9.89-2.33,19.45-3.97,29.11-.16.95.53,1.5,1.34,1.87-.26,1.11-.35,2.3-1.34,3.1-2.56-2.78-4.23-.41-4.81,1.43-2.82,8.91-9.57,15.5-14.06,23.41-5.66,9.96-9.75,20.82-16.74,30.12-4.93,6.57-8.55,14.14-12.77,21.19-3.2,5.34-6.74,10.83-10.74,15.77-5.44,6.7-7.22,15.39-12.63,22.09-2.35,2.91-6.32,5.41-8.65,4.86-6.17-1.47-4.56-8.73-7.24-13.07-1.35-2.18.86-3.14,2.14-4.37,1.82-1.73,1.93-3.8.7-5.89-1.01-1.72-2.42-1.72-4.28-1.16-1.96.59-6.51,3.73-3.45-2.77.71-1.5-2-2.77-3.19-4.1-.87-.97-3.05-1.45-.94-3.33.66-.59.76-1.85-.09-2.16-3.72-1.36-4.02-4.99-5.58-7.82-.79-1.44-1.78-2.59-3.98-2.11-1.99.43-4.54-.33-4.19-2.78.33-2.32,2.7-1.78,4.54-1.21.41.13.91-.04,1.77-.09-1.38-1.58-2.85-2.74-3.61-4.25-1.68-3.38-2.51-2.91-3.33.38-.65,2.6-2.06,2.77-3.89.98-1.08-1.06-2.23-2.11-1.89-3.83.43-2.18,2.23-1.55,3.61-1.65,1.48-.11,3.3.19,3.78-1.62.47-1.77-1.15-2.64-2.46-3.3-1.69-.85-2.89-2-3.95-3.6-1.41-2.12-3.52-3.46-6.3-2.88-1,.21-2.06.59-2.49-.69-.44-1.29.7-1.57,1.55-2.1,2.16-1.33,2.43-3.5,1.97-5.71-2.17-10.32-9.13-17.41-16.52-24.19-.52-.47-1.25-.81-1.72-.23-.33.41-.45,1.34-.2,1.78.48.84,1.17,1.68,1.98,2.17,2.01,1.23,1.73,3.04,1.48,4.86-.17,1.25-1.19,1.57-2.23,1.42-1.71-.24-2.62-1.42-3.81-2.69-4-4.27,2.13-10.8-3.53-14.48-.07-.04.2-.59.31-.9.83-2.28.37-3.96-1.62-5.65-2.49-2.11-1.77-6.75-4.05-8.22-6.22-4.01,2.34-3.9,1.41-6.32-.29-.76.67-1.91.58-2.84-.93-9.33-5.92-17.66-6.67-27.07-.08-.98-1.17-1.97-1.96-2.79-3.61-3.79-3.19-5.63,1.74-6.84,1.18-.29,2.4-.44,2.63-1.82.2-1.25-.47-2.41-1.54-2.9-1.57-.71-3.53-1.24-2.78-3.35.76-2.15,2-4.19,5-3.97,3.25.24,3.93-1.9,3.65-4.55-.14-1.3-.64-2.57-.85-3.87-.62-3.79,2.26-12.18,4.58-12.31,4.35-.25,4.71-2.47,6.23-6.12,1.28-3.07,4.49-6.97,7.17-9.41,2.97-2.72,7.24-4.95,10.99-7.32,2.41-1.53,4.87-2.87,7.89-1.85,1.67.56,3.06-.08,3.77-1.53,3.07-6.3,8.79-7.34,14.92-7.98,4.53-.47,8.15-2.5,9.29-7.41Zm47.27,118.36c1.73,1.07,3.89,1.84,5.12,0,1.1-1.65-.38-3.25-2-4.24.45-.62.9-1.23,1.35-1.85,3.95-1.02,6.08-4.37,6.91-7.59,1.12-4.32,1.1-9.09,3.18-13.05,3.24-6.15,1.93-12.23-.05-17.93-1.28-3.69-1.91-6.94-.61-10.44.77-2.07.31-3.14-1.24-4.66-4.71-4.62-9.09-9.56-13.66-14.33-5.64-5.9-12.34-10.3-20-13.04-2.7-.97-5.98-2.59-8.3,1.08-1.33,0-2.66-.02-4-.03-.02-1.33.08-3.06-1.44-3.33-5.69-1.01-11.44-1.24-17.15-.09-1.89.38-2.6,1.84-2.32,3.75-.47.91-1.25.83-2.06.65-.72-2.73-2.8-1.91-4.43-1.49-5.33,1.39-10.22,2.67-14.48,7.39-3.46,3.83-7.3,7.82-11.21,11.45-3.9,3.62-6.2,9.26-8.33,14.38-1.16,2.8-1.5,6.43.61,9.45-.09.65-.18,1.3-.27,1.95-.48.27-1.31.48-1.38.83-.19,1.02.75,1.03,1.46,1.17-1.22,3.54-.82,7.21-.86,10.85-1.76,4.82-2.49,10.32-.07,14.44,4.15,7.06,6.94,15.2,14.05,20.39,2.2,1.6,4.05,2.7,6.71,1.94.45.34.89.67,1.34,1.01,0,3.98,1.71,7.82,5.26,8.65,6.5,1.51,12.33,5.97,19.49,4.67,2.02-.36,3.94.34,5.8,1.05,3.05,1.16,6.07.99,9.25.51,6.8-1.03,12.56-4.95,19.13-6.52,4.42-1.06,7.94-3.91,11.24-6.53,2.68-2.13,5.29-5.81,2.67-10.08l.29-.39Zm8.68,5.84c1.39-1.84,1.11-3.13-.21-4.2-.26-.21-1.14-.14-1.26.07-.96,1.65.17,2.72,1.48,4.13Z"/>
  <path class="cls-3" d="m558.82,498.46c-1.15,4.91-4.76,6.94-9.29,7.41-6.12.64-11.85,1.68-14.92,7.98-.71,1.45-2.1,2.1-3.77,1.53-3.02-1.02-5.48.32-7.89,1.85-3.75,2.38-8.02,4.6-10.99,7.32-2.67,2.45-5.89,6.34-7.17,9.41-1.52,3.65-1.87,5.87-6.23,6.12-2.32.13-5.2,8.52-4.58,12.31.21,1.3.71,2.56.85,3.87.28,2.65-.4,4.8-3.65,4.55-2.99-.22-4.24,1.82-5,3.97-.75,2.11,1.21,2.64,2.78,3.35,1.07.48,1.74,1.65,1.54,2.9-.22,1.39-1.45,1.53-2.63,1.82-4.93,1.22-5.35,3.06-1.74,6.84.79.83,1.88,1.81,1.96,2.79.76,9.4,5.74,17.74,6.67,27.07.09.92-.87,2.08-.58,2.84.93,2.42-7.63,2.31-1.41,6.32,2.28,1.47,1.56,6.11,4.05,8.22,1.99,1.69,2.45,3.37,1.62,5.65-.11.31-.38.86-.31.9,5.66,3.68-.48,10.21,3.53,14.48,1.19,1.27,2.1,2.45,3.81,2.69,1.04.15,2.07-.17,2.23-1.42.24-1.81.52-3.63-1.48-4.86-.81-.5-1.5-1.34-1.98-2.17-.25-.44-.13-1.37.2-1.78.47-.58,1.2-.24,1.72.23,7.39,6.78,14.35,13.87,16.52,24.19.46,2.2.19,4.37-1.97,5.71-.86.53-1.99.81-1.55,2.1.44,1.28,1.49.9,2.49.69,2.78-.59,4.89.76,6.3,2.88,1.06,1.6,2.27,2.75,3.95,3.6,1.31.66,2.92,1.53,2.46,3.3-.48,1.81-2.29,1.52-3.78,1.62-1.39.1-3.19-.53-3.61,1.65-.34,1.73.82,2.78,1.89,3.83,1.83,1.79,3.24,1.62,3.89-.98.82-3.29,1.65-3.76,3.33-.38.75,1.51,2.23,2.67,3.61,4.25-.86.05-1.36.22-1.77.09-1.83-.58-4.21-1.11-4.54,1.21-.35,2.45,2.2,3.21,4.19,2.78,2.2-.48,3.19.67,3.98,2.11,1.56,2.83,1.86,6.46,5.58,7.82.85.31.75,1.57.09,2.16-2.1,1.87.07,2.36.94,3.33,1.19,1.33,3.9,2.6,3.19,4.1-3.06,6.5,1.49,3.37,3.45,2.77,1.86-.56,3.28-.57,4.28,1.16,1.22,2.09,1.11,4.16-.7,5.89-1.28,1.22-3.49,2.19-2.14,4.37,2.68,4.34,1.07,11.59,7.24,13.07,2.32.55,6.3-1.95,8.65-4.86,5.41-6.7,7.2-15.39,12.63-22.09,4.01-4.94,7.54-10.43,10.74-15.77,4.22-7.05,7.84-14.62,12.77-21.19,6.98-9.31,11.08-20.16,16.74-30.12,4.49-7.91,11.24-14.49,14.06-23.41.58-1.84,2.25-4.21,4.81-1.43-3.28,9.33-8.7,17.54-13.7,25.94-20.24,34.01-40.49,68.01-61.47,101.57-2.37,3.79-3.49,3.75-5.81.08-22.75-35.98-45.58-71.91-67.04-108.68-7.63-13.07-14.04-26.82-16.62-41.72-2.29-13.21-2-26.57,2.46-39.72,8.33-24.56,22.88-43.64,46.34-55.36,9.69-4.84,19.86-8.16,30.79-8.72Z"/>
  <path class="cls-3" d="m645.22,621.98c-.8-.37-1.5-.92-1.34-1.87,1.64-9.66,3.89-19.22,3.97-29.11.12-14.62-.67-28.75-8.83-41.91-2.89-4.67-6.53-8.73-9.14-13.22-5.19-8.92-13.45-14.34-20.12-21.5-1.74-1.87-4.4-.66-5.92-2.11-7.61-7.29-17.7-7.22-27.04-9.28-2.65-.59-3.1-2.08-3.04-4.26,13.51.89,25.82,5.41,36.95,12.9,19.32,13.01,31.81,30.8,38.3,53.32,5.67,19.69,3.2,38.41-3.8,57.03Z"/>
  <path class="cls-3" d="m660.27,543.33c-.64,2.55,2.26,5.74-1.23,7.63-.88.47-2.35.56-2.66-.41-1.1-3.49,2.51-4.78,3.89-7.21Z"/>
  <path class="cls-3" d="m668.7,691.59c0,.83-.02,1.65,0,2.48.09,2.81.52,6.26-3.34,6.41-3.44.13-3.81-3.48-4.53-5.97-.89-3.09.37-6.17,1.19-9.11.39-1.39,1.78-2.93,3.7-2.7,1.9.22,2.79,1.77,3,3.46.22,1.79.05,3.62.05,5.43-.03,0-.05,0-.08,0Z"/>
  <path class="cls-3" d="m369.03,755.77c0,1,0,1.99,0,2.99.03,3.12-1.76,5.41-4.53,5.56-2.9.16-3.15-2.97-3.35-5.15-.25-2.79-.13-5.65.15-8.45.18-1.85,1.08-3.78,3.16-4.02,2.42-.28,3.5,1.72,4.07,3.66.51,1.72.54,3.59.78,5.39-.09,0-.18.01-.27.02Z"/>
  <path class="cls-3" d="m812.27,621.7c-3.21.49-3.92-1.29-3.92-3.74,0-2.21,1.02-3.15,3.32-3.19,2.72-.05,3.82.99,3.86,3.72.04,2.58-.87,3.73-3.26,3.22Z"/>
  <path class="cls-3" d="m364.12,692.75c3.04-.14,4.04,1.43,3.97,3.96-.07,2.52-1.29,4.04-3.91,4.01-2.86-.03-4.19-1.76-4.02-4.43.15-2.45,1.47-3.96,3.96-3.55Z"/>
  <path class="cls-3" d="m817.5,691.1c-.08,3.71.52,9.05-4.07,9.04-3.35-.01-4.37-5.1-3.9-8.98.06-.49.02-1,.02-1.49.02-3.25,1.34-6.65,4.44-6.68,3.49-.04,3.44,3.76,3.5,6.62.01.5,0,1,0,1.5Z"/>
  <path class="cls-3" d="m794.44,690.69c-1.41-.05-3.36.34-2.72-2.09.6-2.29.82-5.55,3.81-5.61,2.39-.05,2.79,2.81,2.94,4.84.21,2.86-1.93,2.95-4.03,2.86Z"/>
  <path class="cls-2" d="m510.92,587.69c.04-3.64-.36-7.3.86-10.85-.03-.67-.05-1.33-.08-2,.09-.65.18-1.3.27-1.95,2.3-2.74,2.49-6.35,3.94-9.46,7.05-15.16,18.26-25.78,33.9-31.72.81.18,1.59.26,2.06-.65,6.96-.59,13.91-2.37,20.92-.32,1.33,0,2.66.02,4,.03,1.47.65,2.89,1.5,4.42,1.91,20.52,5.4,35.99,26.93,36.62,49.34.29,10.41-2.35,19.78-7.27,28.72-.45.62-.9,1.23-1.35,1.85-1.04,1.41-2.08,2.83-3.11,4.24,0,0-.29.39-.29.39-2.69,2.45-5.19,5.16-8.11,7.3-13.95,10.17-29.21,13.86-46.34,9.81-6.92-1.64-12.49-5.44-18.4-8.85-.45-.34-.89-.67-1.34-1.01-9.14-8.24-15.41-18.19-18.98-30.05-.67-2.23.87-5.06-1.7-6.73Zm95.66-7.85c1.02-4.54-1.66-8.26-2.82-12.29-5.14-17.81-27.48-30.47-46.28-26.63-19.25,3.93-35.07,24.82-35,42.78.1,25.44,26.85,46.37,49.93,41.24,21.5-4.79,35.43-22.08,34.18-44.07,0-.34,0-.68,0-1.02Z"/>
  <path class="cls-3" d="m610.55,610.73c4.92-8.94,7.57-18.31,7.27-28.72-.63-22.41-16.1-43.94-36.62-49.34-1.53-.4-2.95-1.26-4.42-1.91,2.32-3.67,5.6-2.05,8.3-1.08,7.66,2.74,14.35,7.14,20,13.04,4.56,4.77,8.95,9.71,13.66,14.33,1.55,1.52,2.01,2.59,1.24,4.66-1.3,3.5-.67,6.74.61,10.44,1.98,5.7,3.29,11.79.05,17.93-2.09,3.96-2.07,8.73-3.18,13.05-.83,3.22-2.96,6.57-6.91,7.59Z"/>
  <path class="cls-3" d="m532.95,625.47c5.91,3.41,11.48,7.21,18.4,8.85,17.13,4.05,32.39.36,46.34-9.81,2.92-2.13,5.42-4.85,8.11-7.3,2.62,4.27.02,7.95-2.67,10.08-3.3,2.62-6.83,5.47-11.24,6.53-6.57,1.57-12.33,5.5-19.13,6.52-3.18.48-6.21.65-9.25-.51-1.86-.71-3.78-1.41-5.8-1.05-7.16,1.29-12.99-3.16-19.49-4.67-3.55-.83-5.26-4.67-5.26-8.65Z"/>
  <path class="cls-3" d="m549.81,531.71c-15.64,5.94-26.85,16.56-33.9,31.72-1.45,3.11-1.64,6.72-3.94,9.46-2.11-3.02-1.77-6.65-.61-9.45,2.13-5.12,4.43-10.76,8.33-14.38,3.92-3.64,7.75-7.62,11.21-11.45,4.26-4.72,9.15-6,14.48-7.39,1.63-.43,3.71-1.24,4.43,1.49Z"/>
  <path class="cls-3" d="m510.92,587.69c2.57,1.67,1.03,4.5,1.7,6.73,3.58,11.85,9.85,21.81,18.98,30.05-2.65.76-4.51-.34-6.71-1.94-7.11-5.19-9.9-13.33-14.05-20.39-2.42-4.12-1.69-9.62.07-14.44Z"/>
  <path class="cls-3" d="m572.79,530.74c-7.01-2.05-13.95-.27-20.92.32-.28-1.9.44-3.37,2.32-3.75,5.71-1.14,11.46-.92,17.15.09,1.53.27,1.43,2.01,1.44,3.33Z"/>
  <path class="cls-3" d="m606.09,616.83c1.04-1.41,2.08-2.83,3.11-4.24,1.62.99,3.1,2.6,2,4.24-1.23,1.84-3.39,1.07-5.12,0Z"/>
  <path class="cls-3" d="m614.77,622.67c-1.31-1.42-2.44-2.48-1.48-4.13.12-.21,1.01-.28,1.26-.07,1.33,1.07,1.61,2.37.21,4.2Z"/>
  <path class="cls-3" d="m511.7,574.84c.03.67.05,1.33.08,2-.71-.14-1.65-.15-1.46-1.17.06-.35.9-.56,1.38-.83Z"/>
  <path class="cls-1" d="m606.58,579.84c0,.34,0,.68,0,1.02-1.84,1.09-2.27,2.85-2.99,4.8-3.85,10.48-4.83,23.08-18.62,26.74-1.13.3-2.06,1.65-2.92,2.65-1.47,1.7-3.4,2.47-5.39,3.36-6.58,2.92-13.15.87-19.54-.21-5.28-.89-7.31-6.55-5.03-11.41.84-1.79-.2-2.54-1.6-2.83-1.28-.27-2.65-.13-3.98-.15-6.52-.08-7.17-.66-7.7-7.3-.22-2.79-.98-4.89-4.38-4.72-2.3.11-3.16-1.36-2.31-3.21,1.44-3.13-.5-4.66-2.47-6.23-1.09-.87-2.32-1.57-1.37-3.17.68-1.14,1.58-2.43,3.12-1.94,6.24,1.98,3.97-1.92,3.18-4.61-.42-1.42-1.13-2.78-1.92-4.04-1.29-2.08-.6-3.89.7-5.49,1.41-1.74,3.17-1.5,4.86-.28.83.6,1.74,1.3,2.71.67,1.31-.85.5-2.03.19-3.12-.62-2.23-.27-4.09,2.42-4.43,3.33-.42,4.77-2.28,5.39-5.5.54-2.78,2.51-3.47,4.74-1.49,1.99,1.76,3.81,4.06,3.31-1.14-.16-1.67,1.03-2.18,2.24-1.58,2.68,1.33,4.85.09,7.05-1.05,3.57-1.86,13.68-.1,14.29,2.53,1.47,6.29,6.5,5.99,10.77,7.56,4.59,1.69,6.29,5.1,4.42,9.33-1.07,2.41-.38,3.92,1.32,5.11,3.71,2.59,7.12,5.33,8.58,9.85.06.18.6.19.92.28Zm-10.38-4.17c.69-.06,1.28-.28,1.35-1.07.05-.66-.09-1.44-.94-1.29-.52.09-1.15.61-1.36,1.1-.27.65.14,1.2.95,1.26Z"/>
  <path class="cls-3" d="m606.58,579.84c-.32-.09-.86-.11-.92-.28-1.45-4.52-4.87-7.27-8.58-9.85-1.7-1.19-2.39-2.7-1.32-5.11,1.87-4.22.17-7.64-4.42-9.33-4.27-1.57-9.3-1.27-10.77-7.56-.61-2.63-10.71-4.39-14.29-2.53-2.2,1.15-4.37,2.38-7.05,1.05-1.21-.6-2.4-.08-2.24,1.58.5,5.2-1.32,2.9-3.31,1.14-2.23-1.98-4.2-1.29-4.74,1.49-.62,3.22-2.07,5.08-5.39,5.5-2.69.34-3.04,2.2-2.42,4.43.3,1.09,1.12,2.27-.19,3.12-.97.63-1.88-.08-2.71-.67-1.69-1.22-3.45-1.46-4.86.28-1.3,1.61-1.99,3.41-.7,5.49.78,1.26,1.5,2.63,1.92,4.04.79,2.69,3.06,6.59-3.18,4.61-1.54-.49-2.45.8-3.12,1.94-.95,1.6.28,2.31,1.37,3.17,1.96,1.57,3.9,3.09,2.47,6.23-.85,1.85.02,3.32,2.31,3.21,3.41-.17,4.16,1.93,4.38,4.72.52,6.64,1.17,7.22,7.7,7.3,1.33.02,2.7-.12,3.98.15,1.4.29,2.44,1.04,1.6,2.83-2.28,4.86-.25,10.52,5.03,11.41,6.38,1.07,12.96,3.13,19.54.21,2-.89,3.92-1.66,5.39-3.36.86-1,1.79-2.35,2.92-2.65,13.79-3.66,14.77-16.27,18.62-26.74.72-1.95,1.15-3.71,2.99-4.8,1.25,21.99-12.68,39.29-34.18,44.07-23.08,5.14-49.82-15.8-49.93-41.24-.07-17.96,15.75-38.85,35-42.78,18.8-3.84,41.14,8.82,46.28,26.63,1.16,4.04,3.85,7.75,2.82,12.29Z"/>
  <path class="cls-3" d="m596.2,575.67c-.81-.05-1.22-.61-.95-1.26.21-.49.84-1.01,1.36-1.1.85-.15.99.63.94,1.29-.06.78-.66,1.01-1.35,1.07Z"/>
</svg>