<?xml version="1.0" encoding="UTF-8"?>
<svg id="Layer_1" data-name="Layer 1" xmlns="http://www.w3.org/2000/svg" viewBox="0 0 1161.92 1233.28">
  <defs>
    <style>
      .cls-1 {
        fill: #fff;
      }

      .cls-2 {
        fill: #41454d;
      }

      .cls-3 {
        fill: #845cf8;
      }
    </style>
  </defs>
  <path class="cls-2" d="m563.46,1036.68c-5.26-1.14-10.59-.42-15.88-.49-11.81-.17-23.63-.33-35.44-.12-12.28.22-21.95-10.25-24.03-20.76-2.54-12.79-4.78-25.64-7-38.49-.6-3.5-1.89-5.49-5.69-6.59-19.17-5.51-37.4-13.63-55.38-22.07-5.86-2.75-8.68-1.93-12.9,1.59-8.39,7-17.07,13.66-25.76,20.29-14.02,10.69-25.82,10.14-38.19-2.32-14.42-14.52-28.62-29.27-42.58-44.23-11.75-12.59-10.97-23.78.1-37.22,7.6-9.23,15.33-18.36,23.2-27.37,2.03-2.32,2.37-4.22.92-6.88-10.76-19.66-19.18-40.3-25.58-61.77-.73-2.43-2.19-3.32-4.88-3.68-10.93-1.46-21.83-3.23-32.69-5.15-4.59-.81-9.27-1.32-13.51-3.74-8.73-4.96-13.63-11.96-13.57-22.33.13-23.48.02-46.95.05-70.43.02-11.16,10.35-20.72,23.01-22.14,12.03-1.34,24-3.21,35.97-5.07,2.48-.39,4.44-1.55,5.33-4.77,6.23-22.45,15.32-43.81,25.78-64.59.81-1.62.5-2.24-.42-3.33-9.35-11.16-18.15-22.74-26.66-34.55-7.08-9.82-7.92-23.67,2.48-34.06,14.46-14.45,28.87-28.96,42.87-43.85,10.73-11.42,26.52-11.1,37.81-1.6,9.65,8.12,19.72,15.73,29.57,23.61,1.51,1.21,2.66,2.04,4.8.83,18.69-10.53,38.49-18.55,58.95-24.84,4.38-1.35,6.35-3.8,6.96-7.98,1.99-13.56,3.75-27.15,6.09-40.65,2.19-12.65,11.92-22.32,25.08-22.47,21.96-.25,43.97-.88,65.87.26,14.38.75,21.71,8.06,23.87,25.07,1.4,11,3.66,21.9,5.55,32.84.11.65.49,1.32.4,1.93-1.06,8.03,4.05,10.57,10.49,12.41,19.16,5.5,37.3,13.61,55,22.66,3.07,1.57,4.99,1.48,7.48-.58,9.22-7.61,18.8-14.79,27.75-22.7,12.3-10.87,28.22-9.4,38.77,1.84,12.84,13.69,26.11,26.99,39.39,40.26,11.25,11.25,14.03,26.49,2.27,41.34-7.73,9.76-15.1,19.81-22.78,29.63-1.51,1.93-1.89,3.3-.79,5.71,6.97,15.25,14.25,30.38,19.35,46.42,1.82,5.72,3.39,11.5,5.49,17.15,1.09,2.92,2.75,3.75,5.26,4.14,14.31,2.23,28.79,3.43,42.89,6.98,8.31,2.09,15.56,11.49,16.02,20.12,1.22,22.6.59,45.22.61,67.83.02,16.42-8.41,25.67-24.66,28.09-11.63,1.73-23.19,3.97-34.8,5.9-3.56.59-5.14,2.18-6.36,5.99-4.58,14.26-9.82,28.32-16.22,41.91-2.94,6.24-5.69,12.58-8.78,18.73-.95,1.89-.6,2.87.64,4.31,7.01,8.14,13.82,16.45,20.89,24.55,5.29,6.06,9.68,12.5,10.66,20.72.87,7.34-1.53,13.86-6.37,19.06-13.02,13.99-26.35,27.68-39.65,41.4-4.81,4.96-9.23,10.33-16.4,12.42-7.42,2.16-14.24,2.07-20.78-2.47-11.89-8.25-22.82-17.72-34.15-26.7-2.32-1.84-3.82-1.88-6.48-.57-19.16,9.4-38.56,18.3-59.33,23.61-4.14,1.06-4.75,3.97-5.34,7.08-2.45,12.99-4.84,25.99-7.07,39.01-1.49,8.71-11.78,21.41-26.49,20.23-1.36-.37-2.73-.68-4.02.23-2.34-.08-4.7-.57-6.98.39,0,0-.03,0-.03,0Zm15-613.97c-.04-1.97-1.12-1.46-2.21-.93-19.3-.08-38.59-.19-57.89-.24-7.66-.02-7.81.01-9.21,7.49-2.46,13.15-4.96,26.3-6.97,39.52-1.5,9.87-5.55,17.49-15.34,21.11-2.94,1.08-5.93,2.01-8.91,2.97-18.29,5.93-35.79,13.68-52.76,22.7-5.65,3-11.73,5.43-18.32,2.68-4.05-1.69-7.99-3.55-11.46-6.41-10.11-8.37-20.43-16.49-30.52-24.87-2.14-1.78-3.3-1.77-5.24.23-14.55,15.07-29.17,30.07-43.88,44.98-2.2,2.23-2.23,3.72-.31,6.17,8.92,11.3,17.85,22.61,26.38,34.2,6.31,8.58,7.49,17.77,2.24,27.67-3.16,5.95-6.34,11.95-9.11,18.08-6.44,14.24-11.31,29.06-15.51,44.14-1.88,6.77-6.11,11.93-13.29,14.96-7.45,3.15-15.22,3.27-22.85,4.62-8.06,1.43-16.2,2.39-24.32,3.51-2.73.38-3.53,1.7-3.6,4.57-.12,4.68,1.09,9.18,1.07,13.82-.09,16.15.03,32.3-.03,48.45-.01,3.83-.49,7.23,5.37,7.09,1.89-.05,4.46.55,6.66.96,9.56,1.79,19.21,3.06,28.84,4.46,10.46,1.52,18.8,4.96,22.36,17.42,2.41,8.42,5.46,16.67,8.48,24.9,4.17,11.35,9.78,22.05,15.3,32.78,6.13,11.9,5.91,23.28-3.15,33.85-7.14,8.32-14.14,16.75-21.26,25.09-1.7,1.99-4.76,3.58-5.16,5.73-.49,2.59,3.36,3.49,4.99,5.43,12.92,15.37,27.4,29.26,41.27,43.73,2.31,2.41,3.69,2.14,6.11.19,9.55-7.72,19.47-14.99,28.94-22.81,11.41-9.42,23.18-9.57,35.84-2.88,15.65,8.28,31.82,15.46,48.98,19.97,11.04,2.9,20.13,7.5,22.15,20,2.29,14.18,5.14,28.26,7.77,42.37.64,3.46,1.9,3.94,4.73,3.93,20.3-.09,40.6-.12,60.9-.11,2.08,0,3.06-.23,3.5-2.81,2.1-12.52,4.92-24.93,6.83-37.47,2-13.12,8.21-21.72,21.54-25.46,18.1-5.09,35.63-11.93,52.2-20.95,11.87-6.47,23.26-5.94,33.99,2.26,10.18,7.77,20.16,15.81,30.11,23.88,2.15,1.74,3.43,2.35,5.69-.03,14.74-15.57,29.58-31.03,44.54-46.38,2.14-2.19,1.38-3.38-.05-5.31-4.75-6.4-11.05-11.39-15.58-18.06-4.28-6.29-10.02-11.52-13.79-18.29-3.91-7.01-3.95-14.03-.44-21,9.41-18.7,18.15-37.63,23.76-57.9,3.04-10.97,9.04-19.6,21.17-21.67,13.55-2.32,27.17-4.25,40.78-6.26,2.49-.37,3.77-1.19,3.77-4.01-.06-21.98-.02-43.95.06-65.93,0-2-.43-2.74-2.66-3.06-12.76-1.8-25.44-4.16-38.22-5.78-10.91-1.38-19.66-8.44-23.15-18.95-1.64-4.94-2.88-9.97-4.44-14.92-5.5-17.42-12.82-34.08-21.36-50.19-2.69-5.08-2.57-10.03-.51-14.95,1.91-4.56,4.63-8.74,7.67-12.69,7.69-9.97,15.27-20.02,22.96-30,1.54-1.99,2.8-3.79.56-6.08-15.01-15.35-30.01-30.7-45.01-46.06-1.36-1.39-2.32-1.61-4.1-.09-10,8.55-20.15,16.93-30.34,25.26-9.3,7.6-19.15,10.21-30.49,3.93-11.52-6.39-23.75-11.39-35.91-16.42-7.44-3.08-15.3-5.16-22.94-7.77-9.29-3.17-16.04-9.27-18.39-18.83-2.13-8.67-2.78-17.7-4.44-26.5-1.45-7.69-1.59-15.62-4.36-23.05Z"/>
  <path class="cls-3" d="m570.47,1036.29c1.3-.91,2.66-.6,4.02-.23-1.22,2.25-2.59,1.87-4.02.23Z"/>
  <path class="cls-3" d="m563.46,1036.68s.03,0,.03,0c-.08.47-.11.55-.03,0Z"/>
  <path class="cls-1" d="m578.46,422.71c2.78,7.43,2.92,15.37,4.36,23.05,1.66,8.8,2.31,17.83,4.44,26.5,2.35,9.56,9.1,15.66,18.39,18.83,7.64,2.61,15.49,4.69,22.94,7.77,12.16,5.03,24.39,10.03,35.91,16.42,11.34,6.29,21.19,3.68,30.49-3.93,10.19-8.33,20.33-16.71,30.34-25.26,1.78-1.52,2.74-1.31,4.1.09,15,15.36,29.99,30.72,45.01,46.06,2.24,2.29.98,4.08-.56,6.08-7.69,9.97-15.27,20.03-22.96,30-3.05,3.95-5.76,8.13-7.67,12.69-2.06,4.91-2.18,9.86.51,14.95,8.54,16.11,15.86,32.77,21.36,50.19,1.56,4.95,2.79,9.98,4.44,14.92,3.5,10.51,12.24,17.56,23.15,18.95,12.78,1.62,25.47,3.97,38.22,5.78,2.23.32,2.67,1.05,2.66,3.06-.08,21.98-.12,43.95-.06,65.93,0,2.82-1.28,3.64-3.77,4.01-13.61,2-27.23,3.94-40.78,6.26-12.13,2.07-18.13,10.7-21.17,21.67-5.61,20.27-14.35,39.21-23.76,57.9-3.51,6.97-3.47,13.99.44,21,3.77,6.77,9.51,11.99,13.79,18.29,4.53,6.66,10.83,11.66,15.58,18.06,1.44,1.93,2.19,3.12.05,5.31-14.96,15.35-29.81,30.82-44.54,46.38-2.25,2.38-3.53,1.77-5.69.03-9.95-8.07-19.93-16.1-30.11-23.88-10.73-8.2-22.12-8.72-33.99-2.26-16.57,9.03-34.09,15.87-52.2,20.95-13.33,3.74-19.54,12.34-21.54,25.46-1.91,12.55-4.73,24.95-6.83,37.47-.43,2.58-1.42,2.81-3.5,2.81-20.3-.01-40.6.02-60.9.11-2.84.01-4.09-.47-4.73-3.93-2.63-14.12-5.48-28.19-7.77-42.37-2.02-12.5-11.11-17.1-22.15-20-17.16-4.51-33.33-11.69-48.98-19.97-12.66-6.69-24.43-6.54-35.84,2.88-9.47,7.82-19.39,15.09-28.94,22.81-2.42,1.96-3.79,2.22-6.11-.19-13.87-14.47-28.35-28.35-41.27-43.73-1.63-1.94-5.48-2.84-4.99-5.43.41-2.16,3.46-3.74,5.16-5.73,7.12-8.33,14.13-16.77,21.26-25.09,9.07-10.57,9.28-21.96,3.15-33.85-5.53-10.73-11.14-21.43-15.3-32.78-3.02-8.23-6.08-16.48-8.48-24.9-3.56-12.46-11.9-15.9-22.36-17.42-9.63-1.4-19.29-2.67-28.84-4.46-2.2-.41-4.76-1.01-6.66-.96-5.86.15-5.38-3.25-5.37-7.09.06-16.15-.06-32.3.03-48.45.02-4.64-1.19-9.14-1.07-13.82.08-2.86.87-4.19,3.6-4.57,8.11-1.13,16.26-2.09,24.32-3.51,7.63-1.35,15.4-1.47,22.85-4.62,7.18-3.03,11.41-8.19,13.29-14.96,4.19-15.08,9.06-29.91,15.51-44.14,2.77-6.13,5.95-12.13,9.11-18.08,5.25-9.9,4.08-19.09-2.24-27.67-8.53-11.59-17.46-22.9-26.38-34.2-1.93-2.44-1.89-3.94.31-6.17,14.71-14.91,29.33-29.91,43.88-44.98,1.93-2,3.1-2,5.24-.23,10.09,8.39,20.41,16.51,30.52,24.87,3.47,2.87,7.41,4.72,11.46,6.41,6.59,2.75,12.68.32,18.32-2.68,16.98-9.02,34.47-16.78,52.76-22.7,2.98-.96,5.98-1.89,8.91-2.97,9.79-3.61,13.84-11.24,15.34-21.11,2.01-13.22,4.51-26.37,6.97-39.52,1.4-7.48,1.55-7.51,9.21-7.49,19.3.05,38.59.15,57.88.23.12,1.77,1.26,1.13,2.21.93Zm-220.97,296.19c-.17,106.78,82.45,186.5,178.27,190.5,60.11,2.51,111.11-19.99,150.62-65.5,30.56-35.2,46.08-77.25,45.46-123.86-.72-53.7-19.77-100.54-59.65-137.48-40.77-37.76-89.39-53.53-144.69-49.59-89.06,6.34-169.62,85.77-170.01,185.94Z"/>
  <path class="cls-3" d="m578.46,422.71c-.95.2-2.09.84-2.21-.93,1.1-.54,2.17-1.04,2.21.93Z"/>
  <path class="cls-2" d="m357.49,718.9c.39-100.17,80.95-179.6,170.01-185.94,55.3-3.94,103.92,11.83,144.69,49.59,39.88,36.94,58.93,83.79,59.65,137.48.62,46.61-14.9,88.66-45.46,123.86-39.51,45.51-90.51,68.01-150.62,65.5-95.82-4-178.44-83.72-178.27-190.5Zm204.88-165.05c-67.21-.15-108.13,18.85-140.83,54.92-32.38,35.73-47.1,78.48-42.94,126.49,3.63,41.82,21.01,78.08,51.87,106.91,40.95,38.26,89.9,53.24,144.74,43.12,70.85-13.07,134.16-72.8,135.54-164.01,1.39-91.65-72.96-168.09-148.38-167.43Z"/>
  <path class="cls-1" d="m562.37,553.85c75.42-.66,149.77,75.78,148.38,167.43-1.38,91.22-64.69,150.94-135.54,164.01-54.84,10.12-103.79-4.87-144.74-43.12-30.86-28.83-48.24-65.09-51.87-106.91-4.17-48.02,10.56-90.77,42.94-126.49,32.7-36.07,73.62-55.07,140.83-54.92Zm-17.01,73.05c-55.67-.97-94.62,43.75-94.91,92.52-.31,51.99,41.42,99.47,100.41,96,47.43-2.79,87.67-41.91,87.48-95.36-.18-51-38.16-93.53-92.98-93.16Z"/>
  <path class="cls-2" d="m545.36,626.9c54.82-.37,92.81,42.16,92.98,93.16.18,53.45-40.05,92.57-87.48,95.36-58.99,3.47-100.71-44.01-100.41-96,.29-48.77,39.24-93.48,94.91-92.52Zm-.16,166.88c39.12-.47,71.78-31.96,71.8-74.6.02-37.69-31.04-70.93-72.18-70.74-41.88.19-71.92,32.55-72.59,71.16-.69,39.87,33.41,75.39,72.96,74.18Z"/>
  <path class="cls-3" d="m545.2,793.78c-39.55,1.21-73.65-34.31-72.96-74.18.67-38.61,30.7-70.97,72.59-71.16,41.14-.19,72.2,33.06,72.18,70.74-.02,42.63-32.68,74.13-71.8,74.6Z"/>
</svg>