<?xml version="1.0" encoding="UTF-8"?>
<svg id="Layer_1" data-name="Layer 1" xmlns="http://www.w3.org/2000/svg" viewBox="0 0 1196.82 1309.82">
  <defs>
    <style>
      .cls-1 {
        fill: #fff;
      }

      .cls-2 {
        fill: #695bdc;
      }
    </style>
  </defs>
  <path d="m230.73,1055.02c-13.87-2.88-25.12-9.94-33.51-21.34-4.18-5.68-8.01-11.64-9.4-18.72-.96-4.9-1.25-9.89-1.24-14.89.02-55.26.01-110.53,0-165.79-.02-139.53-.05-279.05-.08-418.58,0-7.23.09-14.49,2.65-21.36,6.77-18.15,19.45-30.24,37.9-36.16,1.8-.58,3.86-.42,5.71-1.07,1.94.05,3.88.07,5.65-.95h248.75c1.72.99,3.59.99,5.48.88,2.08,1.36,4.59,1.1,6.87,1.76,12.02,3.5,21.33,10.66,28.21,20.92,6,8.95,11.61,18.15,17.36,27.26,4.38,6.93,9,13.72,12.98,20.88,4.17,7.5,9.81,10.66,18.63,10.61,53.3-.31,106.61-.16,159.91-.16,61.96,0,123.92-.01,185.88-.04,5.79,0,11.53.36,17.15,1.82,0,0-.02.22-.02.22l.23.02c16.04,4.6,27.9,14.37,34.9,29.46,2.63,5.68,5.61,11.59,4.6,18.33,2.31,9.25.52,18.66,1.02,27.98.23,4.26.08,4.29,4.19,4.3,6.68.02,13.37.13,20.04-.05,9.15-.25,17.89,2,25.78,6.03,10.54,5.38,18.98,13.21,22.92,25.09,1.21,3.65,2.63,7.23,3.47,10.99,1.46,6.52.98,13.06-.72,19.4-1.97,7.33-3.18,14.8-4.67,22.21-3.02,15.08-6.04,30.15-9.06,45.23-1.69,8.46-4.34,16.78-5.3,25.3-.87,7.66-3.79,14.8-4.33,22.52-.29,4.19-1.89,8.3-2.54,12.57-1.09,7.24-3.03,14.34-4.3,21.55-1.16,6.6-2.83,13.08-4.08,19.67-1.04,5.51-2.06,11.04-3.23,16.53-2.41,11.32-4.56,22.69-7.27,33.96-1.42,5.89-1.82,12.03-3.19,17.94-1.64,7.1-2.78,14.28-4.35,21.38-1.58,7.17-2.42,14.47-4.32,21.58-1.49,5.58-2.76,11.24-3.74,16.94-1.65,9.54-3.87,18.97-5.59,28.5-2.31,12.85-4.98,25.65-7.79,38.41-1.58,7.2-3.41,14.42-4.14,21.84-.42,4.3-1.72,8.51-2.55,12.77-1.86,9.54-3.4,19.15-5.54,28.63-4.38,19.4-15.1,33.92-33.54,42.25-3.47,1.57-7.07,2.65-10.8,3.34-1.97-.02-3.96-.17-5.77.88H237.5c-2.16-1.06-4.47-.84-6.76-.84Zm37.78-296.72c.16,7.82-2.08,15.31-3.41,22.89-1.52,8.68-2.75,17.43-4.68,26.06-1.34,5.97-1.8,12.14-2.85,18.19-1.07,6.15-2.81,12.2-3.52,18.38-1.02,8.83-2.94,17.48-4.37,26.22-1.78,10.87-4.34,21.61-5.7,32.57-.24,1.96.6,4.58-1.76,6.05-.04.31-.07.62-.11.94,1.11.83.49,1.88.43,2.9-.2,3.34-2.09,6.31-2.18,9.59-.09,3.07-.69,5.97-1.47,8.9-.87,3.27-1.72,6.58-2.17,9.93-1.17,8.63-2.89,17.17-3.84,25.83-.49,4.48-1.59,8.9-2.51,13.33-1.19,5.69-1.72,11.52-2.82,17.24-1.12,5.87-2.25,11.73-2.96,17.67-.91,7.62,2.19,11.83,9.65,13.45,4.92,1.07,9.85.84,14.8.85,220.5,0,441-.01,661.5.11,7.32,0,13.77-1.72,19.93-5.39,8.43-5.02,11.41-13.44,13.01-22.19.79-4.35,2.09-8.62,2.52-13.09.52-5.38,1.92-10.69,3.21-15.97,1.16-4.76,1.75-9.61,2.7-14.4.2-1.01,1.07-1.72,1.08-2.91.07-5.82,2.17-11.29,3.05-16.98.85-5.5,2.18-10.92,3.36-16.37,1.03-4.75,1.41-9.61,3.02-14.28,1.16-3.37,1.74-6.97,2.24-10.52.43-3.06,1.03-6.05,1.71-9.06,1.76-7.8,3.2-15.67,4.65-23.54,1.32-7.15,3.1-14.19,4.35-21.36,1.27-7.25,3.12-14.43,4.45-21.65,1.36-7.41,2.97-14.78,4.25-22.21,1.14-6.58,2.91-13.1,4.29-19.66,1.56-7.41,2.8-14.88,4.39-22.29,1.33-6.21,2.68-12.43,3.79-18.67,1.3-7.29,3.04-14.47,4.52-21.71,1.2-5.91,2.64-11.78,3.5-17.74,1.13-7.81,2.75-15.5,4.53-23.17,1.35-5.82,2.67-11.66,3.71-17.55.56-3.18.92-6.39,1.67-9.55,1.14-4.74,2.36-9.48,3.06-14.3,1.06-7.29,3.1-14.37,4.29-21.6,1.13-6.84,2.66-13.6,3.92-20.41.99-5.38,1.83-10.83,3.18-16.1,2.35-9.13.06-17.84-7.22-23.6-4.95-3.92-10.7-5.36-16.91-5.36-86.26.02-172.51.04-258.76.05-88.08.01-176.15.02-264.23.02-50.26,0-100.53-.03-150.79-.06-5.09,0-9.95.87-14.48,3.31-7.91,4.26-13.41,10.87-14.95,19.47-1.34,7.51-2.69,15.07-3.76,22.65-1.15,8.12-3.6,16.07-4.45,24.2-.78,7.48-2.57,14.75-3.45,22.2-1.04,8.79-3.47,17.41-4.71,26.16-.95,6.72-2.15,13.4-3.32,20.07-1.15,6.59-2.47,13.14-3.4,19.77-.22,1.6-.08,3.4-1.67,4.53-.02.3-.04.59-.06.89.38,2.4.03,4.99-.55,7.06-.71,2.5.51,5.66-2.13,7.58-.35.55-.27,1.13-.1,1.71.44,4.45-1.44,8.62-1.6,13.01-.02.62-.41,1.11-.96,1.45l-.2.2.2.2c1.25,1.46.22,2.69-.41,3.95-1.15.42-.75,1.32-.67,2.13-.53,3.1.68,6.54-1.82,9.25-.18.26-.18.52-.01.78Zm-54.72,155.23c1.71-2.53,2.3-5.3,2.63-8.12,1.58-13.7,4.91-27.1,6.95-40.73,1.66-11.07,4.11-22.02,5.77-33.08,1.73-11.53,4.34-22.9,5.87-34.47,1.11-8.39,2.91-16.7,4.31-25.05,1.8-10.7,2.83-21.59,5.47-32.07,1.9-7.52,2.98-15.13,4.1-22.69,1.51-10.18,3.66-20.25,5.1-30.44,1.05-7.48,3.21-14.82,4.18-22.3,2.12-16.35,5.67-32.45,8.04-48.77,1.83-12.57,3.97-25.12,6.71-37.55,1.39-6.34,1.48-12.87,3.6-19.15,3.51-10.34,9.13-19.12,17.7-25.84,2.58-2.02,4.65-4.65,7.76-6.11,9.75-4.57,19.8-6.96,30.71-6.95,204.85.12,409.69.08,614.54.08.91,0,1.83-.05,2.73,0,2.11.14,3-.76,2.98-2.92-.08-8.96-.07-17.91-.13-26.87,0-.9-.17-1.82-.39-2.69-3.5-13.45-13.57-22.3-28.31-22.28-78.66.08-157.32.05-235.97.05-39.03,0-78.05.13-117.08-.11-12.46-.08-22.82-5.3-30.64-15.22-5.18-6.58-9.01-14.03-13.52-21.04-7.07-10.96-14.01-22-21.07-32.97-5.84-9.08-14.17-12.91-24.99-12.88-64.08.16-128.16.07-192.24.07-15.49,0-30.98,0-46.47-.01-3.69,0-7.23.59-10.63,2.08-5.74,2.52-10.36,6.41-13.58,11.71-3.07,5.05-4.23,10.56-4.22,16.66.13,150.77.09,301.54.09,452.31,0,15.79,0,31.57,0,47.36Z"/>
  <path class="cls-2" d="m939.84,440.31l-.23-.02s.02-.23.02-.22.21.03.21.03v.21Z"/>
  <path class="cls-1" d="m242.21,908.65c2.36-1.47,1.52-4.09,1.76-6.05,1.36-10.96,3.92-21.7,5.7-32.57,1.43-8.74,3.36-17.39,4.37-26.22.71-6.18,2.45-12.24,3.52-18.38,1.06-6.05,1.51-12.21,2.85-18.19,1.93-8.63,3.16-17.37,4.68-26.06,1.33-7.58,3.57-15.07,3.41-22.88.23-.21.46-.42.7-.63-.23-.05-.45-.11-.68-.16,2.5-2.71,1.29-6.15,1.82-9.24.81-.52,1.51-1.09.67-2.14.63-1.27,1.66-2.49.41-3.95,0,0-.01-.4-.01-.4.54-.33.93-.83.96-1.45.17-4.38,2.04-8.55,1.6-13,.46-.33,1.14-.54,1.03-1.29-.08-.52-.4-.75-.92-.43,2.64-1.92,1.42-5.09,2.13-7.58.58-2.06.93-4.66.55-7.05.32-.22.93-.24.77-.82-.1-.36-.44-.35-.71-.07,1.58-1.13,1.44-2.93,1.67-4.53.93-6.63,2.25-13.18,3.4-19.77,1.17-6.67,2.36-13.35,3.32-20.07,1.24-8.74,3.68-17.37,4.71-26.16.88-7.45,2.66-14.72,3.45-22.2.85-8.13,3.31-16.09,4.45-24.2,1.07-7.58,2.42-15.14,3.76-22.65,1.54-8.6,7.04-15.2,14.95-19.47,4.53-2.44,9.39-3.32,14.48-3.31,50.26.03,100.53.06,150.79.06,88.08,0,176.15,0,264.23-.02,86.26-.01,172.51-.03,258.76-.05,6.21,0,11.96,1.44,16.91,5.36,7.28,5.76,9.56,14.47,7.22,23.6-1.35,5.27-2.19,10.72-3.18,16.1-1.26,6.81-2.79,13.57-3.92,20.41-1.19,7.23-3.23,14.32-4.29,21.6-.7,4.81-1.92,9.56-3.06,14.3-.76,3.16-1.11,6.37-1.67,9.55-1.04,5.88-2.36,11.72-3.71,17.55-1.78,7.67-3.4,15.36-4.53,23.17-.86,5.96-2.3,11.83-3.5,17.74-1.48,7.24-3.22,14.42-4.52,21.71-1.11,6.25-2.46,12.47-3.79,18.67-1.59,7.41-2.84,14.88-4.39,22.29-1.38,6.57-3.15,13.09-4.29,19.66-1.28,7.43-2.89,14.81-4.25,22.21-1.33,7.22-3.18,14.4-4.45,21.65-1.25,7.17-3.04,14.21-4.35,21.36-1.45,7.87-2.9,15.74-4.65,23.54-.68,3.01-1.28,6-1.71,9.06-.5,3.55-1.08,7.15-2.24,10.52-1.61,4.67-1.99,9.53-3.02,14.28-1.18,5.44-2.51,10.87-3.36,16.37-.88,5.69-2.98,11.16-3.05,16.98-.02,1.18-.88,1.9-1.08,2.91-.95,4.79-1.53,9.64-2.7,14.4-1.29,5.28-2.7,10.59-3.21,15.97-.43,4.48-1.72,8.75-2.52,13.09-1.6,8.75-4.58,17.17-13.01,22.19-6.17,3.67-12.61,5.39-19.93,5.39-220.5-.12-441-.1-661.5-.11-4.94,0-9.88.22-14.8-.85-7.46-1.62-10.57-5.83-9.65-13.45.71-5.94,1.84-11.8,2.96-17.67,1.09-5.72,1.63-11.55,2.82-17.24.93-4.43,2.02-8.85,2.51-13.33.95-8.66,2.67-17.2,3.84-25.83.45-3.35,1.3-6.66,2.17-9.93.78-2.93,1.38-5.83,1.47-8.9.1-3.28,1.99-6.25,2.18-9.59.06-1.03.68-2.07-.43-2.9.37-.13.88-.19.79-.74-.06-.33-.37-.38-.68-.2Z"/>
  <path class="cls-2" d="m213.8,913.53c0-15.79,0-31.57,0-47.36,0-150.77.05-301.54-.09-452.31,0-6.1,1.16-11.61,4.22-16.66,3.22-5.3,7.84-9.19,13.58-11.71,3.4-1.49,6.94-2.08,10.63-2.08,15.49.02,30.98.01,46.47.01,64.08,0,128.16.09,192.24-.07,10.82-.03,19.15,3.81,24.99,12.88,7.06,10.97,14,22.01,21.07,32.97,4.52,7.01,8.34,14.45,13.52,21.04,7.82,9.93,18.18,15.15,30.64,15.22,39.02.24,78.05.11,117.08.11,78.66,0,157.32.03,235.97-.05,14.74-.02,24.81,8.83,28.31,22.28.23.87.39,1.79.39,2.69.06,8.96.04,17.92.13,26.87.02,2.16-.87,3.06-2.98,2.92-.91-.06-1.82,0-2.73,0-204.85,0-409.69.04-614.54-.08-10.9,0-20.96,2.38-30.71,6.95-3.11,1.46-5.18,4.09-7.76,6.11-8.57,6.71-14.19,15.49-17.7,25.84-2.13,6.27-2.21,12.81-3.6,19.15-2.73,12.43-4.88,24.98-6.71,37.55-2.37,16.31-5.93,32.41-8.04,48.77-.97,7.49-3.13,14.82-4.18,22.3-1.44,10.19-3.59,20.26-5.1,30.44-1.12,7.55-2.2,15.17-4.1,22.69-2.65,10.48-3.68,21.37-5.47,32.07-1.4,8.36-3.2,16.66-4.31,25.05-1.53,11.57-4.14,22.94-5.87,34.47-1.66,11.07-4.11,22.02-5.77,33.08-2.04,13.63-5.37,27.03-6.95,40.73-.33,2.82-.92,5.59-2.63,8.12Z"/>
  <path class="cls-2" d="m274.09,725.62c.53-.32.85-.09.92.43.11.75-.56.95-1.03,1.29-.16-.59-.25-1.17.1-1.72Z"/>
  <path class="cls-2" d="m271.02,746.14c.84,1.05.14,1.61-.67,2.14-.08-.81-.48-1.72.67-2.14Z"/>
  <path class="cls-2" d="m276.82,710.09c.27-.28.61-.29.71.07.16.58-.45.6-.77.82.02-.3.04-.6.06-.89Z"/>
  <path class="cls-2" d="m268.53,757.51c.23.05.45.11.68.16-.23.21-.46.42-.7.63-.17-.27-.16-.53.01-.79Z"/>
  <path class="cls-2" d="m242.21,908.65c.31-.18.62-.13.68.2.1.56-.41.61-.79.74.04-.32.07-.63.11-.94Z"/>
  <path class="cls-2" d="m271.43,741.78s.02.41.01.4-.21-.2-.21-.2l.2-.2Z"/>
</svg>