<?xml version="1.0" encoding="UTF-8"?>
<svg id="Layer_1" data-name="Layer 1" xmlns="http://www.w3.org/2000/svg" viewBox="0 0 1613.25 1451.26">
  <defs>
    <style>
      .cls-1 {
        fill: #5d6c7b;
      }

      .cls-2 {
        fill: #ae97f1;
      }
    </style>
  </defs>
  <path class="cls-2" d="m601.56,273.49c-.04,40.62-.1,81.24-.11,121.85-.02,96.05-.03,192.11.03,288.16,0,5.46-1.22,10.41-3.87,15.17-3,5.4-8.59,7.34-13.45,6.91-7.57-.67-14.76-7.48-14.74-16.64.05-22.81-.07-45.61-.07-68.42,0-118.86,0-237.72,0-356.59,0-1,.07-2-.02-3-.61-7.04.42-13.53,6.18-18.42,13.43-8.57,25.79,1.7,25.92,15.51.02,1.82.1,3.64.15,5.46-.01,2.67-.03,5.33-.04,8,0,.66,0,1.33,0,1.99Z"/>
  <path class="cls-2" d="m651.15,360.45c-.23,2.81-.66,5.62-.67,8.42-.05,92.06-.07,184.12-.05,276.17,0,5.69-.39,11.1-3.08,16.4-3.43,6.74-10.54,8.97-17.22,7.53-7.41-1.59-11.91-8.6-11.8-15.92.24-16.31.04-32.63.04-48.94.01-100.38.03-200.76.05-301.15,0-4.83.08-9.65.12-14.48.34-.99.68-1.97,1.02-2.96,1.24-1.7,2.48-3.4,3.72-5.1,5.1-4.5,11.04-5.45,17.11-2.92,6.56,2.74,9.86,8.31,9.97,15.33.21,13.93.08,27.86.11,41.79.02,8.61-.21,17.23.68,25.81Z"/>
  <path class="cls-2" d="m944.35,332.43c-.06,35.12-.17,70.25-.18,105.37-.03,66.43-.02,132.85.03,199.28,0,5.07-.59,10.06-3.78,14.02-6.08,7.55-10.99,8.22-22.14,3.84-.31-.29-.62-.58-.93-.88-4.48-4.38-5.27-9.75-5.26-15.84.14-76.67.1-153.34.06-230.01-.01-28.6-.12-57.2-.19-85.8,0-.99,0-1.98,0-2.97,0-1.34-.01-2.68-.02-4.02,0-2.65,0-5.3,0-7.95,0-5.34,0-10.68,0-16.02.06-1.66.11-3.32.17-4.98.92-3.73,2.65-7.04,5.14-9.97,5.58-4.17,11.62-5.85,18.03-2.31,6.36,3.51,9.05,9.18,8.98,16.49-.13,13.91.04,27.83.09,41.74Z"/>
  <path class="cls-2" d="m540.54,312.32c8.67,3.86,11.96,10.79,11.95,19.98-.05,93.41-.04,186.82.05,280.24,0,5.51-1.12,10.51-4.11,15.07-4.2,6.4-15.66,7.75-22.83,2.46-.64-.65-1.29-1.3-1.93-1.94-3.99-5.98-4.02-12.69-4.01-19.56.09-68.43.09-136.87-.01-205.3,0-4.98,1.7-9.89.42-14.88,1.2-8.43-.43-16.83-.34-25.25.14-12.9-.54-25.82.8-38.69,2.17-4.72,5.68-8.35,9.45-11.79,3.52-.11,7.04-.22,10.56-.33Z"/>
  <path class="cls-2" d="m993.25,337.43c-.07,35.45-.17,70.91-.19,106.36-.03,53.1,0,106.21.02,159.31,0,6.56-1.64,12.62-6.8,16.85-4.66,3.83-10.27,4.6-15.84,1.78-6.03-3.04-8.82-8.44-9.16-14.89-.37-6.97-.1-13.98-.1-20.97,0-83.73.02-167.47-.05-251.2,0-5.21.47-10.27,2-15.23,7.83-11.18,17.45-10.04,23.42-5.3,3.94,3.12,6.36,7.15,6.51,12.31.1,3.65.13,7.31.2,10.97Z"/>
  <path class="cls-2" d="m880.24,617.01c-1.63-.1-3.26-.21-4.89-.31-8.87-3.78-12.28-10.41-12.25-20.08.22-81.9.14-163.81.15-245.71,0-1.83-.09-3.66-.15-5.49.04-3.31.33-6.65.08-9.94-1.17-15.59,11.12-24.1,24.77-17.9,2.93,2.98,5.62,6.13,7.05,10.16.06,1.57.12,3.13.19,4.7-.04,86.62-.09,173.23-.13,259.85,0,.66.02,1.33.03,1.99.19,12.69-3.36,19.57-14.85,22.72Z"/>
  <path class="cls-2" d="m700.08,401.43c-1.63,56.23-.28,112.46-.75,168.7-.02,2.8-.03,5.57-.59,8.41-1.71,8.61-7.08,13.11-15.33,14.77,0,0-.49-.06-.49-.06,0,0-.49.06-.49.06-9.02-1.21-15.08-8.3-15.09-18.06-.05-40.29-.06-80.58-.01-120.87.04-29.97.19-59.93.3-89.9,1.81-3.31,3.33-6.8,6.73-8.94,7.72-4.86,15.42-3.18,22.1,4.88,1.61,1.8-.28,5.16,2.81,6.3.27,11.57.55,23.14.82,34.71Z"/>
  <path class="cls-2" d="m822.41,585.14c-6.9-5.48-8.23-12.7-8.2-21.22.26-64.82.15-129.64.04-194.47-.01-6.11.43-11.9,4.3-16.92,4.6-4.44,10.12-5.75,16.3-4.8,8.83,4.91,11.47,12.75,11.45,22.41-.14,65.03-.07,130.07-.1,195.1,0,2.48.1,5.04-.45,7.43-2.45,10.69-8.99,14.96-20.48,13.67-.95-.4-1.9-.8-2.85-1.2Z"/>
  <path class="cls-2" d="m1135.84,580.93c-2.03,1.4-3.94,3.01-6.1,4.16-11.73,6.25-22.9-5.05-22.75-16.1.34-24.28.12-48.57.12-72.85,0-29.28-.03-58.55-.04-87.83,0-1.99.17-4-.65-5.9,1.05-9.23.54-18.49.64-27.75.1-10.03,6.86-17.66,15.97-18.04,8.7-.37,15.41,6.88,16.02,17.28.03.49.12.99.18,1.48-.06,30.89-.15,61.78-.15,92.66,0,25.41.12,50.81.19,76.22-.07,6.8-.2,13.61-.2,20.41,0,4.15-.05,8.28-1.18,12.32-1.09.8-1.85,1.79-1.87,3.21-.11.23-.17.47-.18.72Z"/>
  <path class="cls-2" d="m1186.15,528.27c-.42.97-.83,1.94-1.25,2.91-3.16,2.27-5.38,5.79-9.93,6.13-11.12.82-18.8-5.95-18.85-17.39-.12-28.41-.09-56.83-.09-85.24,0-11.03,3.85-16.53,13.97-20.15,11.87.04,17.86,6.08,17.98,18.09.09,9.26.2,18.53.31,27.79.2.24.4.48.61.72,3.82.09,7.67-.04,11.46.34,4.26.43,5.75-.87,5.75-5.43,0-9.76,7.4-16.37,16.71-15.65,7.39.57,13.72,7.31,13.77,15.81.03,4.73,1.81,5.48,5.87,5.32,6.64-.27,13.31-.11,19.96-.03,8.99.12,15.39,6.03,15.44,14.15.06,7.92-6.15,13.64-15.1,13.77-6.49.1-12.98.04-19.47.03-4.01,0-6.94.89-8.85,5.28-2.69,6.17-8.07,8.91-14.98,8.49-6.64-.4-10.75-4.19-13.02-9.95-.9-2.29-1.81-3.02-4.16-3.12-13.62-.6-13.69-.66-13.61,12.89.04,7.65-.21,15.27-.9,22.89-1.29.28-1.94.99-1.63,2.37Z"/>
  <path class="cls-2" d="m1042.13,398.38c-.05,41.76-.09,83.51-.14,125.27,0,9.32,0,18.63-.01,27.95-.02,10.56-5.89,15.71-14.84,18.35-5.91,1.74-17.06-4.77-17.06-15.92,0-14.81-.07-29.61-.07-44.42-.01-39.6.27-79.19-.21-118.78-.12-9.7,2.06-17.18,10.49-22.31,4.14-1.4,8.27-.68,12.4.06.79,1.9,2.57,2.45,4.27,3.11,7.16,7.85,4.51,17.59,5.17,26.69Z"/>
  <path class="cls-2" d="m471.37,418.34c.07-3.79.18-7.58.21-11.38.1-15.36,9.71-22.39,23.97-17.49,6.49,5.22,8.02,12.26,8,20.2-.11,43.07-.02,86.15-.06,129.22-.01,15.92-11.6,23.12-25.8,16.14-.99-.95-1.98-1.9-2.97-2.84-2.62-4.07-3.22-8.56-3.21-13.32.09-35.04.09-70.07.1-105.11,0-2.14.28-4.33-.71-6.37-.02-1.36-.04-2.71-.07-4.07.18-1.66.35-3.32.53-4.98Z"/>
  <path class="cls-2" d="m440.64,524.3c-11.64-.43-17.95-6.81-18.1-18.35-.05-3.99-.08-7.99-.03-11.98.04-3.33-1.34-4.63-4.83-4.6-15.65.15-31.29.11-46.94.02-9.56-.05-15.1-5.33-15.07-14.08.03-8.32,6.13-13.9,15.45-13.94,15.31-.05,30.63-.09,45.94.09,3.67.04,4.94-1,4.87-4.79-.11-6.13.43-12.28.63-18.42.39-11.68,11.37-18.83,22.13-14.39.61.25,1.26.41,1.89.6,6.78,5.35,8.32,12.42,8.14,20.79-.44,19.96-.1,39.94-.16,59.91-.03,10.67-3.74,15.64-13.91,19.12Z"/>
  <path class="cls-2" d="m743.31,412.37c2.79,5.2,5.2,10.32,5.14,16.62-.25,29.76.09,59.54-.26,89.3-.1,8.57-6.01,18.14-14.72,18.19-8.5.05-17.03-7.15-17.08-16.09-.17-31.93-.11-63.86.04-95.78.03-7.61,4.71-12.46,10.98-16.02,5.81-.9,11.26-.27,15.89,3.78Z"/>
  <path class="cls-2" d="m1081.99,408.56c6.78,4.9,9.06,11.6,8.99,19.84-.24,26.92-.17,53.85-.05,80.78.02,4.85-.33,9.65-1.55,14.23-1.31,4.95-5.33,7.88-10.08,9.31-5.44,1.64-10.67.68-14.75-3.44-3.47-3.49-5.57-7.79-5.57-12.92.02-30.91.08-61.83-.01-92.74-.02-6.11,3.38-10.18,7.19-14.19,5.13-2.97,10.45-2.52,15.83-.86Z"/>
  <path class="cls-2" d="m770.33,419.37c2.89-1.19,5.29-3.4,8.54-3.9,9.2-1.42,18.28,5.71,18.35,15.25.22,27.43.19,54.86.04,82.29-.05,8.64-7.36,15.39-15.79,15.32-9.98-.09-16.12-5.82-16.07-15.58.15-28.24-.69-56.49.48-84.72.03-.8-.29-1.62-.44-2.42,1.91-1.86,2.57-4.69,4.89-6.23Z"/>
  <path class="cls-1" d="m678.56,937.15c0-47.61-.2-95.21.08-142.82.14-24.48,21.78-45.69,46.27-46.08,11.48-.18,22.97-.07,34.46-.07,48.94,0,97.88.03,146.81,0,8.81,0,17.41,1.22,24.92,5.97,13.02,8.24,23.01,18.69,24.23,35.28.21,2.91.97,5.84.97,8.82-.05,93.38-.1,186.76-.15,280.14-.01,21.14-13.42,38.6-32.11,44.55-6.31,2.01-12.79,2.01-19.27,2.01-55.43,0-110.86-.04-166.29-.06-4.33,0-8.66-.16-12.98,0-28.46,1.04-47.57-24.79-47.22-47.42.71-46.76.21-93.54.21-140.32h.07Zm19.81,2.73h.18c0,47.78.01,95.55-.04,143.33,0,2.73.83,5.01,2.14,7.35,5.87,10.49,14.87,15.11,26.72,15.1,59.93-.07,119.86-.27,179.78.08,17.53.1,29.75-12.65,29.46-29.69-.63-36.28-.18-72.58-.18-108.87,0-56.26-.19-112.53.1-168.79.09-16.37-10.55-30.46-29.85-30.41-59.09.16-118.19.01-177.28.04-19.52,0-31.03,11.56-31.04,31.04-.02,46.94,0,93.89,0,140.83Z"/>
  <path class="cls-1" d="m888.26,915.77c.36.36.71.72,1.07,1.08.94,1.71,2.26,3.07,3.8,4.25,9.77,13.13,17.73,27.19,21.22,43.36,3.04,14.08,3.59,28.43.3,42.4-7.93,33.73-27.83,58.01-60.06,71.21-13.81,5.65-28.56,9.07-43.61,7.53-27.04-2.78-50.39-13.57-68.34-34.55-19.26-22.5-27.35-48.69-23.12-77.91,5.67-39.14,27.9-65.66,64.53-80.2,8.49-3.37,17.37-4.55,26.52-5.21,20.37-1.48,39.29,2.59,57.12,12.35.84,1.97,2.58,2.57,4.47,2.94,0,0-.04-.04-.04-.04,5.38,4.26,10.76,8.52,16.14,12.79Zm-59.98-7.75c-14.28-2.83-27.77.2-40.96,5.51-2.29.48-4.33,1.48-6.16,2.92-8.23,3.89-15.36,9.19-21.04,16.35-1.53.72-1.96,2.37-2.98,3.51-2.46,1.55-3.72,4.02-4.97,6.49-1.06.76-1.64,1.83-1.96,3.06-1.16,1.15-1.98,2.48-2.32,4.09-6.65,11.39-8.87,23.86-9,36.85.01.68.02,1.37.03,2.05-.42,4.06.6,7.96,1.41,11.87-.22.26-.45.51-.67.77.22.13.45.27.67.4.24.65.49,1.3.73,1.95.38,3.82,1.37,7.44,3.35,10.76.27,1.88.81,3.65,2.01,5.17l.95,2.02c.16,1.62,1.09,2.84,2.13,3.99,2.08,4.82,5.17,8.89,9.1,12.35,4.03,6.45,10.95,9.48,16.56,14.07,3.26,2.75,6.96,4.68,11.05,5.87.69.27,1.39.53,2.08.8,1.43,1.26,3.14,1.78,5,1.97,1.74,1.32,3.89,1.43,5.9,1.96.14.58.46.91,1.1.79,3.32.43,6.64.85,9.96,1.28.75,1.36,1.96.78,3.05.71,4.48.41,8.92.38,13.23-1.13.57-.09,1.14-.18,1.71-.27,8.51-.81,16.59-3.04,24.07-7.28,5.8-2.24,10.81-5.69,15.31-9.92,3.99-2.7,7.38-6.02,10.14-9.98,1.86-1.81,3.6-3.71,4.57-6.18.35-.55.69-1.09,1.04-1.64,3.43-4.32,5.73-9.29,7.69-14.36,6.84-17.71,7.2-35.67,1.43-53.74-1.45-4.54-2.74-9.19-6.02-12.89-.83-3.37-2.79-6.05-5.16-8.49-4.91-8.18-12.27-13.76-20-18.96-2.3-1.44-4.06-3.71-6.84-4.4-7.2-4.13-14.95-6.63-23.16-7.76-.91-.67-1.94-.77-3.02-.58Z"/>
  <path class="cls-1" d="m858.31,827.64c1.41,25.07-19.85,40.42-39.44,41.19-22.12.87-43.75-18.91-43.01-40.95.68-20.39,17.51-40.89,41.66-40.74,22.87.15,41.87,18.82,40.78,40.49Z"/>
  <path class="cls-1" d="m855.48,996.83c-.09.63-.18,1.26-.27,1.89-.58.13-.9.44-.76,1.08-2.73,8.83-8.74,14.88-16.46,19.49-1.55.92-3.15,1.77-4.72,2.65-5.57,1.56-11.1,3.35-17,3.1-6.23.12-11.66-2.9-17.47-4.47-2.12-1.34-4.25-2.68-6.37-4.03-4.13-3.28-8.43-7.17-10.73-11.31-2.63-4.71-4.05-10.8-4.44-16.71-.47-6.98,2.11-13.24,4.08-19.67,1.58-2.56,3.15-5.11,4.73-7.67,1.09-.47,1.73-1.35,2.21-2.38,1.09-.5,1.84-1.32,2.29-2.43,1.21-.47,2.17-1.22,2.77-2.4,1.4-.15,2.19-1.13,2.94-2.16,5.09-2.58,10.34-4.7,15.96-5.83,2.89,1.79,6.02.55,9.04.71,2.56-.68,5.02.44,7.54.42,3.82,1.87,7.63,3.75,11.44,5.62,2.95,2.71,5.9,5.42,8.85,8.13,0,0,.07.06.07.06,3.07,6.06,7.05,11.77,7.33,18.91.08,5.69.72,11.42-1.04,17Z"/>
</svg>