<?xml version="1.0" encoding="UTF-8"?>
<svg id="Layer_1" data-name="Layer 1" xmlns="http://www.w3.org/2000/svg" viewBox="0 0 1299.25 1467.44">
  <defs>
    <style>
      .cls-1 {
        fill: #414a57;
      }

      .cls-2 {
        fill: #8b68de;
      }

      .cls-3 {
        fill: #fefefe;
      }
    </style>
  </defs>
  <path class="cls-2" d="m315.34,780.95c0-118.68.05-237.36-.05-356.04-.02-20.52,7.61-37.66,22.26-51.53,9.96-9.43,21.87-15.22,35.92-16.8,6.97-.78,13.88-1,20.83-1,127.34-.03,254.67,0,382.01.07,7.46,0,14.99-.68,22.37,1.19,29.7,7.5,49.8,33.01,52.46,59.59.7,6.97.87,13.9.87,20.84.05,230.7.05,461.41.09,692.11,0,10.67-.03,21.28-3.97,31.48-8.34,21.6-22.33,37.44-45.01,44.47-6.86,2.13-13.94,2.71-21.11,2.71-91.55,0-183.1.02-274.65.05-39.62.01-79.25-.68-118.84.29-33.9.83-62.05-23.36-71.12-54.72-2.09-7.22-2.01-14.4-2.02-21.65-.07-109.19-.07-218.39-.08-327.58,0-7.82,0-15.65,0-23.47h.04Zm526.61.55h-.08c0-116.53,0-233.06,0-349.59,0-5.65,0-11.29-.94-16.91-4.17-24.77-27.24-49.49-57.41-49.41-132.34.35-264.69.14-397.03.13-7.16,0-14.24.77-21.04,3.1-12.01,4.11-22.59,10.38-29.65,21.3-8.15,12.6-10.35,26.61-10.33,41.45.17,108.54.09,217.08.09,325.62,0,126.02.17,252.04-.05,378.05-.05,30.4,26.35,64.38,64.09,63.79,73.12-1.14,146.26-.36,219.4-.38,58.43-.02,116.86.02,175.29-.09,18.13-.03,32.44-8.1,43.85-21.85,10.4-12.52,13.82-27.26,13.82-43.11,0-117.36,0-234.72,0-352.09Z"/>
  <path class="cls-1" d="m386.4,1123.11c-6.33-5.74-9.85-13.11-10.77-21.37-1.34-12.09-.46-24.28-.47-36.42-.07-104.52-.09-209.03-.16-313.55,0-8.95.28-17.86,4.62-25.97,9.49-17.73,23.38-27.73,44.48-27.38,33.28.56,66.57.14,99.85.2,3.01,0,4.46-.42,5.96-3.86,3.49-7.99,7.4-16.01,14.03-22.13,2.07-1.91,1.46-4.29,1.03-6.52-2.78-14.32-7.36-28.19-10.2-42.53-3.35-16.91-8.29-33.49-12.17-50.3-3.36-14.53-6.06-29.22-9.3-43.78-2.59-11.66-5.7-23.19-6.53-35.19-1.58-22.73,3.91-43.18,19.17-60.55.76-.86,2.03-1.65,1.7-2.87-2.16-7.9,4.19-11.05,8.42-15.39,3.25,1.27,3.99,6.7,8.83,5.34-1.42,1.34-3.18,2.48-2.63,4.91.56,2.48-.92,4.35-2.58,5.59-3,2.26-4.8,5.4-6.94,8.28-13.25,17.89-18.08,37.99-15.4,59.96,1.1,8.98,2.96,17.82,5.11,26.63,4.44,18.2,8.42,36.52,12.58,54.79,3.78,16.59,7.37,33.22,11.43,49.74,1.37,5.58,1.56,11.62,4.9,16.77,2.78-2.13,4.57-5.2,8.46-5.16,2.23.02.77-1.41.57-2.39-1.54-7.16-2.94-14.36-4.54-21.5-5.46-24.3-11.09-48.55-16.44-72.87-2.93-13.35-5.07-26.87-8.21-40.17-5.04-21.3-.72-40.24,13.24-56.95,20.63-24.69,57.82-20.63,75.62,1.61,8.84,11.04,12.49,23.92,12.96,37.61.62,17.88-5.63,34.7-9.42,51.88-2.71,12.31-5.59,24.58-8.36,36.87-3.79,16.87-7.42,33.79-11.38,50.62-1.73,7.34-5.08,14.79,5.21,18.65.68.26.94,1.37,1.71,1.22,3.63-12.45,6.14-25.05,8.98-37.58,3.26-14.39,7.67-28.48,10.57-42.98,2.46-12.31,5.3-24.55,8.43-36.7,4.24-16.48,8.91-32.71,6.56-50.19-1.66-12.38-4.67-24.13-11.07-34.77-7.02-11.67-14.93-22.72-26.14-30.91,3.8.43,7.61.91,10.49-2.95-.68-.99-2.56-1.45-2.36-3.24,2.46.68,4.38,2.19,6.07,4.03-.13.05-.28.08-.38.16-.06.05-.05.18-.08.28.15-.15.3-.31.45-.46,6.35,4.96,13.54,9.27,13.95,18.73.04.96,1.19,1.92,1.93,2.79,9.93,11.7,14.13,25.67,17.16,40.42,3.33,16.21-.08,31.45-4.01,46.93-4.35,17.14-7.46,34.6-11.91,51.71-5.48,21.13-9.33,42.66-15.75,63.56-2.8,9.11-4.71,18.49-6.95,27.76-.9,3.72-1.02,6.72,2.82,9.76,6.15,4.87,10.68,11.39,12.68,19.22,1.13,4.44,3.26,6.18,8.25,6.14,34.94-.27,69.89.5,104.81-.35,28.92-.71,50.55,24.14,50.19,49.33-.59,40.92-.17,81.85-.17,122.78-2.2-.4-3.85.04-4.45,2.56-.61,2.52-2.03,4.83-1.92,7.54.09,2.07-.73,3.48-2.91,3.83-.04-44.78.39-89.56-.31-134.32-.36-23.22-13.36-41.09-40.7-40.92-27.63.18-55.26,0-82.89,0-7.82,0-15.65.12-23.47.04-2.46-.02-3.48.59-3.49,3.33-.03,7-2.25,13.56-5.5,19.64-8.29,15.51-21.25,24.85-38.48,28.39-11.54,2.37-22.59.79-32.98-4.41-17.9-8.95-27.41-24.14-30.72-43.43-.49-2.86-1.26-3.43-3.86-3.43-34.62.02-69.24-.16-103.87-.04-10.8.04-19.44,5.03-26.13,13.38-6.23,7.77-8.34,16.61-8.32,26.62.24,114.69.25,229.37.21,344.06,0,9.78,2.71,18.31,9.13,25.66-3.63-.36-7.51-1.21-8.24,4.16Zm152.73-635.47c.31,4.05.44,7.38.84,10.67,1.7,13.94,5.54,27.44,8.37,41.15,3.36,16.3,7.05,32.53,10.38,48.85,3.24,15.87,7.36,31.59,10.83,47.43.71,3.23,2.23,5.08,6.28,4.94,4.3-.14,8.44-1.5,12.74-1.2,1.99.14,2.05-1.66,2.36-2.64,1.43-4.49,2.8-9.04,3.77-13.65,3.84-18.17,7.82-36.3,12.22-54.35,4.24-17.37,7.99-34.85,11.92-52.3,3.44-15.27,5.57-30.11.75-46.03-7.35-24.3-35.95-34.45-55.78-23.75-16.37,8.83-23.65,23.41-24.68,40.87Zm66.3,189.82h-.02c0-2.83,0-5.65,0-8.48,0-2.99.04-5.99-.07-8.98-.22-6.28-3.34-9.46-9.62-9.5-10.14-.07-20.28,0-30.41.12-6.26.08-8.26,2.08-8.26,8.41,0,11.14.47,22.28.18,33.41-.19,7.34,3.64,11.94,8.63,16.37,5.77,5.12,12.47,5.29,19.54,4.59,10.95-1.09,19.91-10.61,20.02-21.49.05-4.82,0-9.64,0-14.46Zm9.81,7.34c.43,10.48.03,19.78-6.69,27.38-6.59,7.46-15.05,11.18-24.75,12.27-10.57,1.19-19.29-2.92-26.96-9.83-7.96-7.17-9.74-16.96-10.99-27.32-12.83,16.43-8.58,40.31,8.9,55.02,19,15.99,44.53,10.81,59.99-6.45,12.7-14.18,12.45-40.29.5-51.08Z"/>
  <path class="cls-2" d="m786.02,884.36c2.19-.35,3-1.76,2.91-3.83-.11-2.71,1.31-5.02,1.92-7.54.61-2.52,2.25-2.96,4.45-2.56.45,8.54.53,17.08-.07,25.62-1.15.78-1.17,1.55,0,2.33.2,5.97.57,11.94.57,17.91.02,59.05.02,118.11-.08,177.16-.02,14.53-6.08,26.26-17.76,34.85-6.92,5.09-14.75,7.75-23.54,7.75-113.95-.02-227.89,0-341.84.13-10.74.01-19.12-4.32-26.01-12.16.61-.47.9-.88-.2-1.03,0,0,.02.12.02.12.73-5.38,4.61-4.52,8.24-4.16,7.62,7.38,16.9,8.71,27.13,8.53,25.12-.44,50.25-.22,75.38-.23,84.7-.02,169.4-.02,254.1-.02,5.19,0,10.33-.17,15.11-2.5,13.63-6.65,19.43-18.16,19.45-32.72.07-67.23-.04-134.46-.07-201.68,0-1.99.18-3.97.28-5.96Z"/>
  <path class="cls-2" d="m800.98,1152.77c9.89-10.56,13.12-23.14,13.09-37.45-.29-135.82-.3-271.64-.38-407.46,0-1.83.05-3.66,0-5.49-.06-3.11,1.79-4.86,4.52-4.78,2.84.08,5.61,1.2,5.65,4.94,0,.83.02,1.66.02,2.5.01,137.32-.02,274.63.11,411.95.01,11.55-1.86,22.44-7.91,32.35-2.49,4.09-5.29,8.04-9.53,10.63-3.22-1.34-5.77-3.2-5.57-7.19Z"/>
  <path class="cls-2" d="m372.13,1166.02c-12.06-5.79-19.26-15.88-24.51-27.7-3.37-7.6-4.01-15.64-4.01-23.82-.02-114.34-.06-228.68-.1-343.02,0-16.98-.07-33.95.04-50.93.02-3-1.41-7.21,4.16-7.23,4.32-.02,5.65,1.65,5.65,7.35.02,81.89.02,163.77.04,245.66.01,48.27.34,96.53-.08,144.8-.16,18.52,4.85,33.99,20.2,45.22-.46,3.22-.92,6.45-1.39,9.67Z"/>
  <path class="cls-1" d="m372.13,1166.02c.46-3.22.92-6.45,1.39-9.67,8.97,5.74,18.87,6.73,29.3,6.72,122.48-.12,244.97-.12,367.45.13,11.74.02,21.73-3.27,30.71-10.43-.2,3.99,2.36,5.85,5.57,7.19-9.34,8.06-19.91,12.85-32.51,12.85-126.46-.05-252.91-.06-379.37,0-8.29,0-15.75-2.16-22.56-6.78Z"/>
  <path class="cls-2" d="m544.9,420.84c-4.84,1.36-5.58-4.07-8.83-5.34,19.67-20.7,58.59-23.78,78.45-9.36-.15,1.34.76,1.54,1.77,1.63,0,0-.04-.13-.04-.13-.2,1.79,1.68,2.24,2.36,3.24-2.88,3.86-6.69,3.38-10.49,2.95,0,0,.1.04.1.04-.34-1.05-1.24-.99-2.07-1.05l.05.06c-.6-3.37-3.26-1.64-5.05-2.05l.06.06c-1.68-2.9-3.12-3.27-4.73-1.22-10.04-2.22-20.04-2.96-30.1.13-7.84,2.41-14.6,6.8-21.47,11.04Z"/>
  <path class="cls-1" d="m616.28,407.76c-1.01-.09-1.92-.29-1.77-1.63.61.52,1.65.58,1.77,1.63Z"/>
  <path class="cls-1" d="m795.24,898.38c-1.17-.77-1.15-1.55,0-2.33,0,.78,0,1.55,0,2.33Z"/>
  <path class="cls-1" d="m386.38,1122.99c1.09.15.81.56.2,1.03-.1-.22-.22-.43-.28-.66-.03-.11.05-.25.08-.37Z"/>
  <path class="cls-3" d="m539.13,487.63c1.03-17.46,8.31-32.04,24.68-40.87,19.83-10.7,48.43-.55,55.78,23.75,4.82,15.92,2.69,30.76-.75,46.03-3.93,17.44-7.68,34.93-11.92,52.3-4.4,18.05-8.38,36.18-12.22,54.35-.97,4.61-2.34,9.15-3.77,13.65-.31.98-.37,2.78-2.36,2.64-4.29-.3-8.43,1.05-12.74,1.2-4.05.14-5.57-1.72-6.28-4.94-3.47-15.85-7.59-31.57-10.83-47.43-3.33-16.31-7.02-32.54-10.38-48.85-2.83-13.71-6.67-27.22-8.37-41.15-.4-3.29-.53-6.62-.84-10.67Z"/>
  <path class="cls-3" d="m544.9,420.84c6.87-4.24,13.63-8.63,21.47-11.04,10.06-3.09,20.06-2.35,30.1-.13,1.58.41,3.15.81,4.73,1.22l-.06-.06c1.46,1.24,3.27,1.62,5.05,2.05,0,0-.05-.06-.05-.06.41.9,1.17,1.12,2.07,1.05,0,0-.1-.04-.1-.04,11.21,8.19,19.13,19.24,26.14,30.91,6.4,10.64,9.41,22.39,11.07,34.77,2.35,17.48-2.32,33.71-6.56,50.19-3.13,12.15-5.97,24.4-8.43,36.7-2.9,14.49-7.31,28.59-10.57,42.98-2.84,12.53-5.35,25.13-8.98,37.58-.77.15-1.03-.97-1.71-1.22-10.29-3.87-6.93-11.32-5.21-18.65,3.96-16.84,7.59-33.75,11.38-50.62,2.77-12.3,5.65-24.57,8.36-36.87,3.78-17.18,10.03-34,9.42-51.88-.47-13.69-4.12-26.57-12.96-37.61-17.81-22.24-55-26.3-75.62-1.61-13.96,16.71-18.28,35.65-13.24,56.95,3.14,13.29,5.28,26.82,8.21,40.17,5.35,24.32,10.98,48.58,16.44,72.87,1.61,7.15,3,14.34,4.54,21.5.21.97,1.67,2.41-.57,2.39-3.88-.04-5.67,3.02-8.46,5.16-3.35-5.15-3.53-11.19-4.9-16.77-4.06-16.52-7.65-33.15-11.43-49.74-4.16-18.27-8.14-36.58-12.58-54.79-2.15-8.81-4.02-17.65-5.11-26.63-2.68-21.97,2.14-42.07,15.4-59.96,2.14-2.89,3.94-6.02,6.94-8.28,1.65-1.24,3.13-3.11,2.58-5.59-.55-2.43,1.21-3.57,2.63-4.91Z"/>
  <path class="cls-3" d="m605.43,677.45c0,4.82.04,9.64,0,14.46-.11,10.88-9.08,20.4-20.02,21.49-7.07.71-13.77.53-19.54-4.59-4.99-4.43-8.82-9.04-8.63-16.37.29-11.13-.18-22.27-.18-33.41,0-6.34,2-8.34,8.26-8.41,10.14-.13,20.28-.19,30.41-.12,6.29.04,9.4,3.22,9.62,9.5.11,2.99.06,5.98.07,8.98,0,2.83,0,5.65,0,8.48h.02Z"/>
  <path class="cls-3" d="m615.24,684.79c11.95,10.79,12.2,36.9-.5,51.08-15.45,17.26-40.99,22.44-59.99,6.45-17.48-14.71-21.73-38.59-8.9-55.02,1.25,10.36,3.03,20.15,10.99,27.32,7.67,6.91,16.39,11.03,26.96,9.83,9.69-1.09,18.16-4.82,24.75-12.27,6.72-7.6,7.13-16.91,6.69-27.38Z"/>
  <path class="cls-2" d="m622.3,411.65c-.15.15-.3.31-.45.46.02-.1.02-.23.08-.28.1-.08.25-.11.38-.16,0,0,0-.02,0-.02Z"/>
  <path class="cls-1" d="m601.2,410.88c-1.58-.41-3.16-.81-4.73-1.22,1.61-2.05,3.05-1.68,4.73,1.22Z"/>
  <path class="cls-1" d="m606.19,412.87c-1.79-.43-3.59-.81-5.05-2.05,1.8.41,4.46-1.32,5.05,2.05Z"/>
  <path class="cls-1" d="m608.22,413.86c-.9.07-1.66-.15-2.07-1.05.84.07,1.74,0,2.07,1.05Z"/>
  <path class="cls-1" d="m582.23,1112.91c-52.27,0-104.54,0-156.81,0-1.16,0-2.41.21-3.47-.13-2.45-.78-4.75-2.13-4.48-5.11.24-2.59,2.27-3.88,4.74-4.26,1.14-.17,2.32-.08,3.49-.08,104.37.01,208.74.02,313.11.06,2.71,0,6.4-.91,7.19,2.68.91,4.09.5,6.97-5.47,6.93-14.98-.1-29.96-.08-44.94-.08-37.79,0-75.57,0-113.36,0Z"/>
</svg>