<?xml version="1.0" encoding="UTF-8"?>
<svg id="Layer_1" data-name="Layer 1" xmlns="http://www.w3.org/2000/svg" viewBox="0 0 1258 1348.9">
  <defs>
    <style>
      .cls-1 {
        fill: #333d45;
      }

      .cls-2 {
        fill: #cdd1eb;
      }

      .cls-3 {
        fill: #fefefe;
      }
    </style>
  </defs>
  <path class="cls-1" d="m664.54,1123.82c-17.65.41-33.6-1.42-49.55-3.98-24.28-3.88-47.87-10.07-70.55-19.54-29.14-12.16-45.7-34.64-52.42-64.94-1.01-4.54-2.66-8.98-1.61-13.92.48-2.28-2.11-3.43-4.07-4.35-12.1-5.66-23.86-11.96-35.23-18.98-27.67-17.08-51.82-38.15-72.24-63.51-13.18-16.36-23.56-34.4-32.76-53.17-2.13-4.34-4.1-8.86-5.31-13.51-.83-3.21-2.35-4.53-5.3-5.47-23.53-7.54-41.19-22.55-54.65-43-7.51-11.41-12.14-23.9-13.54-37.35-2.18-21.01-.79-42.13-1-63.2-.18-18.31-1.16-36.7.21-54.9,1.89-25.08,11.95-47.03,30.51-64.59,10.81-10.23,22.97-18.32,37.21-22.94,2.36-.77,3.23-2.08,3.62-4.11,2.1-11.07,6.56-21.32,10.72-31.7,8.84-22.08,20.44-42.74,33.87-62.2,12.09-17.5,26.48-33.24,42.55-47.33,12.95-11.35,27.12-20.67,42.05-29.39,28.6-16.71,58.68-29.45,90.14-39.3,16.51-5.17,33.4-8.47,50.5-11.17,19.68-3.1,39.43-4.44,59.26-4.19,15.28.2,30.6,1.25,45.75,3.36,11.34,1.58,22.53,4.16,33.79,6.31,21.22,4.06,41.54,11.14,61.47,19.24,24.77,10.07,48.26,22.61,70.69,37.3,8.43,5.52,16.44,11.55,23.92,18.06,11.34,9.87,21.78,20.84,31.02,32.77,12.82,16.54,25,33.55,34.26,52.44,8.53,17.38,15.63,35.33,21.39,53.8,1.26,4.04,3.39,5.93,7.39,7.52,21.54,8.59,38.79,22.61,50.74,42.65,8.75,14.67,12.4,30.71,13.37,47.75,1.9,33.58,1.25,67.16.6,100.71-.39,19.97-5.5,39.47-17.98,55.77-13.65,17.83-30.55,31.73-52.62,38.16-2.62.76-3.32,2.13-4.21,4.58-4.19,11.53-8.44,23.06-15.1,33.54-4.63,7.3-8.09,15.44-13.32,22.24-4.97,6.47-9.8,13.09-15.21,19.29-9.07,10.38-19.14,19.64-29.33,28.83-9.38,8.46-19.68,15.65-30.3,22.42-13.64,8.69-27.82,16.4-42.5,23.17-2.07.95-2.92,1.8-3.07,4.22-1.26,20.27-8.32,38.24-20.83,54.34-12.09,15.55-28.39,23.84-46.55,29.86-10.46,3.47-21.03,6.52-31.65,9.33-10.24,2.71-20.76,4.61-31.27,6.01-14.7,1.95-29.44,3.95-42.87,3.09Zm365.84-406.7c.17-19.85,1.66-39.78-1.88-59.45-3.04-16.91-11.11-31.04-25.51-41.05-.78-.54-1.45-1.58-2.58-1.14-1.25.48-.67,1.7-.74,2.6-.09,1.16-.12,2.34.01,3.49,1.59,13.14,2.3,26.33,2.31,39.57.01,22.63.21,45.26.33,67.89-1.01,16.94-.48,33.9-.42,50.85.05,13.08-1.83,26-2.13,39.02-.03,1.41-2.17,2.9-.45,3.97,1.74,1.08,3.72-.45,5-1.44,6.27-4.89,11.99-10.37,16.16-17.25,6.65-10.96,9.83-22.99,10.01-35.68.24-17.12-.05-34.25-.11-51.37Zm-733.01-.96c-.02,16.96.08,33.92-.12,50.87-.09,8.12,1.55,15.78,3.86,23.53,4.17,14.02,13.29,23.96,24.59,32.43,1.06.79,1.9,1.39,2.98.51.69-.56.56-1.41.14-2.24-2.86-5.66-2.29-11.98-2.43-17.89-.61-25.1-.49-50.21-.63-75.32.64-37.48-.83-74.97,1.57-112.77-1.03.32-1.53.36-1.9.61-1.38.93-2.78,1.84-4.06,2.89-14.52,11.92-22.52,27.66-23.83,45.99-1.22,17.05-.87,34.25-.17,51.39Zm208.96,215.78c-.15.65-.33,1.28-.44,1.94-2.52,15.56-5.38,31.07-9.86,46.18-1.14,3.86-.26,5.28,2.83,6.78,16.96,8.24,34.76,14.32,52.69,19.93,13.01,4.07,26.45,6.81,39.93,8.94,12.99,2.05,26.05,4.24,39.15,4.95,23.99,1.29,48.05,2.13,72.03-.75,9.37-1.12,18.8-1.88,28.1-3.44,10.85-1.82,21.65-4.07,32.36-6.6,23.03-5.42,45.43-12.74,66.83-22.94,2.04-.97,2.98-1.91,2.27-4.54-4.48-16.62-7.76-33.51-10.72-50.46-.58-2.53-1.57-5.04-1.68-7.59-.45-10.56-2.92-20.83-4.37-31.24-1.51-10.86-2.45-21.77-3.47-32.66-.37-4-1.49-5.08-4.82-4.28-7.83,1.87-15.82,2.78-23.76,3.89-8.24,1.15-16.52,2.06-24.81,2.87-11.36,1.11-22.8,1.54-34.13,2.52-11.61,1-23.24,2.11-34.86,2.49-15.78.51-31.59-.04-47.39-.09-6.29-.02-12.69.83-18.86-.03-11.11-1.54-22.32-1.52-33.43-2.79-10.75-1.23-21.59-1.73-32.3-3.14-14.11-1.86-28.15-4.31-42.24-6.51-1.35,25.95-5.28,51.25-9.04,76.58Zm-148.9-185.83c-.03,18.53-1.09,37.05.85,55.6,1.25,11.95,3.42,23.6,6.53,35.19,8.66,32.14,23.36,61.01,45.3,86.14,16.87,19.33,36.55,35.23,58.45,48.5,2.86,1.73,3.57.73,4.16-1.88,2.08-9.07,4.5-18.07,6.28-27.19,1.58-8.11,3.96-16.11,3.99-24.48,2.88-8.65,2.62-17.8,4.03-26.68,2-12.61,2.74-25.43,4.05-38.15.2-1.92-.37-2.64-2.42-3.32-10.95-3.63-22.12-6.63-32.21-12.61-12.95-7.68-24.27-16.96-32.71-29.61-7.7-11.55-12.6-24.12-16.08-37.54-3.32-12.77-4.9-25.77-5.22-38.71-.39-15.62-.53-31.32,1.52-46.99,2.57-19.73,8.1-38.25,19.92-54.35,14.04-19.12,33.65-29.73,56.47-34.76,11.11-2.45,22.13-5.46,33.59-6.12,2.09-.12,3.52-1.59,2.94-4.14-.94-4.15-1.35-8.42-2.16-12.57-3.34-17.18-5.51-34.56-9.41-51.67-2.75-12.08-5.2-24.28-7.84-36.42-3.83-17.57-9.31-34.67-14.62-51.83-.7-2.26-1.63-3.66-4.27-1.89-1.56,1.05-3.59,1.39-5.13,2.46-13.25,9.15-26.31,18.59-37.72,30.03-27.61,27.68-48.33,59.86-61.6,96.65-4.34,12.02-7.64,24.41-10.57,36.89-3.72,15.84-5.62,31.87-6.32,48.07-.27,6.32-.12,12.65-.1,18.98.1,27.47-.63,54.94.29,82.4Zm487.15,172.99c2.62,16.55,6.39,32.86,10.04,49.21,1.1,4.94,3.09,4.79,6.48,2.55,8.15-5.4,16.42-10.61,24.23-16.55,29.8-22.68,52.05-51.43,67.14-85.45,5.53-12.47,9.76-25.7,12.37-39.31,2.4-12.48,4.3-24.94,5.14-37.67.95-14.59,1.13-29.12.76-43.7.06-.33.17-.65.18-.98.32-38.33,1.37-76.64-2.08-114.94-1.63-18.02-4.74-35.62-9.75-52.86-4.28-14.7-9.62-29.03-16.2-42.98-9.15-19.38-20.42-37.18-33.93-53.77-10.9-13.38-22.8-25.56-36.56-35.98-2.68-2.03-6.4-2.37-8.39-4.76-4.09-4.92-9.79-7.18-14.91-10.42-2.54-1.61-3.89-.78-4.66,1.82-2.86,9.61-5.82,19.19-8.56,28.84-3.45,12.1-6.32,24.34-8.84,36.67-1.94,9.49-4.2,18.92-6.06,28.43-1.86,9.46-3.37,18.98-5.08,28.47-1.75,9.69-3.49,19.37-4.44,29.19-.24,2.45.03,3.19,2.71,3.72,15.44,3.09,30.94,5.72,46.1,10.33,8.82,2.69,16.67,6.97,23.84,12.02,19.61,13.81,31.07,33.56,36.32,56.63,2.44,10.7,3.64,21.75,4.38,32.8,1.45,21.6.04,42.93-3.78,64.25-4.67,26.12-16,47.99-37.46,64.19-13.09,9.89-27.69,16.41-43.55,20.27-1.96.48-4.99.46-4.09,3.54,1.1,3.74.69,7.51,1.16,11.25,1.32,10.72,2.38,21.48,3.81,32.19,1.02,7.7,2.47,15.35,3.73,23.02Zm-236.63-338c1.1.09,2.36.81,3.02-.77,14.97-.39,29.94-.99,44.91-1.13,30.2-.26,60.35.99,90.5,2.92,11.7.75,23.35,1.83,34.97,3.22,3.82.46,4.97-1.43,5.33-4.4,1.68-13.97,4.59-27.74,6.89-41.61,3.15-18.92,6.83-37.74,11.5-56.3,5.42-21.52,10.36-43.23,18.22-64.07.65-1.72-.05-2.35-1.46-2.98-2.84-1.27-5.53-2.88-8.43-3.99-9.2-3.51-18.05-7.78-27.35-11.16-12.83-4.66-25.94-8.23-38.91-12.29-11-3.45-22.5-4.46-33.8-6.49-11.22-2.01-22.52-2.62-33.79-3.35-13.37-.87-26.76-.66-40.22.49-10.95.93-21.92,1.86-32.74,3.52-23.65,3.64-46.66,10.04-68.91,18.87-10.52,4.17-21.28,7.87-31.12,13.68-2.4,1.42-2.74,2.81-2.04,5.18,4.38,14.76,9.74,29.16,13.12,44.29,5.32,23.8,11.25,47.44,15.76,71.45,2.83,15.06,4.52,30.28,7.5,45.29.7,3.51,2.2,4.2,4.96,3.68,10.35-1.92,20.86-2.11,31.31-2.82,10.23-.69,20.5-.85,30.76-1.24Zm70.24,511.75c1.8.65,3.68-.86,5.82-1.1,13.29-1.46,26.73-2.45,39.77-5.21,14.8-3.12,29.32-7.66,43.59-12.79,2.63-.95,5.26-1.91,7.19-4.14,1.55-1.79,3.37-2.96,5.97-2.79,1.86.12,3.33-1.06,4.82-2.16,9.29-6.81,14.22-16.49,17.93-26.98.48-1.37,1.32-3.1.18-4.27-1.34-1.39-3.07-.2-4.62.22-10.74,2.87-21.48,5.76-32.23,8.58-23.75,6.23-47.97,9.74-72.27,11.29-23.62,1.5-47.47,1.43-71.15-.8-4.6-.43-9.28-.13-13.76-.97-12.08-2.26-24.24-3.99-36.24-6.81-14.67-3.45-29.29-6.95-43.56-11.84-2.04-.7-4.46-3.21-6.17-1.46-1.8,1.84,1.33,4.42.95,6.9-.02.1.25.22.3.36,7.22,17.99,20.3,29.5,38.63,35.47,14.01,4.56,28.06,8.92,42.51,11.91,14.72,3.04,29.55,5.4,44.52,6.47,9.08.65,18.24.12,27.81.12Zm54.75-374.32c-.66,26.13,23.78,50.84,49.05,50.51,30.11-.39,51.28-22.83,51.65-51.35.39-29.93-22.49-50.92-55.04-50.37-21.53.36-45.92,21.33-45.66,51.21Zm-188.61-51.27c-26.31-1.76-53.5,22.8-50.2,57.36,1.91,19.98,22.47,44.37,48.93,44.32,31.07-.05,51.44-22.58,51.57-50.82.13-28.65-22.54-52.18-50.3-50.87Z"/>
  <path class="cls-3" d="m607.95,581.12c-10.25.39-20.53.55-30.76,1.24-10.45.71-20.96.89-31.31,2.82-2.76.51-4.26-.17-4.96-3.68-2.99-15.02-4.67-30.24-7.5-45.29-4.51-24.01-10.44-47.65-15.76-71.45-3.38-15.13-8.74-29.53-13.12-44.29-.7-2.37-.36-3.76,2.04-5.18,9.84-5.82,20.6-9.51,31.12-13.68,22.25-8.83,45.26-15.22,68.91-18.87,10.82-1.67,21.79-2.59,32.74-3.52,13.46-1.14,26.85-1.35,40.22-.49,11.27.73,22.57,1.33,33.79,3.35,11.3,2.03,22.81,3.04,33.8,6.49,12.98,4.07,26.09,7.63,38.91,12.29,9.29,3.38,18.15,7.65,27.35,11.16,2.89,1.1,5.59,2.72,8.43,3.99,1.41.63,2.11,1.26,1.46,2.98-7.87,20.84-12.81,42.55-18.22,64.07-4.67,18.56-8.35,37.38-11.5,56.3-2.31,13.87-5.21,27.63-6.89,41.61-.36,2.97-1.51,4.86-5.33,4.4-11.62-1.39-23.26-2.47-34.97-3.22-30.15-1.92-60.3-3.18-90.5-2.92-14.97.13-29.94.74-44.91,1.13-1.47-1.55-2.5-1.36-3.02.77Z"/>
  <path class="cls-3" d="m844.58,919.11c-1.26-7.67-2.7-15.32-3.73-23.02-1.42-10.71-2.48-21.47-3.81-32.19-.46-3.74-.06-7.5-1.16-11.25-.9-3.08,2.13-3.07,4.09-3.54,15.87-3.86,30.46-10.38,43.55-20.27,21.46-16.2,32.79-38.07,37.46-64.19,3.81-21.32,5.22-42.66,3.78-64.25-.74-11.05-1.94-22.1-4.38-32.8-5.25-23.06-16.71-42.82-36.32-56.63-7.17-5.05-15.02-9.33-23.84-12.02-15.15-4.61-30.66-7.24-46.1-10.33-2.68-.54-2.95-1.28-2.71-3.72.95-9.82,2.69-19.5,4.44-29.19,1.71-9.49,3.23-19.01,5.08-28.47,1.87-9.51,4.12-18.94,6.06-28.43,2.52-12.33,5.39-24.57,8.84-36.67,2.75-9.64,5.7-19.23,8.56-28.84.77-2.6,2.12-3.43,4.66-1.82,5.12,3.25,10.82,5.51,14.91,10.42,1.99,2.4,5.71,2.73,8.39,4.76,13.77,10.42,25.66,22.6,36.56,35.98,13.51,16.59,24.78,34.4,33.93,53.77,6.59,13.95,11.93,28.29,16.2,42.98,5.02,17.24,8.13,34.84,9.75,52.86,3.46,38.3,2.4,76.61,2.08,114.94,0,.33-.12.65-.18.98-2.67.09-2.49,2.49-2.88,4.02-2.04,8.03-4.52,15.92-6.8,23.87-6.5,22.6-17.31,43-30.12,62.44-18.95,28.72-43.11,52.41-71.41,71.83-4.71,3.23-9.21,7.12-14.93,8.77Z"/>
  <path class="cls-3" d="m357.43,746.12c-.92-27.46-.19-54.93-.29-82.4-.02-6.33-.17-12.66.1-18.98.69-16.2,2.6-32.23,6.32-48.07,2.93-12.49,6.24-24.87,10.57-36.89,13.27-36.8,33.99-68.97,61.6-96.65,11.4-11.43,24.47-20.87,37.72-30.03,1.54-1.06,3.57-1.41,5.13-2.46,2.64-1.77,3.57-.37,4.27,1.89,5.31,17.15,10.79,34.26,14.62,51.83,2.64,12.13,5.09,24.33,7.84,36.42,3.9,17.12,6.07,34.49,9.41,51.67.81,4.15,1.22,8.42,2.16,12.57.58,2.55-.85,4.02-2.94,4.14-11.46.66-22.48,3.67-33.59,6.12-22.82,5.03-42.43,15.64-56.47,34.76-11.82,16.11-17.35,34.63-19.92,54.35-2.04,15.67-1.9,31.37-1.52,46.99.32,12.94,1.9,25.94,5.22,38.71,3.49,13.43,8.38,25.99,16.08,37.54,8.44,12.66,19.76,21.93,32.71,29.61,10.09,5.98,21.26,8.98,32.21,12.61,2.04.68,2.62,1.39,2.42,3.32-1.31,12.72-2.05,25.54-4.05,38.15-1.41,8.88-1.15,18.03-4.03,26.68-1.6.16-2.79-.67-4.1-1.46-24.35-14.68-45.75-32.89-64.16-54.5-15.19-17.84-28.09-37.25-37.49-58.83-6.81-15.64-13.04-31.47-16.47-48.31-.59-2.9-.09-6.7-3.34-8.78Z"/>
  <path class="cls-3" d="m506.33,931.94c3.76-25.33,7.69-50.63,9.04-76.58,14.09,2.2,28.13,4.64,42.24,6.51,10.72,1.41,21.56,1.91,32.3,3.14,11.12,1.27,22.32,1.25,33.43,2.79,6.17.85,12.57,0,18.86.03,15.8.05,31.61.61,47.39.09,11.62-.38,23.25-1.49,34.86-2.49,11.33-.97,22.77-1.41,34.13-2.52,8.28-.81,16.56-1.72,24.81-2.87,7.95-1.11,15.93-2.02,23.76-3.89,3.34-.8,4.45.29,4.82,4.28,1.02,10.89,1.96,21.8,3.47,32.66,1.45,10.41,3.92,20.68,4.37,31.24.11,2.55,1.1,5.06,1.68,7.59-3.3-.14-5.33,2.49-8.02,3.68-24.49,10.82-49.79,19.03-76.11,24.02-14.94,2.84-30.02,5.41-45.15,6.01-14.35.56-28.69,1.91-43.2.63-14.66-1.29-29.37-1.97-43.9-4.39-28.46-4.74-56.4-11.44-83.05-22.8-5.3-2.26-10.5-4.75-15.74-7.14Z"/>
  <path class="cls-2" d="m506.33,931.94c5.24,2.39,10.44,4.88,15.74,7.14,26.65,11.36,54.59,18.06,83.05,22.8,14.53,2.42,29.24,3.1,43.9,4.39,14.51,1.28,28.86-.07,43.2-.63,15.13-.59,30.21-3.17,45.15-6.01,26.32-5,51.62-13.2,76.11-24.02,2.69-1.19,4.72-3.82,8.02-3.68,2.96,16.95,6.24,33.84,10.72,50.46.71,2.63-.23,3.57-2.27,4.54-21.4,10.19-43.81,17.52-66.83,22.94-10.71,2.52-21.51,4.78-32.36,6.6-9.3,1.56-18.73,2.32-28.1,3.44-23.98,2.88-48.03,2.04-72.03.75-13.1-.71-26.16-2.89-39.15-4.95-13.48-2.13-26.91-4.87-39.93-8.94-17.92-5.61-35.73-11.69-52.69-19.93-3.09-1.5-3.98-2.93-2.83-6.78,4.48-15.11,7.34-30.62,9.86-46.18.11-.65.29-1.29.44-1.94Z"/>
  <path class="cls-2" d="m678.19,1092.87c-9.57,0-18.73.53-27.81-.12-14.97-1.07-29.8-3.43-44.52-6.47-14.46-2.99-28.5-7.35-42.51-11.91-18.33-5.97-31.41-17.48-38.63-35.47-.06-.14-.32-.26-.3-.36.38-2.48-2.75-5.06-.95-6.9,1.71-1.75,4.13.76,6.17,1.46,14.27,4.89,28.89,8.39,43.56,11.84,12,2.82,24.16,4.55,36.24,6.81,4.48.84,9.16.54,13.76.97,23.67,2.23,47.52,2.31,71.15.8,24.29-1.55,48.51-5.06,72.27-11.29,10.75-2.82,21.49-5.71,32.23-8.58,1.55-.41,3.28-1.6,4.62-.22,1.13,1.17.3,2.9-.18,4.27-3.71,10.49-8.63,20.17-17.93,26.98-1.5,1.1-2.96,2.28-4.82,2.16-2.59-.17-4.41,1-5.97,2.79-1.93,2.22-4.56,3.19-7.19,4.14-14.28,5.13-28.8,9.67-43.59,12.79-13.05,2.75-26.48,3.74-39.77,5.21-2.14.24-4.02,1.75-5.82,1.1Z"/>
  <path class="cls-2" d="m732.94,718.55c-.26-29.88,24.13-50.84,45.66-51.21,32.55-.55,55.42,20.43,55.04,50.37-.37,28.52-21.53,50.95-51.65,51.35-25.26.33-49.7-24.38-49.05-50.51Z"/>
  <path class="cls-2" d="m544.33,667.28c27.76-1.31,50.42,22.22,50.3,50.87-.12,28.24-20.49,50.77-51.57,50.82-26.46.04-47.02-24.35-48.93-44.32-3.3-34.56,23.89-59.12,50.2-57.36Z"/>
  <path class="cls-2" d="m844.58,919.11c5.72-1.65,10.22-5.54,14.93-8.77,28.3-19.42,52.47-43.1,71.41-71.83,12.82-19.43,23.63-39.84,30.12-62.44,2.28-7.95,4.76-15.84,6.8-23.87.39-1.54.21-3.93,2.88-4.02.37,14.58.2,29.11-.76,43.7-.83,12.74-2.74,25.19-5.14,37.67-2.62,13.61-6.84,26.84-12.37,39.31-15.09,34.02-37.33,62.77-67.14,85.45-7.81,5.94-16.07,11.15-24.23,16.55-3.39,2.24-5.37,2.39-6.48-2.55-3.65-16.34-7.42-32.66-10.04-49.21Z"/>
  <path class="cls-2" d="m357.43,746.12c3.25,2.08,2.75,5.88,3.34,8.78,3.43,16.84,9.66,32.67,16.47,48.31,9.39,21.58,22.3,40.99,37.49,58.83,18.4,21.61,39.8,39.82,64.16,54.5,1.31.79,2.5,1.62,4.1,1.46-.03,8.37-2.41,16.37-3.99,24.48-1.78,9.13-4.2,18.12-6.28,27.19-.6,2.61-1.31,3.61-4.16,1.88-21.9-13.27-41.58-29.17-58.45-48.5-21.94-25.13-36.64-54-45.3-86.14-3.12-11.58-5.28-23.23-6.53-35.19-1.94-18.55-.88-37.06-.85-55.6Z"/>
  <path class="cls-3" d="m297.37,716.16c-.7-17.13-1.05-34.34.17-51.39,1.31-18.32,9.31-34.07,23.83-45.99,1.28-1.05,2.68-1.97,4.06-2.89.37-.25.87-.29,1.9-.61-2.4,37.8-.94,75.29-1.57,112.77-3.96.13-7.59-.68-11.29-2.41-5.93-2.79-11.76-5.66-17.09-9.48Z"/>
  <path class="cls-3" d="m1002.32,729.03c-.12-22.63-.32-45.26-.33-67.89,0-13.24-.72-26.43-2.31-39.57-.14-1.15-.11-2.33-.01-3.49.07-.9-.5-2.12.74-2.6,1.13-.44,1.81.6,2.58,1.14,14.41,10.01,22.47,24.15,25.51,41.05,3.54,19.67,2.05,39.61,1.88,59.45-.94.24-2.06.23-2.81.75-7.7,5.35-15.92,9.51-25.25,11.15Z"/>
  <path class="cls-2" d="m1002.32,729.03c9.33-1.64,17.55-5.8,25.25-11.15.75-.52,1.86-.51,2.81-.75.06,17.12.35,34.25.11,51.37-.18,12.69-3.35,24.72-10.01,35.68-4.18,6.89-9.89,12.37-16.16,17.25-1.28,1-3.26,2.53-5,1.44-1.72-1.07.42-2.56.45-3.97.3-13.03,2.18-25.95,2.13-39.02-.06-16.95-.59-33.91.42-50.85Z"/>
  <path class="cls-2" d="m297.37,716.16c5.34,3.82,11.16,6.69,17.09,9.48,3.7,1.74,7.32,2.54,11.29,2.41.15,25.11.02,50.22.63,75.31.14,5.91-.43,12.23,2.43,17.89.42.84.55,1.68-.14,2.24-1.08.88-1.92.28-2.98-.51-11.3-8.47-20.42-18.41-24.59-32.43-2.31-7.75-3.95-15.41-3.86-23.53.2-16.96.1-33.91.12-50.87Z"/>
  <path class="cls-2" d="m607.95,581.12c.53-2.13,1.55-2.32,3.02-.77-.67,1.59-1.93.86-3.02.77Z"/>
</svg>