<?xml version="1.0" encoding="UTF-8"?>
<svg id="Layer_1" data-name="Layer 1" xmlns="http://www.w3.org/2000/svg" viewBox="0 0 761.27 616.36">
  <defs>
    <style>
      .cls-1 {
        fill: #36393f;
      }

      .cls-2 {
        fill: #aa91f3;
      }
    </style>
  </defs>
  <path class="cls-1" d="m403.08,273.16c9.53,2.88,19.32,4.38,29.17,5.67,2.87.38,5.75.79,8.6,1.23,3.79.59,5.32,3.07,3.24,6.85-4.12,4.82-10.18,2.41-15.23,3.85-9.26,2.63-19.1,3.2-28.49,5.49-15.47,3.76-30.25,9.3-42.3,20.32-1.36.28-2.45.89-2.85,2.34-.4.47-.79.94-1.19,1.41-3.39,1.93-5.55,5.26-7.62,8.22-5.96,8.53-10.21,17.98-12.18,28.31-.61,1.66-1.21,3.33-1.82,4.99-.14,1.45-.28,2.91-.43,4.36-1.15,3.47-2.59,6.86-2.54,10.61.44,1.82-1.71,3.12-.99,4.99-.14,1.31-.29,2.61-.43,3.92-1.47,1.19-.61,2.68-.54,4.07-.28,2.34-1.91,4.47-1.08,6.99-.71,2.95-1.33,5.9-1.25,8.96-1.83,1.58-.87,3.69-.85,5.5.03,3.09-1.09,5.08-4.09,5.93-5.38-.33-5.51-4.85-5.89-8.32-1.47-13.46-3.69-26.8-6.14-40.09-1.38-7.5-3.23-14.96-5.93-22.15-8.77-23.32-25.59-38.04-48.88-46.08-16.49-5.69-33.53-8.54-50.77-10.58-1.74-.21-3.75-.47-5.07-1.46-1.64-1.22-4.35-2.17-3.35-5.31.79-2.47,2.5-3.01,4.89-3.31,17.21-2.12,34.21-5.31,50.83-10.38,26.8-8.19,45.12-25.12,53.86-51.98.35-1.08.34-2.27.5-3.41,1.7-.99.66-2.67,1.02-4.01,1.37-.71,1.03-1.86.78-3,1.32-2.5,2.04-5.15,1.99-7.99,2.39-8.83,3.49-17.86,4.17-26.95,1.29-.71.93-1.89.86-3-.44-4.09,1.48-7.92,1.18-12.06-.18-2.52,1.35-4.75,4.03-5.38,2.91-.68,4.82.94,6.05,3.46-.2,3.03-.51,6.08,1.18,8.86.3,2.04.6,4.08.91,6.12-.08,2.38-.99,4.87.92,6.99.31,2.33-.93,4.89,1,6.99.08.71.17,1.42.25,2.14-.02.57-.04,1.13-.06,1.7.27,1.21.52,2.43.81,3.63,2.3,9.58,3.35,19.5,7.69,28.53.8,1.97,1.61,3.95,2.41,5.92.53,1.09,1.06,2.19,1.6,3.28,1.11,3.25,2.86,6.12,5.07,8.73-.11,2.13,1.85,2.75,2.92,4.02,1.01,1.97,2.29,3.71,4.1,5.01,3.32,4.45,7.76,7.68,12.25,10.76,9.96,6.83,20.88,11.49,32.74,13.92,1.64.46,3.29.92,4.93,1.38Zm-70.52,62.84c.47-.93.94-1.87,1.41-2.8.54-1.05,1.09-2.1,1.63-3.15,1.47-2.05,2.94-4.1,4.41-6.15.68-1,1.37-1.99,2.05-2.99.69-1.01,1.37-2.01,2.06-3.02,1.34-1.38,2.68-2.76,4.03-4.13,3.94-3.34,7.87-6.67,11.81-10.01.59-.37,1.18-.73,1.77-1.1l1.45-.89c1.57-.62,3.22-1.12,4.08-2.78,2.62-.29,4.74-1.73,6.91-3.04,3.13-1.08,6.37-1.93,9.1-3.94,1.49.23,2.73-.37,3.89-1.2,1.53.38,2.69-.63,3.99-1.08,7.2-1.73,14.4-3.45,22.24-5.33-6.21-1.05-11.53-3.12-17.22-3.45-5.32-1.6-10.3-4.29-15.91-4.99-5.68-3.03-11.35-6.05-17.03-9.08-.39-.91-1.3-.73-2.01-.95-1.09-2.04-3.09-2.97-4.99-4.01-1.22-1.01-2.44-2.01-3.66-3.02-1.76-1.66-3.52-3.32-5.29-4.98l.04.04c-3.95-5.39-7.91-10.77-11.86-16.16l.05.03c-.79-1.27.6-3.81-2.27-3.85-1.69-4.2-3.4-8.4-5.06-12.61-3.96-10.08-5.41-20.81-8.12-31.21.27-.93.5-2.48-.32-2.52-1.24-.07-1.81,1.18-1.26,2.53.36,2.76-1.69,5.19-1.1,7.98-.52.94-1.61,1.69-.92,3-2.03,9.86-4.89,19.47-8.47,28.87-.37.54-.82,1.03-1.09,1.61-10.17,22.6-27.99,36.72-50.82,44.82-9.47,3.36-19.42,5.39-30.22,8.31,5.46,1.12,9.94,2.04,14.42,2.95,5.33,1.7,10.65,3.39,15.98,5.09.95.22,1.89.45,2.84.67,7.2,3.21,14.36,6.52,21.01,10.8,9.41,7.32,17.7,15.68,23.99,25.88,3.55,8.08,7.46,16.02,9.31,24.74-.2.66.13,1.01.7,1.22.1.93.21,1.85.31,2.78-.23.67.16.96.72,1.14.97,4.59,1.93,9.18,2.94,13.75.2.89.11,2.12,1.45,2.25,1.68.16,1.71-1.24,1.92-2.3.93-4.61,1.79-9.24,2.68-13.86.48-3.04,2.48-5.72,2.14-8.96,2.47-2.9,2.98-6.59,4.04-10.05.82-1.57,2.13-2.92,2.23-4.83Zm-12.68,45.01c.3-1.38.73-2.77-.34-4.12-.88,1.46-.3,2.8.34,4.12Z"/>
  <path class="cls-1" d="m452.9,304.57c3.14.53,3.06,3.53,4.26,5.55.88,8.24,2.65,16.39,5.19,24.18,2.91,8.91,6.95,17.57,15.69,22.69,1.87,1.45,3.68,3,6.05,3.62,6.1,3.14,12.46,5.55,19.21,6.89,1.25.1,2.51.19,3.76.29.77.12,1.53.25,2.3.37,1.66.6,3.11,1.67,5.05,1.59,3.48-.14,5.69,1.63,6.56,5.01-1.24,1.78-2.72,2.72-5.02,3.35-4.6,1.25-9.31,1.69-13.91,2.77-7.9,1.85-15.82,3.66-22.2,9.17-6.41,3.64-11.65,8.32-13.87,15.67l.06-.06c-2.65,2.46-3.55,5.69-4.03,9.1l.11-.1c-.92.79-.93,1.89-.99,2.97-2.73,7.95-4.55,16.1-5.07,24.51-4.04,3.08-6.64,1-8.86-2.46.58-3.43-.72-6.64-1.16-9.96.15-1.14.42-2.32-.91-3.02-.45-1.64.88-3.64-1-4.99-.29-5.39-2.67-10.16-4.45-15.11-.58-.95-1.17-1.9-1.75-2.84-1.61-4.05-4.16-7.35-7.8-9.79-1.75-.59-2-2.97-3.96-3.31-1.4-1.45-3.02-2.52-5-2.99-3.23-2.53-7.12-3.23-10.99-3.97-2.1-1.48-4.47-1.98-6.99-1.92-3.68-.93-7.35-1.86-11.03-2.79-.67,0-1.33-.01-2-.02-.67,0-1.33,0-2,0-.29-.14-.59-.21-.91-.22-.58-.62-1.16-1.24-1.73-1.86-2.48-2.54-1.21-4.58.87-6.51.92-.29,1.85-.58,2.77-.88,2.58-1.11,5.57,0,8.08-1.49,1.69-.19,3.5.11,4.91-1.22,9.39-1.01,17.92-4.35,25.5-9.89,12.93-9.46,16.2-23.67,18.76-38.31.85-4.85-.35-10.63,4.89-14.03h1.6Zm-21.87,61.21l.09-.06c-1.85-.27-2.95.93-4.08,2.08,0,0,.11-.07.11-.07-1.49.69-2.98,1.37-4.47,2.06-4.19,1.05-8.29,2.34-12.84,4.74,4.2.4,7.16,1.98,10.27,3.08,9.75,4.23,17.66,10.78,24.17,19.1,2.57,6.67,6.06,12.97,8.42,20.02.76-2.61,1.52-5.22,2.28-7.83,6.8-18.78,20.58-29.71,39.77-34.99-17.96-4.93-31.28-14.94-38.55-32.12-.12-2.38-1.19-4.39-2.51-6.3-.32-1.22-.64-2.43-1.09-4.12-2.69,6.03-3.64,12.07-6.7,17.34-1.35,2.32-3.66,4.14-3.93,7.06l.05-.06c-3.22,2.15-6.16,4.59-8.05,8.06l.1-.09c-1.83-.49-2.59.59-3.06,2.09Z"/>
  <path class="cls-2" d="m524.95,381.69c-9.76,1.77-19.66,2.88-29.02,6.55-18.94,7.42-28.25,22.13-31.9,41.33-1.02,5.35-1.18,10.87-3.13,16.04-.31.02-.6.1-.88.25-2.55.06-4.3-.72-3.98-3.72.51-8.41,2.33-16.55,5.07-24.51.33-.99.66-1.98.99-2.97,0,0-.11.1-.11.1,2.24-2.64,3.95-5.51,4.03-9.1,0,0-.06.06-.06.06,4.62-5.22,9.25-10.45,13.87-15.67,6.39-5.5,14.3-7.32,22.2-9.17,4.6-1.08,9.31-1.51,13.91-2.77,2.3-.63,3.78-1.57,5.02-3.35,5.44.61,6.03,1.65,4,6.97v-.04Z"/>
  <path class="cls-1" d="m452.02,257.71c-5.82.6-7.21-1.05-7.94-6.89-1.48-11.89-3.32-23.83-9.88-34.21-5.29-8.37-12.93-13.72-22.56-16.59-7.75-2.31-15.51-4.37-23.48-5.68-.99-.09-1.98-.18-2.98-.27-1.29-1.77-3.89-2.89-2.98-5.77.95-3,3.57-2.66,5.95-3.38,2.65-.81,5.71.1,8-1.95,2.28.51,4.08-.69,5.94-1.67,8.19.08,15.13-3.82,21.53-8.02,10.57-6.95,15.55-17.78,17.93-29.91.14-.71.28-1.43.42-2.14-.27-2.09,1.65-3.83.97-5.99.61-2.62,1.22-5.24,1.83-7.86.85-2.41-.09-5.87,4.15-6.21,3.34-.27,4.93,1.13,5.33,4.27,1.29,8.58,2.71,17.14,5.81,25.29,3.18,8.37,6.57,16.68,14.92,21.5l.08.04c.28.76.85,1.11,1.64,1.14l.23.19c.3.2.59.39.89.59,1.42.73,2.84,1.46,4.27,2.19,1,.53,2,1.05,3,1.58,8.53,3.94,17.71,5.47,26.84,7.23,2.37.46,5.51.25,5.26,4.16-.47,3.13-2.71,4.27-5.47,4.73-2.58.44-5.21.61-7.75,1.18-10.1,2.27-20.6,3.51-28.77,10.88-.76-.13-1.37-.06-1.2.97l.07-.07c-.84-.14-1.5-.08-1.1,1.06l.09-.08c-1.03-.31-1.5-.05-1.09,1.08l.09-.1c-1.71-.33-2.47.31-2.12,2.08l.09-.09c-1.11-.4-1.46-.03-1.08,1.07l.06-.1c-2.1-.03-2.54,1.55-3,3.11l.03-.03c-3.2,3.42-5.37,7.36-6.03,12.05l.05-.08c-1,.33-1.56,1.04-1.78,2.06-.42,2.08-.75,4.18-1.26,6.24-1.86,7.44-1.95,15.26-5,22.43Zm-25.9-75.67c-.37.03-.73.06-1.1.1-5.83,2.4-11.67,4.81-17.82,7.34,2.08.64,3.67,1.09,5.23,1.64,1.56.55,3.08,1.19,4.62,1.79,8.17,3.11,15.04,8.14,21.11,14.35,5.07,7.73,9.06,15.97,11.38,25.1.43-3.01,2.02-5.42,2.51-8.16,6.37-18.48,19.9-29.34,38.42-34.89-15.12-4.9-26.98-12.65-34.39-26.35-1.21-2.24-1.46-5.06-3.78-6.67-.41-1.57.3-3.51-1.54-4.6-.36-1.45-.73-2.89-1.26-5.03-2.17,9.79-7.2,17.44-11.53,25.42l.06-.06c-2.69,1.35-4.67,3.4-6.04,6.06l.06-.06c-1.87.34-3.91.45-4.06,3.07l.12-.08c-1.33-.86-1.71.11-2.07,1.08l.07-.05Z"/>
  <path class="cls-2" d="m458.72,126.38c1.31,6.48,2.59,12.97,3.95,19.45,2.05,9.74,7.18,18.06,12.3,26.38-8.35-4.83-11.73-13.13-14.92-21.5-3.1-8.15-4.51-16.71-5.81-25.29,1.23.1,2.46.2,3.69.3.26.22.52.45.78.67Z"/>
  <path class="cls-2" d="m517.17,189.31c1.26.31,2.51.63,3.77.94,2.86,4.48,1.04,7.27-5.25,7.86-9.66.92-18.86,3.52-27.73,7.39-14.94,6.51-21.48,19.29-25.93,33.9-1.61,5.27-1.61,10.57-2.3,15.87-.26,2.02-.19,4.55-2.68,5.49-2.86,1.09-3.44-1.88-5.04-3.06,3.05-7.17,3.14-15,5-22.43.51-2.06.85-4.16,1.26-6.24,2.62,1.06,1.49-1.11,1.78-2.06,0,0-.05.08-.05.08,2.83-3.61,5.02-7.53,6.03-12.05,0,0-.03.03-.03.03,2.06-.01,2.86-1.24,3-3.11,0,0-.06.1-.06.1.67-.04,1.01-.42,1.08-1.07,0,0-.09.09-.09.09,1.17-.22,1.8-.99,2.12-2.08,0,0-.09.1-.09.1.36-.36.73-.72,1.09-1.08,0,0-.09.08-.09.08.37-.35.73-.71,1.1-1.06,0,0-.07.07-.07.07.4-.32.8-.65,1.2-.97,8.17-7.37,18.68-8.61,28.77-10.88,2.54-.57,5.17-.74,7.75-1.18,2.75-.47,5-1.6,5.47-4.73Z"/>
  <path class="cls-2" d="m456.21,341.79c-3.5,7.22-6.31,14.77-12.22,20.68-6.09,6.08-12.88,10.78-21.14,13.26-1.15.34-2.23.66-2.73,1.87-3.12-1.09-6.07-2.67-10.27-3.08,4.55-2.4,8.65-3.68,12.84-4.74,1.7-.24,3.58-.07,4.47-2.06,0,0-.11.07-.11.07,1.7-.03,3.26-.32,4.08-2.08,0,0-.09.06-.09.06,1.49-.01,2.75-.35,3.06-2.09,0,0-.1.09-.1.09,3.74-1.64,6.67-4.07,8.05-8.06,0,0-.05.06-.05.06,3.69-1.1,4.22-4.76,5.96-7.42,2.6-3.97,2.55-9.14,5.75-12.86,1.32,1.91,2.39,3.92,2.51,6.3Z"/>
  <path class="cls-2" d="m452.3,156.28c-3.82,16.87-14,28.06-30.25,33.83-1.82.65-4,.67-5,2.79-1.54-.6-3.06-1.25-4.62-1.79-1.56-.55-3.15-.99-5.23-1.64,6.15-2.53,11.98-4.94,17.82-7.34.44.83.8.7,1.1-.1,0,0-.07.05-.07.05.92.07,1.7-.12,2.07-1.08,0,0-.12.08-.12.08,1.83-.39,3.67-.78,4.06-3.07,0,0-.06.06-.06.06,3.17-.87,5.2-2.87,6.04-6.06,0,0-.06.06-.06.06,5.83-3.6,7.65-9.78,10-15.6.71-1.74.44-4.01,2.78-4.79,1.84,1.09,1.12,3.03,1.54,4.6Z"/>
</svg>