<?xml version="1.0" encoding="UTF-8"?>
<svg id="Layer_1" data-name="Layer 1" xmlns="http://www.w3.org/2000/svg" viewBox="0 0 1422.77 1507.01">
  <defs>
    <style>
      .cls-1 {
        fill: #fafafa;
      }

      .cls-2 {
        fill: #5b6774;
      }

      .cls-3 {
        fill: #a087f0;
      }
    </style>
  </defs>
  <path class="cls-2" d="m297.07,705.58c-1.18-8.48-.72-16.96.01-25.43.71-.5.68-1.02.01-1.54,1.03-12.37,4.25-24.24,8.85-35.69,9.96-24.84,25.52-45.65,46.41-62.34,18.04-14.42,38.39-23.83,61.43-27.15,3.69-.53,7.14-2.34,11.06-2.01,2.04.17,2.53-1.88,3.29-3.3,14.46-27.05,36.39-46.29,63.49-59.83,11.77-5.88,24.45-9.42,37.43-11.7.75.82,1.3.37,1.83-.28,12.66-2.28,25.39-2.23,38.14-1.08,1,1.37,2.45.72,3.73.83,7.19.64,14.1,2.69,21.15,4.05,2.94.57,5.6-.39,8.11-2.3,14.8-11.27,31.48-18.41,49.67-22.08,17.95-3.62,35.58-2.06,53.29,2.39,14.86,3.73,26.87,12.13,38.51,21.23,2.52,1.97,5.47,4.72,6.19,8.53.71,2.39,2.38,4.23,3.97,5.99,2.31,2.56,4.42,2.32,5.59-1.23.55-.75,1.1-1.5,1.65-2.24.99-.13,1.48-.71,1.46-1.71,2.55-2.74,5.09-5.47,7.64-8.21.92-.07,1.46-.56,1.58-1.48,15.84-13.9,33.96-22.77,54.82-26.66,13.88-2.58,27.72-4.41,41.79-3.65,20.5,1.11,40.18,5.91,59.2,13.7,19.09,7.82,36.07,18.92,50.82,33.16,6.79,6.55,13.6,13.4,17.61,22.32.87,1.95,2.66,2.65,4.91,2.72,4.66.13,9.26-1.3,13.8-1.04,7.97.46,15.91,1.63,23.79,3.24,18.22,3.74,33.53,13.07,48.07,24.05,1.04,2.1,2.39,3.84,4.87,4.3,2.78,2.82,5.57,5.63,8.35,8.44.24,2,1.59,3.06,3.27,3.83,6.9,7.61,12.46,16.33,16.74,25.43,6.25,13.28,12.22,26.92,13.58,41.89.21,2.35.96,4.11,3.11,5.2,20.8,10.53,35.15,27.37,45.7,47.62,6.5,12.46,10.19,25.96,12.21,39.89,2.84,19.59,1.53,38.99-3.26,58.09-.94,3.73.81,5.71,2.28,7.98,10.08,15.62,15.16,33.08,18.88,51.01,2.69,12.97,3.93,26.13,3.27,39.35-1.15,23.12-5.34,45.63-15.92,66.47-11.68,23.01-27.9,41.72-51.77,52.9-3.14,1.47-5.12,3.23-5.67,7.53-3.1,24.7-13.32,46.5-28.48,66.1-.7.91-2.17,1.04-2.32,2.43-.91.16-1.75.4-1.55,1.63-2.84,2.77-5.68,5.54-8.51,8.3-1-.06-1.6.38-1.75,1.39-19.55,16.52-42.21,26.32-67.18,31.18-21.04,4.09-42.23,3.66-63.45,2.1-4.2-.31-8.34-1.25-12.85-1.95,1.6,13.81,5.85,26.63,11.26,38.97,6.26,14.29,11.98,28.8,18.21,43.1,2.92,6.71,5.16,13.31,5.27,20.81.17,12.35-10.44,24.32-22.93,24.64-19.13.49-38.29.38-57.43.03-9.81-.18-17.06-5.53-22.29-13.69.08-1.07-.43-1.6-1.49-1.61-.14-.49-.28-.97-.42-1.45-.17-2.38-1.22-4.34-2.94-5.97-7.88-15.57-15.74-31.15-22.88-47.08-1.96-5.14-3.4-10.56-7.66-14.49-1.46-3.46-2.68-7.05-4.44-10.36-3.55-6.7-7.06-13.41-9.81-20.47-1.8-4.63-4.64-7.42-9.45-9.54-17.96-7.93-34.31-18.45-48.92-31.77-14.27-13.01-27.15-27.27-34.19-45.23-3.63-9.26-11.47-7.27-17.17-10.73-1.07-.65-2.68-.4-3.76-1.04-5.8-3.42-10.98-1.33-16.19,1.45-24.59,13.14-50.89,17.61-78.48,15.15-18.3-1.63-35.66-6.79-51.37-16.25-24.34-14.65-42.59-34.61-52.75-61.74-4.72-12.62-6.8-25.36-6.46-38.61.1-4.06-1.23-5.03-5.07-5.02-23.31.07-46.61-.03-69.92-.2-6.65-.05-13.3-.48-19.95-.74-.5-.79-1.02-.76-1.54-.02-11.54-.07-22.72-2.59-33.83-5.31-22.57-5.53-42.41-16.55-60.62-30.73-.57-2.5-2.13-3.99-4.61-4.54-1.04-.94-2.08-1.87-3.12-2.8-1.6-2.8-3.47-5.33-6.71-6.43-.13-.13-.25-.26-.37-.39.12-2-.69-3.22-2.81-3.36-13.15-15.68-22.89-33.26-28.71-52.88-5.24-17.66-5.87-35.94-4-53.98,1.82-17.59,6.94-34.59,17.32-49.44,2.03-2.91,1.07-6.09,1.39-9.16.68-.51.72-1.02,0-1.53Zm695.45-3.47c-.12.13-.24.25-.37.37-1.01.07-1.55.62-1.63,1.62-8.46,8.46-16.91,16.92-25.37,25.38-1.5.21-2.36,1.08-2.59,2.57-.83.79-1.66,1.58-2.48,2.36-.34.22-.88.37-.97.67-.21.65.15,1.12.88,1.18l4.48,4.45c.07.96.58,1.48,1.53,1.56,2.15,2.14,4.3,4.28,6.45,6.43.04.97.55,1.49,1.51,1.6l8.48,8.4c.83,2.21,2.4,3.69,4.57,4.58.48.45.96.89,1.45,1.34.59,1.89,1.82,3.07,3.79,3.42,7.55,5.19,15.5,7.6,24.88,5.48,10.57-2.39,18.57-8.89,26.5-15.4,20.75-17.04,44.18-24.39,70.89-20.92.31.6.69,1.1,1.47,1,17.99,1.48,33.14,9.76,47.5,20.29,1.43-2.88,1.94-5.53,1.95-8.33.03-7.12-.05-14.17-1-21.31-1.27-9.57-3.41-18.84-7.25-27.57-7.65-17.38-19.38-31.2-36.69-39.88-10.37-5.2-16.51-13-17.52-25.37-.64-7.86-2.5-15.91-5.59-23.48-3.69-9.04-8.34-17.52-14.17-25.28-7.47-9.94-16.22-18.55-26.87-25.3-8.02-5.08-16.79-8.08-25.69-10.67-9.65-2.8-19.84-3.18-29.6-1.39-11.08,2.04-21.11,7.15-29.49,15.03-11.23,10.56-18.83,22.99-20.17,38.7-.71.45-.91.96-.2,1.58-.36,3.48-.72,6.95-1.08,10.43-1.45,2.04-.56,4.3-.62,6.48-1.39,7.31-4.9,11.46-13.23,11.69-6.59.18-14.19-3.82-14.67-10.43-.98-13.52-.57-26.9,3.77-40.06,6.68-20.26,19.21-35.74,36.34-48.09,5.97-4.31,6.45-2.47,2.26-9.79,0-1.02-.36-1.68-1.52-1.58-3.67-5.23-8.51-9.34-13.11-13.68-.13-1.05-.69-1.58-1.79-1.44-11.31-8.55-23.06-16.39-36.6-20.97-12.25-4.15-24.57-8.21-37.72-8.37-3.19-3.4-7.12-1.27-10.74-1.42-2.41.08-4.82.16-7.24.24-3.26-.39-6.64-1.8-9.48,1.19-6.19-.22-12,1.62-17.98,2.84-18.09,3.69-32.5,13.04-44.17,26.87-7.43,8.8-12.16,18.9-13.28,30.64-1.12,11.81-.61,23.62-.92,35.43-.19,7.2-.1,7.2,6.97,7.26,7.35.05,12.04,3.11,14.15,9.41,3.66,10.91-2.92,21.75-15.76,22.35-5.16.24-6.2,1.61-6.16,6.47.21,25.47.02,50.94,0,76.42,0,10.06.03,10.06,10.29,10.28.5.01,1-.02,1.5.02,8.67.78,13.78,8.56,12.48,16.94-1.53,9.84-10.44,14.23-18.63,13.83-4.49-.22-5.81,1.02-5.82,5.68-.12,57.1-.23,114.21-.99,171.3-.13,9.92,2.2,17.49,10.06,23.33.4.3.85.55,1.18.91,4.93,5.39,8.03,11.53,7.81,19.05-.25,8.46-4.41,15.25-9.28,21.73-1.43.36-2.33,1.18-2.42,2.73-8.03,8.84-16.49,17.23-25.78,24.43.46,1.38,1.41,1.51,2.41,1.76,8,1.99,16.11,2.88,24.37,3.12,18.87.56,37.6-.09,56.12-4.13,8.47-1.85,9.45-2.92,9.49-11.41.08-16.47.18-32.95.27-49.42,8.63,1.21,17.31.67,25.97.82.06,12.31.16,24.61.18,36.92.02,11.54.14,11.87,10.59,6.62,13.6-6.83,25.89-15.48,35.76-27.36,4.99-6.01,7.56-13.48,12.68-19.35,3.76-4.31,12.03-6.45,17.66-4.3,5.06,1.93,7.47,6.66,8.12,13.04.73,7.13-4.31,11.83-6.27,17.78-.88,2.66-5.37,4.05-3.25,7.51,1.52,2.47,4.07,4.33,6.23,6.38.7.67,1.66,1.06,2.46,1.64,12.89,9.53,26.45,17.98,41.87,22.67,8.4,2.55,16.84,5.54,25.85,5.42.76.91,1.61,1.05,2.55.28,9.14,1.05,18.27,1.09,27.41,0,.6.63,1.11.5,1.58-.16,1.66-.06,3.38.16,4.96-.21,21.03-4.83,39.91-13.61,54.65-29.94,1.36-.35,2.22-1.17,2.43-2.6,2.82-3,6.33-4.57,10.34-5.38,10.1-2.04,18.66-7.27,26.16-14.01,13.85-12.45,23.35-28.09,28.6-45.68,5.51-18.48,8.53-37.51,6.07-57.11-2.12-16.85-5.33-33.12-13.63-48.28-12.63-23.05-30.66-38.87-56.74-44.28-13.35-2.77-26.43-1.91-38.94,4.63-10.58,5.53-19.41,13.45-29.21,20.04-19.91,13.39-50.22,14.23-68.67-.23-.57-2.51-2.16-3.96-4.64-4.5-5.68-5.6-11.36-11.19-17.04-16.79-.32-1.41-1.17-2.3-2.61-2.57-3.64-3.65-7.38-7.22-10.89-11-1.76-1.9-3.34-2.51-5.56-.93-6.96,4.96-14.97,5.7-23.17,5.69-16.32-.02-32.63.02-48.95.03-1.95-.71-2.95.31-3.6,1.98-.14.12-.29.24-.44.35-.96.1-1.49.66-1.65,1.59-.11.13-.23.26-.37.37-1.78.64-3.06,1.76-3.56,3.65-2.81,2.79-5.62,5.59-8.43,8.38-.97.07-1.5.59-1.62,1.54-7.01,6.24-12.89,13.69-20.42,19.39-1.02.53-2.08,1.31-2.07,2.41.01.76,1.23.67,2.01.59,3.32.04,6.63.12,9.95.12,20.41.01,40.82-.06,61.22.04,8.41.04,16.22,2.37,23.16,7.27.49,1.29,1.32,2.19,2.75,2.39,2.08.86,3.41,2.63,4.93,4.14,10.76,10.64,21.53,21.27,32.18,32.02,2.64,2.66,5.45,3.82,9.26,3.81,30.45-.12,60.91-.06,91.36-.02,2.14,0,4.33-.39,6.42.47-1.54,8.79-.98,17.59-.14,26.39-12.97.06-25.94.15-38.91.19-11.47.03-22.95,0-34.42.04-2.21,0-5.03-.21-2.43,3.37.42,1.47,1.26,2.39,2.92,2.2,2.68,2.61,5.35,5.22,8.03,7.84,1,2.04,1.95,4.15,4.58,4.55.62.67,1.24,1.34,1.86,2.02.07,2.33,1.37,3.41,3.6,3.55.11.14.24.27.39.38-.16,1.24.38,1.77,1.61,1.61.11.15.24.28.38.4,1.47,4.61,5.91,6.22,9.14,9.05,2.81,3.09,5.63,6.18,8.44,9.27-.38,1.49.13,2.4,1.54,3.15,1.42.76,1.82,2.21.17,3.05-5.93,3.01-9.91,7.99-13.8,13.11-1.54,2.03-2.83,1.31-4.47-.08-2.45-2.08-3.85-5.44-7.41-6.17-1.79-1.81-3.59-3.61-5.38-5.42-.1-.48-.03-1.12-.31-1.42-8.72-9.06-17.3-18.26-26.74-26.61-.18-.13-.34-.29-.47-.47-13.5-16.07-29.15-30.04-43.82-44.97-.2-.21-.61-.22-.92-.32-1.13-1.15-2.27-2.29-3.4-3.44-2.14-3.57-5.06-6.36-8.54-8.6-3.14-3.11-5.87-6.66-9.65-9.09-.07-1.74-1.09-2.44-2.72-2.47-4.62-2.45-9.49-3.42-14.77-3.39-24.31.13-48.62.06-72.92-.01-4.28-.01-8.48-.33-12.35-2.77-15-9.46-16.03-29.85-4.02-41.76,12.28-12.17,24.42-24.5,36.92-36.44,3.88-3.71,5.46-7.59,5.46-13.02-.01-44.61.28-89.23.49-133.84,8.67.76,17.35,1.94,26.03.11.08,2.82.24,5.65.24,8.47-.01,39.4.07,78.8-.22,118.19-.04,5.23,1.45,6.35,6.37,6.18,11.12-.39,22.29-.54,33.4-.01,9.39.44,16.38-2.97,22.82-9.63,17.23-17.79,34.9-35.15,52.39-52.68.73.34,1.83.49,2.12,1.06,3.35,6.37,7.82,11.67,13.89,15.62,1.74,1.13.96,2.41-.12,3.71-1.86,2.25-4.69,3.69-5.67,6.69-.13.12-.27.24-.4.36-1.02.05-1.55.59-1.64,1.6Zm-239.06,259.25c.11-.14.22-.29.32-.44.99-.04,1.57-.55,1.46-1.55-.08-.79-.73-1.02-1.45-1.03-3.19-4.53-7.61-8.07-10.31-13.01-2.33-4.28-5.37-8.32-5.59-13.38-.28-6.48-.22-12.97-.23-19.45-.01-11.82.05-23.63.01-35.45,0-1.21.74-2.97-.82-3.55-1.45-.54-2.23,1.08-3.15,1.97-3.47,3.34-6.92,6.7-10.37,10.06-14.89,14.56-29.79,29.12-44.68,43.68-5.91-5.89-10.39-13.07-16.69-18.62-.18-.16-.07-.64-.1-.97,25.15-25.09,50.29-50.18,75.44-75.27.76-.48,1.23-1.03.45-1.88.14-33.62.3-67.24.41-100.86.03-8.83-.04-8.83-8.73-9.2-9.53-.42-18.28-12.05-16.06-21.36,2.75-11.51,8.28-16.11,20.33-16.59,3.21-.13,4.8-1.02,4.8-4.62-.01-46.27.16-92.54.1-138.81-.01-10.25-3.51-19.89-8.6-28.47-10.36-17.47-26.84-26.34-46.54-28.47-25.07-2.7-47.55,4.42-67.19,20.39-3.8,3.08-7.96,5.51-12.76,7.17-7.23,2.5-13.32-1.46-19.65-2.87-19.45-4.31-38.65-6.14-58.33-1.31-12.64,3.11-24.41,8.02-35.15,15.04-17.98,11.76-31.09,27.88-39.63,47.6-3.81,8.8-10.1,12.6-19.82,12.36-14.98-.36-29.37,2.63-42.78,9.76-21.46,11.4-37.34,28.3-48.7,49.51-4.26,7.95-7.59,16.36-9.75,25.27-1.75,7.2-3.31,14.34-3.83,21.74-.28,3.99.78,5.72,5.16,5.37,4.79-.38,9.65-.11,14.47.05,7.66.27,13.3,4.58,14.28,10.79,1.04,6.58-1.8,14.54-9.29,17.69-4.3,1.81-8.48,1.7-12.66,1.47-7.14-.39-11.91,2.76-15.97,8.22-6,8.06-9.53,17.01-11.66,26.8-3.48,15.96-3.35,31.87-.02,47.72,2.98,14.18,10.16,26.59,17.9,38.65.19.22.37.44.56.66,1.53,1.73,3.05,3.46,4.58,5.19.1,1.56.99,2.41,2.45,2.76,2.46,2.47,4.91,4.95,7.37,7.42.16,2.35,1.89,2.98,3.76,3.46,12.56,12.53,28.4,19.42,44.71,25.11,14.79,5.16,30.23,7.2,45.98,7.17,27.43-.04,54.86.29,82.3.53,2.97.03,4.43-.45,5.38-4.01,2.9-10.82,7.81-20.77,14.33-30.04,6.79-9.66,14.19-18.66,23.23-26.25,2.88-2.41,1.54-3.39-1.07-4.1-3.4-.92-6.88-1.01-10.39-1.01-33.09-.02-66.18-.07-99.27-.12.77-5.06,1.22-10.14.97-15.28-.18-3.78-1.83-7.43-.91-11.29,33.28-.05,66.56-.39,99.83.06,8.86.12,17.4,3.54,25.59,7.31,4.77,2.19,9.21,6.51,15.26,3.67,17.18-8.06,35.46-11.7,54.19-13.51.88.88,1.72.85,2.52-.11,9.45-.82,18.92-.7,28.39-.83,1.49-.02,3.71,1.04,4.39-.94.59-1.7-1.27-2.77-2.44-3.96-10.12-10.23-20.44-20.3-30.1-30.96-2.82-3.12-5.43-4.22-9.23-4.21-32.9.04-65.8,0-98.7.04-7.83.01-15.53-.34-22.28-5.02-.11-.95-.31-1.81-1.6-1.53-.38-.27-.76-.55-1.14-.82-4.15-5.56-8.89-10.51-14.78-14.26-.47-.49-.94-.97-1.42-1.46-1-2.77-2.65-4.84-5.72-5.42-.11-.16-.24-.3-.4-.42.05-.95-.05-1.8-1.26-1.92-1.17-1.1-2.35-2.21-3.52-3.31-1.7-3.35-4.27-5.84-7.56-7.61-1.13-1.13-2.26-2.27-3.39-3.4-3.62-5.87-9.24-9.88-13.91-14.76-2.33-2.44-4.21-5.59-7.81-6.59-1.94-1.91-3.89-3.82-5.83-5.72,2.59-5.82,8.54-8.84,11.76-14.23,1.21-2.03,1.59-5.28,4.96-5.56,12.53,10.25,23.31,22.34,35.05,33.42,7.15,9.27,16.34,16.56,24.31,25.03.67.71,1.38,1.45,2.52,1.25,2.99,3.35,6.34,5.35,11.21,5.33,32.44-.16,64.87-.12,97.31,0,3.52.01,4.56-1.1,4.49-4.56-.19-10.48-.21-20.96.03-31.44.08-3.68-.91-4.89-4.71-4.85-13.3.15-26.61-.19-39.91-.08-9.57.08-17.89-3.6-25.92-8.08-9.22-5.15-16.04-13.05-22.15-21.41-4.87-6.67-7.83-14.24-8.46-22.74-1.09-14.64-.57-29.25-.21-43.88,9.08,2.2,18.04,1.46,26.93-1.11.11,13.3.31,26.6.29,39.9-.03,14.85,15.25,27.4,27.54,29.38,13.69,2.2,27.56.34,41.32,1.08,4.54.24,5.44-1.4,5.46-5.66.11-18.45-.46-36.91.64-55.35,2.37.54,4.71,1.08,7.21,1.04,6.51-.12,13.03.25,19.49-.88.06,1.83.19,3.65.17,5.48-.27,43.57-.51,87.15-.89,130.72-.03,3.95,1.04,6.81,3.93,9.63,10.23,9.99,20.3,20.14,30.13,30.52,3.31,3.49,7.02,7.1,7.08,12.58.08,1.09.26,2.13,1.36,2.7.12.75.25,1.51.37,2.26-.86,2.16-.9,4.32.04,6.48-.12.76-.24,1.52-.36,2.29-1.17.55-1.3,1.62-1.38,2.72-2.96,11.51-11.16,18.3-23.47,19.05-5.47.33-11,.52-16.46.14-12.16-.85-24.38.51-36.06,2.57-25.21,4.45-46.73,16.72-63.04,37.02-10.81,13.46-18.41,28.54-20.96,45.71-4.64,31.22,3.83,57.88,28.41,78.67,17.01,14.38,36.11,22.96,58.76,24.2,23.82,1.3,45.36-5.14,65.91-16.23,15.09-8.14,27.9-19.29,40.23-31.03,1.34-.39,2.2-1.23,2.47-2.63,1.17-2.39,3.44-3.8,5.11-5.74,1.51-.08,2.05-.91,1.79-2.35Zm141.06,93.02c.52,1.86,1.82,2.94,3.55,3.6,12.02,10.26,25.74,17.55,40.23,23.66,12.56,5.29,25.7,8.41,39.13,9.19,19.11,1.12,38.36,1.42,57.05-3.89,9.16-2.6,18.57-4.84,27.29-10.73-3.82,0-6.81,0-9.8,0-11.74,0-23.47.17-35.09-2.14-9.69-1.93-19.03-5.01-28.51-7.68-14.3-4.02-27.36-10.81-39.9-18.26-14.14-8.41-26.78-19.04-38.06-31.2-5.35-5.77-5.68-5.51-12.48-1.48-7.11,4.22-14.84,7.06-22.47,10.12-3.09,1.24-3.19,2.51-1.21,4.96,3.32,4.09,6.36,8.39,9.52,12.61-.03,1.58.95,2.37,2.25,2.93l8.49,8.32Zm-87.75-13.29c-7.97.56-15.95.9-23.94.62-1.07-.04-2.46-.5-3.04.95-.4.99.11,1.77.76,2.65,8.96,12.14,19.43,22.75,31.48,31.86,11.57,8.75,24.55,14.79,37.75,20.5,3.34,1.45,6.96,2.88,8.63,6.27,6.52,13.21,13.06,26.43,19.08,39.87,6.78,15.13,14.67,29.72,21.31,44.92,3.11,7.12,6.93,13.98,10.33,21.01,1.36,2.8,2.04,6.53,6.94,6.41,13.31-.33,26.63-.31,39.93-.1,4.78.08,4.18-1.99,2.86-4.98-6.41-14.52-12.9-29-19.17-43.58-7.76-18.01-13.88-36.51-15.27-56.26-.15-2.16-1.12-3.23-2.97-4.04-13.64-6.01-26.61-13-38.23-22.61-15.53-12.84-29.07-27.14-37.6-45.61-1.33-2.89-2.77-3.27-5.7-2.62-10.4,2.31-20.83,4.64-31.58,4.68-.55-.75-1.07-.74-1.56.07Zm241.41,15c12.44,1.14,25.05-1.23,37.22-5.5,4.74-1.66,10.35-2.57,13.12-8.05,2.83-5.58,5.69-11.14,7.73-17.05.87-2.53,3.09-6.19,1.31-7.63-1.58-1.28-4.64,1.91-6.87,3.34-15.92,10.2-33.43,15.65-52.15,16.78-21.59,1.3-42.7-1.16-63.19-8.81-12.89-4.81-24.91-10.95-36.09-18.9-6.57-4.67-12.64-9.96-18.84-15.09-3.92-3.25-4.76,1.93-7,3.04-2.24,1.11.17,2.34,1.05,3.24,3.95,4.02,7.66,8.36,12.02,11.91,18.44,15.01,39.16,26.27,61.38,34.38,15.91,5.81,32.55,9.18,50.31,8.33Z"/>
  <path class="cls-3" d="m852.62,1161.23c4.26,3.93,5.69,9.36,7.66,14.49-4.14-4-5.12-9.66-7.66-14.49Z"/>
  <path class="cls-3" d="m759.23,492.65c-1.17,3.55-3.28,3.79-5.59,1.23-1.59-1.76-3.26-3.6-3.97-5.99,2.23.07,2.95,1.84,3.87,3.4,1.42,2.42,3.28,3.04,5.69,1.36Z"/>
  <path class="cls-3" d="m314.26,876.31c3.24,1.1,5.11,3.63,6.71,6.43-3.53-.8-5.43-3.29-6.71-6.43Z"/>
  <path class="cls-3" d="m1091.24,551.15c-2.48-.46-3.83-2.2-4.87-4.3,2.54.4,3.87,2.16,4.87,4.3Z"/>
  <path class="cls-3" d="m324.09,885.54c2.48.55,4.05,2.04,4.61,4.54-2.1-.95-3.75-2.34-4.61-4.54Z"/>
  <path class="cls-3" d="m883.16,1222.81c1.73,1.62,2.77,3.58,2.94,5.97-1.98-1.5-2.98-3.48-2.94-5.97Z"/>
  <path class="cls-3" d="m1102.86,563.42c-1.68-.77-3.03-1.83-3.27-3.83,1.95.54,3.08,1.78,3.27,3.83Z"/>
  <path class="cls-3" d="m572.75,476.06c-1.28-.1-2.73.54-3.73-.83,1.45-.64,2.82-.95,3.73.83Z"/>
  <path class="cls-3" d="m311.08,872.57c2.12.13,2.93,1.36,2.81,3.36-1.5-.65-2.66-1.59-2.81-3.36Z"/>
  <path class="cls-3" d="m886.52,1230.23c1.06.01,1.57.54,1.49,1.61-.92-.15-1.43-.68-1.49-1.61Z"/>
  <path class="cls-3" d="m297.1,678.61c.67.52.7,1.03-.01,1.54-.7-.52-.61-1.03.01-1.54Z"/>
  <path class="cls-3" d="m423.15,926.13c.53-.74,1.04-.77,1.54.02-.53.75-1.04.58-1.54-.02Z"/>
  <path class="cls-3" d="m762.34,488.7c.01,1-.47,1.57-1.46,1.71-.07-1.05.44-1.6,1.46-1.71Z"/>
  <path class="cls-3" d="m771.56,479c-.12.93-.67,1.41-1.58,1.48-.16-1.23.7-1.38,1.58-1.48Z"/>
  <path class="cls-3" d="m530.88,476.31c-.53.65-1.08,1.1-1.83.28.52-.7,1.13-.78,1.83-.28Z"/>
  <path class="cls-3" d="m297.07,705.58c.72.51.68,1.02,0,1.53-.64-.51-.7-1.02,0-1.53Z"/>
  <path class="cls-3" d="m1109.65,1076.95c-.2-1.23.64-1.46,1.55-1.63-.06.98-.61,1.49-1.55,1.63Z"/>
  <path class="cls-3" d="m1099.39,1086.65c.14-1.02.75-1.45,1.75-1.39-.13,1.03-.71,1.5-1.75,1.39Z"/>
  <path class="cls-3" d="m643.62,606.47c-3.39-1.72-6.88-3.27-10.16-5.17-18.36-10.69-28.95-33.98-18.98-55.1,8.9-18.85,28.04-30.29,48.67-27.24,26.16,3.87,42.52,27.28,38.27,51.48-2.88,16.41-12.63,27.94-28.17,34.37-1.05.43-1.96,1.2-2.93,1.81-6.46,1.13-12.98.76-19.49.88-2.5.05-4.84-.5-7.21-1.04Zm34.95-43.36c.05-13.06-8.07-21.46-20.81-21.53-13.42-.07-22.36,8.81-23.11,21.41-.72,11.98,11.55,22.21,21.69,22.16,12.39-.07,22.17-9.82,22.22-22.04Z"/>
  <path class="cls-3" d="m1065.35,852.55c1.06-1.65,2.35-3.2,3.15-4.98,5.82-12.95,15.78-21.4,29.24-24.96,23.95-6.32,49.02,5.92,56.03,31.16,6.06,21.83-5.97,43.5-22.33,51.3-21.02,10.03-44.33,5.09-57.77-12.6-2.55-3.36-4.37-7.32-6.25-11.14-.56-1.13-1-2.01-2.2-2.4-.84-8.8-1.4-17.6.14-26.39Zm23.07,12.99c.03,12.44,8.91,21.41,21.23,21.44,13.51.03,23.04-9.64,23.35-23.17.22-9.81-12.13-21.27-22.59-21.27-11.97,0-22.01,10.42-21.99,22.99Z"/>
  <path class="cls-3" d="m452,832.29c-3.75,12.6-12.14,21.8-23.23,27.83-15.35,8.34-30.93,7.56-45.81-2.27-8.29-5.48-15.09-12.23-18.32-21.72-8.61-25.35,5.29-50.52,30.33-57.8,22.01-6.4,43.73,1.81,54.39,24.07.65,1.36,1.08,2.81,2.71,3.34-.92,3.86.73,7.51.91,11.29.25,5.14-.21,10.21-.97,15.28Zm-44.28,9.83c14.24.54,22.2-10.06,22.77-20.72.67-12.39-9.65-22.93-21.74-22.99-13.03-.06-22.28,9.52-22.69,22.57-.35,11.06,10.79,22.5,21.66,21.14Z"/>
  <path class="cls-3" d="m984.34,673.07c-.63-6.23-2.74-12.13-3.04-18.53-1.03-21.74,17.94-39.34,34.02-43.61,24.26-6.45,51.13,10.75,55.49,33.97,3.8,20.25-7.55,41.63-27.36,49.37-11.42,4.47-22.82,4.47-33.91-.24-4.75-2.02-7.56-1.4-10.45,2.48-1.12,1.5-2.33,3.31-4.53,3.65.98-3,3.8-4.44,5.67-6.69,1.08-1.3,1.86-2.58.12-3.71-6.07-3.95-10.54-9.26-13.89-15.62-.3-.57-1.4-.72-2.12-1.06Zm42.66-41.47c-11.97,0-22.27,10.29-22.28,22.27-.01,11.52,9.97,21.22,21.98,21.27,13.74.07,21.55-10.42,22.18-22.21.6-11.31-10.13-21.32-21.87-21.32Z"/>
  <path class="cls-3" d="m841.71,947.26c-6.82-3.3-13.95-5.76-19.42-11.67-10.41-11.25-14.87-24.11-12-39.14,3.67-19.24,16.33-30.78,34.5-35.08,18.45-4.36,35.38,1.13,46.23,16.98,8.05,11.76,11.65,25.43,5.67,40.29-5.29,13.13-13.5,22.6-26.82,27.54-.85.31-1.46,1.25-2.19,1.89-8.66-.14-17.35.4-25.97-.82Zm34.63-42.39c.18-12.85-8.85-22.27-21.49-22.41-11.66-.13-21.87,9.92-22.11,21.77-.25,12.2,9.06,21.48,21.74,21.69,12.09.2,21.7-9.05,21.86-21.04Z"/>
  <path class="cls-3" d="m678.68,929.2c-.01,6.14,2.06,11.97,2.17,18.17.35,18.61-8.13,31.83-24.02,40.4-9.81,5.29-20.66,6.03-31.37,3.2-29.5-7.79-41.7-38.18-29.18-63.3,8.91-17.87,29.34-26.71,49.02-22.99,5.81,1.1,10.7,4.54,16.57,4.93.03.33-.08.82.1.97,6.3,5.54,10.78,12.72,16.69,18.62Zm-20.18,19.12c.16-10.69-7.11-22.61-22.22-22.52-10.93.06-21.17,8.14-21.37,22.96-.16,11.59,9.29,20.85,21.41,21.08,12.05.23,22.09-9.51,22.18-21.52Z"/>
  <path class="cls-3" d="m843.3,602.43c-3.44-2.64-7.81-3.22-11.5-5.6-18.68-12.06-24.59-31.81-18.76-50.74,4.7-15.26,15.8-26.01,32.58-29.6,15.22-3.26,28.64.32,40.62,9.61,3.29,2.55,5.89,6.34,8,10.02,8.86,15.49,10.05,31.05-.14,46.65-4.95,7.58-11.26,13.32-19.59,16.87-1.81.77-3.45,1.93-5.17,2.91-8.69,1.83-17.36.65-26.03-.11Zm-8.66-42.45c-.97,12.21,9.58,21.74,21.5,21.36,12.7-.41,21.74-9.41,22.26-22.02.5-12.02-11.39-21.92-21.71-22.03-12.17-.13-23.3,11.66-22.05,22.68Z"/>
  <path class="cls-3" d="m451.15,690.02c-5.55.09-9.65,4.02-14.74,5.52-13.51,3.97-26.02,1.95-37.35-5.86-17.44-12.02-22.69-27.08-17.84-47.73,4.38-18.64,22.04-31.99,40.69-32.63,16.45-.56,30.22,4.84,39.65,18.47,7.21,10.43,9.26,22.4,6.72,35.02-.48,2.4-.29,4.95-.4,7.42-3.36.29-3.74,3.54-4.96,5.56-3.22,5.38-9.17,8.41-11.76,14.23Zm-26.88-15.74c12.39,1.67,22.8-10,22.45-21.73-.41-13.81-9.2-21.39-21.77-21.54-14.55-.17-22.45,12.93-22.02,22.8.53,12.29,8.56,20.44,21.35,20.47Z"/>
  <path class="cls-3" d="m1030.41,923.41c5.69,6.3,13.15,3.92,19.91,3.59,16.2-.79,28.29,12.75,30.86,24.49,3.28,14.99-3.58,30.29-17.36,37.3-19.63,9.99-40.66,1.45-48.56-19.16-2.49-6.51-2.23-12.72-.44-18.87,1.01-3.46,0-5.2-2.12-7.35-2.19-2.22-4.93-3.96-6.26-6.95,3.56.74,4.96,4.1,7.41,6.18,1.64,1.39,2.93,2.12,4.47.08,3.89-5.12,7.87-10.1,13.8-13.11,1.65-.84,1.25-2.29-.17-3.05-1.41-.75-1.91-1.67-1.54-3.15Zm6.07,36.2c.04,6.42,4.92,11.2,11.41,11.19,6.77-.02,12.24-5.37,12.12-11.86-.11-6.32-5.46-11.46-11.97-11.53-6.79-.07-11.61,5.02-11.56,12.2Z"/>
  <path class="cls-3" d="m541.44,598.23c-11.11-4.25-17.79-12.65-20.97-23.7-2.65-9.22.38-17.79,5.58-25.35,9.78-14.21,26.67-17.4,41.62-11.1,14.99,6.31,22.29,22.51,18.09,38.3-2.55,9.56-8.92,16.08-17.39,20.74-8.88,2.56-17.84,3.31-26.93,1.11Zm23.24-31.3c.03-6.33-4.29-11.1-10.16-11.23-7.18-.15-12.5,4.65-12.49,11.27,0,6.39,5,11.32,11.42,11.26,6.66-.07,11.2-4.64,11.23-11.3Z"/>
  <path class="cls-3" d="m502.92,703.65c2.58.32,3.76,2.55,5.27,4.15,7.09,7.48,15.27,13.9,21.57,22.14-1.15.19-1.86-.55-2.53-1.25-7.97-8.47-17.16-15.76-24.31-25.03Z"/>
  <path class="cls-3" d="m478.7,717.1c-8.18-6.16-15.09-13.62-21.72-21.35,3.61,1,5.48,4.16,7.81,6.59,4.67,4.88,10.29,8.89,13.91,14.76Z"/>
  <path class="cls-3" d="m516.75,754.89c-6.05-3.6-10.55-8.8-14.79-14.26,5.89,3.76,10.63,8.71,14.79,14.26Z"/>
  <path class="cls-3" d="m489.65,728.1c-3.36-1.71-5.95-4.17-7.56-7.61,3.29,1.77,5.86,4.26,7.56,7.61Z"/>
  <path class="cls-3" d="m873.25,479.42c-3.59-.44-7.51,1.66-10.74-1.42,3.63.15,7.55-1.97,10.74,1.42Z"/>
  <path class="cls-3" d="m855.28,478.24c-2.88,2.68-6.32.84-9.48,1.19,2.84-2.99,6.22-1.58,9.48-1.19Z"/>
  <path class="cls-3" d="m500.55,739.18c-2.66-1.01-4.2-3.21-5.72-5.43,3.07.59,4.72,2.66,5.72,5.43Z"/>
  <path class="cls-3" d="m950.13,615.66c1.53,2.33,2.09,4.56-.62,6.48.05-2.18-.83-4.44.62-6.48Z"/>
  <path class="cls-3" d="m712.47,800.51c1.28,2.15,1.29,4.32.04,6.48-.94-2.16-.9-4.32-.04-6.48Z"/>
  <path class="cls-3" d="m343.05,861.54c2.11.22,3.23,1.53,3.76,3.46-1.88-.48-3.61-1.12-3.76-3.46Z"/>
  <path class="cls-3" d="m894.53,1054.38c2.22.18,3.33,1.46,3.56,3.6-1.73-.66-3.04-1.74-3.56-3.6Z"/>
  <path class="cls-3" d="m965.15,729.48c-.16,1.57-1.02,2.44-2.59,2.58.24-1.49,1.09-2.36,2.59-2.58Z"/>
  <path class="cls-3" d="m1110.73,985.04c-.07-1.69.81-2.49,2.43-2.6-.21,1.43-1.07,2.25-2.43,2.6Z"/>
  <path class="cls-3" d="m883.79,1043.14c1.59.33,2.36,1.3,2.25,2.93-1.3-.56-2.29-1.35-2.25-2.93Z"/>
  <path class="cls-3" d="m333.23,851.36c1.54.28,2.43,1.14,2.45,2.76-1.47-.35-2.36-1.2-2.45-2.76Z"/>
  <path class="cls-3" d="m744.1,972.09c-.3-1.93.67-2.68,2.47-2.64-.27,1.4-1.13,2.24-2.47,2.64Z"/>
  <path class="cls-3" d="m777.25,980.19c-.04,1.59-.93,2.43-2.42,2.73.09-1.55.99-2.37,2.42-2.73Z"/>
  <path class="cls-3" d="m712.15,809.27c.48,1.39.37,2.47-1.38,2.72.08-1.1.21-2.18,1.38-2.72Z"/>
  <path class="cls-3" d="m753.79,960.92c0-.86,0-1.73.01-2.59.72.02,1.36.25,1.45,1.04.11,1-.47,1.51-1.46,1.55Z"/>
  <path class="cls-3" d="m646.94,803.24c.8-.94,1.65-.93,2.52-.11-.8.96-1.64.99-2.52.11Z"/>
  <path class="cls-3" d="m710.74,795.55c1.68.28,1.93,1.29,1.36,2.7-1.1-.58-1.28-1.62-1.36-2.7Z"/>
  <path class="cls-3" d="m1019.58,1015.05c.96-.86,1.81-.77,2.55.28-.95.77-1.79.62-2.55-.28Z"/>
  <path class="cls-3" d="m751.67,963.71c-.06-1.29.63-2,1.79-2.35.25,1.44-.28,2.27-1.79,2.35Z"/>
  <path class="cls-3" d="m949.36,510.2c-1.09.13-1.66-.38-1.79-1.44,1.09-.13,1.65.39,1.79,1.44Z"/>
  <path class="cls-3" d="m963.99,525.46c-.92-.13-1.44-.65-1.52-1.58,1.16-.1,1.53.56,1.52,1.58Z"/>
  <path class="cls-3" d="m951.4,603.65c.79.64.6,1.15-.2,1.59-.72-.63-.51-1.14.2-1.59Z"/>
  <path class="cls-3" d="m737.32,834.34c-.31-.74-.24-1.39.45-1.88.78.85.31,1.4-.45,1.88Z"/>
  <path class="cls-3" d="m519.49,757.25c-.97-.06-1.49-.58-1.6-1.53,1.29-.28,1.49.58,1.6,1.53Z"/>
  <path class="cls-3" d="m972.45,748.7c1.19-.11,1.67.44,1.51,1.6-.96-.11-1.47-.63-1.51-1.6Z"/>
  <path class="cls-3" d="m964.47,740.72c1.17-.13,1.65.43,1.54,1.56-.96-.08-1.47-.61-1.54-1.56Z"/>
  <path class="cls-3" d="m1049.54,1015.35c.45-.88.98-.9,1.58-.16-.47.66-.99.79-1.58.16Z"/>
  <path class="cls-3" d="m1114.51,737.21c1.4-1.01,1.26.27,1.48,1-.79.1-1.17-.4-1.48-1Z"/>
  <path class="cls-3" d="m960.08,734.42c-.03.62-.06,1.24-.09,1.86-.74-.07-1.09-.53-.89-1.19.09-.3.64-.45.97-.67Z"/>
  <path class="cls-3" d="m494.43,733.33c-.96-.29-1.39-.92-1.26-1.92,1.22.12,1.31.97,1.26,1.92Z"/>
  <path class="cls-3" d="m808.34,1041.02c-.49.78-1.01.79-1.56.07.49-.81,1.01-.82,1.56-.07Z"/>
  <path class="cls-3" d="m992.15,702.49c-.02,1.07-.56,1.61-1.63,1.62.09-1,.62-1.55,1.63-1.62Z"/>
  <path class="cls-3" d="m994.17,700.52c-.04,1.06-.58,1.6-1.65,1.6.09-1,.63-1.55,1.65-1.6Z"/>
  <path class="cls-3" d="m328.09,845.52c.35.09.54.31.56.66-.19-.22-.38-.44-.56-.66Z"/>
  <path class="cls-1" d="m678.58,563.1c-.05,12.22-9.83,21.97-22.22,22.04-10.14.06-22.41-10.18-21.69-22.16.75-12.6,9.69-21.48,23.11-21.41,12.73.06,20.86,8.47,20.81,21.53Z"/>
  <path class="cls-1" d="m1088.42,865.54c-.03-12.58,10.01-22.99,21.99-22.99,10.46,0,22.81,11.47,22.59,21.27-.31,13.52-9.83,23.2-23.35,23.17-12.32-.03-21.2-9.01-21.23-21.44Z"/>
  <path class="cls-1" d="m407.72,842.12c-10.87,1.36-22.01-10.08-21.66-21.14.41-13.05,9.66-22.62,22.69-22.57,12.09.05,22.41,10.59,21.74,22.99-.57,10.65-8.53,21.26-22.77,20.72Z"/>
  <path class="cls-1" d="m1027,631.6c11.74,0,22.48,10.02,21.87,21.32-.63,11.79-8.44,22.28-22.18,22.21-12.01-.06-21.99-9.75-21.98-21.27.02-11.97,10.32-22.27,22.28-22.27Z"/>
  <path class="cls-1" d="m876.34,904.87c-.17,11.99-9.78,21.24-21.86,21.04-12.68-.21-21.98-9.49-21.74-21.69.24-11.84,10.45-21.9,22.11-21.77,12.64.14,21.67,9.56,21.49,22.41Z"/>
  <path class="cls-1" d="m658.49,948.32c-.09,12.01-10.13,21.75-22.18,21.52-12.12-.23-21.57-9.49-21.41-21.08.2-14.82,10.44-22.9,21.37-22.96,15.11-.08,22.39,11.84,22.22,22.52Z"/>
  <path class="cls-1" d="m834.64,559.98c-1.25-11.03,9.88-22.81,22.05-22.68,10.32.11,22.21,10,21.71,22.03-.52,12.61-9.56,21.61-22.26,22.02-11.92.38-22.48-9.15-21.5-21.36Z"/>
  <path class="cls-1" d="m424.27,674.29c-12.79-.03-20.82-8.18-21.35-20.47-.42-9.87,7.48-22.97,22.02-22.8,12.58.15,21.36,7.73,21.77,21.54.35,11.72-10.06,23.39-22.45,21.73Z"/>
  <path class="cls-1" d="m1036.48,959.61c-.05-7.18,4.77-12.27,11.56-12.2,6.51.07,11.86,5.21,11.97,11.53.12,6.49-5.36,11.84-12.12,11.86-6.49.02-11.37-4.76-11.41-11.19Z"/>
  <path class="cls-1" d="m564.68,566.93c-.03,6.66-4.57,11.23-11.23,11.3-6.41.06-11.41-4.86-11.42-11.26,0-6.63,5.31-11.43,12.49-11.27,5.87.13,10.18,4.9,10.16,11.23Z"/>
</svg>