<?xml version="1.0" encoding="UTF-8"?>
<svg id="Layer_1" data-name="Layer 1" xmlns="http://www.w3.org/2000/svg" viewBox="0 0 1237.7 1230.98">
  <defs>
    <style>
      .cls-1 {
        fill: #6c38c5;
      }

      .cls-2 {
        fill: #212f3f;
      }

      .cls-3 {
        fill: #fefefe;
      }
    </style>
  </defs>
  <path class="cls-2" d="m909.92,490.95c7.99-.09,15.98-.28,23.96-.22,5.21.04,6.77,2.19,7.19,7.33.7,8.63,2.13,17.21,2.74,25.84.29,4.11,1.38,8.2,1.13,12.25-.27,4.34,1.55,5.05,5.22,4.93,6.49-.21,12.98-.12,19.47-.08,5.44.04,8.09,2.86,8.36,8.29.65,12.75,2.24,25.4,3.85,38.05,1.01,7.95,1.29,15.99,2.13,23.97,1.16,11.02,2.61,22.02,3.82,33.04.82,7.5,1.18,15.05,2.19,22.52,1.53,11.33,2.14,22.74,3.76,34.07.97,6.79,1.57,13.69,2.14,20.55.99,11.88,2.16,23.73,3.92,35.54,1.16,7.79,1,15.77,2.23,23.55,1.74,11,1.7,22.16,3.71,33.15,1.33,7.23,1.41,14.69,2.19,22.03.8,7.46,1.89,14.9,2.64,22.37.36,3.62.72,7.35.23,10.92-.56,4.07-4.06,4.77-7.61,4.77-13.65-.02-27.3-.05-40.95-.05-81.56-.01-163.13,0-244.69-.08-2.24,0-3.68.72-5.16,2.25-9.97,10.29-22.11,15.8-36.38,17.72-20.53,2.77-37.64-3.17-51.63-18.23-1.67-1.8-3.34-1.75-5.32-1.75-66.58.03-133.17.06-199.75.08-28.46,0-56.93.02-85.39.01-7.24,0-9.75-3.75-8.47-11.11,1.21-6.94,1.69-14.02,2.34-21.05.68-7.31,1.26-14.6,2.46-21.87,1.25-7.57,1.99-15.27,2.31-22.94.54-12.62,2.57-25.05,4.05-37.56.87-7.31,1.27-14.68,2.05-22,1.1-10.22,2.64-20.39,3.49-30.63,1.09-13.07,2.68-26.1,3.86-39.16.75-8.32,2.29-16.74,3.3-25.11.69-5.7.65-11.52,1.23-17.29,1.18-11.57,2.63-23.12,3.68-34.68.77-8.48,1.87-16.95,2.44-25.46.42-6.2.95-12.46,2.27-18.51.77-3.56,4-5.44,7.97-5.39,5.49.07,11.07-.55,16.46.2,5.81.81,7.8-1.72,8.25-6.75,1-11.26,2.15-22.51,2.9-33.79.5-7.47,3.16-10.29,10.75-10.15,6.32.12,12.64.19,18.95.47,2.52.11,3.19-.59,3.41-3.24,1.12-13.55,2.57-27.07,3.93-40.6.39-3.89,4.03-6.68,8.07-6.14,12.94,1.74,25.88,3.53,38.81,5.3-.09,4.57.69,9.19-.86,13.67-1,0-2.02.16-2.99,0-7.36-1.25-14.73-2.43-22.04-3.89-6.71-1.33-8.88.38-9.06,7.22-.15,5.41-.55,10.83-1.04,16.22-.89,9.61-2.16,19.2-2.81,28.83-.3,4.43-.68,8.93-1.31,13.24-1.37,9.26-1.46,18.61-2.67,27.87-1.15,8.78-1.23,17.7-2.25,26.5-1.5,13.02-2.85,26.04-3.99,39.1-.4,4.6-.55,9.21-1.03,13.79-.84,8.11-2.26,16.18-2.71,24.31-.5,9.02-1.5,18.01-2.51,26.93-1.65,14.62-2.2,29.35-4.57,43.89-.29,1.75-.42,3.32,2.49,3.68,10.1,1.25,20.26,1.58,30.37,2.8,13.42,1.62,26.79,3.62,39.93,6.49,22.15,4.83,43.67,11.93,64.44,21.1,13.41,5.92,26.31,12.82,38.73,20.61,17.51,10.97,34.37,22.79,48.94,37.59q5.48,5.57,7.9,6.15c3.29,4.51,6.22,9.35,9.98,13.41,2.55,2.75,4.98,7.68,10.3,4.46,1.77-1.07,3.94-2.39,4.64-4.12,2.28-5.63,6.88-9.54,9.95-14.55,6.53-5.65,13.13-11.21,19.56-16.96,13.15-11.77,27.94-21.21,43.01-30.19,19.32-11.52,39.82-20.55,61.16-27.68.31,4.6,1.46,8.84,5.22,11.93-24.72,8.9-48.47,19.78-70.52,34.17-12.59,8.21-24.75,16.98-36.03,26.93-.46.71-2.18.36-1.75,1.47.22.55,1.79.51,2.29-.71.75-.25,1.54-.42,2.24-.77,16.3-8,32.84-15.39,50.01-21.39,19.8-6.92,40.01-12.05,60.62-15.78,13.07-2.36,26.27-3.65,39.45-5.04,7.38-.78,14.81-1.04,22.23-1.43,16.41-.86,32.75.07,49.13,1.22,6.9.49,13.8,1.42,20.75,1.28,1.53-.03,2.93-.11,2.3-2.03-1.44-4.34-.49-8.88-1.33-13.25-2.7-14.01-3-28.27-4.62-42.4-.92-7.98-1.35-16.02-2.21-24.01-1.19-11.05-3.15-22.05-3.7-33.12-.54-10.83-2.87-21.41-3.46-32.23-.23-4.21-.22-8.53-.77-12.78-1.06-8.09-2.21-16.19-2.83-24.32-.63-8.18-1.68-16.3-2.23-24.49-.76-11.41-2.66-22.73-3.8-34.12-.95-9.48-1.58-19-2.17-28.52-.16-2.6-1.1-3.44-3.65-3.31-4.98.26-9.98.27-14.97.39-.1-4.51-.2-9.02-.3-13.52Zm-57.46,369.35v.02c40.95,0,81.9,0,122.85,0,6.16,0,12.32-.05,18.48,0,1.83.01,3.55-.02,3.08-2.52-1.29-6.78-1.47-13.67-2.21-20.5-.83-7.62-2.36-15.2-2.64-22.83-.31-8.24-1.73-16.35-2.52-24.51-1.08-11.21-2.14-22.45-3.58-33.64-.96-7.46-1.61-14.96-2.33-22.45-.81-8.44-2-16.87-2.64-25.34-.53-7.02-1.8-13.95-2.27-21.01-.72-10.88-2.59-21.69-3.73-32.55-.88-8.32-1.22-16.69-2.11-25.01-1.15-10.71-2.76-21.36-3.88-32.07-1.16-11.08-1.77-22.23-3.03-33.3-1.11-9.71-1.36-9.68-11.64-9.66-1.17,0-2.36.17-3.49-.01-3.66-.6-4.46,1.39-3.7,4.29,1.6,6.12.18,12.53,1.91,18.59,1.43,5.04.27,10.25,1.15,15.25,1.41,8.05,1.65,16.21,2.82,24.28,1.21,8.3,1.61,16.66,2.16,25.03.81,12.37,2.47,24.69,3.83,37.03.71,6.5,1.41,13.01,2.21,19.49,1.04,8.43,1.95,16.88,2.86,25.33.84,7.83.73,15.79,2.08,23.52,2,11.48,2.14,23.12,3.8,34.62,1.03,7.15,1.59,14.37,2.29,21.56.92,9.47,2.59,18.86,2.71,28.41.06,4.48-4.19,8.19-8.46,7.12-12.51-3.15-25.31-4.49-38.06-5.74-16.88-1.65-33.85-2.58-50.8-3.12-18.34-.59-36.66.09-54.98,1.8-11.41,1.06-22.92,1.81-34.21,3.46-15.98,2.33-31.99,4.74-47.73,8.69-22.46,5.64-45.03,10.86-66.58,19.55-3.94,1.59-7.96,1.75-11.79,0-4.75-2.16-9.82-3.54-14.73-4.99-18.04-5.34-35.92-11.17-54.48-14.85-18.1-3.59-36.16-7.26-54.44-9.65-19.46-2.54-39.07-3.48-58.66-4.05-21.48-.63-42.89.48-64.29,2.84-14.15,1.56-28.3,2.99-42.4,5.04-10.74,1.57-13.78-1.95-12.37-10.15.57-3.32,1.16-6.78,1.56-10.07,1.73-14.3,2.52-28.72,4.32-43.01.54-4.29.23-8.59.97-12.8,1.47-8.38,2.14-16.84,2.84-25.3.64-7.84,1.39-15.68,2.25-23.48.91-8.27,1.91-16.54,2.74-24.83.72-7.17,1.37-14.34,2.18-21.5.9-7.96,2.7-15.9,2.77-23.86.11-11.72,2.96-23.1,3.22-34.8.21-9.45,1.58-18.91,2.9-28.3.73-5.17.57-10.4,1.81-15.54,2.38-9.85,2.22-9.89-7.92-9.91-.83,0-1.66,0-2.5,0-7.01-.01-7.11.33-7.49,7.49-.42,8.01-1.56,15.97-2.18,23.98-.74,9.58-3.2,19.05-3.56,28.61-.49,12.98-2.72,25.75-3.49,38.71-.98,16.44-3.85,32.75-5.66,49.15-1.22,11.06-1.77,22.19-3.18,33.22-.37,2.89.6,5.83-.29,8.38-3.01,8.68-1.94,17.82-3.41,26.66-1.29,7.74-1.41,15.66-2.21,23.49-1.23,11.89-2.57,23.76-3.92,35.63-.9,7.96-1.73,15.93-2.92,23.85-.8,5.3-.18,6.28,5.34,6.28,91.72,0,183.44.05,275.16-.09,6.25,0,10.81,1.44,14.94,6.53,5.18,6.4,12.1,11.24,20.27,13.06,6.11,1.36,12.59,1.41,18.83.54,10.74-1.5,20.79-4.82,27.65-14.01,3.5-4.68,7.8-6.21,13.68-6.18,45.61.23,91.22.13,136.83.13Zm-223.52-37.99c.25-.34.51-.69.76-1.03-4.39-3.63-8.77-7.29-13.19-10.9-12.34-10.07-25.85-18.39-39.57-26.42-16.21-9.48-33.27-17.12-51.01-23.12-15.75-5.33-31.76-9.94-48.13-12.92-12.03-2.19-24.21-3.57-36.33-5.27-9.21-1.29-18.5-.89-27.76-1.03-5.87-.09-9.28-3.46-8.99-9.23.43-8.53.74-17.11,2.07-25.51.68-4.32.35-8.57.85-12.82,1.31-11.02,3.27-22,3.86-33.05.51-9.51,1.85-18.93,2.46-28.43.56-8.71,1.29-17.53,2.45-26.26,1.58-11.84,1.77-23.87,3.34-35.71.61-4.63.3-9.24.92-13.79,1.2-8.91,2.27-17.83,2.99-26.8.43-5.33.52-10.72,1.81-16.02,2.38-9.79,2.19-9.83-7.88-9.92-1.66-.01-3.35.15-4.99-.07-4.17-.55-4.96,1.66-5.06,5.24-.14,5.43-.29,10.93-1.25,16.26-2.05,11.34-2.3,22.83-3.58,34.23-1.24,11.07-2.26,22.2-3.4,33.27-1.26,12.2-2.25,24.43-3.81,36.59-.57,4.43-.26,8.93-1.06,13.24-1.57,8.38-1.9,16.85-2.82,25.27-.85,7.81-1.72,15.61-2.25,23.46-.79,11.71-2.5,23.36-3.72,35.04-.78,7.5-.75,15.15-2.22,22.5-1.69,8.43-1.12,17.01-2.76,25.38-.66,3.37.64,4.49,4.28,4.15,16.26-1.51,32.54-2.97,48.9-2.83,11.26.09,22.47.94,33.69,1.52,9.07.47,18.13,1.25,27.03,2.51,14.15,2.01,28.32,4.17,42.3,7.52,15.34,3.69,30.36,8.31,45.14,13.67,16.16,5.86,31.93,12.76,46.94,21.27Zm77.72,16.34c83.62-22.81,168.21-27.61,253.76-14.43-.83-9.53-1.49-18.12-2.37-26.68-.18-1.79,1.35-4.71-2.31-4.99-13.1-.99-26.19-2.52-39.31-2.82-18.83-.43-37.64-.56-56.47,1.66-13.2,1.55-26.42,2.91-39.5,5.27-24.26,4.38-47.79,11.35-70.66,20.61-14.87,6.02-28.94,13.62-43.13,21.38Zm-77.53,1.06c0-.98.05-1.17,0-1.31-.7-1.86-2.7-1.66-4.05-2.45-25.97-15.12-53.89-25.45-82.77-33.31-19.14-5.21-38.66-8.29-58.43-10.25-12.62-1.25-25.22-2.51-37.87-2.78-12.06-.26-24.13-.23-36.22.78-9.3.78-18.65,1.14-27.95,2.11-2.38.25-3.01.93-3.24,3.17-.86,8.13-1.94,16.24-2.94,24.35-.32,2.64.37,3.81,3.5,3.53,6.52-.6,13.02-1.49,19.51-2.25,15.5-1.8,31.01-3.11,46.59-3.74,2.82-.11,5.69.23,8.48-.1,16.26-1.94,32.53-.61,48.72.32,12.73.74,25.48,1.95,38.19,3.52,12.33,1.52,24.64,3.3,36.78,5.65,17.27,3.33,34.52,7.05,51.73,12.76Z"/>
  <path class="cls-1" d="m477.59,459.96c1.55-4.48.77-9.1.86-13.67.67-14.81,3.09-29.48,3.19-44.37.05-7.45,4.33-10.27,11.53-8.8,19.79,4.05,39,9.8,57.78,17.48,22.93,9.37,44,21.53,63.41,36.85,20.08,15.84,36.97,34.45,50.44,56.18,3.24,5.23,3.26,5.26,6.55.17,25.33-39.19,59.54-68.06,101.68-87.84,7.26-3.41,14.33-7.3,21.91-9.86,14.29-4.84,28.88-8.73,43.61-12.05,3.09-.7,6.16-1.17,9.33-1.03,4.06.18,6.01,2.37,6.19,6.26.68,14.51,2.94,28.92,3.01,43.47.01,2.9,1.42,3.68,4.16,3.27,11.37-1.71,22.77-3.22,34.13-4.95,6.21-.95,9.42,2.08,9.8,8.56.74,12.48,1.86,24.94,3.02,37.39.12,1.28.31,3,1.71,3.95.1,4.51.2,9.02.3,13.52.64,7.41,1.3,14.83,1.9,22.24.68,8.36.8,16.8,2.1,25.06,1.51,9.63,1.77,19.34,2.82,28.98.88,8.02,1.21,16.12,2.25,24.08,1.27,9.77,1.36,19.62,2.79,29.39,1.66,11.35,1.94,22.89,3.02,34.33,1.2,12.72,2.62,25.42,3.92,38.13.77,7.53.74,15.23,2.41,22.54,2,8.74-.92,11.93-9.08,12.28-11.06.47-22.07.89-33.1,2.03-12.64,1.3-25.19,3.06-37.56,5.78-12.24,2.69-24.29,6.22-36.42,9.39-3.76-3.09-4.91-7.33-5.22-11.93,13.51-4.49,27.2-8.4,41.18-11.11,20.69-4.01,41.55-6.85,62.61-7.96,2.81-.15,3.37-1.18,3.16-3.57-.39-4.6-.54-9.22-1.04-13.8-1.5-13.88-3.11-27.74-3.84-41.69-.25-4.77-.92-9.51-1.43-14.26-.88-8.16-2.3-16.3-2.53-24.47-.25-8.59-2-16.99-2.32-25.58-.35-9.5-1.54-19-2.94-28.41-.9-6.06-.59-12.14-1.47-18.2-1.54-10.71-2.7-21.51-3.27-32.32-.37-7.09-.58-14.3-1.47-21.24-1.97-15.49-2.91-31.06-4.66-46.56-.12-1.03.51-2.56-1.56-2.22-9.76,1.57-19.61,2.52-29.31,4.54-2.32.48-1.94,1.67-1.99,3.13-.25,6.47.87,12.87,1.26,19.3.29,4.76-.1,9.64.81,14.31,1.95,9.94,2.07,20.04,2.78,30.04.72,10.18,1.38,20.43,2.44,30.53,1.17,11.14,1.32,22.34,2.52,33.47.98,9.14,1.93,18.32,2.32,27.57.68,16.25,2.05,32.5,3.96,48.66.87,7.36-.01,14.8,1.79,22.12.86,3.51-1.51,6.42-5.24,7.29-2.87.67-5.82,1.1-8.71,1.65-36.97,7.05-70.7,22.21-101.56,43.24-23.26,15.85-43.36,35.53-60.37,58.13-5.36,7.12-11.2,13.95-14.84,22.24-3.07,5-7.67,8.91-9.95,14.55-.7,1.73-2.88,3.05-4.64,4.12-5.32,3.22-7.75-1.71-10.3-4.46-3.77-4.06-6.7-8.9-9.98-13.41-15.82-26.26-35.92-48.84-59.63-68.14-20.97-17.06-43.7-31.17-69.09-41.05-18.13-7.06-36.51-12.84-55.61-16.34-5.97-1.09-7.91-2.83-7.6-8.83.61-11.81,1.73-23.57,2.84-35.35,1.27-13.42,1.87-26.92,3.13-40.36,1.36-14.57,1.69-29.25,3.21-43.8.52-4.95.45-9.88.92-14.8.97-10.3,2.57-20.57,2.91-30.88.34-10.21,1.59-20.34,2.3-30.5.76-10.78,1.58-21.61,2.79-32.38Zm197.86,351.72c2.42-1.68,3.43-4.42,4.97-6.74,16.4-24.79,36.54-46.14,59.88-64.4,35.66-27.9,75.58-46.9,120.12-55.84,1.37-.28,3.06-.49,2.44-2.26-1.41-4.07-.49-8.22-.84-12.32-1-11.8-3.08-23.48-3.06-35.39.01-8.42,0-16.94-1.3-25.22-1.25-7.96-2.52-15.93-2.48-23.92.05-12.15-1.37-24.21-2.5-36.21-1.41-14.91-2.86-29.79-3.78-44.74-.83-13.43-3.01-26.78-3.64-40.21-.45-9.73-1.7-19.37-2.2-29.07-.42-8.06-.8-16.11-1.95-24.12-.37-2.55-.99-2.75-3.76-2.57-9.3.61-17.75,4.26-26.46,6.79-10.87,3.15-21.24,7.9-31.56,12.61-18.16,8.29-34.75,19.01-50.38,31.46-13.18,10.5-24.57,22.54-34.59,35.95-4.23,5.66-7.95,11.69-11.9,17.55-.56-.68-1.2-1.07-2.13-.69-3.29,1.33-6.36,2.04-7.19-3.48-.85,5.41-2.88,8.91-7.91,10.61-1.52.52-3.55,2.33-4.03,4.63-1.92-.2-2.05-1.98-2.75-3.21-2.53-4.43-4.86-8.98-7.52-13.34-16.92-27.78-40.66-48.55-67.89-65.66-15.75-9.9-32.6-17.55-50.05-23.9-10.71-3.9-21.73-6.78-32.77-9.58-3.9-.99-6.12-.16-5.75,4.5.43,5.36-.46,10.69-.87,16.02-1.07,13.97-2.04,27.94-3.08,41.91-.68,9.22-.63,18.59-2.33,27.62-1.9,10.14-1.65,20.35-2.44,30.5-.83,10.68-2.01,21.35-2.48,32.09-.62,14.13-2.54,28.21-3.72,42.32-.85,10.2-.93,20.49-2.29,30.61-.69,5.15-.27,10.23-.81,15.33-1.1,10.3-1.95,20.63-2.91,30.94-.25,2.67.44,4,3.55,4.66,16.11,3.41,31.92,7.95,47.22,14.07,43.73,17.48,81.18,43.85,112,79.53,9.02,10.45,16.95,21.74,24.88,33.02,1.86,3.13,3.84,6.43,8.1,5.77,3-.46,6.16-1.51,6.17-5.61Z"/>
  <path class="cls-3" d="m852.46,860.3c-45.61,0-91.22.1-136.83-.13-5.88-.03-10.19,1.5-13.68,6.18-6.87,9.19-16.92,12.51-27.65,14.01-6.24.87-12.71.82-18.83-.54-8.18-1.82-15.09-6.66-20.27-13.06-4.13-5.09-8.7-6.54-14.94-6.53-91.72.14-183.44.09-275.16.09-5.51,0-6.13-.98-5.34-6.28,1.19-7.92,2.01-15.89,2.92-23.85,1.35-11.87,2.7-23.75,3.92-35.63.81-7.83.92-15.75,2.21-23.49,1.48-8.85.4-17.98,3.41-26.66.88-2.55-.08-5.49.29-8.38,1.41-11.03,1.96-22.16,3.18-33.22,1.81-16.39,4.68-32.71,5.66-49.15.77-12.95,3-25.72,3.49-38.71.36-9.57,2.83-19.04,3.56-28.61.62-8.01,1.76-15.97,2.18-23.98.38-7.16.48-7.5,7.49-7.49.83,0,1.66,0,2.5,0,10.14.02,10.3.06,7.92,9.91-1.24,5.14-1.09,10.37-1.81,15.54-1.32,9.39-2.69,18.84-2.9,28.3-.26,11.7-3.12,23.08-3.22,34.8-.07,7.96-1.87,15.9-2.77,23.86-.81,7.16-1.46,14.33-2.18,21.5-.83,8.29-1.83,16.56-2.74,24.83-.86,7.8-1.61,15.64-2.25,23.48-.7,8.46-1.37,16.92-2.84,25.3-.74,4.21-.43,8.5-.97,12.8-1.8,14.29-2.59,28.71-4.32,43.01-.4,3.3-.99,6.75-1.56,10.07-1.41,8.21,1.62,11.72,12.37,10.15,14.1-2.06,28.25-3.49,42.4-5.04,21.4-2.36,42.81-3.47,64.29-2.84,19.59.57,39.2,1.51,58.66,4.05,18.29,2.39,36.35,6.06,54.44,9.65,18.56,3.68,36.45,9.51,54.48,14.85,4.9,1.45,9.97,2.83,14.73,4.99,3.83,1.74,7.86,1.58,11.79,0,21.56-8.69,44.12-13.92,66.58-19.55,15.74-3.95,31.75-6.36,47.73-8.69,11.29-1.64,22.8-2.4,34.21-3.46,18.32-1.7,36.64-2.38,54.98-1.8,16.95.54,33.93,1.47,50.8,3.12,12.75,1.25,25.55,2.59,38.06,5.74,4.27,1.07,8.52-2.64,8.46-7.12-.13-9.54-1.79-18.94-2.71-28.41-.7-7.19-1.26-14.41-2.29-21.56-1.66-11.5-1.8-23.14-3.8-34.62-1.34-7.72-1.24-15.69-2.08-23.52-.91-8.44-1.82-16.89-2.86-25.33-.8-6.47-1.49-12.99-2.21-19.49-1.36-12.34-3.01-24.65-3.83-37.03-.55-8.37-.95-16.73-2.16-25.03-1.17-8.06-1.41-16.23-2.82-24.28-.88-5,.29-10.22-1.15-15.25-1.73-6.06-.31-12.47-1.91-18.59-.76-2.9.04-4.88,3.7-4.29,1.13.18,2.33.02,3.49.01,10.28-.02,10.53-.05,11.64,9.66,1.26,11.07,1.86,22.21,3.03,33.3,1.13,10.71,2.74,21.36,3.88,32.07.89,8.32,1.23,16.69,2.11,25.01,1.15,10.86,3.01,21.67,3.73,32.55.47,7.06,1.73,13.99,2.27,21.01.64,8.47,1.83,16.9,2.64,25.34.72,7.49,1.37,14.99,2.33,22.45,1.44,11.19,2.5,22.43,3.58,33.64.79,8.16,2.21,16.27,2.52,24.51.28,7.63,1.81,15.21,2.64,22.83.74,6.83.91,13.72,2.21,20.5.48,2.5-1.25,2.53-3.08,2.52-6.16-.05-12.32,0-18.48,0-40.95,0-81.9,0-122.85,0v-.02Z"/>
  <path class="cls-3" d="m477.59,459.96c-1.21,10.77-2.03,21.6-2.79,32.38-.72,10.16-1.97,20.29-2.3,30.5-.34,10.31-1.94,20.58-2.91,30.88-.46,4.92-.4,9.84-.92,14.8-1.52,14.55-1.85,29.23-3.21,43.8-1.25,13.45-1.85,26.94-3.13,40.36-1.12,11.78-2.23,23.54-2.84,35.35-.31,5.99,1.62,7.73,7.6,8.83,19.1,3.5,37.48,9.28,55.61,16.34,25.39,9.89,48.12,23.99,69.09,41.05,23.71,19.3,43.81,41.88,59.63,68.14q-2.43-.57-7.9-6.16c-14.57-14.8-31.44-26.61-48.94-37.59-12.42-7.79-25.33-14.69-38.73-20.61-20.77-9.17-42.29-16.27-64.44-21.1-13.15-2.87-26.51-4.87-39.93-6.49-10.11-1.22-20.28-1.55-30.37-2.8-2.9-.36-2.77-1.93-2.49-3.68,2.37-14.54,2.92-29.27,4.57-43.89,1.01-8.92,2.01-17.91,2.51-26.93.45-8.13,1.87-16.2,2.71-24.31.48-4.58.63-9.2,1.03-13.79,1.13-13.06,2.48-26.08,3.99-39.1,1.02-8.8,1.09-17.72,2.25-26.5,1.21-9.26,1.3-18.61,2.67-27.87.64-4.31,1.02-8.81,1.31-13.24.65-9.63,1.92-19.21,2.81-28.83.5-5.39.9-10.81,1.04-16.22.19-6.83,2.35-8.55,9.06-7.22,7.32,1.45,14.69,2.64,22.04,3.89.97.16,1.99.01,2.99,0Z"/>
  <path class="cls-3" d="m686.3,821.6c3.64-8.29,9.48-15.12,14.84-22.24,17-22.59,37.1-42.27,60.37-58.13,30.86-21.03,64.59-36.19,101.56-43.24,2.89-.55,5.84-.98,8.71-1.65,3.73-.88,6.1-3.79,5.24-7.29-1.8-7.33-.91-14.76-1.79-22.12-1.91-16.15-3.28-32.41-3.96-48.66-.39-9.24-1.34-18.43-2.32-27.57-1.19-11.14-1.34-22.33-2.52-33.47-1.06-10.1-1.72-20.35-2.44-30.53-.71-10-.84-20.11-2.78-30.04-.91-4.66-.52-9.55-.81-14.31-.39-6.42-1.51-12.83-1.26-19.3.06-1.46-.33-2.65,1.99-3.13,9.7-2.02,19.55-2.97,29.31-4.54,2.07-.33,1.44,1.19,1.56,2.22,1.75,15.5,2.68,31.06,4.66,46.56.88,6.93,1.09,14.15,1.47,21.24.57,10.8,1.72,21.6,3.27,32.32.87,6.06.56,12.15,1.47,18.2,1.4,9.41,2.6,18.92,2.94,28.41.31,8.59,2.07,16.98,2.32,25.58.24,8.17,1.66,16.31,2.53,24.47.51,4.75,1.18,9.49,1.43,14.26.74,13.95,2.34,27.81,3.84,41.69.5,4.58.65,9.21,1.04,13.8.2,2.39-.35,3.42-3.16,3.57-21.06,1.11-41.92,3.95-62.61,7.96-13.98,2.71-27.66,6.62-41.18,11.11-21.34,7.13-41.84,16.16-61.16,27.68-15.07,8.98-29.86,18.42-43.01,30.19-6.43,5.76-13.03,11.32-19.56,16.96Z"/>
  <path class="cls-3" d="m815.25,758.71c12.13-3.16,24.19-6.7,36.42-9.39,12.37-2.72,24.92-4.47,37.56-5.78,11.04-1.14,22.05-1.56,33.1-2.03,8.16-.35,11.09-3.54,9.08-12.28-1.68-7.31-1.64-15.02-2.41-22.54-1.3-12.71-2.73-25.41-3.92-38.13-1.07-11.44-1.36-22.98-3.02-34.33-1.43-9.77-1.51-19.61-2.79-29.39-1.04-7.96-1.36-16.06-2.25-24.08-1.06-9.65-1.32-19.35-2.82-28.98-1.29-8.26-1.41-16.7-2.1-25.06-.6-7.42-1.27-14.83-1.9-22.24,4.99-.11,9.99-.12,14.97-.39,2.55-.13,3.49.71,3.65,3.31.59,9.51,1.22,19.03,2.17,28.52,1.14,11.39,3.04,22.71,3.8,34.12.55,8.19,1.6,16.32,2.23,24.49.62,8.13,1.77,16.23,2.83,24.32.55,4.24.54,8.57.77,12.78.59,10.82,2.92,21.4,3.46,32.23.55,11.07,2.51,22.07,3.7,33.12.86,7.99,1.29,16.03,2.21,24.01,1.63,14.12,1.93,28.39,4.62,42.4.84,4.37-.11,8.91,1.33,13.25.64,1.92-.77,2-2.3,2.03-6.95.14-13.86-.8-20.75-1.28-16.37-1.15-32.72-2.09-49.13-1.22-7.42.39-14.85.66-22.23,1.43-13.18,1.39-26.38,2.67-39.45,5.04-20.61,3.73-40.82,8.86-60.62,15.78-17.18,6-33.71,13.39-50.01,21.39-.7.35-1.49.52-2.24.77-.16-.27-.34-.52-.55-.76,11.29-9.95,23.45-18.72,36.03-26.93,22.06-14.39,45.81-25.27,70.52-34.17Z"/>
  <path class="cls-3" d="m628.94,822.31c-15.01-8.5-30.78-15.41-46.94-21.27-14.78-5.36-29.79-9.99-45.14-13.67-13.98-3.36-28.14-5.51-42.3-7.52-8.9-1.27-17.96-2.04-27.03-2.51-11.23-.58-22.44-1.43-33.69-1.52-16.36-.13-32.64,1.33-48.9,2.83-3.64.34-4.94-.79-4.28-4.15,1.64-8.38,1.07-16.96,2.76-25.38,1.47-7.35,1.44-15,2.22-22.5,1.22-11.68,2.92-23.33,3.72-35.04.53-7.85,1.4-15.65,2.25-23.46.92-8.42,1.26-16.89,2.82-25.27.81-4.31.49-8.8,1.06-13.24,1.56-12.16,2.55-24.4,3.81-36.59,1.15-11.08,2.16-22.2,3.4-33.27,1.28-11.4,1.52-22.9,3.58-34.23.96-5.32,1.11-10.83,1.25-16.26.09-3.58.89-5.79,5.06-5.24,1.64.22,3.32.05,4.99.07,10.07.08,10.26.13,7.88,9.92-1.29,5.3-1.38,10.69-1.81,16.02-.72,8.98-1.79,17.89-2.99,26.8-.62,4.56-.3,9.16-.92,13.79-1.56,11.84-1.76,23.87-3.34,35.71-1.16,8.74-1.89,17.55-2.45,26.26-.61,9.5-1.96,18.92-2.46,28.43-.59,11.05-2.55,22.03-3.86,33.05-.51,4.25-.17,8.49-.85,12.82-1.33,8.41-1.63,16.99-2.07,25.51-.29,5.77,3.12,9.14,8.99,9.23,9.26.14,18.54-.27,27.76,1.03,12.12,1.7,24.3,3.08,36.33,5.27,16.37,2.98,32.38,7.59,48.13,12.92,17.74,6,34.8,13.63,51.01,23.12,13.72,8.03,27.23,16.35,39.57,26.42,4.42,3.61,8.79,7.26,13.19,10.9-.25.34-.51.69-.76,1.03Z"/>
  <path class="cls-3" d="m706.66,838.65c14.19-7.77,28.26-15.36,43.13-21.38,22.88-9.26,46.4-16.23,70.66-20.61,13.07-2.36,26.3-3.72,39.5-5.27,18.83-2.21,37.65-2.09,56.47-1.66,13.12.3,26.21,1.83,39.31,2.82,3.65.28,2.12,3.19,2.31,4.99.88,8.56,1.55,17.15,2.37,26.68-85.55-13.17-170.14-8.37-253.76,14.43Z"/>
  <path class="cls-3" d="m629.14,839.71c-17.2-5.7-34.45-9.42-51.73-12.76-12.14-2.34-24.45-4.13-36.78-5.65-12.71-1.57-25.46-2.78-38.19-3.52-16.19-.94-32.47-2.27-48.72-.32-2.79.33-5.65,0-8.48.1-15.58.63-31.09,1.93-46.59,3.74-6.48.76-12.99,1.65-19.51,2.25-3.12.29-3.82-.89-3.5-3.53.99-8.12,2.08-16.22,2.94-24.35.23-2.23.86-2.92,3.24-3.17,9.31-.97,18.65-1.33,27.95-2.11,12.09-1.01,24.16-1.04,36.22-.78,12.65.27,25.25,1.53,37.87,2.78,19.77,1.96,39.29,5.04,58.43,10.25,28.88,7.86,56.8,18.19,82.77,33.31,1.36.79,3.36.58,4.05,2.45.05.15,0,.33,0,1.31Z"/>
  <path class="cls-3" d="m709.24,820.56c-.5,1.22-2.07,1.26-2.29.71-.44-1.11,1.29-.76,1.75-1.47.2.23.39.49.54.75Z"/>
  <path class="cls-3" d="m661.18,811.53c-7.93-11.28-15.85-22.57-24.88-33.02-30.82-35.68-68.27-62.04-112-79.53-15.31-6.12-31.12-10.66-47.22-14.07-3.11-.66-3.8-1.99-3.55-4.66.96-10.31,1.81-20.64,2.91-30.94.55-5.1.12-10.18.81-15.33,1.36-10.12,1.44-20.41,2.29-30.61,1.18-14.11,3.09-28.19,3.72-42.32.47-10.74,1.65-21.41,2.48-32.09.79-10.15.54-20.36,2.44-30.5,1.69-9.03,1.64-18.4,2.33-27.62,1.04-13.97,2-27.94,3.08-41.91.41-5.34,1.29-10.66.87-16.02-.37-4.66,1.85-5.49,5.75-4.5,11.04,2.79,22.06,5.68,32.77,9.58,17.45,6.36,34.3,14.01,50.05,23.9,27.23,17.11,50.97,37.88,67.89,65.66,2.65,4.36,4.99,8.91,7.52,13.34.7,1.23.83,3.01,2.75,3.21-1.1,2.05.26,4.01.26,6.05-.09,72.01-.04,144.02-.06,216.03,0,21.78-.13,43.56-.2,65.34Z"/>
  <path class="cls-3" d="m682.43,513.03c3.95-5.86,7.68-11.9,11.9-17.55,10.02-13.41,21.41-25.46,34.59-35.95,15.63-12.45,32.22-23.17,50.38-31.46,10.32-4.71,20.69-9.46,31.56-12.61,8.71-2.52,17.16-6.17,26.46-6.79,2.77-.18,3.4.03,3.76,2.57,1.15,8,1.53,16.06,1.95,24.12.5,9.71,1.75,19.34,2.2,29.07.63,13.43,2.81,26.78,3.64,40.21.92,14.95,2.38,29.84,3.78,44.74,1.13,12,2.56,24.05,2.5,36.21-.04,7.99,1.23,15.96,2.48,23.92,1.3,8.27,1.31,16.8,1.3,25.22-.01,11.91,2.06,23.59,3.06,35.39.35,4.1-.57,8.25.84,12.32.61,1.78-1.07,1.99-2.44,2.26-44.53,8.94-84.45,27.94-120.12,55.84-23.33,18.25-43.48,39.61-59.88,64.4-1.54,2.32-2.55,5.06-4.97,6.74-.04-4.01-.13-8.02-.13-12.03,0-89.01.02-178.03-.06-267.04,0-4.11.62-7.78,2.82-11.29,1.65-2.63,2.91-5.51,4.35-8.29Z"/>
  <path class="cls-2" d="m682.43,513.03c-1.43,2.77-2.69,5.65-4.35,8.29-2.2,3.51-2.82,7.18-2.82,11.29.08,89.01.05,178.03.06,267.04,0,4.01.08,8.02.13,12.03-.02,4.1-3.17,5.15-6.17,5.61-4.26.66-6.24-2.64-8.1-5.77.07-21.78.2-43.56.2-65.34.01-72.01-.04-144.02.06-216.03,0-2.04-1.36-4-.26-6.05.48-2.3,2.51-4.11,4.03-4.63,5.03-1.7,7.06-5.21,7.91-10.61.83,5.51,3.9,4.8,7.19,3.48.93-.37,1.56.01,2.13.69Z"/>
</svg>