<?xml version="1.0" encoding="UTF-8"?>
<svg id="Layer_1" data-name="Layer 1" xmlns="http://www.w3.org/2000/svg" viewBox="0 0 1115.1 1633.47">
  <defs>
    <style>
      .cls-1 {
        fill: #fff;
      }

      .cls-2 {
        fill: #6967d2;
      }

      .cls-3 {
        fill: #323e4a;
      }

      .cls-4 {
        fill: #646b73;
      }

      .cls-5 {
        fill: #eeedfa;
      }

      .cls-6 {
        fill: #fdfdfd;
      }
    </style>
  </defs>
  <path class="cls-3" d="m627.33,144.96c.15-1.01.29-2.02.44-3.03,2.29.03,4.59.06,6.88.09.1,1.31.21,2.62.31,3.93.01,17.98.03,35.97.04,53.95-.53,2.35-.29,3.92,2.65,4.59,2.82.64,5.45,2.13,8.17,3.24,1.7,1.37,3.41,2.75,5.11,4.12,3.88,3.97,5.61,9.09,7.46,14.14.19,9.62.37,19.24.56,28.86-1.14,6.98-3.1,13.62-7.98,19.03-2.38,1.71-4.76,3.42-7.15,5.13-3.88,1.62-7.82,3.05-11.98,3.75-5.11-.06-10.23,0-15.34-.21-2.74-.11-3.03,1.13-2.41,3.27-.35,2.99-.19,6.62-3,8.19-4.25,2.37-2.61,4.94-1.21,7.81,1.95,7.01,3.91,14.02,5.86,21.03,1.99,7.33,3.98,14.65,5.96,21.98,2.03,7.55,4.34,15.04,5.99,22.67.9,4.18,2.61,5.44,6.94,5.43,77.03-.15,154.05-.1,231.08-.1,8.13,0,16.16,1.07,23.53,4.47,20.79,9.59,30.86,26.59,30.92,48.99.25,90.57.1,181.13.09,271.7,0,237.4-.03,474.81.03,712.21,0,14.74-2.6,28.49-12.02,40.31-3.9,4.12-8.4,7.49-13.06,10.66-9.17,4.79-18.96,6.45-29.25,6.44-191.33-.05-382.66-.12-574,.1-20.79.02-42.45-15.42-47.77-34.49-1.98-7.08-2.58-14.28-2.58-21.61.03-182.98,0-365.96.01-548.94,0-145.85.04-291.7.04-437.55,0-26.72,21.04-52.36,52.88-52.32,77.36.09,154.73-.02,232.09.08,4.59,0,7.49-.42,7.57-6.07.05-3.27,1.63-6.53,2.5-9.75-4.33-1.1-8.56.41-12.86-1.26-7.17-2.79-10.66-10.9-9.86-15.59,1.04-6.05,6.84-10.54,14.41-11.56,5.01-.67,9.94-1.92,14.93-2.77,1.73-.3,2.29-1.02,2.75-2.8,2.02-7.82,4.35-15.56,6.62-23.32.62-2.12.21-3.53-1.52-5.19-3.09-2.97-6.05-6.36-2.9-11.54-5-.89-9.76-.53-14.45-.37-15.66.52-26.54-9.75-30.12-22.38-.53-1.87-.41-3.55-.45-5.27-.16-7.66-.18-15.32-.08-22.97.15-12.53,6.87-22.59,18.67-26.7,4.41-1.54,5.42-3.58,5.36-7.93-.23-18.14-.04-36.29-.01-54.44.28-.31.57-.62.85-.93q6.47-.24,6.49,6c.02,24.14.02,48.27.08,72.41.02,6.54,1.44,7.98,7.88,7.99,25.78.02,51.57-.06,77.35,0,4.64,0,7.42-1.85,7.47-6.61.17-18.29.51-36.59-.18-54.88.56-6.68.55-13.36.03-20.04.06-.66.13-1.31.19-1.97Zm-34.46,273.91h-26.21c6.77,6.45,18.9,6.79,27.04.88.92-.18,1.84-.35,2.75-.53-.07-.29-.05-.73-.24-.85-1.24-.84-2.39-.71-3.35.5Zm5.83-144.01q.44-8.34-7.88-8.26c-1.3.01-2.61.17-3.91.25-7.28,0-14.56.2-21.83-.08-3.46-.13-3.36,1.75-3.08,3.98.26,2.07-1.48,5.26,3.04,5.07,6.62-.27,13.25-.18,19.87-.25,4.33.02,8.66.03,13,.05.69.18.91-.12.78-.77Zm-43.73-15.38c2.71.11,5.42.22,8.13.32.11.27.22.54.33.81.06-.26.12-.52.17-.79.05-3.92.74-7.64,3.42-10.73,6.63-5.07,14.37-3.82,21.52-2.64,4.46.74,9.5,3.51,8.41,10.17-.41,2.49,1.3,3.11,3.4,3.11,9.65-.02,19.3.04,28.94-.08,3.6-.05,6.18-1.89,6.27-5.71.16-7.32.04-14.65-.02-21.97,0-1.11.05-2.45-1.35-2.92-1.58-.53-1.86,1.08-2.57,1.82-3.37,3.54-7.28,5.05-12.3,4.98-14.46-.2-28.93.04-43.4.11-3.66,0-7.32,0-10.98,0h-6.99c-6.66-.02-13.32-.05-19.97-.07-3.1-1.14-6.25-2.15-8.17-5.19-.48-.77-.93-1.99-2.18-1.6-1.39.43-1.26,1.8-1.26,2.91,0,4.62.07,9.24.12,13.86-.06,2.48-.25,4.97-.17,7.44.12,3.6,1.75,5.97,5.66,6.14,7.66,0,15.32,0,22.98.01Zm31.95,37.83c-4,0-7.99,0-11.99,0-3.16-.07-6.35.16-9.46-.29-4.06-.59-5.5,1.52-6.4,4.89-6.83,25.58-13.45,51.23-20.68,76.7-3.62,12.74-4.86,25.01,1.53,37.16,8.83,16.8,22.73,26.69,41.64,26.6,15.1-.07,27.76-7.24,36.65-19.99.7-1.01,1.97-1.91,1.38-3.48-11.36-.85-11.6-.86-14.91,2.45-13.56,13.56-36.14,12.69-48.58-1.58-8.13-9.32-12.92-20-8.27-33.03,2.37-6.65,3.41-13.76,5.43-20.55,1.35-4.53,2.99-9,5.66-13.03,5.27-7.96,13.15-11.81,22.1-12.11,5.87-.2,12.05,1.14,17.66,3.91,3.85,1.9,7.8,1.58,10.98-1.64,3.14-3.18,2.39-6.86,1.27-10.73-2.88-9.89-6.63-19.55-8.16-29.81-.59-3.93-1.97-6.7-6.9-5.79-2.9.53-5.96.24-8.95.32Zm-21.97,83.44c-2.67.06-6.49-1.85-7.72,1.04-3.27,7.67-6.87,15.67-1.47,24.01,1.47,5.57,2.31,5.95,11.22,5.05,2.64.54,5.29.55,7.93,0,4.01.49,8.03.52,12.04,0,15.29.49,30.58.61,45.87.03,3.01.54,6.03.53,9.05,0,4.92.38,9.88.82,14.36,3.04,10.49,5.2,16.35,18.36,13.5,29.92-2.87,11.62-12.93,19.75-24.95,19.77-42.59.06-85.18.03-127.77,0-2.42,0-4.82-.01-7.24-.84-10.03-3.41-18.53-14.38-18.74-24.5-.23-11.2,6.97-21.52,17.67-25.58,5.94-2.25,12.08-1.49,18.16-1.53,2.39-.02,3.61-.04,2.69-3.28-2.15-7.54-2.56-15.25.07-22.84,1.12-3.23.73-4.58-3.3-4.57-77.7.11-155.39.07-233.09.08-4.77,0-9.4.62-14,2.17-15.27,5.17-30.19,22.28-30.11,44.1.41,108.05.17,216.11.18,324.16,0,49.78.06,99.56.1,149.34-1.06.66-1.05,1.32,0,1.98-.04,2.83-.11,5.66-.11,8.49,0,95.92,0,191.83,0,287.75,0,72.94.04,145.87-.05,218.81-.01,8.37,1.76,15.96,7.06,22.55,3.25,6.12,8.3,10.46,14.05,14.09,6.49,4.82,13.89,6.02,21.78,6.02,97.45-.07,194.9-.04,292.35-.07,37.08-.01,74.16-.1,111.24-.15,1,1.32,2.01,1.32,3.01,0,33.94,0,67.88.01,101.82.02,1.34,1.41,2.67,1.41,4.01,0,17.97,0,35.93,0,53.9,0,1,1.31,2,1.31,3.01,0,10.03.47,20.01.64,28.95-5.09,5.97-3.01,10.78-7.31,14.38-12.95,6.1-9.16,7.75-19.47,7.75-30.18,0-172.81-.01-345.62-.01-518.44,0-155.33.02-310.66.01-465.99,0-9.39-1.85-18.37-7.03-26.35-7.55-11.62-18.28-18.26-32.07-19.88-2.48-.14-4.96-.4-7.44-.4-72.43-.03-144.85-.04-217.28-.02-9.96,0-19.92.16-29.88.25-5.33-.42-10.65-.42-15.97,0-12.65,0-25.29,0-37.94.01Zm14.98,75.16v-.05c21.62,0,43.25-.06,64.87.03,8.56.03,17.89-6.58,17.96-18.49.06-11.26-8.5-18.22-17.49-18.65-3.98-.19-8,.14-11.97-.17-3.25-.25-4.94.9-6.6,3.77-10.34,17.8-26.29,27.1-46.54,27.11-16.35,0-31.26-6.73-39.9-20.72-6.1-9.88-13.29-11.09-22.81-10.03-.49.05-1,.02-1.5.06-10.03.75-16.34,10.41-17.03,16.66-1.09,9.86,8.22,21.07,19.63,20.69,20.44-.69,40.91-.19,61.37-.19Zm1.47-83.1c3.65,0,7.3.03,10.95,0,3.47-.03,8.33,1.23,10.07-.54,2.11-2.15-1.88-5.91-2.33-9.16-.37-2.65-1.34-5.06-2-7.59-.59-2.28-2.14-3.7-4-4.81-6.05-3.6-19.72-2.36-25.21,2.17-5.41,4.47-7.28,10.74-8.87,17.18-.55,2.23.3,2.84,2.48,2.8,6.3-.12,12.61-.04,18.91-.04Zm53.56-161.14c.07,4.35-1.63,8.77,3.92,11.04,1.66.68,2.55,2.83,3.03,4.92,1.94,8.38.69,16.84.77,25.25.09,8.76-5.17,13.76-14.01,13.86-6.65.08-13.31.18-19.95-.02-3.82-.12-2.75,2.45-2.75,4.36,0,1.92-1.03,4.49,2.75,4.39,7.48-.21,15,.33,22.43-.27,12.15-.98,19.58-8.87,20.34-21.49.42-6.96.21-13.97.1-20.96-.17-11.04-5.28-17.61-16.64-21.08Zm-124.51,31.14c.08,0,.17,0,.25,0,0,4.32-.12,8.64.02,12.96.34,10.04,9.86,18.57,18.3,19.36,7.81.73,15.6.24,23.41.37,4.38.07,2.03-3.28,2.42-5.11.43-2.01.4-3.83-2.8-3.71-6.31.25-12.67-.36-18.93.21-7.07.65-14.27-5.88-13.99-13.95.18-5.15.16-10.32-.05-15.46-.27-6.75.45-12.79,6.79-17.09,2.53-1.72,1.69-5.62.63-7.82-.93-1.93-3.57.02-5.18.9-7.01,3.85-10.43,10.02-10.84,17.87-.2,3.81-.04,7.65-.04,11.47Zm70.33,47.17v.03c7.13,0,14.25.02,21.38,0,2.19,0,4.6,0,4.65-3.07.05-3.1-2.22-3.83-4.72-3.84-14.25-.03-28.51-.02-42.76.03-2.32,0-4.45.76-4.46,3.57,0,2.94,2.19,3.3,4.52,3.29,7.13-.01,14.25,0,21.38,0Zm-37.67,43.82c-6.27.26-12.1,1.13-17.64,2.98-4.9,1.64-5.74,6.63-2.24,10.2,4.05,4.13,9.3,3.01,14.03,2.57,3.25-.3,2.32-4.26,3.08-6.66.91-2.87,1.75-5.75,2.76-9.09Zm71.7,14.96c-1.41,1.06-2.28,1.58-2.98,2.27-1.87,1.86-6.09.6-6.41,3.5-.28,2.5,1.56,5.22,2.42,7.85.15.46.02,1.01.16,1.48q2.81,9.12,12.57,8.84c.27,0,.53-.21.98-.39-2.22-7.74-4.44-15.49-6.75-23.55Zm-33.88-89.64c2.14,0,4.29.11,6.42-.05.99-.07,2.89.92,2.75-1.25-.11-1.66-.08-3.86-2.68-3.9-4.61-.06-9.22-.13-13.82,0-1.57.05-2.64.99-2.55,2.93.1,2.11,1.33,2.32,2.97,2.28,2.3-.05,4.61-.01,6.91-.03Z"/>
  <path class="cls-4" d="m800.57,1459.79c1.34-2.65,2.67-2.65,4.01,0-1.34,1.41-2.67,1.41-4.01,0Z"/>
  <path class="cls-4" d="m858.48,1459.79c.1-.75-.27-1.87.98-1.86,1.1,0,1.68.88,2.02,1.87-1,1.31-2.01,1.3-3.01,0Z"/>
  <path class="cls-4" d="m695.74,1459.77c1-1.54,2.01-1.54,3.01,0-1,1.32-2.01,1.32-3.01,0Z"/>
  <path class="cls-4" d="m249.4,900.31c1.47.66,1.47,1.31,0,1.98-1.06-.66-1.07-1.32,0-1.98Z"/>
  <path class="cls-2" d="m776.62,540.61c.1,1.02.2,2.05.3,3.07-.15.88-.1,1.7.56,2.39-.05,43.11-.12,86.22-.13,129.33-.02,61.59.04,123.19-.02,184.78-.01,15.89-6.29,28.68-19.87,37.32-6.92,4.41-14.68,6.58-22.94,6.58-102.3.01-204.61.06-306.91-.03-23.47-.02-41.76-17.32-42.66-40.72-1.33-34.6.08-69.23-.13-103.85-.21-36.94-.25-73.88-.25-110.82,0-32.79.07-65.57.23-98.36.12-25.27,18.52-43.53,43.79-43.53,99.98-.02,199.95.13,299.92-.18,14.79-.05,27.48,3.48,37.92,14.12,4.9,5.86,8.06,12.62,10.18,19.9Zm-81.86,359.45c6.32,0,12.64-.01,18.96-.02,1.34,0,2.67,0,4.01,0,6.65-.02,13.31-.03,19.96-.05,18.9-.75,33.54-16.66,35-32.55,1.19-1.62.84-3.52.84-5.31.02-103.98.02-207.96-.01-311.95,0-1.96.4-4.01-.77-5.83-1.41-17.95-15.62-31.17-36.06-33.53-10.65-.02-21.3-.05-31.95-.07-1.66,0-3.33,0-4.99,0-1.66,0-3.33,0-4.99,0-1.33,0-2.66,0-3.99,0-1.66,0-3.33,0-4.99,0-1.33,0-2.66,0-3.99,0-2.33,0-4.66,0-6.99,0-2.99,0-5.99,0-8.98,0-5.33,0-10.65,0-15.98,0-1,0-2,0-3,0-4.66,0-9.32,0-13.98,0-2,0-3.99,0-5.99,0-2.33,0-4.66,0-6.99,0-4.33,0-8.65,0-12.98,0-11.32,0-22.63,0-33.95,0-3.99,0-7.99,0-11.98,0-6.66,0-13.31,0-19.97,0-2.66,0-5.32,0-7.99,0-1,0-2,0-3,0-2.33,0-4.66,0-6.99,0-.67,0-1.33,0-2,0-4.66,0-9.32,0-13.98,0-6.66,0-13.31,0-19.97,0-1.66,0-3.33,0-4.99,0-.67,0-1.33,0-2,0-2,0-3.99,0-5.99,0-1.33,0-2.66,0-3.99,0-.67,0-1.33,0-2,0-1,0-2,0-2.99,0-.67,0-1.33,0-2,0-11.98,0-23.96,0-35.94-.01-19.53-1.01-38.01,17.12-38.06,34.57-1.13,1.83-.73,3.89-.73,5.84-.02,102.96-.01,205.93.02,308.89,0,2.12-.45,4.34.8,6.33-.1,4.27,1.28,8.23,3.19,11.87,6.53,12.4,16.27,20.46,30.73,21.72,2.82.09,5.64.27,8.46.27,70.78,0,141.55,0,212.33-.04,13.95,0,27.9-.12,41.86-.19,3,0,6,.01,8.99.02Z"/>
  <path class="cls-3" d="m590.94,324.05c-.1,7.15-3.2,9.87-11.06,9.73-5.45-.1-10.19-5.19-9.97-10.71.22-5.6,4.69-9.38,10.99-9.31,6.71.08,10.13,3.59,10.04,10.28Zm-10.34-4.19c-3.2-.4-3.88,1.49-3.87,4.19.01,2.99,1.64,4.11,4.36,4.04,2.88-.08,3.88-1.65,3.9-4.5.02-3.24-1.63-3.98-4.38-3.74Z"/>
  <path class="cls-6" d="m423.12,900c-14.46-1.27-24.2-9.32-30.73-21.72-1.92-3.64-3.29-7.6-3.19-11.87.02-1.16.06-2.33.06-3.49,0-103.2,0-206.39-.01-309.59,0-2.66-.09-5.32-.13-7.98.05-17.46,18.54-35.58,38.06-34.57,0,1.6,0,3.2,0,4.79-3.06.54-6.22.75-9.15,1.68-15.85,5.06-24.22,17.81-24.21,36.43.02,78.36.04,156.73.04,235.09,0,23.79.04,47.58-.06,71.38-.05,11.17,4.02,20.48,12.81,27.21,4.61,3.53,9.62,6.87,15.58,8.05-.04,1.6-.1,3.21.94,4.59Z"/>
  <path class="cls-6" d="m772.68,867.45c-1.46,15.89-16.1,31.8-35,32.55,0-1.57,0-3.14,0-4.71,11.37-1.95,20.37-7.38,26.14-17.66,3.5-6.23,4.51-12.98,4.51-20-.02-98.97-.01-197.94-.03-296.91,0-4.32.16-8.68-.33-12.96-1.76-15.61-10.72-27.04-25.64-30.87-1.88-.48-4.07.42-5.65-1.29,0-1.59,0-3.18,0-4.77,20.44,2.36,34.65,15.57,36.06,33.53-.04,26.97-.12,53.93-.11,80.89,0,80.73.04,161.46.06,242.2Z"/>
  <path class="cls-1" d="m736.68,510.83c0,1.59,0,3.18,0,4.77-1.32.06-2.65.16-3.97.16-100.02.01-200.05.01-300.07,0-1.82,0-3.64-.14-5.46-.21,0-1.6,0-3.2,0-4.79,11.98,0,23.96,0,35.94.01.1.65.17,1.43,1,1.42.83,0,.9-.78,1-1.43h2.99c.1.64.17,1.43,1,1.42.83,0,.9-.79,1-1.43,1.33,0,2.66,0,3.99,0,2,2.89,3.99,2.89,5.99,0,.67,0,1.33,0,2,0,1.66,3,3.33,3,4.99,0,6.66,0,13.31,0,19.97,0,2.78,2.69,11.2,2.69,13.98,0,.67,0,1.33,0,2,0,2.22,2.24,4.42,2.24,6.99,0,1,0,2,0,3,0,2.66,3.01,5.32,3.01,7.99,0,6.66,0,13.31,0,19.97,0,2.76,2.68,9.22,2.68,11.98,0,11.32,0,22.63,0,33.95,0,2.82,2.72,10.17,2.72,12.98,0,2.33,0,4.66,0,6.99,0,2,2.88,4,2.89,5.99,0,4.66,0,9.32,0,13.98,0,.14.78.28,1.58,1.27,1.71,1.26.15,1.57-.71,1.73-1.71,5.33,0,10.65,0,15.98,0,2.71,2.67,6.27,2.67,8.98,0,2.33,0,4.66,0,6.99,0,1.33,2.69,2.66,2.69,3.99,0,1.66,0,3.33,0,4.99,0,1.33,2.69,2.66,2.69,3.99,0,1.66,0,3.33,0,4.99,0,1.66,3.01,3.33,3.01,4.99,0,10.65.02,21.3.05,31.95.07Z"/>
  <path class="cls-1" d="m423.12,900c-1.03-1.38-.98-2.99-.94-4.59,3.27-.89,6.59-.21,9.88-.22,80.25-.06,160.51-.06,240.76-.06,4.65,0,9.29.16,13.94.24-.33,1.56-.67,3.11-1,4.67-13.95.07-27.9.18-41.86.19-70.78.03-141.55.04-212.33.04-2.82,0-5.64-.18-8.46-.27Z"/>
  <path class="cls-5" d="m772.68,867.45c-.02-80.73-.05-161.46-.06-242.2,0-26.96.07-53.93.11-80.89,1.17,1.82.77,3.88.77,5.83.03,103.98.03,207.96.01,311.95,0,1.79.34,3.69-.84,5.31Z"/>
  <path class="cls-5" d="m389.11,545.34c.05,2.66.13,5.32.13,7.98.01,103.2.01,206.39.01,309.59,0,1.16-.04,2.33-.06,3.49-1.25-1.98-.8-4.21-.8-6.33-.04-102.96-.04-205.93-.02-308.89,0-1.96-.39-4.01.74-5.84Z"/>
  <path class="cls-1" d="m737.68,895.29c0,1.57,0,3.14,0,4.71-6.65.02-13.31.03-19.96.05,0-1.56,0-3.12,0-4.67,6.66-.03,13.31-.06,19.97-.09Z"/>
  <path class="cls-1" d="m713.71,900.04c-6.32,0-12.64.01-18.96.02,0-1.56,0-3.13,0-4.69,6.32-.4,12.65-.44,18.97,0,0,1.56,0,3.12,0,4.68Z"/>
  <path class="cls-6" d="m694.75,895.37c0,1.56,0,3.13,0,4.69-3,0-6-.01-8.99-.02.33-1.56.67-3.11,1-4.67,2.66,0,5.33,0,7.99,0Z"/>
  <path class="cls-6" d="m521.02,510.76c-2.78,2.69-11.2,2.69-13.98,0,4.66,0,9.32,0,13.98,0Z"/>
  <path class="cls-6" d="m619.87,510.77c-2.81,2.72-10.16,2.73-12.98,0,4.33,0,8.65,0,12.98,0Z"/>
  <path class="cls-6" d="m572.94,510.77c-2.76,2.68-9.22,2.68-11.98,0,3.99,0,7.99,0,11.98,0Z"/>
  <path class="cls-6" d="m713.71,900.04c0-1.56,0-3.12,0-4.68,1.33,0,2.66,0,3.99,0,0,1.56,0,3.12,0,4.67-1.34,0-2.67,0-4.01,0Z"/>
  <path class="cls-6" d="m674.78,510.77c-2.71,2.67-6.27,2.67-8.98,0,2.99,0,5.99,0,8.98,0Z"/>
  <path class="cls-6" d="m540.99,510.76c-2.66,3.01-5.32,3.01-7.99,0,2.66,0,5.32,0,7.99,0Z"/>
  <path class="cls-6" d="m530.01,510.76c-2.57,2.24-4.77,2.24-6.99,0,2.33,0,4.66,0,6.99,0Z"/>
  <path class="cls-6" d="m480.09,510.76c-2,2.89-3.99,2.89-5.99,0,2,0,3.99,0,5.99,0Z"/>
  <path class="cls-6" d="m632.85,510.76c-1.99,2.9-3.99,2.89-5.99,0,2,0,3.99,0,5.99,0Z"/>
  <path class="cls-6" d="m704.73,510.76c-1.67,3-3.33,3.01-4.99,0,1.66,0,3.33,0,4.99,0Z"/>
  <path class="cls-6" d="m487.08,510.76c-1.66,3-3.33,3-4.99,0,1.66,0,3.33,0,4.99,0Z"/>
  <path class="cls-6" d="m694.75,510.76c-1.33,2.69-2.66,2.69-3.99,0,1.33,0,2.66,0,3.99,0Z"/>
  <path class="cls-6" d="m685.76,510.76c-1.33,2.69-2.66,2.69-3.99,0,1.33,0,2.66,0,3.99,0Z"/>
  <path class="cls-6" d="m649.82,510.77c-.15,1-.47,1.86-1.73,1.71-.99-.12-1.13-.92-1.27-1.71h3Z"/>
  <path class="cls-6" d="m470.11,510.77c-.1.65-.17,1.43-1,1.43-.83,0-.9-.78-1-1.43.67,0,1.33,0,2,0Z"/>
  <path class="cls-6" d="m465.11,510.78c-.1.65-.17,1.43-1,1.43-.83,0-.9-.78-1-1.42.67,0,1.33,0,2,0Z"/>
  <path class="cls-3" d="m717.71,895.38c-1.33,0-2.66,0-3.99,0-6.32-.43-12.65-.39-18.97,0-2.66,0-5.33,0-7.99,0-4.65-.09-9.29-.24-13.94-.24-80.25,0-160.51,0-240.76.06-3.29,0-6.6-.67-9.88.22-5.96-1.19-10.97-4.52-15.58-8.05-8.79-6.74-12.86-16.04-12.81-27.21.1-23.79.06-47.58.06-71.38,0-78.36-.02-156.73-.04-235.09,0-18.61,8.36-31.37,24.21-36.43,2.93-.94,6.1-1.14,9.15-1.68,1.82.07,3.64.21,5.46.21,100.02,0,200.05,0,300.07,0,1.32,0,2.65-.1,3.97-.16,1.58,1.71,3.77.8,5.65,1.29,14.92,3.83,23.88,15.27,25.64,30.87.48,4.28.33,8.64.33,12.96.02,98.97,0,197.94.03,296.91,0,7.03-1.01,13.77-4.51,20-5.77,10.27-14.77,15.71-26.14,17.66-6.66.03-13.31.06-19.97.09Zm-279.4-4.13c4.22,1.69,8.44,1.65,12.67.04,5.42,0,10.84,0,16.25,0,.92,1.37,1.83,1.37,2.73-.02,3.75,0,7.5,0,11.25,0,.91,1.39,1.82,1.39,2.73,0,2.44.04,4.88.08,7.32.12.2.59.41.6.61,0,2.32-.08,4.65-.24,6.97-.24,77.54,0,155.08,0,232.62.02,5.9,0,11.6-.88,16.73-3.85,10.75-6.21,15.64-15.63,15.63-28.08-.09-102.57-.03-205.14-.07-307.72,0-19.18-12.43-31.69-31.53-31.73-38.94-.08-77.87-.03-116.81-.03-62.23,0-124.46-.04-186.69.05-11.46.02-20.51,4.82-26.5,14.9-3.36,5.65-4.17,11.77-4.16,18.22.05,59.11,0,118.22,0,177.34,0,43.46,0,86.92.1,130.38.04,15.65,9.54,26.77,24.74,29.89,5.15,1.06,10.28.26,15.41.71Z"/>
  <path class="cls-2" d="m491.27,891.39c-2.44-.04-4.88-.08-7.32-.12-.91-1.16-1.82-1.17-2.73,0-3.75,0-7.5,0-11.25,0-.92-1.16-1.83-1.17-2.73.02-5.42,0-10.84,0-16.25,0-4.22-1.46-8.44-1.41-12.67-.04-5.12-.44-10.26.35-15.41-.71-15.2-3.12-24.7-14.25-24.74-29.89-.11-43.46-.1-86.92-.1-130.38,0-59.11.04-118.22,0-177.34,0-6.45.8-12.57,4.16-18.22,5.99-10.07,15.04-14.88,26.5-14.9,62.23-.09,124.46-.05,186.69-.05,38.94,0,77.87-.05,116.81.03,19.1.04,31.52,12.55,31.53,31.73.04,102.57-.02,205.15.07,307.72.01,12.45-4.87,21.87-15.63,28.08-5.13,2.96-10.84,3.85-16.73,3.85-77.54-.03-155.08-.03-232.62-.02-2.32,0-4.65.16-6.97.24-.2-.07-.41-.07-.61,0Zm264.41-344.6c-3.27-12.92-10.98-18.91-24.83-18.98-17.47-.09-34.94,0-52.42,0-82.37,0-164.74-.04-247.11.02-4.71,0-9.34.34-13.7,3.17-8.65,5.6-11.73,13.1-11.66,23.36.34,56.28.17,112.57.19,168.85.01,46.46.02,92.92.1,139.38,0,2.24.06,4.38,1.14,6.7,4.78,10.23,12.94,13.93,23.72,13.91,47.09-.09,94.18-.03,141.27-.02,53.25.01,106.5,0,159.74.07,9.21.01,16.47-3.26,21.22-11.44,2.56-4.41,2.47-9.22,2.47-14.06,0-103.08-.01-206.15-.01-309.23.82-.63.81-1.21-.12-1.72Z"/>
  <path class="cls-4" d="m438.32,891.25c4.23-1.37,8.46-1.42,12.67.04-4.23,1.61-8.46,1.65-12.67-.04Z"/>
  <path class="cls-4" d="m467.24,891.29c.9-1.18,1.82-1.18,2.73-.02-.9,1.38-1.81,1.38-2.73.02Z"/>
  <path class="cls-4" d="m481.22,891.27c.91-1.16,1.82-1.16,2.73,0-.91,1.39-1.82,1.38-2.73,0Z"/>
  <path class="cls-4" d="m491.27,891.39c.2-.07.41-.07.61,0-.21.6-.41.6-.61,0Z"/>
  <path class="cls-3" d="m755.79,548.51c0,103.08,0,206.15.01,309.23,0,4.84.08,9.65-2.47,14.06-4.75,8.18-12,11.45-21.22,11.44-53.25-.06-106.5-.06-159.74-.07-47.09-.01-94.18-.07-141.27.02-10.77.02-18.94-3.67-23.72-13.91-1.08-2.31-1.14-4.46-1.14-6.7-.07-46.46-.09-92.92-.1-139.38-.02-56.28.15-112.57-.19-168.85-.06-10.26,3.02-17.76,11.66-23.36,4.36-2.83,8.99-3.17,13.7-3.17,82.37-.06,164.74-.03,247.11-.02,17.47,0,34.94-.09,52.42,0,13.85.07,21.56,6.06,24.83,18.98.04.57.08,1.15.12,1.72Zm-241.53,269.79c.25-2.41-2.39-2.87-3.13-4.61-1.77-4.18-4.34-4.13-7.41-1.41-14.8,7.22-29.76,14.14-44.11,22.25-15.57,8.8-24.59,22.18-27.71,39.84-.81,4.6.83,4.72,4.43,4.71,82.32-.05,164.65,0,246.97.02,6.15,0,12.31-.12,18.46-.02,2.66.04,3.55-.48,2.61-3.4-1.63-5.08-3.36-10.26-4.37-15.4-2.67-13.57-11.27-21.75-22.71-27.72-4.81-2.51-10.35-3.71-15.14-5.99-10.5-4.99-21.72-8.11-32.06-13.34-2.5-1.26-2.89-.35-3.29,2.06-.67,4.08.14,8.6-1.24,12.17-2.9,7.5-3.03,15.51-5.46,23.04-.78,2.42-.86,5.01-3.76,5.86-3.06.89-4.93-.83-6.7-3.09-5.52-7.08-11.3-13.97-16.69-21.14-2.5-3.32-3.79-2.1-5.64.44-6.18,8.47-12.39,16.92-18.79,25.22-2.84,3.68-6.15,3.81-9.92.88-15.8-12.32-30.28-26.1-44.34-40.35Zm-90.55,59.72c.11-.29.29-.58.32-.88,2.08-22.48,13.12-39.14,32.87-49.86,11.01-5.98,21.99-12.2,33.56-16.89,12.55-5.09,20.75-13.44,25.57-25.83,1.85-4.75,3.94-9.66,9.56-11.48,1.02-.33,1.32-1.39,1.33-2.47.03-8.28,1.56-16.5,1.13-24.81-.08-1.51-.41-2.43-1.87-3.05-3.4-1.46-5.37-4.4-7.03-7.5-7.22-13.48-15.24-26.51-22.78-39.8-10.81-19.06-16.21-39.51-12.24-61.64,3.02-16.82,11.13-30.25,26.37-38.72,2.17-1.21,3.52-2.72,4.52-4.97,6.83-15.24,18.92-24.6,34.55-29.1,22.7-6.54,45.14-4.47,67,4.11,4.34,1.7,8.36,1.75,12.88.65,26.73-6.51,46.82,9.97,46.21,35.7-.27,11.45-5.66,20.93-14.78,27.9-2.73,2.09-3.22,3.63-2.15,6.93,2.64,8.15,4.04,16.65,3.59,25.24-.38,7.26,1.59,13.63,5.49,19.63,3.25,4.99,6.61,9.95,9.33,15.23,3.77,7.32,1.28,13.43-6.3,16.57-1.67.69-3.53.92-5.21,1.59-1.43.57-3.01.96-2.87,3.29.6,10.25-1.45,20.29-2.95,30.35-2.07,13.93-8.68,22.56-25.22,22.37-6.44-.08-12.85-.39-19.16-1.79-.96-.21-2.4-.74-2.36.59.19,5.84-3.65,11.88,1.44,17.53,3.32,3.68,6,7.98,8.68,12.18,1.98,3.11,4.61,4.97,7.99,6.32,15.69,6.24,31.42,12.38,46.92,19.05,14.02,6.04,24.5,15.85,29,30.93,2.01,6.75,3.68,13.62,5.13,20.52.53,2.5,1.41,3.25,3.86,3.18,5.65-.16,11.32.06,16.97-.08,11.76-.29,18.72-7.48,18.73-19.19,0-11.16-.03-22.31-.03-33.47,0-91.08.02-182.15-.04-273.23,0-13.31-6.96-21.2-21.13-21.21-100.16-.04-200.32-.04-300.49,0-13.4,0-19.99,6.67-19.99,19.89,0,84.25,0,168.5,0,252.75,0,18.81-.06,37.63.01,56.44.04,8.95,5.23,15.29,13.61,17.02Zm158.23-212.36s-.03,0-.04,0c0-1.33-.1-2.67.02-3.99,1.27-14.51,6.11-22.81,20.15-26.69,6.61-1.83,13.74-.48,20.68-1.27,8.22-.94,16.23-2.32,23.89-5.25,16.67-6.38,24.37-20.35,20.04-37.52-3.1-12.3-15.04-20.1-28.29-18.69-7.15.76-14.08,3.93-21.76.81-15.29-6.2-31.25-9.29-47.92-7.49-7.24.78-14.21,1.7-21.21,4.52-12.6,5.08-21.51,13.17-26.44,25.76-.68,1.75-1.74,2.97-3.54,3.88-19.15,9.73-26.97,26.53-27.29,46.89-.28,17.67,6.08,33.84,15.06,48.86,7,11.7,13.96,23.41,20.25,35.51,2.91,5.59,6.53,6.32,11.63,2.5,6.72-5.04,10.93-11.94,14.2-19.54.79-1.84.48-2.98-.89-4.37-6.84-6.94-10.32-15.27-9.45-25.07.6-6.79,3.03-13.12,9-16.8,7.39-4.55,19.35-3.91,25.39,6.24.86,1.45,1.65,3.06,3.75,2.53,1.92-.49,2.37-2.44,2.64-3.86.43-2.24.11-4.63.11-6.95Zm49.51,96.76c2.33,0,4.66.05,6.99,0,5.71-.14,10.86-3.79,12.21-9.18,2.53-10.04,4.08-20.25,4.1-30.62.03-12.14,2.29-13.7,10.75-15.84.48-.12.96-.28,1.43-.45,3.78-1.34,4.92-3.62,2.7-7.25-2.95-4.82-5.8-9.7-8.73-14.53-4.39-7.23-7.07-14.87-6.53-23.53.48-7.63-1.31-15.08-2.7-22.53-.26-1.41-.27-3.6-3.02-2.52-12.7,4.97-25.98,5.72-39.46,5.72-10.52,0-16.16,5.13-18.73,15.4-1.03,4.12-.39,8.26-.49,12.38-.2,7.61-4.46,14.01-11.44,16.96-3.81,1.61-6.57,1.63-7.51-3.4-.38-2.04-1.54-4.06-2.74-5.81-4.18-6.08-12.14-6.34-16.4-.38-6.55,9.18-2.53,27.23,11.42,31.53,2.03.63,4.52-.03,4.59,3.1.07,3.17-2.53,3.86-4.72,3.85-3.5-.02-4.86,1.88-6.14,4.66-4.19,9.08-9.74,17.09-18.97,21.74-2.11,1.06-2.08,2.59-2.14,4.47-.24,6.94.41,14.12-1.18,20.75-2.13,8.86.29,14.71,7.3,20.05,10.89,8.3,22.4,15.65,33.67,23.38,3.61,2.48,7.4,4.52,11.2,6.61,1.89,1.04,3.44.87,4.87-.77,6.84-7.88,10.34-16.93,11.36-27.44.56-5.81-.15-11.77,1.7-17.51.83-2.59.17-4.86-3.28-5.63-9.6-2.14-16.95-7.95-23.64-14.85-1.31-1.35-2.59-2.71-2.89-4.4-.39-2.17-1.37-5.54,1.13-6.23,1.98-.55,5.3-.44,6.68,3.13,1.29,3.32,3.04,6.81,6.34,8.67,13.11,7.39,27.39,10.23,42.29,10.5Zm-105.37,18.76c-3.32,6.65-6.52,13.34-9.99,19.89-1.39,2.62-.94,4.51.78,6.74,12.15,15.77,27.18,28.62,42.02,41.65,2.96,2.6,4.88,2.31,7.41-1.26,5.73-8.07,12.16-15.64,18.36-23.47-20.26-13.07-42.28-24.03-58.58-43.55Zm85.2,14.12c-.45.04-.89.08-1.34.12-1.4,10.37-5.6,19.32-12.99,26.61-1.06,1.05-.94,1.86-.04,2.96,4.64,5.64,9.22,11.32,13.81,16.99.64.79,1.34,1.59,2.48,1.2,1.05-.36.57-1.35.7-2.1,1.55-8.64,5.14-16.83,5.13-25.86,0-2.67,1.72-5.61.25-8.14-2.38-4.1-5.31-7.87-8-11.78Z"/>
  <path class="cls-4" d="m755.79,548.51c-.04-.58-.08-1.15-.12-1.72.93.51.94,1.09.12,1.72Z"/>
  <path class="cls-5" d="m423.71,878.02c-8.37-1.73-13.56-8.07-13.6-17.02-.08-18.81-.01-37.63-.01-56.44,0-84.25,0-168.5,0-252.75,0-13.22,6.58-19.89,19.99-19.89,100.16-.03,200.32-.03,300.49,0,14.17,0,21.12,7.9,21.13,21.21.06,91.08.03,182.15.04,273.23,0,11.16.04,22.31.03,33.47,0,11.72-6.97,18.9-18.73,19.19-5.65.14-11.32-.08-16.97.08-2.45.07-3.33-.68-3.86-3.18-1.45-6.9-3.12-13.77-5.13-20.52-4.49-15.08-14.97-24.89-29-30.93-15.5-6.67-31.23-12.82-46.92-19.05-3.38-1.34-6.01-3.2-7.99-6.32-2.68-4.2-5.36-8.5-8.68-12.18-5.09-5.65-1.25-11.69-1.44-17.53-.04-1.33,1.4-.8,2.36-.59,6.31,1.41,12.72,1.72,19.16,1.79,16.54.2,23.15-8.43,25.22-22.37,1.5-10.06,3.54-20.09,2.95-30.35-.14-2.33,1.44-2.72,2.87-3.29,1.68-.67,3.54-.89,5.21-1.59,7.58-3.15,10.08-9.25,6.3-16.57-2.72-5.28-6.08-10.24-9.33-15.23-3.9-6-5.87-12.37-5.49-19.63.45-8.6-.95-17.09-3.59-25.24-1.07-3.3-.58-4.84,2.15-6.93,9.12-6.97,14.51-16.45,14.78-27.9.61-25.72-19.48-42.21-46.21-35.7-4.52,1.1-8.54,1.05-12.88-.65-21.87-8.57-44.3-10.64-67-4.11-15.63,4.5-27.72,13.86-34.55,29.1-1.01,2.24-2.35,3.76-4.52,4.97-15.24,8.47-23.35,21.89-26.37,38.72-3.97,22.13,1.42,42.58,12.24,61.64,7.54,13.29,15.56,26.32,22.78,39.8,1.66,3.1,3.63,6.04,7.03,7.5,1.46.63,1.79,1.54,1.87,3.05.43,8.31-1.1,16.52-1.13,24.81,0,1.08-.31,2.14-1.33,2.47-5.62,1.83-7.71,6.74-9.56,11.48-4.82,12.39-13.02,20.75-25.57,25.83-11.57,4.69-22.55,10.92-33.56,16.89-19.74,10.72-30.79,27.38-32.87,49.86-.03.3-.21.59-.33.88Z"/>
  <path class="cls-5" d="m581.95,665.66c0,2.32.32,4.71-.11,6.95-.27,1.43-.72,3.38-2.64,3.86-2.1.53-2.88-1.08-3.75-2.53-6.04-10.15-18-10.78-25.39-6.24-5.96,3.67-8.4,10-9,16.8-.87,9.8,2.61,18.13,9.45,25.07,1.37,1.39,1.68,2.53.89,4.37-3.27,7.6-7.48,14.5-14.2,19.54-5.1,3.82-8.72,3.09-11.63-2.5-6.3-12.1-13.26-23.81-20.25-35.51-8.98-15.02-15.35-31.19-15.06-48.86.33-20.36,8.14-37.16,27.29-46.89,1.8-.92,2.86-2.13,3.54-3.88,4.93-12.58,13.84-20.68,26.44-25.76,6.99-2.82,13.96-3.74,21.21-4.52,16.67-1.8,32.63,1.29,47.92,7.49,7.68,3.12,14.61-.05,21.76-.81,13.24-1.4,25.18,6.4,28.29,18.69,4.33,17.16-3.37,31.14-20.04,37.52-7.66,2.93-15.67,4.31-23.89,5.25-6.93.79-14.06-.56-20.68,1.27-14.04,3.88-18.88,12.18-20.15,26.69-.12,1.32-.02,2.66-.02,3.99.01,0,.03,0,.04,0Z"/>
  <path class="cls-5" d="m631.46,762.42c-14.9-.27-29.18-3.11-42.29-10.5-3.3-1.86-5.05-5.35-6.34-8.67-1.39-3.57-4.71-3.68-6.68-3.13-2.5.69-1.51,4.06-1.13,6.23.3,1.69,1.58,3.05,2.89,4.4,6.69,6.91,14.04,12.71,23.64,14.85,3.45.77,4.11,3.04,3.28,5.63-1.84,5.74-1.13,11.71-1.7,17.51-1.02,10.51-4.52,19.55-11.36,27.44-1.43,1.64-2.97,1.82-4.87.77-3.8-2.09-7.59-4.13-11.2-6.61-11.27-7.73-22.78-15.08-33.67-23.38-7.01-5.34-9.43-11.19-7.3-20.05,1.6-6.63.94-13.81,1.18-20.75.07-1.88.03-3.4,2.14-4.47,9.24-4.65,14.78-12.66,18.97-21.74,1.28-2.78,2.64-4.68,6.14-4.66,2.19.01,4.78-.68,4.72-3.85-.07-3.14-2.55-2.47-4.59-3.1-13.95-4.3-17.97-22.35-11.42-31.53,4.26-5.97,12.22-5.7,16.4.38,1.2,1.75,2.36,3.77,2.74,5.81.94,5.03,3.7,5.01,7.51,3.4,6.98-2.95,11.24-9.35,11.44-16.96.11-4.12-.54-8.26.49-12.38,2.57-10.26,8.21-15.4,18.73-15.4,13.48,0,26.76-.75,39.46-5.72,2.75-1.07,2.75,1.11,3.02,2.52,1.39,7.45,3.17,14.89,2.7,22.53-.54,8.66,2.14,16.3,6.53,23.53,2.93,4.83,5.78,9.71,8.73,14.53,2.22,3.63,1.08,5.91-2.7,7.25-.47.17-.95.32-1.43.45-8.46,2.15-10.72,3.7-10.75,15.84-.02,10.38-1.58,20.59-4.1,30.62-1.36,5.39-6.51,9.04-12.21,9.18-2.33.06-4.66,0-6.99,0Z"/>
  <path class="cls-5" d="m514.27,818.3c14.06,14.24,28.54,28.03,44.34,40.35,3.77,2.94,7.08,2.8,9.92-.88,6.4-8.3,12.61-16.75,18.79-25.22,1.85-2.54,3.15-3.76,5.64-.44,5.39,7.18,11.17,14.06,16.69,21.14,1.76,2.26,3.64,3.98,6.7,3.09,2.9-.85,2.98-3.44,3.76-5.86,2.43-7.53,2.55-15.54,5.46-23.04,1.38-3.57.57-8.09,1.24-12.17.4-2.41.79-3.32,3.29-2.06,10.35,5.23,21.57,8.35,32.06,13.34,4.79,2.28,10.32,3.47,15.14,5.99,11.44,5.98,20.04,14.15,22.71,27.72,1.01,5.14,2.74,10.32,4.37,15.4.94,2.92.05,3.44-2.61,3.4-6.15-.09-12.31.03-18.46.02-82.32-.02-164.65-.07-246.97-.02-3.6,0-5.25-.12-4.43-4.71,3.12-17.66,12.14-31.04,27.71-39.84,14.35-8.11,29.3-15.03,44.11-22.25,3.07-.01,5.8.34,6.95,3.96.44,1.38,1.91,2.2,3.59,2.06Z"/>
  <path class="cls-5" d="m526.09,781.17c16.3,19.53,38.32,30.48,58.58,43.55-6.2,7.84-12.64,15.4-18.36,23.47-2.53,3.57-4.44,3.86-7.41,1.26-14.84-13.04-29.87-25.89-42.02-41.65-1.72-2.23-2.17-4.12-.78-6.74,3.47-6.55,6.67-13.23,9.99-19.89Z"/>
  <path class="cls-5" d="m611.3,795.29c2.7,3.91,5.63,7.68,8,11.78,1.47,2.53-.26,5.47-.25,8.14.01,9.03-3.58,17.22-5.13,25.86-.13.75.35,1.75-.7,2.1-1.14.39-1.84-.41-2.48-1.2-4.6-5.67-9.17-11.36-13.81-16.99-.9-1.09-1.03-1.91.04-2.96,7.4-7.3,11.59-16.24,12.99-26.61.45-.04.89-.08,1.34-.12Z"/>
  <path class="cls-6" d="m514.27,818.3c-1.68.14-3.15-.68-3.59-2.06-1.15-3.62-3.89-3.97-6.95-3.96,3.08-2.72,5.64-2.77,7.41,1.41.74,1.74,3.37,2.19,3.13,4.61Z"/>
</svg>