<?xml version="1.0" encoding="UTF-8"?>
<svg id="Layer_1" data-name="Layer 1" xmlns="http://www.w3.org/2000/svg" viewBox="0 0 1197.98 1414.39">
  <defs>
    <style>
      .cls-1 {
        fill: #2a3949;
      }

      .cls-2 {
        fill: #7c49ec;
      }
    </style>
  </defs>
  <path class="cls-1" d="m419.48,790.53c0-.67,0-1.33,0-2,.1-1.82.29-3.64.29-5.45,0-124.05,0-248.11-.02-372.16,0-10.96-.15-21.93-.23-32.89,0-.67,0-1.33-.01-2,.08-3.28.17-6.56.25-9.84.11-4.53,2.04-7.82,6.43-9.44,2.11.09,4.25.53,6.27-.51,15.6,0,31.2,0,46.81,0,2.71,1,5.42.99,8.12,0,5.95,0,11.89,0,17.84,0,1.05.83,2.09.8,3.13-.01,16.27,0,32.54,0,48.81,0,5.37.97,10.74.97,16.11,0,51.89,0,103.79-.01,155.68-.02,3.74,1.05,7.53.74,11.31.3,5.83,2.36,7.76,6.7,7.7,12.91-.24,22.74-.11,45.48-.08,68.22.03,19.42.12,38.83.19,58.25,0,.67,0,1.33,0,2-.07,8.27-.34,16.55-.11,24.81.12,4.12-.83,7.42-4.03,10.02-6.68.55-8.92-1.29-9.07-7.46-.03-1.13-.11-2.26-.17-3.4,0-.66,0-1.33,0-1.99,0-23.31-.01-46.62-.02-69.92,0-.66,0-1.33,0-1.99v-3c0-1.66-.01-3.33-.02-4.99v-6c0-.66,0-1.33,0-1.99,0-2,.01-4,.02-6,0-1.33,0-2.66,0-3.99,0-4,0-8,0-11.99,0-6.66,0-13.31,0-19.97,0-1.67,0-3.33,0-5-.28-3.99-.57-7.99-.85-11.98,2.31-4.47-.9-3.7-3.45-3.7-60.9,0-121.79-.03-182.69,0-24.45.01-48.9.16-73.35.25-1.33,0-2.66-.02-4-.02-11.13-.08-22.26,0-33.38-.33-3.61-.11-4.45,1.04-4.42,4.46.14,22.45.06,44.9.11,67.35.03,17.62.14,35.24.21,52.86-.01,1.33-.03,2.65-.04,3.98-.44,15.65-.32,31.3.03,46.94,0,1,0,2.01,0,3.01,0,2-.02,4-.03,5.99,0,2.67,0,5.34.01,8.01-.01,18.63-.02,37.27-.04,55.9,0,.67,0,1.34,0,2.01-.05,12.23-.11,24.47-.15,36.7,0,.95-.2,2.07,1.21,2.3.05.12.17.26.14.35-.07.22-.21.42-.32.63-2.05,1.48-1,3.64-1,5.44-.08,83.17-.05,166.34-.22,249.51,0,4.67.9,6.1,5.85,6.08,44.91-.18,89.81-.05,134.72-.01,1.79,2.59,3.58,2.58,5.37.01,49.27-.03,98.53-.06,147.8-.08,9.16,0,9.16.03,8.55-9.27,0-16.65-.01-33.29-.02-49.94,0-.33,0-.67,0-1,0-7.99-.02-15.98-.02-23.97,0-1,0-2,0-3,0-2,0-3.99.01-5.99,0-3,0-5.99.01-8.99,0-3.66-.02-7.32-.02-10.99,0-.67,0-1.33,0-2,.14-14.2.29-28.4.43-42.6.98-1.07,1.96-2.14,2.93-3.21,7.51-.39,8.69.41,10.07,6.87,0,.32,0,.64,0,.97-.01,12.99-.03,25.98-.04,38.97,0,26.3,0,52.6,0,78.91,0,1.33,0,2.66,0,4-.01,6.99-.02,13.98-.04,20.98v3c0,2.66-.01,5.33-.02,7.99,0,.67,0,1.33,0,2-1.17,7.6-3.1,10.61-14.07,10.61-98.95-.06-197.89-.09-296.84-.14-3.16,0-6.33-.01-9.47-.27-4.15-.33-6.71-2.7-7.48-6.78-.4-2.11-.47-4.27-.69-6.41.44-3.66.45-7.32,0-10.99.03-5.07.05-10.13.08-15.2l.2-.28-.19-.29c-.03-.4-.06-.81-.09-1.21.46-10.99.52-21.97-.02-32.96.41-2.33.41-4.66,0-6.99.44-20.64.49-41.28.01-61.93Z"/>
  <path class="cls-2" d="m885.05,641.71c0,1.66-.01,3.33-.02,4.99-.07,5.65-.02,11.31-.25,16.95-.35,8.79-7.09,17.37-18.06,18.92-9.93,1.41-19.72-8.13-19.83-19.02-.14-14.14-.03-28.28-.1-42.43,0-1.32.83-3.01-1.01-3.93-.88,1.02-1.68,2.06-2.59,2.97-23.74,23.78-47.52,47.53-71.24,71.32-14.09,14.14-28.14,28.31-42.15,42.54-5.19,5.26-11.41,8.63-18.69,7.33-7.26-1.3-13-6.13-14.68-13.39-1.57-6.78-.87-13.63,4.83-19.29,38.35-38.06,76.56-76.27,114.78-114.47.83-.83,2.45-1.24,2.05-3.3-1.14,0-2.26,0-3.39,0-14.14,0-28.29-.22-42.42.07-7.82.16-15.59-6.21-17.8-14.05-1.54-5.46-.77-13.83,6.67-19.27,3.14-2.29,6.69-3.09,9.83-4.99,15-.02,30-.04,45-.07,1.62,0,3.25,0,4.87,0,4.37,0,8.73,0,13.1,0,.96,0,1.92,0,2.89,0,3.37,0,6.74,0,10.11,0,2.29,0,4.57,0,6.86,0,1.37,0,2.73,0,4.1,0l.46.12.46-.12c4.7,0,9.39-.01,14.09-.02,9.69.65,11.22,2.2,12.23,12.34-.23,10.57-.68,21.14,0,31.71-.45,15.02-.44,30.04-.09,45.06Z"/>
  <path class="cls-1" d="m667.23,688.65c0,3.66,0,7.32,0,10.99,0,.67,0,1.33,0,2,0,5.99,0,11.99,0,17.98.01,16.42.03,32.84.04,49.25,0,5.44-.01,10.88-.02,16.33,0,17.43,0,34.85,0,52.28,0,4,0,7.99.01,11.99-.01,8.66-.02,17.31-.03,25.97,0,2.66,0,5.33.01,7.99v2c0,1-.01,2-.02,3-.23,2.61-.45,5.22-.68,7.83-1.45,1.92-2.94,3.79-5.45,4.39-5.46.28-10.53-2.3-15.96-2.23-2.12-1.41-4.59-1.56-7-1.93-.34,0-.68,0-1.02-.01l-.78-.4.06.18c-.16-.72-.69-.68-1.24-.61-.34-.05-.69-.1-1.03-.14-1.97-.43-3.94-.87-5.91-1.3-.18-.57-.53-.8-1.12-.54-1.32-.02-2.64-.04-3.96-.06-.99-.41-1.98-.82-2.98-1.23-.48-.9-1.28-.72-2.06-.6-.28-.24-.59-.29-.93-.14-.65-.13-1.31-.26-1.96-.39-6.94-1.52-13.62-4-20.73-4.98-5.82-.8-11.37-3.15-17.28-3.69-.3-.09-.61-.14-.92-.15-.17-.5-.39-.94-1.05-.8-.95-.2-1.9-.39-2.85-.59-11.65-2.79-23.23-5.95-34.98-8.25-8.41-1.65-16.46-4.87-25.1-5.39-.64-1.51-2-.66-3.02-.93-5.39-2.47-11.28-2.72-16.98-3.8-.31-.13-.64-.19-.97-.2-8.59-3.26-17.76-4.18-26.55-6.65-7.97-2.24-8.99-3.28-9.59-11.32,0-24.3,0-48.61,0-72.91,0-1.33.01-2.66.02-3.99,0-3.33,0-6.66,0-9.99,0-4,0-7.99,0-11.99,0-12.32-.02-24.64-.03-36.96v-3.99c.06-14.09.19-28.18.19-42.26-.01-24.87-.1-49.73-.16-74.6,0-2,0-3.99,0-5.99,0-7.32,0-14.65.01-21.97,0-3.66,0-7.32,0-10.99,0-2.33,0-4.66,0-6.99,0-2.66,0-5.33,0-7.99,0-1,0-2,0-3,0-1,0-2,.01-3,0-19.31,0-38.62,0-57.93,0-3.33-.01-6.66-.02-9.99,0-1,0-2,0-3,0-1.33,0-2.66,0-4,0-4.33,0-8.66,0-12.98-.02-4.33-.03-8.66-.05-12.98,1.62-6.24,4.62-8.35,13.27-8.98,12.64-.93,25.03-3.53,37.55-5.28,14.77-2.06,29.51-4.4,44.25-6.74,13.86-2.2,27.66-4.69,41.53-6.78,11.31-1.71,22.53-4.09,34.03-4.46,1.15-.04,2.27-.99,3.41-1.53,1.96-.49,4.2.41,5.93-1.19,1.33-.07,2.66-.14,4-.21,2.19.84,3.93-1.04,5.99-.99,2.66-.28,5.31-.56,7.97-.85,3.33-.44,6.68-2.39,9.98.14.98,1.49,2.21,2.69,3.87,3.38.1,8.17.2,16.34.3,24.5,0,1.66,0,3.33,0,4.99-.02,29.63-.04,59.26-.05,88.89.02,8.99.03,17.98.05,26.97v2c0,6.99,0,13.98-.01,20.98,0,1.66,0,3.33,0,4.99,0,1,0,2,0,3,.01,4.33.02,8.66.03,12.98,0,3.33,0,6.66,0,9.99,0,6.99,0,13.98,0,20.97,0,.79,0,1.57,0,2.36,0,.4,0,.79,0,1.19,0,4.58-.02,9.16-.03,13.74,0,3.56,0,7.12,0,10.68,0,6.66,0,13.32,0,19.98,0,2.66,0,5.33,0,7.99,0,1,0,2,0,3v2c0,4.66,0,9.32,0,13.98Zm-198.62-195.76c0,1.66,0,3.33,0,4.99,0,30.63,0,61.26,0,91.89,0,1,0,2,0,3,0,2,0,4,0,6,0,.66,0,1.33,0,1.99,0,19.64-.01,39.29-.02,58.93,0,1.33,0,2.66,0,3.99v4c0,2.33,0,4.66,0,6.99-.07,15.09-.2,30.18-.19,45.28.02,30.52.12,61.04.19,91.56,0,1.33-.02,2.66-.03,3.99-.06,8.15-.05,16.29-.23,24.44-.06,2.46.8,3.24,3.21,3.9,7.39,2.02,14.87,3.61,22.33,5.34,27.34,6.35,54.65,12.8,81.97,19.24,14.05,3.31,28.05,6.85,42.15,9.93,9.35,2.04,18.49,5.04,28.02,6.26,2.3.76,4.47,2.11,7.06,1.56,1.3-.1.87-.98.77-1.72-.01-5.02-.02-10.04-.03-15.07,0-.97,0-1.93,0-2.9-.02-10.34-.04-20.68-.06-31.02,0-1.33.01-2.67.02-4,.08-9.62.24-19.23.23-28.85-.03-30.68-.11-61.37-.18-92.05,0-1.96-.01-3.93-.02-5.89.06-5.64.18-11.27.17-16.91-.04-31.02-.11-62.04-.17-93.07,0-6.29-.01-12.58-.02-18.87,0-3.03,0-6.07,0-9.1,0-11.62.02-23.23.02-34.85,0-3.03,0-6.06,0-9.08,0-.64,0-1.28,0-1.91-.01-7.36-.03-14.72-.04-22.07l.03-15.87c0-17.01,0-34.03,0-51.04,0-2.96.01-5.93.02-8.89-.01-5.01-.02-10.02-.03-15.03,1.21-4.5-.58-5.77-4.96-5.05-9.16,1.5-18.46,2.25-27.53,4.17-23.87,5.05-48.16,7.51-72.11,12-.66.06-1.33.12-1.99.17-10.15,1.56-20.3,3.11-30.45,4.68-14.08,2.17-28.1,4.79-42.25,6.34-6.48.71-6.9,3.75-5.91,8.65,0,2.33,0,4.66,0,6.99,0,1,0,2,0,3,0,13.65-.02,27.3-.02,40.95,0,1,0,2,0,3Z"/>
</svg>