<?xml version="1.0" encoding="UTF-8"?>
<svg id="Layer_1" data-name="Layer 1" xmlns="http://www.w3.org/2000/svg" viewBox="0 0 1865.93 1034.03">
  <defs>
    <style>
      .cls-1 {
        fill: #526274;
      }

      .cls-2 {
        fill: #9164f9;
      }
    </style>
  </defs>
  <path class="cls-1" d="m678.64,505.1c2.28-5.34,1.08-11.25,3.34-16.76,5.78-14.1,14.47-25.02,28.2-32.43,9.94-5.37,20.3-7.67,31.08-7.22,23.53.99,42.54,12.79,52.25,35.98,1.48,3.53,2.09,7.53,2.52,11.37.38,3.38,1.85,5.3,4.9,6.62,20.66,8.92,41.29,17.92,61.91,26.93,16.88,7.38,33.76,14.74,50.57,22.27,2.52,1.13,4.1,1.11,6.04-.97,4.1-4.37,9.32-7.31,14.43-10.34,10.57-6.27,21.96-9,34.24-7.98,2.14.18,4.31-.03,6.48-.06,2.54,1.04,5.01,2.3,7.62,3.09,11.9,3.59,21.7,10.11,29.37,19.97,2.19,2.81,3.42,6.45,6.71,8.38-.35,4.68,2.67,8.36,3.8,12.64,9.33,35.18-18.09,68.02-49.96,73.24-25.36,4.15-55.98-13.68-63.22-39.76-.87-3.15-2.69-4.57-5.39-5.84-15.93-7.47-32.28-14.01-48.23-21.46-24.15-11.28-48.68-21.74-73.05-32.55-2.31-1.03-4.24-.69-6.39.87-7.74,5.6-15.93,10.34-25.33,12.8-6.27,1.64-12.45,2.68-18.87,1.01-3.22-.84-5.86-.28-8.36,2.56-15.03,17.06-30.55,33.71-45.39,50.93-25.59,29.69-52.43,58.27-78.22,87.77-15.3,17.5-31.06,34.59-46.56,51.92-10.3,11.52-20.46,23.15-30.72,34.71-10.4,11.73-20.81,23.44-31.26,35.13-3.76,4.21-7.66,8.3-11.42,12.51-1.68,1.88-2.73,4.05-1.96,6.69,7.55,25.97-4.19,50.64-23.42,64.2-12.14,8.55-25.29,11.93-40,10.78-12.1-.95-21.89-5.67-31.3-13.52-10.26-8.56-16.41-19.13-19.71-31.3-4.57-16.84-1.37-32.84,8.32-47.54,8.1-12.3,19.07-20.41,33.23-24.39,10.45-2.94,20.98-2.61,31.43-.59,3.04.59,4.66-.36,6.44-2.16,12.23-12.36,22.71-26.26,34.52-38.99,8.34-8.99,16.6-18.05,24.77-27.19,13.35-14.93,26.41-30.13,39.96-44.89,17.34-18.9,33.62-38.72,51.1-57.5,14.12-15.17,27.55-30.97,41.36-46.43,13.91-15.57,27.92-31.04,41.87-46.57,2.09-2.32,4.2-4.63,6.12-7.09,1.42-1.83,2.2-3.61.89-6.26-3.15-6.38-3.09-13.63-4.68-20.44,1.72-.74,1.75-1.46-.03-2.13Zm320.3,86c.02-19.54-14.51-33.59-33.44-34.79-17.07-1.08-36.63,17.16-36.96,35.25-.32,18.07,19.09,33.34,34.02,33.97,20.5.87,38.09-17.03,36.37-34.44Zm-577.23,237.33c-18.93.02-35.17,16.04-34.98,34.85.19,18.75,16.08,33.58,34.39,33.6,19.65.02,34.69-14.38,35.02-34.53.3-18.7-15.48-33.94-34.43-33.92Zm351.26-321.53c1.83-18.96-17.63-34.75-33.84-34.24-20.85.66-35.05,15.45-35.61,34.52-.49,16.98,16.7,34.67,33.73,33.95,17.96-.76,36.18-13.81,35.72-34.23Z"/>
  <path class="cls-2" d="m1018.3,563.96c-3.29-1.93-4.52-5.56-6.71-8.38-7.68-9.87-17.47-16.38-29.37-19.97-2.61-.79-5.08-2.05-7.62-3.09,5.81-8.55,13.16-15.82,19.94-23.54,32.6-37.12,65.37-74.1,98.11-111.1,29.44-33.27,59.04-66.4,88.35-99.78,21.28-24.24,43.05-48.05,63.47-73.04,9.76-11.93,20.3-23.22,30.54-34.77,1.44-1.62,2.86-3.21,3.8-5.18,5.58-2.01,11.36-3.4,17.22-4.06,15.3-1.72,32.33,9.41,31.75,27.01-.1,2.98.14,5.97.22,8.96-21.06,23.94-42.08,47.93-63.21,71.81-22.49,25.42-45.11,50.73-67.63,76.13-27.6,31.12-55.1,62.32-82.75,93.38-20.91,23.48-42.03,46.77-62.98,70.21-8.93,9.99-17.62,20.21-26.55,30.2-1.84,2.06-3.95,4.01-6.57,5.21Z"/>
  <path class="cls-1" d="m1328,217.02c-.08-2.99-.32-5.98-.22-8.96.57-17.6-16.45-28.73-31.75-27.01-5.86.66-11.63,2.05-17.22,4.06-10.16-.35-19.79,2.57-29.54,4.82-9.1,2.11-18.04,5.09-27.55,5.04-9.63-.06-18.44-6.02-22.18-15.74-3.67-9.54-2.3-18.46,4.08-26.7,6.86-8.86,17.06-10.19,26.84-12.53,22.24-5.31,44.49-10.58,66.74-15.8,17.37-4.07,34.64-8.79,52.19-11.87,20.36-3.57,35.98,8.38,35.85,29.23-.09,13.48-.29,26.97-.47,40.45-.37,27.84-.29,55.7-1.34,83.52-.59,15.7-14.14,25.38-25.65,26.52-16.48,1.63-29.72-12.37-29.4-25.69.35-14.48.16-28.97.14-43.45,0-1.96.47-4-.54-5.88Z"/>
  <path class="cls-2" d="m678.64,505.1c1.79.68,1.75,1.39.03,2.13-.55-.71-.53-1.42-.03-2.13Z"/>
  <path class="cls-2" d="m998.94,591.1c1.72,17.4-15.87,35.3-36.37,34.44-14.94-.63-34.34-15.91-34.02-33.97.32-18.09,19.88-36.33,36.96-35.25,18.93,1.2,33.46,15.24,33.44,34.79Z"/>
  <path class="cls-2" d="m421.71,828.43c18.96-.02,34.74,15.22,34.43,33.92-.33,20.15-15.38,34.55-35.02,34.53-18.32-.02-34.21-14.84-34.39-33.6-.19-18.81,16.05-34.83,34.98-34.85Z"/>
  <path class="cls-2" d="m772.97,506.91c.46,20.42-17.76,33.47-35.72,34.23-17.03.72-34.22-16.97-33.73-33.95.55-19.07,14.75-33.86,35.61-34.52,16.21-.51,35.67,15.29,33.84,34.24Z"/>
</svg>