<?xml version="1.0" encoding="UTF-8"?>
<svg id="Layer_1" data-name="Layer 1" xmlns="http://www.w3.org/2000/svg" viewBox="0 0 1707.72 1438.17">
  <defs>
    <style>
      .cls-1 {
        fill: #424f5a;
      }

      .cls-2 {
        fill: #3f0b8f;
      }
    </style>
  </defs>
  <path class="cls-1" d="m1148.45,882.62c-35.63,0-71.27-.04-106.9.03-10.31.02-20.47-1.1-30.54-3.18-1.1-.23-2.17-.64-3.21-1.06-6.36-2.6-6.49-3.35-1.63-8.11,24.01-23.54,48.07-47.04,71.99-70.68,7.71-7.63,13.89-16.42,16.92-26.99.83-2.9,2.21-3.5,4.81-3.5,36.8.07,73.6.12,110.39.1,18.81-.01,37.63-.2,56.44-.25,11.12-.03,20.91-4.7,30.42-9.47,10.08-5.05,18.65-12.45,26.04-21.03,12.28-14.25,18.88-30.89,20.11-49.63,1.14-17.46-2.9-34.05-11.26-49.08-7.29-13.09-18.15-23.35-30.74-31.92-14.74-10.05-31.09-13.59-48.33-13.64-71.93-.2-143.86-.05-215.79-.13-18.88-.02-35.56,6.56-51.04,16.64-3.54,2.31-6.29,5.87-9.3,8.95-7.54,7.72-15.74,14.75-23.37,22.41-6.74,6.77-13.69,13.29-19.73,20.7-7.26,8.91-10.24,19.31-9.78,30.65.14,3.33-.84,5.69-3.17,7.89-6.04,5.72-11.94,11.61-17.95,17.36-12.47,11.94-27.51,16.36-44.54,15.69-28.22-1.1-45.61-25.87-45.68-48.11-.08-22.18,5.77-42.65,16.06-62.1,1.28-2.42,3.57-4.61,2.8-8-.42-1.85,2.24-.91,3.1-2.51,8.77-16.46,23.39-27.86,36.03-40.95,11.9-12.33,23.9-24.6,36.15-36.55,9.76-9.51,20.61-17.9,32.41-25.19,20.62-12.75,42.94-20.29,66.3-25.71,13.64-3.16,27.41-3.45,41.24-3.46,43.96-.01,87.92.07,131.87.12,14,.02,28.03-.43,42.01.19,13.21.59,26.36-.91,39.54-.24,21.37,1.08,42.68,3.22,62.81,10.78,14.3,5.37,28.27,11.8,41.08,20.45,2.89,1.95,6.28,3.16,9.19,5.41,23.33,18.05,43.02,39.37,57.77,64.95,6.91,11.98,13.1,24.35,17.34,37.69,3.81,12,7.54,24.16,8.55,36.52,1.06,12.96,2.14,26.04.67,39.26-1.55,13.93-3.45,27.79-7.27,41.17-8.33,29.19-22.7,55.3-43.29,77.7-19.89,21.63-42.84,39.33-70.08,50.82-14.81,6.25-29.98,11.13-46.13,13.48-29.43,4.29-58.93,1.75-88.39,2.48-17.97.44-35.96.08-53.95.08v-.06Z"/>
  <path class="cls-1" d="m844.93,882.89c-11.64.09-23.29.27-34.93.27-69.92-.02-139.85.15-209.77-.28-17.6-.11-34.74-4.25-51.36-10.32-23.29-8.5-44.42-20.77-63.54-36.43-14.16-11.6-26.3-25.1-36.64-40.29-9.95-14.63-18.16-30.08-24.16-46.69-4.74-13.13-7.72-26.67-9.56-40.54-1.75-13.17-1.99-26.42-1.42-39.51.78-17.85,4.99-35.32,10.96-52.26,9.05-25.69,23.14-48.64,41.07-68.75,13.34-14.96,28.81-28.06,46.47-38.27,19.74-11.41,40.75-19.12,62.87-24.41,11.08-2.65,22.18-3.46,33.45-3.46,81.75.02,163.49-.05,245.24.1,15.39.03,30.17,3.71,44.28,9.82,5.35,2.32,5.21,2.87.92,6.87-30.54,28.53-60.43,57.74-89.44,87.81-5.66,5.87-10.84,7.96-18.73,7.92-57.6-.32-115.21-.25-172.81-.11-32.22.08-56.68,14.72-74.87,40.77-9.79,14.02-15.34,29.79-15.53,46.61-.39,35.61,17.59,60.75,47.76,77.99,11.96,6.84,24.86,9.68,38.72,9.65,75.25-.17,150.51-.04,225.76,0,1.47,0,2.94.28,4.41.43.7,3.25.81,6.54.81,9.87-.02,34.41.02,68.83.04,103.24Z"/>
  <path class="cls-2" d="m844.93,882.89c-.02-34.41-.06-68.83-.04-103.24,0-3.33-.11-6.62-.81-9.87,9.96-.06,19.93.24,29.86-.27,11.75-.61,22.63-4.63,32.89-10.22,7.74-4.22,14.33-9.85,20.83-15.91,7.43-6.93,14.82-13.93,22.27-20.85,9.93-9.22,15.09-20.44,13.67-34.16-.49-4.71.89-8.15,4.41-11.44,12.29-11.48,24.22-23.33,36.43-34.9,9.32-8.83,20.48-12.87,33.39-12.88,12.58,0,21.43,5.8,27.61,16.19,5.97,10.04,8.9,21.11,11.42,32.49,3.72,16.79.21,32.79-3.6,48.77-6.52,27.4-20.67,50.47-41.02,69.87-14.68,14-28.85,28.53-43.8,42.23-6.9,6.33-14.83,11.57-23,16.4-15.92,9.41-32.71,16.55-50.44,21.8-23,6.81-46.49,6.73-70.08,5.97Z"/>
</svg>