<?xml version="1.0" encoding="UTF-8"?>
<svg id="Layer_1" data-name="Layer 1" xmlns="http://www.w3.org/2000/svg" viewBox="0 0 1734.92 1569.91">
  <defs>
    <style>
      .cls-1 {
        fill: #1e262f;
      }

      .cls-2 {
        fill: #6751ab;
      }
    </style>
  </defs>
  <path class="cls-1" d="m759.61,1079.67c-5.42,1.29-10.56-.97-15.3-2.46-20.88-6.57-42.12-11.88-62.33-20.78-24.71-10.87-48.48-23.18-71.05-37.95-16.54-10.82-32.69-22.38-47.15-35.65-14.83-13.6-29.38-27.7-42.25-43.43-14.21-17.39-27.69-35.2-39.05-54.57-11.35-19.35-21.94-38.97-30.19-60.01-5.18-13.21-8.8-26.93-14.35-40-3.5-8.24-3.31-17.64-5.37-26.43-.99-4.2-3-8.03-3.56-12.59-3.58-28.98-6.21-57.97-5.4-87.19.23-8.3,1.16-16.58,1.77-24.86,1.27-1,1.6-2.07.23-3.26.58-4.9,1.16-9.81,1.75-14.7,1.31-.97,1.71-2.04.32-3.29.7-4.9,1.41-9.8,2.11-14.69.19-.1.39-.21.58-.31-.23-.32-.46-.65-.7-.97,8.16-42.07,21.92-82.01,42.8-119.66,14.43-26.01,31.16-50.29,49.24-73.76,2-2.6,4.75-4.61,7-7.03,15.99-17.14,32.41-33.89,50.64-48.61,15.9-12.84,32.96-24.29,50.64-34.56,18.2-10.57,36.88-20.25,56.66-27.81,21.47-8.21,43.24-15.34,65.64-20.38,3.14-.71,5.9-3.08,9.35-2.36,3.81.53,7.54.57,10.86-1.85.98-.11,1.96-.22,2.93-.33,3.87.59,7.65.58,11.07-1.72,2.17-.3,4.34-.6,6.5-.9,2.68,1.07,5.19.79,7.51-.97,1.02-.08,2.04-.16,3.05-.24,3.74.45,7.5,1.14,11.03-.94,18.92-1.38,37.84-1.54,56.75.04,2.88,2,6,1.42,9.13.86,2.3.17,4.61.35,6.91.52.57,1.21,1.59,2.82,2.71,2.44,5.05-1.73,9.78.85,14.68.69,19.6,2.71,38.93,6.7,57.69,13.03,14.35,4.84,28.71,9.78,42.72,15.51,12.07,4.94,24.29,10.05,35.26,16.97,11.77,7.42,24.64,12.99,35.66,21.64,11.16,8.76,22.95,16.76,33.86,25.82,11.43,9.5,22.34,19.56,31.94,31.13,6.3,7.59,13.63,14.37,19.89,22.12,9.91,12.26,19.5,24.57,27.85,38.1,4.87,7.9,9.18,16.36,14.69,24.05,6.04,8.43,9.94,18.49,14.22,28.08,9.48,21.2,15.89,43.51,23.24,65.48.78,2.34.62,4.52.88,6.77.98,4.01.32,8.57,3.86,11.74,1.32,1.84,1.64,3.97,1.77,6.15-1.53,1.46-.71,2.62.49,3.72.44,2.08.89,4.15,1.33,6.22-1.53,1.38-.68,2.37.55,3.3.55,2.9,1.1,5.8,1.65,8.69-1.41,1.29-.92,2.35.39,3.32.52,3.57,1.03,7.14,1.55,10.7-.63,3.24-.83,9.89-.33,11.3,2.34,2.8,1.86,6.3,2.08,9.51,1.28,18.6,1.69,37.28-.17,55.8-.89,8.87-1.31,17.83-2.77,26.68-1.44,8.72-4.53,17.09-5.85,25.69-2.57,16.68-7.2,32.72-12.54,48.6-7.45,22.13-15.96,43.87-27.16,64.4-6.41,11.76-13.14,23.41-20.78,34.38-3.11,4.46-1.69,6.36,1.05,9.07,24.51,24.29,49.11,48.47,73.52,72.86,25.63,25.61,50.99,51.49,76.61,77.11,9.56,9.56,19.64,18.6,29.25,28.11,9.14,9.03,18.04,18.47,24.03,29.89,4.94,9.42,9.71,19.11,11.75,29.76-.13.91.32,1.4,1.17,1.6,3.16,16.01,4.37,32.03.48,48.1-1.27,1.4-1.95,2.91-.84,4.74-6.68,22.3-16.4,42.8-34.97,57.87-15.02,12.19-31.77,21.08-50.7,25.55-3.23-.39-6.48-.89-9.3,1.41-8.83,1.03-17.65.87-26.47-.04-3.52-2.36-7.4-1.87-11.28-1.4-17.32-3.35-32.12-11.99-46.51-21.7-4.55-3.07-7.53-7.42-11.13-11.23-14.14-14.96-30.54-27.53-44.61-42.53-48.42-51.61-99.52-100.57-149.51-150.62-7.03-7.04-7.03-6.85-16.04-3.1-21.87,9.11-44.15,17.23-67.17,22.68-10.36,2.45-20.75,5.41-31.45,6.42-.47-.94-.97-1.04-1.51-.05,0,0-.86.1-.85.1-13.05.69-26.1,1.44-38.97,3.96-14.2.73-28.4.72-42.6-.03-7.54-2.69-15.36-1.8-23.11-1.79,0,0-.9-.09-.9-.09-3.05-1.7-6.13-2.95-9.34-.35-2.81,1.7-4.44-1.15-6.66-1.73-3.26-2.62-7.11-2.04-10.87-1.98h-.51s-.48-.18-.47-.18c-2.72-2.5-5.98-2.03-9.23-1.65Zm127.77-42.2c3.17.52,6.31.85,8.98-1.53,16.83-2.57,33.24-6.83,49.54-11.72,20.36-6.11,39.9-13.99,58.43-24.43,5.73-3.23,11.55-4.46,18.49-2.36,5.47,1.66,9.33,4.75,13.02,8.43,27.96,27.88,55.8,55.87,83.73,83.77,28.98,28.93,58.04,57.79,87.03,86.7,14.62,14.57,29.11,29.27,43.78,43.79,8.47,8.38,18.12,15.56,30.11,16.97,15.13,1.78,29.8.11,43.95-7.38,23.52-12.46,33.83-32.33,34.23-57.67.3-18.74-8.3-34.35-21.01-47.91-20.92-22.32-44.4-42.01-65.64-64-7.13-7.38-13.56-15.38-20.89-22.61-38.88-38.33-77.46-76.95-116.22-115.4-5.23-5.19-8.33-11.01-7.53-18.53,1.02-.29,1.21-.87.61-1.73,1.02-5.1,4.3-8.93,7.32-12.88,11.62-15.15,22.31-31.09,30.39-48.25,11.22-23.83,22.88-47.56,29.18-73.5,4.21-17.36,8.94-34.63,11.27-52.33,5.75-43.71,3.1-86.97-7.63-129.82-5.9-23.58-13.92-46.39-23.74-68.51-7.61-17.14-18.25-32.74-27.53-49.04-6.26-10.98-15.31-19.6-22.49-29.74-16.23-22.9-37.29-41.13-58.81-58.48-19.45-15.69-41.53-27.77-63.95-39.04-6.97-3.51-14.69-4.66-21.44-8.73-10.62-6.4-22.83-8.96-34.39-13.11-12.88-4.62-26.45-6.47-39.48-10.4-14.13-4.66-28.69-5.87-43.46-5.36-14.8-.54-29.6-.58-44.39.12-3.96-.58-7.92-1.16-11.53,1.31-.97.08-1.95.15-2.92.23-4.46-.22-9.02-1.14-13.09,1.69-34.12,4.63-66.88,14.13-98.08,28.55-28.67,13.25-55.6,29.46-80.5,49.11-28,22.09-51.48,48.25-72.87,76.57-11.72,15.52-20.77,32.6-30.1,49.5-11.75,21.28-19.98,44.03-26.33,67.51-5.65,20.87-8.72,42.06-10.75,63.56-3.95,41.67-.47,82.76,9.79,123.1,7.5,29.49,18.34,57.85,34.02,84.3,21.25,35.84,46.33,68.32,77.68,95.98,16.55,14.6,33.54,28.49,52.44,39.87,12.56,7.56,25.15,15.25,38.43,21.35,17,7.82,34.47,14.84,52.61,19.72,11.91,3.21,23.54,7.75,36,8.72,2.06,1.92,4.45,2.24,7.06,1.45,3.23-.72,5.27,3.5,8.67,2.07,2.4.53,4.81.86,7.22.1,1.01.1,2.03.2,3.04.3,2.92,2.03,6.05,2.17,9.33,1.06,21.34,1.75,42.69,1.58,64.04.06,4.59,1.06,9.06.98,13.33-1.28l.52-.15.54.03Z"/>
  <path class="cls-2" d="m863.29,1087.47c12.87-2.52,25.92-3.27,38.97-3.96-12.83,2.93-25.8,4.43-38.97,3.96Z"/>
  <path class="cls-2" d="m904.78,259.97c-4.89.16-9.63-2.42-14.68-.69-1.12.38-2.14-1.23-2.71-2.44,6.01-.09,12.03-.3,17.39,3.13Z"/>
  <path class="cls-2" d="m797.59,1085.64c7.75,0,15.57-.91,23.11,1.79-7.82.84-15.52.28-23.11-1.79Z"/>
  <path class="cls-2" d="m1246.54,580.4c-3.54-3.18-2.88-7.73-3.86-11.74,4.29,2.93,3.4,7.56,3.86,11.74Z"/>
  <path class="cls-2" d="m1253.94,633.82c-.49-1.41-.3-8.06.33-11.3.79,3.8,2.92,7.63-.33,11.3Z"/>
  <path class="cls-2" d="m772.5,260.52c-3.32,2.42-7.05,2.38-10.86,1.85,3.44-1.69,7.04-2.4,10.86-1.85Z"/>
  <path class="cls-2" d="m1271.05,1283.53c3.88-.47,7.76-.97,11.28,1.4-3.92.84-7.55-.67-11.28-1.4Z"/>
  <path class="cls-2" d="m769.82,1081.5c3.76-.07,7.6-.64,10.87,1.98-3.84.54-7.4-.48-10.87-1.98Z"/>
  <path class="cls-2" d="m814.6,255.42c-3.53,2.08-7.3,1.39-11.03.94,3.58-1.48,7.26-1.77,11.03-.94Z"/>
  <path class="cls-2" d="m786.51,258.48c-3.42,2.3-7.2,2.32-11.07,1.72,3.47-2.05,7.23-2.16,11.07-1.72Z"/>
  <path class="cls-2" d="m880.48,256.32c-3.12.57-6.25,1.15-9.13-.86,3.17-1,6.18-.39,9.13.86Z"/>
  <path class="cls-2" d="m759.61,1079.67c3.24-.39,6.5-.86,9.23,1.65-3.28.61-6.27-.46-9.23-1.65Z"/>
  <path class="cls-2" d="m787.35,1085.21c3.22-2.61,6.29-1.36,9.34.35-3.15.77-6.24.05-9.34-.35Z"/>
  <path class="cls-2" d="m1308.8,1284.97c2.82-2.31,6.07-1.8,9.3-1.41-3,1.17-5.99,2.34-9.3,1.41Z"/>
  <path class="cls-2" d="m800.51,256.6c-2.32,1.76-4.83,2.03-7.51.97,2.33-1.68,4.9-1.5,7.51-.97Z"/>
  <path class="cls-2" d="m425.61,630.5c1.37,1.19,1.04,2.26-.23,3.26-.83-1.15-.73-2.24.23-3.26Z"/>
  <path class="cls-2" d="m427.68,612.51c1.39,1.24.98,2.31-.32,3.29-.81-1.19-.68-2.28.32-3.29Z"/>
  <path class="cls-2" d="m1252.72,611.82c-1.31-.97-1.81-2.04-.39-3.32,1.05,1,1.19,2.11.39,3.32Z"/>
  <path class="cls-2" d="m1250.68,599.8c-1.23-.93-2.08-1.92-.55-3.3,1.16.94,1.27,2.05.55,3.3Z"/>
  <path class="cls-2" d="m1403.78,1200.13c-1.11-1.83-.43-3.34.84-4.74.69,1.75.51,3.35-.84,4.74Z"/>
  <path class="cls-2" d="m1248.79,590.28c-1.19-1.11-2.02-2.26-.49-3.72,1.02,1.13,1.13,2.38.49,3.72Z"/>
  <path class="cls-2" d="m903.11,1083.4c.54-.98,1.04-.89,1.51.05,0,0-.77.3-.77.3l-.74-.35Z"/>
  <path class="cls-2" d="m429.67,596.54c.23.32.46.65.7.97-.19.11-.39.21-.58.31-.48-.39-.52-.82-.12-1.28Z"/>
  <path class="cls-2" d="m1404.13,1147.29c-.85-.2-1.3-.69-1.17-1.6.95.12,1.67.42,1.17,1.6Z"/>
  <path class="cls-2" d="m906.71,308.02c-14.49-1.79-28.98-3.58-43.47-5.36,14.78-.51,29.34.71,43.47,5.36Z"/>
  <path class="cls-2" d="m804.39,304.32c-4.3,1.12-8.58,2.33-13.1,1.69,4.08-2.82,8.63-1.9,13.1-1.69Z"/>
  <path class="cls-2" d="m872.99,1038.88c4.31-1.91,8.83-1.55,13.34-1.28-4.28,2.26-8.75,2.34-13.34,1.28Z"/>
  <path class="cls-2" d="m818.85,302.78c-3.69,1.79-7.57,1.95-11.54,1.31,3.62-2.48,7.58-1.9,11.54-1.31Z"/>
  <path class="cls-2" d="m887.38,1037.48c2.79-1.75,5.84-1.98,8.99-1.53-2.69,2.38-5.82,2.05-8.99,1.53Z"/>
  <path class="cls-2" d="m799.62,1037.75c3.21-.47,6.39-.69,9.34,1.07-3.29,1.1-6.42.96-9.34-1.07Z"/>
  <path class="cls-2" d="m773.63,1033.84c2.53-.37,4.99-.36,7.07,1.45-2.62.79-5.01.47-7.07-1.45Z"/>
  <path class="cls-2" d="m789.36,1037.36c2.45-2.31,4.84-1.06,7.23.1-2.43.76-4.83.42-7.23-.1Z"/>
  <path class="cls-2" d="m1127.4,903.58c-.05-.49-.14-.97-.1-1.45,0-.12.47-.2.72-.29.59.86.41,1.45-.61,1.74Z"/>
  <path class="cls-2" d="m1152.71,707.59c0-8.65.15-17.31-.03-25.95-.49-23.78-4.39-47.12-12.08-69.52-13.96-40.68-33.06-78.62-62.72-110.54-21.22-22.83-44.76-42.77-71.92-58.15-20.09-11.38-41-21.09-63.34-27.31-51.88-14.44-103.9-16.46-156.21-1.98-25.21,6.98-48.7,17.47-71.49,30.31-31.34,17.65-57.1,41.73-80.26,68.45-16.44,18.98-29.86,40.59-40.32,63.58-8.99,19.77-16.6,40.42-20.43,61.68-7.01,38.85-7.12,77.92.13,117.14,3.65,19.76,8.82,38.86,17.07,56.87,12.3,26.86,27.84,51.94,47.51,74.21,20.18,22.86,43.04,42.47,69.19,58.33,13.27,8.04,27.45,13.78,41.57,19.99,14.92,6.55,30.62,9.85,46.06,14.13,11.71,3.25,24.1,4.08,35.74,5.92-3.79,1.07-8.22,1.12-12.59.78-25.7-2.01-51.03-6.15-75.76-13.62-23.14-6.99-45.48-16.49-66.06-28.69-23.65-14.01-45.68-30.76-65.18-50.63-27.03-27.56-48.73-58.57-64.49-93.79-6.75-15.09-12.13-30.61-16.48-46.57-11.02-40.37-12.33-81.28-7.09-122.5,3.38-26.63,10.58-52.3,20.99-77.14,21.45-51.18,53.87-93.97,96.79-129.01,38.69-31.59,82.58-52.52,131.05-63.93,33.55-7.9,67.57-11.69,101.87-6.79,21.52,3.08,43.06,6.57,63.81,13.7,84.91,29.17,147.65,83.77,187.53,164.12,8.29,16.71,13.99,34.63,19.66,52.58,10.52,33.3,12.4,67.13,11.31,101.49-.14,4.32-.46,8.65-.9,12.95-.33,3.25-.99,6.47-1.51,9.71l-1.41.19Z"/>
</svg>