<?xml version="1.0" encoding="UTF-8"?>
<svg id="Layer_1" data-name="Layer 1" xmlns="http://www.w3.org/2000/svg" viewBox="0 0 1035.59 1438.17">
  <defs>
    <style>
      .cls-1 {
        fill: #2c3844;
      }

      .cls-2 {
        fill: #8c48fd;
      }
    </style>
  </defs>
  <path class="cls-1" d="m352.35,608.89c.12-1.81.34-3.63.34-5.44,0-20.97-.84-41.98.23-62.9.85-16.57,4.39-32.78,10.77-48.5,6.81-16.77,14.75-32.72,25.79-46.97,16.47-21.25,36.74-38.03,60.61-50.56,17.16-9.01,35.38-14.97,54.36-17.78,14.81-2.19,29.9-1.67,44.96-.46,18.92,1.53,36.61,7.3,54.17,13.64,9.4,3.39,17.73,9.17,26.06,14.72,9.37,6.24,17.71,13.62,26.14,21.12,19.08,16.97,31.77,38,42,60.72,5.7,12.65,8.18,26.41,10.6,40.13,4.23,24.04,1.85,48.24,2.51,72.37.03,1.16.14,2.35-.01,3.49-.67,4.9.72,6.89,6.31,6.61,6.68-.33,13.43-.88,20.22.95,12.32,3.33,21.71,14.74,21.72,27.84.04,40.61,0,81.22,0,121.83,0,68.24-.06,136.47.05,204.71.03,17.55-14.61,30.98-30.77,30.93-130.81-.4-261.62-.24-392.44-.04-9.5.01-18.11-1.68-23.65-9.51-3.97-5.61-7.77-11.85-7.76-19.35.02-109.51.03-219.02.04-328.54,0-14.98,8.7-24.69,23.52-27.91,8.13-1.77,16.13-.61,24.17-1.05,0,0,.08-.06.08-.06Zm63.27-36.46s-.04,0-.06,0c0,9.65,0,19.31,0,28.96,0,7.46.02,7.5,7.28,7.5,61.58.02,123.16.03,184.75.03,12.15,0,24.3-.14,36.45,0,3.28.04,4.18-.9,4.15-4.23-.16-16.97-.06-33.95,0-50.93.05-16.33-3.31-32.11-10.03-46.79-13.99-30.56-37.19-51.55-68.93-62.9-12.99-4.64-26.4-5.77-40.17-5.81-18.97-.06-36.45,4.62-52.94,13.57-9.52,5.17-18.93,10.84-26.55,18.46-8.21,8.21-14.71,17.96-20.23,28.32-6.79,12.75-12.41,25.94-13.53,40.39-.86,11.08-.17,22.28-.17,33.42Zm116.02,315.71c6.82,0,13.64.03,20.46,0,6.36-.03,7.5-1.29,7.3-7.76-.12-3.97-1.03-7.83-1.23-11.82-.49-9.55-2.16-19.05-2.35-28.59-.24-11.98-1.78-23.85-2.29-35.79-.06-1.45.19-2.88,1.63-3.31,5.54-1.68,8.02-6.63,11.44-10.52,11.12-12.64,11.51-28.03,7.15-42.48-4.61-15.27-17.59-24.68-32.72-28.26-8.3-1.97-18.08-2.01-26.49,2.76-9.35,5.3-19.31,9.76-22.9,21.46-1.21,3.94-2.44,7.89-3.48,11.87-1.69,6.45-2.24,13.99.02,19.41,3.33,7.98,6.81,16.94,15.14,21.89,5.3,3.15,7.71,6.75,6.5,13.74-1.81,10.42-1.2,21.23-2.6,31.74-1.72,12.96-1.51,26.03-3.07,38.99-.51,4.25,1.8,6.81,6.54,6.72,6.98-.13,13.97-.03,20.95-.03Z"/>
  <polygon class="cls-2" points="352.35 608.89 352.27 608.95 352.19 608.79 352.35 608.89"/>
  <path class="cls-2" d="m531.64,888.14c-6.98,0-13.97-.1-20.95.03-4.74.09-7.06-2.47-6.54-6.72,1.57-12.96,1.35-26.03,3.07-38.99,1.39-10.51.79-21.33,2.6-31.74,1.21-6.98-1.2-10.59-6.5-13.74-8.33-4.95-11.81-13.91-15.14-21.89-2.26-5.41-1.71-12.95-.02-19.41,1.04-3.98,2.27-7.93,3.48-11.87,3.59-11.71,13.55-16.17,22.9-21.46,8.41-4.76,18.18-4.72,26.49-2.76,15.13,3.59,28.12,12.99,32.72,28.26,4.36,14.45,3.97,29.84-7.15,42.48-3.42,3.89-5.9,8.84-11.44,10.52-1.43.43-1.69,1.87-1.63,3.31.51,11.95,2.05,23.81,2.29,35.79.19,9.54,1.86,19.04,2.35,28.59.2,3.99,1.11,7.85,1.23,11.82.2,6.47-.94,7.73-7.3,7.76-6.82.04-13.64,0-20.46,0Z"/>
</svg>