<?xml version="1.0" encoding="UTF-8"?>
<svg id="Layer_1" data-name="Layer 1" xmlns="http://www.w3.org/2000/svg" viewBox="0 0 3396.51 1907.38">
  <defs>
    <style>
      .cls-1 {
        fill: #3d4a54;
      }

      .cls-2 {
        fill: #fdfdfd;
      }

      .cls-3 {
        fill: #6c65d6;
      }
    </style>
  </defs>
  <path class="cls-1" d="m542.97,456.1c5.65-.19,11.31-.55,16.96-.55,78.6-.02,157.21-.06,235.81.14,7.01.02,12.53-1.62,18.13-6.11,59.76-47.84,119.77-95.37,179.64-143.08,86.42-68.87,172.87-137.69,259.09-206.8,23.18-18.58,49.56-25.19,78.22-21.52,35.73,4.58,62.04,24.01,78.25,56.08,4.96,9.81,7.88,20.76,9.96,31.72-1.07,1.88-1.19,3.68.54,5.28.21,38.94.6,77.88.6,116.82.02,363.81-.03,727.62-.05,1091.43,0,41.27-.12,82.55.16,123.82.14,19.73-3.45,38.66-12.26,56.17-11.56,22.98-30.27,38.39-54.29,47.5-3.52,1.34-7.8,1.44-10.13,5.18h-55.97c-.67-2.31-3.13-2.55-4.66-3.13-13.75-5.22-26.14-12.62-37.59-21.79-53.52-42.83-107.13-85.53-160.63-128.37-90.85-72.74-181.66-145.55-272.46-218.35-5.04-4.04-10.32-5.97-17.12-5.94-76.57.28-153.15.22-229.73.22-6.65,0-13.31-.29-19.96-.45-3.24-2.35-6.94-1.75-10.56-1.63-7.22.92-12.87-3.34-19.24-5.49-24.12-8.16-43.7-22.55-58.54-42.82-10.88-14.86-20.49-30.74-21.67-50.02.99-4.46-.28-8.27-3.31-11.58v-557.29c5.59-1.53,3.39-5.91,3.46-9.45,2.26-24.06,14.64-43.28,29.87-60.89,10.71-12.37,23.86-22.03,38.97-28.29,10.46-4.33,21.05-8.93,32.62-9.8,2.07.44,4.15.79,5.87-.98Zm783.47,1102.58c24.31-4.83,39.44-25.14,40.03-50.02.21-8.65-.04-17.3-.04-25.96-.04-242.64-.07-485.28-.12-727.92-.04-188.72-.12-377.44-.11-566.17,0-7.63-.4-15.2-2.69-22.42-5.47-17.23-16.52-29.33-34.25-34.21-17.49-4.82-32.51.7-46.24,11.77-46.39,37.39-92.83,74.72-139.42,111.85-80.69,64.31-161.5,128.45-242.26,192.68-17.72,14.09-35.23,28.44-53.18,42.22-5.56,4.27-8.74,8.75-7.72,15.84.28,1.96.04,3.99.04,5.99,0,218.01-.02,436.03-.03,654.04,0,6.99.05,13.98-.06,20.97-.07,4.52.76,7.89,5.29,10.68,6.61,4.07,12.17,9.81,18.61,14.2,9.87,6.72,17.29,16.35,27.26,22.81,9.22,5.98,17.59,13.01,26.12,19.83,57.73,46.1,115.34,92.36,173,138.56,63.89,51.21,127.78,102.43,191.7,153.61,7.21,5.77,14.63,11.25,24.45,11.56,6.53,2.58,13.06,2.82,19.62.1Zm-539.73-712.78h-.19c0-108.84,0-217.67,0-326.51,0-2-.09-3.99-.08-5.99.01-2.96-1.56-4.1-4.36-4.03-2,.05-4-.03-5.99-.03-73.27-.03-146.54.04-219.81-.17-13.11-.04-25.11,3.34-36.05,10.02-15.49,9.46-26.59,22.89-31.1,40.6-2.28,8.93-2.06,18.44-2.03,27.77.16,62.9.26,125.81.36,188.72.18,114.49-.69,228.97.28,343.46.07,7.7,2.16,14.75,5.65,20.88,14.74,25.92,36.55,40.31,67.36,40.18,71.61-.3,143.21-.1,214.82-.17,12.16-.01,11.15,1.76,11.15-11.23.02-107.84.01-215.68.01-323.51Z"/>
  <path class="cls-3" d="m2208.88,817.1c-1.27-89.54-1.49-179.08-2.78-268.61-.58-40.27-.21-80.56-1.39-120.81-1.29-43.93-1.14-87.86-1.64-131.8-.09-8.12-1.95-15.27-9.57-19.52-10.42-5.82-23.6-1.27-28.67,9.61-1.3,2.79-1.69,5.72-2.18,8.67-12.38,74.84-23.98,149.8-37.05,224.52-8.48,48.47-16.09,97.1-24.05,145.66-5.53,33.75-10.52,67.6-16.64,101.24-4.39,24.16-6.84,48.6-11.63,72.67-5.69,28.59-7.96,57.79-14.46,86.15-4.21,18.35-5.26,37.04-8.87,55.44-3.36,17.14-6.43,34.47-8.46,51.91-2.28,19.61-10.08,36.67-26.27,48.5-37.42,27.32-87.18,12.36-104.22-28.63-3.02-7.27-4.91-14.85-6.23-22.78-4.44-26.51-8.66-53.07-14.83-79.31-4.36-18.55-6.17-37.68-9.6-56.46-6.19-33.91-11.61-67.95-18.47-101.75-3.4-16.8-6.15-33.85-8.74-50.86-1.84-12.12-3.95-24.19-6.11-36.26-1.04-5.83-4.62-9.48-9.51-10.29-4.05-.67-9.32,2.37-11.21,7.9-3.73,10.93-6.83,22.09-10.03,33.2-7.17,24.91-15.08,49.62-22,74.56-4.65,16.76-11.5,31.41-24.91,42-13.5,10.66-28.52,19.29-46.56,19.34-58.3.17-116.59.26-174.89.01-18.85-.08-30.41-15.79-26.01-34.05,2.33-9.67,10.09-16.95,20.14-18.32,4.59-.62,9.3-.55,13.96-.55,48.97-.03,97.94-.02,146.91-.01,3.33,0,6.66.06,9.99-.03,15.66-.42,23.08-5.65,28.6-20.24,5.3-14.02,9.04-28.53,13.24-42.89,6.25-21.38,12.26-42.83,18.56-64.2,5.58-18.91,16.19-34.1,34.16-43.17,18.65-9.41,37.17-9.15,56.16.11,17.08,8.33,28.72,20.81,34.16,38.88,1.89,6.28,3,12.81,4.17,19.28,3.41,18.91,6.51,37.88,9.8,56.81,3.91,22.47,8.18,44.92,12.45,67.34,3.33,17.5,6.53,35.03,9.4,52.61,4.42,27.04,11.15,53.68,14.56,80.87,2.22,17.68,8,34.66,9.32,52.49.36,4.86,2.26,9.63,3.62,14.39,1.85,6.49,6.74,10.16,13.11,10.05,6.26-.11,11.26-3.99,12.59-10.72,2.32-11.74,4.21-23.56,6.23-35.36,4.02-23.47,7.02-47.1,11.2-70.56,2.13-11.95,3.24-24.37,5.5-36.2,4.4-23.04,7.39-46.29,11.77-69.33,6.33-33.26,11.95-66.69,16.45-100.24,1.66-12.37,5.53-24.43,5.88-36.78.35-12.45,4.31-24.15,5.52-36.43,1.09-11.03,4.66-22.17,6.06-33.3,2.67-21.19,8-41.92,9.94-63.24.97-10.66,5.04-21.05,5.89-31.71,1.04-13.1,4.37-25.69,6.43-38.54,2.11-13.14,4.39-26.25,6.57-39.38,3.96-23.88,8.54-47.68,11.66-71.67,2.69-20.69,6.81-41.14,9.76-61.79,1.93-13.56,3.69-27.52,9.39-40.54,13.15-30.07,43.79-48.86,76.36-44.63,13.2,1.71,26.22,5.53,37.14,14.28,11.22,8.98,19.67,19.92,24.16,33.55,3,9.11,4.58,18.59,4.68,28.27.82,80.55,1.23,161.11,2.66,241.65,1.12,63.24.54,126.49,1.91,189.72,1.05,48.59.43,97.2,1.68,145.78,1.76,67.89,1.36,135.79,2.21,203.68.81,64.9,1.32,129.81,2.06,194.71.23,19.97.79,39.93,1.19,59.89.07,3.34.13,6.67,1.53,9.79,1.72,3.85,4.15,6.92,8.77,7.08,4.97.18,7.97-2.69,10.04-6.87,1.39-2.79,1.39-5.78,1.46-8.78.83-31.61,1.63-63.22,2.5-94.83,2.02-73.52,4.06-147.05,6.13-220.57,1.93-68.54,3.92-137.07,5.89-205.6,1.26-43.91,2.62-87.83,3.74-131.74.54-21.32,9.32-38.67,25.31-52.21,28.7-24.29,76.43-19.15,98.55,15.87,7.23,11.44,10.96,24.14,11.34,37.53,1.31,46.25,5.29,92.35,7.97,138.52,3.07,52.81,6.71,105.61,9.43,158.45,2.34,45.23,6,90.37,8.05,135.6.14,2.98.34,6.02,1.03,8.91,1.7,7.09,7.26,11.7,14.06,12.05,7.42.39,12.84-2.98,15.73-9.87,1.97-4.7,2.25-9.66,2.28-14.69.2-30.29,0-60.6.81-90.88,1.44-54.25.68-108.52,2.07-162.75,1-39.27.48-78.56,1.54-117.81,1.83-67.56.88-135.14,2.33-202.69.77-35.94.55-71.89,1.37-107.82.69-30.31,13.73-54.64,40.03-69.35,58.63-32.79,120.72,9.29,122.07,66.6,1.54,64.89,1.35,129.81,2.67,194.71,1.07,52.59.52,105.19,1.77,157.76,1.09,45.93.63,91.87,1.56,137.79,1.38,67.56,1.14,135.15,2.42,202.7.63,32.94.68,65.89,1.47,98.82.11,4.7.24,9.43,3.13,13.33,3.54,4.79,8.29,7.78,14.53,6.91,4.95-.69,13.36-10.05,13.91-15.53.76-7.61,1.48-15.25,1.64-22.89,1.23-56.9,5.51-113.68,7.03-170.58,1.19-44.56,4.34-89.06,6.38-133.6,1.62-35.24,2.78-70.51,4.32-105.76,1.44-32.91,2.91-65.82,4.78-98.71,1.38-24.31,10.94-44.42,32.32-57.62,34.63-21.39,80.83-6.27,95.91,31.47,5.33,13.35,6.05,27.7,8.01,41.77,4.6,32.94,9.49,65.83,14.12,98.77,4.64,32.93,9.09,65.88,13.68,98.82,2.62,18.77,5.32,37.53,8.06,56.29.38,2.62.99,5.23,1.83,7.74,1.37,4.1,4.04,6.76,8.65,7.11,4.59.35,7.79-1.87,9.76-5.62,1.68-3.21,2.91-6.71,3.92-10.2,7.79-26.82,15.84-53.57,23.1-80.54,7.51-27.87,25.34-46.04,51.38-56.85,8.09-3.36,16.91-3.9,25.55-3.92,61.63-.16,123.25-.12,184.88-.13,11.31,0,20.82,4.32,24.9,14.99,3.72,9.73,4.06,20.27-3.2,29.31-4.35,5.42-9.98,8.77-17.05,9.23-3.32.22-6.66.23-9.99.23-57.63-.03-115.26-.08-172.89-.12-3.66,0-7.29-.02-10.92.86-9.82,2.38-16.8,7.81-19.71,17.76-4.18,14.29-8.07,28.67-12.49,42.89-3.81,12.26-5.76,25.04-11.15,36.9-1.98,4.34-1.83,9.67-3.49,14.41-10.43,29.77-35.46,47.05-66.84,44.65-29.44-2.26-52.16-21.55-58.47-52.76-3.62-17.91-5.64-36.14-8.2-54.25-6.27-44.45-12.47-88.91-18.63-133.37-4.39-31.63-8.72-63.28-12.93-94.93-.63-4.76-1.65-9.13-5.22-12.59-5-4.85-10.92-4.97-15.96-.19-2.99,2.84-4.94,6.26-5.21,10.48-.4,6.31-.92,12.61-1.15,18.93-1.36,37.25-2.44,74.51-4.01,111.75-2.15,51.2-4.56,102.4-7.02,153.59-2.86,59.83-6.22,119.63-7.98,179.51-.69,23.61-1.59,47.26-3.66,70.77-5.43,61.67-67.25,78.67-105.01,56.24-15.82-9.4-25.98-23.47-31.64-40.86-1.83-5.62-2.95-11.26-3.01-17.34-.71-72.89-1.15-145.79-2.74-218.66-1.43-65.9-.71-131.82-2.4-197.7-1.12-43.6-.45-87.21-1.55-130.8-1.6-63.24-.9-126.49-2.15-189.72-.38-18.97-.8-37.93-.95-56.9-.04-4.72-.6-9.25-2.92-13.49-3.31-6.06-7.58-10.11-14.82-11.93-24.13-6.08-36.97,8.33-36.93,27.35.02,10.65-.03,21.31-.14,31.96-.72,74.56-1.06,149.12-2.36,223.67-.8,45.93-.58,91.87-1.75,137.79-1.44,56.25-.75,112.51-2.16,168.74-1.01,40.6-.78,81.21-1.56,121.81-.22,11.38-1.63,22.54-6.63,33-19.74,41.32-75.55,53.27-110.23,23.23-16.01-13.87-22.73-32.64-23.99-53.2-3.34-54.48-6.07-109-9.31-163.48-2.63-44.18-5.82-88.33-8.48-132.51-2.1-34.87-3.55-69.78-5.74-104.65-.73-11.61-1.25-23.22-1.62-34.85-.16-4.84-1.64-8.9-5-12.63-4.03-4.49-9-4.04-13.82-3.29-4.83.75-6.79,5.03-7.88,9.24-.74,2.85-.63,5.94-.7,8.92-1.71,82.52-5.5,164.98-6.93,247.52-.73,42.25-2.25,84.49-3.67,126.73-2.46,72.84-5.12,145.68-6.34,218.56-.29,17.29-.51,34.61-1.34,51.89-.94,19.74-4.71,38.64-19.46,53.64-28.73,29.21-77.69,23.92-99.13-11.03-7.26-11.84-11.16-24.71-11.17-38.79,0-26.63.11-53.28-.66-79.89-1.52-52.25-.89-104.52-2.2-156.75-1.01-39.94-.65-79.88-1.29-119.82-.87-53.58-1.42-107.17-2.1-160.75Z"/>
  <path class="cls-3" d="m1419.57,171.25c-1.73-1.61-1.61-3.4-.54-5.28,1.4,1.64,1.59,3.4.54,5.28Z"/>
  <path class="cls-3" d="m542.97,456.1c-1.72,1.77-3.8,1.42-5.87.98,1.76-1.57,3.78-1.49,5.87-.98Z"/>
  <path class="cls-2" d="m1306.83,1558.58c-9.83-.31-17.25-5.79-24.45-11.56-63.92-51.18-127.81-102.4-191.7-153.61-57.65-46.21-115.26-92.46-173-138.56-8.53-6.81-16.9-13.85-26.12-19.83-9.96-6.46-17.38-16.09-27.26-22.81-6.44-4.39-12-10.12-18.61-14.2-4.52-2.79-5.36-6.16-5.29-10.68.11-6.99.06-13.98.06-20.97.01-218.01.02-436.03.03-654.04,0-2,.24-4.03-.04-5.99-1.02-7.09,2.16-11.57,7.72-15.84,17.95-13.78,35.47-28.13,53.18-42.22,80.75-64.22,161.57-128.37,242.26-192.68,46.59-37.14,93.03-74.46,139.42-111.85,13.73-11.06,28.75-16.59,46.24-11.77,17.73,4.89,28.78,16.99,34.25,34.21,2.29,7.22,2.69,14.79,2.69,22.42-.02,188.72.07,377.44.11,566.17.05,242.64.08,485.28.12,727.92,0,8.65.25,17.31.04,25.96-.59,24.88-15.72,45.18-40.02,50.01-6.53-.03-13.08-.07-19.63-.1Z"/>
  <path class="cls-2" d="m786.71,845.9c0,107.84,0,215.68-.01,323.51,0,12.99,1.01,11.22-11.15,11.23-71.61.07-143.21-.13-214.82.17-30.81.13-52.62-14.25-67.36-40.18-3.49-6.13-5.58-13.18-5.65-20.88-.98-114.49-.1-228.98-.28-343.46-.1-62.91-.2-125.81-.36-188.72-.02-9.33-.24-18.83,2.03-27.77,4.51-17.71,15.61-31.15,31.1-40.6,10.95-6.68,22.94-10.06,36.05-10.02,73.27.21,146.54.14,219.81.17,2,0,4,.08,5.99.03,2.81-.08,4.37,1.07,4.36,4.03,0,2,.08,3.99.08,5.99,0,108.84,0,217.67,0,326.51h.19Z"/>
  <path class="cls-3" d="m1306.83,1558.58c6.55.03,13.1.06,19.63.1-6.57,2.73-13.11,2.49-19.63-.1Z"/>
  <path class="cls-3" d="m545.5,1234.34c-3.7.59-7.19-.21-10.57-1.63,3.63-.12,7.33-.72,10.57,1.63Z"/>
</svg>