<?xml version="1.0" encoding="UTF-8"?>
<svg id="Layer_1" data-name="Layer 1" xmlns="http://www.w3.org/2000/svg" viewBox="0 0 3623.97 2411.42">
  <defs>
    <style>
      .cls-1 {
        fill: #6963d7;
      }

      .cls-2 {
        fill: #3a4753;
      }

      .cls-3 {
        fill: #fefefe;
      }
    </style>
  </defs>
  <path class="cls-2" d="m593.64,1980.43c-14.29-4.75-28.87-8.61-41.62-17.31-21.66-14.8-37.9-33.93-47.14-58.46-5-13.29-6.86-27.38-6.86-41.66.02-431.35.05-862.7-.05-1294.05,0-12.09,1.05-24.26,4.49-35.46,3.93-12.8,9.04-25.81,17.72-36.47,11.46-14.08,23.69-27.77,40.15-36.09,17.99-9.1,36.73-15.73,57.62-15.15,25.62.71,51.27.17,76.91.17,170.82,0,341.64,0,512.46,0,661.05,0,1322.1,0,1983.15,0,24.65,0,47.58,6.6,67.81,20.45,19.51,13.36,34.22,30.9,43.46,53.27,4.16,10.06,6.3,20.45,9.59,30.62v1322.28c-1.99,3.5-2.16,7.3-1.78,11.18-.08,5.7-2.51,10.85-3.73,16.2-4.94,21.71-17.82,38.1-33.67,52.36-9.33,8.39-20.65,14.13-32.23,19.41-6.78,3.1-14.44,4.1-20.52,8.71H593.64Zm1310.87-74.42c424.59,0,849.19,0,1273.78,0,5,0,10,.16,14.98-.13,15.13-.87,26.85-8.4,35.44-20.24,5.68-7.83,7.68-17.25,7.62-27.18-.18-27.62.07-55.25.08-82.88.03-137.14.06-274.27.06-411.41,0-124.82,0-249.64-.06-374.45-.05-114.5-.16-229-.24-343.5-.02-25.3-.07-50.59.02-75.89.03-8.48-1.32-16.53-5.58-23.99-9.97-17.48-25.22-25.55-45.09-25.55-360.99,0-721.98.02-1082.96.02-475.21,0-950.43-.01-1425.64-.02-18.65,0-37.3.07-55.95-.06-22.27-.16-48.42,21.34-47.28,47.63.1,2.33,0,4.66,0,6.99.03,391.12.06,782.23.09,1173.35,0,37.28.1,74.56.06,111.84-.02,19.02,13.65,43.01,39.92,45.16,2.65.22,5.32.3,7.98.3,427.59.01,855.18.01,1282.77.02Z"/>
  <path class="cls-1" d="m1854.03,1664.44c-232.6,3.34-424.45-198.03-424.16-425.27.3-229.59,188.03-426.75,424.26-426.8,238.73-.05,429.34,194.63,426.77,433.48-2.41,224.04-190.9,421.98-426.86,418.59Zm354.81-428.87c.89-24.29-2.72-49.29-8.53-73.96-21.04-89.47-68.18-161.62-143.56-214.81-48.54-34.26-102.72-53.2-161.54-60.6-55.43-6.98-108.98.51-160.97,19.2-58.82,21.15-108.53,55.97-148.56,104.23-15.7,18.94-30.11,38.76-41.2,60.82-4.15,8.25-9.18,16.2-12.25,24.83-4.06,11.41-11.08,21.54-13.84,33.44-2.13,9.18-4,18.44-6.61,27.49-6.54,22.65-9.46,45.87-10.04,69.28-1.3,52.21,7.93,102.38,28.8,150.59,27.41,63.3,68.66,115.45,124.85,155,41.16,28.97,87.19,47.88,137.02,56.8,32.92,5.9,65.94,8.13,99.32,4.12,39.94-4.8,78.16-15.36,114.54-32.52,41.09-19.38,76.58-46.31,107.55-79.41,18.75-20.04,33.96-42.6,48.17-65.96,14.34-23.58,23.77-49.39,32.18-75.29,10.69-32.94,15.55-67.22,14.67-103.24Z"/>
  <path class="cls-3" d="m2208.84,1235.57c.88,36.03-3.98,70.3-14.67,103.24-8.4,25.9-17.84,51.71-32.18,75.29-14.21,23.36-29.42,45.92-48.17,65.96-30.97,33.1-66.46,60.03-107.55,79.41-36.38,17.16-74.6,27.72-114.54,32.52-33.38,4.01-66.4,1.78-99.32-4.12-49.83-8.93-95.86-27.83-137.02-56.8-56.19-39.55-97.44-91.7-124.85-155-20.87-48.2-30.1-98.38-28.8-150.59.58-23.41,3.5-46.63,10.04-69.28,2.61-9.04,4.48-18.31,6.61-27.49,2.76-11.9,9.78-22.03,13.84-33.44,3.07-8.64,8.1-16.58,12.25-24.83,11.09-22.06,25.5-41.88,41.2-60.82,40.03-48.26,89.74-83.08,148.56-104.23,51.99-18.69,105.54-26.18,160.97-19.2,58.82,7.4,113,26.34,161.54,60.6,75.38,53.19,122.52,125.35,143.56,214.81,5.8,24.67,9.41,49.67,8.53,73.96Zm-537.71,1.24s.05,0,.07,0c0,54.56.02,109.13-.01,163.69-.02,28.61,16.56,56.29,44.78,65.26,3.14,1,5.12,4.8,8.71,3.76,5.93-1.72,11.88-.1,17.81-.63,10.36-.93,20.1-3.12,29.15-8.81,14.02-8.82,28.41-17.05,42.74-25.36,24.59-14.26,49.34-28.26,73.88-42.6,38.69-22.6,77.25-45.42,115.9-68.08,16.06-9.42,32.43-18.35,48.29-28.08,26.57-16.3,38.93-48.77,29.76-76.87-6.62-20.3-20.59-33.89-39.12-43.75-15.9-8.45-31.43-17.6-46.98-26.68-21.23-12.41-42.27-25.13-63.49-37.56-14.14-8.29-28.49-16.2-42.64-24.47-39.91-23.33-79.68-46.92-119.69-70.07-15.68-9.07-32.94-10.81-50.25-6.3-29.58,7.7-48.85,33.3-48.9,63.87-.08,54.23-.02,108.46-.02,162.7Z"/>
  <path class="cls-1" d="m1671.13,1236.82c0-54.23-.06-108.46.02-162.7.05-30.57,19.31-56.18,48.9-63.87,17.31-4.5,34.57-2.77,50.25,6.3,40.02,23.15,79.78,46.74,119.69,70.07,14.15,8.27,28.5,16.18,42.64,24.47,21.21,12.43,42.26,25.16,63.49,37.56,15.55,9.09,31.09,18.23,46.98,26.68,18.53,9.86,32.5,23.44,39.12,43.75,9.17,28.1-3.19,60.57-29.76,76.87-15.87,9.73-32.23,18.66-48.29,28.08-38.65,22.66-77.21,45.48-115.9,68.08-24.55,14.34-49.29,28.34-73.88,42.6-14.33,8.31-28.73,16.54-42.74,25.36-9.04,5.69-18.79,7.89-29.15,8.81-5.93.53-11.88-1.09-17.81.63-3.59,1.04-5.57-2.76-8.71-3.76-28.23-8.97-44.8-36.65-44.78-65.26.03-54.56.01-109.13.01-163.69-.02,0-.05,0-.07,0Zm68.23-160.75c-2.11,18.35-1.15,316.95,1.15,324.71,92.11-53.99,183.97-107.83,276.92-162.31-93.38-54.53-185.09-108.09-278.08-162.39Z"/>
  <path class="cls-3" d="m1739.36,1076.06c92.99,54.3,184.7,107.86,278.08,162.39-92.95,54.48-184.81,108.32-276.92,162.31-2.31-7.76-3.26-306.36-1.15-324.71Z"/>
</svg>